<svg xmlns="http://www.w3.org/2000/svg" xmlns:xlink="http://www.w3.org/1999/xlink" width="873.519" height="877.94" viewBox="0 0 655.139 658.455" xmlns:v="https://vecta.io/nano"><style><![CDATA[.B{stroke:#000}.C{stroke-width:.8}]]></style><g fill="#fff"><path d="M0 658.455h655.139V0H0z"/><path d="M34.241 620.899h613.699V7.2H34.241z"/></g><g fill="#e3f3ff" stroke="#0055d4" stroke-width="1.5"><path d="M341.09 611h37.119c0-10.932-.537-21.865-1.609-32.745l-36.94 3.638A296.96 296.96 0 0 1 341.09 611"/><path d="M378.209 611h37.119c0-12.147-.597-24.294-1.787-36.383l-36.94 3.638c1.072 10.88 1.609 21.812 1.609 32.745"/><path d="M415.328 611h37.119c0-13.362-.656-26.724-1.966-40.021l-36.94 3.638c1.191 12.089 1.787 24.236 1.787 36.383"/><path d="M452.447 611h37.119c0-14.577-.716-29.153-2.145-43.659l-36.94 3.638c1.31 13.297 1.966 26.659 1.966 40.021"/><path d="M489.565 611h37.119c0-15.791-.776-31.582-2.324-47.298l-36.94 3.638c1.429 14.506 2.145 29.083 2.145 43.659"/><path d="M526.684 611h37.119c0-17.006-.835-34.012-2.502-50.936l-36.94 3.638c1.548 15.715 2.324 31.506 2.324 47.298"/><path d="M563.803 611h37.119c0-18.221-.895-36.441-2.681-54.574l-36.94 3.638c1.667 16.924 2.502 33.93 2.502 50.936"/><path d="M600.922 611h37.119a594.04 594.04 0 0 0-2.86-58.213l-36.94 3.638a556.88 556.88 0 0 1 2.681 54.574M339.66 581.894l36.94-3.638a334.18 334.18 0 0 0-4.81-32.429l-36.406 7.242a296.8 296.8 0 0 1 4.276 28.826"/><path d="M376.6 578.256l36.94-3.638c-1.191-12.089-2.975-24.119-5.345-36.032l-36.406 7.242c2.133 10.722 3.739 21.549 4.81 32.429"/><path d="M413.54 574.617l36.94-3.638c-1.31-13.298-3.273-26.531-5.879-39.636l-36.406 7.242c2.37 11.914 4.154 23.944 5.345 36.032"/><path d="M450.48 570.979l36.94-3.638c-1.429-14.506-3.57-28.943-6.414-43.239l-36.406 7.242c2.607 13.105 4.57 26.338 5.879 39.636"/><path d="M487.421 567.341l36.94-3.638c-1.548-15.715-3.868-31.354-6.948-46.842l-36.406 7.242c2.844 14.296 4.985 28.733 6.414 43.239"/><path d="M524.361 563.703l36.94-3.638c-1.667-16.924-4.165-33.766-7.483-50.445l-36.406 7.242c3.081 15.488 5.401 31.127 6.948 46.842"/><path d="M561.301 560.064l36.94-3.638c-1.786-18.133-4.463-36.178-8.017-54.049l-36.406 7.242c3.318 16.679 5.816 33.521 7.483 50.445"/><path d="M598.241 556.426l36.94-3.638a593.91 593.91 0 0 0-8.552-57.652l-36.406 7.242a556.53 556.53 0 0 1 8.017 54.049m-262.856-3.359l36.406-7.242a334.11 334.11 0 0 0-7.966-31.802L328.303 524.8a296.96 296.96 0 0 1 7.081 28.268"/><path d="M371.79 545.826l36.406-7.242c-2.37-11.914-5.325-23.711-8.851-35.335l-35.521 10.775c3.174 10.462 5.833 21.079 7.966 31.802"/><path d="M408.195 538.585l36.406-7.242c-2.607-13.105-5.857-26.082-9.736-38.869l-35.521 10.775c3.526 11.624 6.481 23.421 8.851 35.335"/><path d="M444.601 531.343l36.406-7.242c-2.844-14.296-6.39-28.453-10.621-42.402l-35.521 10.775c3.879 12.786 7.129 25.763 9.736 38.869"/><path d="M481.007 524.102l36.406-7.242c-3.081-15.488-6.922-30.824-11.506-45.936L470.386 481.7c4.231 13.949 7.778 28.106 10.621 42.402"/><path d="M517.412 516.86l36.406-7.242c-3.318-16.679-7.455-33.195-12.391-49.469l-35.521 10.775c4.584 15.111 8.426 30.448 11.506 45.936"/><path d="M553.818 509.619l36.406-7.242c-3.555-17.871-7.987-35.567-13.276-53.003l-35.521 10.775c4.937 16.274 9.074 32.79 12.391 49.469"/><path d="M590.224 502.377l36.406-7.242a593.72 593.72 0 0 0-14.162-56.536l-35.521 10.775a556.71 556.71 0 0 1 13.276 53.003M328.303 524.8l35.521-10.775a333.94 333.94 0 0 0-11.045-30.868l-34.293 14.205c3.719 8.978 6.997 18.139 9.817 27.438"/><path d="M363.824 514.025l35.521-10.775c-3.526-11.624-7.623-23.075-12.272-34.297l-34.293 14.205c4.184 10.1 7.871 20.406 11.045 30.868"/><path d="M399.344 503.25l35.521-10.775c-3.879-12.787-8.386-25.382-13.499-37.727l-34.293 14.205c4.649 11.222 8.746 22.673 12.272 34.297"/><path d="M434.865 492.475l35.521-10.775c-4.231-13.949-9.148-27.69-14.726-41.157l-34.293 14.205c5.113 12.345 9.62 24.941 13.499 37.727"/><path d="M470.386 481.7l35.521-10.775c-4.584-15.111-9.91-29.997-15.953-44.587l-34.293 14.205c5.578 13.467 10.495 27.208 14.726 41.157"/><path d="M505.906 470.925l35.521-10.775c-4.936-16.274-10.672-32.305-17.181-48.016l-34.293 14.205c6.043 14.589 11.37 29.475 15.953 44.587"/><path d="M541.427 460.15l35.521-10.775c-5.289-17.436-11.435-34.612-18.408-51.446l-34.293 14.205c6.508 15.711 12.244 31.743 17.181 48.016"/><path d="M576.947 449.375l35.521-10.775a593.92 593.92 0 0 0-19.635-54.876l-34.293 14.205a556.81 556.81 0 0 1 18.408 51.446m-258.462 47.987l34.293-14.205c-4.184-10.1-8.863-19.995-14.017-29.636l-32.736 17.498a296.96 296.96 0 0 1 12.46 26.344"/><path d="M352.779 483.157l34.293-14.205c-4.648-11.223-9.848-22.217-15.574-32.929l-32.736 17.498c5.154 9.641 9.833 19.536 14.017 29.636"/><path d="M387.073 468.953l34.293-14.205c-5.113-12.345-10.833-24.438-17.132-36.222l-32.736 17.498c5.726 10.713 10.926 21.707 15.574 32.929"/><path d="M421.366 454.748l34.293-14.205c-5.578-13.467-11.818-26.66-18.689-39.515l-32.736 17.498c6.299 11.784 12.019 23.878 17.132 36.222"/><path d="M455.659 440.543l34.293-14.205c-6.043-14.589-12.803-28.882-20.247-42.808l-32.736 17.498c6.871 12.855 13.111 26.048 18.689 39.515"/><path d="M489.953 426.338l34.293-14.205c-6.508-15.712-13.788-31.103-21.804-46.101l-32.736 17.498c7.444 13.927 14.204 28.219 20.247 42.808"/><path d="M524.246 412.133l34.293-14.205c-6.973-16.834-14.772-33.325-23.362-49.394l-32.736 17.498c8.017 14.998 15.296 30.39 21.804 46.101"/><path d="M558.539 397.929l34.293-14.205a593.72 593.72 0 0 0-24.919-52.687l-32.736 17.498a556.95 556.95 0 0 1 23.362 49.394m-252.513 73.09l32.736-17.498c-5.153-9.642-10.781-19.03-16.854-28.12l-30.863 20.622c5.399 8.08 10.401 16.425 14.982 24.995"/><path d="M338.762 453.521l32.736-17.498c-5.726-10.713-11.978-21.144-18.727-31.244l-30.863 20.622c6.074 9.09 11.701 18.478 16.854 28.12"/><path d="M371.498 436.023l32.736-17.498c-6.299-11.784-13.176-23.259-20.6-34.369l-30.863 20.622c6.749 10.1 13.001 20.531 18.727 31.244"/><path d="M404.234 418.525l32.736-17.498c-6.871-12.855-14.374-25.373-22.472-37.493l-30.863 20.622c7.424 11.11 14.301 22.585 20.6 34.369"/><path d="M436.97 401.028l32.736-17.498c-7.444-13.927-15.572-27.488-24.345-40.618l-30.863 20.622c8.098 12.12 15.601 24.638 22.472 37.493"/><path d="M469.706 383.53l32.736-17.498c-8.016-14.998-16.77-29.602-26.218-43.742l-30.863 20.622c8.773 13.13 16.901 26.691 24.345 40.618"/><path d="M502.442 366.032l32.736-17.498c-8.589-16.069-17.968-31.717-28.091-46.866l-30.863 20.622c9.448 14.14 18.201 28.744 26.218 43.742"/><path d="M535.178 348.535l32.736-17.498c-9.162-17.141-19.165-33.831-29.963-49.991l-30.863 20.622c10.123 15.15 19.502 30.797 28.091 46.866m-244.134 97.489l30.863-20.622a334.14 334.14 0 0 0-19.529-26.332l-28.693 23.548a296.96 296.96 0 0 1 17.36 23.407"/><path d="M321.908 425.401l30.863-20.622c-6.748-10.1-13.993-19.868-21.699-29.258l-28.693 23.548c6.936 8.451 13.456 17.242 19.529 26.332"/><path d="M352.771 404.779l30.863-20.622c-7.423-11.11-15.393-21.855-23.869-32.184l-28.693 23.548c7.706 9.39 14.951 19.158 21.699 29.258"/><path d="M383.634 384.157l30.863-20.622c-8.098-12.12-16.792-23.842-26.039-35.11l-28.693 23.548c8.477 10.329 16.446 21.074 23.869 32.184"/><path d="M414.498 363.535l30.863-20.622c-8.773-13.13-18.191-25.829-28.209-38.036l-28.693 23.548c9.247 11.268 17.941 22.99 26.039 35.11"/><path d="M445.361 342.912l30.863-20.622c-9.448-14.14-19.591-27.816-30.379-40.962l-28.693 23.548c10.018 12.207 19.436 24.906 28.209 38.036"/><path d="M476.224 322.29l30.863-20.622c-10.123-15.15-20.99-29.803-32.549-43.887l-28.693 23.548c10.789 13.146 20.931 26.821 30.379 40.962"/><path d="M507.087 301.668l30.863-20.622a594.04 594.04 0 0 0-34.719-46.813l-28.693 23.548a556.97 556.97 0 0 1 32.549 43.887M273.685 422.617l28.693-23.548c-6.935-8.451-14.286-16.561-22.016-24.291l-26.247 26.247a296.96 296.96 0 0 1 19.57 21.592"/><path d="M302.378 399.069l28.693-23.548c-7.706-9.39-15.873-18.401-24.463-26.99l-26.247 26.247c7.73 7.73 15.081 15.84 22.016 24.291"/><path d="M331.072 375.521l28.693-23.548c-8.477-10.329-17.461-20.241-26.909-29.689l-26.247 26.247c8.589 8.589 16.757 17.601 24.463 26.99"/><path d="M359.765 351.973l28.693-23.548c-9.247-11.268-19.048-22.081-29.355-32.389l-26.247 26.247c9.448 9.448 18.432 19.361 26.909 29.689"/><path d="M388.458 328.425l28.693-23.548c-10.018-12.207-20.635-23.922-31.802-35.088l-26.247 26.247c10.307 10.307 20.108 21.121 29.355 32.389"/><path d="M417.152 304.877l28.693-23.548c-10.788-13.146-22.223-25.762-34.248-37.787l-26.247 26.247c11.166 11.166 21.784 22.881 31.802 35.088"/><path d="M445.845 281.329l28.693-23.548c-11.559-14.085-23.81-27.602-36.694-40.486l-26.247 26.247c12.025 12.025 23.459 24.641 34.248 37.787"/><path d="M474.538 257.781l28.693-23.548c-12.33-15.024-25.397-29.442-39.14-43.185l-26.247 26.247c12.884 12.884 25.135 26.401 36.694 40.486M254.115 401.024l26.247-26.247a334.08 334.08 0 0 0-24.291-22.016l-23.548 28.693c7.512 6.165 14.721 12.699 21.592 19.57"/><path d="M280.362 374.777l26.247-26.247c-8.589-8.589-17.601-16.757-26.99-24.463l-23.548 28.693a334.08 334.08 0 0 1 24.291 22.016"/><path d="M306.609 348.53l26.247-26.247c-9.448-9.448-19.361-18.432-29.689-26.909l-23.548 28.693c9.39 7.706 18.401 15.873 26.99 24.463"/><path d="M332.856 322.283l26.247-26.247c-10.307-10.307-21.121-20.108-32.389-29.355l-23.548 28.693c10.329 8.477 20.241 17.461 29.689 26.909"/><path d="M359.103 296.036l26.247-26.247c-11.166-11.166-22.881-21.784-35.088-31.802l-23.548 28.693c11.268 9.247 22.081 19.048 32.389 29.355"/><path d="M385.35 269.789l26.247-26.247c-12.025-12.025-24.641-23.459-37.787-34.248l-23.548 28.693c12.207 10.018 23.922 20.635 35.088 31.802"/><path d="M411.597 243.542l26.247-26.247c-12.884-12.884-26.401-25.135-40.486-36.694l-23.548 28.693c13.146 10.788 25.762 22.223 37.787 34.248"/><path d="M437.844 217.295l26.247-26.247a593.81 593.81 0 0 0-43.185-39.14l-23.548 28.693c14.085 11.559 27.602 23.81 40.486 36.694M232.523 381.454l23.548-28.693c-8.451-6.936-17.242-13.456-26.332-19.529l-20.622 30.863c8.08 5.399 15.895 11.195 23.407 17.36"/><path d="M256.071 352.761l23.548-28.693c-9.39-7.706-19.158-14.951-29.258-21.699l-20.622 30.863c9.09 6.074 17.882 12.594 26.332 19.529"/><path d="M279.619 324.068l23.548-28.693c-10.329-8.477-21.074-16.446-32.184-23.869l-20.622 30.863c10.1 6.748 19.868 13.993 29.258 21.699"/><path d="M303.167 295.374l23.548-28.693c-11.268-9.247-22.99-17.941-35.11-26.039l-20.622 30.863c11.11 7.423 21.855 15.393 32.184 23.869"/><path d="M326.715 266.681l23.548-28.693c-12.207-10.018-24.906-19.436-38.036-28.209l-20.622 30.863c12.12 8.098 23.842 16.792 35.11 26.039"/><path d="M350.262 237.988l23.548-28.693c-13.146-10.789-26.821-20.931-40.962-30.379l-20.622 30.863c13.13 8.773 25.829 18.191 38.036 28.209"/><path d="M373.81 209.294l23.548-28.693c-14.085-11.559-28.737-22.426-43.887-32.549l-20.622 30.863c14.14 9.448 27.816 19.591 40.962 30.379"/><path d="M397.358 180.601l23.548-28.693a594.04 594.04 0 0 0-46.813-34.719l-20.622 30.863c15.15 10.123 29.803 20.99 43.887 32.549M209.116 364.095l20.622-30.863a334.08 334.08 0 0 0-28.12-16.854l-17.498 32.736a296.96 296.96 0 0 1 24.995 14.982"/><path d="M229.738 333.231l20.622-30.863c-10.1-6.749-20.531-13.001-31.244-18.727l-17.498 32.736a334.08 334.08 0 0 1 28.12 16.854"/><path d="M250.36 302.368l20.622-30.863c-11.11-7.424-22.585-14.301-34.369-20.6l-17.498 32.736c10.713 5.726 21.144 11.978 31.244 18.727"/><path d="M270.983 271.505l20.622-30.863c-12.12-8.098-24.638-15.601-37.493-22.472l-17.498 32.736c11.784 6.299 23.259 13.176 34.369 20.6"/><path d="M291.605 240.642l20.622-30.863c-13.13-8.773-26.691-16.901-40.618-24.345l-17.498 32.736c12.855 6.871 25.373 14.374 37.493 22.472"/><path d="M312.227 209.779l20.622-30.863c-14.14-9.448-28.744-18.201-43.742-26.218l-17.498 32.736c13.927 7.444 27.488 15.572 40.618 24.345"/><path d="M332.849 178.915l20.622-30.863c-15.15-10.123-30.797-19.502-46.866-28.091l-17.498 32.736c14.998 8.016 29.602 16.77 43.742 26.218"/><path d="M353.471 148.052l20.622-30.863c-16.16-10.798-32.85-20.802-49.991-29.963l-17.498 32.736c16.069 8.589 31.717 17.968 46.866 28.091m-169.349 201.06l17.498-32.736c-9.641-5.154-19.536-9.833-29.636-14.017l-14.205 34.293a296.96 296.96 0 0 1 26.344 12.46"/><path d="M201.618 316.377l17.498-32.736c-10.713-5.726-21.707-10.926-32.929-15.574l-14.205 34.293c10.1 4.184 19.995 8.863 29.636 14.017"/><path d="M219.116 283.641l17.498-32.736c-11.784-6.299-23.878-12.019-36.222-17.132l-14.205 34.293c11.223 4.648 22.217 9.848 32.929 15.574"/><path d="M236.614 250.905l17.498-32.736c-12.855-6.871-26.048-13.111-39.515-18.689l-14.205 34.293c12.345 5.113 24.438 10.833 36.222 17.132"/><path d="M254.112 218.169l17.498-32.736c-13.927-7.444-28.219-14.204-42.808-20.247l-14.205 34.293c13.467 5.578 26.66 11.818 39.515 18.689"/><path d="M271.609 185.433l17.498-32.736c-14.998-8.017-30.39-15.296-46.101-21.804l-14.205 34.293c14.589 6.043 28.882 12.803 42.808 20.247"/><path d="M289.107 152.697l17.498-32.736c-16.069-8.589-32.56-16.389-49.394-23.362l-14.205 34.293c15.712 6.508 31.103 13.788 46.101 21.804"/><path d="M306.605 119.961l17.498-32.736a593.72 593.72 0 0 0-52.687-24.919L257.211 96.6c16.834 6.973 33.325 14.772 49.394 23.362M157.777 336.653l14.205-34.293a334.13 334.13 0 0 0-30.868-11.045l-10.775 35.521a296.96 296.96 0 0 1 27.438 9.817"/><path d="M171.982 302.36l14.205-34.293c-11.222-4.649-22.673-8.746-34.297-12.272l-10.775 35.521c10.462 3.173 20.767 6.861 30.868 11.045"/><path d="M186.187 268.067l14.205-34.293c-12.345-5.113-24.941-9.62-37.727-13.499l-10.775 35.521c11.624 3.526 23.075 7.623 34.297 12.272"/><path d="M200.392 233.773l14.205-34.293c-13.467-5.578-27.208-10.495-41.157-14.726l-10.775 35.521c12.787 3.879 25.382 8.386 37.727 13.499"/><path d="M214.596 199.48l14.205-34.293c-14.589-6.043-29.475-11.37-44.587-15.953l-10.775 35.521c13.949 4.231 27.69 9.148 41.157 14.726"/><path d="M228.801 165.187l14.205-34.293c-15.711-6.508-31.743-12.244-48.016-17.181l-10.775 35.521c15.111 4.584 29.997 9.91 44.587 15.953"/><path d="M243.006 130.893L257.211 96.6c-16.834-6.973-34.01-13.119-51.446-18.408l-10.775 35.521c16.274 4.936 32.305 10.672 48.016 17.181"/><path d="M257.211 96.6l14.205-34.293a593.92 593.92 0 0 0-54.876-19.635l-10.775 35.521a556.81 556.81 0 0 1 51.446 18.408M130.339 326.836l10.775-35.521c-10.462-3.174-21.079-5.833-31.802-7.966l-7.242 36.406a296.96 296.96 0 0 1 28.268 7.081"/><path d="M141.114 291.315l10.775-35.521c-11.624-3.526-23.421-6.481-35.335-8.851l-7.242 36.406c10.722 2.133 21.34 4.792 31.802 7.966"/><path d="M151.889 255.795l10.775-35.521c-12.786-3.879-25.763-7.129-38.869-9.736l-7.242 36.406c11.914 2.37 23.711 5.325 35.335 8.851"/><path d="M162.664 220.274l10.775-35.521c-13.949-4.231-28.106-7.778-42.402-10.621l-7.242 36.406c13.105 2.607 26.082 5.857 38.869 9.736"/><path d="M173.439 184.754l10.775-35.521c-15.111-4.584-30.448-8.426-45.936-11.506l-7.242 36.406c14.296 2.844 28.453 6.39 42.402 10.621"/><path d="M184.214 149.233l10.775-35.521c-16.274-4.937-32.79-9.074-49.469-12.391l-7.242 36.406c15.488 3.081 30.824 6.922 45.936 11.506"/><path d="M194.99 113.713l10.775-35.521c-17.436-5.289-35.132-9.722-53.003-13.276l-7.242 36.406c16.679 3.318 33.195 7.455 49.469 12.391"/><path d="M205.765 78.192l10.775-35.521a594.02 594.02 0 0 0-56.536-14.162l-7.242 36.406c17.871 3.555 35.567 7.987 53.003 13.276M102.071 319.755l7.242-36.406a333.87 333.87 0 0 0-32.429-4.81l-3.638 36.94a296.96 296.96 0 0 1 28.826 4.276"/><path d="M109.313 283.35l7.242-36.406c-11.914-2.37-23.944-4.154-36.032-5.345l-3.638 36.94c10.88 1.071 21.707 2.678 32.429 4.81"/><path d="M116.554 246.944l7.242-36.406c-13.105-2.607-26.338-4.57-39.636-5.879l-3.638 36.94c12.089 1.191 24.119 2.975 36.032 5.345"/><path d="M123.796 210.538l7.242-36.406c-14.296-2.844-28.733-4.985-43.239-6.414l-3.638 36.94c13.298 1.31 26.531 3.273 39.636 5.879"/><path d="M131.037 174.133l7.242-36.406c-15.488-3.081-31.127-5.401-46.842-6.948l-3.638 36.94c14.506 1.429 28.943 3.57 43.239 6.414"/><path d="M138.279 137.727l7.242-36.406c-16.679-3.318-33.521-5.816-50.445-7.483l-3.638 36.94c15.715 1.548 31.354 3.868 46.842 6.948"/><path d="M145.52 101.321l7.242-36.406c-17.871-3.555-35.916-6.232-54.049-8.017l-3.638 36.94c16.924 1.667 33.766 4.165 50.445 7.483"/><path d="M152.762 64.916l7.242-36.406a593.91 593.91 0 0 0-57.652-8.552l-3.638 36.94c18.133 1.786 36.178 4.463 54.049 8.017M73.245 315.479l3.638-36.94a334.08 334.08 0 0 0-32.745-1.609v37.119a296.96 296.96 0 0 1 29.106 1.43"/><path d="M76.884 278.539l3.638-36.94c-12.089-1.191-24.236-1.787-36.383-1.787v37.119a334.08 334.08 0 0 1 32.745 1.609"/><path d="M80.522 241.599l3.638-36.94c-13.297-1.31-26.659-1.966-40.021-1.966v37.119c12.147 0 24.294.597 36.383 1.787"/><path d="M84.16 204.659l3.638-36.94c-14.506-1.429-29.083-2.145-43.659-2.145v37.119c13.362 0 26.724.656 40.021 1.966"/><path d="M87.798 167.719l3.638-36.94c-15.715-1.548-31.506-2.324-47.298-2.324v37.119c14.577 0 29.153.716 43.659 2.145"/><path d="M91.437 130.779l3.638-36.94c-16.924-1.667-33.93-2.502-50.936-2.502v37.119c15.791 0 31.582.776 47.298 2.324"/><path d="M95.075 93.838l3.638-36.94c-18.133-1.786-36.354-2.681-54.574-2.681v37.119c17.006 0 34.012.835 50.936 2.502"/><path d="M98.713 56.898l3.638-36.94c-19.342-1.905-38.777-2.86-58.213-2.86v37.119c18.221 0 36.441.895 54.574 2.681"/></g><defs><path id="A" d="M0 0v3.5" class="B C"/></defs><use xlink:href="#A" x="44.139" y="620.899" class="B C"/><g transform="matrix(.1 0 0 -.1 40.95774 635.497068)"><defs><path id="B" d="M2034 4250q-487 0-733-480-245-479-245-1442 0-959 245-1439 246-480 733-480 491 0 736 480 246 480 246 1439 0 963-246 1442-245 480-736 480zm0 500q785 0 1199-621 414-620 414-1801 0-1178-414-1799Q2819-91 2034-91q-784 0-1198 620-414 621-414 1799 0 1181 414 1801 414 621 1198 621z" transform="scale(.015625)"/></defs><use xlink:href="#B"/></g><use xlink:href="#A" x="143.123" y="620.899" class="B C"/><g transform="matrix(.1 0 0 -.1 139.94139 635.497068)"><defs><path id="C" d="M794 531h1031v3560L703 3866v575l1116 225h631V531h1031V0H794v531z" transform="scale(.015625)"/></defs><use xlink:href="#C"/></g><use xlink:href="#A" x="242.106" y="620.899" class="B C"/><g transform="matrix(.1 0 0 -.1 238.92504 635.497068)"><defs><path id="D" d="M1228 531h2203V0H469v531q359 372 979 998 621 627 780 809 303 340 423 576 121 236 121 464 0 372-261 606-261 235-680 235-297 0-627-103-329-103-704-313v638q381 153 712 231 332 78 607 78 725 0 1156-363 431-362 431-968 0-288-108-546-107-257-392-607-78-91-497-524-418-433-1181-1211z" transform="scale(.015625)"/></defs><use xlink:href="#D"/></g><use xlink:href="#A" x="341.09" y="620.899" class="B C"/><g transform="matrix(.1 0 0 -.1 337.90869 635.497068)"><defs><path id="E" d="M2597 2516q453-97 707-404 255-306 255-756 0-690-475-1069Q2609-91 1734-91q-293 0-604 58-311 58-642 174v609q262-153 574-231 313-78 654-78 593 0 904 234 311 234 311 681 0 413-289 645-289 233-804 233h-544v519h569q465 0 712 186 247 186 247 536 0 359-255 551-254 193-729 193-260 0-557-57-297-56-653-174v562q360 100 674 150 314 50 592 50 719 0 1137-327 419-326 419-882 0-388-222-655-222-267-631-370z" transform="scale(.015625)"/></defs><use xlink:href="#E"/></g><use xlink:href="#A" x="440.074" y="620.899" class="B C"/><g transform="matrix(.1 0 0 -.1 436.89234 635.497068)"><defs><path id="F" d="M2419 4116L825 1625h1594v2491zm-166 550h794V1625h666v-525h-666V0h-628v1100H313v609l1940 2957z" transform="scale(.015625)"/></defs><use xlink:href="#F"/></g><use xlink:href="#A" x="539.057" y="620.899" class="B C"/><g transform="matrix(.1 0 0 -.1 535.87599 635.497068)"><defs><path id="G" d="M691 4666h2478v-532H1269V2991q137 47 274 70 138 23 276 23 781 0 1237-428 457-428 457-1159 0-753-469-1171Q2575-91 1722-91q-294 0-599 50Q819 9 494 109v635q281-153 581-228 300-75 634-75 541 0 856 284 316 284 316 772 0 487-316 771-315 285-856 285-253 0-505-56-251-56-513-175v2344z" transform="scale(.015625)"/></defs><use xlink:href="#G"/></g><use xlink:href="#A" x="638.041" y="620.899" class="B C"/><g transform="matrix(.1 0 0 -.1 634.85964 635.497068)"><defs><path id="H" d="M2113 2584q-425 0-674-291-248-290-248-796 0-503 248-796 249-292 674-292 425 0 673 292 248 293 248 796 0 506-248 796-248 291-673 291zm1253 1979v-575q-238 112-480 171-242 60-480 60-625 0-955-422-329-422-376-1275 184 272 462 417 279 145 613 145 703 0 1111-427 408-426 408-1160 0-719-425-1154Q2819-91 2113-91q-810 0-1238 620-428 621-428 1799 0 1106 525 1764 525 658 1409 658 238 0 480-47 242-47 505-140z" transform="scale(.015625)"/></defs><use xlink:href="#H"/></g><g transform="matrix(.1 0 0 -.1 338.130565 649.175193)"><defs><path id="I" d="M3513 3500L2247 1797 3578 0h-678L1881 1375 863 0H184l1360 1831L300 3500h678l928-1247 928 1247h679z" transform="scale(.015625)"/></defs><use xlink:href="#I"/></g><defs><path id="J" d="M0 0h-3.5" class="B C"/></defs><use xlink:href="#J" x="34.241" y="611" class="B C"/><use xlink:href="#B" transform="matrix(.1 0 0 -.1 20.878125 614.799484)"/><use xlink:href="#J" x="34.241" y="512.017" class="B C"/><use xlink:href="#C" transform="matrix(.1 0 0 -.1 20.878125 515.815834)"/><use xlink:href="#J" x="34.241" y="413.033" class="B C"/><use xlink:href="#D" transform="matrix(.1 0 0 -.1 20.878125 416.832184)"/><use xlink:href="#J" x="34.241" y="314.049" class="B C"/><use xlink:href="#E" transform="matrix(.1 0 0 -.1 20.878125 317.848534)"/><use xlink:href="#J" x="34.241" y="215.066" class="B C"/><use xlink:href="#F" transform="matrix(.1 0 0 -.1 20.878125 218.864884)"/><use xlink:href="#J" x="34.241" y="116.082" class="B C"/><use xlink:href="#G" transform="matrix(.1 0 0 -.1 20.878125 119.881234)"/><use xlink:href="#J" x="34.241" y="17.098" class="B C"/><use xlink:href="#H" transform="matrix(.1 0 0 -.1 20.878125 20.897584)"/><g transform="matrix(0 -.1 -.1 0 14.798438 317.00869)"><defs><path id="K" d="M2059-325q-243-625-475-815-231-191-618-191H506v481h338q237 0 368 113 132 112 291 531l103 262L191 3500h609L1894 763l1094 2737h609L2059-325z" transform="scale(.015625)"/></defs><use xlink:href="#K"/></g><defs><path id="L" d="M0 3a3 3 0 0 0 2.121-.879A3 3 0 0 0 3 0a3 3 0 0 0-.879-2.121A3 3 0 0 0 0-3a3 3 0 0 0-2.121.879A3 3 0 0 0-3 0a3 3 0 0 0 .879 2.121A3 3 0 0 0 0 3z" stroke="#fff"/></defs><g stroke="#fff"><use xlink:href="#L" x="341.09" y="611"/><use xlink:href="#L" x="378.209" y="611"/><use xlink:href="#L" x="376.6" y="578.256"/><use xlink:href="#L" x="339.66" y="581.894"/><use xlink:href="#L" x="359.649" y="611"/><use xlink:href="#L" x="377.806" y="594.608"/><use xlink:href="#L" x="358.13" y="580.075"/><use xlink:href="#L" x="340.732" y="596.43"/><use xlink:href="#L" x="359.269" y="595.519"/><use xlink:href="#L" x="350.37" y="611"/><use xlink:href="#L" x="368.929" y="611"/><use xlink:href="#L" x="378.108" y="602.802"/><use xlink:href="#L" x="377.304" y="586.425"/><use xlink:href="#L" x="367.365" y="579.165"/><use xlink:href="#L" x="348.895" y="580.984"/><use xlink:href="#L" x="340.285" y="589.155"/><use xlink:href="#L" x="341.001" y="603.713"/><use xlink:href="#L" x="415.328" y="611"/><use xlink:href="#L" x="413.54" y="574.617"/><use xlink:href="#L" x="396.768" y="611"/><use xlink:href="#L" x="414.881" y="592.787"/><use xlink:href="#L" x="395.07" y="576.437"/><use xlink:href="#L" x="396.343" y="593.698"/><use xlink:href="#L" x="387.489" y="611"/><use xlink:href="#L" x="406.048" y="611"/><use xlink:href="#L" x="415.216" y="601.891"/><use xlink:href="#L" x="414.322" y="583.694"/><use xlink:href="#L" x="404.305" y="575.527"/><use xlink:href="#L" x="385.835" y="577.346"/><use xlink:href="#L" x="452.447" y="611"/><use xlink:href="#L" x="450.48" y="570.979"/><use xlink:href="#L" x="433.887" y="611"/><use xlink:href="#L" x="451.955" y="590.966"/><use xlink:href="#L" x="432.01" y="572.798"/><use xlink:href="#L" x="433.418" y="591.876"/><use xlink:href="#L" x="424.607" y="611"/><use xlink:href="#L" x="443.167" y="611"/><use xlink:href="#L" x="452.324" y="600.98"/><use xlink:href="#L" x="451.34" y="580.963"/><use xlink:href="#L" x="441.245" y="571.889"/><use xlink:href="#L" x="422.775" y="573.708"/><use xlink:href="#L" x="489.565" y="611"/><use xlink:href="#L" x="487.421" y="567.341"/><use xlink:href="#L" x="471.006" y="611"/><use xlink:href="#L" x="489.029" y="589.144"/><use xlink:href="#L" x="468.95" y="569.16"/><use xlink:href="#L" x="470.492" y="590.055"/><use xlink:href="#L" x="461.726" y="611"/><use xlink:href="#L" x="480.286" y="611"/><use xlink:href="#L" x="489.431" y="600.069"/><use xlink:href="#L" x="488.359" y="578.233"/><use xlink:href="#L" x="478.186" y="568.25"/><use xlink:href="#L" x="459.715" y="570.07"/><use xlink:href="#L" x="526.684" y="611"/><use xlink:href="#L" x="524.361" y="563.703"/><use xlink:href="#L" x="508.125" y="611"/><use xlink:href="#L" x="526.103" y="587.323"/><use xlink:href="#L" x="505.891" y="565.522"/><use xlink:href="#L" x="507.566" y="588.234"/><use xlink:href="#L" x="498.845" y="611"/><use xlink:href="#L" x="517.405" y="611"/><use xlink:href="#L" x="526.539" y="599.158"/><use xlink:href="#L" x="525.377" y="575.502"/><use xlink:href="#L" x="515.126" y="564.612"/><use xlink:href="#L" x="496.656" y="566.431"/><use xlink:href="#L" x="563.803" y="611"/><use xlink:href="#L" x="561.301" y="560.064"/><use xlink:href="#L" x="545.244" y="611"/><use xlink:href="#L" x="563.177" y="585.502"/><use xlink:href="#L" x="542.831" y="561.883"/><use xlink:href="#L" x="544.64" y="586.412"/><use xlink:href="#L" x="535.964" y="611"/><use xlink:href="#L" x="554.523" y="611"/><use xlink:href="#L" x="563.647" y="598.247"/><use xlink:href="#L" x="562.395" y="572.771"/><use xlink:href="#L" x="552.066" y="560.974"/><use xlink:href="#L" x="533.596" y="562.793"/><use xlink:href="#L" x="600.922" y="611"/><use xlink:href="#L" x="598.241" y="556.426"/><use xlink:href="#L" x="582.363" y="611"/><use xlink:href="#L" x="600.251" y="583.68"/><use xlink:href="#L" x="579.771" y="558.245"/><use xlink:href="#L" x="581.714" y="584.591"/><use xlink:href="#L" x="573.083" y="611"/><use xlink:href="#L" x="591.642" y="611"/><use xlink:href="#L" x="600.754" y="597.336"/><use xlink:href="#L" x="599.413" y="570.041"/><use xlink:href="#L" x="589.006" y="557.336"/><use xlink:href="#L" x="570.536" y="559.155"/><use xlink:href="#L" x="638.041" y="611"/><use xlink:href="#L" x="635.181" y="552.788"/><use xlink:href="#L" x="619.481" y="611"/><use xlink:href="#L" x="637.326" y="581.859"/><use xlink:href="#L" x="616.711" y="554.607"/><use xlink:href="#L" x="618.788" y="582.77"/><use xlink:href="#L" x="610.202" y="611"/><use xlink:href="#L" x="628.761" y="611"/><use xlink:href="#L" x="637.862" y="596.425"/><use xlink:href="#L" x="636.432" y="567.31"/><use xlink:href="#L" x="625.946" y="553.697"/><use xlink:href="#L" x="607.476" y="555.516"/><use xlink:href="#L" x="371.79" y="545.826"/><use xlink:href="#L" x="335.384" y="553.068"/><use xlink:href="#L" x="374.593" y="561.982"/><use xlink:href="#L" x="353.587" y="549.447"/><use xlink:href="#L" x="337.876" y="567.429"/><use xlink:href="#L" x="356.234" y="564.705"/><use xlink:href="#L" x="375.696" y="570.107"/><use xlink:href="#L" x="373.291" y="553.887"/><use xlink:href="#L" x="362.688" y="547.637"/><use xlink:href="#L" x="344.486" y="551.258"/><use xlink:href="#L" x="336.718" y="560.233"/><use xlink:href="#L" x="338.857" y="574.65"/><use xlink:href="#L" x="408.195" y="538.585"/><use xlink:href="#L" x="411.31" y="556.536"/><use xlink:href="#L" x="389.993" y="542.206"/><use xlink:href="#L" x="392.952" y="559.259"/><use xlink:href="#L" x="412.536" y="565.563"/><use xlink:href="#L" x="409.863" y="547.541"/><use xlink:href="#L" x="399.094" y="540.395"/><use xlink:href="#L" x="380.891" y="544.016"/><use xlink:href="#L" x="444.601" y="531.343"/><use xlink:href="#L" x="448.027" y="551.089"/><use xlink:href="#L" x="426.398" y="534.964"/><use xlink:href="#L" x="429.669" y="553.812"/><use xlink:href="#L" x="449.376" y="561.019"/><use xlink:href="#L" x="446.435" y="541.195"/><use xlink:href="#L" x="435.5" y="533.154"/><use xlink:href="#L" x="417.297" y="536.775"/><use xlink:href="#L" x="481.007" y="524.102"/><use xlink:href="#L" x="484.744" y="545.643"/><use xlink:href="#L" x="462.804" y="527.723"/><use xlink:href="#L" x="466.386" y="548.366"/><use xlink:href="#L" x="486.216" y="556.475"/><use xlink:href="#L" x="483.008" y="534.849"/><use xlink:href="#L" x="471.905" y="525.912"/><use xlink:href="#L" x="453.702" y="529.533"/><use xlink:href="#L" x="517.412" y="516.86"/><use xlink:href="#L" x="521.461" y="540.196"/><use xlink:href="#L" x="499.209" y="520.481"/><use xlink:href="#L" x="503.103" y="542.919"/><use xlink:href="#L" x="523.055" y="551.932"/><use xlink:href="#L" x="519.58" y="528.503"/><use xlink:href="#L" x="508.311" y="518.671"/><use xlink:href="#L" x="490.108" y="522.291"/><use xlink:href="#L" x="553.818" y="509.619"/><use xlink:href="#L" x="558.179" y="534.75"/><use xlink:href="#L" x="535.615" y="513.24"/><use xlink:href="#L" x="539.82" y="537.473"/><use xlink:href="#L" x="559.895" y="547.388"/><use xlink:href="#L" x="556.152" y="522.157"/><use xlink:href="#L" x="544.717" y="511.429"/><use xlink:href="#L" x="526.514" y="515.05"/><use xlink:href="#L" x="590.224" y="502.377"/><use xlink:href="#L" x="594.896" y="529.303"/><use xlink:href="#L" x="572.021" y="505.998"/><use xlink:href="#L" x="576.537" y="532.026"/><use xlink:href="#L" x="596.735" y="542.844"/><use xlink:href="#L" x="592.725" y="515.812"/><use xlink:href="#L" x="581.122" y="504.188"/><use xlink:href="#L" x="562.919" y="507.808"/><use xlink:href="#L" x="626.629" y="495.136"/><use xlink:href="#L" x="631.613" y="523.857"/><use xlink:href="#L" x="608.426" y="498.757"/><use xlink:href="#L" x="613.254" y="526.58"/><use xlink:href="#L" x="633.574" y="538.3"/><use xlink:href="#L" x="629.297" y="509.466"/><use xlink:href="#L" x="617.528" y="496.946"/><use xlink:href="#L" x="599.325" y="500.567"/><use xlink:href="#L" x="363.824" y="514.025"/><use xlink:href="#L" x="328.303" y="524.8"/><use xlink:href="#L" x="368.197" y="529.828"/><use xlink:href="#L" x="346.064" y="519.412"/><use xlink:href="#L" x="332.191" y="538.847"/><use xlink:href="#L" x="350.194" y="534.337"/><use xlink:href="#L" x="370.092" y="537.805"/><use xlink:href="#L" x="366.107" y="521.9"/><use xlink:href="#L" x="354.944" y="516.719"/><use xlink:href="#L" x="337.183" y="522.106"/><use xlink:href="#L" x="330.333" y="531.8"/><use xlink:href="#L" x="333.875" y="545.938"/><use xlink:href="#L" x="399.344" y="503.25"/><use xlink:href="#L" x="404.204" y="520.809"/><use xlink:href="#L" x="381.584" y="508.637"/><use xlink:href="#L" x="386.2" y="525.318"/><use xlink:href="#L" x="406.309" y="529.672"/><use xlink:href="#L" x="401.882" y="512"/><use xlink:href="#L" x="390.464" y="505.944"/><use xlink:href="#L" x="372.704" y="511.331"/><use xlink:href="#L" x="434.865" y="492.475"/><use xlink:href="#L" x="440.21" y="511.79"/><use xlink:href="#L" x="417.105" y="497.862"/><use xlink:href="#L" x="422.207" y="516.299"/><use xlink:href="#L" x="442.526" y="521.54"/><use xlink:href="#L" x="437.656" y="502.099"/><use xlink:href="#L" x="425.985" y="495.169"/><use xlink:href="#L" x="408.225" y="500.556"/><use xlink:href="#L" x="470.386" y="481.7"/><use xlink:href="#L" x="476.217" y="502.77"/><use xlink:href="#L" x="452.625" y="487.087"/><use xlink:href="#L" x="458.213" y="507.28"/><use xlink:href="#L" x="478.743" y="513.407"/><use xlink:href="#L" x="473.43" y="492.199"/><use xlink:href="#L" x="461.505" y="484.394"/><use xlink:href="#L" x="443.745" y="489.781"/><use xlink:href="#L" x="505.906" y="470.925"/><use xlink:href="#L" x="512.223" y="493.751"/><use xlink:href="#L" x="488.146" y="476.312"/><use xlink:href="#L" x="494.22" y="498.261"/><use xlink:href="#L" x="514.959" y="505.274"/><use xlink:href="#L" x="509.205" y="482.299"/><use xlink:href="#L" x="497.026" y="473.619"/><use xlink:href="#L" x="479.266" y="479.006"/><use xlink:href="#L" x="541.427" y="460.15"/><use xlink:href="#L" x="548.229" y="484.732"/><use xlink:href="#L" x="523.666" y="465.537"/><use xlink:href="#L" x="530.226" y="489.242"/><use xlink:href="#L" x="551.176" y="497.141"/><use xlink:href="#L" x="544.979" y="472.399"/><use xlink:href="#L" x="532.546" y="462.843"/><use xlink:href="#L" x="514.786" y="468.231"/><use xlink:href="#L" x="576.947" y="449.375"/><use xlink:href="#L" x="584.236" y="475.713"/><use xlink:href="#L" x="559.187" y="454.762"/><use xlink:href="#L" x="566.233" y="480.223"/><use xlink:href="#L" x="587.393" y="489.008"/><use xlink:href="#L" x="580.753" y="462.499"/><use xlink:href="#L" x="568.067" y="452.068"/><use xlink:href="#L" x="550.307" y="457.456"/><use xlink:href="#L" x="612.468" y="438.6"/><use xlink:href="#L" x="620.242" y="466.694"/><use xlink:href="#L" x="594.707" y="443.987"/><use xlink:href="#L" x="602.239" y="471.203"/><use xlink:href="#L" x="623.61" y="480.876"/><use xlink:href="#L" x="616.527" y="452.599"/><use xlink:href="#L" x="603.588" y="441.293"/><use xlink:href="#L" x="585.827" y="446.681"/><use xlink:href="#L" x="352.779" y="483.157"/><use xlink:href="#L" x="318.486" y="497.362"/><use xlink:href="#L" x="358.68" y="498.456"/><use xlink:href="#L" x="335.633" y="490.26"/><use xlink:href="#L" x="323.731" y="510.961"/><use xlink:href="#L" x="341.206" y="504.708"/><use xlink:href="#L" x="361.348" y="506.209"/><use xlink:href="#L" x="355.824" y="490.77"/><use xlink:href="#L" x="344.206" y="486.708"/><use xlink:href="#L" x="327.059" y="493.811"/><use xlink:href="#L" x="321.192" y="504.129"/><use xlink:href="#L" x="326.102" y="517.852"/><use xlink:href="#L" x="387.073" y="468.953"/><use xlink:href="#L" x="393.629" y="485.951"/><use xlink:href="#L" x="369.926" y="476.055"/><use xlink:href="#L" x="376.155" y="492.203"/><use xlink:href="#L" x="396.593" y="494.565"/><use xlink:href="#L" x="390.455" y="477.411"/><use xlink:href="#L" x="378.499" y="472.504"/><use xlink:href="#L" x="361.353" y="479.606"/><use xlink:href="#L" x="421.366" y="454.748"/><use xlink:href="#L" x="428.579" y="473.446"/><use xlink:href="#L" x="404.219" y="461.85"/><use xlink:href="#L" x="411.104" y="479.698"/><use xlink:href="#L" x="431.839" y="482.922"/><use xlink:href="#L" x="425.087" y="464.052"/><use xlink:href="#L" x="412.793" y="458.299"/><use xlink:href="#L" x="395.646" y="465.401"/><use xlink:href="#L" x="455.659" y="440.543"/><use xlink:href="#L" x="463.528" y="460.941"/><use xlink:href="#L" x="438.513" y="447.645"/><use xlink:href="#L" x="446.053" y="467.193"/><use xlink:href="#L" x="467.084" y="471.278"/><use xlink:href="#L" x="459.719" y="450.694"/><use xlink:href="#L" x="447.086" y="444.094"/><use xlink:href="#L" x="429.939" y="451.197"/><use xlink:href="#L" x="489.953" y="426.338"/><use xlink:href="#L" x="498.477" y="448.436"/><use xlink:href="#L" x="472.806" y="433.441"/><use xlink:href="#L" x="481.002" y="454.688"/><use xlink:href="#L" x="502.329" y="459.635"/><use xlink:href="#L" x="494.35" y="437.335"/><use xlink:href="#L" x="481.379" y="429.889"/><use xlink:href="#L" x="464.233" y="436.992"/><use xlink:href="#L" x="524.246" y="412.133"/><use xlink:href="#L" x="533.426" y="435.931"/><use xlink:href="#L" x="507.099" y="419.236"/><use xlink:href="#L" x="515.951" y="442.183"/><use xlink:href="#L" x="537.575" y="447.991"/><use xlink:href="#L" x="528.982" y="423.976"/><use xlink:href="#L" x="515.673" y="415.685"/><use xlink:href="#L" x="498.526" y="422.787"/><use xlink:href="#L" x="558.539" y="397.929"/><use xlink:href="#L" x="568.375" y="423.426"/><use xlink:href="#L" x="541.393" y="405.031"/><use xlink:href="#L" x="550.9" y="429.678"/><use xlink:href="#L" x="572.82" y="436.348"/><use xlink:href="#L" x="563.614" y="410.617"/><use xlink:href="#L" x="549.966" y="401.48"/><use xlink:href="#L" x="532.819" y="408.582"/><use xlink:href="#L" x="592.833" y="383.724"/><use xlink:href="#L" x="603.324" y="410.921"/><use xlink:href="#L" x="575.686" y="390.826"/><use xlink:href="#L" x="585.849" y="417.173"/><use xlink:href="#L" x="608.066" y="424.704"/><use xlink:href="#L" x="598.245" y="397.258"/><use xlink:href="#L" x="584.259" y="387.275"/><use xlink:href="#L" x="567.113" y="394.377"/><use xlink:href="#L" x="338.762" y="453.521"/><use xlink:href="#L" x="306.026" y="471.019"/><use xlink:href="#L" x="346.135" y="468.167"/><use xlink:href="#L" x="322.394" y="462.27"/><use xlink:href="#L" x="312.579" y="484.037"/><use xlink:href="#L" x="329.357" y="476.102"/><use xlink:href="#L" x="349.549" y="475.621"/><use xlink:href="#L" x="342.538" y="460.799"/><use xlink:href="#L" x="330.578" y="457.895"/><use xlink:href="#L" x="314.21" y="466.644"/><use xlink:href="#L" x="309.383" y="477.488"/><use xlink:href="#L" x="315.614" y="490.663"/><use xlink:href="#L" x="371.498" y="436.023"/><use xlink:href="#L" x="379.69" y="452.297"/><use xlink:href="#L" x="355.13" y="444.772"/><use xlink:href="#L" x="362.912" y="460.232"/><use xlink:href="#L" x="383.483" y="460.579"/><use xlink:href="#L" x="375.694" y="444.11"/><use xlink:href="#L" x="363.314" y="440.398"/><use xlink:href="#L" x="346.946" y="449.146"/><use xlink:href="#L" x="404.234" y="418.525"/><use xlink:href="#L" x="413.245" y="436.426"/><use xlink:href="#L" x="387.866" y="427.274"/><use xlink:href="#L" x="396.467" y="444.361"/><use xlink:href="#L" x="417.418" y="445.537"/><use xlink:href="#L" x="408.849" y="427.421"/><use xlink:href="#L" x="396.05" y="422.9"/><use xlink:href="#L" x="379.682" y="431.649"/><use xlink:href="#L" x="436.97" y="401.028"/><use xlink:href="#L" x="446.8" y="420.556"/><use xlink:href="#L" x="420.602" y="409.777"/><use xlink:href="#L" x="430.022" y="428.491"/><use xlink:href="#L" x="451.352" y="430.495"/><use xlink:href="#L" x="442.005" y="410.731"/><use xlink:href="#L" x="428.786" y="405.402"/><use xlink:href="#L" x="412.418" y="414.151"/><use xlink:href="#L" x="469.706" y="383.53"/><use xlink:href="#L" x="480.355" y="404.686"/><use xlink:href="#L" x="453.338" y="392.279"/><use xlink:href="#L" x="463.577" y="412.621"/><use xlink:href="#L" x="485.287" y="415.453"/><use xlink:href="#L" x="475.16" y="394.042"/><use xlink:href="#L" x="461.522" y="387.904"/><use xlink:href="#L" x="445.154" y="396.653"/><use xlink:href="#L" x="502.442" y="366.032"/><use xlink:href="#L" x="513.91" y="388.815"/><use xlink:href="#L" x="486.074" y="374.781"/><use xlink:href="#L" x="497.132" y="396.75"/><use xlink:href="#L" x="519.221" y="400.411"/><use xlink:href="#L" x="508.316" y="377.353"/><use xlink:href="#L" x="494.258" y="370.407"/><use xlink:href="#L" x="477.89" y="379.156"/><use xlink:href="#L" x="535.178" y="348.535"/><use xlink:href="#L" x="547.465" y="372.945"/><use xlink:href="#L" x="518.81" y="357.283"/><use xlink:href="#L" x="530.687" y="380.88"/><use xlink:href="#L" x="553.155" y="385.369"/><use xlink:href="#L" x="541.471" y="360.664"/><use xlink:href="#L" x="526.994" y="352.909"/><use xlink:href="#L" x="510.626" y="361.658"/><use xlink:href="#L" x="567.914" y="331.037"/><use xlink:href="#L" x="581.02" y="357.074"/><use xlink:href="#L" x="551.546" y="339.786"/><use xlink:href="#L" x="564.242" y="365.01"/><use xlink:href="#L" x="587.09" y="370.327"/><use xlink:href="#L" x="574.627" y="343.975"/><use xlink:href="#L" x="559.73" y="335.411"/><use xlink:href="#L" x="543.362" y="344.16"/><use xlink:href="#L" x="321.908" y="425.401"/><use xlink:href="#L" x="291.045" y="446.023"/><use xlink:href="#L" x="330.68" y="439.254"/><use xlink:href="#L" x="306.476" y="435.712"/><use xlink:href="#L" x="298.842" y="458.337"/><use xlink:href="#L" x="314.761" y="448.796"/><use xlink:href="#L" x="334.809" y="446.338"/><use xlink:href="#L" x="326.379" y="432.274"/><use xlink:href="#L" x="314.192" y="430.557"/><use xlink:href="#L" x="298.76" y="440.868"/><use xlink:href="#L" x="295.019" y="452.132"/><use xlink:href="#L" x="302.512" y="464.634"/><use xlink:href="#L" x="352.771" y="404.779"/><use xlink:href="#L" x="362.518" y="420.171"/><use xlink:href="#L" x="337.339" y="415.09"/><use xlink:href="#L" x="346.599" y="429.713"/><use xlink:href="#L" x="367.105" y="428.042"/><use xlink:href="#L" x="357.739" y="412.415"/><use xlink:href="#L" x="345.055" y="409.934"/><use xlink:href="#L" x="329.624" y="420.245"/><use xlink:href="#L" x="383.634" y="384.157"/><use xlink:href="#L" x="394.356" y="401.088"/><use xlink:href="#L" x="368.203" y="394.468"/><use xlink:href="#L" x="378.437" y="410.63"/><use xlink:href="#L" x="399.402" y="409.746"/><use xlink:href="#L" x="389.099" y="392.557"/><use xlink:href="#L" x="375.919" y="389.312"/><use xlink:href="#L" x="360.487" y="399.623"/><use xlink:href="#L" x="414.498" y="363.535"/><use xlink:href="#L" x="426.194" y="382.005"/><use xlink:href="#L" x="399.066" y="373.846"/><use xlink:href="#L" x="410.275" y="391.547"/><use xlink:href="#L" x="431.699" y="391.45"/><use xlink:href="#L" x="420.459" y="372.698"/><use xlink:href="#L" x="406.782" y="368.69"/><use xlink:href="#L" x="391.35" y="379.001"/><use xlink:href="#L" x="445.361" y="342.912"/><use xlink:href="#L" x="458.032" y="362.922"/><use xlink:href="#L" x="429.929" y="353.224"/><use xlink:href="#L" x="442.113" y="372.464"/><use xlink:href="#L" x="463.995" y="373.155"/><use xlink:href="#L" x="451.819" y="352.84"/><use xlink:href="#L" x="437.645" y="348.068"/><use xlink:href="#L" x="422.213" y="358.379"/><use xlink:href="#L" x="476.224" y="322.29"/><use xlink:href="#L" x="489.87" y="343.839"/><use xlink:href="#L" x="460.792" y="332.601"/><use xlink:href="#L" x="473.951" y="353.381"/><use xlink:href="#L" x="496.292" y="354.859"/><use xlink:href="#L" x="483.179" y="332.981"/><use xlink:href="#L" x="468.508" y="327.446"/><use xlink:href="#L" x="453.077" y="337.757"/><use xlink:href="#L" x="507.087" y="301.668"/><use xlink:href="#L" x="521.708" y="324.757"/><use xlink:href="#L" x="491.656" y="311.979"/><use xlink:href="#L" x="505.789" y="334.298"/><use xlink:href="#L" x="528.589" y="336.563"/><use xlink:href="#L" x="514.539" y="313.123"/><use xlink:href="#L" x="499.371" y="306.824"/><use xlink:href="#L" x="483.94" y="317.135"/><use xlink:href="#L" x="537.95" y="281.046"/><use xlink:href="#L" x="553.546" y="305.674"/><use xlink:href="#L" x="522.519" y="291.357"/><use xlink:href="#L" x="537.627" y="315.215"/><use xlink:href="#L" x="560.885" y="318.267"/><use xlink:href="#L" x="545.899" y="293.264"/><use xlink:href="#L" x="530.235" y="286.202"/><use xlink:href="#L" x="514.803" y="296.513"/><use xlink:href="#L" x="302.378" y="399.069"/><use xlink:href="#L" x="273.685" y="422.617"/><use xlink:href="#L" x="312.466" y="411.995"/><use xlink:href="#L" x="288.032" y="410.843"/><use xlink:href="#L" x="282.652" y="434.107"/><use xlink:href="#L" x="297.559" y="423.051"/><use xlink:href="#L" x="317.269" y="418.64"/><use xlink:href="#L" x="307.502" y="405.47"/><use xlink:href="#L" x="295.205" y="404.956"/><use xlink:href="#L" x="280.858" y="416.73"/><use xlink:href="#L" x="278.239" y="428.307"/><use xlink:href="#L" x="286.922" y="440.013"/><use xlink:href="#L" x="331.072" y="375.521"/><use xlink:href="#L" x="342.281" y="389.883"/><use xlink:href="#L" x="316.725" y="387.295"/><use xlink:href="#L" x="327.373" y="400.939"/><use xlink:href="#L" x="347.617" y="397.267"/><use xlink:href="#L" x="336.764" y="382.633"/><use xlink:href="#L" x="323.898" y="381.408"/><use xlink:href="#L" x="309.552" y="393.182"/><use xlink:href="#L" x="359.765" y="351.973"/><use xlink:href="#L" x="372.095" y="367.772"/><use xlink:href="#L" x="345.418" y="363.747"/><use xlink:href="#L" x="357.188" y="378.828"/><use xlink:href="#L" x="377.965" y="375.893"/><use xlink:href="#L" x="366.027" y="359.797"/><use xlink:href="#L" x="352.592" y="357.86"/><use xlink:href="#L" x="338.245" y="369.634"/><use xlink:href="#L" x="388.458" y="328.425"/><use xlink:href="#L" x="401.909" y="345.66"/><use xlink:href="#L" x="374.112" y="340.199"/><use xlink:href="#L" x="387.002" y="356.716"/><use xlink:href="#L" x="408.313" y="354.52"/><use xlink:href="#L" x="395.289" y="336.96"/><use xlink:href="#L" x="381.285" y="334.312"/><use xlink:href="#L" x="366.938" y="346.086"/><use xlink:href="#L" x="417.152" y="304.877"/><use xlink:href="#L" x="431.723" y="323.548"/><use xlink:href="#L" x="402.805" y="316.651"/><use xlink:href="#L" x="416.816" y="334.604"/><use xlink:href="#L" x="438.661" y="333.147"/><use xlink:href="#L" x="424.552" y="314.123"/><use xlink:href="#L" x="409.978" y="310.764"/><use xlink:href="#L" x="395.632" y="322.538"/><use xlink:href="#L" x="445.845" y="281.329"/><use xlink:href="#L" x="461.537" y="301.437"/><use xlink:href="#L" x="431.498" y="293.103"/><use xlink:href="#L" x="446.63" y="312.493"/><use xlink:href="#L" x="469.009" y="311.773"/><use xlink:href="#L" x="453.814" y="291.286"/><use xlink:href="#L" x="438.672" y="287.216"/><use xlink:href="#L" x="424.325" y="298.99"/><use xlink:href="#L" x="474.538" y="257.781"/><use xlink:href="#L" x="491.351" y="279.325"/><use xlink:href="#L" x="460.191" y="269.555"/><use xlink:href="#L" x="476.444" y="290.381"/><use xlink:href="#L" x="499.356" y="290.4"/><use xlink:href="#L" x="483.077" y="268.45"/><use xlink:href="#L" x="467.365" y="263.668"/><use xlink:href="#L" x="453.018" y="275.442"/><use xlink:href="#L" x="503.231" y="234.233"/><use xlink:href="#L" x="521.165" y="257.213"/><use xlink:href="#L" x="488.885" y="246.007"/><use xlink:href="#L" x="506.258" y="268.269"/><use xlink:href="#L" x="529.704" y="269.027"/><use xlink:href="#L" x="512.339" y="245.613"/><use xlink:href="#L" x="496.058" y="240.12"/><use xlink:href="#L" x="481.711" y="251.894"/><use xlink:href="#L" x="280.362" y="374.777"/><use xlink:href="#L" x="254.115" y="401.024"/><use xlink:href="#L" x="291.668" y="386.653"/><use xlink:href="#L" x="267.239" y="387.901"/><use xlink:href="#L" x="264.165" y="411.58"/><use xlink:href="#L" x="277.917" y="399.116"/><use xlink:href="#L" x="297.1" y="392.795"/><use xlink:href="#L" x="286.088" y="380.646"/><use xlink:href="#L" x="273.8" y="381.339"/><use xlink:href="#L" x="260.677" y="394.462"/><use xlink:href="#L" x="259.205" y="406.241"/><use xlink:href="#L" x="268.993" y="417.04"/><use xlink:href="#L" x="306.609" y="348.53"/><use xlink:href="#L" x="319.172" y="361.725"/><use xlink:href="#L" x="293.486" y="361.654"/><use xlink:href="#L" x="305.42" y="374.189"/><use xlink:href="#L" x="325.206" y="368.55"/><use xlink:href="#L" x="312.971" y="355.051"/><use xlink:href="#L" x="300.047" y="355.092"/><use xlink:href="#L" x="286.924" y="368.215"/><use xlink:href="#L" x="332.856" y="322.283"/><use xlink:href="#L" x="346.675" y="336.798"/><use xlink:href="#L" x="319.733" y="335.407"/><use xlink:href="#L" x="332.923" y="349.261"/><use xlink:href="#L" x="353.313" y="344.305"/><use xlink:href="#L" x="339.855" y="329.456"/><use xlink:href="#L" x="326.294" y="328.845"/><use xlink:href="#L" x="313.171" y="341.968"/><use xlink:href="#L" x="359.103" y="296.036"/><use xlink:href="#L" x="374.178" y="311.87"/><use xlink:href="#L" x="345.98" y="309.16"/><use xlink:href="#L" x="360.427" y="324.334"/><use xlink:href="#L" x="381.42" y="320.06"/><use xlink:href="#L" x="366.738" y="303.861"/><use xlink:href="#L" x="352.541" y="302.598"/><use xlink:href="#L" x="339.418" y="315.721"/><use xlink:href="#L" x="385.35" y="269.789"/><use xlink:href="#L" x="401.681" y="286.943"/><use xlink:href="#L" x="372.227" y="282.913"/><use xlink:href="#L" x="387.93" y="299.406"/><use xlink:href="#L" x="409.527" y="295.815"/><use xlink:href="#L" x="393.621" y="278.266"/><use xlink:href="#L" x="378.788" y="276.351"/><use xlink:href="#L" x="365.665" y="289.474"/><use xlink:href="#L" x="411.597" y="243.542"/><use xlink:href="#L" x="429.185" y="262.015"/><use xlink:href="#L" x="398.474" y="256.666"/><use xlink:href="#L" x="415.433" y="274.479"/><use xlink:href="#L" x="437.633" y="271.57"/><use xlink:href="#L" x="420.504" y="252.671"/><use xlink:href="#L" x="405.035" y="250.104"/><use xlink:href="#L" x="391.912" y="263.227"/><use xlink:href="#L" x="437.844" y="217.295"/><use xlink:href="#L" x="456.688" y="237.088"/><use xlink:href="#L" x="424.721" y="230.419"/><use xlink:href="#L" x="442.936" y="249.551"/><use xlink:href="#L" x="465.74" y="247.325"/><use xlink:href="#L" x="447.387" y="227.076"/><use xlink:href="#L" x="431.282" y="223.857"/><use xlink:href="#L" x="418.159" y="236.98"/><use xlink:href="#L" x="464.091" y="191.048"/><use xlink:href="#L" x="484.191" y="212.16"/><use xlink:href="#L" x="450.968" y="204.172"/><use xlink:href="#L" x="470.44" y="224.624"/><use xlink:href="#L" x="493.847" y="223.08"/><use xlink:href="#L" x="474.271" y="201.481"/><use xlink:href="#L" x="457.529" y="197.61"/><use xlink:href="#L" x="444.406" y="210.733"/><use xlink:href="#L" x="256.071" y="352.761"/><use xlink:href="#L" x="232.523" y="381.454"/><use xlink:href="#L" x="268.487" y="363.471"/><use xlink:href="#L" x="244.297" y="367.107"/><use xlink:href="#L" x="243.559" y="390.974"/><use xlink:href="#L" x="256.023" y="377.222"/><use xlink:href="#L" x="274.494" y="369.051"/><use xlink:href="#L" x="262.344" y="358.04"/><use xlink:href="#L" x="250.184" y="359.934"/><use xlink:href="#L" x="238.41" y="374.281"/><use xlink:href="#L" x="238.099" y="386.146"/><use xlink:href="#L" x="248.899" y="395.934"/><use xlink:href="#L" x="279.619" y="324.068"/><use xlink:href="#L" x="293.414" y="335.968"/><use xlink:href="#L" x="267.845" y="338.414"/><use xlink:href="#L" x="280.95" y="349.719"/><use xlink:href="#L" x="300.089" y="342.168"/><use xlink:href="#L" x="286.589" y="329.933"/><use xlink:href="#L" x="273.732" y="331.241"/><use xlink:href="#L" x="261.958" y="345.587"/><use xlink:href="#L" x="303.167" y="295.374"/><use xlink:href="#L" x="318.342" y="308.464"/><use xlink:href="#L" x="291.393" y="309.721"/><use xlink:href="#L" x="305.878" y="322.216"/><use xlink:href="#L" x="325.684" y="315.285"/><use xlink:href="#L" x="310.834" y="301.826"/><use xlink:href="#L" x="297.28" y="302.548"/><use xlink:href="#L" x="285.506" y="316.894"/><use xlink:href="#L" x="326.715" y="266.681"/><use xlink:href="#L" x="343.269" y="280.961"/><use xlink:href="#L" x="314.941" y="281.028"/><use xlink:href="#L" x="330.805" y="294.713"/><use xlink:href="#L" x="351.279" y="288.401"/><use xlink:href="#L" x="335.079" y="273.719"/><use xlink:href="#L" x="320.828" y="273.854"/><use xlink:href="#L" x="309.054" y="288.201"/><use xlink:href="#L" x="350.262" y="237.988"/><use xlink:href="#L" x="368.197" y="253.458"/><use xlink:href="#L" x="338.489" y="252.334"/><use xlink:href="#L" x="355.733" y="267.209"/><use xlink:href="#L" x="376.874" y="261.518"/><use xlink:href="#L" x="359.324" y="245.613"/><use xlink:href="#L" x="344.375" y="245.161"/><use xlink:href="#L" x="332.602" y="259.508"/><use xlink:href="#L" x="373.81" y="209.294"/><use xlink:href="#L" x="393.124" y="225.955"/><use xlink:href="#L" x="362.036" y="223.641"/><use xlink:href="#L" x="380.66" y="239.706"/><use xlink:href="#L" x="402.469" y="234.635"/><use xlink:href="#L" x="383.57" y="217.506"/><use xlink:href="#L" x="367.923" y="216.468"/><use xlink:href="#L" x="356.149" y="230.814"/><use xlink:href="#L" x="397.358" y="180.601"/><use xlink:href="#L" x="418.052" y="198.451"/><use xlink:href="#L" x="385.584" y="194.948"/><use xlink:href="#L" x="405.588" y="212.203"/><use xlink:href="#L" x="428.063" y="207.752"/><use xlink:href="#L" x="407.815" y="189.399"/><use xlink:href="#L" x="391.471" y="187.774"/><use xlink:href="#L" x="379.697" y="202.121"/><use xlink:href="#L" x="420.906" y="151.908"/><use xlink:href="#L" x="442.979" y="170.948"/><use xlink:href="#L" x="409.132" y="166.255"/><use xlink:href="#L" x="430.515" y="184.7"/><use xlink:href="#L" x="453.658" y="180.869"/><use xlink:href="#L" x="432.06" y="161.292"/><use xlink:href="#L" x="415.019" y="159.081"/><use xlink:href="#L" x="403.245" y="173.428"/><use xlink:href="#L" x="229.738" y="333.231"/><use xlink:href="#L" x="209.116" y="364.095"/><use xlink:href="#L" x="243.144" y="342.673"/><use xlink:href="#L" x="219.427" y="348.663"/><use xlink:href="#L" x="221.032" y="372.487"/><use xlink:href="#L" x="232.088" y="357.58"/><use xlink:href="#L" x="249.669" y="347.638"/><use xlink:href="#L" x="236.499" y="337.87"/><use xlink:href="#L" x="224.583" y="340.947"/><use xlink:href="#L" x="214.272" y="356.379"/><use xlink:href="#L" x="215.126" y="368.218"/><use xlink:href="#L" x="226.833" y="376.9"/><use xlink:href="#L" x="250.36" y="302.368"/><use xlink:href="#L" x="265.256" y="312.859"/><use xlink:href="#L" x="240.049" y="317.8"/><use xlink:href="#L" x="254.2" y="327.766"/><use xlink:href="#L" x="272.506" y="318.375"/><use xlink:href="#L" x="257.872" y="307.522"/><use xlink:href="#L" x="245.205" y="310.084"/><use xlink:href="#L" x="234.894" y="325.516"/><use xlink:href="#L" x="270.983" y="271.505"/><use xlink:href="#L" x="287.368" y="283.045"/><use xlink:href="#L" x="260.671" y="286.937"/><use xlink:href="#L" x="276.312" y="297.952"/><use xlink:href="#L" x="295.343" y="289.112"/><use xlink:href="#L" x="279.246" y="277.174"/><use xlink:href="#L" x="265.827" y="279.221"/><use xlink:href="#L" x="255.516" y="294.652"/><use xlink:href="#L" x="291.605" y="240.642"/><use xlink:href="#L" x="309.479" y="253.23"/><use xlink:href="#L" x="281.294" y="256.073"/><use xlink:href="#L" x="298.423" y="268.137"/><use xlink:href="#L" x="318.179" y="259.85"/><use xlink:href="#L" x="300.619" y="246.826"/><use xlink:href="#L" x="286.449" y="248.358"/><use xlink:href="#L" x="276.138" y="263.789"/><use xlink:href="#L" x="312.227" y="209.779"/><use xlink:href="#L" x="331.591" y="223.416"/><use xlink:href="#L" x="301.916" y="225.21"/><use xlink:href="#L" x="320.535" y="238.323"/><use xlink:href="#L" x="341.016" y="230.587"/><use xlink:href="#L" x="321.993" y="216.479"/><use xlink:href="#L" x="307.071" y="217.494"/><use xlink:href="#L" x="296.76" y="232.926"/><use xlink:href="#L" x="332.849" y="178.915"/><use xlink:href="#L" x="353.703" y="193.602"/><use xlink:href="#L" x="322.538" y="194.347"/><use xlink:href="#L" x="342.647" y="208.509"/><use xlink:href="#L" x="363.853" y="201.325"/><use xlink:href="#L" x="343.366" y="186.131"/><use xlink:href="#L" x="327.693" y="186.631"/><use xlink:href="#L" x="317.382" y="202.063"/><use xlink:href="#L" x="353.471" y="148.052"/><use xlink:href="#L" x="375.814" y="163.788"/><use xlink:href="#L" x="343.16" y="163.484"/><use xlink:href="#L" x="364.758" y="178.695"/><use xlink:href="#L" x="386.69" y="172.062"/><use xlink:href="#L" x="364.739" y="155.783"/><use xlink:href="#L" x="348.316" y="155.768"/><use xlink:href="#L" x="338.004" y="171.2"/><use xlink:href="#L" x="374.093" y="117.189"/><use xlink:href="#L" x="397.926" y="133.974"/><use xlink:href="#L" x="363.782" y="132.62"/><use xlink:href="#L" x="386.87" y="148.881"/><use xlink:href="#L" x="409.526" y="142.8"/><use xlink:href="#L" x="386.113" y="125.435"/><use xlink:href="#L" x="368.938" y="124.905"/><use xlink:href="#L" x="358.627" y="140.336"/><use xlink:href="#L" x="201.618" y="316.377"/><use xlink:href="#L" x="184.121" y="349.113"/><use xlink:href="#L" x="215.885" y="324.459"/><use xlink:href="#L" x="192.87" y="332.745"/><use xlink:href="#L" x="196.802" y="356.297"/><use xlink:href="#L" x="206.344" y="340.378"/><use xlink:href="#L" x="222.866" y="328.76"/><use xlink:href="#L" x="208.801" y="320.33"/><use xlink:href="#L" x="197.244" y="324.561"/><use xlink:href="#L" x="188.495" y="340.929"/><use xlink:href="#L" x="190.506" y="352.627"/><use xlink:href="#L" x="203.007" y="360.12"/><use xlink:href="#L" x="219.116" y="283.641"/><use xlink:href="#L" x="234.968" y="292.621"/><use xlink:href="#L" x="210.367" y="300.009"/><use xlink:href="#L" x="225.427" y="308.54"/><use xlink:href="#L" x="242.724" y="297.4"/><use xlink:href="#L" x="227.097" y="288.034"/><use xlink:href="#L" x="214.742" y="291.825"/><use xlink:href="#L" x="205.993" y="308.193"/><use xlink:href="#L" x="236.614" y="250.905"/><use xlink:href="#L" x="254.051" y="260.783"/><use xlink:href="#L" x="227.865" y="267.273"/><use xlink:href="#L" x="244.51" y="276.702"/><use xlink:href="#L" x="262.583" y="266.04"/><use xlink:href="#L" x="245.393" y="255.737"/><use xlink:href="#L" x="232.239" y="259.089"/><use xlink:href="#L" x="223.491" y="275.457"/><use xlink:href="#L" x="254.112" y="218.169"/><use xlink:href="#L" x="273.134" y="228.945"/><use xlink:href="#L" x="245.363" y="234.537"/><use xlink:href="#L" x="263.592" y="244.864"/><use xlink:href="#L" x="282.441" y="234.68"/><use xlink:href="#L" x="263.689" y="223.441"/><use xlink:href="#L" x="249.737" y="226.353"/><use xlink:href="#L" x="240.988" y="242.721"/><use xlink:href="#L" x="271.609" y="185.433"/><use xlink:href="#L" x="292.217" y="197.107"/><use xlink:href="#L" x="262.86" y="201.801"/><use xlink:href="#L" x="282.675" y="213.026"/><use xlink:href="#L" x="302.3" y="203.32"/><use xlink:href="#L" x="281.985" y="191.144"/><use xlink:href="#L" x="267.235" y="193.617"/><use xlink:href="#L" x="258.486" y="209.985"/><use xlink:href="#L" x="289.107" y="152.697"/><use xlink:href="#L" x="311.3" y="165.269"/><use xlink:href="#L" x="280.358" y="169.065"/><use xlink:href="#L" x="301.758" y="181.188"/><use xlink:href="#L" x="322.158" y="171.96"/><use xlink:href="#L" x="300.281" y="158.847"/><use xlink:href="#L" x="284.733" y="160.881"/><use xlink:href="#L" x="275.984" y="177.249"/><use xlink:href="#L" x="306.605" y="119.961"/><use xlink:href="#L" x="330.383" y="133.432"/><use xlink:href="#L" x="297.856" y="136.329"/><use xlink:href="#L" x="320.841" y="149.35"/><use xlink:href="#L" x="342.017" y="140.6"/><use xlink:href="#L" x="318.576" y="126.551"/><use xlink:href="#L" x="302.23" y="128.145"/><use xlink:href="#L" x="293.481" y="144.513"/><use xlink:href="#L" x="324.102" y="87.226"/><use xlink:href="#L" x="349.466" y="101.594"/><use xlink:href="#L" x="315.354" y="103.594"/><use xlink:href="#L" x="339.924" y="117.513"/><use xlink:href="#L" x="361.875" y="109.24"/><use xlink:href="#L" x="336.872" y="94.254"/><use xlink:href="#L" x="319.728" y="95.41"/><use xlink:href="#L" x="310.979" y="111.777"/><use xlink:href="#L" x="171.982" y="302.36"/><use xlink:href="#L" x="157.777" y="336.653"/><use xlink:href="#L" x="186.972" y="309.005"/><use xlink:href="#L" x="164.88" y="319.507"/><use xlink:href="#L" x="171.102" y="342.56"/><use xlink:href="#L" x="179.037" y="325.782"/><use xlink:href="#L" x="194.341" y="312.601"/><use xlink:href="#L" x="179.518" y="305.59"/><use xlink:href="#L" x="168.431" y="310.933"/><use xlink:href="#L" x="161.328" y="328.08"/><use xlink:href="#L" x="164.476" y="339.525"/><use xlink:href="#L" x="177.652" y="345.756"/><use xlink:href="#L" x="186.187" y="268.067"/><use xlink:href="#L" x="202.843" y="275.45"/><use xlink:href="#L" x="179.084" y="285.213"/><use xlink:href="#L" x="194.907" y="292.227"/><use xlink:href="#L" x="211.03" y="279.446"/><use xlink:href="#L" x="194.56" y="271.656"/><use xlink:href="#L" x="182.636" y="276.64"/><use xlink:href="#L" x="175.533" y="293.787"/><use xlink:href="#L" x="200.392" y="233.773"/><use xlink:href="#L" x="218.713" y="241.895"/><use xlink:href="#L" x="193.289" y="250.92"/><use xlink:href="#L" x="210.778" y="258.672"/><use xlink:href="#L" x="227.719" y="246.29"/><use xlink:href="#L" x="209.602" y="237.722"/><use xlink:href="#L" x="196.84" y="242.347"/><use xlink:href="#L" x="189.738" y="259.493"/><use xlink:href="#L" x="214.596" y="199.48"/><use xlink:href="#L" x="234.583" y="208.34"/><use xlink:href="#L" x="207.494" y="216.627"/><use xlink:href="#L" x="226.648" y="225.117"/><use xlink:href="#L" x="244.408" y="213.135"/><use xlink:href="#L" x="224.644" y="203.787"/><use xlink:href="#L" x="211.045" y="208.053"/><use xlink:href="#L" x="203.943" y="225.2"/><use xlink:href="#L" x="228.801" y="165.187"/><use xlink:href="#L" x="250.454" y="174.784"/><use xlink:href="#L" x="221.699" y="182.333"/><use xlink:href="#L" x="242.519" y="191.562"/><use xlink:href="#L" x="261.097" y="179.979"/><use xlink:href="#L" x="239.686" y="169.853"/><use xlink:href="#L" x="225.25" y="173.76"/><use xlink:href="#L" x="218.147" y="190.907"/><use xlink:href="#L" x="243.006" y="130.893"/><use xlink:href="#L" x="266.324" y="141.229"/><use xlink:href="#L" x="235.903" y="148.04"/><use xlink:href="#L" x="258.389" y="158.007"/><use xlink:href="#L" x="277.786" y="146.824"/><use xlink:href="#L" x="254.728" y="135.918"/><use xlink:href="#L" x="239.455" y="139.467"/><use xlink:href="#L" x="232.352" y="156.613"/><use xlink:href="#L" x="257.211" y="96.6"/><use xlink:href="#L" x="282.194" y="107.674"/><use xlink:href="#L" x="250.108" y="113.747"/><use xlink:href="#L" x="274.259" y="124.452"/><use xlink:href="#L" x="294.475" y="113.668"/><use xlink:href="#L" x="269.77" y="101.984"/><use xlink:href="#L" x="253.659" y="105.173"/><use xlink:href="#L" x="246.557" y="122.32"/><use xlink:href="#L" x="271.415" y="62.306"/><use xlink:href="#L" x="298.065" y="74.119"/><use xlink:href="#L" x="264.313" y="79.453"/><use xlink:href="#L" x="290.13" y="90.897"/><use xlink:href="#L" x="311.164" y="80.513"/><use xlink:href="#L" x="284.813" y="68.049"/><use xlink:href="#L" x="267.864" y="70.88"/><use xlink:href="#L" x="260.762" y="88.026"/><use xlink:href="#L" x="141.114" y="291.315"/><use xlink:href="#L" x="130.339" y="326.836"/><use xlink:href="#L" x="156.684" y="296.459"/><use xlink:href="#L" x="135.727" y="309.076"/><use xlink:href="#L" x="144.179" y="331.408"/><use xlink:href="#L" x="150.431" y="313.933"/><use xlink:href="#L" x="164.369" y="299.316"/><use xlink:href="#L" x="148.931" y="293.792"/><use xlink:href="#L" x="138.421" y="300.196"/><use xlink:href="#L" x="133.033" y="317.956"/><use xlink:href="#L" x="137.287" y="329.037"/><use xlink:href="#L" x="151.01" y="333.947"/><use xlink:href="#L" x="151.889" y="255.795"/><use xlink:href="#L" x="169.189" y="261.51"/><use xlink:href="#L" x="146.502" y="273.555"/><use xlink:href="#L" x="162.936" y="278.984"/><use xlink:href="#L" x="177.728" y="264.684"/><use xlink:href="#L" x="160.574" y="258.546"/><use xlink:href="#L" x="149.196" y="264.675"/><use xlink:href="#L" x="143.808" y="282.435"/><use xlink:href="#L" x="162.664" y="220.274"/><use xlink:href="#L" x="181.694" y="226.561"/><use xlink:href="#L" x="157.277" y="238.035"/><use xlink:href="#L" x="175.441" y="244.035"/><use xlink:href="#L" x="191.087" y="230.052"/><use xlink:href="#L" x="172.218" y="223.301"/><use xlink:href="#L" x="159.971" y="229.154"/><use xlink:href="#L" x="154.583" y="246.915"/><use xlink:href="#L" x="173.439" y="184.754"/><use xlink:href="#L" x="194.199" y="191.612"/><use xlink:href="#L" x="168.052" y="202.514"/><use xlink:href="#L" x="187.946" y="209.086"/><use xlink:href="#L" x="204.446" y="195.421"/><use xlink:href="#L" x="183.861" y="188.055"/><use xlink:href="#L" x="170.746" y="193.634"/><use xlink:href="#L" x="165.358" y="211.394"/><use xlink:href="#L" x="184.214" y="149.233"/><use xlink:href="#L" x="206.704" y="156.663"/><use xlink:href="#L" x="178.827" y="166.993"/><use xlink:href="#L" x="200.451" y="174.137"/><use xlink:href="#L" x="217.805" y="160.789"/><use xlink:href="#L" x="195.505" y="152.81"/><use xlink:href="#L" x="181.521" y="158.113"/><use xlink:href="#L" x="176.133" y="175.874"/><use xlink:href="#L" x="194.99" y="113.713"/><use xlink:href="#L" x="219.209" y="121.714"/><use xlink:href="#L" x="189.602" y="131.473"/><use xlink:href="#L" x="212.956" y="139.188"/><use xlink:href="#L" x="231.164" y="126.157"/><use xlink:href="#L" x="207.148" y="117.564"/><use xlink:href="#L" x="192.296" y="122.593"/><use xlink:href="#L" x="186.908" y="140.353"/><use xlink:href="#L" x="205.765" y="78.192"/><use xlink:href="#L" x="231.714" y="86.765"/><use xlink:href="#L" x="200.377" y="95.952"/><use xlink:href="#L" x="225.461" y="104.239"/><use xlink:href="#L" x="244.522" y="91.526"/><use xlink:href="#L" x="218.792" y="82.319"/><use xlink:href="#L" x="203.071" y="87.072"/><use xlink:href="#L" x="197.683" y="104.833"/><use xlink:href="#L" x="216.54" y="42.672"/><use xlink:href="#L" x="244.219" y="51.815"/><use xlink:href="#L" x="211.152" y="60.432"/><use xlink:href="#L" x="237.966" y="69.29"/><use xlink:href="#L" x="257.881" y="56.894"/><use xlink:href="#L" x="230.435" y="47.074"/><use xlink:href="#L" x="213.846" y="51.552"/><use xlink:href="#L" x="208.458" y="69.312"/><use xlink:href="#L" x="109.313" y="283.35"/><use xlink:href="#L" x="102.071" y="319.755"/><use xlink:href="#L" x="125.311" y="286.942"/><use xlink:href="#L" x="105.692" y="301.552"/><use xlink:href="#L" x="116.292" y="322.949"/><use xlink:href="#L" x="120.802" y="304.945"/><use xlink:href="#L" x="133.24" y="289.032"/><use xlink:href="#L" x="117.334" y="285.048"/><use xlink:href="#L" x="107.502" y="292.451"/><use xlink:href="#L" x="103.882" y="310.654"/><use xlink:href="#L" x="109.201" y="321.265"/><use xlink:href="#L" x="123.34" y="324.806"/><use xlink:href="#L" x="116.554" y="246.944"/><use xlink:href="#L" x="134.33" y="250.936"/><use xlink:href="#L" x="112.934" y="265.147"/><use xlink:href="#L" x="129.821" y="268.939"/><use xlink:href="#L" x="143.14" y="253.257"/><use xlink:href="#L" x="125.467" y="248.831"/><use xlink:href="#L" x="114.744" y="256.045"/><use xlink:href="#L" x="111.123" y="274.248"/><use xlink:href="#L" x="123.796" y="210.538"/><use xlink:href="#L" x="143.35" y="214.929"/><use xlink:href="#L" x="120.175" y="228.741"/><use xlink:href="#L" x="138.84" y="232.932"/><use xlink:href="#L" x="153.04" y="217.483"/><use xlink:href="#L" x="133.6" y="212.614"/><use xlink:href="#L" x="121.985" y="219.64"/><use xlink:href="#L" x="118.365" y="237.842"/><use xlink:href="#L" x="131.037" y="174.133"/><use xlink:href="#L" x="152.369" y="178.923"/><use xlink:href="#L" x="127.417" y="192.335"/><use xlink:href="#L" x="147.859" y="196.926"/><use xlink:href="#L" x="162.94" y="181.709"/><use xlink:href="#L" x="141.732" y="176.397"/><use xlink:href="#L" x="129.227" y="183.234"/><use xlink:href="#L" x="125.606" y="201.437"/><use xlink:href="#L" x="138.279" y="137.727"/><use xlink:href="#L" x="161.388" y="142.916"/><use xlink:href="#L" x="134.658" y="155.93"/><use xlink:href="#L" x="156.878" y="160.919"/><use xlink:href="#L" x="172.84" y="145.935"/><use xlink:href="#L" x="149.865" y="140.18"/><use xlink:href="#L" x="136.469" y="146.828"/><use xlink:href="#L" x="132.848" y="165.031"/><use xlink:href="#L" x="145.52" y="101.321"/><use xlink:href="#L" x="170.407" y="106.91"/><use xlink:href="#L" x="141.9" y="119.524"/><use xlink:href="#L" x="165.898" y="124.913"/><use xlink:href="#L" x="182.74" y="110.16"/><use xlink:href="#L" x="157.998" y="103.963"/><use xlink:href="#L" x="143.71" y="110.423"/><use xlink:href="#L" x="140.089" y="128.626"/><use xlink:href="#L" x="152.762" y="64.916"/><use xlink:href="#L" x="179.426" y="70.903"/><use xlink:href="#L" x="149.141" y="83.118"/><use xlink:href="#L" x="174.917" y="88.907"/><use xlink:href="#L" x="192.64" y="74.386"/><use xlink:href="#L" x="166.131" y="67.746"/><use xlink:href="#L" x="150.952" y="74.017"/><use xlink:href="#L" x="147.331" y="92.22"/><use xlink:href="#L" x="160.004" y="28.51"/><use xlink:href="#L" x="188.445" y="34.897"/><use xlink:href="#L" x="156.383" y="46.713"/><use xlink:href="#L" x="183.936" y="52.9"/><use xlink:href="#L" x="202.54" y="38.612"/><use xlink:href="#L" x="174.264" y="31.529"/><use xlink:href="#L" x="158.193" y="37.611"/><use xlink:href="#L" x="154.572" y="55.814"/><use xlink:href="#L" x="76.884" y="278.539"/><use xlink:href="#L" x="73.245" y="315.479"/><use xlink:href="#L" x="93.157" y="280.546"/><use xlink:href="#L" x="75.064" y="297.009"/><use xlink:href="#L" x="87.711" y="317.263"/><use xlink:href="#L" x="90.434" y="298.905"/><use xlink:href="#L" x="101.252" y="281.849"/><use xlink:href="#L" x="85.033" y="279.443"/><use xlink:href="#L" x="75.974" y="287.774"/><use xlink:href="#L" x="74.155" y="306.244"/><use xlink:href="#L" x="80.489" y="316.283"/><use xlink:href="#L" x="94.906" y="318.421"/><use xlink:href="#L" x="80.522" y="241.599"/><use xlink:href="#L" x="98.604" y="243.829"/><use xlink:href="#L" x="78.703" y="260.069"/><use xlink:href="#L" x="95.88" y="262.188"/><use xlink:href="#L" x="107.598" y="245.276"/><use xlink:href="#L" x="89.576" y="242.603"/><use xlink:href="#L" x="79.612" y="250.834"/><use xlink:href="#L" x="77.793" y="269.304"/><use xlink:href="#L" x="84.16" y="204.659"/><use xlink:href="#L" x="104.05" y="207.112"/><use xlink:href="#L" x="82.341" y="223.129"/><use xlink:href="#L" x="101.327" y="225.471"/><use xlink:href="#L" x="113.944" y="208.704"/><use xlink:href="#L" x="94.12" y="205.763"/><use xlink:href="#L" x="83.251" y="213.894"/><use xlink:href="#L" x="81.431" y="232.364"/><use xlink:href="#L" x="87.798" y="167.719"/><use xlink:href="#L" x="109.497" y="170.395"/><use xlink:href="#L" x="85.979" y="186.189"/><use xlink:href="#L" x="106.773" y="188.753"/><use xlink:href="#L" x="120.29" y="172.132"/><use xlink:href="#L" x="98.664" y="168.924"/><use xlink:href="#L" x="86.889" y="176.954"/><use xlink:href="#L" x="85.07" y="195.424"/><use xlink:href="#L" x="91.437" y="130.779"/><use xlink:href="#L" x="114.943" y="133.678"/><use xlink:href="#L" x="89.618" y="149.249"/><use xlink:href="#L" x="112.22" y="152.036"/><use xlink:href="#L" x="126.636" y="135.559"/><use xlink:href="#L" x="103.208" y="132.084"/><use xlink:href="#L" x="90.527" y="140.014"/><use xlink:href="#L" x="88.708" y="158.484"/><use xlink:href="#L" x="95.075" y="93.838"/><use xlink:href="#L" x="120.39" y="96.961"/><use xlink:href="#L" x="93.256" y="112.308"/><use xlink:href="#L" x="117.666" y="115.319"/><use xlink:href="#L" x="132.982" y="98.987"/><use xlink:href="#L" x="107.751" y="95.244"/><use xlink:href="#L" x="94.165" y="103.073"/><use xlink:href="#L" x="92.346" y="121.544"/><use xlink:href="#L" x="98.713" y="56.898"/><use xlink:href="#L" x="125.836" y="60.244"/><use xlink:href="#L" x="96.894" y="75.368"/><use xlink:href="#L" x="123.113" y="78.602"/><use xlink:href="#L" x="139.328" y="62.414"/><use xlink:href="#L" x="112.295" y="58.405"/><use xlink:href="#L" x="97.804" y="66.133"/><use xlink:href="#L" x="95.985" y="84.603"/><use xlink:href="#L" x="102.352" y="19.958"/><use xlink:href="#L" x="131.282" y="23.526"/><use xlink:href="#L" x="100.532" y="38.428"/><use xlink:href="#L" x="128.559" y="41.885"/><use xlink:href="#L" x="145.674" y="25.842"/><use xlink:href="#L" x="116.839" y="21.565"/><use xlink:href="#L" x="101.442" y="29.193"/><use xlink:href="#L" x="99.623" y="47.663"/><use xlink:href="#L" x="44.139" y="276.93"/><use xlink:href="#L" x="44.139" y="314.049"/><use xlink:href="#L" x="60.531" y="277.333"/><use xlink:href="#L" x="44.139" y="295.49"/><use xlink:href="#L" x="58.71" y="314.407"/><use xlink:href="#L" x="59.62" y="295.87"/><use xlink:href="#L" x="68.715" y="277.836"/><use xlink:href="#L" x="52.337" y="277.031"/><use xlink:href="#L" x="44.139" y="286.21"/><use xlink:href="#L" x="44.139" y="304.77"/><use xlink:href="#L" x="51.427" y="314.139"/><use xlink:href="#L" x="65.984" y="314.854"/><use xlink:href="#L" x="44.139" y="239.812"/><use xlink:href="#L" x="62.352" y="240.259"/><use xlink:href="#L" x="44.139" y="258.371"/><use xlink:href="#L" x="61.442" y="258.796"/><use xlink:href="#L" x="71.445" y="240.817"/><use xlink:href="#L" x="53.248" y="239.923"/><use xlink:href="#L" x="44.139" y="249.091"/><use xlink:href="#L" x="44.139" y="267.651"/><use xlink:href="#L" x="44.139" y="202.693"/><use xlink:href="#L" x="64.174" y="203.185"/><use xlink:href="#L" x="44.139" y="221.252"/><use xlink:href="#L" x="63.263" y="221.722"/><use xlink:href="#L" x="74.176" y="203.799"/><use xlink:href="#L" x="54.159" y="202.816"/><use xlink:href="#L" x="44.139" y="211.972"/><use xlink:href="#L" x="44.139" y="230.532"/><use xlink:href="#L" x="44.139" y="165.574"/><use xlink:href="#L" x="65.995" y="166.11"/><use xlink:href="#L" x="44.139" y="184.133"/><use xlink:href="#L" x="65.084" y="184.647"/><use xlink:href="#L" x="76.907" y="166.781"/><use xlink:href="#L" x="55.07" y="165.708"/><use xlink:href="#L" x="44.139" y="174.854"/><use xlink:href="#L" x="44.139" y="193.413"/><use xlink:href="#L" x="44.139" y="128.455"/><use xlink:href="#L" x="67.816" y="129.036"/><use xlink:href="#L" x="44.139" y="147.014"/><use xlink:href="#L" x="66.906" y="147.573"/><use xlink:href="#L" x="79.637" y="129.762"/><use xlink:href="#L" x="55.981" y="128.6"/><use xlink:href="#L" x="44.139" y="137.735"/><use xlink:href="#L" x="44.139" y="156.294"/><use xlink:href="#L" x="44.139" y="91.336"/><use xlink:href="#L" x="69.638" y="91.962"/><use xlink:href="#L" x="44.139" y="109.896"/><use xlink:href="#L" x="68.727" y="110.499"/><use xlink:href="#L" x="82.368" y="92.744"/><use xlink:href="#L" x="56.892" y="91.493"/><use xlink:href="#L" x="44.139" y="100.616"/><use xlink:href="#L" x="44.139" y="119.175"/><use xlink:href="#L" x="44.139" y="54.217"/><use xlink:href="#L" x="71.459" y="54.888"/><use xlink:href="#L" x="44.139" y="72.777"/><use xlink:href="#L" x="70.548" y="73.425"/><use xlink:href="#L" x="85.098" y="55.726"/><use xlink:href="#L" x="57.803" y="54.385"/><use xlink:href="#L" x="44.139" y="63.497"/><use xlink:href="#L" x="44.139" y="82.056"/><use xlink:href="#L" x="44.139" y="17.098"/><use xlink:href="#L" x="73.28" y="17.814"/><use xlink:href="#L" x="44.139" y="35.658"/><use xlink:href="#L" x="72.37" y="36.351"/><use xlink:href="#L" x="87.829" y="18.708"/><use xlink:href="#L" x="58.714" y="17.277"/><use xlink:href="#L" x="44.139" y="26.378"/><use xlink:href="#L" x="44.139" y="44.938"/></g><defs><path id="M" d="M0 5a5 5 0 0 0 3.536-1.464A5 5 0 0 0 5 0a5 5 0 0 0-1.464-3.536A5 5 0 0 0 0-5a5 5 0 0 0-3.536 1.464A5 5 0 0 0-5 0a5 5 0 0 0 1.464 3.536A5 5 0 0 0 0 5z" stroke="red"/></defs><g clip-path="url(#N)"><use xlink:href="#M" x="341.09" y="611" fill="red" stroke="red"/></g><g fill="none" stroke-linecap="square" class="B C"><path d="M34.241 620.899V7.2m613.698 613.699V7.2M34.241 620.899H647.94"/><path d="M34.241 7.2h613.699"/></g><defs><clipPath id="N"><path d="M34.241 7.2h613.699v613.699H34.241z"/></clipPath></defs></svg>