<svg xmlns="http://www.w3.org/2000/svg" xmlns:xlink="http://www.w3.org/1999/xlink" width="873.519" height="877.94" viewBox="0 0 655.139 658.455" xmlns:v="https://vecta.io/nano"><style><![CDATA[.B{stroke:#000}.C{stroke-width:.8}]]></style><g fill="#fff"><path d="M0 658.455h655.139V0H0z"/><path d="M34.241 620.899h613.699V7.2H34.241z"/></g><g fill="#e3f3ff" stroke="#0055d4" stroke-width="1.5"><path d="M392.904 262.235Q323.51 331.63 254.115 401.024q83.819-21.169 167.638-42.338-14.425-48.226-28.849-96.451M271.415 62.306q-17.48 46.244-34.96 92.488 62.479-9.314 137.638-37.606-49.644-33.02-102.678-54.882"/><path d="M254.115 401.024q21.169-83.819 42.338-167.638-69.338 51.634-138.676 103.267 54.509 22.697 96.338 64.371"/><path d="M157.777 336.653q-.328-61.423-.655-122.846-56.492 50.121-112.983 100.242 59.045.11 113.638 22.604M44.139 165.574q51.684-37.119 103.368-74.238Q95.823 54.217 44.139 17.098q0 74.238 0 148.475"/><path d="M157.122 213.807q-4.808-61.236-9.615-122.471-51.684 37.119-103.368 74.238 56.492 24.117 112.983 48.233"/><path d="M271.415 62.306Q162.23 17.318 44.139 17.098q51.684 37.119 103.368 74.238 61.954-14.515 123.909-29.03M44.139 314.049q56.492-50.121 112.983-100.242-56.492-24.117-112.983-48.233 0 74.238 0 148.475"/><path d="M236.455 154.795q-44.474-31.729-88.949-63.459 4.808 61.236 9.615 122.471 39.667-29.506 79.333-59.012m185.299 203.891q48.61-32.48 116.197-77.64-82.012-3.066-145.046-18.811 14.425 48.226 28.849 96.451M489.565 611q-24.117-56.492-48.233-112.983Q391.211 554.509 341.09 611q74.238 0 148.475 0m10.78-192.316q31.729 44.474 63.459 88.949 14.515-61.954 29.03-123.909-46.244 17.48-92.488 34.96"/><path d="M592.833 383.724Q570.97 330.69 537.95 281.046q-28.291 75.159-37.606 137.638 46.244-17.48 92.488-34.96M489.565 611q74.238 0 148.475 0-37.119-51.684-74.238-103.368Q526.684 559.316 489.565 611m-67.812-252.314q-83.819 21.169-167.638 42.338 41.674 41.829 64.371 96.338 51.634-69.338 103.267-138.676"/><path d="M318.486 497.362Q340.98 551.955 341.09 611q50.121-56.492 100.242-112.983-61.423-.328-122.846-.655m-82.031-342.567q-39.667 29.506-79.333 59.012 69.665 9.789 139.331 19.579-29.999-39.296-59.997-78.591m327.347 352.838q-61.236-4.808-122.471-9.615Q465.449 554.509 489.565 611q37.119-51.684 74.238-103.368M638.041 611q-.219-118.091-45.208-227.276-14.515 61.954-29.03 123.909Q600.922 559.316 638.041 611"/><path d="M464.091 191.048q-35.593 35.593-71.187 71.187 63.035 15.745 145.046 18.811-33.229-49.504-73.859-89.998m-42.338 167.638q-51.634 69.338-103.267 138.676 61.423.328 122.846.655-9.789-69.665-19.579-139.331m-263.976-22.033q69.338-51.634 138.676-103.267-69.665-9.789-139.331-19.579.328 61.423.655 122.846m216.316-219.464q-75.159 28.291-137.638 37.606 29.999 39.296 59.997 78.591 32.48-48.61 77.64-116.197"/><path d="M147.507 91.336q44.474 31.729 88.949 63.459 17.48-46.244 34.96-92.488-61.954 14.515-123.909 29.03m274.246 267.349q9.789 69.665 19.579 139.331 29.506-39.667 59.012-79.333-39.296-29.999-78.591-59.997"/><path d="M563.803 507.633q-31.729-44.474-63.459-88.949-29.506 39.667-59.012 79.333 61.236 4.808 122.471 9.615m-189.71-390.443q3.066 82.012 18.811 145.046 35.593-35.593 71.187-71.187-40.494-40.631-89.998-73.859"/><path d="M392.904 262.235q-15.745-63.035-18.811-145.046-45.16 67.587-77.64 116.197 48.226 14.425 96.451 28.849m107.441 156.449q9.314-62.479 37.606-137.638-67.587 45.16-116.197 77.64 39.296 29.999 78.591 59.997"/><path d="M254.115 401.024q69.395-69.395 138.789-138.789-48.226-14.425-96.451-28.849-21.169 83.819-42.338 167.638"/></g><defs><path id="A" d="M0 0v3.5" class="B C"/></defs><use xlink:href="#A" x="44.139" y="620.899" class="B C"/><g transform="matrix(.1 0 0 -.1 40.95774 635.497068)"><defs><path id="B" d="M2034 4250q-487 0-733-480-245-479-245-1442 0-959 245-1439 246-480 733-480 491 0 736 480 246 480 246 1439 0 963-246 1442-245 480-736 480zm0 500q785 0 1199-621 414-620 414-1801 0-1178-414-1799Q2819-91 2034-91q-784 0-1198 620-414 621-414 1799 0 1181 414 1801 414 621 1198 621z" transform="scale(.015625)"/></defs><use xlink:href="#B"/></g><use xlink:href="#A" x="143.123" y="620.899" class="B C"/><g transform="matrix(.1 0 0 -.1 139.94139 635.497068)"><defs><path id="C" d="M794 531h1031v3560L703 3866v575l1116 225h631V531h1031V0H794v531z" transform="scale(.015625)"/></defs><use xlink:href="#C"/></g><use xlink:href="#A" x="242.106" y="620.899" class="B C"/><g transform="matrix(.1 0 0 -.1 238.92504 635.497068)"><defs><path id="D" d="M1228 531h2203V0H469v531q359 372 979 998 621 627 780 809 303 340 423 576 121 236 121 464 0 372-261 606-261 235-680 235-297 0-627-103-329-103-704-313v638q381 153 712 231 332 78 607 78 725 0 1156-363 431-362 431-968 0-288-108-546-107-257-392-607-78-91-497-524-418-433-1181-1211z" transform="scale(.015625)"/></defs><use xlink:href="#D"/></g><use xlink:href="#A" x="341.09" y="620.899" class="B C"/><g transform="matrix(.1 0 0 -.1 337.90869 635.497068)"><defs><path id="E" d="M2597 2516q453-97 707-404 255-306 255-756 0-690-475-1069Q2609-91 1734-91q-293 0-604 58-311 58-642 174v609q262-153 574-231 313-78 654-78 593 0 904 234 311 234 311 681 0 413-289 645-289 233-804 233h-544v519h569q465 0 712 186 247 186 247 536 0 359-255 551-254 193-729 193-260 0-557-57-297-56-653-174v562q360 100 674 150 314 50 592 50 719 0 1137-327 419-326 419-882 0-388-222-655-222-267-631-370z" transform="scale(.015625)"/></defs><use xlink:href="#E"/></g><use xlink:href="#A" x="440.074" y="620.899" class="B C"/><g transform="matrix(.1 0 0 -.1 436.89234 635.497068)"><defs><path id="F" d="M2419 4116L825 1625h1594v2491zm-166 550h794V1625h666v-525h-666V0h-628v1100H313v609l1940 2957z" transform="scale(.015625)"/></defs><use xlink:href="#F"/></g><use xlink:href="#A" x="539.057" y="620.899" class="B C"/><g transform="matrix(.1 0 0 -.1 535.87599 635.497068)"><defs><path id="G" d="M691 4666h2478v-532H1269V2991q137 47 274 70 138 23 276 23 781 0 1237-428 457-428 457-1159 0-753-469-1171Q2575-91 1722-91q-294 0-599 50Q819 9 494 109v635q281-153 581-228 300-75 634-75 541 0 856 284 316 284 316 772 0 487-316 771-315 285-856 285-253 0-505-56-251-56-513-175v2344z" transform="scale(.015625)"/></defs><use xlink:href="#G"/></g><use xlink:href="#A" x="638.041" y="620.899" class="B C"/><g transform="matrix(.1 0 0 -.1 634.85964 635.497068)"><defs><path id="H" d="M2113 2584q-425 0-674-291-248-290-248-796 0-503 248-796 249-292 674-292 425 0 673 292 248 293 248 796 0 506-248 796-248 291-673 291zm1253 1979v-575q-238 112-480 171-242 60-480 60-625 0-955-422-329-422-376-1275 184 272 462 417 279 145 613 145 703 0 1111-427 408-426 408-1160 0-719-425-1154Q2819-91 2113-91q-810 0-1238 620-428 621-428 1799 0 1106 525 1764 525 658 1409 658 238 0 480-47 242-47 505-140z" transform="scale(.015625)"/></defs><use xlink:href="#H"/></g><g transform="matrix(.1 0 0 -.1 338.130565 649.175193)"><defs><path id="I" d="M3513 3500L2247 1797 3578 0h-678L1881 1375 863 0H184l1360 1831L300 3500h678l928-1247 928 1247h679z" transform="scale(.015625)"/></defs><use xlink:href="#I"/></g><defs><path id="J" d="M0 0h-3.5" class="B C"/></defs><use xlink:href="#J" x="34.241" y="611" class="B C"/><use xlink:href="#B" transform="matrix(.1 0 0 -.1 20.878125 614.799484)"/><use xlink:href="#J" x="34.241" y="512.017" class="B C"/><use xlink:href="#C" transform="matrix(.1 0 0 -.1 20.878125 515.815834)"/><use xlink:href="#J" x="34.241" y="413.033" class="B C"/><use xlink:href="#D" transform="matrix(.1 0 0 -.1 20.878125 416.832184)"/><use xlink:href="#J" x="34.241" y="314.049" class="B C"/><use xlink:href="#E" transform="matrix(.1 0 0 -.1 20.878125 317.848534)"/><use xlink:href="#J" x="34.241" y="215.066" class="B C"/><use xlink:href="#F" transform="matrix(.1 0 0 -.1 20.878125 218.864884)"/><use xlink:href="#J" x="34.241" y="116.082" class="B C"/><use xlink:href="#G" transform="matrix(.1 0 0 -.1 20.878125 119.881234)"/><use xlink:href="#J" x="34.241" y="17.098" class="B C"/><use xlink:href="#H" transform="matrix(.1 0 0 -.1 20.878125 20.897584)"/><g transform="matrix(0 -.1 -.1 0 14.798438 317.00869)"><defs><path id="K" d="M2059-325q-243-625-475-815-231-191-618-191H506v481h338q237 0 368 113 132 112 291 531l103 262L191 3500h609L1894 763l1094 2737h609L2059-325z" transform="scale(.015625)"/></defs><use xlink:href="#K"/></g><defs><path id="L" d="M0 3a3 3 0 0 0 2.121-.879A3 3 0 0 0 3 0a3 3 0 0 0-.879-2.121A3 3 0 0 0 0-3a3 3 0 0 0-2.121.879A3 3 0 0 0-3 0a3 3 0 0 0 .879 2.121A3 3 0 0 0 0 3z" stroke="#fff"/></defs><g stroke="#fff"><use xlink:href="#L" x="341.09" y="611"/><use xlink:href="#L" x="489.565" y="611"/><use xlink:href="#L" x="638.041" y="611"/><use xlink:href="#L" x="592.833" y="383.724"/><use xlink:href="#L" x="464.091" y="191.048"/><use xlink:href="#L" x="271.415" y="62.306"/><use xlink:href="#L" x="44.139" y="17.098"/><use xlink:href="#L" x="44.139" y="165.574"/><use xlink:href="#L" x="44.139" y="314.049"/><use xlink:href="#L" x="157.777" y="336.653"/><use xlink:href="#L" x="254.115" y="401.024"/><use xlink:href="#L" x="318.486" y="497.362"/><use xlink:href="#L" x="296.453" y="233.386"/><use xlink:href="#L" x="421.753" y="358.686"/><use xlink:href="#L" x="147.507" y="91.336"/><use xlink:href="#L" x="157.122" y="213.807"/><use xlink:href="#L" x="563.803" y="507.633"/><use xlink:href="#L" x="441.332" y="498.017"/><use xlink:href="#L" x="236.455" y="154.795"/><use xlink:href="#L" x="500.345" y="418.684"/><use xlink:href="#L" x="374.093" y="117.189"/><use xlink:href="#L" x="537.95" y="281.046"/><use xlink:href="#L" x="392.904" y="262.235"/><use xlink:href="#L" x="323.51" y="331.63"/><use xlink:href="#L" x="337.934" y="379.855"/><use xlink:href="#L" x="407.329" y="310.461"/><use xlink:href="#L" x="253.935" y="108.551"/><use xlink:href="#L" x="302.104" y="140.736"/><use xlink:href="#L" x="323.602" y="86.958"/><use xlink:href="#L" x="275.284" y="317.205"/><use xlink:href="#L" x="227.115" y="285.02"/><use xlink:href="#L" x="209.116" y="364.095"/><use xlink:href="#L" x="157.45" y="275.23"/><use xlink:href="#L" x="100.631" y="263.928"/><use xlink:href="#L" x="102.071" y="319.755"/><use xlink:href="#L" x="95.823" y="128.455"/><use xlink:href="#L" x="95.823" y="54.217"/><use xlink:href="#L" x="44.139" y="91.336"/><use xlink:href="#L" x="152.314" y="152.572"/><use xlink:href="#L" x="100.631" y="189.691"/><use xlink:href="#L" x="160.004" y="28.51"/><use xlink:href="#L" x="209.461" y="76.821"/><use xlink:href="#L" x="44.139" y="239.812"/><use xlink:href="#L" x="191.981" y="123.065"/><use xlink:href="#L" x="196.789" y="184.301"/><use xlink:href="#L" x="475.108" y="323.036"/><use xlink:href="#L" x="460.683" y="274.811"/><use xlink:href="#L" x="465.449" y="554.509"/><use xlink:href="#L" x="391.211" y="554.509"/><use xlink:href="#L" x="415.328" y="611"/><use xlink:href="#L" x="532.074" y="463.158"/><use xlink:href="#L" x="578.318" y="445.678"/><use xlink:href="#L" x="546.589" y="401.204"/><use xlink:href="#L" x="568.181" y="331.537"/><use xlink:href="#L" x="514.403" y="353.035"/><use xlink:href="#L" x="563.803" y="611"/><use xlink:href="#L" x="600.922" y="559.316"/><use xlink:href="#L" x="526.684" y="559.316"/><use xlink:href="#L" x="291.045" y="446.023"/><use xlink:href="#L" x="370.12" y="428.024"/><use xlink:href="#L" x="335.384" y="553.068"/><use xlink:href="#L" x="379.909" y="497.69"/><use xlink:href="#L" x="226.787" y="223.597"/><use xlink:href="#L" x="266.454" y="194.09"/><use xlink:href="#L" x="502.568" y="502.825"/><use xlink:href="#L" x="626.629" y="495.136"/><use xlink:href="#L" x="428.498" y="226.642"/><use xlink:href="#L" x="502.871" y="233.794"/><use xlink:href="#L" x="431.543" y="428.352"/><use xlink:href="#L" x="332.103" y="180.032"/><use xlink:href="#L" x="470.838" y="458.351"/><use xlink:href="#L" x="461.049" y="388.685"/><use xlink:href="#L" x="380.329" y="194.456"/><use xlink:href="#L" x="421.345" y="152.268"/><use xlink:href="#L" x="344.678" y="247.811"/></g><defs><path id="M" d="M0 5a5 5 0 0 0 3.536-1.464A5 5 0 0 0 5 0a5 5 0 0 0-1.464-3.536A5 5 0 0 0 0-5a5 5 0 0 0-3.536 1.464A5 5 0 0 0-5 0a5 5 0 0 0 1.464 3.536A5 5 0 0 0 0 5z" stroke="red"/></defs><g clip-path="url(#N)"><use xlink:href="#M" x="341.09" y="611" fill="red" stroke="red"/></g><g fill="none" stroke-linecap="square" class="B C"><path d="M34.241 620.899V7.2m613.698 613.699V7.2M34.241 620.899H647.94"/><path d="M34.241 7.2h613.699"/></g><defs><clipPath id="N"><path d="M34.241 7.2h613.699v613.699H34.241z"/></clipPath></defs></svg>