<svg xmlns="http://www.w3.org/2000/svg" xmlns:xlink="http://www.w3.org/1999/xlink" width="873.519" height="877.94" viewBox="0 0 655.139 658.455" xmlns:v="https://vecta.io/nano"><style><![CDATA[.B{stroke:#000}.C{stroke-width:.8}]]></style><g fill="#fff"><path d="M0 658.455h655.139V0H0z"/><path d="M34.241 620.899h613.699V7.2H34.241z"/></g><g fill="#e3f3ff" stroke="#0055d4" stroke-width="1.5"><path d="M341.09 611h74.238a371.22 371.22 0 0 0-7.132-72.415l-72.811 14.483A296.98 296.98 0 0 1 341.09 611"/><path d="M415.328 611h74.238c.002-29.153-2.869-58.306-8.559-86.898l-72.811 14.483A371.22 371.22 0 0 1 415.328 611"/><path d="M489.565 611h74.238a519.71 519.71 0 0 0-9.985-101.381l-72.811 14.483c5.69 28.593 8.561 57.745 8.559 86.898"/><path d="M563.803 611h74.238c.003-38.871-3.826-77.741-11.412-115.865l-72.811 14.483A519.71 519.71 0 0 1 563.803 611m-228.419-57.932l72.811-14.483a371.22 371.22 0 0 0-21.123-69.632l-68.587 28.41a296.98 296.98 0 0 1 16.898 55.706"/><path d="M408.195 538.585l72.811-14.483c-5.686-28.593-14.189-56.626-25.347-83.559l-68.587 28.41a371.22 371.22 0 0 1 21.123 69.632"/><path d="M481.007 524.102l72.811-14.483a519.71 519.71 0 0 0-29.572-97.485l-68.587 28.41c11.158 26.933 19.662 54.965 25.347 83.559"/><path d="M553.818 509.619l72.811-14.483c-7.581-38.125-18.919-75.501-33.796-111.412l-68.587 28.41a519.71 519.71 0 0 1 29.572 97.485m-235.332-12.257l68.587-28.41a371.22 371.22 0 0 0-34.302-64.174l-61.726 41.244a296.98 296.98 0 0 1 27.441 51.339"/><path d="M387.073 468.953l68.587-28.41c-11.155-26.935-24.963-52.769-41.162-77.008l-61.726 41.244a371.22 371.22 0 0 1 34.302 64.174"/><path d="M455.659 440.543l68.587-28.41a519.71 519.71 0 0 0-48.022-89.843l-61.726 41.244c16.198 24.239 30.007 50.073 41.162 77.008"/><path d="M524.246 412.133l68.587-28.41a594.05 594.05 0 0 0-54.882-102.678l-61.726 41.244a519.71 519.71 0 0 1 48.022 89.843m-233.202 33.891l61.726-41.244a371.22 371.22 0 0 0-46.162-56.249l-52.494 52.494a296.98 296.98 0 0 1 36.93 44.999"/><path d="M352.771 404.779l61.726-41.244c-16.195-24.241-34.779-46.885-55.394-67.498l-52.494 52.494a371.22 371.22 0 0 1 46.162 56.249"/><path d="M414.498 363.535l61.726-41.244a519.71 519.71 0 0 0-64.627-78.748l-52.494 52.494c20.616 20.613 39.2 43.257 55.394 67.498"/><path d="M476.224 322.29l61.726-41.244c-21.593-32.322-46.371-62.514-73.859-89.998l-52.494 52.494a519.71 519.71 0 0 1 64.627 78.748m-222.109 78.734l52.494-52.494a371.22 371.22 0 0 0-56.249-46.162l-41.244 61.726a296.98 296.98 0 0 1 44.999 36.93"/><path d="M306.609 348.53l52.494-52.494c-20.613-20.616-43.257-39.2-67.498-55.394l-41.244 61.726a371.22 371.22 0 0 1 56.249 46.162"/><path d="M359.103 296.036l52.494-52.494a519.71 519.71 0 0 0-78.748-64.627l-41.244 61.726c24.241 16.195 46.885 34.779 67.498 55.394"/><path d="M411.597 243.542l52.494-52.494c-27.484-27.488-57.676-52.266-89.998-73.859l-41.244 61.726a519.71 519.71 0 0 1 78.748 64.627M209.116 364.095l41.244-61.726a371.22 371.22 0 0 0-64.174-34.302l-28.41 68.587a296.98 296.98 0 0 1 51.339 27.441"/><path d="M250.36 302.368l41.244-61.726c-24.239-16.198-50.073-30.007-77.008-41.162l-28.41 68.587a371.22 371.22 0 0 1 64.174 34.302"/><path d="M291.605 240.642l41.244-61.726a519.71 519.71 0 0 0-89.843-48.022l-28.41 68.587c26.935 11.155 52.769 24.963 77.008 41.162"/><path d="M332.849 178.915l41.244-61.726a593.91 593.91 0 0 0-102.678-54.882l-28.41 68.587a519.71 519.71 0 0 1 89.843 48.022M157.777 336.653l28.41-68.587a371.22 371.22 0 0 0-69.632-21.123l-14.483 72.811a296.98 296.98 0 0 1 55.706 16.898"/><path d="M186.187 268.067l28.41-68.587c-26.933-11.158-54.965-19.662-83.559-25.347l-14.483 72.811a371.22 371.22 0 0 1 69.632 21.123"/><path d="M214.596 199.48l28.41-68.587a519.71 519.71 0 0 0-97.485-29.572l-14.483 72.811c28.593 5.686 56.626 14.189 83.559 25.347"/><path d="M243.006 130.893l28.41-68.587A593.88 593.88 0 0 0 160.004 28.51l-14.483 72.811a519.71 519.71 0 0 1 97.485 29.572M102.071 319.755l14.483-72.811a371.22 371.22 0 0 0-72.415-7.132v74.238a296.98 296.98 0 0 1 57.932 5.706"/><path d="M116.554 246.944l14.483-72.811c-28.593-5.69-57.745-8.561-86.898-8.559v74.238a371.22 371.22 0 0 1 72.415 7.132"/><path d="M131.037 174.133l14.483-72.811a519.71 519.71 0 0 0-101.381-9.985v74.238c29.153-.002 58.306 2.869 86.898 8.559"/><path d="M145.52 101.321l14.483-72.811C121.88 20.924 83.01 17.096 44.139 17.098v74.238a519.71 519.71 0 0 1 101.381 9.985"/></g><defs><path id="A" d="M0 0v3.5" class="B C"/></defs><use xlink:href="#A" x="44.139" y="620.899" class="B C"/><g transform="matrix(.1 0 0 -.1 40.95774 635.497068)"><defs><path id="B" d="M2034 4250q-487 0-733-480-245-479-245-1442 0-959 245-1439 246-480 733-480 491 0 736 480 246 480 246 1439 0 963-246 1442-245 480-736 480zm0 500q785 0 1199-621 414-620 414-1801 0-1178-414-1799Q2819-91 2034-91q-784 0-1198 620-414 621-414 1799 0 1181 414 1801 414 621 1198 621z" transform="scale(.015625)"/></defs><use xlink:href="#B"/></g><use xlink:href="#A" x="143.123" y="620.899" class="B C"/><g transform="matrix(.1 0 0 -.1 139.94139 635.497068)"><defs><path id="C" d="M794 531h1031v3560L703 3866v575l1116 225h631V531h1031V0H794v531z" transform="scale(.015625)"/></defs><use xlink:href="#C"/></g><use xlink:href="#A" x="242.106" y="620.899" class="B C"/><g transform="matrix(.1 0 0 -.1 238.92504 635.497068)"><defs><path id="D" d="M1228 531h2203V0H469v531q359 372 979 998 621 627 780 809 303 340 423 576 121 236 121 464 0 372-261 606-261 235-680 235-297 0-627-103-329-103-704-313v638q381 153 712 231 332 78 607 78 725 0 1156-363 431-362 431-968 0-288-108-546-107-257-392-607-78-91-497-524-418-433-1181-1211z" transform="scale(.015625)"/></defs><use xlink:href="#D"/></g><use xlink:href="#A" x="341.09" y="620.899" class="B C"/><g transform="matrix(.1 0 0 -.1 337.90869 635.497068)"><defs><path id="E" d="M2597 2516q453-97 707-404 255-306 255-756 0-690-475-1069Q2609-91 1734-91q-293 0-604 58-311 58-642 174v609q262-153 574-231 313-78 654-78 593 0 904 234 311 234 311 681 0 413-289 645-289 233-804 233h-544v519h569q465 0 712 186 247 186 247 536 0 359-255 551-254 193-729 193-260 0-557-57-297-56-653-174v562q360 100 674 150 314 50 592 50 719 0 1137-327 419-326 419-882 0-388-222-655-222-267-631-370z" transform="scale(.015625)"/></defs><use xlink:href="#E"/></g><use xlink:href="#A" x="440.074" y="620.899" class="B C"/><g transform="matrix(.1 0 0 -.1 436.89234 635.497068)"><defs><path id="F" d="M2419 4116L825 1625h1594v2491zm-166 550h794V1625h666v-525h-666V0h-628v1100H313v609l1940 2957z" transform="scale(.015625)"/></defs><use xlink:href="#F"/></g><use xlink:href="#A" x="539.057" y="620.899" class="B C"/><g transform="matrix(.1 0 0 -.1 535.87599 635.497068)"><defs><path id="G" d="M691 4666h2478v-532H1269V2991q137 47 274 70 138 23 276 23 781 0 1237-428 457-428 457-1159 0-753-469-1171Q2575-91 1722-91q-294 0-599 50Q819 9 494 109v635q281-153 581-228 300-75 634-75 541 0 856 284 316 284 316 772 0 487-316 771-315 285-856 285-253 0-505-56-251-56-513-175v2344z" transform="scale(.015625)"/></defs><use xlink:href="#G"/></g><use xlink:href="#A" x="638.041" y="620.899" class="B C"/><g transform="matrix(.1 0 0 -.1 634.85964 635.497068)"><defs><path id="H" d="M2113 2584q-425 0-674-291-248-290-248-796 0-503 248-796 249-292 674-292 425 0 673 292 248 293 248 796 0 506-248 796-248 291-673 291zm1253 1979v-575q-238 112-480 171-242 60-480 60-625 0-955-422-329-422-376-1275 184 272 462 417 279 145 613 145 703 0 1111-427 408-426 408-1160 0-719-425-1154Q2819-91 2113-91q-810 0-1238 620-428 621-428 1799 0 1106 525 1764 525 658 1409 658 238 0 480-47 242-47 505-140z" transform="scale(.015625)"/></defs><use xlink:href="#H"/></g><g transform="matrix(.1 0 0 -.1 338.130565 649.175193)"><defs><path id="I" d="M3513 3500L2247 1797 3578 0h-678L1881 1375 863 0H184l1360 1831L300 3500h678l928-1247 928 1247h679z" transform="scale(.015625)"/></defs><use xlink:href="#I"/></g><defs><path id="J" d="M0 0h-3.5" class="B C"/></defs><use xlink:href="#J" x="34.241" y="611" class="B C"/><use xlink:href="#B" transform="matrix(.1 0 0 -.1 20.878125 614.799484)"/><use xlink:href="#J" x="34.241" y="512.017" class="B C"/><use xlink:href="#C" transform="matrix(.1 0 0 -.1 20.878125 515.815834)"/><use xlink:href="#J" x="34.241" y="413.033" class="B C"/><use xlink:href="#D" transform="matrix(.1 0 0 -.1 20.878125 416.832184)"/><use xlink:href="#J" x="34.241" y="314.049" class="B C"/><use xlink:href="#E" transform="matrix(.1 0 0 -.1 20.878125 317.848534)"/><use xlink:href="#J" x="34.241" y="215.066" class="B C"/><use xlink:href="#F" transform="matrix(.1 0 0 -.1 20.878125 218.864884)"/><use xlink:href="#J" x="34.241" y="116.082" class="B C"/><use xlink:href="#G" transform="matrix(.1 0 0 -.1 20.878125 119.881234)"/><use xlink:href="#J" x="34.241" y="17.098" class="B C"/><use xlink:href="#H" transform="matrix(.1 0 0 -.1 20.878125 20.897584)"/><g transform="matrix(0 -.1 -.1 0 14.798438 317.00869)"><defs><path id="K" d="M2059-325q-243-625-475-815-231-191-618-191H506v481h338q237 0 368 113 132 112 291 531l103 262L191 3500h609L1894 763l1094 2737h609L2059-325z" transform="scale(.015625)"/></defs><use xlink:href="#K"/></g><defs><path id="L" d="M0 3a3 3 0 0 0 2.121-.879A3 3 0 0 0 3 0a3 3 0 0 0-.879-2.121A3 3 0 0 0 0-3a3 3 0 0 0-2.121.879A3 3 0 0 0-3 0a3 3 0 0 0 .879 2.121A3 3 0 0 0 0 3z" stroke="#fff"/></defs><g stroke="#fff"><use xlink:href="#L" x="341.09" y="611"/><use xlink:href="#L" x="415.328" y="611"/><use xlink:href="#L" x="408.195" y="538.585"/><use xlink:href="#L" x="335.384" y="553.068"/><use xlink:href="#L" x="378.209" y="611"/><use xlink:href="#L" x="413.54" y="574.617"/><use xlink:href="#L" x="371.79" y="545.826"/><use xlink:href="#L" x="339.66" y="581.894"/><use xlink:href="#L" x="376.6" y="578.256"/><use xlink:href="#L" x="359.649" y="611"/><use xlink:href="#L" x="396.768" y="611"/><use xlink:href="#L" x="414.881" y="592.787"/><use xlink:href="#L" x="411.31" y="556.536"/><use xlink:href="#L" x="389.993" y="542.206"/><use xlink:href="#L" x="353.587" y="549.447"/><use xlink:href="#L" x="337.876" y="567.429"/><use xlink:href="#L" x="340.732" y="596.43"/><use xlink:href="#L" x="489.565" y="611"/><use xlink:href="#L" x="481.007" y="524.102"/><use xlink:href="#L" x="452.447" y="611"/><use xlink:href="#L" x="487.421" y="567.341"/><use xlink:href="#L" x="444.601" y="531.343"/><use xlink:href="#L" x="450.48" y="570.979"/><use xlink:href="#L" x="433.887" y="611"/><use xlink:href="#L" x="471.006" y="611"/><use xlink:href="#L" x="489.029" y="589.144"/><use xlink:href="#L" x="484.744" y="545.643"/><use xlink:href="#L" x="462.804" y="527.723"/><use xlink:href="#L" x="426.398" y="534.964"/><use xlink:href="#L" x="563.803" y="611"/><use xlink:href="#L" x="553.818" y="509.619"/><use xlink:href="#L" x="526.684" y="611"/><use xlink:href="#L" x="561.301" y="560.064"/><use xlink:href="#L" x="517.412" y="516.86"/><use xlink:href="#L" x="524.361" y="563.703"/><use xlink:href="#L" x="508.125" y="611"/><use xlink:href="#L" x="545.244" y="611"/><use xlink:href="#L" x="563.177" y="585.502"/><use xlink:href="#L" x="558.179" y="534.75"/><use xlink:href="#L" x="535.615" y="513.24"/><use xlink:href="#L" x="499.209" y="520.481"/><use xlink:href="#L" x="638.041" y="611"/><use xlink:href="#L" x="626.629" y="495.136"/><use xlink:href="#L" x="600.922" y="611"/><use xlink:href="#L" x="635.181" y="552.788"/><use xlink:href="#L" x="590.224" y="502.377"/><use xlink:href="#L" x="598.241" y="556.426"/><use xlink:href="#L" x="582.363" y="611"/><use xlink:href="#L" x="619.481" y="611"/><use xlink:href="#L" x="637.326" y="581.859"/><use xlink:href="#L" x="631.613" y="523.857"/><use xlink:href="#L" x="608.426" y="498.757"/><use xlink:href="#L" x="572.021" y="505.998"/><use xlink:href="#L" x="387.073" y="468.953"/><use xlink:href="#L" x="318.486" y="497.362"/><use xlink:href="#L" x="399.344" y="503.25"/><use xlink:href="#L" x="352.779" y="483.157"/><use xlink:href="#L" x="328.303" y="524.8"/><use xlink:href="#L" x="363.824" y="514.025"/><use xlink:href="#L" x="404.204" y="520.809"/><use xlink:href="#L" x="393.629" y="485.951"/><use xlink:href="#L" x="369.926" y="476.055"/><use xlink:href="#L" x="335.633" y="490.26"/><use xlink:href="#L" x="323.731" y="510.961"/><use xlink:href="#L" x="332.191" y="538.847"/><use xlink:href="#L" x="455.659" y="440.543"/><use xlink:href="#L" x="470.386" y="481.7"/><use xlink:href="#L" x="421.366" y="454.748"/><use xlink:href="#L" x="434.865" y="492.475"/><use xlink:href="#L" x="476.217" y="502.77"/><use xlink:href="#L" x="463.528" y="460.941"/><use xlink:href="#L" x="438.513" y="447.645"/><use xlink:href="#L" x="404.219" y="461.85"/><use xlink:href="#L" x="524.246" y="412.133"/><use xlink:href="#L" x="541.427" y="460.15"/><use xlink:href="#L" x="489.953" y="426.338"/><use xlink:href="#L" x="505.906" y="470.925"/><use xlink:href="#L" x="548.229" y="484.732"/><use xlink:href="#L" x="533.426" y="435.931"/><use xlink:href="#L" x="507.099" y="419.236"/><use xlink:href="#L" x="472.806" y="433.441"/><use xlink:href="#L" x="592.833" y="383.724"/><use xlink:href="#L" x="612.468" y="438.6"/><use xlink:href="#L" x="558.539" y="397.929"/><use xlink:href="#L" x="576.947" y="449.375"/><use xlink:href="#L" x="620.242" y="466.694"/><use xlink:href="#L" x="603.324" y="410.921"/><use xlink:href="#L" x="575.686" y="390.826"/><use xlink:href="#L" x="541.393" y="405.031"/><use xlink:href="#L" x="352.771" y="404.779"/><use xlink:href="#L" x="291.045" y="446.023"/><use xlink:href="#L" x="371.498" y="436.023"/><use xlink:href="#L" x="321.908" y="425.401"/><use xlink:href="#L" x="306.026" y="471.019"/><use xlink:href="#L" x="338.762" y="453.521"/><use xlink:href="#L" x="379.69" y="452.297"/><use xlink:href="#L" x="362.518" y="420.171"/><use xlink:href="#L" x="337.339" y="415.09"/><use xlink:href="#L" x="306.476" y="435.712"/><use xlink:href="#L" x="298.842" y="458.337"/><use xlink:href="#L" x="312.579" y="484.037"/><use xlink:href="#L" x="414.498" y="363.535"/><use xlink:href="#L" x="436.97" y="401.028"/><use xlink:href="#L" x="383.634" y="384.157"/><use xlink:href="#L" x="404.234" y="418.525"/><use xlink:href="#L" x="446.8" y="420.556"/><use xlink:href="#L" x="426.194" y="382.005"/><use xlink:href="#L" x="399.066" y="373.846"/><use xlink:href="#L" x="368.203" y="394.468"/><use xlink:href="#L" x="476.224" y="322.29"/><use xlink:href="#L" x="502.442" y="366.032"/><use xlink:href="#L" x="445.361" y="342.912"/><use xlink:href="#L" x="469.706" y="383.53"/><use xlink:href="#L" x="513.91" y="388.815"/><use xlink:href="#L" x="489.87" y="343.839"/><use xlink:href="#L" x="460.792" y="332.601"/><use xlink:href="#L" x="429.929" y="353.224"/><use xlink:href="#L" x="537.95" y="281.046"/><use xlink:href="#L" x="567.914" y="331.037"/><use xlink:href="#L" x="507.087" y="301.668"/><use xlink:href="#L" x="535.178" y="348.535"/><use xlink:href="#L" x="581.02" y="357.074"/><use xlink:href="#L" x="553.546" y="305.674"/><use xlink:href="#L" x="522.519" y="291.357"/><use xlink:href="#L" x="491.656" y="311.979"/><use xlink:href="#L" x="306.609" y="348.53"/><use xlink:href="#L" x="254.115" y="401.024"/><use xlink:href="#L" x="331.072" y="375.521"/><use xlink:href="#L" x="280.362" y="374.777"/><use xlink:href="#L" x="273.685" y="422.617"/><use xlink:href="#L" x="302.378" y="399.069"/><use xlink:href="#L" x="342.281" y="389.883"/><use xlink:href="#L" x="319.172" y="361.725"/><use xlink:href="#L" x="293.486" y="361.654"/><use xlink:href="#L" x="267.239" y="387.901"/><use xlink:href="#L" x="264.165" y="411.58"/><use xlink:href="#L" x="282.652" y="434.107"/><use xlink:href="#L" x="359.103" y="296.036"/><use xlink:href="#L" x="388.458" y="328.425"/><use xlink:href="#L" x="332.856" y="322.283"/><use xlink:href="#L" x="359.765" y="351.973"/><use xlink:href="#L" x="401.909" y="345.66"/><use xlink:href="#L" x="374.178" y="311.87"/><use xlink:href="#L" x="345.98" y="309.16"/><use xlink:href="#L" x="319.733" y="335.407"/><use xlink:href="#L" x="411.597" y="243.542"/><use xlink:href="#L" x="445.845" y="281.329"/><use xlink:href="#L" x="385.35" y="269.789"/><use xlink:href="#L" x="417.152" y="304.877"/><use xlink:href="#L" x="461.537" y="301.437"/><use xlink:href="#L" x="429.185" y="262.015"/><use xlink:href="#L" x="398.474" y="256.666"/><use xlink:href="#L" x="372.227" y="282.913"/><use xlink:href="#L" x="464.091" y="191.048"/><use xlink:href="#L" x="503.231" y="234.233"/><use xlink:href="#L" x="437.844" y="217.295"/><use xlink:href="#L" x="474.538" y="257.781"/><use xlink:href="#L" x="521.165" y="257.213"/><use xlink:href="#L" x="484.191" y="212.16"/><use xlink:href="#L" x="450.968" y="204.172"/><use xlink:href="#L" x="424.721" y="230.419"/><use xlink:href="#L" x="250.36" y="302.368"/><use xlink:href="#L" x="209.116" y="364.095"/><use xlink:href="#L" x="279.619" y="324.068"/><use xlink:href="#L" x="229.738" y="333.231"/><use xlink:href="#L" x="232.523" y="381.454"/><use xlink:href="#L" x="256.071" y="352.761"/><use xlink:href="#L" x="293.414" y="335.968"/><use xlink:href="#L" x="265.256" y="312.859"/><use xlink:href="#L" x="240.049" y="317.8"/><use xlink:href="#L" x="219.427" y="348.663"/><use xlink:href="#L" x="221.032" y="372.487"/><use xlink:href="#L" x="243.559" y="390.974"/><use xlink:href="#L" x="291.605" y="240.642"/><use xlink:href="#L" x="326.715" y="266.681"/><use xlink:href="#L" x="270.983" y="271.505"/><use xlink:href="#L" x="303.167" y="295.374"/><use xlink:href="#L" x="343.269" y="280.961"/><use xlink:href="#L" x="309.479" y="253.23"/><use xlink:href="#L" x="281.294" y="256.073"/><use xlink:href="#L" x="260.671" y="286.937"/><use xlink:href="#L" x="332.849" y="178.915"/><use xlink:href="#L" x="373.81" y="209.294"/><use xlink:href="#L" x="312.227" y="209.779"/><use xlink:href="#L" x="350.262" y="237.988"/><use xlink:href="#L" x="393.124" y="225.955"/><use xlink:href="#L" x="353.703" y="193.602"/><use xlink:href="#L" x="322.538" y="194.347"/><use xlink:href="#L" x="301.916" y="225.21"/><use xlink:href="#L" x="374.093" y="117.189"/><use xlink:href="#L" x="420.906" y="151.908"/><use xlink:href="#L" x="353.471" y="148.052"/><use xlink:href="#L" x="397.358" y="180.601"/><use xlink:href="#L" x="442.979" y="170.948"/><use xlink:href="#L" x="397.926" y="133.974"/><use xlink:href="#L" x="363.782" y="132.62"/><use xlink:href="#L" x="343.16" y="163.484"/><use xlink:href="#L" x="186.187" y="268.067"/><use xlink:href="#L" x="157.777" y="336.653"/><use xlink:href="#L" x="219.116" y="283.641"/><use xlink:href="#L" x="171.982" y="302.36"/><use xlink:href="#L" x="184.121" y="349.113"/><use xlink:href="#L" x="201.618" y="316.377"/><use xlink:href="#L" x="234.968" y="292.621"/><use xlink:href="#L" x="202.843" y="275.45"/><use xlink:href="#L" x="179.084" y="285.213"/><use xlink:href="#L" x="164.88" y="319.507"/><use xlink:href="#L" x="171.102" y="342.56"/><use xlink:href="#L" x="196.802" y="356.297"/><use xlink:href="#L" x="214.596" y="199.48"/><use xlink:href="#L" x="254.112" y="218.169"/><use xlink:href="#L" x="200.392" y="233.773"/><use xlink:href="#L" x="236.614" y="250.905"/><use xlink:href="#L" x="273.134" y="228.945"/><use xlink:href="#L" x="234.583" y="208.34"/><use xlink:href="#L" x="207.494" y="216.627"/><use xlink:href="#L" x="193.289" y="250.92"/><use xlink:href="#L" x="243.006" y="130.893"/><use xlink:href="#L" x="289.107" y="152.697"/><use xlink:href="#L" x="228.801" y="165.187"/><use xlink:href="#L" x="271.609" y="185.433"/><use xlink:href="#L" x="311.3" y="165.269"/><use xlink:href="#L" x="266.324" y="141.229"/><use xlink:href="#L" x="235.903" y="148.04"/><use xlink:href="#L" x="221.699" y="182.333"/><use xlink:href="#L" x="271.415" y="62.306"/><use xlink:href="#L" x="324.102" y="87.226"/><use xlink:href="#L" x="257.211" y="96.6"/><use xlink:href="#L" x="306.605" y="119.961"/><use xlink:href="#L" x="349.466" y="101.594"/><use xlink:href="#L" x="298.065" y="74.119"/><use xlink:href="#L" x="264.313" y="79.453"/><use xlink:href="#L" x="250.108" y="113.747"/><use xlink:href="#L" x="116.554" y="246.944"/><use xlink:href="#L" x="102.071" y="319.755"/><use xlink:href="#L" x="151.889" y="255.795"/><use xlink:href="#L" x="109.313" y="283.35"/><use xlink:href="#L" x="130.339" y="326.836"/><use xlink:href="#L" x="141.114" y="291.315"/><use xlink:href="#L" x="169.189" y="261.51"/><use xlink:href="#L" x="134.33" y="250.936"/><use xlink:href="#L" x="112.934" y="265.147"/><use xlink:href="#L" x="105.692" y="301.552"/><use xlink:href="#L" x="116.292" y="322.949"/><use xlink:href="#L" x="144.179" y="331.408"/><use xlink:href="#L" x="131.037" y="174.133"/><use xlink:href="#L" x="173.439" y="184.754"/><use xlink:href="#L" x="123.796" y="210.538"/><use xlink:href="#L" x="162.664" y="220.274"/><use xlink:href="#L" x="194.199" y="191.612"/><use xlink:href="#L" x="152.369" y="178.923"/><use xlink:href="#L" x="127.417" y="192.335"/><use xlink:href="#L" x="120.175" y="228.741"/><use xlink:href="#L" x="145.52" y="101.321"/><use xlink:href="#L" x="194.99" y="113.713"/><use xlink:href="#L" x="138.279" y="137.727"/><use xlink:href="#L" x="184.214" y="149.233"/><use xlink:href="#L" x="219.209" y="121.714"/><use xlink:href="#L" x="170.407" y="106.91"/><use xlink:href="#L" x="141.9" y="119.524"/><use xlink:href="#L" x="134.658" y="155.93"/><use xlink:href="#L" x="160.004" y="28.51"/><use xlink:href="#L" x="216.54" y="42.672"/><use xlink:href="#L" x="152.762" y="64.916"/><use xlink:href="#L" x="205.765" y="78.192"/><use xlink:href="#L" x="244.219" y="51.815"/><use xlink:href="#L" x="188.445" y="34.897"/><use xlink:href="#L" x="156.383" y="46.713"/><use xlink:href="#L" x="149.141" y="83.118"/><use xlink:href="#L" x="44.139" y="239.812"/><use xlink:href="#L" x="44.139" y="314.049"/><use xlink:href="#L" x="80.522" y="241.599"/><use xlink:href="#L" x="44.139" y="276.93"/><use xlink:href="#L" x="73.245" y="315.479"/><use xlink:href="#L" x="76.884" y="278.539"/><use xlink:href="#L" x="98.604" y="243.829"/><use xlink:href="#L" x="62.352" y="240.259"/><use xlink:href="#L" x="44.139" y="258.371"/><use xlink:href="#L" x="44.139" y="295.49"/><use xlink:href="#L" x="58.71" y="314.407"/><use xlink:href="#L" x="87.711" y="317.263"/><use xlink:href="#L" x="44.139" y="165.574"/><use xlink:href="#L" x="87.798" y="167.719"/><use xlink:href="#L" x="44.139" y="202.693"/><use xlink:href="#L" x="84.16" y="204.659"/><use xlink:href="#L" x="109.497" y="170.395"/><use xlink:href="#L" x="65.995" y="166.11"/><use xlink:href="#L" x="44.139" y="184.133"/><use xlink:href="#L" x="44.139" y="221.252"/><use xlink:href="#L" x="44.139" y="91.336"/><use xlink:href="#L" x="95.075" y="93.838"/><use xlink:href="#L" x="44.139" y="128.455"/><use xlink:href="#L" x="91.437" y="130.779"/><use xlink:href="#L" x="120.39" y="96.961"/><use xlink:href="#L" x="69.638" y="91.962"/><use xlink:href="#L" x="44.139" y="109.896"/><use xlink:href="#L" x="44.139" y="147.014"/><use xlink:href="#L" x="44.139" y="17.098"/><use xlink:href="#L" x="102.352" y="19.958"/><use xlink:href="#L" x="44.139" y="54.217"/><use xlink:href="#L" x="98.713" y="56.898"/><use xlink:href="#L" x="131.282" y="23.526"/><use xlink:href="#L" x="73.28" y="17.814"/><use xlink:href="#L" x="44.139" y="35.658"/><use xlink:href="#L" x="44.139" y="72.777"/></g><defs><path id="M" d="M0 5a5 5 0 0 0 3.536-1.464A5 5 0 0 0 5 0a5 5 0 0 0-1.464-3.536A5 5 0 0 0 0-5a5 5 0 0 0-3.536 1.464A5 5 0 0 0-5 0a5 5 0 0 0 1.464 3.536A5 5 0 0 0 0 5z" stroke="red"/></defs><g clip-path="url(#N)"><use xlink:href="#M" x="341.09" y="611" fill="red" stroke="red"/></g><g fill="none" stroke-linecap="square" class="B C"><path d="M34.241 620.899V7.2m613.698 613.699V7.2M34.241 620.899H647.94"/><path d="M34.241 7.2h613.699"/></g><defs><clipPath id="N"><path d="M34.241 7.2h613.699v613.699H34.241z"/></clipPath></defs></svg>