<svg xmlns="http://www.w3.org/2000/svg" xmlns:xlink="http://www.w3.org/1999/xlink" width="873.519" height="877.94" viewBox="0 0 655.139 658.455" xmlns:v="https://vecta.io/nano"><style><![CDATA[.B{stroke:#000}.C{stroke-width:.8}]]></style><g fill="#fff"><path d="M0 658.455h655.139V0H0z"/><path d="M34.241 620.899h613.699V7.2H34.241z"/></g><g fill="#e3f3ff" stroke="#0055d4" stroke-width="1.5"><path d="M341.09 611q18.559 0 37.119 0 0-16.412-1.609-32.745-18.47 1.819-36.94 3.638 1.429 14.518 1.43 29.106"/><path d="M378.209 611q18.559 0 37.119 0-.001-18.235-1.787-36.383-18.47 1.819-36.94 3.638 1.608 16.333 1.609 32.745"/><path d="M415.328 611q18.559 0 37.119 0-.001-20.059-1.966-40.021-18.47 1.819-36.94 3.638 1.787 18.148 1.787 36.383"/><path d="M452.447 611q18.559 0 37.119 0-.001-21.882-2.145-43.659-18.47 1.819-36.94 3.638 1.966 19.962 1.966 40.021"/><path d="M489.565 611q18.559 0 37.119 0-.001-23.706-2.324-47.298-18.47 1.819-36.94 3.638 2.144 21.777 2.145 43.659"/><path d="M526.684 611q18.559 0 37.119 0-.001-25.529-2.502-50.936-18.47 1.819-36.94 3.638 2.323 23.592 2.324 47.298"/><path d="M563.803 611q18.559 0 37.119 0-.001-27.353-2.681-54.574-18.47 1.819-36.94 3.638 2.502 25.407 2.502 50.936"/><path d="M600.922 611q18.559 0 37.119 0-.001-29.176-2.86-58.213-18.47 1.819-36.94 3.638 2.68 27.221 2.681 54.574M339.66 581.894q18.47-1.819 36.94-3.638-1.609-16.333-4.81-32.429-18.203 3.621-36.406 7.242 2.846 14.308 4.276 28.826"/><path d="M376.6 578.256q18.47-1.819 36.94-3.638-1.788-18.147-5.345-36.032-18.203 3.621-36.406 7.242 3.201 16.097 4.81 32.429"/><path d="M413.54 574.617q18.47-1.819 36.94-3.638-1.967-19.962-5.879-39.636-18.203 3.621-36.406 7.242 3.557 17.885 5.345 36.032"/><path d="M450.48 570.979q18.47-1.819 36.94-3.638-2.145-21.777-6.414-43.239-18.203 3.621-36.406 7.242 3.913 19.674 5.879 39.636"/><path d="M487.421 567.341q18.47-1.819 36.94-3.638-2.324-23.592-6.948-46.842-18.203 3.621-36.406 7.242 4.268 21.462 6.414 43.239"/><path d="M524.361 563.703q18.47-1.819 36.94-3.638-2.503-25.406-7.483-50.445-18.203 3.621-36.406 7.242 4.624 23.251 6.948 46.842"/><path d="M561.301 560.064q18.47-1.819 36.94-3.638-2.682-27.221-8.017-54.049-18.203 3.621-36.406 7.242 4.98 25.039 7.483 50.445"/><path d="M598.241 556.426q18.47-1.819 36.94-3.638-2.861-29.036-8.552-57.652-18.203 3.621-36.406 7.242 5.336 26.828 8.017 54.049m-262.856-3.359q18.203-3.621 36.406-7.242-3.202-16.096-7.966-31.802-17.76 5.388-35.521 10.775 4.234 13.96 7.081 28.268"/><path d="M371.79 545.826q18.203-3.621 36.406-7.242-3.558-17.885-8.851-35.335-17.76 5.388-35.521 10.775 4.764 15.705 7.966 31.802"/><path d="M408.195 538.585q18.203-3.621 36.406-7.242-3.914-19.673-9.736-38.869-17.76 5.388-35.521 10.775 5.293 17.45 8.851 35.335"/><path d="M444.601 531.343q18.203-3.621 36.406-7.242-4.27-21.462-10.621-42.402-17.76 5.388-35.521 10.775 5.822 19.195 9.736 38.869"/><path d="M481.007 524.102q18.203-3.621 36.406-7.242-4.625-23.25-11.506-45.936-17.76 5.388-35.521 10.775 6.351 20.94 10.621 42.402"/><path d="M517.412 516.86q18.203-3.621 36.406-7.242-4.981-25.039-12.391-49.469-17.76 5.388-35.521 10.775 6.881 22.685 11.506 45.936"/><path d="M553.818 509.619q18.203-3.621 36.406-7.242-5.337-26.827-13.276-53.003-17.76 5.388-35.521 10.775 7.41 24.43 12.391 49.469"/><path d="M590.224 502.377q18.203-3.621 36.406-7.242-5.693-28.616-14.162-56.536-17.76 5.388-35.521 10.775 7.939 26.175 13.276 53.003M328.303 524.8q17.76-5.388 35.521-10.775-4.765-15.705-11.045-30.868-17.147 7.102-34.293 14.205 5.582 13.478 9.817 27.438"/><path d="M363.824 514.025q17.76-5.388 35.521-10.775-5.294-17.45-12.272-34.297-17.147 7.102-34.293 14.205 6.28 15.163 11.045 30.868"/><path d="M399.344 503.25q17.76-5.388 35.521-10.775-5.823-19.195-13.499-37.727-17.147 7.102-34.293 14.205 6.978 16.847 12.272 34.297"/><path d="M434.865 492.475q17.76-5.388 35.521-10.775-6.353-20.94-14.726-41.157-17.147 7.102-34.293 14.205 7.676 18.532 13.499 37.727"/><path d="M470.386 481.7q17.76-5.388 35.521-10.775-6.882-22.685-15.953-44.587-17.147 7.102-34.293 14.205 8.373 20.217 14.726 41.157"/><path d="M505.906 470.925q17.76-5.388 35.521-10.775-7.412-24.43-17.181-48.016-17.147 7.102-34.293 14.205 9.071 21.902 15.953 44.587"/><path d="M541.427 460.15q17.76-5.388 35.521-10.775-7.941-26.175-18.408-51.446-17.147 7.102-34.293 14.205 9.769 23.586 17.181 48.016"/><path d="M576.947 449.375q17.76-5.388 35.521-10.775-8.47-27.92-19.635-54.876-17.147 7.102-34.293 14.205 10.467 25.271 18.408 51.446m-258.462 47.987q17.147-7.102 34.293-14.205-6.281-15.162-14.017-29.636-16.368 8.749-32.736 17.498 6.876 12.866 12.46 26.344"/><path d="M352.779 483.157q17.147-7.102 34.293-14.205-6.979-16.847-15.574-32.929-16.368 8.749-32.736 17.498 7.736 14.474 14.017 29.636"/><path d="M387.073 468.953q17.147-7.102 34.293-14.205-7.677-18.532-17.132-36.222-16.368 8.749-32.736 17.498 8.596 16.082 15.574 32.929"/><path d="M421.366 454.748q17.147-7.102 34.293-14.205-8.375-20.216-18.689-39.515-16.368 8.749-32.736 17.498 9.455 17.691 17.132 36.222"/><path d="M455.659 440.543q17.147-7.102 34.293-14.205-9.073-21.901-20.247-42.808-16.368 8.749-32.736 17.498 10.315 19.299 18.689 39.515"/><path d="M489.953 426.338q17.147-7.102 34.293-14.205-9.77-23.586-21.804-46.101-16.368 8.749-32.736 17.498 11.174 20.907 20.247 42.808"/><path d="M524.246 412.133q17.147-7.102 34.293-14.205-10.468-25.271-23.362-49.394-16.368 8.749-32.736 17.498 12.034 22.515 21.804 46.101"/><path d="M558.539 397.929q17.147-7.102 34.293-14.205-11.166-26.955-24.919-52.687-16.368 8.749-32.736 17.498 12.893 24.124 23.362 49.394m-252.513 73.09q16.368-8.749 32.736-17.498-7.737-14.474-16.854-28.12-15.432 10.311-30.863 20.622 8.104 12.13 14.982 24.995"/><path d="M338.762 453.521q16.368-8.749 32.736-17.498-8.597-16.082-18.727-31.244-15.432 10.311-30.863 20.622 9.117 13.646 16.854 28.12"/><path d="M371.498 436.023q16.368-8.749 32.736-17.498-9.456-17.69-20.6-34.369-15.432 10.311-30.863 20.622 10.131 15.162 18.727 31.244"/><path d="M404.234 418.525q16.368-8.749 32.736-17.498-10.316-19.298-22.472-37.493-15.432 10.311-30.863 20.622 11.144 16.679 20.6 34.369"/><path d="M436.97 401.028q16.368-8.749 32.736-17.498-11.175-20.906-24.345-40.618-15.432 10.311-30.863 20.622 12.157 18.195 22.472 37.493"/><path d="M469.706 383.53q16.368-8.749 32.736-17.498-12.035-22.515-26.218-43.742-15.432 10.311-30.863 20.622 13.17 19.711 24.345 40.618"/><path d="M502.442 366.032q16.368-8.749 32.736-17.498-12.895-24.123-28.091-46.866-15.432 10.311-30.863 20.622 14.183 21.227 26.218 43.742"/><path d="M535.178 348.535q16.368-8.749 32.736-17.498-13.754-25.731-29.963-49.991-15.432 10.311-30.863 20.622 15.196 22.744 28.091 46.866m-244.134 97.489q15.432-10.311 30.863-20.622-9.118-13.646-19.529-26.332-14.347 11.774-28.693 23.548 9.254 11.277 17.36 23.407"/><path d="M321.908 425.401q15.432-10.311 30.863-20.622-10.131-15.162-21.699-29.258-14.347 11.774-28.693 23.548 10.411 12.687 19.529 26.332"/><path d="M352.771 404.779q15.432-10.311 30.863-20.622-11.145-16.678-23.869-32.184-14.347 11.774-28.693 23.548 11.568 14.096 21.699 29.258"/><path d="M383.634 384.157q15.432-10.311 30.863-20.622-12.158-18.194-26.039-35.11-14.347 11.774-28.693 23.548 12.725 15.506 23.869 32.184"/><path d="M414.498 363.535q15.432-10.311 30.863-20.622-13.171-19.71-28.209-38.036-14.347 11.774-28.693 23.548 13.882 16.916 26.039 35.11"/><path d="M445.361 342.912q15.432-10.311 30.863-20.622-14.184-21.227-30.379-40.962-14.347 11.774-28.693 23.548 15.038 18.325 28.209 38.036"/><path d="M476.224 322.29q15.432-10.311 30.863-20.622-15.197-22.743-32.549-43.887-14.347 11.774-28.693 23.548 16.195 19.735 30.379 40.962"/><path d="M507.087 301.668q15.432-10.311 30.863-20.622-16.21-24.259-34.719-46.813-14.347 11.774-28.693 23.548 17.352 21.145 32.549 43.887M273.685 422.617q14.347-11.774 28.693-23.548-10.412-12.686-22.016-24.291-13.124 13.124-26.247 26.247 10.315 10.316 19.57 21.592"/><path d="M302.378 399.069q14.347-11.774 28.693-23.548-11.569-14.096-24.463-26.99-13.124 13.124-26.247 26.247 11.605 11.605 22.016 24.291"/><path d="M331.072 375.521q14.347-11.774 28.693-23.548-12.726-15.505-26.909-29.689-13.124 13.124-26.247 26.247 12.894 12.895 24.463 26.99"/><path d="M359.765 351.973q14.347-11.774 28.693-23.548-13.883-16.915-29.355-32.389-13.124 13.124-26.247 26.247 14.183 14.184 26.909 29.689"/><path d="M388.458 328.425q14.347-11.774 28.693-23.548-15.039-18.324-31.802-35.088-13.124 13.124-26.247 26.247 15.473 15.474 29.355 32.389"/><path d="M417.152 304.877q14.347-11.774 28.693-23.548-16.196-19.734-34.248-37.787-13.124 13.124-26.247 26.247 16.762 16.763 31.802 35.088"/><path d="M445.845 281.329q14.347-11.774 28.693-23.548-17.353-21.144-36.694-40.486-13.124 13.124-26.247 26.247 18.051 18.053 34.248 37.787"/><path d="M474.538 257.781q14.347-11.774 28.693-23.548-18.51-22.553-39.14-43.185-13.124 13.124-26.247 26.247 19.341 19.342 36.694 40.486M254.115 401.024q13.124-13.124 26.247-26.247-11.605-11.605-24.291-22.016-11.774 14.347-23.548 28.693 11.277 9.255 21.592 19.57"/><path d="M280.362 374.777q13.124-13.124 26.247-26.247-12.895-12.894-26.99-24.463-11.774 14.347-23.548 28.693 12.686 10.412 24.291 22.016"/><path d="M306.609 348.53q13.124-13.124 26.247-26.247-14.184-14.183-29.689-26.909-11.774 14.347-23.548 28.693 14.096 11.569 26.99 24.463"/><path d="M332.856 322.283q13.124-13.124 26.247-26.247-15.474-15.473-32.389-29.355-11.774 14.347-23.548 28.693 15.505 12.726 29.689 26.909"/><path d="M359.103 296.036q13.124-13.124 26.247-26.247-16.763-16.762-35.088-31.802-11.774 14.347-23.548 28.693 16.915 13.883 32.389 29.355"/><path d="M385.35 269.789q13.124-13.124 26.247-26.247-18.053-18.051-37.787-34.248-11.774 14.347-23.548 28.693 18.324 15.039 35.088 31.802"/><path d="M411.597 243.542q13.124-13.124 26.247-26.247-19.342-19.341-40.486-36.694-11.774 14.347-23.548 28.693 19.734 16.196 37.787 34.248"/><path d="M437.844 217.295q13.124-13.124 26.247-26.247-20.632-20.63-43.185-39.14-11.774 14.347-23.548 28.693 21.144 17.353 40.486 36.694M232.523 381.454q11.774-14.347 23.548-28.693-12.687-10.411-26.332-19.529-10.311 15.432-20.622 30.863 12.129 8.105 23.407 17.36"/><path d="M256.071 352.761q11.774-14.347 23.548-28.693-14.096-11.568-29.258-21.699-10.311 15.432-20.622 30.863 13.646 9.118 26.332 19.529"/><path d="M279.619 324.068q11.774-14.347 23.548-28.693-15.506-12.725-32.184-23.869-10.311 15.432-20.622 30.863 15.162 10.131 29.258 21.699"/><path d="M303.167 295.374q11.774-14.347 23.548-28.693-16.916-13.882-35.11-26.039-10.311 15.432-20.622 30.863 16.678 11.145 32.184 23.869"/><path d="M326.715 266.681q11.774-14.347 23.548-28.693-18.325-15.038-38.036-28.209-10.311 15.432-20.622 30.863 18.194 12.158 35.11 26.039"/><path d="M350.262 237.988q11.774-14.347 23.548-28.693-19.735-16.195-40.962-30.379-10.311 15.432-20.622 30.863 19.71 13.171 38.036 28.209"/><path d="M373.81 209.294q11.774-14.347 23.548-28.693-21.145-17.352-43.887-32.549-10.311 15.432-20.622 30.863 21.227 14.184 40.962 30.379"/><path d="M397.358 180.601q11.774-14.347 23.548-28.693-22.554-18.509-46.813-34.719-10.311 15.432-20.622 30.863 22.743 15.197 43.887 32.549M209.116 364.095q10.311-15.432 20.622-30.863-13.646-9.117-28.12-16.854-8.749 16.368-17.498 32.736 12.865 6.877 24.995 14.982"/><path d="M229.738 333.231q10.311-15.432 20.622-30.863-15.162-10.131-31.244-18.727-8.749 16.368-17.498 32.736 14.474 7.737 28.12 16.854"/><path d="M250.36 302.368q10.311-15.432 20.622-30.863-16.679-11.144-34.369-20.6-8.749 16.368-17.498 32.736 16.082 8.597 31.244 18.727"/><path d="M270.983 271.505q10.311-15.432 20.622-30.863-18.195-12.157-37.493-22.472-8.749 16.368-17.498 32.736 17.69 9.456 34.369 20.6"/><path d="M291.605 240.642q10.311-15.432 20.622-30.863-19.711-13.17-40.618-24.345-8.749 16.368-17.498 32.736 19.298 10.316 37.493 22.472"/><path d="M312.227 209.779q10.311-15.432 20.622-30.863-21.227-14.183-43.742-26.218-8.749 16.368-17.498 32.736 20.906 11.176 40.618 24.345"/><path d="M332.849 178.915q10.311-15.432 20.622-30.863-22.744-15.196-46.866-28.091-8.749 16.368-17.498 32.736 22.515 12.035 43.742 26.218"/><path d="M353.471 148.052q10.311-15.432 20.622-30.863-24.26-16.209-49.991-29.963-8.749 16.368-17.498 32.736 24.123 12.895 46.866 28.091m-169.349 201.06q8.749-16.368 17.498-32.736-14.474-7.736-29.636-14.017-7.102 17.147-14.205 34.293 13.478 5.583 26.344 12.46"/><path d="M201.618 316.377q8.749-16.368 17.498-32.736-16.082-8.596-32.929-15.574-7.102 17.147-14.205 34.293 15.162 6.281 29.636 14.017"/><path d="M219.116 283.641q8.749-16.368 17.498-32.736-17.691-9.455-36.222-17.132-7.102 17.147-14.205 34.293 16.847 6.979 32.929 15.574"/><path d="M236.614 250.905q8.749-16.368 17.498-32.736-19.299-10.315-39.515-18.689-7.102 17.147-14.205 34.293 18.532 7.677 36.222 17.132"/><path d="M254.112 218.169q8.749-16.368 17.498-32.736-20.907-11.174-42.808-20.247-7.102 17.147-14.205 34.293 20.216 8.375 39.515 18.689"/><path d="M271.609 185.433q8.749-16.368 17.498-32.736-22.515-12.034-46.101-21.804-7.102 17.147-14.205 34.293 21.901 9.072 42.808 20.247"/><path d="M289.107 152.697q8.749-16.368 17.498-32.736-24.124-12.893-49.394-23.362-7.102 17.147-14.205 34.293 23.586 9.77 46.101 21.804"/><path d="M306.605 119.961q8.749-16.368 17.498-32.736-25.732-13.753-52.687-24.919-7.102 17.147-14.205 34.293 25.271 10.468 49.394 23.362M157.777 336.653q7.102-17.147 14.205-34.293-15.163-6.28-30.868-11.045-5.388 17.76-10.775 35.521 13.96 4.235 27.438 9.817"/><path d="M171.982 302.36q7.102-17.147 14.205-34.293-16.847-6.978-34.297-12.272-5.388 17.76-10.775 35.521 15.705 4.765 30.868 11.045"/><path d="M186.187 268.067q7.102-17.147 14.205-34.293-18.532-7.676-37.727-13.499-5.388 17.76-10.775 35.521 17.45 5.294 34.297 12.272"/><path d="M200.392 233.773q7.102-17.147 14.205-34.293-20.217-8.373-41.157-14.726-5.388 17.76-10.775 35.521 19.195 5.823 37.727 13.499"/><path d="M214.596 199.48q7.102-17.147 14.205-34.293-21.902-9.071-44.587-15.953-5.388 17.76-10.775 35.521 20.94 6.353 41.157 14.726"/><path d="M228.801 165.187q7.102-17.147 14.205-34.293-23.586-9.769-48.016-17.181-5.388 17.76-10.775 35.521 22.685 6.882 44.587 15.953"/><path d="M243.006 130.893q7.102-17.147 14.205-34.293-25.271-10.467-51.446-18.408-5.388 17.76-10.775 35.521 24.43 7.412 48.016 17.181"/><path d="M257.211 96.6q7.102-17.147 14.205-34.293-26.956-11.165-54.876-19.635-5.388 17.76-10.775 35.521 26.175 7.941 51.446 18.408M130.339 326.836q5.388-17.76 10.775-35.521-15.705-4.764-31.802-7.966-3.621 18.203-7.242 36.406 14.308 2.846 28.268 7.081"/><path d="M141.114 291.315q5.388-17.76 10.775-35.521-17.45-5.293-35.335-8.851-3.621 18.203-7.242 36.406 16.096 3.202 31.802 7.966"/><path d="M151.889 255.795q5.388-17.76 10.775-35.521-19.195-5.822-38.869-9.736-3.621 18.203-7.242 36.406 17.885 3.558 35.335 8.851"/><path d="M162.664 220.274q5.388-17.76 10.775-35.521-20.94-6.351-42.402-10.621-3.621 18.203-7.242 36.406 19.673 3.914 38.869 9.736"/><path d="M173.439 184.754q5.388-17.76 10.775-35.521-22.685-6.881-45.936-11.506-3.621 18.203-7.242 36.406 21.462 4.27 42.402 10.621"/><path d="M184.214 149.233q5.388-17.76 10.775-35.521-24.43-7.41-49.469-12.391-3.621 18.203-7.242 36.406 23.25 4.625 45.936 11.506"/><path d="M194.99 113.713q5.388-17.76 10.775-35.521-26.175-7.939-53.003-13.276-3.621 18.203-7.242 36.406 25.039 4.981 49.469 12.391"/><path d="M205.765 78.192q5.388-17.76 10.775-35.521-27.92-8.469-56.536-14.162-3.621 18.203-7.242 36.406 26.827 5.337 53.003 13.276M102.071 319.755q3.621-18.203 7.242-36.406-16.097-3.201-32.429-4.81-1.819 18.47-3.638 36.94 14.518 1.43 28.826 4.276"/><path d="M109.313 283.35q3.621-18.203 7.242-36.406-17.885-3.557-36.032-5.345-1.819 18.47-3.638 36.94 16.333 1.609 32.429 4.81"/><path d="M116.554 246.944q3.621-18.203 7.242-36.406-19.674-3.913-39.636-5.879-1.819 18.47-3.638 36.94 18.147 1.788 36.032 5.345"/><path d="M123.796 210.538q3.621-18.203 7.242-36.406-21.462-4.268-43.239-6.414-1.819 18.47-3.638 36.94 19.962 1.967 39.636 5.879"/><path d="M131.037 174.133q3.621-18.203 7.242-36.406-23.251-4.624-46.842-6.948-1.819 18.47-3.638 36.94 21.777 2.145 43.239 6.414"/><path d="M138.279 137.727q3.621-18.203 7.242-36.406-25.039-4.98-50.445-7.483-1.819 18.47-3.638 36.94 23.592 2.324 46.842 6.948"/><path d="M145.52 101.321q3.621-18.203 7.242-36.406-26.828-5.336-54.049-8.017-1.819 18.47-3.638 36.94 25.406 2.503 50.445 7.483"/><path d="M152.762 64.916q3.621-18.203 7.242-36.406-28.616-5.691-57.652-8.552-1.819 18.47-3.638 36.94 27.221 2.682 54.049 8.017M73.245 315.479q1.819-18.47 3.638-36.94-16.333-1.608-32.745-1.609 0 18.559 0 37.119 14.588 0 29.106 1.43"/><path d="M76.884 278.539q1.819-18.47 3.638-36.94-18.148-1.787-36.383-1.787 0 18.559 0 37.119 16.412 0 32.745 1.609"/><path d="M80.522 241.599q1.819-18.47 3.638-36.94-19.962-1.966-40.021-1.966 0 18.559 0 37.119 18.235.001 36.383 1.787"/><path d="M84.16 204.659q1.819-18.47 3.638-36.94-21.777-2.144-43.659-2.145 0 18.559 0 37.119 20.059.001 40.021 1.966"/><path d="M87.798 167.719q1.819-18.47 3.638-36.94-23.592-2.323-47.298-2.324 0 18.559 0 37.119 21.882.001 43.659 2.145"/><path d="M91.437 130.779q1.819-18.47 3.638-36.94-25.407-2.502-50.936-2.502 0 18.559 0 37.119 23.706.001 47.298 2.324"/><path d="M95.075 93.838q1.819-18.47 3.638-36.94-27.221-2.68-54.574-2.681 0 18.559 0 37.119 25.529.001 50.936 2.502"/><path d="M98.713 56.898q1.819-18.47 3.638-36.94-29.036-2.859-58.213-2.86 0 18.559 0 37.119 27.353.001 54.574 2.681"/></g><defs><path id="A" d="M0 0v3.5" class="B C"/></defs><use xlink:href="#A" x="44.139" y="620.899" class="B C"/><g transform="matrix(.1 0 0 -.1 40.95774 635.497068)"><defs><path id="B" d="M2034 4250q-487 0-733-480-245-479-245-1442 0-959 245-1439 246-480 733-480 491 0 736 480 246 480 246 1439 0 963-246 1442-245 480-736 480zm0 500q785 0 1199-621 414-620 414-1801 0-1178-414-1799Q2819-91 2034-91q-784 0-1198 620-414 621-414 1799 0 1181 414 1801 414 621 1198 621z" transform="scale(.015625)"/></defs><use xlink:href="#B"/></g><use xlink:href="#A" x="143.123" y="620.899" class="B C"/><g transform="matrix(.1 0 0 -.1 139.94139 635.497068)"><defs><path id="C" d="M794 531h1031v3560L703 3866v575l1116 225h631V531h1031V0H794v531z" transform="scale(.015625)"/></defs><use xlink:href="#C"/></g><use xlink:href="#A" x="242.106" y="620.899" class="B C"/><g transform="matrix(.1 0 0 -.1 238.92504 635.497068)"><defs><path id="D" d="M1228 531h2203V0H469v531q359 372 979 998 621 627 780 809 303 340 423 576 121 236 121 464 0 372-261 606-261 235-680 235-297 0-627-103-329-103-704-313v638q381 153 712 231 332 78 607 78 725 0 1156-363 431-362 431-968 0-288-108-546-107-257-392-607-78-91-497-524-418-433-1181-1211z" transform="scale(.015625)"/></defs><use xlink:href="#D"/></g><use xlink:href="#A" x="341.09" y="620.899" class="B C"/><g transform="matrix(.1 0 0 -.1 337.90869 635.497068)"><defs><path id="E" d="M2597 2516q453-97 707-404 255-306 255-756 0-690-475-1069Q2609-91 1734-91q-293 0-604 58-311 58-642 174v609q262-153 574-231 313-78 654-78 593 0 904 234 311 234 311 681 0 413-289 645-289 233-804 233h-544v519h569q465 0 712 186 247 186 247 536 0 359-255 551-254 193-729 193-260 0-557-57-297-56-653-174v562q360 100 674 150 314 50 592 50 719 0 1137-327 419-326 419-882 0-388-222-655-222-267-631-370z" transform="scale(.015625)"/></defs><use xlink:href="#E"/></g><use xlink:href="#A" x="440.074" y="620.899" class="B C"/><g transform="matrix(.1 0 0 -.1 436.89234 635.497068)"><defs><path id="F" d="M2419 4116L825 1625h1594v2491zm-166 550h794V1625h666v-525h-666V0h-628v1100H313v609l1940 2957z" transform="scale(.015625)"/></defs><use xlink:href="#F"/></g><use xlink:href="#A" x="539.057" y="620.899" class="B C"/><g transform="matrix(.1 0 0 -.1 535.87599 635.497068)"><defs><path id="G" d="M691 4666h2478v-532H1269V2991q137 47 274 70 138 23 276 23 781 0 1237-428 457-428 457-1159 0-753-469-1171Q2575-91 1722-91q-294 0-599 50Q819 9 494 109v635q281-153 581-228 300-75 634-75 541 0 856 284 316 284 316 772 0 487-316 771-315 285-856 285-253 0-505-56-251-56-513-175v2344z" transform="scale(.015625)"/></defs><use xlink:href="#G"/></g><use xlink:href="#A" x="638.041" y="620.899" class="B C"/><g transform="matrix(.1 0 0 -.1 634.85964 635.497068)"><defs><path id="H" d="M2113 2584q-425 0-674-291-248-290-248-796 0-503 248-796 249-292 674-292 425 0 673 292 248 293 248 796 0 506-248 796-248 291-673 291zm1253 1979v-575q-238 112-480 171-242 60-480 60-625 0-955-422-329-422-376-1275 184 272 462 417 279 145 613 145 703 0 1111-427 408-426 408-1160 0-719-425-1154Q2819-91 2113-91q-810 0-1238 620-428 621-428 1799 0 1106 525 1764 525 658 1409 658 238 0 480-47 242-47 505-140z" transform="scale(.015625)"/></defs><use xlink:href="#H"/></g><g transform="matrix(.1 0 0 -.1 338.130565 649.175193)"><defs><path id="I" d="M3513 3500L2247 1797 3578 0h-678L1881 1375 863 0H184l1360 1831L300 3500h678l928-1247 928 1247h679z" transform="scale(.015625)"/></defs><use xlink:href="#I"/></g><defs><path id="J" d="M0 0h-3.5" class="B C"/></defs><use xlink:href="#J" x="34.241" y="611" class="B C"/><use xlink:href="#B" transform="matrix(.1 0 0 -.1 20.878125 614.799484)"/><use xlink:href="#J" x="34.241" y="512.017" class="B C"/><use xlink:href="#C" transform="matrix(.1 0 0 -.1 20.878125 515.815834)"/><use xlink:href="#J" x="34.241" y="413.033" class="B C"/><use xlink:href="#D" transform="matrix(.1 0 0 -.1 20.878125 416.832184)"/><use xlink:href="#J" x="34.241" y="314.049" class="B C"/><use xlink:href="#E" transform="matrix(.1 0 0 -.1 20.878125 317.848534)"/><use xlink:href="#J" x="34.241" y="215.066" class="B C"/><use xlink:href="#F" transform="matrix(.1 0 0 -.1 20.878125 218.864884)"/><use xlink:href="#J" x="34.241" y="116.082" class="B C"/><use xlink:href="#G" transform="matrix(.1 0 0 -.1 20.878125 119.881234)"/><use xlink:href="#J" x="34.241" y="17.098" class="B C"/><use xlink:href="#H" transform="matrix(.1 0 0 -.1 20.878125 20.897584)"/><g transform="matrix(0 -.1 -.1 0 14.798438 317.00869)"><defs><path id="K" d="M2059-325q-243-625-475-815-231-191-618-191H506v481h338q237 0 368 113 132 112 291 531l103 262L191 3500h609L1894 763l1094 2737h609L2059-325z" transform="scale(.015625)"/></defs><use xlink:href="#K"/></g><defs><path id="L" d="M0 3a3 3 0 0 0 2.121-.879A3 3 0 0 0 3 0a3 3 0 0 0-.879-2.121A3 3 0 0 0 0-3a3 3 0 0 0-2.121.879A3 3 0 0 0-3 0a3 3 0 0 0 .879 2.121A3 3 0 0 0 0 3z" stroke="#fff"/></defs><g stroke="#fff"><use xlink:href="#L" x="341.09" y="611"/><use xlink:href="#L" x="378.209" y="611"/><use xlink:href="#L" x="376.6" y="578.256"/><use xlink:href="#L" x="339.66" y="581.894"/><use xlink:href="#L" x="359.649" y="611"/><use xlink:href="#L" x="377.806" y="594.608"/><use xlink:href="#L" x="358.13" y="580.075"/><use xlink:href="#L" x="340.732" y="596.43"/><use xlink:href="#L" x="359.269" y="595.519"/><use xlink:href="#L" x="415.328" y="611"/><use xlink:href="#L" x="413.54" y="574.617"/><use xlink:href="#L" x="396.768" y="611"/><use xlink:href="#L" x="414.881" y="592.787"/><use xlink:href="#L" x="395.07" y="576.437"/><use xlink:href="#L" x="396.343" y="593.698"/><use xlink:href="#L" x="452.447" y="611"/><use xlink:href="#L" x="450.48" y="570.979"/><use xlink:href="#L" x="433.887" y="611"/><use xlink:href="#L" x="451.955" y="590.966"/><use xlink:href="#L" x="432.01" y="572.798"/><use xlink:href="#L" x="433.418" y="591.876"/><use xlink:href="#L" x="489.565" y="611"/><use xlink:href="#L" x="487.421" y="567.341"/><use xlink:href="#L" x="471.006" y="611"/><use xlink:href="#L" x="489.029" y="589.144"/><use xlink:href="#L" x="468.95" y="569.16"/><use xlink:href="#L" x="470.492" y="590.055"/><use xlink:href="#L" x="526.684" y="611"/><use xlink:href="#L" x="524.361" y="563.703"/><use xlink:href="#L" x="508.125" y="611"/><use xlink:href="#L" x="526.103" y="587.323"/><use xlink:href="#L" x="505.891" y="565.522"/><use xlink:href="#L" x="507.566" y="588.234"/><use xlink:href="#L" x="563.803" y="611"/><use xlink:href="#L" x="561.301" y="560.064"/><use xlink:href="#L" x="545.244" y="611"/><use xlink:href="#L" x="563.177" y="585.502"/><use xlink:href="#L" x="542.831" y="561.883"/><use xlink:href="#L" x="544.64" y="586.412"/><use xlink:href="#L" x="600.922" y="611"/><use xlink:href="#L" x="598.241" y="556.426"/><use xlink:href="#L" x="582.363" y="611"/><use xlink:href="#L" x="600.251" y="583.68"/><use xlink:href="#L" x="579.771" y="558.245"/><use xlink:href="#L" x="581.714" y="584.591"/><use xlink:href="#L" x="638.041" y="611"/><use xlink:href="#L" x="635.181" y="552.788"/><use xlink:href="#L" x="619.481" y="611"/><use xlink:href="#L" x="637.326" y="581.859"/><use xlink:href="#L" x="616.711" y="554.607"/><use xlink:href="#L" x="618.788" y="582.77"/><use xlink:href="#L" x="371.79" y="545.826"/><use xlink:href="#L" x="335.384" y="553.068"/><use xlink:href="#L" x="374.593" y="561.982"/><use xlink:href="#L" x="353.587" y="549.447"/><use xlink:href="#L" x="337.876" y="567.429"/><use xlink:href="#L" x="356.234" y="564.705"/><use xlink:href="#L" x="408.195" y="538.585"/><use xlink:href="#L" x="411.31" y="556.536"/><use xlink:href="#L" x="389.993" y="542.206"/><use xlink:href="#L" x="392.952" y="559.259"/><use xlink:href="#L" x="444.601" y="531.343"/><use xlink:href="#L" x="448.027" y="551.089"/><use xlink:href="#L" x="426.398" y="534.964"/><use xlink:href="#L" x="429.669" y="553.812"/><use xlink:href="#L" x="481.007" y="524.102"/><use xlink:href="#L" x="484.744" y="545.643"/><use xlink:href="#L" x="462.804" y="527.723"/><use xlink:href="#L" x="466.386" y="548.366"/><use xlink:href="#L" x="517.412" y="516.86"/><use xlink:href="#L" x="521.461" y="540.196"/><use xlink:href="#L" x="499.209" y="520.481"/><use xlink:href="#L" x="503.103" y="542.919"/><use xlink:href="#L" x="553.818" y="509.619"/><use xlink:href="#L" x="558.179" y="534.75"/><use xlink:href="#L" x="535.615" y="513.24"/><use xlink:href="#L" x="539.82" y="537.473"/><use xlink:href="#L" x="590.224" y="502.377"/><use xlink:href="#L" x="594.896" y="529.303"/><use xlink:href="#L" x="572.021" y="505.998"/><use xlink:href="#L" x="576.537" y="532.026"/><use xlink:href="#L" x="626.629" y="495.136"/><use xlink:href="#L" x="631.613" y="523.857"/><use xlink:href="#L" x="608.426" y="498.757"/><use xlink:href="#L" x="613.254" y="526.58"/><use xlink:href="#L" x="363.824" y="514.025"/><use xlink:href="#L" x="328.303" y="524.8"/><use xlink:href="#L" x="368.197" y="529.828"/><use xlink:href="#L" x="346.064" y="519.412"/><use xlink:href="#L" x="332.191" y="538.847"/><use xlink:href="#L" x="350.194" y="534.337"/><use xlink:href="#L" x="399.344" y="503.25"/><use xlink:href="#L" x="404.204" y="520.809"/><use xlink:href="#L" x="381.584" y="508.637"/><use xlink:href="#L" x="386.2" y="525.318"/><use xlink:href="#L" x="434.865" y="492.475"/><use xlink:href="#L" x="440.21" y="511.79"/><use xlink:href="#L" x="417.105" y="497.862"/><use xlink:href="#L" x="422.207" y="516.299"/><use xlink:href="#L" x="470.386" y="481.7"/><use xlink:href="#L" x="476.217" y="502.77"/><use xlink:href="#L" x="452.625" y="487.087"/><use xlink:href="#L" x="458.213" y="507.28"/><use xlink:href="#L" x="505.906" y="470.925"/><use xlink:href="#L" x="512.223" y="493.751"/><use xlink:href="#L" x="488.146" y="476.312"/><use xlink:href="#L" x="494.22" y="498.261"/><use xlink:href="#L" x="541.427" y="460.15"/><use xlink:href="#L" x="548.229" y="484.732"/><use xlink:href="#L" x="523.666" y="465.537"/><use xlink:href="#L" x="530.226" y="489.242"/><use xlink:href="#L" x="576.947" y="449.375"/><use xlink:href="#L" x="584.236" y="475.713"/><use xlink:href="#L" x="559.187" y="454.762"/><use xlink:href="#L" x="566.233" y="480.223"/><use xlink:href="#L" x="612.468" y="438.6"/><use xlink:href="#L" x="620.242" y="466.694"/><use xlink:href="#L" x="594.707" y="443.987"/><use xlink:href="#L" x="602.239" y="471.203"/><use xlink:href="#L" x="352.779" y="483.157"/><use xlink:href="#L" x="318.486" y="497.362"/><use xlink:href="#L" x="358.68" y="498.456"/><use xlink:href="#L" x="335.633" y="490.26"/><use xlink:href="#L" x="323.731" y="510.961"/><use xlink:href="#L" x="341.206" y="504.708"/><use xlink:href="#L" x="387.073" y="468.953"/><use xlink:href="#L" x="393.629" y="485.951"/><use xlink:href="#L" x="369.926" y="476.055"/><use xlink:href="#L" x="376.155" y="492.203"/><use xlink:href="#L" x="421.366" y="454.748"/><use xlink:href="#L" x="428.579" y="473.446"/><use xlink:href="#L" x="404.219" y="461.85"/><use xlink:href="#L" x="411.104" y="479.698"/><use xlink:href="#L" x="455.659" y="440.543"/><use xlink:href="#L" x="463.528" y="460.941"/><use xlink:href="#L" x="438.513" y="447.645"/><use xlink:href="#L" x="446.053" y="467.193"/><use xlink:href="#L" x="489.953" y="426.338"/><use xlink:href="#L" x="498.477" y="448.436"/><use xlink:href="#L" x="472.806" y="433.441"/><use xlink:href="#L" x="481.002" y="454.688"/><use xlink:href="#L" x="524.246" y="412.133"/><use xlink:href="#L" x="533.426" y="435.931"/><use xlink:href="#L" x="507.099" y="419.236"/><use xlink:href="#L" x="515.951" y="442.183"/><use xlink:href="#L" x="558.539" y="397.929"/><use xlink:href="#L" x="568.375" y="423.426"/><use xlink:href="#L" x="541.393" y="405.031"/><use xlink:href="#L" x="550.9" y="429.678"/><use xlink:href="#L" x="592.833" y="383.724"/><use xlink:href="#L" x="603.324" y="410.921"/><use xlink:href="#L" x="575.686" y="390.826"/><use xlink:href="#L" x="585.849" y="417.173"/><use xlink:href="#L" x="338.762" y="453.521"/><use xlink:href="#L" x="306.026" y="471.019"/><use xlink:href="#L" x="346.135" y="468.167"/><use xlink:href="#L" x="322.394" y="462.27"/><use xlink:href="#L" x="312.579" y="484.037"/><use xlink:href="#L" x="329.357" y="476.102"/><use xlink:href="#L" x="371.498" y="436.023"/><use xlink:href="#L" x="379.69" y="452.297"/><use xlink:href="#L" x="355.13" y="444.772"/><use xlink:href="#L" x="362.912" y="460.232"/><use xlink:href="#L" x="404.234" y="418.525"/><use xlink:href="#L" x="413.245" y="436.426"/><use xlink:href="#L" x="387.866" y="427.274"/><use xlink:href="#L" x="396.467" y="444.361"/><use xlink:href="#L" x="436.97" y="401.028"/><use xlink:href="#L" x="446.8" y="420.556"/><use xlink:href="#L" x="420.602" y="409.777"/><use xlink:href="#L" x="430.022" y="428.491"/><use xlink:href="#L" x="469.706" y="383.53"/><use xlink:href="#L" x="480.355" y="404.686"/><use xlink:href="#L" x="453.338" y="392.279"/><use xlink:href="#L" x="463.577" y="412.621"/><use xlink:href="#L" x="502.442" y="366.032"/><use xlink:href="#L" x="513.91" y="388.815"/><use xlink:href="#L" x="486.074" y="374.781"/><use xlink:href="#L" x="497.132" y="396.75"/><use xlink:href="#L" x="535.178" y="348.535"/><use xlink:href="#L" x="547.465" y="372.945"/><use xlink:href="#L" x="518.81" y="357.283"/><use xlink:href="#L" x="530.687" y="380.88"/><use xlink:href="#L" x="567.914" y="331.037"/><use xlink:href="#L" x="581.02" y="357.074"/><use xlink:href="#L" x="551.546" y="339.786"/><use xlink:href="#L" x="564.242" y="365.01"/><use xlink:href="#L" x="321.908" y="425.401"/><use xlink:href="#L" x="291.045" y="446.023"/><use xlink:href="#L" x="330.68" y="439.254"/><use xlink:href="#L" x="306.476" y="435.712"/><use xlink:href="#L" x="298.842" y="458.337"/><use xlink:href="#L" x="314.761" y="448.796"/><use xlink:href="#L" x="352.771" y="404.779"/><use xlink:href="#L" x="362.518" y="420.171"/><use xlink:href="#L" x="337.339" y="415.09"/><use xlink:href="#L" x="346.599" y="429.713"/><use xlink:href="#L" x="383.634" y="384.157"/><use xlink:href="#L" x="394.356" y="401.088"/><use xlink:href="#L" x="368.203" y="394.468"/><use xlink:href="#L" x="378.437" y="410.63"/><use xlink:href="#L" x="414.498" y="363.535"/><use xlink:href="#L" x="426.194" y="382.005"/><use xlink:href="#L" x="399.066" y="373.846"/><use xlink:href="#L" x="410.275" y="391.547"/><use xlink:href="#L" x="445.361" y="342.912"/><use xlink:href="#L" x="458.032" y="362.922"/><use xlink:href="#L" x="429.929" y="353.224"/><use xlink:href="#L" x="442.113" y="372.464"/><use xlink:href="#L" x="476.224" y="322.29"/><use xlink:href="#L" x="489.87" y="343.839"/><use xlink:href="#L" x="460.792" y="332.601"/><use xlink:href="#L" x="473.951" y="353.381"/><use xlink:href="#L" x="507.087" y="301.668"/><use xlink:href="#L" x="521.708" y="324.757"/><use xlink:href="#L" x="491.656" y="311.979"/><use xlink:href="#L" x="505.789" y="334.298"/><use xlink:href="#L" x="537.95" y="281.046"/><use xlink:href="#L" x="553.546" y="305.674"/><use xlink:href="#L" x="522.519" y="291.357"/><use xlink:href="#L" x="537.627" y="315.215"/><use xlink:href="#L" x="302.378" y="399.069"/><use xlink:href="#L" x="273.685" y="422.617"/><use xlink:href="#L" x="312.466" y="411.995"/><use xlink:href="#L" x="288.032" y="410.843"/><use xlink:href="#L" x="282.652" y="434.107"/><use xlink:href="#L" x="297.559" y="423.051"/><use xlink:href="#L" x="331.072" y="375.521"/><use xlink:href="#L" x="342.281" y="389.883"/><use xlink:href="#L" x="316.725" y="387.295"/><use xlink:href="#L" x="327.373" y="400.939"/><use xlink:href="#L" x="359.765" y="351.973"/><use xlink:href="#L" x="372.095" y="367.772"/><use xlink:href="#L" x="345.418" y="363.747"/><use xlink:href="#L" x="357.188" y="378.828"/><use xlink:href="#L" x="388.458" y="328.425"/><use xlink:href="#L" x="401.909" y="345.66"/><use xlink:href="#L" x="374.112" y="340.199"/><use xlink:href="#L" x="387.002" y="356.716"/><use xlink:href="#L" x="417.152" y="304.877"/><use xlink:href="#L" x="431.723" y="323.548"/><use xlink:href="#L" x="402.805" y="316.651"/><use xlink:href="#L" x="416.816" y="334.604"/><use xlink:href="#L" x="445.845" y="281.329"/><use xlink:href="#L" x="461.537" y="301.437"/><use xlink:href="#L" x="431.498" y="293.103"/><use xlink:href="#L" x="446.63" y="312.493"/><use xlink:href="#L" x="474.538" y="257.781"/><use xlink:href="#L" x="491.351" y="279.325"/><use xlink:href="#L" x="460.191" y="269.555"/><use xlink:href="#L" x="476.444" y="290.381"/><use xlink:href="#L" x="503.231" y="234.233"/><use xlink:href="#L" x="521.165" y="257.213"/><use xlink:href="#L" x="488.885" y="246.007"/><use xlink:href="#L" x="506.258" y="268.269"/><use xlink:href="#L" x="280.362" y="374.777"/><use xlink:href="#L" x="254.115" y="401.024"/><use xlink:href="#L" x="291.668" y="386.653"/><use xlink:href="#L" x="267.239" y="387.901"/><use xlink:href="#L" x="264.165" y="411.58"/><use xlink:href="#L" x="277.917" y="399.116"/><use xlink:href="#L" x="306.609" y="348.53"/><use xlink:href="#L" x="319.172" y="361.725"/><use xlink:href="#L" x="293.486" y="361.654"/><use xlink:href="#L" x="305.42" y="374.189"/><use xlink:href="#L" x="332.856" y="322.283"/><use xlink:href="#L" x="346.675" y="336.798"/><use xlink:href="#L" x="319.733" y="335.407"/><use xlink:href="#L" x="332.923" y="349.261"/><use xlink:href="#L" x="359.103" y="296.036"/><use xlink:href="#L" x="374.178" y="311.87"/><use xlink:href="#L" x="345.98" y="309.16"/><use xlink:href="#L" x="360.427" y="324.334"/><use xlink:href="#L" x="385.35" y="269.789"/><use xlink:href="#L" x="401.681" y="286.943"/><use xlink:href="#L" x="372.227" y="282.913"/><use xlink:href="#L" x="387.93" y="299.406"/><use xlink:href="#L" x="411.597" y="243.542"/><use xlink:href="#L" x="429.185" y="262.015"/><use xlink:href="#L" x="398.474" y="256.666"/><use xlink:href="#L" x="415.433" y="274.479"/><use xlink:href="#L" x="437.844" y="217.295"/><use xlink:href="#L" x="456.688" y="237.088"/><use xlink:href="#L" x="424.721" y="230.419"/><use xlink:href="#L" x="442.936" y="249.551"/><use xlink:href="#L" x="464.091" y="191.048"/><use xlink:href="#L" x="484.191" y="212.16"/><use xlink:href="#L" x="450.968" y="204.172"/><use xlink:href="#L" x="470.44" y="224.624"/><use xlink:href="#L" x="256.071" y="352.761"/><use xlink:href="#L" x="232.523" y="381.454"/><use xlink:href="#L" x="268.487" y="363.471"/><use xlink:href="#L" x="244.297" y="367.107"/><use xlink:href="#L" x="243.559" y="390.974"/><use xlink:href="#L" x="256.023" y="377.222"/><use xlink:href="#L" x="279.619" y="324.068"/><use xlink:href="#L" x="293.414" y="335.968"/><use xlink:href="#L" x="267.845" y="338.414"/><use xlink:href="#L" x="280.95" y="349.719"/><use xlink:href="#L" x="303.167" y="295.374"/><use xlink:href="#L" x="318.342" y="308.464"/><use xlink:href="#L" x="291.393" y="309.721"/><use xlink:href="#L" x="305.878" y="322.216"/><use xlink:href="#L" x="326.715" y="266.681"/><use xlink:href="#L" x="343.269" y="280.961"/><use xlink:href="#L" x="314.941" y="281.028"/><use xlink:href="#L" x="330.805" y="294.713"/><use xlink:href="#L" x="350.262" y="237.988"/><use xlink:href="#L" x="368.197" y="253.458"/><use xlink:href="#L" x="338.489" y="252.334"/><use xlink:href="#L" x="355.733" y="267.209"/><use xlink:href="#L" x="373.81" y="209.294"/><use xlink:href="#L" x="393.124" y="225.955"/><use xlink:href="#L" x="362.036" y="223.641"/><use xlink:href="#L" x="380.66" y="239.706"/><use xlink:href="#L" x="397.358" y="180.601"/><use xlink:href="#L" x="418.052" y="198.451"/><use xlink:href="#L" x="385.584" y="194.948"/><use xlink:href="#L" x="405.588" y="212.203"/><use xlink:href="#L" x="420.906" y="151.908"/><use xlink:href="#L" x="442.979" y="170.948"/><use xlink:href="#L" x="409.132" y="166.255"/><use xlink:href="#L" x="430.515" y="184.7"/><use xlink:href="#L" x="229.738" y="333.231"/><use xlink:href="#L" x="209.116" y="364.095"/><use xlink:href="#L" x="243.144" y="342.673"/><use xlink:href="#L" x="219.427" y="348.663"/><use xlink:href="#L" x="221.032" y="372.487"/><use xlink:href="#L" x="232.088" y="357.58"/><use xlink:href="#L" x="250.36" y="302.368"/><use xlink:href="#L" x="265.256" y="312.859"/><use xlink:href="#L" x="240.049" y="317.8"/><use xlink:href="#L" x="254.2" y="327.766"/><use xlink:href="#L" x="270.983" y="271.505"/><use xlink:href="#L" x="287.368" y="283.045"/><use xlink:href="#L" x="260.671" y="286.937"/><use xlink:href="#L" x="276.312" y="297.952"/><use xlink:href="#L" x="291.605" y="240.642"/><use xlink:href="#L" x="309.479" y="253.23"/><use xlink:href="#L" x="281.294" y="256.073"/><use xlink:href="#L" x="298.423" y="268.137"/><use xlink:href="#L" x="312.227" y="209.779"/><use xlink:href="#L" x="331.591" y="223.416"/><use xlink:href="#L" x="301.916" y="225.21"/><use xlink:href="#L" x="320.535" y="238.323"/><use xlink:href="#L" x="332.849" y="178.915"/><use xlink:href="#L" x="353.703" y="193.602"/><use xlink:href="#L" x="322.538" y="194.347"/><use xlink:href="#L" x="342.647" y="208.509"/><use xlink:href="#L" x="353.471" y="148.052"/><use xlink:href="#L" x="375.814" y="163.788"/><use xlink:href="#L" x="343.16" y="163.484"/><use xlink:href="#L" x="364.758" y="178.695"/><use xlink:href="#L" x="374.093" y="117.189"/><use xlink:href="#L" x="397.926" y="133.974"/><use xlink:href="#L" x="363.782" y="132.62"/><use xlink:href="#L" x="386.87" y="148.881"/><use xlink:href="#L" x="201.618" y="316.377"/><use xlink:href="#L" x="184.121" y="349.113"/><use xlink:href="#L" x="215.885" y="324.459"/><use xlink:href="#L" x="192.87" y="332.745"/><use xlink:href="#L" x="196.802" y="356.297"/><use xlink:href="#L" x="206.344" y="340.378"/><use xlink:href="#L" x="219.116" y="283.641"/><use xlink:href="#L" x="234.968" y="292.621"/><use xlink:href="#L" x="210.367" y="300.009"/><use xlink:href="#L" x="225.427" y="308.54"/><use xlink:href="#L" x="236.614" y="250.905"/><use xlink:href="#L" x="254.051" y="260.783"/><use xlink:href="#L" x="227.865" y="267.273"/><use xlink:href="#L" x="244.51" y="276.702"/><use xlink:href="#L" x="254.112" y="218.169"/><use xlink:href="#L" x="273.134" y="228.945"/><use xlink:href="#L" x="245.363" y="234.537"/><use xlink:href="#L" x="263.592" y="244.864"/><use xlink:href="#L" x="271.609" y="185.433"/><use xlink:href="#L" x="292.217" y="197.107"/><use xlink:href="#L" x="262.86" y="201.801"/><use xlink:href="#L" x="282.675" y="213.026"/><use xlink:href="#L" x="289.107" y="152.697"/><use xlink:href="#L" x="311.3" y="165.269"/><use xlink:href="#L" x="280.358" y="169.065"/><use xlink:href="#L" x="301.758" y="181.188"/><use xlink:href="#L" x="306.605" y="119.961"/><use xlink:href="#L" x="330.383" y="133.432"/><use xlink:href="#L" x="297.856" y="136.329"/><use xlink:href="#L" x="320.841" y="149.35"/><use xlink:href="#L" x="324.102" y="87.226"/><use xlink:href="#L" x="349.466" y="101.594"/><use xlink:href="#L" x="315.354" y="103.594"/><use xlink:href="#L" x="339.924" y="117.513"/><use xlink:href="#L" x="171.982" y="302.36"/><use xlink:href="#L" x="157.777" y="336.653"/><use xlink:href="#L" x="186.972" y="309.005"/><use xlink:href="#L" x="164.88" y="319.507"/><use xlink:href="#L" x="171.102" y="342.56"/><use xlink:href="#L" x="179.037" y="325.782"/><use xlink:href="#L" x="186.187" y="268.067"/><use xlink:href="#L" x="202.843" y="275.45"/><use xlink:href="#L" x="179.084" y="285.213"/><use xlink:href="#L" x="194.907" y="292.227"/><use xlink:href="#L" x="200.392" y="233.773"/><use xlink:href="#L" x="218.713" y="241.895"/><use xlink:href="#L" x="193.289" y="250.92"/><use xlink:href="#L" x="210.778" y="258.672"/><use xlink:href="#L" x="214.596" y="199.48"/><use xlink:href="#L" x="234.583" y="208.34"/><use xlink:href="#L" x="207.494" y="216.627"/><use xlink:href="#L" x="226.648" y="225.117"/><use xlink:href="#L" x="228.801" y="165.187"/><use xlink:href="#L" x="250.454" y="174.784"/><use xlink:href="#L" x="221.699" y="182.333"/><use xlink:href="#L" x="242.519" y="191.562"/><use xlink:href="#L" x="243.006" y="130.893"/><use xlink:href="#L" x="266.324" y="141.229"/><use xlink:href="#L" x="235.903" y="148.04"/><use xlink:href="#L" x="258.389" y="158.007"/><use xlink:href="#L" x="257.211" y="96.6"/><use xlink:href="#L" x="282.194" y="107.674"/><use xlink:href="#L" x="250.108" y="113.747"/><use xlink:href="#L" x="274.259" y="124.452"/><use xlink:href="#L" x="271.415" y="62.306"/><use xlink:href="#L" x="298.065" y="74.119"/><use xlink:href="#L" x="264.313" y="79.453"/><use xlink:href="#L" x="290.13" y="90.897"/><use xlink:href="#L" x="141.114" y="291.315"/><use xlink:href="#L" x="130.339" y="326.836"/><use xlink:href="#L" x="156.684" y="296.459"/><use xlink:href="#L" x="135.727" y="309.076"/><use xlink:href="#L" x="144.179" y="331.408"/><use xlink:href="#L" x="150.431" y="313.933"/><use xlink:href="#L" x="151.889" y="255.795"/><use xlink:href="#L" x="169.189" y="261.51"/><use xlink:href="#L" x="146.502" y="273.555"/><use xlink:href="#L" x="162.936" y="278.984"/><use xlink:href="#L" x="162.664" y="220.274"/><use xlink:href="#L" x="181.694" y="226.561"/><use xlink:href="#L" x="157.277" y="238.035"/><use xlink:href="#L" x="175.441" y="244.035"/><use xlink:href="#L" x="173.439" y="184.754"/><use xlink:href="#L" x="194.199" y="191.612"/><use xlink:href="#L" x="168.052" y="202.514"/><use xlink:href="#L" x="187.946" y="209.086"/><use xlink:href="#L" x="184.214" y="149.233"/><use xlink:href="#L" x="206.704" y="156.663"/><use xlink:href="#L" x="178.827" y="166.993"/><use xlink:href="#L" x="200.451" y="174.137"/><use xlink:href="#L" x="194.99" y="113.713"/><use xlink:href="#L" x="219.209" y="121.714"/><use xlink:href="#L" x="189.602" y="131.473"/><use xlink:href="#L" x="212.956" y="139.188"/><use xlink:href="#L" x="205.765" y="78.192"/><use xlink:href="#L" x="231.714" y="86.765"/><use xlink:href="#L" x="200.377" y="95.952"/><use xlink:href="#L" x="225.461" y="104.239"/><use xlink:href="#L" x="216.54" y="42.672"/><use xlink:href="#L" x="244.219" y="51.815"/><use xlink:href="#L" x="211.152" y="60.432"/><use xlink:href="#L" x="237.966" y="69.29"/><use xlink:href="#L" x="109.313" y="283.35"/><use xlink:href="#L" x="102.071" y="319.755"/><use xlink:href="#L" x="125.311" y="286.942"/><use xlink:href="#L" x="105.692" y="301.552"/><use xlink:href="#L" x="116.292" y="322.949"/><use xlink:href="#L" x="120.802" y="304.945"/><use xlink:href="#L" x="116.554" y="246.944"/><use xlink:href="#L" x="134.33" y="250.936"/><use xlink:href="#L" x="112.934" y="265.147"/><use xlink:href="#L" x="129.821" y="268.939"/><use xlink:href="#L" x="123.796" y="210.538"/><use xlink:href="#L" x="143.35" y="214.929"/><use xlink:href="#L" x="120.175" y="228.741"/><use xlink:href="#L" x="138.84" y="232.932"/><use xlink:href="#L" x="131.037" y="174.133"/><use xlink:href="#L" x="152.369" y="178.923"/><use xlink:href="#L" x="127.417" y="192.335"/><use xlink:href="#L" x="147.859" y="196.926"/><use xlink:href="#L" x="138.279" y="137.727"/><use xlink:href="#L" x="161.388" y="142.916"/><use xlink:href="#L" x="134.658" y="155.93"/><use xlink:href="#L" x="156.878" y="160.919"/><use xlink:href="#L" x="145.52" y="101.321"/><use xlink:href="#L" x="170.407" y="106.91"/><use xlink:href="#L" x="141.9" y="119.524"/><use xlink:href="#L" x="165.898" y="124.913"/><use xlink:href="#L" x="152.762" y="64.916"/><use xlink:href="#L" x="179.426" y="70.903"/><use xlink:href="#L" x="149.141" y="83.118"/><use xlink:href="#L" x="174.917" y="88.907"/><use xlink:href="#L" x="160.004" y="28.51"/><use xlink:href="#L" x="188.445" y="34.897"/><use xlink:href="#L" x="156.383" y="46.713"/><use xlink:href="#L" x="183.936" y="52.9"/><use xlink:href="#L" x="76.884" y="278.539"/><use xlink:href="#L" x="73.245" y="315.479"/><use xlink:href="#L" x="93.157" y="280.546"/><use xlink:href="#L" x="75.064" y="297.009"/><use xlink:href="#L" x="87.711" y="317.263"/><use xlink:href="#L" x="90.434" y="298.905"/><use xlink:href="#L" x="80.522" y="241.599"/><use xlink:href="#L" x="98.604" y="243.829"/><use xlink:href="#L" x="78.703" y="260.069"/><use xlink:href="#L" x="95.88" y="262.188"/><use xlink:href="#L" x="84.16" y="204.659"/><use xlink:href="#L" x="104.05" y="207.112"/><use xlink:href="#L" x="82.341" y="223.129"/><use xlink:href="#L" x="101.327" y="225.471"/><use xlink:href="#L" x="87.798" y="167.719"/><use xlink:href="#L" x="109.497" y="170.395"/><use xlink:href="#L" x="85.979" y="186.189"/><use xlink:href="#L" x="106.773" y="188.753"/><use xlink:href="#L" x="91.437" y="130.779"/><use xlink:href="#L" x="114.943" y="133.678"/><use xlink:href="#L" x="89.618" y="149.249"/><use xlink:href="#L" x="112.22" y="152.036"/><use xlink:href="#L" x="95.075" y="93.838"/><use xlink:href="#L" x="120.39" y="96.961"/><use xlink:href="#L" x="93.256" y="112.308"/><use xlink:href="#L" x="117.666" y="115.319"/><use xlink:href="#L" x="98.713" y="56.898"/><use xlink:href="#L" x="125.836" y="60.244"/><use xlink:href="#L" x="96.894" y="75.368"/><use xlink:href="#L" x="123.113" y="78.602"/><use xlink:href="#L" x="102.352" y="19.958"/><use xlink:href="#L" x="131.282" y="23.526"/><use xlink:href="#L" x="100.532" y="38.428"/><use xlink:href="#L" x="128.559" y="41.885"/><use xlink:href="#L" x="44.139" y="276.93"/><use xlink:href="#L" x="44.139" y="314.049"/><use xlink:href="#L" x="60.531" y="277.333"/><use xlink:href="#L" x="44.139" y="295.49"/><use xlink:href="#L" x="58.71" y="314.407"/><use xlink:href="#L" x="59.62" y="295.87"/><use xlink:href="#L" x="44.139" y="239.812"/><use xlink:href="#L" x="62.352" y="240.259"/><use xlink:href="#L" x="44.139" y="258.371"/><use xlink:href="#L" x="61.442" y="258.796"/><use xlink:href="#L" x="44.139" y="202.693"/><use xlink:href="#L" x="64.174" y="203.185"/><use xlink:href="#L" x="44.139" y="221.252"/><use xlink:href="#L" x="63.263" y="221.722"/><use xlink:href="#L" x="44.139" y="165.574"/><use xlink:href="#L" x="65.995" y="166.11"/><use xlink:href="#L" x="44.139" y="184.133"/><use xlink:href="#L" x="65.084" y="184.647"/><use xlink:href="#L" x="44.139" y="128.455"/><use xlink:href="#L" x="67.816" y="129.036"/><use xlink:href="#L" x="44.139" y="147.014"/><use xlink:href="#L" x="66.906" y="147.573"/><use xlink:href="#L" x="44.139" y="91.336"/><use xlink:href="#L" x="69.638" y="91.962"/><use xlink:href="#L" x="44.139" y="109.896"/><use xlink:href="#L" x="68.727" y="110.499"/><use xlink:href="#L" x="44.139" y="54.217"/><use xlink:href="#L" x="71.459" y="54.888"/><use xlink:href="#L" x="44.139" y="72.777"/><use xlink:href="#L" x="70.548" y="73.425"/><use xlink:href="#L" x="44.139" y="17.098"/><use xlink:href="#L" x="73.28" y="17.814"/><use xlink:href="#L" x="44.139" y="35.658"/><use xlink:href="#L" x="72.37" y="36.351"/></g><defs><path id="M" d="M0 5a5 5 0 0 0 3.536-1.464A5 5 0 0 0 5 0a5 5 0 0 0-1.464-3.536A5 5 0 0 0 0-5a5 5 0 0 0-3.536 1.464A5 5 0 0 0-5 0a5 5 0 0 0 1.464 3.536A5 5 0 0 0 0 5z" stroke="red"/></defs><g clip-path="url(#N)"><use xlink:href="#M" x="341.09" y="611" fill="red" stroke="red"/></g><g fill="none" stroke-linecap="square" class="B C"><path d="M34.241 620.899V7.2m613.698 613.699V7.2M34.241 620.899H647.94"/><path d="M34.241 7.2h613.699"/></g><defs><clipPath id="N"><path d="M34.241 7.2h613.699v613.699H34.241z"/></clipPath></defs></svg>