<svg xmlns="http://www.w3.org/2000/svg" xmlns:xlink="http://www.w3.org/1999/xlink" width="873.519" height="877.94" viewBox="0 0 655.139 658.455" xmlns:v="https://vecta.io/nano"><style><![CDATA[.B{stroke:#000}.C{stroke-width:.8}]]></style><g fill="#fff"><path d="M0 658.455h655.139V0H0z"/><path d="M34.241 620.899h613.699V7.2H34.241z"/></g><g fill="#e3f3ff" stroke="#0055d4" stroke-width="1.5"><path d="M341.09 611h37.119l-1.609-32.745-36.94 3.638L341.09 611"/><path d="M378.209 611h37.119l-1.787-36.383-36.94 3.638L378.209 611"/><path d="M415.328 611h37.119l-1.966-40.021-36.94 3.638L415.328 611"/><path d="M452.447 611h37.119l-2.145-43.659-36.94 3.638L452.447 611"/><path d="M489.565 611h37.119l-2.324-47.298-36.94 3.638L489.565 611"/><path d="M526.684 611h37.119l-2.502-50.936-36.94 3.638L526.684 611"/><path d="M563.803 611h37.119l-2.681-54.574-36.94 3.638L563.803 611"/><path d="M600.922 611h37.119l-2.86-58.213-36.94 3.638L600.922 611M339.66 581.894l36.94-3.638-4.81-32.429-36.406 7.242 4.276 28.826"/><path d="M376.6 578.256l36.94-3.638-5.345-36.032-36.406 7.242 4.81 32.429"/><path d="M413.54 574.617l36.94-3.638-5.879-39.636-36.406 7.242 5.345 36.032"/><path d="M450.48 570.979l36.94-3.638-6.414-43.239-36.406 7.242 5.879 39.636"/><path d="M487.421 567.341l36.94-3.638-6.948-46.842-36.406 7.242 6.414 43.239"/><path d="M524.361 563.703l36.94-3.638-7.483-50.445-36.406 7.242 6.948 46.842"/><path d="M561.301 560.064l36.94-3.638-8.017-54.049-36.406 7.242 7.483 50.445"/><path d="M598.241 556.426l36.94-3.638-8.552-57.652-36.406 7.242 8.017 54.049m-262.856-3.359l36.406-7.242-7.966-31.802-35.521 10.775 7.081 28.268"/><path d="M371.79 545.826l36.406-7.242-8.851-35.335-35.521 10.775 7.966 31.802"/><path d="M408.195 538.585l36.406-7.242-9.736-38.869-35.521 10.775 8.851 35.335"/><path d="M444.601 531.343l36.406-7.242-10.621-42.402-35.521 10.775 9.736 38.869"/><path d="M481.007 524.102l36.406-7.242-11.506-45.936-35.521 10.775 10.621 42.402"/><path d="M517.412 516.86l36.406-7.242-12.391-49.469-35.521 10.775 11.506 45.936"/><path d="M553.818 509.619l36.406-7.242-13.276-53.003-35.521 10.775 12.391 49.469"/><path d="M590.224 502.377l36.406-7.242-14.162-56.536-35.521 10.775 13.276 53.003M328.303 524.8l35.521-10.775-11.045-30.868-34.293 14.205 9.817 27.438"/><path d="M363.824 514.025l35.521-10.775-12.272-34.297-34.293 14.205 11.045 30.868"/><path d="M399.344 503.25l35.521-10.775-13.499-37.727-34.293 14.205 12.272 34.297"/><path d="M434.865 492.475l35.521-10.775-14.726-41.157-34.293 14.205 13.499 37.727"/><path d="M470.386 481.7l35.521-10.775-15.953-44.587-34.293 14.205 14.726 41.157"/><path d="M505.906 470.925l35.521-10.775-17.181-48.016-34.293 14.205 15.953 44.587"/><path d="M541.427 460.15l35.521-10.775-18.408-51.446-34.293 14.205 17.181 48.016"/><path d="M576.947 449.375l35.521-10.775-19.635-54.876-34.293 14.205 18.408 51.446m-258.462 47.987l34.293-14.205-14.017-29.636-32.736 17.498 12.46 26.344"/><path d="M352.779 483.157l34.293-14.205-15.574-32.929-32.736 17.498 14.017 29.636"/><path d="M387.073 468.953l34.293-14.205-17.132-36.222-32.736 17.498 15.574 32.929"/><path d="M421.366 454.748l34.293-14.205-18.689-39.515-32.736 17.498 17.132 36.222"/><path d="M455.659 440.543l34.293-14.205-20.247-42.808-32.736 17.498 18.689 39.515"/><path d="M489.953 426.338l34.293-14.205-21.804-46.101-32.736 17.498 20.247 42.808"/><path d="M524.246 412.133l34.293-14.205-23.362-49.394-32.736 17.498 21.804 46.101"/><path d="M558.539 397.929l34.293-14.205-24.919-52.687-32.736 17.498 23.362 49.394m-252.513 73.09l32.736-17.498-16.854-28.12-30.863 20.622 14.982 24.995"/><path d="M338.762 453.521l32.736-17.498-18.727-31.244-30.863 20.622 16.854 28.12"/><path d="M371.498 436.023l32.736-17.498-20.6-34.369-30.863 20.622 18.727 31.244"/><path d="M404.234 418.525l32.736-17.498-22.472-37.493-30.863 20.622 20.6 34.369"/><path d="M436.97 401.028l32.736-17.498-24.345-40.618-30.863 20.622 22.472 37.493"/><path d="M469.706 383.53l32.736-17.498-26.218-43.742-30.863 20.622 24.345 40.618"/><path d="M502.442 366.032l32.736-17.498-28.091-46.866-30.863 20.622 26.218 43.742"/><path d="M535.178 348.535l32.736-17.498-29.963-49.991-30.863 20.622 28.091 46.866m-244.134 97.489l30.863-20.622-19.529-26.332-28.693 23.548 17.36 23.407"/><path d="M321.908 425.401l30.863-20.622-21.699-29.258-28.693 23.548 19.529 26.332"/><path d="M352.771 404.779l30.863-20.622-23.869-32.184-28.693 23.548 21.699 29.258"/><path d="M383.634 384.157l30.863-20.622-26.039-35.11-28.693 23.548 23.869 32.184"/><path d="M414.498 363.535l30.863-20.622-28.209-38.036-28.693 23.548 26.039 35.11"/><path d="M445.361 342.912l30.863-20.622-30.379-40.962-28.693 23.548 28.209 38.036"/><path d="M476.224 322.29l30.863-20.622-32.549-43.887-28.693 23.548 30.379 40.962"/><path d="M507.087 301.668l30.863-20.622-34.719-46.813-28.693 23.548 32.549 43.887M273.685 422.617l28.693-23.548-22.016-24.291-26.247 26.247 19.57 21.592"/><path d="M302.378 399.069l28.693-23.548-24.463-26.99-26.247 26.247 22.016 24.291"/><path d="M331.072 375.521l28.693-23.548-26.909-29.689-26.247 26.247 24.463 26.99"/><path d="M359.765 351.973l28.693-23.548-29.355-32.389-26.247 26.247 26.909 29.689"/><path d="M388.458 328.425l28.693-23.548-31.802-35.088-26.247 26.247 29.355 32.389"/><path d="M417.152 304.877l28.693-23.548-34.248-37.787-26.247 26.247 31.802 35.088"/><path d="M445.845 281.329l28.693-23.548-36.694-40.486-26.247 26.247 34.248 37.787"/><path d="M474.538 257.781l28.693-23.548-39.14-43.185-26.247 26.247 36.694 40.486M254.115 401.024l26.247-26.247-24.291-22.016-23.548 28.693 21.592 19.57"/><path d="M280.362 374.777l26.247-26.247-26.99-24.463-23.548 28.693 24.291 22.016"/><path d="M306.609 348.53l26.247-26.247-29.689-26.909-23.548 28.693 26.99 24.463"/><path d="M332.856 322.283l26.247-26.247-32.389-29.355-23.548 28.693 29.689 26.909"/><path d="M359.103 296.036l26.247-26.247-35.088-31.802-23.548 28.693 32.389 29.355"/><path d="M385.35 269.789l26.247-26.247-37.787-34.248-23.548 28.693 35.088 31.802"/><path d="M411.597 243.542l26.247-26.247-40.486-36.694-23.548 28.693 37.787 34.248"/><path d="M437.844 217.295l26.247-26.247-43.185-39.14-23.548 28.693 40.486 36.694M232.523 381.454l23.548-28.693-26.332-19.529-20.622 30.863 23.407 17.36"/><path d="M256.071 352.761l23.548-28.693-29.258-21.699-20.622 30.863 26.332 19.529"/><path d="M279.619 324.068l23.548-28.693-32.184-23.869-20.622 30.863 29.258 21.699"/><path d="M303.167 295.374l23.548-28.693-35.11-26.039-20.622 30.863 32.184 23.869"/><path d="M326.715 266.681l23.548-28.693-38.036-28.209-20.622 30.863 35.11 26.039"/><path d="M350.262 237.988l23.548-28.693-40.962-30.379-20.622 30.863 38.036 28.209"/><path d="M373.81 209.294l23.548-28.693-43.887-32.549-20.622 30.863 40.962 30.379"/><path d="M397.358 180.601l23.548-28.693-46.813-34.719-20.622 30.863 43.887 32.549M209.116 364.095l20.622-30.863-28.12-16.854-17.498 32.736 24.995 14.982"/><path d="M229.738 333.231l20.622-30.863-31.244-18.727-17.498 32.736 28.12 16.854"/><path d="M250.36 302.368l20.622-30.863-34.369-20.6-17.498 32.736 31.244 18.727"/><path d="M270.983 271.505l20.622-30.863-37.493-22.472-17.498 32.736 34.369 20.6"/><path d="M291.605 240.642l20.622-30.863-40.618-24.345-17.498 32.736 37.493 22.472"/><path d="M312.227 209.779l20.622-30.863-43.742-26.218-17.498 32.736 40.618 24.345"/><path d="M332.849 178.915l20.622-30.863-46.866-28.091-17.498 32.736 43.742 26.218"/><path d="M353.471 148.052l20.622-30.863-49.991-29.963-17.498 32.736 46.866 28.091m-169.349 201.06l17.498-32.736-29.636-14.017-14.205 34.293 26.344 12.46"/><path d="M201.618 316.377l17.498-32.736-32.929-15.574-14.205 34.293 29.636 14.017"/><path d="M219.116 283.641l17.498-32.736-36.222-17.132-14.205 34.293 32.929 15.574"/><path d="M236.614 250.905l17.498-32.736-39.515-18.689-14.205 34.293 36.222 17.132"/><path d="M254.112 218.169l17.498-32.736-42.808-20.247-14.205 34.293 39.515 18.689"/><path d="M271.609 185.433l17.498-32.736-46.101-21.804-14.205 34.293 42.808 20.247"/><path d="M289.107 152.697l17.498-32.736L257.211 96.6l-14.205 34.293 46.101 21.804"/><path d="M306.605 119.961l17.498-32.736-52.687-24.919L257.211 96.6l49.394 23.362M157.777 336.653l14.205-34.293-30.868-11.045-10.775 35.521 27.438 9.817"/><path d="M171.982 302.36l14.205-34.293-34.297-12.272-10.775 35.521 30.868 11.045"/><path d="M186.187 268.067l14.205-34.293-37.727-13.499-10.775 35.521 34.297 12.272"/><path d="M200.392 233.773l14.205-34.293-41.157-14.726-10.775 35.521 37.727 13.499"/><path d="M214.596 199.48l14.205-34.293-44.587-15.953-10.775 35.521 41.157 14.726"/><path d="M228.801 165.187l14.205-34.293-48.016-17.181-10.775 35.521 44.587 15.953"/><path d="M243.006 130.893L257.211 96.6l-51.446-18.408-10.775 35.521 48.016 17.181"/><path d="M257.211 96.6l14.205-34.293-54.876-19.635-10.775 35.521L257.211 96.6M130.339 326.836l10.775-35.521-31.802-7.966-7.242 36.406 28.268 7.081"/><path d="M141.114 291.315l10.775-35.521-35.335-8.851-7.242 36.406 31.802 7.966"/><path d="M151.889 255.795l10.775-35.521-38.869-9.736-7.242 36.406 35.335 8.851"/><path d="M162.664 220.274l10.775-35.521-42.402-10.621-7.242 36.406 38.869 9.736"/><path d="M173.439 184.754l10.775-35.521-45.936-11.506-7.242 36.406 42.402 10.621"/><path d="M184.214 149.233l10.775-35.521-49.469-12.391-7.242 36.406 45.936 11.506"/><path d="M194.99 113.713l10.775-35.521-53.003-13.276-7.242 36.406 49.469 12.391"/><path d="M205.765 78.192l10.775-35.521-56.536-14.162-7.242 36.406 53.003 13.276M102.071 319.755l7.242-36.406-32.429-4.81-3.638 36.94 28.826 4.276"/><path d="M109.313 283.35l7.242-36.406-36.032-5.345-3.638 36.94 32.429 4.81"/><path d="M116.554 246.944l7.242-36.406-39.636-5.879-3.638 36.94 36.032 5.345"/><path d="M123.796 210.538l7.242-36.406-43.239-6.414-3.638 36.94 39.636 5.879"/><path d="M131.037 174.133l7.242-36.406-46.842-6.948-3.638 36.94 43.239 6.414"/><path d="M138.279 137.727l7.242-36.406-50.445-7.483-3.638 36.94 46.842 6.948"/><path d="M145.52 101.321l7.242-36.406-54.049-8.017-3.638 36.94 50.445 7.483"/><path d="M152.762 64.916l7.242-36.406-57.652-8.552-3.638 36.94 54.049 8.017M73.245 315.479l3.638-36.94-32.745-1.609v37.119l29.106 1.43"/><path d="M76.884 278.539l3.638-36.94-36.383-1.787v37.119l32.745 1.609"/><path d="M80.522 241.599l3.638-36.94-40.021-1.966v37.119l36.383 1.787"/><path d="M84.16 204.659l3.638-36.94-43.659-2.145v37.119l40.021 1.966"/><path d="M87.798 167.719l3.638-36.94-47.298-2.324v37.119l43.659 2.145"/><path d="M91.437 130.779l3.638-36.94-50.936-2.502v37.119l47.298 2.324"/><path d="M95.075 93.838l3.638-36.94-54.574-2.681v37.119l50.936 2.502"/><path d="M98.713 56.898l3.638-36.94-58.213-2.86v37.119l54.574 2.681"/></g><defs><path id="A" d="M0 0v3.5" class="B C"/></defs><use xlink:href="#A" x="44.139" y="620.899" class="B C"/><g transform="matrix(.1 0 0 -.1 40.95774 635.497068)"><defs><path id="B" d="M2034 4250q-487 0-733-480-245-479-245-1442 0-959 245-1439 246-480 733-480 491 0 736 480 246 480 246 1439 0 963-246 1442-245 480-736 480zm0 500q785 0 1199-621 414-620 414-1801 0-1178-414-1799Q2819-91 2034-91q-784 0-1198 620-414 621-414 1799 0 1181 414 1801 414 621 1198 621z" transform="scale(.015625)"/></defs><use xlink:href="#B"/></g><use xlink:href="#A" x="143.123" y="620.899" class="B C"/><g transform="matrix(.1 0 0 -.1 139.94139 635.497068)"><defs><path id="C" d="M794 531h1031v3560L703 3866v575l1116 225h631V531h1031V0H794v531z" transform="scale(.015625)"/></defs><use xlink:href="#C"/></g><use xlink:href="#A" x="242.106" y="620.899" class="B C"/><g transform="matrix(.1 0 0 -.1 238.92504 635.497068)"><defs><path id="D" d="M1228 531h2203V0H469v531q359 372 979 998 621 627 780 809 303 340 423 576 121 236 121 464 0 372-261 606-261 235-680 235-297 0-627-103-329-103-704-313v638q381 153 712 231 332 78 607 78 725 0 1156-363 431-362 431-968 0-288-108-546-107-257-392-607-78-91-497-524-418-433-1181-1211z" transform="scale(.015625)"/></defs><use xlink:href="#D"/></g><use xlink:href="#A" x="341.09" y="620.899" class="B C"/><g transform="matrix(.1 0 0 -.1 337.90869 635.497068)"><defs><path id="E" d="M2597 2516q453-97 707-404 255-306 255-756 0-690-475-1069Q2609-91 1734-91q-293 0-604 58-311 58-642 174v609q262-153 574-231 313-78 654-78 593 0 904 234 311 234 311 681 0 413-289 645-289 233-804 233h-544v519h569q465 0 712 186 247 186 247 536 0 359-255 551-254 193-729 193-260 0-557-57-297-56-653-174v562q360 100 674 150 314 50 592 50 719 0 1137-327 419-326 419-882 0-388-222-655-222-267-631-370z" transform="scale(.015625)"/></defs><use xlink:href="#E"/></g><use xlink:href="#A" x="440.074" y="620.899" class="B C"/><g transform="matrix(.1 0 0 -.1 436.89234 635.497068)"><defs><path id="F" d="M2419 4116L825 1625h1594v2491zm-166 550h794V1625h666v-525h-666V0h-628v1100H313v609l1940 2957z" transform="scale(.015625)"/></defs><use xlink:href="#F"/></g><use xlink:href="#A" x="539.057" y="620.899" class="B C"/><g transform="matrix(.1 0 0 -.1 535.87599 635.497068)"><defs><path id="G" d="M691 4666h2478v-532H1269V2991q137 47 274 70 138 23 276 23 781 0 1237-428 457-428 457-1159 0-753-469-1171Q2575-91 1722-91q-294 0-599 50Q819 9 494 109v635q281-153 581-228 300-75 634-75 541 0 856 284 316 284 316 772 0 487-316 771-315 285-856 285-253 0-505-56-251-56-513-175v2344z" transform="scale(.015625)"/></defs><use xlink:href="#G"/></g><use xlink:href="#A" x="638.041" y="620.899" class="B C"/><g transform="matrix(.1 0 0 -.1 634.85964 635.497068)"><defs><path id="H" d="M2113 2584q-425 0-674-291-248-290-248-796 0-503 248-796 249-292 674-292 425 0 673 292 248 293 248 796 0 506-248 796-248 291-673 291zm1253 1979v-575q-238 112-480 171-242 60-480 60-625 0-955-422-329-422-376-1275 184 272 462 417 279 145 613 145 703 0 1111-427 408-426 408-1160 0-719-425-1154Q2819-91 2113-91q-810 0-1238 620-428 621-428 1799 0 1106 525 1764 525 658 1409 658 238 0 480-47 242-47 505-140z" transform="scale(.015625)"/></defs><use xlink:href="#H"/></g><g transform="matrix(.1 0 0 -.1 338.130565 649.175193)"><defs><path id="I" d="M3513 3500L2247 1797 3578 0h-678L1881 1375 863 0H184l1360 1831L300 3500h678l928-1247 928 1247h679z" transform="scale(.015625)"/></defs><use xlink:href="#I"/></g><defs><path id="J" d="M0 0h-3.5" class="B C"/></defs><use xlink:href="#J" x="34.241" y="611" class="B C"/><use xlink:href="#B" transform="matrix(.1 0 0 -.1 20.878125 614.799484)"/><use xlink:href="#J" x="34.241" y="512.017" class="B C"/><use xlink:href="#C" transform="matrix(.1 0 0 -.1 20.878125 515.815834)"/><use xlink:href="#J" x="34.241" y="413.033" class="B C"/><use xlink:href="#D" transform="matrix(.1 0 0 -.1 20.878125 416.832184)"/><use xlink:href="#J" x="34.241" y="314.049" class="B C"/><use xlink:href="#E" transform="matrix(.1 0 0 -.1 20.878125 317.848534)"/><use xlink:href="#J" x="34.241" y="215.066" class="B C"/><use xlink:href="#F" transform="matrix(.1 0 0 -.1 20.878125 218.864884)"/><use xlink:href="#J" x="34.241" y="116.082" class="B C"/><use xlink:href="#G" transform="matrix(.1 0 0 -.1 20.878125 119.881234)"/><use xlink:href="#J" x="34.241" y="17.098" class="B C"/><use xlink:href="#H" transform="matrix(.1 0 0 -.1 20.878125 20.897584)"/><g transform="matrix(0 -.1 -.1 0 14.798438 317.00869)"><defs><path id="K" d="M2059-325q-243-625-475-815-231-191-618-191H506v481h338q237 0 368 113 132 112 291 531l103 262L191 3500h609L1894 763l1094 2737h609L2059-325z" transform="scale(.015625)"/></defs><use xlink:href="#K"/></g><defs><path id="L" d="M0 3a3 3 0 0 0 2.121-.879A3 3 0 0 0 3 0a3 3 0 0 0-.879-2.121A3 3 0 0 0 0-3a3 3 0 0 0-2.121.879A3 3 0 0 0-3 0a3 3 0 0 0 .879 2.121A3 3 0 0 0 0 3z" stroke="#fff"/></defs><g stroke="#fff"><use xlink:href="#L" x="341.09" y="611"/><use xlink:href="#L" x="378.209" y="611"/><use xlink:href="#L" x="376.6" y="578.256"/><use xlink:href="#L" x="339.66" y="581.894"/><use xlink:href="#L" x="415.328" y="611"/><use xlink:href="#L" x="413.54" y="574.617"/><use xlink:href="#L" x="452.447" y="611"/><use xlink:href="#L" x="450.48" y="570.979"/><use xlink:href="#L" x="489.565" y="611"/><use xlink:href="#L" x="487.421" y="567.341"/><use xlink:href="#L" x="526.684" y="611"/><use xlink:href="#L" x="524.361" y="563.703"/><use xlink:href="#L" x="563.803" y="611"/><use xlink:href="#L" x="561.301" y="560.064"/><use xlink:href="#L" x="600.922" y="611"/><use xlink:href="#L" x="598.241" y="556.426"/><use xlink:href="#L" x="638.041" y="611"/><use xlink:href="#L" x="635.181" y="552.788"/><use xlink:href="#L" x="371.79" y="545.826"/><use xlink:href="#L" x="335.384" y="553.068"/><use xlink:href="#L" x="408.195" y="538.585"/><use xlink:href="#L" x="444.601" y="531.343"/><use xlink:href="#L" x="481.007" y="524.102"/><use xlink:href="#L" x="517.412" y="516.86"/><use xlink:href="#L" x="553.818" y="509.619"/><use xlink:href="#L" x="590.224" y="502.377"/><use xlink:href="#L" x="626.629" y="495.136"/><use xlink:href="#L" x="363.824" y="514.025"/><use xlink:href="#L" x="328.303" y="524.8"/><use xlink:href="#L" x="399.344" y="503.25"/><use xlink:href="#L" x="434.865" y="492.475"/><use xlink:href="#L" x="470.386" y="481.7"/><use xlink:href="#L" x="505.906" y="470.925"/><use xlink:href="#L" x="541.427" y="460.15"/><use xlink:href="#L" x="576.947" y="449.375"/><use xlink:href="#L" x="612.468" y="438.6"/><use xlink:href="#L" x="352.779" y="483.157"/><use xlink:href="#L" x="318.486" y="497.362"/><use xlink:href="#L" x="387.073" y="468.953"/><use xlink:href="#L" x="421.366" y="454.748"/><use xlink:href="#L" x="455.659" y="440.543"/><use xlink:href="#L" x="489.953" y="426.338"/><use xlink:href="#L" x="524.246" y="412.133"/><use xlink:href="#L" x="558.539" y="397.929"/><use xlink:href="#L" x="592.833" y="383.724"/><use xlink:href="#L" x="338.762" y="453.521"/><use xlink:href="#L" x="306.026" y="471.019"/><use xlink:href="#L" x="371.498" y="436.023"/><use xlink:href="#L" x="404.234" y="418.525"/><use xlink:href="#L" x="436.97" y="401.028"/><use xlink:href="#L" x="469.706" y="383.53"/><use xlink:href="#L" x="502.442" y="366.032"/><use xlink:href="#L" x="535.178" y="348.535"/><use xlink:href="#L" x="567.914" y="331.037"/><use xlink:href="#L" x="321.908" y="425.401"/><use xlink:href="#L" x="291.045" y="446.023"/><use xlink:href="#L" x="352.771" y="404.779"/><use xlink:href="#L" x="383.634" y="384.157"/><use xlink:href="#L" x="414.498" y="363.535"/><use xlink:href="#L" x="445.361" y="342.912"/><use xlink:href="#L" x="476.224" y="322.29"/><use xlink:href="#L" x="507.087" y="301.668"/><use xlink:href="#L" x="537.95" y="281.046"/><use xlink:href="#L" x="302.378" y="399.069"/><use xlink:href="#L" x="273.685" y="422.617"/><use xlink:href="#L" x="331.072" y="375.521"/><use xlink:href="#L" x="359.765" y="351.973"/><use xlink:href="#L" x="388.458" y="328.425"/><use xlink:href="#L" x="417.152" y="304.877"/><use xlink:href="#L" x="445.845" y="281.329"/><use xlink:href="#L" x="474.538" y="257.781"/><use xlink:href="#L" x="503.231" y="234.233"/><use xlink:href="#L" x="280.362" y="374.777"/><use xlink:href="#L" x="254.115" y="401.024"/><use xlink:href="#L" x="306.609" y="348.53"/><use xlink:href="#L" x="332.856" y="322.283"/><use xlink:href="#L" x="359.103" y="296.036"/><use xlink:href="#L" x="385.35" y="269.789"/><use xlink:href="#L" x="411.597" y="243.542"/><use xlink:href="#L" x="437.844" y="217.295"/><use xlink:href="#L" x="464.091" y="191.048"/><use xlink:href="#L" x="256.071" y="352.761"/><use xlink:href="#L" x="232.523" y="381.454"/><use xlink:href="#L" x="279.619" y="324.068"/><use xlink:href="#L" x="303.167" y="295.374"/><use xlink:href="#L" x="326.715" y="266.681"/><use xlink:href="#L" x="350.262" y="237.988"/><use xlink:href="#L" x="373.81" y="209.294"/><use xlink:href="#L" x="397.358" y="180.601"/><use xlink:href="#L" x="420.906" y="151.908"/><use xlink:href="#L" x="229.738" y="333.231"/><use xlink:href="#L" x="209.116" y="364.095"/><use xlink:href="#L" x="250.36" y="302.368"/><use xlink:href="#L" x="270.983" y="271.505"/><use xlink:href="#L" x="291.605" y="240.642"/><use xlink:href="#L" x="312.227" y="209.779"/><use xlink:href="#L" x="332.849" y="178.915"/><use xlink:href="#L" x="353.471" y="148.052"/><use xlink:href="#L" x="374.093" y="117.189"/><use xlink:href="#L" x="201.618" y="316.377"/><use xlink:href="#L" x="184.121" y="349.113"/><use xlink:href="#L" x="219.116" y="283.641"/><use xlink:href="#L" x="236.614" y="250.905"/><use xlink:href="#L" x="254.112" y="218.169"/><use xlink:href="#L" x="271.609" y="185.433"/><use xlink:href="#L" x="289.107" y="152.697"/><use xlink:href="#L" x="306.605" y="119.961"/><use xlink:href="#L" x="324.102" y="87.226"/><use xlink:href="#L" x="171.982" y="302.36"/><use xlink:href="#L" x="157.777" y="336.653"/><use xlink:href="#L" x="186.187" y="268.067"/><use xlink:href="#L" x="200.392" y="233.773"/><use xlink:href="#L" x="214.596" y="199.48"/><use xlink:href="#L" x="228.801" y="165.187"/><use xlink:href="#L" x="243.006" y="130.893"/><use xlink:href="#L" x="257.211" y="96.6"/><use xlink:href="#L" x="271.415" y="62.306"/><use xlink:href="#L" x="141.114" y="291.315"/><use xlink:href="#L" x="130.339" y="326.836"/><use xlink:href="#L" x="151.889" y="255.795"/><use xlink:href="#L" x="162.664" y="220.274"/><use xlink:href="#L" x="173.439" y="184.754"/><use xlink:href="#L" x="184.214" y="149.233"/><use xlink:href="#L" x="194.99" y="113.713"/><use xlink:href="#L" x="205.765" y="78.192"/><use xlink:href="#L" x="216.54" y="42.672"/><use xlink:href="#L" x="109.313" y="283.35"/><use xlink:href="#L" x="102.071" y="319.755"/><use xlink:href="#L" x="116.554" y="246.944"/><use xlink:href="#L" x="123.796" y="210.538"/><use xlink:href="#L" x="131.037" y="174.133"/><use xlink:href="#L" x="138.279" y="137.727"/><use xlink:href="#L" x="145.52" y="101.321"/><use xlink:href="#L" x="152.762" y="64.916"/><use xlink:href="#L" x="160.004" y="28.51"/><use xlink:href="#L" x="76.884" y="278.539"/><use xlink:href="#L" x="73.245" y="315.479"/><use xlink:href="#L" x="80.522" y="241.599"/><use xlink:href="#L" x="84.16" y="204.659"/><use xlink:href="#L" x="87.798" y="167.719"/><use xlink:href="#L" x="91.437" y="130.779"/><use xlink:href="#L" x="95.075" y="93.838"/><use xlink:href="#L" x="98.713" y="56.898"/><use xlink:href="#L" x="102.352" y="19.958"/><use xlink:href="#L" x="44.139" y="276.93"/><use xlink:href="#L" x="44.139" y="314.049"/><use xlink:href="#L" x="44.139" y="239.812"/><use xlink:href="#L" x="44.139" y="202.693"/><use xlink:href="#L" x="44.139" y="165.574"/><use xlink:href="#L" x="44.139" y="128.455"/><use xlink:href="#L" x="44.139" y="91.336"/><use xlink:href="#L" x="44.139" y="54.217"/><use xlink:href="#L" x="44.139" y="17.098"/></g><defs><path id="M" d="M0 5a5 5 0 0 0 3.536-1.464A5 5 0 0 0 5 0a5 5 0 0 0-1.464-3.536A5 5 0 0 0 0-5a5 5 0 0 0-3.536 1.464A5 5 0 0 0-5 0a5 5 0 0 0 1.464 3.536A5 5 0 0 0 0 5z" stroke="red"/></defs><g clip-path="url(#N)"><use xlink:href="#M" x="341.09" y="611" fill="red" stroke="red"/></g><g fill="none" stroke-linecap="square" class="B C"><path d="M34.241 620.899V7.2m613.698 613.699V7.2M34.241 620.899H647.94"/><path d="M34.241 7.2h613.699"/></g><defs><clipPath id="N"><path d="M34.241 7.2h613.699v613.699H34.241z"/></clipPath></defs></svg>