<svg xmlns="http://www.w3.org/2000/svg" xmlns:xlink="http://www.w3.org/1999/xlink" width="873.519" height="877.94" viewBox="0 0 655.139 658.455" xmlns:v="https://vecta.io/nano"><style><![CDATA[.B{stroke:#000}.C{stroke-width:.8}]]></style><g fill="#fff"><path d="M0 658.455h655.139V0H0z"/><path d="M34.241 620.899h613.699V7.2H34.241z"/></g><g fill="#e3f3ff" stroke="#0055d4" stroke-width="1.5"><path d="M341.09 611q37.119 0 74.238 0-.009-36.558-7.132-72.415-36.406 7.242-72.811 14.483 5.699 28.686 5.706 57.932"/><path d="M415.328 611q37.119 0 74.238 0-.01-43.87-8.559-86.898-36.406 7.242-72.811 14.483 7.124 35.857 7.132 72.415"/><path d="M489.565 611q37.119 0 74.238 0-.012-51.181-9.985-101.381-36.406 7.242-72.811 14.483 8.548 43.029 8.559 86.898"/><path d="M563.803 611q37.119 0 74.238 0-.014-58.493-11.412-115.865-36.406 7.242-72.811 14.483 9.973 50.2 9.985 101.381m-228.419-57.931q36.406-7.242 72.811-14.483-7.141-35.854-21.123-69.632-34.293 14.205-68.587 28.41 11.186 27.023 16.898 55.706"/><path d="M408.195 538.585q36.406-7.242 72.811-14.483-8.569-43.025-25.347-83.559-34.293 14.205-68.587 28.41 13.982 33.779 21.123 69.632"/><path d="M481.007 524.102q36.406-7.242 72.811-14.483-9.997-50.195-29.572-97.485-34.293 14.205-68.587 28.41 16.779 40.534 25.347 83.559"/><path d="M553.818 509.619q36.406-7.242 72.811-14.483-11.425-57.366-33.796-111.412-34.293 14.205-68.587 28.41 19.575 47.29 29.572 97.485m-235.332-12.257q34.293-14.205 68.587-28.41-13.998-33.772-34.302-64.174-30.863 20.622-61.726 41.244 16.243 24.321 27.441 51.339"/><path d="M387.073 468.953q34.293-14.205 68.587-28.41-16.798-40.526-41.162-77.008-30.863 20.622-61.726 41.244 20.303 30.402 34.302 64.174"/><path d="M455.659 440.543q34.293-14.205 68.587-28.41-19.597-47.281-48.022-89.843-30.863 20.622-61.726 41.244 24.364 36.482 41.162 77.008"/><path d="M524.246 412.133q34.293-14.205 68.587-28.41-22.397-54.035-54.882-102.678-30.863 20.622-61.726 41.244 28.425 42.562 48.022 89.843m-233.202 33.891q30.863-20.622 61.726-41.244-20.318-30.392-46.162-56.249-26.247 26.247-52.494 52.494 20.675 20.685 36.93 44.999"/><path d="M352.771 404.779q30.863-20.622 61.726-41.244-24.381-36.471-55.394-67.498-26.247 26.247-52.494 52.494 25.844 25.857 46.162 56.249"/><path d="M414.498 363.535q30.863-20.622 61.726-41.244-28.445-42.549-64.627-78.748-26.247 26.247-52.494 52.494 31.013 31.028 55.394 67.498"/><path d="M476.224 322.29q30.863-20.622 61.726-41.244-32.508-48.627-73.859-89.998-26.247 26.247-52.494 52.494 36.182 36.199 64.627 78.748m-222.109 78.734q26.247-26.247 52.494-52.494-25.857-25.844-56.249-46.162-20.622 30.863-41.244 61.726 24.314 16.254 44.999 36.93"/><path d="M306.609 348.53q26.247-26.247 52.494-52.494-31.028-31.013-67.498-55.394-20.622 30.863-41.244 61.726 30.392 20.318 56.249 46.162"/><path d="M359.103 296.036q26.247-26.247 52.494-52.494-36.199-36.182-78.748-64.627-20.622 30.863-41.244 61.726 36.471 24.381 67.498 55.394"/><path d="M411.597 243.542q26.247-26.247 52.494-52.494-41.37-41.351-89.998-73.859-20.622 30.863-41.244 61.726 42.549 28.445 78.748 64.627M209.116 364.095q20.622-30.863 41.244-61.726-30.402-20.303-64.174-34.302-14.205 34.293-28.41 68.587 27.018 11.198 51.339 27.441"/><path d="M250.36 302.368q20.622-30.863 41.244-61.726-36.482-24.364-77.008-41.162-14.205 34.293-28.41 68.587 33.772 13.998 64.174 34.302"/><path d="M291.605 240.642q20.622-30.863 41.244-61.726-42.562-28.425-89.843-48.022-14.205 34.293-28.41 68.587 40.526 16.798 77.008 41.162"/><path d="M332.849 178.915q20.622-30.863 41.244-61.726-48.643-32.485-102.678-54.882-14.205 34.293-28.41 68.587 47.281 19.597 89.843 48.022M157.777 336.653q14.205-34.293 28.41-68.587-33.779-13.982-69.632-21.123-7.242 36.406-14.483 72.811 28.683 5.712 55.706 16.898"/><path d="M186.187 268.067q14.205-34.293 28.41-68.587-40.534-16.779-83.559-25.347-7.242 36.406-14.483 72.811 35.854 7.141 69.632 21.123"/><path d="M214.596 199.48q14.205-34.293 28.41-68.587-47.29-19.575-97.485-29.572-7.242 36.406-14.483 72.811 43.025 8.569 83.559 25.347"/><path d="M243.006 130.893q14.205-34.293 28.41-68.587Q217.37 39.935 160.004 28.51q-7.242 36.406-14.483 72.811 50.195 9.997 97.485 29.572M102.071 319.755q7.242-36.406 14.483-72.811-35.857-7.124-72.415-7.132 0 37.119 0 74.238 29.246.007 57.932 5.706"/><path d="M116.554 246.944q7.242-36.406 14.483-72.811-43.029-8.548-86.898-8.559 0 37.119 0 74.238 36.558.009 72.415 7.132"/><path d="M131.037 174.133q7.242-36.406 14.483-72.811-50.2-9.973-101.381-9.985 0 37.119 0 74.238 43.87.01 86.898 8.559"/><path d="M145.52 101.321q7.242-36.406 14.483-72.811-57.372-11.398-115.865-11.412 0 37.119 0 74.238 51.181.012 101.381 9.985"/></g><defs><path id="A" d="M0 0v3.5" class="B C"/></defs><use xlink:href="#A" x="44.139" y="620.899" class="B C"/><g transform="matrix(.1 0 0 -.1 40.95774 635.497068)"><defs><path id="B" d="M2034 4250q-487 0-733-480-245-479-245-1442 0-959 245-1439 246-480 733-480 491 0 736 480 246 480 246 1439 0 963-246 1442-245 480-736 480zm0 500q785 0 1199-621 414-620 414-1801 0-1178-414-1799Q2819-91 2034-91q-784 0-1198 620-414 621-414 1799 0 1181 414 1801 414 621 1198 621z" transform="scale(.015625)"/></defs><use xlink:href="#B"/></g><use xlink:href="#A" x="143.123" y="620.899" class="B C"/><g transform="matrix(.1 0 0 -.1 139.94139 635.497068)"><defs><path id="C" d="M794 531h1031v3560L703 3866v575l1116 225h631V531h1031V0H794v531z" transform="scale(.015625)"/></defs><use xlink:href="#C"/></g><use xlink:href="#A" x="242.106" y="620.899" class="B C"/><g transform="matrix(.1 0 0 -.1 238.92504 635.497068)"><defs><path id="D" d="M1228 531h2203V0H469v531q359 372 979 998 621 627 780 809 303 340 423 576 121 236 121 464 0 372-261 606-261 235-680 235-297 0-627-103-329-103-704-313v638q381 153 712 231 332 78 607 78 725 0 1156-363 431-362 431-968 0-288-108-546-107-257-392-607-78-91-497-524-418-433-1181-1211z" transform="scale(.015625)"/></defs><use xlink:href="#D"/></g><use xlink:href="#A" x="341.09" y="620.899" class="B C"/><g transform="matrix(.1 0 0 -.1 337.90869 635.497068)"><defs><path id="E" d="M2597 2516q453-97 707-404 255-306 255-756 0-690-475-1069Q2609-91 1734-91q-293 0-604 58-311 58-642 174v609q262-153 574-231 313-78 654-78 593 0 904 234 311 234 311 681 0 413-289 645-289 233-804 233h-544v519h569q465 0 712 186 247 186 247 536 0 359-255 551-254 193-729 193-260 0-557-57-297-56-653-174v562q360 100 674 150 314 50 592 50 719 0 1137-327 419-326 419-882 0-388-222-655-222-267-631-370z" transform="scale(.015625)"/></defs><use xlink:href="#E"/></g><use xlink:href="#A" x="440.074" y="620.899" class="B C"/><g transform="matrix(.1 0 0 -.1 436.89234 635.497068)"><defs><path id="F" d="M2419 4116L825 1625h1594v2491zm-166 550h794V1625h666v-525h-666V0h-628v1100H313v609l1940 2957z" transform="scale(.015625)"/></defs><use xlink:href="#F"/></g><use xlink:href="#A" x="539.057" y="620.899" class="B C"/><g transform="matrix(.1 0 0 -.1 535.87599 635.497068)"><defs><path id="G" d="M691 4666h2478v-532H1269V2991q137 47 274 70 138 23 276 23 781 0 1237-428 457-428 457-1159 0-753-469-1171Q2575-91 1722-91q-294 0-599 50Q819 9 494 109v635q281-153 581-228 300-75 634-75 541 0 856 284 316 284 316 772 0 487-316 771-315 285-856 285-253 0-505-56-251-56-513-175v2344z" transform="scale(.015625)"/></defs><use xlink:href="#G"/></g><use xlink:href="#A" x="638.041" y="620.899" class="B C"/><g transform="matrix(.1 0 0 -.1 634.85964 635.497068)"><defs><path id="H" d="M2113 2584q-425 0-674-291-248-290-248-796 0-503 248-796 249-292 674-292 425 0 673 292 248 293 248 796 0 506-248 796-248 291-673 291zm1253 1979v-575q-238 112-480 171-242 60-480 60-625 0-955-422-329-422-376-1275 184 272 462 417 279 145 613 145 703 0 1111-427 408-426 408-1160 0-719-425-1154Q2819-91 2113-91q-810 0-1238 620-428 621-428 1799 0 1106 525 1764 525 658 1409 658 238 0 480-47 242-47 505-140z" transform="scale(.015625)"/></defs><use xlink:href="#H"/></g><g transform="matrix(.1 0 0 -.1 338.130565 649.175193)"><defs><path id="I" d="M3513 3500L2247 1797 3578 0h-678L1881 1375 863 0H184l1360 1831L300 3500h678l928-1247 928 1247h679z" transform="scale(.015625)"/></defs><use xlink:href="#I"/></g><defs><path id="J" d="M0 0h-3.5" class="B C"/></defs><use xlink:href="#J" x="34.241" y="611" class="B C"/><use xlink:href="#B" transform="matrix(.1 0 0 -.1 20.878125 614.799484)"/><use xlink:href="#J" x="34.241" y="512.017" class="B C"/><use xlink:href="#C" transform="matrix(.1 0 0 -.1 20.878125 515.815834)"/><use xlink:href="#J" x="34.241" y="413.033" class="B C"/><use xlink:href="#D" transform="matrix(.1 0 0 -.1 20.878125 416.832184)"/><use xlink:href="#J" x="34.241" y="314.049" class="B C"/><use xlink:href="#E" transform="matrix(.1 0 0 -.1 20.878125 317.848534)"/><use xlink:href="#J" x="34.241" y="215.066" class="B C"/><use xlink:href="#F" transform="matrix(.1 0 0 -.1 20.878125 218.864884)"/><use xlink:href="#J" x="34.241" y="116.082" class="B C"/><use xlink:href="#G" transform="matrix(.1 0 0 -.1 20.878125 119.881234)"/><use xlink:href="#J" x="34.241" y="17.098" class="B C"/><use xlink:href="#H" transform="matrix(.1 0 0 -.1 20.878125 20.897584)"/><g transform="matrix(0 -.1 -.1 0 14.798438 317.00869)"><defs><path id="K" d="M2059-325q-243-625-475-815-231-191-618-191H506v481h338q237 0 368 113 132 112 291 531l103 262L191 3500h609L1894 763l1094 2737h609L2059-325z" transform="scale(.015625)"/></defs><use xlink:href="#K"/></g><defs><path id="L" d="M0 3a3 3 0 0 0 2.121-.879A3 3 0 0 0 3 0a3 3 0 0 0-.879-2.121A3 3 0 0 0 0-3a3 3 0 0 0-2.121.879A3 3 0 0 0-3 0a3 3 0 0 0 .879 2.121A3 3 0 0 0 0 3z" stroke="#fff"/></defs><g stroke="#fff"><use xlink:href="#L" x="341.09" y="611"/><use xlink:href="#L" x="415.328" y="611"/><use xlink:href="#L" x="408.195" y="538.585"/><use xlink:href="#L" x="335.384" y="553.068"/><use xlink:href="#L" x="378.209" y="611"/><use xlink:href="#L" x="413.54" y="574.617"/><use xlink:href="#L" x="371.79" y="545.826"/><use xlink:href="#L" x="339.66" y="581.894"/><use xlink:href="#L" x="489.565" y="611"/><use xlink:href="#L" x="481.007" y="524.102"/><use xlink:href="#L" x="452.447" y="611"/><use xlink:href="#L" x="487.421" y="567.341"/><use xlink:href="#L" x="444.601" y="531.343"/><use xlink:href="#L" x="563.803" y="611"/><use xlink:href="#L" x="553.818" y="509.619"/><use xlink:href="#L" x="526.684" y="611"/><use xlink:href="#L" x="561.301" y="560.064"/><use xlink:href="#L" x="517.412" y="516.86"/><use xlink:href="#L" x="638.041" y="611"/><use xlink:href="#L" x="626.629" y="495.136"/><use xlink:href="#L" x="600.922" y="611"/><use xlink:href="#L" x="635.181" y="552.788"/><use xlink:href="#L" x="590.224" y="502.377"/><use xlink:href="#L" x="387.073" y="468.953"/><use xlink:href="#L" x="318.486" y="497.362"/><use xlink:href="#L" x="399.344" y="503.25"/><use xlink:href="#L" x="352.779" y="483.157"/><use xlink:href="#L" x="328.303" y="524.8"/><use xlink:href="#L" x="455.659" y="440.543"/><use xlink:href="#L" x="470.386" y="481.7"/><use xlink:href="#L" x="421.366" y="454.748"/><use xlink:href="#L" x="524.246" y="412.133"/><use xlink:href="#L" x="541.427" y="460.15"/><use xlink:href="#L" x="489.953" y="426.338"/><use xlink:href="#L" x="592.833" y="383.724"/><use xlink:href="#L" x="612.468" y="438.6"/><use xlink:href="#L" x="558.539" y="397.929"/><use xlink:href="#L" x="352.771" y="404.779"/><use xlink:href="#L" x="291.045" y="446.023"/><use xlink:href="#L" x="371.498" y="436.023"/><use xlink:href="#L" x="321.908" y="425.401"/><use xlink:href="#L" x="306.026" y="471.019"/><use xlink:href="#L" x="414.498" y="363.535"/><use xlink:href="#L" x="436.97" y="401.028"/><use xlink:href="#L" x="383.634" y="384.157"/><use xlink:href="#L" x="476.224" y="322.29"/><use xlink:href="#L" x="502.442" y="366.032"/><use xlink:href="#L" x="445.361" y="342.912"/><use xlink:href="#L" x="537.95" y="281.046"/><use xlink:href="#L" x="567.914" y="331.037"/><use xlink:href="#L" x="507.087" y="301.668"/><use xlink:href="#L" x="306.609" y="348.53"/><use xlink:href="#L" x="254.115" y="401.024"/><use xlink:href="#L" x="331.072" y="375.521"/><use xlink:href="#L" x="280.362" y="374.777"/><use xlink:href="#L" x="273.685" y="422.617"/><use xlink:href="#L" x="359.103" y="296.036"/><use xlink:href="#L" x="388.458" y="328.425"/><use xlink:href="#L" x="332.856" y="322.283"/><use xlink:href="#L" x="411.597" y="243.542"/><use xlink:href="#L" x="445.845" y="281.329"/><use xlink:href="#L" x="385.35" y="269.789"/><use xlink:href="#L" x="464.091" y="191.048"/><use xlink:href="#L" x="503.231" y="234.233"/><use xlink:href="#L" x="437.844" y="217.295"/><use xlink:href="#L" x="250.36" y="302.368"/><use xlink:href="#L" x="209.116" y="364.095"/><use xlink:href="#L" x="279.619" y="324.068"/><use xlink:href="#L" x="229.738" y="333.231"/><use xlink:href="#L" x="232.523" y="381.454"/><use xlink:href="#L" x="291.605" y="240.642"/><use xlink:href="#L" x="326.715" y="266.681"/><use xlink:href="#L" x="270.983" y="271.505"/><use xlink:href="#L" x="332.849" y="178.915"/><use xlink:href="#L" x="373.81" y="209.294"/><use xlink:href="#L" x="312.227" y="209.779"/><use xlink:href="#L" x="374.093" y="117.189"/><use xlink:href="#L" x="420.906" y="151.908"/><use xlink:href="#L" x="353.471" y="148.052"/><use xlink:href="#L" x="186.187" y="268.067"/><use xlink:href="#L" x="157.777" y="336.653"/><use xlink:href="#L" x="219.116" y="283.641"/><use xlink:href="#L" x="171.982" y="302.36"/><use xlink:href="#L" x="184.121" y="349.113"/><use xlink:href="#L" x="214.596" y="199.48"/><use xlink:href="#L" x="254.112" y="218.169"/><use xlink:href="#L" x="200.392" y="233.773"/><use xlink:href="#L" x="243.006" y="130.893"/><use xlink:href="#L" x="289.107" y="152.697"/><use xlink:href="#L" x="228.801" y="165.187"/><use xlink:href="#L" x="271.415" y="62.306"/><use xlink:href="#L" x="324.102" y="87.226"/><use xlink:href="#L" x="257.211" y="96.6"/><use xlink:href="#L" x="116.554" y="246.944"/><use xlink:href="#L" x="102.071" y="319.755"/><use xlink:href="#L" x="151.889" y="255.795"/><use xlink:href="#L" x="109.313" y="283.35"/><use xlink:href="#L" x="130.339" y="326.836"/><use xlink:href="#L" x="131.037" y="174.133"/><use xlink:href="#L" x="173.439" y="184.754"/><use xlink:href="#L" x="123.796" y="210.538"/><use xlink:href="#L" x="145.52" y="101.321"/><use xlink:href="#L" x="194.99" y="113.713"/><use xlink:href="#L" x="138.279" y="137.727"/><use xlink:href="#L" x="160.004" y="28.51"/><use xlink:href="#L" x="216.54" y="42.672"/><use xlink:href="#L" x="152.762" y="64.916"/><use xlink:href="#L" x="44.139" y="239.812"/><use xlink:href="#L" x="44.139" y="314.049"/><use xlink:href="#L" x="80.522" y="241.599"/><use xlink:href="#L" x="44.139" y="276.93"/><use xlink:href="#L" x="73.245" y="315.479"/><use xlink:href="#L" x="44.139" y="165.574"/><use xlink:href="#L" x="87.798" y="167.719"/><use xlink:href="#L" x="44.139" y="202.693"/><use xlink:href="#L" x="44.139" y="91.336"/><use xlink:href="#L" x="95.075" y="93.838"/><use xlink:href="#L" x="44.139" y="128.455"/><use xlink:href="#L" x="44.139" y="17.098"/><use xlink:href="#L" x="102.352" y="19.958"/><use xlink:href="#L" x="44.139" y="54.217"/></g><defs><path id="M" d="M0 5a5 5 0 0 0 3.536-1.464A5 5 0 0 0 5 0a5 5 0 0 0-1.464-3.536A5 5 0 0 0 0-5a5 5 0 0 0-3.536 1.464A5 5 0 0 0-5 0a5 5 0 0 0 1.464 3.536A5 5 0 0 0 0 5z" stroke="red"/></defs><g clip-path="url(#N)"><use xlink:href="#M" x="341.09" y="611" fill="red" stroke="red"/></g><g fill="none" stroke-linecap="square" class="B C"><path d="M34.241 620.899V7.2m613.698 613.699V7.2M34.241 620.899H647.94"/><path d="M34.241 7.2h613.699"/></g><defs><clipPath id="N"><path d="M34.241 7.2h613.699v613.699H34.241z"/></clipPath></defs></svg>