<svg xmlns="http://www.w3.org/2000/svg" xmlns:xlink="http://www.w3.org/1999/xlink" width="873.519" height="877.94" viewBox="0 0 655.139 658.455" xmlns:v="https://vecta.io/nano"><style><![CDATA[.B{stroke:#000}.C{stroke-width:.8}]]></style><g fill="#fff"><path d="M0 658.455h655.139V0H0z"/><path d="M34.241 620.899h613.699V7.2H34.241z"/></g><g fill="#e3f3ff" stroke="#0055d4" stroke-width="1.5"><path d="M350 229.873q-2.135 27.632-4.269 55.263 26.299-19.021 52.598-38.041-24.164-8.611-48.329-17.222m200.524 70.814q-9.201 28.989-15.28 56.065 19.033-7.689 38.066-15.378-10.559-20.728-22.786-40.687m-312.006-6.884q-11.934-16.39-23.869-32.779-17.211 10.716-34.422 21.432 29.146 5.674 58.291 11.348"/><path d="M180.227 282.455q-.637 31.98-1.275 63.96 18.925-8.587 37.849-17.174-18.287-23.393-36.574-46.786m73.888 118.569q16.523 16.527 30.262 35.433 15.475-28.537 30.95-57.073-30.606 10.82-61.212 21.641m124.974 59.533q-35.183 7.815-70.365 15.63 10.607 20.824 17.832 43.05 26.267-29.34 52.533-58.68"/><path d="M273.534 339.634q-28.367-5.196-56.733-10.393.941 20.76 1.881 41.521 27.426-15.564 54.852-31.128M183.576 91.74q28.39 5.408 56.78 10.817-6.346-28.195-12.691-56.39-22.044 22.787-44.088 45.574M171.041 242.96q4.593 19.747 9.186 39.495 17.211-10.716 34.422-21.432-21.804-9.031-43.608-18.063"/><path d="M216.801 329.241q-18.925 8.587-37.849 17.174 20.822 10.612 39.73 24.347-.941-20.76-1.881-41.521m332.155 204.064q-32.171 1.256-64.343 2.511 2.476 21.647 4.952 43.293 29.695-22.902 59.39-45.804M126.222 64.698q28.677 13.521 57.354 27.041-.824-27.336-.794-58.232-28.708 17.375-56.561 31.19m192.769 268.99q22.853 1.765 45.707 3.531-9.483-26.041-18.966-52.082-13.37 24.275-26.74 48.551M90.592 317.705q-2.905-25.05-5.811-50.101-20.321 23.222-40.643 46.445 23.37.003 46.453 3.656m224.736 61.679q1.831-22.848 3.663-45.696-22.728 2.973-45.456 5.947 20.896 19.875 41.793 39.749M44.139 195.269q20.872 14.848 41.745 29.695 2.226-25.224 4.452-50.449-23.099 10.377-46.197 20.754"/><path d="M90.592 317.705q23.082 3.659 45.31 10.878-7.31-19.454-14.62-38.907-15.345 14.015-30.69 28.029m246.351 110.329q-14.109 24.077-28.219 48.153 35.183-7.815 70.365-15.63-21.073-16.262-42.146-32.524M44.139 135.879q19.081-4.269 38.162-8.539.927-19.531 1.854-39.061-20.008 23.8-40.016 47.6m44.404-89.086q-2.194 20.743-4.388 41.485 21.033-11.79 42.067-23.58-18.839-8.952-37.679-17.905"/><path d="M180.227 282.455q-22.162 23.064-44.325 46.128 22.226 7.225 43.05 17.832.637-31.98 1.275-63.96M137.046 24.41q-46.166-7.306-92.907-7.312 22.202 14.848 44.404 29.695 24.251-11.192 48.503-22.383m-6.061 224.851q-22.55-12.149-45.101-24.297-.551 21.32-1.102 42.64 23.102-9.172 46.203-18.343m286.987 271.99q.22-21.542.441-43.084-23.207 27.061-46.414 54.121 22.987-5.519 45.973-11.037"/><path d="M85.884 224.964q-20.872-14.848-41.745-29.695 0 29.695 0 59.39 20.872-14.848 41.745-29.695m292.995 349.343q-3.44-21.01-6.88-42.019-17.282 16.129-34.565 32.259 20.723 4.88 41.445 9.761m.21-113.75q-26.267 29.34-52.533 58.68 22.721 6.525 45.443 13.051 3.545-35.865 7.091-71.73M82.301 127.34q4.018 23.588 8.036 47.175 13.33-14.568 26.66-29.136-17.348-9.02-34.696-18.039M341.09 611q29.695 0 59.39 0-10.801-18.346-21.601-36.693Q359.985 592.654 341.09 611M121.282 289.676q-18.25-11.036-36.5-22.071 2.905 25.05 5.811 50.101 15.345-14.015 30.69-28.029m200.436-131.646q-7.849 23.833-15.698 47.667 36.378-11.191 72.756-22.383-28.529-12.642-57.058-25.284"/><path d="M417.972 521.251q-22.987 5.519-45.973 11.037 3.44 21.01 6.88 42.019 19.546-26.528 39.093-53.057M400.48 611q29.695 0 59.39 0-14.848-20.396-29.695-40.792Q415.328 590.604 400.48 611m-8.943-313.051q3.396-25.427 6.791-50.854-26.299 19.021-52.598 38.041 22.903 6.407 45.807 12.813m216.809 268.647q-8.952-18.839-17.905-37.679-11.79 21.033-23.58 42.067 20.743-2.194 41.485-4.388"/><path d="M548.956 533.305q6.765-18.82 13.53-37.64-19.255-5.404-38.51-10.808 12.49 24.224 24.98 48.448M392.261 399.919q-17.686-10.93-35.373-21.859-9.973 24.987-19.945 49.974 27.659-14.057 55.318-28.115m174.6 171.065q-23.8 20.008-47.6 40.016 29.695 0 59.39 0-5.895-20.008-11.79-40.016m-293.327-231.35q22.728-2.973 45.456-5.947-13.888-17.803-27.775-35.605-8.84 20.776-17.681 41.552m357.195 178.46q-11.192 24.251-22.383 48.503 14.848 22.202 29.695 44.404-.006-46.741-7.312-92.907"/><path d="M291.215 298.082q-26.349-2.14-52.697-4.279 17.508 22.916 35.016 45.831 8.84-20.776 17.681-41.552m-7.544-171.651q34.434-9.347 70.781-21.815-19.959-12.227-40.687-22.786-15.047 22.301-30.094 44.601M180.227 282.455q-29.472 3.61-58.945 7.221 7.31 19.454 14.62 38.907 22.162-23.064 44.325-46.128"/><path d="M255.877 214.466q-25.207 3.531-50.413 7.063 4.593 19.747 9.186 39.495 20.614-23.279 41.227-46.557m-37.195 156.295q18.905 13.739 35.433 30.262 9.71-30.695 19.419-61.39-27.426 15.564-54.852 31.128m118.261 57.272q-10.808-24.325-21.616-48.65-15.475 28.537-30.95 57.073 26.283-4.211 52.566-8.423M341.09 611q18.895-18.346 37.789-36.693-20.723-4.88-41.445-9.761 3.653 23.083 3.656 46.453m50.447-313.05q23.833 30.693 47.665 61.387 11.029-19.866 22.057-39.732-34.861-10.827-69.722-21.655"/><path d="M315.327 379.384q20.78-.662 41.561-1.323-18.949-22.187-37.898-44.373-1.831 22.848-3.663 45.696m209.289-117.471q-9.349 33.054-18.699 66.109 20.742-12.711 44.607-27.335-12.233-19.956-25.908-38.774m-286.098 31.89q-10.858 17.719-21.717 35.439 28.367 5.196 56.733 10.393-17.508-22.916-35.016-45.831m133.481 238.484q-22.721-6.525-45.443-13.051 7.219 22.227 10.878 45.31 17.282-16.129 34.565-32.259m226.346-54.341q5.314-25.236 10.628-50.473-24.816 7.952-49.632 15.904 19.502 17.284 39.004 34.568"/><path d="M180.227 282.455q18.287 23.393 36.574 46.786 10.858-17.719 21.717-35.439-29.146-5.674-58.291-11.348m198.652 291.853Q389.68 592.654 400.48 611q14.848-20.396 29.695-40.792-25.648 2.049-51.296 4.099M254.115 401.024q30.606-10.82 61.212-21.641-20.896-19.875-41.793-39.749-9.71 30.695-19.419 61.39m35.059-148.053q1.021 22.556 2.041 45.111 27.258-6.473 54.515-12.946-28.278-16.083-56.557-32.166"/><path d="M130.985 249.261q-4.851 20.207-9.703 40.415 29.472-3.61 58.945-7.221-24.621-16.597-49.242-33.194m214.745 35.875q9.483 26.041 18.966 52.082 13.42-19.634 26.84-39.269-22.903-6.407-45.807-12.813"/><path d="M345.73 285.136q2.135-27.632 4.269-55.263-30.413 11.549-60.826 23.097 28.278 16.083 56.557 32.166m-26.74 48.551q18.949 22.187 37.898 44.373 3.904-20.421 7.809-40.842-22.853-1.765-45.707-3.531m159.885-68.821q-7.392-36.909-14.783-73.818-9.822 21.778-19.643 43.556 17.213 15.131 34.427 30.262"/><path d="M444.448 234.604q-13.638-16.382-27.275-32.764-9.422 22.627-18.844 45.255 23.06-6.245 46.119-12.491m-155.274 18.367q-16.649-19.253-33.297-38.505-20.614 23.279-41.227 46.557 37.262-4.026 74.525-8.052m56.555 32.165q-27.258 6.473-54.515 12.946 13.888 17.803 27.775 35.605 13.37-24.275 26.74-48.551m-107.212 8.667q26.349 2.14 52.697 4.279-1.021-22.556-2.041-45.111-25.328 20.416-50.656 40.832m153.019 4.146q-13.42 19.634-26.84 39.269 16.924 11.265 33.848 22.53-3.504-30.899-7.007-61.798"/><path d="M391.537 297.949q22.347-8.138 44.694-16.276-18.951-17.289-37.903-34.578-3.396 25.427-6.791 50.854m26.435 223.302q6.102 24.479 12.203 48.958 27.219-17.196 54.438-34.392-33.321-7.283-66.641-14.566m87.945-193.229q9.349-33.054 18.699-66.109-22.871 1.476-45.741 2.952 13.521 31.578 27.042 63.156"/><path d="M436.231 281.674q4.108-23.535 8.217-47.069-23.06 6.245-46.119 12.491 18.951 17.289 37.903 34.578m-6.385-122.28q-17.8-15.199-36.622-28.87-7.225 26.396-14.449 52.792 24.346-10.569 51.071-23.922"/><path d="M478.875 264.866q-17.213-15.131-34.427-30.262-4.108 23.535-8.217 47.069 21.322-8.404 42.644-16.808M321.719 158.031q28.529 12.642 57.058 25.284 7.225-26.396 14.449-52.792-35.753 13.754-71.507 27.508"/><path d="M436.231 281.674q-22.347 8.138-44.694 16.276 34.861 10.827 69.722 21.655-12.514-18.965-25.029-37.931m27.861-90.626q7.392 36.909 14.783 73.818 22.871-1.476 45.741-2.952-27.478-37.811-60.525-70.865"/><path d="M461.26 319.604q8.807-27.369 17.615-54.738-21.322 8.404-42.644 16.808 12.514 18.965 25.029 37.931m-9.782 97.41q20.281-18.167 40.562-36.335-26.419-10.672-52.837-21.344 6.138 28.84 12.275 57.679M417.172 201.84q13.638 16.382 27.275 32.764 9.822-21.778 19.643-43.556-23.459 5.396-46.919 10.792"/><path d="M464.091 191.048q-16.447-16.451-34.244-31.654-7.526 22.616-12.675 42.447 23.459-5.396 46.919-10.792m-257.99-63.112q17.128-12.691 34.255-25.381-28.39-5.408-56.78-10.817 11.262 18.099 22.524 36.198m83.074 125.034q30.413-11.549 60.826-23.097-21.989-12.088-43.978-24.175-8.424 23.636-16.847 47.273m109.153-5.877q-9.776-31.89-19.552-63.78-14.389 23.279-28.777 46.558 24.164 8.611 48.329 17.222"/><path d="M429.847 159.394q-26.724 13.353-51.071 23.922 19.198 9.263 38.396 18.525 5.148-19.831 12.675-42.447"/><path d="M398.328 247.095q9.422-22.627 18.844-45.255-19.198-9.263-38.396-18.525 9.776 31.89 19.552 63.78M85.884 224.964q27.523-24.085 55.046-48.17-25.297-1.139-50.594-2.278-2.226 25.224-4.452 50.449m96.899-191.457q-22.76-5.461-45.737-9.098-5.412 20.144-10.824 40.288 27.853-13.815 56.561-31.19M44.139 17.098q0 29.695 0 59.39Q66.341 61.64 88.543 46.793 66.341 31.945 44.139 17.098"/><path d="M84.155 88.279q2.194-20.743 4.388-41.485-22.202 14.848-44.404 29.695 20.008 5.895 40.016 11.79"/><path d="M44.139 135.879q20.008-23.8 40.016-47.6-20.008-5.895-40.016-11.79 0 29.695 0 59.39m82.083-71.181q-21.033 11.79-42.067 23.58 18.839 8.952 37.679 17.905 2.194-20.743 4.388-41.485"/><path d="M126.222 64.698q-2.194 20.743-4.388 41.485 30.871-7.222 61.742-14.444-28.677-13.521-57.354-27.041"/><path d="M137.046 24.41q-24.251 11.192-48.503 22.383 18.839 8.952 37.679 17.905 5.412-20.144 10.824-40.288m-15.212 81.774q-2.419 19.598-4.837 39.195 21.743-7.081 43.487-14.163-19.325-12.516-38.65-25.033m83.63 115.345q25.207-3.531 50.413-7.063-4.292-27.263-8.584-54.526-20.915 30.795-41.829 61.589m384.977 307.389q20.144-5.412 40.288-10.824-16.192-20.073-32.384-40.146-3.952 25.485-7.904 50.97m-41.485 4.388q-12.49-24.224-24.98-48.448-17.126 7.112-34.252 14.224 29.616 17.112 59.232 34.223"/><path d="M590.441 528.917q8.952 18.839 17.905 37.679 11.192-24.251 22.383-48.503-20.144 5.412-40.288 10.824M578.651 611q29.695 0 59.39 0-14.848-22.202-29.695-44.404-14.848 22.202-29.695 44.404m19.694-133.053q16.192 20.073 32.384 40.146-7.317-46.164-21.756-90.619-5.314 25.236-10.628 50.473"/><path d="M566.861 570.984q11.79-21.033 23.58-42.067-20.743 2.194-41.485 4.388 8.952 18.839 17.905 37.679m3.686-178.029q-20.456 2.234-40.912 4.467 14.853 22.978 29.705 45.957 5.603-25.212 11.206-50.424"/><path d="M590.441 528.917q3.952-25.485 7.904-50.97-17.93 8.859-35.859 17.719 13.977 16.626 27.955 33.252m-23.58 42.066q-8.952-18.839-17.905-37.679-29.695 22.902-59.39 45.804 38.648-4.063 77.295-8.125M578.651 611q14.848-22.202 29.695-44.404-20.743 2.194-41.485 4.388 5.895 20.008 11.79 40.016M379.089 460.558q19.662 8.805 39.323 17.609-2.274-20.987-4.548-41.974-17.388 12.182-34.776 24.365"/><path d="M523.976 484.858q19.255 5.404 38.51 10.808-1.573-26.143-3.145-52.287-17.682 20.739-35.365 41.479m46.571-91.903q-5.603 25.212-11.206 50.424 24.816-7.952 49.632-15.904-19.213-17.26-38.426-34.52"/><path d="M559.341 443.379q-25.5-5.37-51-10.739 7.818 26.109 15.635 52.218 17.682-20.739 35.365-41.479m49.632-15.905q-14.449-44.451-35.664-86.1-1.381 25.79-2.762 51.58 19.213 17.26 38.426 34.52M492.04 380.681q18.798 8.371 37.596 16.742 2.804-20.335 5.608-40.67-21.602 11.964-43.204 23.928m-2.316 118.401q9.309-33.221 18.617-66.442-23.474 21.253-46.948 42.507 14.166 11.968 28.331 23.935m-5.111 36.735q2.555-18.367 5.111-36.735-35.876 11.084-71.752 22.169 33.321 7.283 66.641 14.566m105.828-6.9q-13.977-16.626-27.955-33.252-6.765 18.82-13.53 37.64 20.743-2.194 41.485-4.388"/><path d="M559.341 443.379q1.573 26.143 3.145 52.287 17.93-8.859 35.859-17.719-19.502-17.284-39.004-34.568m-107.863-26.364q4.957 29.066 9.915 58.131 23.474-21.253 46.948-42.507-28.432-7.812-56.863-15.624m-79.479 115.273q23.207-27.061 46.414-54.121-19.662-8.805-39.323-17.609-3.545 35.865-7.091 71.73M459.87 611q29.695 0 59.39 0-14.848-15.945-29.695-31.891Q474.718 595.055 459.87 611m-80.991-36.693q25.648-2.049 51.296-4.099-6.102-24.479-12.203-48.958-19.546 26.528-39.093 53.057m110.845-75.225q17.126-7.112 34.252-14.224-7.818-26.109-15.635-52.218-9.309 33.221-18.617 66.442"/><path d="M430.175 570.209Q445.023 590.604 459.87 611q14.848-15.945 29.695-31.891-29.695-4.451-59.39-8.901M84.782 267.604q.551-21.32 1.102-42.64-20.872 14.848-41.745 29.695 20.321 6.473 40.643 12.945"/><path d="M85.884 224.964q22.55 12.149 45.101 24.297 4.972-36.234 9.945-72.467-27.523 24.085-55.046 48.17m-1.102 42.64q-20.321-6.473-40.643-12.945 0 29.695 0 59.39 20.321-23.222 40.643-46.445"/><path d="M130.985 249.261q-23.102 9.172-46.203 18.343 18.25 11.036 36.5 22.071 4.851-20.207 9.703-40.415"/><path d="M171.041 242.96q-15.056-33.083-30.112-66.167-4.972 36.234-9.945 72.467 20.028-3.15 40.056-6.301"/><path d="M140.93 176.794q32.267 22.367 64.534 44.735-5.636-26.327-11.272-52.654-26.631 3.96-53.262 7.92"/><path d="M116.996 145.379q-13.33 14.568-26.66 29.136 25.297 1.139 50.594 2.278-11.967-15.707-23.933-31.415"/><path d="M44.139 135.879q0 29.695 0 59.39 23.099-10.377 46.197-20.754-23.099-19.318-46.197-38.637m150.053 32.996q5.955-20.468 11.909-40.937-22.809 1.64-45.617 3.279 16.854 18.829 33.708 37.657m-72.358-62.689q-18.839-8.952-37.679-17.905-.927 19.531-1.854 39.061 19.767-10.578 39.533-21.156m167.34 146.787q-37.262 4.026-74.525 8.052 11.934 16.39 23.869 32.779 25.328-20.416 50.656-40.832m-118.133-10.01q21.804 9.031 43.608 18.063-4.593-19.747-9.186-39.495-17.211 10.716-34.422 21.432"/><path d="M140.93 176.794q15.056 33.083 30.112 66.167 17.211-10.716 34.422-21.432-32.267-22.367-64.534-44.735"/><path d="M130.985 249.261q24.621 16.597 49.242 33.194-4.593-19.747-9.186-39.495-20.028 3.15-40.056 6.301m177.739 226.926q14.109-24.077 28.219-48.153-26.283 4.211-52.566 8.423 13.734 18.909 24.347 39.73"/><path d="M336.943 428.034q21.073 16.262 42.146 32.524 6.586-30.319 13.172-60.638-27.659 14.057-55.318 28.115m76.922 8.158q18.806-9.589 37.613-19.178-29.608-8.548-59.217-17.096 10.802 18.137 21.604 36.274m-15.321-76.445q-3.142 20.086-6.284 40.172 23.471-20.292 46.942-40.583-20.329.206-40.658.411m-19.767-176.433q-36.378 11.191-72.756 22.383Q328.01 217.786 350 229.873q14.389-23.279 28.777-46.558m156.467 173.437q6.079-27.076 15.28-56.065-23.864 14.624-44.607 27.335 14.663 14.365 29.327 28.73"/><path d="M306.021 205.698q7.849-23.833 15.698-47.667-37.213.954-74.426 1.908 29.364 22.879 58.728 45.759"/><path d="M247.293 159.939q18.189-16.754 36.378-33.508-21.658-11.937-43.315-23.875 3.468 28.692 6.937 57.383m-86.81-28.723q-9.777 22.789-19.554 45.577 26.631-3.96 53.262-7.92-16.854-18.829-33.708-37.657m128.691 121.755q8.424-23.636 16.847-47.273-25.072 4.384-50.145 8.768 16.649 19.253 33.297 38.505"/><path d="M247.293 159.939q4.292 27.263 8.584 54.526 25.072-4.384 50.145-8.768-29.364-22.879-58.728-45.759M492.04 380.681q-20.281 18.167-40.562 36.335 28.432 7.812 56.863 15.624-8.151-25.98-16.301-51.959M183.576 91.74q22.044-22.787 44.088-45.574-22.123-7.191-44.882-12.658-.031 30.896.794 58.232m208.685 308.179q29.608 8.548 59.217 17.096-6.138-28.84-12.275-57.679-23.471 20.292-46.942 40.583m25.711 121.332q21.71-23.052 43.421-46.104-21.49 1.51-42.98 3.02-.22 21.542-.441 43.084"/><path d="M413.865 436.193q23.764 19.477 47.528 38.954-4.957-29.066-9.915-58.131-18.806 9.589-37.613 19.178m4.107 85.057q35.876-11.084 71.752-22.169-14.166-11.968-28.331-23.935-21.71 23.052-43.421 46.104m130.984 12.054q-29.616-17.112-59.232-34.223-2.555 18.367-5.111 36.735 32.171-1.256 64.343-2.511m-59.391 45.804q14.848 15.945 29.695 31.891 23.8-20.008 47.6-40.016-38.648 4.063-77.295 8.125m-59.39-8.901q29.695 4.451 59.39 8.901-2.476-21.647-4.952-43.293-27.219 17.196-54.438 34.392M90.336 174.515q-4.018-23.588-8.036-47.175-19.081 4.269-38.162 8.539 23.099 19.318 46.197 38.637m31.499-68.332q-19.767 10.578-39.533 21.156 17.348 9.02 34.696 18.039 2.419-19.598 4.837-39.195"/><path d="M391.537 297.949q3.504 30.899 7.007 61.798 20.329-.206 40.658-.411-23.833-30.693-47.665-61.387m-34.649 80.111q20.828-9.156 41.656-18.313-16.924-11.265-33.848-22.53-3.904 20.421-7.809 40.842m-19.944 49.975q9.973-24.987 19.945-49.974-20.78.662-41.561 1.323 10.808 24.325 21.616 48.65"/><path d="M398.544 359.748q-20.828 9.156-41.656 18.313 17.686 10.93 35.373 21.859 3.142-20.086 6.284-40.172M283.671 126.431q-18.189 16.754-36.378 33.508 37.213-.954 74.426-1.908-19.024-15.8-38.048-31.6m-12.256-64.125q-21.626-8.954-43.751-16.14 6.346 28.195 12.691 56.39 14.829-18.433 31.059-40.25"/><path d="M354.452 104.616q-36.347 12.469-70.781 21.815 19.024 15.8 38.048 31.6 15.41-25.147 32.733-53.416m-83.037-42.309q5.427 33.754 12.256 64.125 15.047-22.301 30.094-44.601-20.726-10.563-42.349-19.523m258.22 335.115q-18.798-8.371-37.596-16.742 8.151 25.98 16.301 51.959 10.647-17.609 21.295-35.218"/><path d="M283.671 126.431q-6.828-30.371-12.256-64.125-16.23 21.816-31.059 40.25 21.658 11.937 43.315 23.875m208.369 254.25q6.939-26.329 13.877-52.658-22.329-4.209-44.657-8.418 15.39 30.538 30.78 61.077m67.301 62.697q-14.853-22.978-29.705-45.957-10.647 17.609-21.295 35.218 25.5 5.37 51 10.739"/><path d="M535.244 356.752q17.652 18.101 35.304 36.202 1.381-25.79 2.762-51.58-19.033 7.689-38.066 15.378M379.089 460.558q17.388-12.182 34.776-24.365-10.802-18.137-21.604-36.274-6.586 30.319-13.172 60.638m82.304 14.59q-23.764-19.477-47.528-38.954 2.274 20.987 4.548 41.974 21.49-1.51 42.98-3.02"/><path d="M492.04 380.681q21.602-11.964 43.204-23.928-14.663-14.365-29.327-28.73-6.939 26.329-13.877 52.658m78.507 12.274q-17.652-18.101-35.304-36.202-2.804 20.335-5.608 40.67 20.456-2.234 40.912-4.467"/><path d="M492.04 380.681q-15.39-30.538-30.78-61.077-11.029 19.866-22.057 39.732 26.419 10.672 52.837 21.344"/><path d="M478.875 264.866q-8.808 27.369-17.615 54.738 22.329 4.209 44.657 8.418-13.521-31.578-27.042-63.156m-273.411-43.338q20.915-30.795 41.829-61.589-26.551 4.467-53.101 8.935 5.636 26.327 11.272 52.654m116.255-63.497q35.753-13.754 71.507-27.508-18.818-13.675-38.774-25.908-17.323 28.269-32.733 53.416"/><path d="M247.293 159.939q-3.468-28.692-6.937-57.383-17.128 12.691-34.255 25.381 20.596 16.001 41.192 32.002m-86.81-28.723q22.809-1.64 45.617-3.279-11.262-18.099-22.524-36.198-11.546 19.738-23.093 39.477"/><path d="M247.293 159.939q-20.596-16.001-41.192-32.002-5.955 20.468-11.909 40.937 26.551-4.467 53.101-8.935m-125.459-53.755q19.325 12.516 38.65 25.033 11.546-19.738 23.093-39.477-30.871 7.222-61.742 14.444m19.095 70.61q9.777-22.789 19.554-45.577-21.743 7.081-43.487 14.163 11.967 15.707 23.933 31.415"/></g><defs><path id="A" d="M0 0v3.5" class="B C"/></defs><use xlink:href="#A" x="44.139" y="620.899" class="B C"/><g transform="matrix(.1 0 0 -.1 40.95774 635.497068)"><defs><path id="B" d="M2034 4250q-487 0-733-480-245-479-245-1442 0-959 245-1439 246-480 733-480 491 0 736 480 246 480 246 1439 0 963-246 1442-245 480-736 480zm0 500q785 0 1199-621 414-620 414-1801 0-1178-414-1799Q2819-91 2034-91q-784 0-1198 620-414 621-414 1799 0 1181 414 1801 414 621 1198 621z" transform="scale(.015625)"/></defs><use xlink:href="#B"/></g><use xlink:href="#A" x="143.123" y="620.899" class="B C"/><g transform="matrix(.1 0 0 -.1 139.94139 635.497068)"><defs><path id="C" d="M794 531h1031v3560L703 3866v575l1116 225h631V531h1031V0H794v531z" transform="scale(.015625)"/></defs><use xlink:href="#C"/></g><use xlink:href="#A" x="242.106" y="620.899" class="B C"/><g transform="matrix(.1 0 0 -.1 238.92504 635.497068)"><defs><path id="D" d="M1228 531h2203V0H469v531q359 372 979 998 621 627 780 809 303 340 423 576 121 236 121 464 0 372-261 606-261 235-680 235-297 0-627-103-329-103-704-313v638q381 153 712 231 332 78 607 78 725 0 1156-363 431-362 431-968 0-288-108-546-107-257-392-607-78-91-497-524-418-433-1181-1211z" transform="scale(.015625)"/></defs><use xlink:href="#D"/></g><use xlink:href="#A" x="341.09" y="620.899" class="B C"/><g transform="matrix(.1 0 0 -.1 337.90869 635.497068)"><defs><path id="E" d="M2597 2516q453-97 707-404 255-306 255-756 0-690-475-1069Q2609-91 1734-91q-293 0-604 58-311 58-642 174v609q262-153 574-231 313-78 654-78 593 0 904 234 311 234 311 681 0 413-289 645-289 233-804 233h-544v519h569q465 0 712 186 247 186 247 536 0 359-255 551-254 193-729 193-260 0-557-57-297-56-653-174v562q360 100 674 150 314 50 592 50 719 0 1137-327 419-326 419-882 0-388-222-655-222-267-631-370z" transform="scale(.015625)"/></defs><use xlink:href="#E"/></g><use xlink:href="#A" x="440.074" y="620.899" class="B C"/><g transform="matrix(.1 0 0 -.1 436.89234 635.497068)"><defs><path id="F" d="M2419 4116L825 1625h1594v2491zm-166 550h794V1625h666v-525h-666V0h-628v1100H313v609l1940 2957z" transform="scale(.015625)"/></defs><use xlink:href="#F"/></g><use xlink:href="#A" x="539.057" y="620.899" class="B C"/><g transform="matrix(.1 0 0 -.1 535.87599 635.497068)"><defs><path id="G" d="M691 4666h2478v-532H1269V2991q137 47 274 70 138 23 276 23 781 0 1237-428 457-428 457-1159 0-753-469-1171Q2575-91 1722-91q-294 0-599 50Q819 9 494 109v635q281-153 581-228 300-75 634-75 541 0 856 284 316 284 316 772 0 487-316 771-315 285-856 285-253 0-505-56-251-56-513-175v2344z" transform="scale(.015625)"/></defs><use xlink:href="#G"/></g><use xlink:href="#A" x="638.041" y="620.899" class="B C"/><g transform="matrix(.1 0 0 -.1 634.85964 635.497068)"><defs><path id="H" d="M2113 2584q-425 0-674-291-248-290-248-796 0-503 248-796 249-292 674-292 425 0 673 292 248 293 248 796 0 506-248 796-248 291-673 291zm1253 1979v-575q-238 112-480 171-242 60-480 60-625 0-955-422-329-422-376-1275 184 272 462 417 279 145 613 145 703 0 1111-427 408-426 408-1160 0-719-425-1154Q2819-91 2113-91q-810 0-1238 620-428 621-428 1799 0 1106 525 1764 525 658 1409 658 238 0 480-47 242-47 505-140z" transform="scale(.015625)"/></defs><use xlink:href="#H"/></g><g transform="matrix(.1 0 0 -.1 338.130565 649.175193)"><defs><path id="I" d="M3513 3500L2247 1797 3578 0h-678L1881 1375 863 0H184l1360 1831L300 3500h678l928-1247 928 1247h679z" transform="scale(.015625)"/></defs><use xlink:href="#I"/></g><defs><path id="J" d="M0 0h-3.5" class="B C"/></defs><use xlink:href="#J" x="34.241" y="611" class="B C"/><use xlink:href="#B" transform="matrix(.1 0 0 -.1 20.878125 614.799484)"/><use xlink:href="#J" x="34.241" y="512.017" class="B C"/><use xlink:href="#C" transform="matrix(.1 0 0 -.1 20.878125 515.815834)"/><use xlink:href="#J" x="34.241" y="413.033" class="B C"/><use xlink:href="#D" transform="matrix(.1 0 0 -.1 20.878125 416.832184)"/><use xlink:href="#J" x="34.241" y="314.049" class="B C"/><use xlink:href="#E" transform="matrix(.1 0 0 -.1 20.878125 317.848534)"/><use xlink:href="#J" x="34.241" y="215.066" class="B C"/><use xlink:href="#F" transform="matrix(.1 0 0 -.1 20.878125 218.864884)"/><use xlink:href="#J" x="34.241" y="116.082" class="B C"/><use xlink:href="#G" transform="matrix(.1 0 0 -.1 20.878125 119.881234)"/><use xlink:href="#J" x="34.241" y="17.098" class="B C"/><use xlink:href="#H" transform="matrix(.1 0 0 -.1 20.878125 20.897584)"/><g transform="matrix(0 -.1 -.1 0 14.798438 317.00869)"><defs><path id="K" d="M2059-325q-243-625-475-815-231-191-618-191H506v481h338q237 0 368 113 132 112 291 531l103 262L191 3500h609L1894 763l1094 2737h609L2059-325z" transform="scale(.015625)"/></defs><use xlink:href="#K"/></g><defs><path id="L" d="M0 3a3 3 0 0 0 2.121-.879A3 3 0 0 0 3 0a3 3 0 0 0-.879-2.121A3 3 0 0 0 0-3a3 3 0 0 0-2.121.879A3 3 0 0 0-3 0a3 3 0 0 0 .879 2.121A3 3 0 0 0 0 3z" stroke="#fff"/></defs><g stroke="#fff"><use xlink:href="#L" x="341.09" y="611"/><use xlink:href="#L" x="400.48" y="611"/><use xlink:href="#L" x="459.87" y="611"/><use xlink:href="#L" x="519.261" y="611"/><use xlink:href="#L" x="578.651" y="611"/><use xlink:href="#L" x="638.041" y="611"/><use xlink:href="#L" x="630.729" y="518.094"/><use xlink:href="#L" x="608.973" y="427.474"/><use xlink:href="#L" x="573.309" y="341.374"/><use xlink:href="#L" x="524.616" y="261.913"/><use xlink:href="#L" x="464.091" y="191.048"/><use xlink:href="#L" x="393.226" y="130.524"/><use xlink:href="#L" x="313.765" y="81.83"/><use xlink:href="#L" x="227.665" y="46.166"/><use xlink:href="#L" x="137.046" y="24.41"/><use xlink:href="#L" x="44.139" y="17.098"/><use xlink:href="#L" x="44.139" y="76.489"/><use xlink:href="#L" x="44.139" y="135.879"/><use xlink:href="#L" x="44.139" y="195.269"/><use xlink:href="#L" x="44.139" y="254.659"/><use xlink:href="#L" x="44.139" y="314.049"/><use xlink:href="#L" x="90.592" y="317.705"/><use xlink:href="#L" x="135.902" y="328.583"/><use xlink:href="#L" x="178.952" y="346.415"/><use xlink:href="#L" x="218.682" y="370.762"/><use xlink:href="#L" x="254.115" y="401.024"/><use xlink:href="#L" x="284.377" y="436.457"/><use xlink:href="#L" x="308.724" y="476.187"/><use xlink:href="#L" x="326.556" y="519.237"/><use xlink:href="#L" x="337.434" y="564.547"/><use xlink:href="#L" x="205.464" y="221.528"/><use xlink:href="#L" x="364.697" y="337.218"/><use xlink:href="#L" x="417.972" y="521.251"/><use xlink:href="#L" x="130.985" y="249.261"/><use xlink:href="#L" x="238.518" y="293.803"/><use xlink:href="#L" x="315.327" y="379.384"/><use xlink:href="#L" x="371.999" y="532.288"/><use xlink:href="#L" x="121.282" y="289.676"/><use xlink:href="#L" x="180.227" y="282.455"/><use xlink:href="#L" x="216.801" y="329.241"/><use xlink:href="#L" x="273.534" y="339.634"/><use xlink:href="#L" x="378.879" y="574.307"/><use xlink:href="#L" x="379.089" y="460.558"/><use xlink:href="#L" x="318.99" y="333.687"/><use xlink:href="#L" x="350" y="229.873"/><use xlink:href="#L" x="345.73" y="285.136"/><use xlink:href="#L" x="436.231" y="281.674"/><use xlink:href="#L" x="289.174" y="252.971"/><use xlink:href="#L" x="291.215" y="298.082"/><use xlink:href="#L" x="391.537" y="297.949"/><use xlink:href="#L" x="439.203" y="359.336"/><use xlink:href="#L" x="398.328" y="247.095"/><use xlink:href="#L" x="444.448" y="234.604"/><use xlink:href="#L" x="478.875" y="264.866"/><use xlink:href="#L" x="505.917" y="328.022"/><use xlink:href="#L" x="429.847" y="159.394"/><use xlink:href="#L" x="321.719" y="158.031"/><use xlink:href="#L" x="378.777" y="183.315"/><use xlink:href="#L" x="417.172" y="201.84"/><use xlink:href="#L" x="121.834" y="106.184"/><use xlink:href="#L" x="88.543" y="46.793"/><use xlink:href="#L" x="84.155" y="88.279"/><use xlink:href="#L" x="126.222" y="64.698"/><use xlink:href="#L" x="183.576" y="91.74"/><use xlink:href="#L" x="548.956" y="533.305"/><use xlink:href="#L" x="608.346" y="566.596"/><use xlink:href="#L" x="590.441" y="528.917"/><use xlink:href="#L" x="598.345" y="477.947"/><use xlink:href="#L" x="566.861" y="570.984"/><use xlink:href="#L" x="508.341" y="432.64"/><use xlink:href="#L" x="559.341" y="443.379"/><use xlink:href="#L" x="570.547" y="392.955"/><use xlink:href="#L" x="523.976" y="484.858"/><use xlink:href="#L" x="562.486" y="495.666"/><use xlink:href="#L" x="461.393" y="475.147"/><use xlink:href="#L" x="430.175" y="570.209"/><use xlink:href="#L" x="484.613" y="535.817"/><use xlink:href="#L" x="85.884" y="224.964"/><use xlink:href="#L" x="84.782" y="267.604"/><use xlink:href="#L" x="140.93" y="176.794"/><use xlink:href="#L" x="90.336" y="174.515"/><use xlink:href="#L" x="116.996" y="145.379"/><use xlink:href="#L" x="214.649" y="261.023"/><use xlink:href="#L" x="171.041" y="242.96"/><use xlink:href="#L" x="336.943" y="428.034"/><use xlink:href="#L" x="392.261" y="399.919"/><use xlink:href="#L" x="550.524" y="300.687"/><use xlink:href="#L" x="306.021" y="205.698"/><use xlink:href="#L" x="247.293" y="159.939"/><use xlink:href="#L" x="255.877" y="214.466"/><use xlink:href="#L" x="182.783" y="33.508"/><use xlink:href="#L" x="451.478" y="417.015"/><use xlink:href="#L" x="418.413" y="478.167"/><use xlink:href="#L" x="489.724" y="499.082"/><use xlink:href="#L" x="489.565" y="579.11"/><use xlink:href="#L" x="82.301" y="127.34"/><use xlink:href="#L" x="398.544" y="359.748"/><use xlink:href="#L" x="356.888" y="378.06"/><use xlink:href="#L" x="240.356" y="102.556"/><use xlink:href="#L" x="283.671" y="126.431"/><use xlink:href="#L" x="271.415" y="62.306"/><use xlink:href="#L" x="492.04" y="380.681"/><use xlink:href="#L" x="529.636" y="397.422"/><use xlink:href="#L" x="413.865" y="436.193"/><use xlink:href="#L" x="535.244" y="356.752"/><use xlink:href="#L" x="461.26" y="319.604"/><use xlink:href="#L" x="354.452" y="104.616"/><use xlink:href="#L" x="194.192" y="168.874"/><use xlink:href="#L" x="206.101" y="127.937"/><use xlink:href="#L" x="160.483" y="131.216"/><use xlink:href="#L" x="347.865" y="257.505"/><use xlink:href="#L" x="372.029" y="266.116"/><use xlink:href="#L" x="374.164" y="238.484"/><use xlink:href="#L" x="542.103" y="329.198"/><use xlink:href="#L" x="554.277" y="349.063"/><use xlink:href="#L" x="562.334" y="320.839"/><use xlink:href="#L" x="226.583" y="277.413"/><use xlink:href="#L" x="197.438" y="271.739"/><use xlink:href="#L" x="209.372" y="288.129"/><use xlink:href="#L" x="179.589" y="314.435"/><use xlink:href="#L" x="197.877" y="337.828"/><use xlink:href="#L" x="198.514" y="305.848"/><use xlink:href="#L" x="269.942" y="418.146"/><use xlink:href="#L" x="299.852" y="407.92"/><use xlink:href="#L" x="284.721" y="390.204"/><use xlink:href="#L" x="343.907" y="468.372"/><use xlink:href="#L" x="318.486" y="497.362"/><use xlink:href="#L" x="352.823" y="489.898"/><use xlink:href="#L" x="245.168" y="334.438"/><use xlink:href="#L" x="217.742" y="350.002"/><use xlink:href="#L" x="246.108" y="355.198"/><use xlink:href="#L" x="211.966" y="97.148"/><use xlink:href="#L" x="234.01" y="74.361"/><use xlink:href="#L" x="205.621" y="68.953"/><use xlink:href="#L" x="175.634" y="262.708"/><use xlink:href="#L" x="192.845" y="251.992"/><use xlink:href="#L" x="199.295" y="357.808"/><use xlink:href="#L" x="516.784" y="534.561"/><use xlink:href="#L" x="487.089" y="557.463"/><use xlink:href="#L" x="519.261" y="556.208"/><use xlink:href="#L" x="154.899" y="78.219"/><use xlink:href="#L" x="182.966" y="63.514"/><use xlink:href="#L" x="154.289" y="49.993"/><use xlink:href="#L" x="341.843" y="335.453"/><use xlink:href="#L" x="355.214" y="311.177"/><use xlink:href="#L" x="332.36" y="309.412"/><use xlink:href="#L" x="87.687" y="292.655"/><use xlink:href="#L" x="64.46" y="290.827"/><use xlink:href="#L" x="67.437" y="314.965"/><use xlink:href="#L" x="317.159" y="356.535"/><use xlink:href="#L" x="296.262" y="336.661"/><use xlink:href="#L" x="294.431" y="359.509"/><use xlink:href="#L" x="65.011" y="210.116"/><use xlink:href="#L" x="88.11" y="199.74"/><use xlink:href="#L" x="67.238" y="184.892"/><use xlink:href="#L" x="113.461" y="322.254"/><use xlink:href="#L" x="128.592" y="309.13"/><use xlink:href="#L" x="105.937" y="303.691"/><use xlink:href="#L" x="322.834" y="452.111"/><use xlink:href="#L" x="358.016" y="444.296"/><use xlink:href="#L" x="63.22" y="131.609"/><use xlink:href="#L" x="83.228" y="107.809"/><use xlink:href="#L" x="64.147" y="112.079"/><use xlink:href="#L" x="86.349" y="67.536"/><use xlink:href="#L" x="105.188" y="76.489"/><use xlink:href="#L" x="107.382" y="55.746"/><use xlink:href="#L" x="158.064" y="305.519"/><use xlink:href="#L" x="157.777" y="336.653"/><use xlink:href="#L" x="90.736" y="18.929"/><use xlink:href="#L" x="66.341" y="31.946"/><use xlink:href="#L" x="112.794" y="35.602"/><use xlink:href="#L" x="108.434" y="237.113"/><use xlink:href="#L" x="85.333" y="246.284"/><use xlink:href="#L" x="107.883" y="258.433"/><use xlink:href="#L" x="418.192" y="499.709"/><use xlink:href="#L" x="395.206" y="505.228"/><use xlink:href="#L" x="394.985" y="526.77"/><use xlink:href="#L" x="44.139" y="224.964"/><use xlink:href="#L" x="65.011" y="239.812"/><use xlink:href="#L" x="375.439" y="553.298"/><use xlink:href="#L" x="354.716" y="548.417"/><use xlink:href="#L" x="358.157" y="569.427"/><use xlink:href="#L" x="349.277" y="525.763"/><use xlink:href="#L" x="375.544" y="496.423"/><use xlink:href="#L" x="86.318" y="150.928"/><use xlink:href="#L" x="103.666" y="159.947"/><use xlink:href="#L" x="99.648" y="136.359"/><use xlink:href="#L" x="370.785" y="611"/><use xlink:href="#L" x="389.68" y="592.654"/><use xlink:href="#L" x="359.985" y="592.654"/><use xlink:href="#L" x="103.032" y="278.64"/><use xlink:href="#L" x="313.87" y="181.865"/><use xlink:href="#L" x="342.399" y="194.507"/><use xlink:href="#L" x="350.248" y="170.673"/><use xlink:href="#L" x="398.426" y="547.779"/><use xlink:href="#L" x="430.175" y="611"/><use xlink:href="#L" x="445.023" y="590.604"/><use xlink:href="#L" x="415.328" y="590.604"/><use xlink:href="#L" x="394.933" y="272.522"/><use xlink:href="#L" x="368.634" y="291.543"/><use xlink:href="#L" x="599.393" y="547.757"/><use xlink:href="#L" x="578.651" y="549.951"/><use xlink:href="#L" x="587.603" y="568.79"/><use xlink:href="#L" x="555.721" y="514.486"/><use xlink:href="#L" x="543.231" y="490.262"/><use xlink:href="#L" x="536.466" y="509.082"/><use xlink:href="#L" x="374.575" y="388.99"/><use xlink:href="#L" x="346.916" y="403.047"/><use xlink:href="#L" x="364.602" y="413.977"/><use xlink:href="#L" x="543.061" y="590.992"/><use xlink:href="#L" x="548.956" y="611"/><use xlink:href="#L" x="572.756" y="590.992"/><use xlink:href="#L" x="305.102" y="315.885"/><use xlink:href="#L" x="282.375" y="318.858"/><use xlink:href="#L" x="619.537" y="542.345"/><use xlink:href="#L" x="623.193" y="588.798"/><use xlink:href="#L" x="636.21" y="564.403"/><use xlink:href="#L" x="264.866" y="295.942"/><use xlink:href="#L" x="256.026" y="316.718"/><use xlink:href="#L" x="318.583" y="116.304"/><use xlink:href="#L" x="334.301" y="92.806"/><use xlink:href="#L" x="298.718" y="104.13"/><use xlink:href="#L" x="150.754" y="286.066"/><use xlink:href="#L" x="230.67" y="217.997"/><use xlink:href="#L" x="210.056" y="241.276"/><use xlink:href="#L" x="235.263" y="237.745"/><use xlink:href="#L" x="236.993" y="385.197"/><use xlink:href="#L" x="263.825" y="370.329"/><use xlink:href="#L" x="326.135" y="403.709"/><use xlink:href="#L" x="310.66" y="432.245"/><use xlink:href="#L" x="340.175" y="587.702"/><use xlink:href="#L" x="415.37" y="328.643"/><use xlink:href="#L" x="450.231" y="339.47"/><use xlink:href="#L" x="426.398" y="308.777"/><use xlink:href="#L" x="336.108" y="378.722"/><use xlink:href="#L" x="337.939" y="355.874"/><use xlink:href="#L" x="515.266" y="294.968"/><use xlink:href="#L" x="527.44" y="314.833"/><use xlink:href="#L" x="537.93" y="281.016"/><use xlink:href="#L" x="227.66" y="311.522"/><use xlink:href="#L" x="332.885" y="541.678"/><use xlink:href="#L" x="603.659" y="452.711"/><use xlink:href="#L" x="584.157" y="435.427"/><use xlink:href="#L" x="578.843" y="460.663"/><use xlink:href="#L" x="404.527" y="572.258"/><use xlink:href="#L" x="290.194" y="275.526"/><use xlink:href="#L" x="318.473" y="291.609"/><use xlink:href="#L" x="317.452" y="269.054"/><use xlink:href="#L" x="126.134" y="269.469"/><use xlink:href="#L" x="155.606" y="265.858"/><use xlink:href="#L" x="378.117" y="317.584"/><use xlink:href="#L" x="319.587" y="241.422"/><use xlink:href="#L" x="360.792" y="357.639"/><use xlink:href="#L" x="471.483" y="227.957"/><use xlink:href="#L" x="454.269" y="212.826"/><use xlink:href="#L" x="461.661" y="249.735"/><use xlink:href="#L" x="430.81" y="218.222"/><use xlink:href="#L" x="407.75" y="224.468"/><use xlink:href="#L" x="421.388" y="240.85"/><use xlink:href="#L" x="272.525" y="233.718"/><use xlink:href="#L" x="251.911" y="256.997"/><use xlink:href="#L" x="263.846" y="273.387"/><use xlink:href="#L" x="381.621" y="348.483"/><use xlink:href="#L" x="395.041" y="328.849"/><use xlink:href="#L" x="413.884" y="289.811"/><use xlink:href="#L" x="417.28" y="264.384"/><use xlink:href="#L" x="424.074" y="545.73"/><use xlink:href="#L" x="457.394" y="553.013"/><use xlink:href="#L" x="451.292" y="528.534"/><use xlink:href="#L" x="501.745" y="263.39"/><use xlink:href="#L" x="492.396" y="296.444"/><use xlink:href="#L" x="440.339" y="258.139"/><use xlink:href="#L" x="411.792" y="144.577"/><use xlink:href="#L" x="386.001" y="156.92"/><use xlink:href="#L" x="403.718" y="172.051"/><use xlink:href="#L" x="457.553" y="273.27"/><use xlink:href="#L" x="357.472" y="144.277"/><use xlink:href="#L" x="448.745" y="300.639"/><use xlink:href="#L" x="495.746" y="225.292"/><use xlink:href="#L" x="470.067" y="292.235"/><use xlink:href="#L" x="471.759" y="398.848"/><use xlink:href="#L" x="465.621" y="370.008"/><use xlink:href="#L" x="445.34" y="388.176"/><use xlink:href="#L" x="440.632" y="196.444"/><use xlink:href="#L" x="447.306" y="174.909"/><use xlink:href="#L" x="422.915" y="181.313"/><use xlink:href="#L" x="223.228" y="115.247"/><use xlink:href="#L" x="194.839" y="109.839"/><use xlink:href="#L" x="328.01" y="217.786"/><use xlink:href="#L" x="297.597" y="229.334"/><use xlink:href="#L" x="388.553" y="215.205"/><use xlink:href="#L" x="364.388" y="206.594"/><use xlink:href="#L" x="397.975" y="192.578"/><use xlink:href="#L" x="113.407" y="200.879"/><use xlink:href="#L" x="115.633" y="175.654"/><use xlink:href="#L" x="159.968" y="28.503"/><use xlink:href="#L" x="131.634" y="44.554"/><use xlink:href="#L" x="44.139" y="46.793"/><use xlink:href="#L" x="66.341" y="61.641"/><use xlink:href="#L" x="64.147" y="82.384"/><use xlink:href="#L" x="44.139" y="106.184"/><use xlink:href="#L" x="102.994" y="97.231"/><use xlink:href="#L" x="124.028" y="85.441"/><use xlink:href="#L" x="152.705" y="98.962"/><use xlink:href="#L" x="119.415" y="125.781"/><use xlink:href="#L" x="138.74" y="138.298"/><use xlink:href="#L" x="141.159" y="118.7"/><use xlink:href="#L" x="251.585" y="187.203"/><use xlink:href="#L" x="226.378" y="190.734"/><use xlink:href="#L" x="610.585" y="523.505"/><use xlink:href="#L" x="614.537" y="498.02"/><use xlink:href="#L" x="594.393" y="503.432"/><use xlink:href="#L" x="506.85" y="491.97"/><use xlink:href="#L" x="519.34" y="516.194"/><use xlink:href="#L" x="608.346" y="611"/><use xlink:href="#L" x="593.498" y="588.798"/><use xlink:href="#L" x="621.631" y="472.357"/><use xlink:href="#L" x="569.698" y="531.111"/><use xlink:href="#L" x="557.908" y="552.145"/><use xlink:href="#L" x="550.092" y="395.188"/><use xlink:href="#L" x="544.488" y="420.4"/><use xlink:href="#L" x="564.944" y="418.167"/><use xlink:href="#L" x="580.416" y="486.806"/><use xlink:href="#L" x="576.463" y="512.291"/><use xlink:href="#L" x="528.213" y="575.047"/><use xlink:href="#L" x="398.751" y="469.362"/><use xlink:href="#L" x="416.139" y="457.18"/><use xlink:href="#L" x="396.477" y="448.375"/><use xlink:href="#L" x="560.913" y="469.522"/><use xlink:href="#L" x="541.659" y="464.118"/><use xlink:href="#L" x="589.76" y="410.215"/><use xlink:href="#L" x="533.841" y="438.009"/><use xlink:href="#L" x="516.159" y="458.749"/><use xlink:href="#L" x="592.833" y="383.724"/><use xlink:href="#L" x="571.928" y="367.165"/><use xlink:href="#L" x="510.838" y="389.051"/><use xlink:href="#L" x="532.44" y="377.087"/><use xlink:href="#L" x="513.642" y="368.717"/><use xlink:href="#L" x="499.032" y="465.861"/><use xlink:href="#L" x="484.867" y="453.893"/><use xlink:href="#L" x="475.558" y="487.114"/><use xlink:href="#L" x="487.168" y="517.449"/><use xlink:href="#L" x="453.848" y="510.166"/><use xlink:href="#L" x="456.435" y="446.081"/><use xlink:href="#L" x="479.909" y="424.827"/><use xlink:href="#L" x="489.565" y="611"/><use xlink:href="#L" x="504.413" y="595.055"/><use xlink:href="#L" x="474.718" y="595.055"/><use xlink:href="#L" x="459.87" y="574.659"/><use xlink:href="#L" x="64.46" y="261.132"/><use xlink:href="#L" x="135.957" y="213.027"/><use xlink:href="#L" x="44.139" y="284.354"/><use xlink:href="#L" x="155.986" y="209.877"/><use xlink:href="#L" x="151.013" y="246.111"/><use xlink:href="#L" x="173.197" y="199.161"/><use xlink:href="#L" x="199.828" y="195.201"/><use xlink:href="#L" x="167.561" y="172.834"/><use xlink:href="#L" x="128.963" y="161.086"/><use xlink:href="#L" x="44.139" y="165.574"/><use xlink:href="#L" x="67.238" y="155.197"/><use xlink:href="#L" x="200.146" y="148.406"/><use xlink:href="#L" x="183.292" y="129.577"/><use xlink:href="#L" x="177.337" y="150.045"/><use xlink:href="#L" x="102.067" y="116.762"/><use xlink:href="#L" x="188.252" y="232.244"/><use xlink:href="#L" x="297.331" y="455.844"/><use xlink:href="#L" x="385.675" y="430.238"/><use xlink:href="#L" x="432.671" y="426.604"/><use xlink:href="#L" x="421.869" y="408.467"/><use xlink:href="#L" x="403.063" y="418.056"/><use xlink:href="#L" x="395.403" y="379.833"/><use xlink:href="#L" x="415.732" y="379.628"/><use xlink:href="#L" x="418.873" y="359.542"/><use xlink:href="#L" x="520.58" y="342.387"/><use xlink:href="#L" x="284.506" y="158.985"/><use xlink:href="#L" x="276.657" y="182.819"/><use xlink:href="#L" x="265.482" y="143.185"/><use xlink:href="#L" x="262.014" y="114.494"/><use xlink:href="#L" x="243.824" y="131.248"/><use xlink:href="#L" x="150.707" y="154.005"/><use xlink:href="#L" x="280.949" y="210.082"/><use xlink:href="#L" x="500.19" y="406.66"/><use xlink:href="#L" x="205.383" y="39.406"/><use xlink:href="#L" x="439.682" y="498.199"/><use xlink:href="#L" x="439.903" y="476.657"/><use xlink:href="#L" x="437.629" y="455.67"/><use xlink:href="#L" x="377.716" y="368.904"/><use xlink:href="#L" x="302.695" y="142.231"/><use xlink:href="#L" x="249.665" y="53.794"/><use xlink:href="#L" x="255.535" y="83.277"/><use xlink:href="#L" x="337.607" y="132.104"/><use xlink:href="#L" x="277.193" y="95.214"/><use xlink:href="#L" x="292.815" y="71.667"/><use xlink:href="#L" x="518.988" y="415.031"/><use xlink:href="#L" x="498.978" y="354.351"/><use xlink:href="#L" x="483.588" y="323.813"/><use xlink:href="#L" x="476.65" y="350.142"/><use xlink:href="#L" x="552.896" y="374.854"/><use xlink:href="#L" x="220.742" y="164.407"/><use xlink:href="#L" x="374.123" y="117.209"/><use xlink:href="#L" x="226.697" y="143.938"/><use xlink:href="#L" x="172.03" y="111.478"/></g><defs><path id="M" d="M0 5a5 5 0 0 0 3.536-1.464A5 5 0 0 0 5 0a5 5 0 0 0-1.464-3.536A5 5 0 0 0 0-5a5 5 0 0 0-3.536 1.464A5 5 0 0 0-5 0a5 5 0 0 0 1.464 3.536A5 5 0 0 0 0 5z" stroke="red"/></defs><g clip-path="url(#N)"><use xlink:href="#M" x="341.09" y="611" fill="red" stroke="red"/></g><g fill="none" stroke-linecap="square" class="B C"><path d="M34.241 620.899V7.2m613.698 613.699V7.2M34.241 620.899H647.94"/><path d="M34.241 7.2h613.699"/></g><defs><clipPath id="N"><path d="M34.241 7.2h613.699v613.699H34.241z"/></clipPath></defs></svg>