<svg xmlns="http://www.w3.org/2000/svg" xmlns:xlink="http://www.w3.org/1999/xlink" width="873.519" height="877.94" viewBox="0 0 655.139 658.455" xmlns:v="https://vecta.io/nano"><style><![CDATA[.B{stroke:#000}.C{stroke-width:.8}]]></style><g fill="#fff"><path d="M0 658.455h655.139V0H0z"/><path d="M34.241 620.899h613.699V7.2H34.241z"/></g><g fill="#e3f3ff" stroke="#0055d4" stroke-width="1.5"><path d="M350 229.873l-4.269 55.263 52.598-38.041L350 229.873m200.524 70.814l-15.28 56.065 38.066-15.378-22.786-40.687m-312.006-6.884l-23.869-32.779-34.422 21.432 58.291 11.348"/><path d="M180.227 282.455l-1.275 63.96 37.849-17.174-36.574-46.786m73.888 118.569l30.262 35.433 30.95-57.073-61.212 21.641m124.974 59.533l-70.365 15.63 17.832 43.05 52.533-58.68"/><path d="M273.534 339.634l-56.733-10.393 1.881 41.521 54.852-31.128M183.576 91.74l56.78 10.817-12.691-56.39-44.088 45.574M171.041 242.96l9.186 39.495 34.422-21.432-43.608-18.063"/><path d="M216.801 329.241l-37.849 17.174 39.73 24.347-1.881-41.521m332.155 204.064l-64.343 2.511 4.952 43.293 59.39-45.804M126.222 64.698l57.354 27.041-.794-58.232-56.561 31.19m192.769 268.99l45.707 3.531-18.966-52.082-26.74 48.551M90.592 317.705l-5.811-50.101-40.643 46.445 46.453 3.656m224.736 61.679l3.663-45.696-45.456 5.947 41.793 39.749M44.139 195.269l41.745 29.695 4.452-50.449-46.197 20.754"/><path d="M90.592 317.705l45.31 10.878-14.62-38.907-30.69 28.029m246.351 110.329l-28.219 48.153 70.365-15.63-42.146-32.524M44.139 135.879l38.162-8.539 1.854-39.061-40.016 47.6m44.404-89.086l-4.388 41.485 42.067-23.58-37.679-17.905m91.684 235.662l-44.325 46.128 43.05 17.832 1.275-63.96M137.046 24.41l-92.907-7.312 44.404 29.695 48.503-22.383m-6.061 224.851l-45.101-24.297-1.102 42.64 46.203-18.343m286.987 271.99l.441-43.084-46.414 54.121 45.973-11.037"/><path d="M85.884 224.964l-41.745-29.695v59.39l41.745-29.695m292.995 349.343l-6.88-42.019-34.565 32.259 41.445 9.761m.21-113.75l-52.533 58.68 45.443 13.051 7.091-71.73M82.301 127.34l8.036 47.175 26.66-29.136-34.696-18.039M341.09 611h59.39l-21.601-36.693L341.09 611M121.282 289.676l-36.5-22.071 5.811 50.101 30.69-28.029m200.436-131.646l-15.698 47.667 72.756-22.383-57.058-25.284"/><path d="M417.972 521.251l-45.973 11.037 6.88 42.019 39.093-53.057M400.48 611h59.39l-29.695-40.792L400.48 611m-8.943-313.051l6.791-50.854-52.598 38.041 45.807 12.813m216.809 268.647l-17.905-37.679-23.58 42.067 41.485-4.388"/><path d="M548.956 533.305l13.53-37.64-38.51-10.808 24.98 48.448M392.261 399.919l-35.373-21.859-19.945 49.974 55.318-28.115m174.6 171.065L519.261 611h59.39l-11.79-40.016m-293.327-231.35l45.456-5.947-27.775-35.605-17.681 41.552m357.195 178.46l-22.383 48.503L638.041 611l-7.312-92.907"/><path d="M291.215 298.082l-52.697-4.279 35.016 45.831 17.681-41.552m-7.544-171.651l70.781-21.815-40.687-22.786-30.094 44.601M180.227 282.455l-58.945 7.221 14.62 38.907 44.325-46.128"/><path d="M255.877 214.466l-50.413 7.063 9.186 39.495 41.227-46.557m-37.195 156.295l35.433 30.262 19.419-61.39-54.852 31.128m118.261 57.272l-21.616-48.65-30.95 57.073 52.566-8.423M341.09 611l37.789-36.693-41.445-9.761L341.09 611m50.447-313.051l47.665 61.387 22.057-39.732-69.722-21.655"/><path d="M315.327 379.384l41.561-1.323-37.898-44.373-3.663 45.696m209.289-117.471l-18.699 66.109 44.607-27.335-25.908-38.774m-286.098 31.89l-21.717 35.439 56.733 10.393-35.016-45.831m133.481 238.484l-45.443-13.051 10.878 45.31 34.565-32.259m226.346-54.341l10.628-50.473-49.632 15.904 39.004 34.568M180.227 282.455l36.574 46.786 21.717-35.439-58.291-11.348m198.652 291.853L400.48 611l29.695-40.792-51.296 4.099"/><path d="M254.115 401.024l61.212-21.641-41.793-39.749-19.419 61.39m35.059-148.053l2.041 45.111 54.515-12.946-56.557-32.166m-158.188-3.709l-9.703 40.415 58.945-7.221-49.242-33.194"/><path d="M345.73 285.136l18.966 52.082 26.84-39.269-45.807-12.813"/><path d="M345.73 285.136l4.27-55.263-60.826 23.097 56.557 32.166m-26.741 48.551l37.898 44.373 7.809-40.842-45.707-3.531m159.885-68.821l-14.783-73.818-19.643 43.556 34.427 30.262"/><path d="M444.448 234.604l-27.275-32.764-18.844 45.255 46.119-12.491m-155.274 18.367l-33.297-38.505-41.227 46.557 74.525-8.052m56.555 32.165l-54.515 12.946 27.775 35.605 26.74-48.551m-107.212 8.667l52.697 4.279-2.041-45.111-50.656 40.832m153.019 4.146l-26.84 39.269 33.848 22.53-7.007-61.798"/><path d="M391.537 297.949l44.694-16.276-37.903-34.578-6.791 50.854m26.435 223.302l12.203 48.958 54.438-34.392-66.641-14.566m87.945-193.229l18.699-66.109-45.741 2.952 27.042 63.156"/><path d="M436.231 281.674l8.217-47.069-46.119 12.491 37.903 34.578m-6.385-122.28l-36.622-28.87-14.449 52.792 51.071-23.922"/><path d="M478.875 264.866l-34.427-30.262-8.217 47.069 42.644-16.808M321.719 158.031l57.058 25.284 14.449-52.792-71.507 27.508"/><path d="M436.231 281.674l-44.694 16.276 69.722 21.655-25.029-37.931m27.861-90.626l14.783 73.818 45.741-2.952-60.525-70.865"/><path d="M461.26 319.604l17.615-54.738-42.644 16.808 25.029 37.931m-9.782 97.41l40.562-36.335-52.837-21.344 12.275 57.679M417.172 201.84l27.275 32.764 19.643-43.556-46.919 10.792"/><path d="M464.091 191.048l-34.244-31.654-12.675 42.447 46.919-10.792m-257.99-63.112l34.255-25.381-56.78-10.817 22.524 36.198m83.074 125.034L350 229.873l-43.978-24.175-16.847 47.273m109.153-5.876l-19.552-63.78L350 229.873l48.329 17.222"/><path d="M429.847 159.394l-51.071 23.922 38.396 18.525 12.675-42.447"/><path d="M398.328 247.095l18.844-45.255-38.396-18.525 19.552 63.78M85.884 224.964l55.046-48.17-50.594-2.278-4.452 50.449m96.899-191.457l-45.737-9.098-10.824 40.288 56.561-31.19M44.139 17.098v59.39l44.404-29.695-44.404-29.695m40.016 71.181l4.388-41.485-44.404 29.695 40.016 11.79"/><path d="M44.139 135.879l40.016-47.6-40.016-11.79v59.39m82.083-71.181l-42.067 23.58 37.679 17.905 4.388-41.485"/><path d="M126.222 64.698l-4.388 41.485 61.742-14.444-57.354-27.041"/><path d="M137.046 24.41L88.543 46.793l37.679 17.905 10.824-40.288m-15.212 81.774l-4.837 39.195 43.487-14.163-38.65-25.033m83.63 115.345l50.413-7.063-8.584-54.526-41.829 61.589m384.977 307.389l40.288-10.824-32.384-40.146-7.904 50.97m-41.485 4.388l-24.98-48.448-34.252 14.224 59.232 34.223"/><path d="M590.441 528.917l17.905 37.679 22.383-48.503-40.288 10.824M578.651 611h59.39l-29.695-44.404L578.651 611m19.694-133.053l32.384 40.146-21.756-90.619-10.628 50.473"/><path d="M566.861 570.984l23.58-42.067-41.485 4.388 17.905 37.679m3.686-178.029l-40.912 4.467 29.705 45.957 11.206-50.424"/><path d="M590.441 528.917l7.904-50.97-35.859 17.719 27.955 33.252m-23.58 42.066l-17.905-37.679-59.39 45.804 77.295-8.125M578.651 611l29.695-44.404-41.485 4.388L578.651 611M379.089 460.558l39.323 17.609-4.548-41.974-34.776 24.365"/><path d="M523.976 484.858l38.51 10.808-3.145-52.287-35.365 41.479m46.571-91.903l-11.206 50.424 49.632-15.904-38.426-34.52"/><path d="M559.341 443.379l-51-10.739 15.635 52.218 35.365-41.479m49.632-15.905l-35.664-86.1-2.762 51.58 38.426 34.52M492.04 380.681l37.596 16.742 5.608-40.67-43.204 23.928m-2.316 118.401l18.617-66.442-46.948 42.507 28.331 23.935m-5.111 36.735l5.111-36.735-71.752 22.169 66.641 14.566m105.828-6.9l-27.955-33.252-13.53 37.64 41.485-4.388"/><path d="M559.341 443.379l3.145 52.287 35.859-17.719-39.004-34.568m-107.863-26.364l9.915 58.131 46.948-42.507-56.863-15.624m-79.479 115.273l46.414-54.121-39.323-17.609-7.091 71.73M459.87 611h59.39l-29.695-31.891L459.87 611m-80.991-36.693l51.296-4.099-12.203-48.958-39.093 53.057m110.845-75.225l34.252-14.224-15.635-52.218-18.617 66.442"/><path d="M430.175 570.209L459.87 611l29.695-31.891-59.39-8.901M84.782 267.604l1.102-42.64-41.745 29.695 40.643 12.945"/><path d="M85.884 224.964l45.101 24.297 9.945-72.467-55.046 48.17m-1.102 42.64l-40.643-12.945v59.39l40.643-46.445"/><path d="M130.985 249.261l-46.203 18.343 36.5 22.071 9.703-40.415"/><path d="M171.041 242.96l-30.112-66.167-9.945 72.467 40.056-6.301"/><path d="M140.93 176.794l64.534 44.735-11.272-52.654-53.262 7.92"/><path d="M116.996 145.379l-26.66 29.136 50.594 2.278-23.933-31.415m-72.858-9.499v59.39l46.197-20.754-46.197-38.637m150.053 32.996l11.909-40.937-45.617 3.279 33.708 37.657m-72.358-62.689L84.155 88.279l-1.854 39.061 39.533-21.156m167.34 146.787l-74.525 8.052 23.869 32.779 50.656-40.832m-118.133-10.01l43.608 18.063-9.186-39.495-34.422 21.432"/><path d="M140.93 176.794l30.112 66.167 34.422-21.432-64.534-44.735m-9.945 72.467l49.242 33.194-9.186-39.495-40.056 6.301m177.739 226.926l28.219-48.153-52.566 8.423 24.347 39.73"/><path d="M336.943 428.034l42.146 32.524 13.172-60.638-55.318 28.115m76.922 8.158l37.613-19.178-59.217-17.096 21.604 36.274m-15.321-76.445l-6.284 40.172 46.942-40.583-40.658.411m-19.767-176.433l-72.756 22.383L350 229.873l28.777-46.558m156.467 173.437l15.28-56.065-44.607 27.335 29.327 28.73"/><path d="M306.021 205.698l15.698-47.667-74.426 1.908 58.728 45.759"/><path d="M247.293 159.939l36.378-33.508-43.315-23.875 6.937 57.383m-86.81-28.723l-19.554 45.577 53.262-7.92-33.708-37.657m128.691 121.755l16.847-47.273-50.145 8.768 33.297 38.505"/><path d="M247.293 159.939l8.584 54.526 50.145-8.768-58.728-45.759M492.04 380.681l-40.562 36.335 56.863 15.624-16.301-51.959M183.576 91.74l44.088-45.574-44.882-12.658.794 58.232m208.685 308.179l59.217 17.096-12.275-57.679-46.942 40.583m25.711 121.332l43.421-46.104-42.98 3.02-.441 43.084"/><path d="M413.865 436.193l47.528 38.954-9.915-58.131-37.613 19.178m4.107 85.057l71.752-22.169-28.331-23.935-43.421 46.104m130.984 12.054l-59.232-34.223-5.111 36.735 64.343-2.511m-59.391 45.804L519.261 611l47.6-40.016-77.295 8.125m-59.391-8.9l59.39 8.901-4.952-43.293-54.438 34.392M90.336 174.515L82.3 127.34l-38.162 8.539 46.197 38.637m31.499-68.332L82.301 127.34l34.696 18.039 4.837-39.195"/><path d="M391.537 297.949l7.007 61.798 40.658-.411-47.665-61.387m-34.649 80.111l41.656-18.313-33.848-22.53-7.809 40.842m-19.944 49.975l19.945-49.974-41.561 1.323 21.616 48.65"/><path d="M398.544 359.748l-41.656 18.313 35.373 21.859 6.284-40.172M283.671 126.431l-36.378 33.508 74.426-1.908-38.048-31.6m-12.256-64.125l-43.751-16.14 12.691 56.39 31.059-40.25"/><path d="M354.452 104.616l-70.781 21.815 38.048 31.6 32.733-53.416m-83.037-42.309l12.256 64.125 30.094-44.601-42.349-19.523m258.22 335.115L492.04 380.68l16.301 51.959 21.295-35.218"/><path d="M283.671 126.431l-12.256-64.125-31.059 40.25 43.315 23.875m208.369 254.25l13.877-52.658-44.657-8.418 30.78 61.077m67.301 62.697l-29.705-45.957-21.295 35.218 51 10.739"/><path d="M535.244 356.752l35.304 36.202 2.762-51.58-38.066 15.378M379.089 460.558l34.776-24.365-21.604-36.274-13.172 60.638m82.304 14.59l-47.528-38.954 4.548 41.974 42.98-3.02"/><path d="M492.04 380.681l43.204-23.928-29.327-28.73-13.877 52.658m78.507 12.274l-35.304-36.202-5.608 40.67 40.912-4.467"/><path d="M492.04 380.681l-30.78-61.077-22.057 39.732 52.837 21.344m-13.165-115.814l-17.615 54.738 44.657 8.418-27.042-63.156m-273.411-43.338l41.829-61.589-53.101 8.935 11.272 52.654m116.255-63.497l71.507-27.508-38.774-25.908-32.733 53.416"/><path d="M247.293 159.939l-6.937-57.383-34.255 25.381 41.192 32.002m-86.81-28.723l45.617-3.279-22.524-36.198-23.093 39.477"/><path d="M247.293 159.939l-41.192-32.002-11.909 40.937 53.101-8.935m-125.459-53.755l38.65 25.033 23.093-39.477-61.742 14.444m19.095 70.61l19.554-45.577-43.487 14.163 23.933 31.415"/></g><defs><path id="A" d="M0 0v3.5" class="B C"/></defs><use xlink:href="#A" x="44.139" y="620.899" class="B C"/><g transform="matrix(.1 0 0 -.1 40.95774 635.497068)"><defs><path id="B" d="M2034 4250q-487 0-733-480-245-479-245-1442 0-959 245-1439 246-480 733-480 491 0 736 480 246 480 246 1439 0 963-246 1442-245 480-736 480zm0 500q785 0 1199-621 414-620 414-1801 0-1178-414-1799Q2819-91 2034-91q-784 0-1198 620-414 621-414 1799 0 1181 414 1801 414 621 1198 621z" transform="scale(.015625)"/></defs><use xlink:href="#B"/></g><use xlink:href="#A" x="143.123" y="620.899" class="B C"/><g transform="matrix(.1 0 0 -.1 139.94139 635.497068)"><defs><path id="C" d="M794 531h1031v3560L703 3866v575l1116 225h631V531h1031V0H794v531z" transform="scale(.015625)"/></defs><use xlink:href="#C"/></g><use xlink:href="#A" x="242.106" y="620.899" class="B C"/><g transform="matrix(.1 0 0 -.1 238.92504 635.497068)"><defs><path id="D" d="M1228 531h2203V0H469v531q359 372 979 998 621 627 780 809 303 340 423 576 121 236 121 464 0 372-261 606-261 235-680 235-297 0-627-103-329-103-704-313v638q381 153 712 231 332 78 607 78 725 0 1156-363 431-362 431-968 0-288-108-546-107-257-392-607-78-91-497-524-418-433-1181-1211z" transform="scale(.015625)"/></defs><use xlink:href="#D"/></g><use xlink:href="#A" x="341.09" y="620.899" class="B C"/><g transform="matrix(.1 0 0 -.1 337.90869 635.497068)"><defs><path id="E" d="M2597 2516q453-97 707-404 255-306 255-756 0-690-475-1069Q2609-91 1734-91q-293 0-604 58-311 58-642 174v609q262-153 574-231 313-78 654-78 593 0 904 234 311 234 311 681 0 413-289 645-289 233-804 233h-544v519h569q465 0 712 186 247 186 247 536 0 359-255 551-254 193-729 193-260 0-557-57-297-56-653-174v562q360 100 674 150 314 50 592 50 719 0 1137-327 419-326 419-882 0-388-222-655-222-267-631-370z" transform="scale(.015625)"/></defs><use xlink:href="#E"/></g><use xlink:href="#A" x="440.074" y="620.899" class="B C"/><g transform="matrix(.1 0 0 -.1 436.89234 635.497068)"><defs><path id="F" d="M2419 4116L825 1625h1594v2491zm-166 550h794V1625h666v-525h-666V0h-628v1100H313v609l1940 2957z" transform="scale(.015625)"/></defs><use xlink:href="#F"/></g><use xlink:href="#A" x="539.057" y="620.899" class="B C"/><g transform="matrix(.1 0 0 -.1 535.87599 635.497068)"><defs><path id="G" d="M691 4666h2478v-532H1269V2991q137 47 274 70 138 23 276 23 781 0 1237-428 457-428 457-1159 0-753-469-1171Q2575-91 1722-91q-294 0-599 50Q819 9 494 109v635q281-153 581-228 300-75 634-75 541 0 856 284 316 284 316 772 0 487-316 771-315 285-856 285-253 0-505-56-251-56-513-175v2344z" transform="scale(.015625)"/></defs><use xlink:href="#G"/></g><use xlink:href="#A" x="638.041" y="620.899" class="B C"/><g transform="matrix(.1 0 0 -.1 634.85964 635.497068)"><defs><path id="H" d="M2113 2584q-425 0-674-291-248-290-248-796 0-503 248-796 249-292 674-292 425 0 673 292 248 293 248 796 0 506-248 796-248 291-673 291zm1253 1979v-575q-238 112-480 171-242 60-480 60-625 0-955-422-329-422-376-1275 184 272 462 417 279 145 613 145 703 0 1111-427 408-426 408-1160 0-719-425-1154Q2819-91 2113-91q-810 0-1238 620-428 621-428 1799 0 1106 525 1764 525 658 1409 658 238 0 480-47 242-47 505-140z" transform="scale(.015625)"/></defs><use xlink:href="#H"/></g><g transform="matrix(.1 0 0 -.1 338.130565 649.175193)"><defs><path id="I" d="M3513 3500L2247 1797 3578 0h-678L1881 1375 863 0H184l1360 1831L300 3500h678l928-1247 928 1247h679z" transform="scale(.015625)"/></defs><use xlink:href="#I"/></g><defs><path id="J" d="M0 0h-3.5" class="B C"/></defs><use xlink:href="#J" x="34.241" y="611" class="B C"/><use xlink:href="#B" transform="matrix(.1 0 0 -.1 20.878125 614.799484)"/><use xlink:href="#J" x="34.241" y="512.017" class="B C"/><use xlink:href="#C" transform="matrix(.1 0 0 -.1 20.878125 515.815834)"/><use xlink:href="#J" x="34.241" y="413.033" class="B C"/><use xlink:href="#D" transform="matrix(.1 0 0 -.1 20.878125 416.832184)"/><use xlink:href="#J" x="34.241" y="314.049" class="B C"/><use xlink:href="#E" transform="matrix(.1 0 0 -.1 20.878125 317.848534)"/><use xlink:href="#J" x="34.241" y="215.066" class="B C"/><use xlink:href="#F" transform="matrix(.1 0 0 -.1 20.878125 218.864884)"/><use xlink:href="#J" x="34.241" y="116.082" class="B C"/><use xlink:href="#G" transform="matrix(.1 0 0 -.1 20.878125 119.881234)"/><use xlink:href="#J" x="34.241" y="17.098" class="B C"/><use xlink:href="#H" transform="matrix(.1 0 0 -.1 20.878125 20.897584)"/><g transform="matrix(0 -.1 -.1 0 14.798438 317.00869)"><defs><path id="K" d="M2059-325q-243-625-475-815-231-191-618-191H506v481h338q237 0 368 113 132 112 291 531l103 262L191 3500h609L1894 763l1094 2737h609L2059-325z" transform="scale(.015625)"/></defs><use xlink:href="#K"/></g><defs><path id="L" d="M0 3a3 3 0 0 0 2.121-.879A3 3 0 0 0 3 0a3 3 0 0 0-.879-2.121A3 3 0 0 0 0-3a3 3 0 0 0-2.121.879A3 3 0 0 0-3 0a3 3 0 0 0 .879 2.121A3 3 0 0 0 0 3z" stroke="#fff"/></defs><g stroke="#fff"><use xlink:href="#L" x="341.09" y="611"/><use xlink:href="#L" x="400.48" y="611"/><use xlink:href="#L" x="459.87" y="611"/><use xlink:href="#L" x="519.261" y="611"/><use xlink:href="#L" x="578.651" y="611"/><use xlink:href="#L" x="638.041" y="611"/><use xlink:href="#L" x="630.729" y="518.094"/><use xlink:href="#L" x="608.973" y="427.474"/><use xlink:href="#L" x="573.309" y="341.374"/><use xlink:href="#L" x="524.616" y="261.913"/><use xlink:href="#L" x="464.091" y="191.048"/><use xlink:href="#L" x="393.226" y="130.524"/><use xlink:href="#L" x="313.765" y="81.83"/><use xlink:href="#L" x="227.665" y="46.166"/><use xlink:href="#L" x="137.046" y="24.41"/><use xlink:href="#L" x="44.139" y="17.098"/><use xlink:href="#L" x="44.139" y="76.489"/><use xlink:href="#L" x="44.139" y="135.879"/><use xlink:href="#L" x="44.139" y="195.269"/><use xlink:href="#L" x="44.139" y="254.659"/><use xlink:href="#L" x="44.139" y="314.049"/><use xlink:href="#L" x="90.592" y="317.705"/><use xlink:href="#L" x="135.902" y="328.583"/><use xlink:href="#L" x="178.952" y="346.415"/><use xlink:href="#L" x="218.682" y="370.762"/><use xlink:href="#L" x="254.115" y="401.024"/><use xlink:href="#L" x="284.377" y="436.457"/><use xlink:href="#L" x="308.724" y="476.187"/><use xlink:href="#L" x="326.556" y="519.237"/><use xlink:href="#L" x="337.434" y="564.547"/><use xlink:href="#L" x="205.464" y="221.528"/><use xlink:href="#L" x="364.697" y="337.218"/><use xlink:href="#L" x="417.972" y="521.251"/><use xlink:href="#L" x="130.985" y="249.261"/><use xlink:href="#L" x="238.518" y="293.803"/><use xlink:href="#L" x="315.327" y="379.384"/><use xlink:href="#L" x="371.999" y="532.288"/><use xlink:href="#L" x="121.282" y="289.676"/><use xlink:href="#L" x="180.227" y="282.455"/><use xlink:href="#L" x="216.801" y="329.241"/><use xlink:href="#L" x="273.534" y="339.634"/><use xlink:href="#L" x="378.879" y="574.307"/><use xlink:href="#L" x="379.089" y="460.558"/><use xlink:href="#L" x="318.99" y="333.687"/><use xlink:href="#L" x="350" y="229.873"/><use xlink:href="#L" x="345.73" y="285.136"/><use xlink:href="#L" x="436.231" y="281.674"/><use xlink:href="#L" x="289.174" y="252.971"/><use xlink:href="#L" x="291.215" y="298.082"/><use xlink:href="#L" x="391.537" y="297.949"/><use xlink:href="#L" x="439.203" y="359.336"/><use xlink:href="#L" x="398.328" y="247.095"/><use xlink:href="#L" x="444.448" y="234.604"/><use xlink:href="#L" x="478.875" y="264.866"/><use xlink:href="#L" x="505.917" y="328.022"/><use xlink:href="#L" x="429.847" y="159.394"/><use xlink:href="#L" x="321.719" y="158.031"/><use xlink:href="#L" x="378.777" y="183.315"/><use xlink:href="#L" x="417.172" y="201.84"/><use xlink:href="#L" x="121.834" y="106.184"/><use xlink:href="#L" x="88.543" y="46.793"/><use xlink:href="#L" x="84.155" y="88.279"/><use xlink:href="#L" x="126.222" y="64.698"/><use xlink:href="#L" x="183.576" y="91.74"/><use xlink:href="#L" x="548.956" y="533.305"/><use xlink:href="#L" x="608.346" y="566.596"/><use xlink:href="#L" x="590.441" y="528.917"/><use xlink:href="#L" x="598.345" y="477.947"/><use xlink:href="#L" x="566.861" y="570.984"/><use xlink:href="#L" x="508.341" y="432.64"/><use xlink:href="#L" x="559.341" y="443.379"/><use xlink:href="#L" x="570.547" y="392.955"/><use xlink:href="#L" x="523.976" y="484.858"/><use xlink:href="#L" x="562.486" y="495.666"/><use xlink:href="#L" x="461.393" y="475.147"/><use xlink:href="#L" x="430.175" y="570.209"/><use xlink:href="#L" x="484.613" y="535.817"/><use xlink:href="#L" x="85.884" y="224.964"/><use xlink:href="#L" x="84.782" y="267.604"/><use xlink:href="#L" x="140.93" y="176.794"/><use xlink:href="#L" x="90.336" y="174.515"/><use xlink:href="#L" x="116.996" y="145.379"/><use xlink:href="#L" x="214.649" y="261.023"/><use xlink:href="#L" x="171.041" y="242.96"/><use xlink:href="#L" x="336.943" y="428.034"/><use xlink:href="#L" x="392.261" y="399.919"/><use xlink:href="#L" x="550.524" y="300.687"/><use xlink:href="#L" x="306.021" y="205.698"/><use xlink:href="#L" x="247.293" y="159.939"/><use xlink:href="#L" x="255.877" y="214.466"/><use xlink:href="#L" x="182.783" y="33.508"/><use xlink:href="#L" x="451.478" y="417.015"/><use xlink:href="#L" x="418.413" y="478.167"/><use xlink:href="#L" x="489.724" y="499.082"/><use xlink:href="#L" x="489.565" y="579.11"/><use xlink:href="#L" x="82.301" y="127.34"/><use xlink:href="#L" x="398.544" y="359.748"/><use xlink:href="#L" x="356.888" y="378.06"/><use xlink:href="#L" x="240.356" y="102.556"/><use xlink:href="#L" x="283.671" y="126.431"/><use xlink:href="#L" x="271.415" y="62.306"/><use xlink:href="#L" x="492.04" y="380.681"/><use xlink:href="#L" x="529.636" y="397.422"/><use xlink:href="#L" x="413.865" y="436.193"/><use xlink:href="#L" x="535.244" y="356.752"/><use xlink:href="#L" x="461.26" y="319.604"/><use xlink:href="#L" x="354.452" y="104.616"/><use xlink:href="#L" x="194.192" y="168.874"/><use xlink:href="#L" x="206.101" y="127.937"/><use xlink:href="#L" x="160.483" y="131.216"/></g><defs><path id="M" d="M0 5a5 5 0 0 0 3.536-1.464A5 5 0 0 0 5 0a5 5 0 0 0-1.464-3.536A5 5 0 0 0 0-5a5 5 0 0 0-3.536 1.464A5 5 0 0 0-5 0a5 5 0 0 0 1.464 3.536A5 5 0 0 0 0 5z" stroke="red"/></defs><g clip-path="url(#N)"><use xlink:href="#M" x="341.09" y="611" fill="red" stroke="red"/></g><g fill="none" stroke-linecap="square" class="B C"><path d="M34.241 620.899V7.2m613.698 613.699V7.2M34.241 620.899H647.94"/><path d="M34.241 7.2h613.699"/></g><defs><clipPath id="N"><path d="M34.241 7.2h613.699v613.699H34.241z"/></clipPath></defs></svg>