<svg xmlns="http://www.w3.org/2000/svg" xmlns:xlink="http://www.w3.org/1999/xlink" width="489.297" height="415.212" viewBox="0 0 366.973 311.409" xmlns:v="https://vecta.io/nano"><style><![CDATA[.B{clip-path:url(#m)}.C{fill:none}.D{stroke:#000}.E{stroke-width:.8}.F{stroke-linecap:square}.G{stroke-width:1.5}.H{stroke-dasharray:2.96,1.28}.I{stroke:gray}.J{stroke-width:.6}.K{stroke:#1f77b4}.L{stroke-linejoin:miter}.M{stroke:#ff7f0e}.N{stroke:#2ca02c}.O{stroke:#d62728}.P{stroke:#9467bd}.Q{stroke:#8c564b}.R{stroke-linejoin:bevel}]]></style><g fill="#fff"><path d="M0 311.409h366.973V0H0z"/><path d="M49.978 273.852h309.795V7.74H49.978z"/></g><path d="M59.155 273.852V7.74" class="B C E H I"/><defs><path id="A" d="M0 0v3.5" class="D E"/></defs><use xlink:href="#A" x="59.155" y="273.852" class="D E"/><g transform="matrix(.1 0 0 -.1 50.354563 288.450709)"><defs><path id="B" d="M794 531h1031v3560L703 3866v575l1116 225h631V531h1031V0H794v531z" transform="scale(.015625)"/><path id="C" d="M2034 4250q-487 0-733-480-245-479-245-1442 0-959 245-1439 246-480 733-480 491 0 736 480 246 480 246 1439 0 963-246 1442-245 480-736 480zm0 500q785 0 1199-621 414-620 414-1801 0-1178-414-1799Q2819-91 2034-91q-784 0-1198 620-414 621-414 1799 0 1181 414 1801 414 621 1198 621z" transform="scale(.015625)"/></defs><use xlink:href="#B" y=".684"/><use xlink:href="#C" x="63.623" y=".684"/><use xlink:href="#B" transform="matrix(.7 0 0 .7 128.203125 38.965625)"/></g><g class="E"><path d="M121.103 273.852V7.74" class="B C H I"/><use xlink:href="#A" x="121.103" y="273.852" class="D"/></g><g transform="matrix(.1 0 0 -.1 112.302785 288.450709)"><defs><path id="D" d="M1228 531h2203V0H469v531q359 372 979 998 621 627 780 809 303 340 423 576 121 236 121 464 0 372-261 606-261 235-680 235-297 0-627-103-329-103-704-313v638q381 153 712 231 332 78 607 78 725 0 1156-363 431-362 431-968 0-288-108-546-107-257-392-607-78-91-497-524-418-433-1181-1211z" transform="scale(.015625)"/></defs><use xlink:href="#B" y=".766"/><use xlink:href="#C" x="63.623" y=".766"/><use xlink:href="#D" transform="matrix(.7 0 0 .7 128.203125 39.046875)"/></g><g class="E"><path d="M183.051 273.852V7.74" class="B C H I"/><use xlink:href="#A" x="183.051" y="273.852" class="D"/></g><g transform="matrix(.1 0 0 -.1 174.251007 288.450709)"><defs><path id="E" d="M2597 2516q453-97 707-404 255-306 255-756 0-690-475-1069Q2609-91 1734-91q-293 0-604 58-311 58-642 174v609q262-153 574-231 313-78 654-78 593 0 904 234 311 234 311 681 0 413-289 645-289 233-804 233h-544v519h569q465 0 712 186 247 186 247 536 0 359-255 551-254 193-729 193-260 0-557-57-297-56-653-174v562q360 100 674 150 314 50 592 50 719 0 1137-327 419-326 419-882 0-388-222-655-222-267-631-370z" transform="scale(.015625)"/></defs><use xlink:href="#B" y=".766"/><use xlink:href="#C" x="63.623" y=".766"/><use xlink:href="#E" transform="matrix(.7 0 0 .7 128.203125 39.046875)"/></g><g class="E"><path d="M244.999 273.852V7.74" class="B C H I"/><use xlink:href="#A" x="244.999" y="273.852" class="D"/></g><g transform="matrix(.1 0 0 -.1 236.199229 288.450709)"><defs><path id="F" d="M2419 4116L825 1625h1594v2491zm-166 550h794V1625h666v-525h-666V0h-628v1100H313v609l1940 2957z" transform="scale(.015625)"/></defs><use xlink:href="#B" y=".684"/><use xlink:href="#C" x="63.623" y=".684"/><use xlink:href="#F" transform="matrix(.7 0 0 .7 128.203125 38.965625)"/></g><g class="E"><path d="M306.947 273.852V7.74" class="B C H I"/><use xlink:href="#A" x="306.947" y="273.852" class="D"/></g><g transform="matrix(.1 0 0 -.1 298.147451 288.450709)"><defs><path id="G" d="M691 4666h2478v-532H1269V2991q137 47 274 70 138 23 276 23 781 0 1237-428 457-428 457-1159 0-753-469-1171Q2575-91 1722-91q-294 0-599 50Q819 9 494 109v635q281-153 581-228 300-75 634-75 541 0 856 284 316 284 316 772 0 487-316 771-315 285-856 285-253 0-505-56-251-56-513-175v2344z" transform="scale(.015625)"/></defs><use xlink:href="#B" y=".684"/><use xlink:href="#C" x="63.623" y=".684"/><use xlink:href="#G" transform="matrix(.7 0 0 .7 128.203125 38.965625)"/></g><defs><path id="H" d="M0 0v2" class="D J"/></defs><g class="D J"><use xlink:href="#H" x="53.151" y="273.852"/><use xlink:href="#H" x="56.32" y="273.852"/><use xlink:href="#H" x="77.803" y="273.852"/><use xlink:href="#H" x="88.711" y="273.852"/><use xlink:href="#H" x="96.451" y="273.852"/><use xlink:href="#H" x="102.455" y="273.852"/><use xlink:href="#H" x="107.36" y="273.852"/><use xlink:href="#H" x="111.507" y="273.852"/><use xlink:href="#H" x="115.099" y="273.852"/><use xlink:href="#H" x="118.268" y="273.852"/><use xlink:href="#H" x="139.751" y="273.852"/><use xlink:href="#H" x="150.66" y="273.852"/><use xlink:href="#H" x="158.399" y="273.852"/><use xlink:href="#H" x="164.403" y="273.852"/><use xlink:href="#H" x="169.308" y="273.852"/><use xlink:href="#H" x="173.455" y="273.852"/><use xlink:href="#H" x="177.048" y="273.852"/><use xlink:href="#H" x="180.216" y="273.852"/><use xlink:href="#H" x="201.699" y="273.852"/><use xlink:href="#H" x="212.608" y="273.852"/><use xlink:href="#H" x="220.348" y="273.852"/><use xlink:href="#H" x="226.351" y="273.852"/><use xlink:href="#H" x="231.256" y="273.852"/><use xlink:href="#H" x="235.403" y="273.852"/><use xlink:href="#H" x="238.996" y="273.852"/><use xlink:href="#H" x="242.165" y="273.852"/><use xlink:href="#H" x="263.648" y="273.852"/><use xlink:href="#H" x="274.556" y="273.852"/><use xlink:href="#H" x="282.296" y="273.852"/><use xlink:href="#H" x="288.299" y="273.852"/><use xlink:href="#H" x="293.204" y="273.852"/><use xlink:href="#H" x="297.352" y="273.852"/><use xlink:href="#H" x="300.944" y="273.852"/><use xlink:href="#H" x="304.113" y="273.852"/><use xlink:href="#H" x="325.596" y="273.852"/><use xlink:href="#H" x="336.504" y="273.852"/><use xlink:href="#H" x="344.244" y="273.852"/><use xlink:href="#H" x="350.247" y="273.852"/><use xlink:href="#H" x="355.153" y="273.852"/><use xlink:href="#H" x="359.3" y="273.852"/></g><g transform="matrix(.1 0 0 -.1 190.473108 302.128834)"><defs><path id="I" d="M628 4666h850L3547 763v3903h612V0h-850L1241 3903V0H628v4666z" transform="scale(.015625)"/><path id="J" d="M1259 4147V519h763q966 0 1414 437 448 438 448 1382 0 937-448 1373-448 436-1414 436h-763zm-631 519h1297q1356 0 1990-564 635-564 635-1764 0-1207-638-1773Q3275 0 1925 0H628v4666z" transform="scale(.015625)"/><path id="K" d="M2522 4238q-688 0-1093-513-404-512-404-1397 0-881 404-1394 405-512 1093-512 687 0 1089 512 402 513 402 1394 0 885-402 1397-402 513-1089 513zm0 512q981 0 1568-658 588-658 588-1764 0-1103-588-1761Q3503-91 2522-91q-984 0-1574 656-589 657-589 1763 0 1106 589 1764 590 658 1574 658z" transform="scale(.015625)"/><path id="L" d="M628 4666h2681v-532H1259V2759h1850v-531H1259V0H628v4666z" transform="scale(.015625)"/></defs><use xlink:href="#I"/><use xlink:href="#J" x="74.805"/><use xlink:href="#K" x="151.807"/><use xlink:href="#L" x="230.518"/></g><path d="M49.978 258.792h309.795" class="B C E H I"/><defs><path id="M" d="M0 0h-3.5" class="D E"/></defs><use xlink:href="#M" x="49.978" y="258.792" class="D E"/><g transform="matrix(.1 0 0 -.1 25.378125 262.591326)"><defs><path id="N" d="M2113 2584q-425 0-674-291-248-290-248-796 0-503 248-796 249-292 674-292 425 0 673 292 248 293 248 796 0 506-248 796-248 291-673 291zm1253 1979v-575q-238 112-480 171-242 60-480 60-625 0-955-422-329-422-376-1275 184 272 462 417 279 145 613 145 703 0 1111-427 408-426 408-1160 0-719-425-1154Q2819-91 2113-91q-810 0-1238 620-428 621-428 1799 0 1106 525 1764 525 658 1409 658 238 0 480-47 242-47 505-140z" transform="scale(.015625)"/></defs><use xlink:href="#B" y=".766"/><use xlink:href="#C" x="63.623" y=".766"/><use xlink:href="#N" transform="matrix(.7 0 0 .7 128.203125 39.046875)"/></g><g class="E"><path d="M49.978 196.844h309.795" class="B C H I"/><use xlink:href="#M" x="49.978" y="196.844" class="D"/></g><g transform="matrix(.1 0 0 -.1 25.378125 200.643104)"><defs><path id="O" d="M525 4666h3000v-269L1831 0h-659l1594 4134H525v532z" transform="scale(.015625)"/></defs><use xlink:href="#B" y=".684"/><use xlink:href="#C" x="63.623" y=".684"/><use xlink:href="#O" transform="matrix(.7 0 0 .7 128.203125 38.965625)"/></g><g class="E"><path d="M49.978 134.896h309.795" class="B C H I"/><use xlink:href="#M" x="49.978" y="134.896" class="D"/></g><g transform="matrix(.1 0 0 -.1 25.378125 138.694882)"><defs><path id="P" d="M2034 2216q-450 0-708-241-257-241-257-662 0-422 257-663 258-241 708-241 450 0 709 242 260 243 260 662 0 421-258 662-257 241-711 241zm-631 268q-406 100-633 378-226 279-226 679 0 559 398 884 399 325 1092 325 697 0 1094-325 397-325 397-884 0-400-227-679-226-278-629-378 456-106 710-416 255-309 255-755 0-679-414-1042Q2806-91 2034-91q-771 0-1186 362-414 363-414 1042 0 446 256 755 257 310 713 416zm-231 997q0-362 226-565 227-203 636-203 407 0 636 203 230 203 230 565 0 363-230 566-229 203-636 203-409 0-636-203-226-203-226-566z" transform="scale(.015625)"/></defs><use xlink:href="#B" y=".766"/><use xlink:href="#C" x="63.623" y=".766"/><use xlink:href="#P" transform="matrix(.7 0 0 .7 128.203125 39.046875)"/></g><g class="E"><path d="M49.978 72.947h309.795" class="B C H I"/><use xlink:href="#M" x="49.978" y="72.947" class="D"/></g><g transform="matrix(.1 0 0 -.1 25.378125 76.74666)"><defs><path id="Q" d="M703 97v575q238-113 481-172 244-59 479-59 625 0 954 420 330 420 377 1277-181-269-460-413-278-144-615-144-700 0-1108 423-408 424-408 1159 0 718 425 1152 425 435 1131 435 810 0 1236-621 427-620 427-1801 0-1103-524-1761Q2575-91 1691-91q-238 0-482 47Q966 3 703 97zm1256 1978q425 0 673 290 249 291 249 798 0 503-249 795-248 292-673 292-425 0-673-292-248-292-248-795 0-507 248-798 248-290 673-290z" transform="scale(.015625)"/></defs><use xlink:href="#B" y=".766"/><use xlink:href="#C" x="63.623" y=".766"/><use xlink:href="#Q" transform="matrix(.7 0 0 .7 128.203125 39.046875)"/></g><g class="E"><path d="M49.978 10.999h309.795" class="B C H I"/><use xlink:href="#M" x="49.978" y="10.999" class="D"/></g><g transform="matrix(.1 0 0 -.1 20.878125 14.798438)"><use xlink:href="#B" y=".766"/><use xlink:href="#C" x="63.623" y=".766"/><use xlink:href="#B" transform="matrix(.7 0 0 .7 128.203125 39.046875)"/><use xlink:href="#C" transform="matrix(.7 0 0 .7 172.739258 39.046875)"/></g><defs><path id="R" d="M0 0h-2" class="D J"/></defs><g class="D J"><use xlink:href="#R" x="49.978" y="272.535"/><use xlink:href="#R" x="49.978" y="268.388"/><use xlink:href="#R" x="49.978" y="264.796"/><use xlink:href="#R" x="49.978" y="261.627"/><use xlink:href="#R" x="49.978" y="240.144"/><use xlink:href="#R" x="49.978" y="229.235"/><use xlink:href="#R" x="49.978" y="221.496"/><use xlink:href="#R" x="49.978" y="215.492"/><use xlink:href="#R" x="49.978" y="210.587"/><use xlink:href="#R" x="49.978" y="206.44"/><use xlink:href="#R" x="49.978" y="202.847"/><use xlink:href="#R" x="49.978" y="199.678"/><use xlink:href="#R" x="49.978" y="178.196"/><use xlink:href="#R" x="49.978" y="167.287"/><use xlink:href="#R" x="49.978" y="159.547"/><use xlink:href="#R" x="49.978" y="153.544"/><use xlink:href="#R" x="49.978" y="148.639"/><use xlink:href="#R" x="49.978" y="144.492"/><use xlink:href="#R" x="49.978" y="140.899"/><use xlink:href="#R" x="49.978" y="137.73"/><use xlink:href="#R" x="49.978" y="116.247"/><use xlink:href="#R" x="49.978" y="105.339"/><use xlink:href="#R" x="49.978" y="97.599"/><use xlink:href="#R" x="49.978" y="91.596"/><use xlink:href="#R" x="49.978" y="86.691"/><use xlink:href="#R" x="49.978" y="82.543"/><use xlink:href="#R" x="49.978" y="78.951"/><use xlink:href="#R" x="49.978" y="75.782"/><use xlink:href="#R" x="49.978" y="54.299"/><use xlink:href="#R" x="49.978" y="43.391"/><use xlink:href="#R" x="49.978" y="35.651"/><use xlink:href="#R" x="49.978" y="29.647"/><use xlink:href="#R" x="49.978" y="24.742"/><use xlink:href="#R" x="49.978" y="20.595"/><use xlink:href="#R" x="49.978" y="17.003"/><use xlink:href="#R" x="49.978" y="13.834"/></g><g transform="matrix(0 -.1 -.1 0 14.798438 164.062678)"><defs><path id="S" d="M-19 4666h3947v-532H2272V0h-634v4134H-19v532z" transform="scale(.015625)"/><path id="T" d="M628 4666h631V0H628v4666z" transform="scale(.015625)"/><path id="U" d="M628 4666h941l1190-3175 1197 3175h941V0h-616v4097L3078 897h-634L1241 4097V0H628v4666z" transform="scale(.015625)"/><path id="V" d="M628 4666h2950v-532H1259V2753h2222v-531H1259V531h2375V0H628v4666z" transform="scale(.015625)"/><path id="W" d="M550 4863h1325v-447h-750V-397h750v-447H550v5707z" transform="scale(.015625)"/><path id="X" d="M3513 2113V0h-575v2094q0 497-194 743-194 247-581 247-466 0-735-297-269-296-269-809V0H581v3500h578v-544q207 316 486 472 280 156 646 156 603 0 912-373 310-373 310-1098z" transform="scale(.015625)"/><path id="Y" d="M2834 3397v-544q-243 125-506 187-262 63-544 63-428 0-642-131-214-131-214-394 0-200 153-314 153-114 616-217l197-44q612-131 870-370 258-239 258-667 0-488-386-773Q2250-91 1575-91q-281 0-586 55-305 55-642 164v594q319-166 628-249 309-82 613-82 406 0 624 139 219 139 219 392 0 234-158 359-157 125-692 241l-200 47q-534 112-772 345-237 233-237 639 0 494 350 762 350 269 994 269 318 0 599-47 282-46 519-140z" transform="scale(.015625)"/><path id="Z" d="M1947 4863V-844H622v447h747v4813H622v447h1325z" transform="scale(.015625)"/></defs><use xlink:href="#S"/><use xlink:href="#T" x="61.084"/><use xlink:href="#U" x="90.576"/><use xlink:href="#V" x="176.855"/><use xlink:href="#DO" x="240.039"/><use xlink:href="#W" x="271.826"/><use xlink:href="#X" x="310.84"/><use xlink:href="#Y" x="374.219"/><use xlink:href="#Z" x="426.318"/></g><path d="M181.628 214.175h61.959v-61.959z" fill="#f7f7f7" class="B D"/><path d="M100.211 228.146l42.104-2.458 70.507-72.22 48.827-50.153 46.85-49.266" class="B C F G K"/><defs><path id="a" d="M0-3l-3 6h6z" class="K L"/></defs><g fill="#1f77b4" class="B K"><use xlink:href="#a" x="100.211" y="228.146"/><use xlink:href="#a" x="142.315" y="225.688"/><use xlink:href="#a" x="212.822" y="153.468"/><use xlink:href="#a" x="261.649" y="103.315"/><use xlink:href="#a" x="308.499" y="54.049"/></g><path d="M132.011 224.244l45.17-23.463 72.316-75.561 49.202-54.719 46.992-50.665" class="B C F G M"/><defs><path id="b" d="M0 3l3-6h-6z" class="L M"/></defs><g fill="#ff7f0e" class="B M"><use xlink:href="#b" x="132.011" y="224.244"/><use xlink:href="#b" x="177.182" y="200.781"/><use xlink:href="#b" x="249.498" y="125.22"/><use xlink:href="#b" x="298.699" y="70.501"/><use xlink:href="#b" x="345.691" y="19.836"/></g><path d="M64.06 237.631l24.652 24.125 29.557-23.52 32.924-12.12 11.084-7.954 23.872-26.756 36.083-41.533 23.569-26.618" class="B C F G N"/><defs><path id="c" d="M-3 3h6v-6h-6z" class="L N"/></defs><g fill="#2ca02c" class="B N"><use xlink:href="#c" x="64.06" y="237.631"/><use xlink:href="#c" x="88.711" y="261.756"/><use xlink:href="#c" x="118.268" y="238.236"/><use xlink:href="#c" x="151.192" y="226.116"/><use xlink:href="#c" x="162.276" y="218.162"/><use xlink:href="#c" x="186.148" y="191.406"/><use xlink:href="#c" x="222.231" y="149.872"/><use xlink:href="#c" x="245.8" y="123.254"/></g><path d="M84.861 231.822l28.14 26.365 31.878-23.055 34.301-30.824 11.381-11.809 24.332-35.928 36.481-37.718 23.716-25.416" class="B C F G O"/><defs><path id="d" d="M0 4.243L4.243 0 0-4.243-4.243 0z" class="L O"/></defs><g fill="#d62728" class="B O"><use xlink:href="#d" x="84.861" y="231.822"/><use xlink:href="#d" x="113.002" y="258.188"/><use xlink:href="#d" x="144.879" y="235.133"/><use xlink:href="#d" x="179.18" y="204.309"/><use xlink:href="#d" x="190.561" y="192.5"/><use xlink:href="#d" x="214.893" y="156.572"/><use xlink:href="#d" x="251.375" y="118.855"/><use xlink:href="#d" x="275.091" y="93.438"/></g><path d="M88.711 237.124l29.557 14.681 32.924-24.231 34.956-30.097 11.525-18.234 24.558-31.921 36.678-30.955 23.789-25.958" class="B C F G P"/><defs><path id="e" d="M-3 3l6-6m-6 0l6 6" class="P"/></defs><g fill="#9467bd" class="B P"><use xlink:href="#e" x="88.711" y="237.124"/><use xlink:href="#e" x="118.268" y="251.805"/><use xlink:href="#e" x="151.192" y="227.574"/><use xlink:href="#e" x="186.148" y="197.478"/><use xlink:href="#e" x="197.673" y="179.244"/><use xlink:href="#e" x="222.231" y="147.323"/><use xlink:href="#e" x="258.909" y="116.368"/><use xlink:href="#e" x="282.698" y="90.41"/></g><path d="M106.448 235.807l30.168 17.43 33.137-50.26 35.02-28.453 11.533-23.351 24.567-31.547 36.683-28.767 23.79-33.41" class="B C F G Q"/><defs><path id="f" d="M0-3L-.674-.927h-2.18L-1.09.354l-.674 2.073L0 1.146l1.763 1.281L1.09.354 2.853-.927H.674z" class="Q R"/></defs><g fill="#8c564b" class="B Q R"><use xlink:href="#f" x="106.448" y="235.807"/><use xlink:href="#f" x="136.616" y="253.237"/><use xlink:href="#f" x="169.753" y="202.978"/><use xlink:href="#f" x="204.772" y="174.525"/><use xlink:href="#f" x="216.305" y="151.174"/><use xlink:href="#f" x="240.873" y="119.627"/><use xlink:href="#f" x="277.555" y="90.86"/><use xlink:href="#f" x="301.345" y="57.45"/></g><g class="C D E F"><path d="M49.978 273.852V7.74m309.795 266.112V7.74M49.978 273.852h309.795"/><path d="M49.978 7.74h309.795"/></g><use xlink:href="#B" transform="matrix(.1 0 0 -.1 209.42657 223.773515)"/><use xlink:href="#B" transform="matrix(.1 0 0 -.1 246.587286 185.954987)"/><path d="M56.978 103.809h73.539q2 0 2-2V14.74q0-2-2-2H56.978q-2 0-2 2v87.069q0 2 2 2z" fill="#fff" opacity=".8" stroke="#ccc"/><g class="K"><path d="M58.978 20.839h30" class="C F G"/><use xlink:href="#a" x="73.978" y="20.839" fill="#1f77b4"/></g><g transform="matrix(.1 0 0 -.1 96.978125 24.338709)"><defs><path id="g" d="M1172 4494v-994h1184v-447H1172V1153q0-428 117-550 117-122 477-122h590V0h-590q-666 0-919 248-253 249-253 905v1900H172v447h422v994h578z" transform="scale(.015625)"/><path id="h" d="M2631 2963q-97 56-211 82-114 27-251 27-488 0-749-317-261-317-261-911V0H581v3500h578v-544q182 319 472 473 291 155 707 155 59 0 131-8 72-7 159-23l3-590z" transform="scale(.015625)"/><path id="i" d="M603 3500h575V0H603v3500zm0 1363h575v-729H603v729z" transform="scale(.015625)"/></defs><use xlink:href="#g"/><use xlink:href="#h" x="39.209"/><use xlink:href="#i" x="80.322"/><use xlink:href="#E" x="108.105"/></g><g class="M"><path d="M58.978 35.517h30" class="C F G"/><use xlink:href="#b" x="73.978" y="35.517" fill="#ff7f0e"/></g><g transform="matrix(.1 0 0 -.1 96.978125 39.016834)"><use xlink:href="#g"/><use xlink:href="#h" x="39.209"/><use xlink:href="#i" x="80.322"/><use xlink:href="#N" x="108.105"/></g><g class="N"><path d="M58.978 50.195h30" class="C F G"/><use xlink:href="#c" x="73.978" y="50.195" fill="#2ca02c"/></g><g transform="matrix(.1 0 0 -.1 96.978125 53.694959)"><defs><path id="j" d="M947 1747q0-634 261-995 261-361 717-361 456 0 718 361 263 361 263 995 0 634-263 995-262 361-718 361-456 0-717-361-261-361-261-995zM2906 525q-181-312-458-464-276-152-664-152-634 0-1033 506-398 507-398 1332 0 825 398 1331 399 506 1033 506 388 0 664-152 277-151 458-463v531h575v-4831h-575V525z" transform="scale(.015625)"/><path id="k" d="M544 1381v2119h575V1403q0-497 193-746 194-248 582-248 465 0 735 297 271 297 271 810v1984h575V0h-575v538q-209-319-486-474-276-155-642-155-603 0-916 375-312 375-312 1097zm1447 2203h0z" transform="scale(.015625)"/><path id="l" d="M2194 1759q-697 0-966-159-269-159-269-544 0-306 202-486 202-179 548-179 479 0 768 339 289 339 289 901v128h-572zm1147 238V0h-575v531q-197-318-491-470-294-152-719-152-537 0-855 302-317 302-317 808 0 590 395 890 396 300 1180 300h807v57q0 397-261 614-261 217-733 217-300 0-585-72-284-72-546-216v532q315 122 612 182 297 61 578 61 760 0 1135-394 375-393 375-1193z" transform="scale(.015625)"/></defs><use xlink:href="#j"/><use xlink:href="#k" x="63.477"/><use xlink:href="#l" x="126.855"/><use xlink:href="#F" x="188.135"/></g><g class="O"><path d="M58.978 64.873h30" class="C F G"/><use xlink:href="#d" x="73.978" y="64.873" fill="#d62728"/></g><g transform="matrix(.1 0 0 -.1 96.978125 68.373084)"><use xlink:href="#j"/><use xlink:href="#k" x="63.477"/><use xlink:href="#l" x="126.855"/><use xlink:href="#P" x="188.135"/></g><g class="P"><path d="M58.978 79.551h30" class="C F G"/><use xlink:href="#e" x="73.978" y="79.551" fill="#9467bd"/></g><g transform="matrix(.1 0 0 -.1 96.978125 83.051209)"><use xlink:href="#j"/><use xlink:href="#k" x="63.477"/><use xlink:href="#l" x="126.855"/><use xlink:href="#Q" x="188.135"/></g><g class="Q"><path d="M58.978 94.229h30" class="C F G"/><use xlink:href="#f" x="73.978" y="94.229" fill="#8c564b" class="R"/></g><g transform="matrix(.1 0 0 -.1 96.978125 97.729334)"><use xlink:href="#j"/><use xlink:href="#k" x="63.477"/><use xlink:href="#l" x="126.855"/><use xlink:href="#B" x="188.135"/><use xlink:href="#O" x="251.758"/></g><defs><clipPath id="m"><path d="M49.978 7.74h309.795v266.112H49.978z"/></clipPath></defs></svg>