<svg xmlns="http://www.w3.org/2000/svg" xmlns:xlink="http://www.w3.org/1999/xlink" width="560.131" height="414.491" viewBox="0 0 420.098 310.868" xmlns:v="https://vecta.io/nano"><style><![CDATA[.B{clip-path:url(#g)}.C{fill:none}.D{stroke:#000}.E{stroke-width:.8}.F{stroke-linecap:square}.G{stroke-width:1.5}.H{stroke-dasharray:2.96,1.28}.I{stroke:gray}.J{stroke:#1f77b4}.K{stroke-linejoin:miter}.L{stroke:#ff7f0e}.M{stroke:#2ca02c}.N{stroke:#d62728}.O{stroke:#9467bd}.P{stroke:#8c564b}.Q{stroke-linejoin:bevel}]]></style><g fill="#fff"><path d="M0 310.868h420.098V0H0z"/><path d="M55.778 273.312h357.12V7.2H55.778z"/></g><path d="M66.356 273.312V7.2" class="B C E H I"/><defs><path id="A" d="M0 0v3.5" class="D E"/></defs><use xlink:href="#A" x="66.356" y="273.312" class="D E"/><g transform="matrix(.1 0 0 -.1 57.556388 287.910437)"><defs><path id="B" d="M794 531h1031v3560L703 3866v575l1116 225h631V531h1031V0H794v531z" transform="scale(.015625)"/><path id="C" d="M2034 4250q-487 0-733-480-245-479-245-1442 0-959 245-1439 246-480 733-480 491 0 736 480 246 480 246 1439 0 963-246 1442-245 480-736 480zm0 500q785 0 1199-621 414-620 414-1801 0-1178-414-1799Q2819-91 2034-91q-784 0-1198 620-414 621-414 1799 0 1181 414 1801 414 621 1198 621z" transform="scale(.015625)"/></defs><use xlink:href="#B" y=".684"/><use xlink:href="#C" x="63.623" y=".684"/><use xlink:href="#B" transform="matrix(.7 0 0 .7 128.203125 38.965625)"/></g><g class="E"><path d="M137.768 273.312V7.2" class="B C H I"/><use xlink:href="#A" x="137.768" y="273.312" class="D"/></g><g transform="matrix(.1 0 0 -.1 128.968044 287.910437)"><defs><path id="D" d="M1228 531h2203V0H469v531q359 372 979 998 621 627 780 809 303 340 423 576 121 236 121 464 0 372-261 606-261 235-680 235-297 0-627-103-329-103-704-313v638q381 153 712 231 332 78 607 78 725 0 1156-363 431-362 431-968 0-288-108-546-107-257-392-607-78-91-497-524-418-433-1181-1211z" transform="scale(.015625)"/></defs><use xlink:href="#B" y=".766"/><use xlink:href="#C" x="63.623" y=".766"/><use xlink:href="#D" transform="matrix(.7 0 0 .7 128.203125 39.046875)"/></g><g class="E"><path d="M209.18 273.312V7.2" class="B C H I"/><use xlink:href="#A" x="209.18" y="273.312" class="D"/></g><g transform="matrix(.1 0 0 -.1 200.3797 287.910437)"><defs><path id="E" d="M2597 2516q453-97 707-404 255-306 255-756 0-690-475-1069Q2609-91 1734-91q-293 0-604 58-311 58-642 174v609q262-153 574-231 313-78 654-78 593 0 904 234 311 234 311 681 0 413-289 645-289 233-804 233h-544v519h569q465 0 712 186 247 186 247 536 0 359-255 551-254 193-729 193-260 0-557-57-297-56-653-174v562q360 100 674 150 314 50 592 50 719 0 1137-327 419-326 419-882 0-388-222-655-222-267-631-370z" transform="scale(.015625)"/></defs><use xlink:href="#B" y=".766"/><use xlink:href="#C" x="63.623" y=".766"/><use xlink:href="#E" transform="matrix(.7 0 0 .7 128.203125 39.046875)"/></g><g class="E"><path d="M280.591 273.312V7.2" class="B C H I"/><use xlink:href="#A" x="280.591" y="273.312" class="D"/></g><g transform="matrix(.1 0 0 -.1 271.791355 287.910437)"><defs><path id="F" d="M2419 4116L825 1625h1594v2491zm-166 550h794V1625h666v-525h-666V0h-628v1100H313v609l1940 2957z" transform="scale(.015625)"/></defs><use xlink:href="#B" y=".684"/><use xlink:href="#C" x="63.623" y=".684"/><use xlink:href="#F" transform="matrix(.7 0 0 .7 128.203125 38.965625)"/></g><g class="E"><path d="M352.003 273.312V7.2" class="B C H I"/><use xlink:href="#A" x="352.003" y="273.312" class="D"/></g><g transform="matrix(.1 0 0 -.1 343.203011 287.910437)"><defs><path id="G" d="M691 4666h2478v-532H1269V2991q137 47 274 70 138 23 276 23 781 0 1237-428 457-428 457-1159 0-753-469-1171Q2575-91 1722-91q-294 0-599 50Q819 9 494 109v635q281-153 581-228 300-75 634-75 541 0 856 284 316 284 316 772 0 487-316 771-315 285-856 285-253 0-505-56-251-56-513-175v2344z" transform="scale(.015625)"/></defs><use xlink:href="#B" y=".684"/><use xlink:href="#C" x="63.623" y=".684"/><use xlink:href="#G" transform="matrix(.7 0 0 .7 128.203125 38.965625)"/></g><defs><path id="H" d="M0 0v2" stroke-width=".6" class="D"/></defs><g stroke-width=".6" class="D"><use xlink:href="#H" x="59.436" y="273.312"/><use xlink:href="#H" x="63.089" y="273.312"/><use xlink:href="#H" x="87.853" y="273.312"/><use xlink:href="#H" x="100.428" y="273.312"/><use xlink:href="#H" x="109.35" y="273.312"/><use xlink:href="#H" x="116.271" y="273.312"/><use xlink:href="#H" x="121.925" y="273.312"/><use xlink:href="#H" x="126.706" y="273.312"/><use xlink:href="#H" x="130.848" y="273.312"/><use xlink:href="#H" x="134.5" y="273.312"/><use xlink:href="#H" x="159.265" y="273.312"/><use xlink:href="#H" x="171.84" y="273.312"/><use xlink:href="#H" x="180.762" y="273.312"/><use xlink:href="#H" x="187.683" y="273.312"/><use xlink:href="#H" x="193.337" y="273.312"/><use xlink:href="#H" x="198.118" y="273.312"/><use xlink:href="#H" x="202.259" y="273.312"/><use xlink:href="#H" x="205.912" y="273.312"/><use xlink:href="#H" x="230.677" y="273.312"/><use xlink:href="#H" x="243.252" y="273.312"/><use xlink:href="#H" x="252.174" y="273.312"/><use xlink:href="#H" x="259.094" y="273.312"/><use xlink:href="#H" x="264.749" y="273.312"/><use xlink:href="#H" x="269.53" y="273.312"/><use xlink:href="#H" x="273.671" y="273.312"/><use xlink:href="#H" x="277.324" y="273.312"/><use xlink:href="#H" x="302.088" y="273.312"/><use xlink:href="#H" x="314.663" y="273.312"/><use xlink:href="#H" x="323.585" y="273.312"/><use xlink:href="#H" x="330.506" y="273.312"/><use xlink:href="#H" x="336.16" y="273.312"/><use xlink:href="#H" x="340.941" y="273.312"/><use xlink:href="#H" x="345.083" y="273.312"/><use xlink:href="#H" x="348.735" y="273.312"/><use xlink:href="#H" x="373.5" y="273.312"/><use xlink:href="#H" x="386.075" y="273.312"/><use xlink:href="#H" x="394.997" y="273.312"/><use xlink:href="#H" x="401.918" y="273.312"/><use xlink:href="#H" x="407.572" y="273.312"/><use xlink:href="#H" x="412.353" y="273.312"/></g><g transform="matrix(.1 0 0 -.1 219.935781 301.588562)"><defs><path id="I" d="M628 4666h850L3547 763v3903h612V0h-850L1241 3903V0H628v4666z" transform="scale(.015625)"/><path id="J" d="M1259 4147V519h763q966 0 1414 437 448 438 448 1382 0 937-448 1373-448 436-1414 436h-763zm-631 519h1297q1356 0 1990-564 635-564 635-1764 0-1207-638-1773Q3275 0 1925 0H628v4666z" transform="scale(.015625)"/><path id="K" d="M2522 4238q-688 0-1093-513-404-512-404-1397 0-881 404-1394 405-512 1093-512 687 0 1089 512 402 513 402 1394 0 885-402 1397-402 513-1089 513zm0 512q981 0 1568-658 588-658 588-1764 0-1103-588-1761Q3503-91 2522-91q-984 0-1574 656-589 657-589 1763 0 1106 589 1764 590 658 1574 658z" transform="scale(.015625)"/><path id="L" d="M628 4666h2681v-532H1259V2759h1850v-531H1259V0H628v4666z" transform="scale(.015625)"/></defs><use xlink:href="#I"/><use xlink:href="#J" x="74.805"/><use xlink:href="#K" x="151.807"/><use xlink:href="#L" x="230.518"/></g><path d="M55.778 249.622h357.12" class="B C E H I"/><defs><path id="M" d="M0 0h-3.5" class="D E"/></defs><use xlink:href="#M" x="55.778" y="249.622" class="D E"/><g transform="matrix(.1 0 0 -.1 20.878125 253.42072)"><defs><path id="N" d="M678 2272h4006v-531H678v531z" transform="scale(.015625)"/></defs><use xlink:href="#B" y=".684"/><use xlink:href="#C" x="63.623" y=".684"/><use xlink:href="#N" transform="matrix(.7 0 0 .7 128.203125 38.965625)"/><use xlink:href="#B" transform="matrix(.7 0 0 .7 186.855469 38.965625)"/><use xlink:href="#B" transform="matrix(.7 0 0 .7 231.391602 38.965625)"/></g><g class="E"><path d="M55.778 202.957h357.12" class="B C H I"/><use xlink:href="#M" x="55.778" y="202.957" class="D"/></g><g transform="matrix(.1 0 0 -.1 25.278125 206.755954)"><defs><path id="O" d="M703 97v575q238-113 481-172 244-59 479-59 625 0 954 420 330 420 377 1277-181-269-460-413-278-144-615-144-700 0-1108 423-408 424-408 1159 0 718 425 1152 425 435 1131 435 810 0 1236-621 427-620 427-1801 0-1103-524-1761Q2575-91 1691-91q-238 0-482 47Q966 3 703 97zm1256 1978q425 0 673 290 249 291 249 798 0 503-249 795-248 292-673 292-425 0-673-292-248-292-248-795 0-507 248-798 248-290 673-290z" transform="scale(.015625)"/></defs><use xlink:href="#B" y=".766"/><use xlink:href="#C" x="63.623" y=".766"/><use xlink:href="#N" transform="matrix(.7 0 0 .7 128.203125 39.046875)"/><use xlink:href="#O" transform="matrix(.7 0 0 .7 186.855469 39.046875)"/></g><g class="E"><path d="M55.778 156.292h357.12" class="B C H I"/><use xlink:href="#M" x="55.778" y="156.292" class="D"/></g><g transform="matrix(.1 0 0 -.1 25.278125 160.091189)"><defs><path id="P" d="M525 4666h3000v-269L1831 0h-659l1594 4134H525v532z" transform="scale(.015625)"/></defs><use xlink:href="#B" y=".684"/><use xlink:href="#C" x="63.623" y=".684"/><use xlink:href="#N" transform="matrix(.7 0 0 .7 128.203125 38.965625)"/><use xlink:href="#P" transform="matrix(.7 0 0 .7 186.855469 38.965625)"/></g><g class="E"><path d="M55.778 109.627h357.12" class="B C H I"/><use xlink:href="#M" x="55.778" y="109.627" class="D"/></g><g transform="matrix(.1 0 0 -.1 25.278125 113.426424)"><use xlink:href="#B" y=".684"/><use xlink:href="#C" x="63.623" y=".684"/><use xlink:href="#N" transform="matrix(.7 0 0 .7 128.203125 38.965625)"/><use xlink:href="#G" transform="matrix(.7 0 0 .7 186.855469 38.965625)"/></g><g class="E"><path d="M55.778 62.962h357.12" class="B C H I"/><use xlink:href="#M" x="55.778" y="62.962" class="D"/></g><g transform="matrix(.1 0 0 -.1 25.278125 66.761659)"><use xlink:href="#B" y=".766"/><use xlink:href="#C" x="63.623" y=".766"/><use xlink:href="#N" transform="matrix(.7 0 0 .7 128.203125 39.046875)"/><use xlink:href="#E" transform="matrix(.7 0 0 .7 186.855469 39.046875)"/></g><g class="E"><path d="M55.778 16.298h357.12" class="B C H I"/><use xlink:href="#M" x="55.778" y="16.298" class="D"/></g><g transform="matrix(.1 0 0 -.1 25.278125 20.096893)"><use xlink:href="#B" y=".684"/><use xlink:href="#C" x="63.623" y=".684"/><use xlink:href="#N" transform="matrix(.7 0 0 .7 128.203125 38.965625)"/><use xlink:href="#B" transform="matrix(.7 0 0 .7 186.855469 38.965625)"/></g><g transform="matrix(0 -.1 -.1 0 14.798437 157.773969)"><defs><path id="Q" d="M628 4666h2950v-532H1259V2753h2222v-531H1259V531h2375V0H628v4666z" transform="scale(.015625)"/><path id="R" d="M2841 2188q203-69 395-294 192-225 386-619L4263 0h-679l-596 1197q-232 469-449 622-217 153-592 153h-688V0H628v4666h1425q800 0 1194-335 394-334 394-1009 0-441-205-732-205-290-595-402zM1259 4147V2491h794q456 0 689 211 233 211 233 620 0 409-233 617-233 208-689 208h-794z" transform="scale(.015625)"/></defs><use xlink:href="#Q"/><use xlink:href="#R" x="63.184"/><use xlink:href="#R" x="132.666"/><use xlink:href="#K" x="202.148"/><use xlink:href="#R" x="280.859"/></g><path d="M225.396 57.305h35.712v11.668zm-34.072 47.854h35.712v23.336zm49.914 0h35.712v23.336zm-49.914 38.631v35.005h35.712z" class="B D" fill="#f7f7f7"/><path d="M113.685 19.937l48.536 23.254 81.278 25.617 56.285 19.942 54.007 27.543" class="B C F G J"/><defs><path id="S" d="M0-3l-3 6h6z" class="J K"/></defs><g fill="#1f77b4" class="B J"><use xlink:href="#S" x="113.685" y="19.937"/><use xlink:href="#S" x="162.221" y="43.192"/><use xlink:href="#S" x="243.499" y="68.809"/><use xlink:href="#S" x="299.784" y="88.751"/><use xlink:href="#S" x="353.791" y="116.294"/></g><path d="M150.343 54.211l52.071 34.03 83.363 51.188 56.718 24.763 54.171-1.502" class="B C F G L"/><defs><path id="T" d="M0 3l3-6h-6z" class="K L"/></defs><g fill="#ff7f0e" class="B L"><use xlink:href="#T" x="150.343" y="54.211"/><use xlink:href="#T" x="202.414" y="88.241"/><use xlink:href="#T" x="285.777" y="139.43"/><use xlink:href="#T" x="342.495" y="164.192"/><use xlink:href="#T" x="396.665" y="162.69"/></g><path d="M72.011 19.296l28.418 11.803L134.5 44.33l37.954 13.812 12.777 4.493 27.519 9.493 41.595 14.032 27.17 9.041" class="B C F G M"/><defs><path id="U" d="M-3 3h6v-6h-6z" class="K M"/></defs><g fill="#2ca02c" class="B M"><use xlink:href="#U" x="72.011" y="19.296"/><use xlink:href="#U" x="100.428" y="31.099"/><use xlink:href="#U" x="134.5" y="44.33"/><use xlink:href="#U" x="172.454" y="58.142"/><use xlink:href="#U" x="185.231" y="62.635"/><use xlink:href="#U" x="212.75" y="72.128"/><use xlink:href="#U" x="254.345" y="86.16"/><use xlink:href="#U" x="281.514" y="95.201"/></g><path d="M95.99 53.263l32.439 23.479 36.747 26.744 39.541 28.14 13.119 9.138 28.049 19.252 42.054 28.322 27.339 18.184" class="B C F G N"/><defs><path id="V" d="M0 4.243L4.243 0 0-4.243-4.243 0z" class="K N"/></defs><g fill="#d62728" class="B N"><use xlink:href="#V" x="95.99" y="53.263"/><use xlink:href="#V" x="128.43" y="76.742"/><use xlink:href="#V" x="165.177" y="103.485"/><use xlink:href="#V" x="204.718" y="131.625"/><use xlink:href="#V" x="217.837" y="140.763"/><use xlink:href="#V" x="245.886" y="160.014"/><use xlink:href="#V" x="287.941" y="188.337"/><use xlink:href="#V" x="315.28" y="206.52"/></g><path d="M100.428 48.614L134.5 71.874l37.954 26.237 40.296 27.533 13.285 8.973 28.309 18.972 42.281 28.057 27.423 16.299" class="B C F G O"/><defs><path id="W" d="M-3 3l6-6m-6 0l6 6" class="O"/></defs><g fill="#9467bd" class="B O"><use xlink:href="#W" x="100.428" y="48.614"/><use xlink:href="#W" x="134.5" y="71.874"/><use xlink:href="#W" x="172.454" y="98.11"/><use xlink:href="#W" x="212.75" y="125.643"/><use xlink:href="#W" x="226.035" y="134.616"/><use xlink:href="#W" x="254.345" y="153.589"/><use xlink:href="#W" x="296.626" y="181.646"/><use xlink:href="#W" x="324.049" y="197.945"/></g><path d="M120.874 76.395l34.777 30.457 38.199 31.966 40.369 33.204 13.295 10.883 28.32 23.146 42.286 34.532 27.424 20.633" class="B C F G P"/><defs><path id="X" d="M0-3L-.674-.927h-2.18L-1.09.354l-.674 2.073L0 1.146l1.763 1.281L1.09.354 2.853-.927H.674z" class="P Q"/></defs><g fill="#8c564b" class="B P Q"><use xlink:href="#X" x="120.874" y="76.395"/><use xlink:href="#X" x="155.651" y="106.852"/><use xlink:href="#X" x="193.85" y="138.818"/><use xlink:href="#X" x="234.219" y="172.023"/><use xlink:href="#X" x="247.514" y="182.906"/><use xlink:href="#X" x="275.834" y="206.051"/><use xlink:href="#X" x="318.121" y="240.583"/><use xlink:href="#X" x="345.545" y="261.216"/></g><g class="C D E F"><path d="M55.778 273.312V7.2m357.12 266.112V7.2M55.778 273.312h357.12"/><path d="M55.778 7.2h357.12"/></g><use xlink:href="#B" transform="matrix(.1 0 0 -.1 240.070469 53.224908)"/><use xlink:href="#B" transform="matrix(.1 0 0 -.1 264.107719 65.898075)"/><use xlink:href="#B" transform="matrix(.1 0 0 -.1 205.99845 101.079317)"/><use xlink:href="#D" transform="matrix(.1 0 0 -.1 230.0357 119.586587)"/><use xlink:href="#B" transform="matrix(.1 0 0 -.1 255.913055 101.079317)"/><use xlink:href="#D" transform="matrix(.1 0 0 -.1 279.950305 119.586587)"/><use xlink:href="#B" transform="matrix(.1 0 0 -.1 205.99845 188.39272)"/><use xlink:href="#E" transform="matrix(.1 0 0 -.1 181.9612 164.051345)"/><path d="M332.359 103.269h73.539q2 0 2-2V14.2q0-2-2-2h-73.539q-2 0-2 2v87.069q0 2 2 2z" fill="#fff" opacity=".8" stroke="#ccc"/><g class="J"><path d="M334.359 20.298h30" class="C F G"/><use xlink:href="#S" x="349.359" y="20.298" fill="#1f77b4"/></g><g transform="matrix(.1 0 0 -.1 372.359063 23.798437)"><defs><path id="Y" d="M1172 4494v-994h1184v-447H1172V1153q0-428 117-550 117-122 477-122h590V0h-590q-666 0-919 248-253 249-253 905v1900H172v447h422v994h578z" transform="scale(.015625)"/><path id="Z" d="M2631 2963q-97 56-211 82-114 27-251 27-488 0-749-317-261-317-261-911V0H581v3500h578v-544q182 319 472 473 291 155 707 155 59 0 131-8 72-7 159-23l3-590z" transform="scale(.015625)"/><path id="a" d="M603 3500h575V0H603v3500zm0 1363h575v-729H603v729z" transform="scale(.015625)"/></defs><use xlink:href="#Y"/><use xlink:href="#Z" x="39.209"/><use xlink:href="#a" x="80.322"/><use xlink:href="#E" x="108.105"/></g><g class="L"><path d="M334.359 34.977h30" class="C F G"/><use xlink:href="#T" x="349.359" y="34.977" fill="#ff7f0e"/></g><g transform="matrix(.1 0 0 -.1 372.359063 38.476562)"><defs><path id="b" d="M2113 2584q-425 0-674-291-248-290-248-796 0-503 248-796 249-292 674-292 425 0 673 292 248 293 248 796 0 506-248 796-248 291-673 291zm1253 1979v-575q-238 112-480 171-242 60-480 60-625 0-955-422-329-422-376-1275 184 272 462 417 279 145 613 145 703 0 1111-427 408-426 408-1160 0-719-425-1154Q2819-91 2113-91q-810 0-1238 620-428 621-428 1799 0 1106 525 1764 525 658 1409 658 238 0 480-47 242-47 505-140z" transform="scale(.015625)"/></defs><use xlink:href="#Y"/><use xlink:href="#Z" x="39.209"/><use xlink:href="#a" x="80.322"/><use xlink:href="#b" x="108.105"/></g><g class="M"><path d="M334.359 49.655h30" class="C F G"/><use xlink:href="#U" x="349.359" y="49.655" fill="#2ca02c"/></g><g transform="matrix(.1 0 0 -.1 372.359063 53.154687)"><defs><path id="c" d="M947 1747q0-634 261-995 261-361 717-361 456 0 718 361 263 361 263 995 0 634-263 995-262 361-718 361-456 0-717-361-261-361-261-995zM2906 525q-181-312-458-464-276-152-664-152-634 0-1033 506-398 507-398 1332 0 825 398 1331 399 506 1033 506 388 0 664-152 277-151 458-463v531h575v-4831h-575V525z" transform="scale(.015625)"/><path id="d" d="M544 1381v2119h575V1403q0-497 193-746 194-248 582-248 465 0 735 297 271 297 271 810v1984h575V0h-575v538q-209-319-486-474-276-155-642-155-603 0-916 375-312 375-312 1097zm1447 2203h0z" transform="scale(.015625)"/><path id="e" d="M2194 1759q-697 0-966-159-269-159-269-544 0-306 202-486 202-179 548-179 479 0 768 339 289 339 289 901v128h-572zm1147 238V0h-575v531q-197-318-491-470-294-152-719-152-537 0-855 302-317 302-317 808 0 590 395 890 396 300 1180 300h807v57q0 397-261 614-261 217-733 217-300 0-585-72-284-72-546-216v532q315 122 612 182 297 61 578 61 760 0 1135-394 375-393 375-1193z" transform="scale(.015625)"/></defs><use xlink:href="#c"/><use xlink:href="#d" x="63.477"/><use xlink:href="#e" x="126.855"/><use xlink:href="#F" x="188.135"/></g><g class="N"><path d="M334.359 64.333h30" class="C F G"/><use xlink:href="#V" x="349.359" y="64.333" fill="#d62728"/></g><g transform="matrix(.1 0 0 -.1 372.359063 67.832812)"><defs><path id="f" d="M2034 2216q-450 0-708-241-257-241-257-662 0-422 257-663 258-241 708-241 450 0 709 242 260 243 260 662 0 421-258 662-257 241-711 241zm-631 268q-406 100-633 378-226 279-226 679 0 559 398 884 399 325 1092 325 697 0 1094-325 397-325 397-884 0-400-227-679-226-278-629-378 456-106 710-416 255-309 255-755 0-679-414-1042Q2806-91 2034-91q-771 0-1186 362-414 363-414 1042 0 446 256 755 257 310 713 416zm-231 997q0-362 226-565 227-203 636-203 407 0 636 203 230 203 230 565 0 363-230 566-229 203-636 203-409 0-636-203-226-203-226-566z" transform="scale(.015625)"/></defs><use xlink:href="#c"/><use xlink:href="#d" x="63.477"/><use xlink:href="#e" x="126.855"/><use xlink:href="#f" x="188.135"/></g><g class="O"><path d="M334.359 79.011h30" class="C F G"/><use xlink:href="#W" x="349.359" y="79.011" fill="#9467bd"/></g><g transform="matrix(.1 0 0 -.1 372.359063 82.510937)"><use xlink:href="#c"/><use xlink:href="#d" x="63.477"/><use xlink:href="#e" x="126.855"/><use xlink:href="#O" x="188.135"/></g><g class="P"><path d="M334.359 93.689h30" class="C F G"/><use xlink:href="#X" x="349.359" y="93.689" fill="#8c564b" class="Q"/></g><g transform="matrix(.1 0 0 -.1 372.359063 97.189062)"><use xlink:href="#c"/><use xlink:href="#d" x="63.477"/><use xlink:href="#e" x="126.855"/><use xlink:href="#B" x="188.135"/><use xlink:href="#P" x="251.758"/></g><defs><clipPath id="g"><path d="M55.778 7.2h357.12v266.112H55.778z"/></clipPath></defs></svg>