<?xml version="1.0" encoding="utf-8" standalone="no"?>
<!DOCTYPE svg PUBLIC "-//W3C//DTD SVG 1.1//EN"
  "http://www.w3.org/Graphics/SVG/1.1/DTD/svg11.dtd">
<svg xmlns:xlink="http://www.w3.org/1999/xlink" width="667.864255pt" height="658.45488pt" viewBox="0 0 667.864255 658.45488" xmlns="http://www.w3.org/2000/svg" version="1.1">
 <metadata>
  <rdf:RDF xmlns:dc="http://purl.org/dc/elements/1.1/" xmlns:cc="http://creativecommons.org/ns#" xmlns:rdf="http://www.w3.org/1999/02/22-rdf-syntax-ns#">
   <cc:Work>
    <dc:type rdf:resource="http://purl.org/dc/dcmitype/StillImage"/>
    <dc:date>2025-02-05T15:18:01.500870</dc:date>
    <dc:format>image/svg+xml</dc:format>
    <dc:creator>
     <cc:Agent>
      <dc:title>Matplotlib v3.6.3, https://matplotlib.org/</dc:title>
     </cc:Agent>
    </dc:creator>
   </cc:Work>
  </rdf:RDF>
 </metadata>
 <defs>
  <style type="text/css">*{stroke-linejoin: round; stroke-linecap: butt}</style>
 </defs>
 <g id="figure_1">
  <g id="patch_1">
   <path d="M 0 658.45488 
L 667.864255 658.45488 
L 667.864255 0 
L 0 0 
z
" style="fill: #ffffff"/>
  </g>
  <g id="axes_1">
   <g id="patch_2">
    <path d="M 46.965625 620.89863 
L 660.664255 620.89863 
L 660.664255 7.2 
L 46.965625 7.2 
z
" style="fill: #ffffff"/>
   </g>
   <g id="matplotlib.axis_1">
    <g id="xtick_1">
     <g id="line2d_1">
      <path d="M 74.861017 620.89863 
L 74.861017 7.2 
" clip-path="url(#p1fdfd9952c)" style="fill: none; stroke-dasharray: 2.96,1.28; stroke-dashoffset: 0; stroke: #808080; stroke-width: 0.8"/>
     </g>
     <g id="line2d_2">
      <defs>
       <path id="mda78c3b7a5" d="M 0 0 
L 0 3.5 
" style="stroke: #000000; stroke-width: 0.8"/>
      </defs>
      <g>
       <use xlink:href="#mda78c3b7a5" x="74.861017" y="620.89863" style="stroke: #000000; stroke-width: 0.8"/>
      </g>
     </g>
     <g id="text_1">
      <!-- 0 -->
      <g transform="translate(71.679767 635.497068) scale(0.1 -0.1)">
       <defs>
        <path id="DejaVuSans-30" d="M 2034 4250 
Q 1547 4250 1301 3770 
Q 1056 3291 1056 2328 
Q 1056 1369 1301 889 
Q 1547 409 2034 409 
Q 2525 409 2770 889 
Q 3016 1369 3016 2328 
Q 3016 3291 2770 3770 
Q 2525 4250 2034 4250 
z
M 2034 4750 
Q 2819 4750 3233 4129 
Q 3647 3509 3647 2328 
Q 3647 1150 3233 529 
Q 2819 -91 2034 -91 
Q 1250 -91 836 529 
Q 422 1150 422 2328 
Q 422 3509 836 4129 
Q 1250 4750 2034 4750 
z
" transform="scale(0.015625)"/>
       </defs>
       <use xlink:href="#DejaVuSans-30"/>
      </g>
     </g>
    </g>
    <g id="xtick_2">
     <g id="line2d_3">
      <path d="M 186.442586 620.89863 
L 186.442586 7.2 
" clip-path="url(#p1fdfd9952c)" style="fill: none; stroke-dasharray: 2.96,1.28; stroke-dashoffset: 0; stroke: #808080; stroke-width: 0.8"/>
     </g>
     <g id="line2d_4">
      <g>
       <use xlink:href="#mda78c3b7a5" x="186.442586" y="620.89863" style="stroke: #000000; stroke-width: 0.8"/>
      </g>
     </g>
     <g id="text_2">
      <!-- 100 -->
      <g transform="translate(176.898836 635.497068) scale(0.1 -0.1)">
       <defs>
        <path id="DejaVuSans-31" d="M 794 531 
L 1825 531 
L 1825 4091 
L 703 3866 
L 703 4441 
L 1819 4666 
L 2450 4666 
L 2450 531 
L 3481 531 
L 3481 0 
L 794 0 
L 794 531 
z
" transform="scale(0.015625)"/>
       </defs>
       <use xlink:href="#DejaVuSans-31"/>
       <use xlink:href="#DejaVuSans-30" x="63.623047"/>
       <use xlink:href="#DejaVuSans-30" x="127.246094"/>
      </g>
     </g>
    </g>
    <g id="xtick_3">
     <g id="line2d_5">
      <path d="M 298.024156 620.89863 
L 298.024156 7.2 
" clip-path="url(#p1fdfd9952c)" style="fill: none; stroke-dasharray: 2.96,1.28; stroke-dashoffset: 0; stroke: #808080; stroke-width: 0.8"/>
     </g>
     <g id="line2d_6">
      <g>
       <use xlink:href="#mda78c3b7a5" x="298.024156" y="620.89863" style="stroke: #000000; stroke-width: 0.8"/>
      </g>
     </g>
     <g id="text_3">
      <!-- 200 -->
      <g transform="translate(288.480406 635.497068) scale(0.1 -0.1)">
       <defs>
        <path id="DejaVuSans-32" d="M 1228 531 
L 3431 531 
L 3431 0 
L 469 0 
L 469 531 
Q 828 903 1448 1529 
Q 2069 2156 2228 2338 
Q 2531 2678 2651 2914 
Q 2772 3150 2772 3378 
Q 2772 3750 2511 3984 
Q 2250 4219 1831 4219 
Q 1534 4219 1204 4116 
Q 875 4013 500 3803 
L 500 4441 
Q 881 4594 1212 4672 
Q 1544 4750 1819 4750 
Q 2544 4750 2975 4387 
Q 3406 4025 3406 3419 
Q 3406 3131 3298 2873 
Q 3191 2616 2906 2266 
Q 2828 2175 2409 1742 
Q 1991 1309 1228 531 
z
" transform="scale(0.015625)"/>
       </defs>
       <use xlink:href="#DejaVuSans-32"/>
       <use xlink:href="#DejaVuSans-30" x="63.623047"/>
       <use xlink:href="#DejaVuSans-30" x="127.246094"/>
      </g>
     </g>
    </g>
    <g id="xtick_4">
     <g id="line2d_7">
      <path d="M 409.605725 620.89863 
L 409.605725 7.2 
" clip-path="url(#p1fdfd9952c)" style="fill: none; stroke-dasharray: 2.96,1.28; stroke-dashoffset: 0; stroke: #808080; stroke-width: 0.8"/>
     </g>
     <g id="line2d_8">
      <g>
       <use xlink:href="#mda78c3b7a5" x="409.605725" y="620.89863" style="stroke: #000000; stroke-width: 0.8"/>
      </g>
     </g>
     <g id="text_4">
      <!-- 300 -->
      <g transform="translate(400.061975 635.497068) scale(0.1 -0.1)">
       <defs>
        <path id="DejaVuSans-33" d="M 2597 2516 
Q 3050 2419 3304 2112 
Q 3559 1806 3559 1356 
Q 3559 666 3084 287 
Q 2609 -91 1734 -91 
Q 1441 -91 1130 -33 
Q 819 25 488 141 
L 488 750 
Q 750 597 1062 519 
Q 1375 441 1716 441 
Q 2309 441 2620 675 
Q 2931 909 2931 1356 
Q 2931 1769 2642 2001 
Q 2353 2234 1838 2234 
L 1294 2234 
L 1294 2753 
L 1863 2753 
Q 2328 2753 2575 2939 
Q 2822 3125 2822 3475 
Q 2822 3834 2567 4026 
Q 2313 4219 1838 4219 
Q 1578 4219 1281 4162 
Q 984 4106 628 3988 
L 628 4550 
Q 988 4650 1302 4700 
Q 1616 4750 1894 4750 
Q 2613 4750 3031 4423 
Q 3450 4097 3450 3541 
Q 3450 3153 3228 2886 
Q 3006 2619 2597 2516 
z
" transform="scale(0.015625)"/>
       </defs>
       <use xlink:href="#DejaVuSans-33"/>
       <use xlink:href="#DejaVuSans-30" x="63.623047"/>
       <use xlink:href="#DejaVuSans-30" x="127.246094"/>
      </g>
     </g>
    </g>
    <g id="xtick_5">
     <g id="line2d_9">
      <path d="M 521.187294 620.89863 
L 521.187294 7.2 
" clip-path="url(#p1fdfd9952c)" style="fill: none; stroke-dasharray: 2.96,1.28; stroke-dashoffset: 0; stroke: #808080; stroke-width: 0.8"/>
     </g>
     <g id="line2d_10">
      <g>
       <use xlink:href="#mda78c3b7a5" x="521.187294" y="620.89863" style="stroke: #000000; stroke-width: 0.8"/>
      </g>
     </g>
     <g id="text_5">
      <!-- 400 -->
      <g transform="translate(511.643544 635.497068) scale(0.1 -0.1)">
       <defs>
        <path id="DejaVuSans-34" d="M 2419 4116 
L 825 1625 
L 2419 1625 
L 2419 4116 
z
M 2253 4666 
L 3047 4666 
L 3047 1625 
L 3713 1625 
L 3713 1100 
L 3047 1100 
L 3047 0 
L 2419 0 
L 2419 1100 
L 313 1100 
L 313 1709 
L 2253 4666 
z
" transform="scale(0.015625)"/>
       </defs>
       <use xlink:href="#DejaVuSans-34"/>
       <use xlink:href="#DejaVuSans-30" x="63.623047"/>
       <use xlink:href="#DejaVuSans-30" x="127.246094"/>
      </g>
     </g>
    </g>
    <g id="xtick_6">
     <g id="line2d_11">
      <path d="M 632.768863 620.89863 
L 632.768863 7.2 
" clip-path="url(#p1fdfd9952c)" style="fill: none; stroke-dasharray: 2.96,1.28; stroke-dashoffset: 0; stroke: #808080; stroke-width: 0.8"/>
     </g>
     <g id="line2d_12">
      <g>
       <use xlink:href="#mda78c3b7a5" x="632.768863" y="620.89863" style="stroke: #000000; stroke-width: 0.8"/>
      </g>
     </g>
     <g id="text_6">
      <!-- 500 -->
      <g transform="translate(623.225113 635.497068) scale(0.1 -0.1)">
       <defs>
        <path id="DejaVuSans-35" d="M 691 4666 
L 3169 4666 
L 3169 4134 
L 1269 4134 
L 1269 2991 
Q 1406 3038 1543 3061 
Q 1681 3084 1819 3084 
Q 2600 3084 3056 2656 
Q 3513 2228 3513 1497 
Q 3513 744 3044 326 
Q 2575 -91 1722 -91 
Q 1428 -91 1123 -41 
Q 819 9 494 109 
L 494 744 
Q 775 591 1075 516 
Q 1375 441 1709 441 
Q 2250 441 2565 725 
Q 2881 1009 2881 1497 
Q 2881 1984 2565 2268 
Q 2250 2553 1709 2553 
Q 1456 2553 1204 2497 
Q 953 2441 691 2322 
L 691 4666 
z
" transform="scale(0.015625)"/>
       </defs>
       <use xlink:href="#DejaVuSans-35"/>
       <use xlink:href="#DejaVuSans-30" x="63.623047"/>
       <use xlink:href="#DejaVuSans-30" x="127.246094"/>
      </g>
     </g>
    </g>
    <g id="text_7">
     <!-- x -->
     <g transform="translate(350.855565 649.175193) scale(0.1 -0.1)">
      <defs>
       <path id="DejaVuSans-78" d="M 3513 3500 
L 2247 1797 
L 3578 0 
L 2900 0 
L 1881 1375 
L 863 0 
L 184 0 
L 1544 1831 
L 300 3500 
L 978 3500 
L 1906 2253 
L 2834 3500 
L 3513 3500 
z
" transform="scale(0.015625)"/>
      </defs>
      <use xlink:href="#DejaVuSans-78"/>
     </g>
    </g>
   </g>
   <g id="matplotlib.axis_2">
    <g id="ytick_1">
     <g id="line2d_13">
      <path d="M 46.965625 593.003238 
L 660.664255 593.003238 
" clip-path="url(#p1fdfd9952c)" style="fill: none; stroke-dasharray: 2.96,1.28; stroke-dashoffset: 0; stroke: #808080; stroke-width: 0.8"/>
     </g>
     <g id="line2d_14">
      <defs>
       <path id="md7cdce647e" d="M 0 0 
L -3.5 0 
" style="stroke: #000000; stroke-width: 0.8"/>
      </defs>
      <g>
       <use xlink:href="#md7cdce647e" x="46.965625" y="593.003238" style="stroke: #000000; stroke-width: 0.8"/>
      </g>
     </g>
     <g id="text_8">
      <!-- 0 -->
      <g transform="translate(33.603125 596.802457) scale(0.1 -0.1)">
       <use xlink:href="#DejaVuSans-30"/>
      </g>
     </g>
    </g>
    <g id="ytick_2">
     <g id="line2d_15">
      <path d="M 46.965625 481.421669 
L 660.664255 481.421669 
" clip-path="url(#p1fdfd9952c)" style="fill: none; stroke-dasharray: 2.96,1.28; stroke-dashoffset: 0; stroke: #808080; stroke-width: 0.8"/>
     </g>
     <g id="line2d_16">
      <g>
       <use xlink:href="#md7cdce647e" x="46.965625" y="481.421669" style="stroke: #000000; stroke-width: 0.8"/>
      </g>
     </g>
     <g id="text_9">
      <!-- 100 -->
      <g transform="translate(20.878125 485.220887) scale(0.1 -0.1)">
       <use xlink:href="#DejaVuSans-31"/>
       <use xlink:href="#DejaVuSans-30" x="63.623047"/>
       <use xlink:href="#DejaVuSans-30" x="127.246094"/>
      </g>
     </g>
    </g>
    <g id="ytick_3">
     <g id="line2d_17">
      <path d="M 46.965625 369.8401 
L 660.664255 369.8401 
" clip-path="url(#p1fdfd9952c)" style="fill: none; stroke-dasharray: 2.96,1.28; stroke-dashoffset: 0; stroke: #808080; stroke-width: 0.8"/>
     </g>
     <g id="line2d_18">
      <g>
       <use xlink:href="#md7cdce647e" x="46.965625" y="369.8401" style="stroke: #000000; stroke-width: 0.8"/>
      </g>
     </g>
     <g id="text_10">
      <!-- 200 -->
      <g transform="translate(20.878125 373.639318) scale(0.1 -0.1)">
       <use xlink:href="#DejaVuSans-32"/>
       <use xlink:href="#DejaVuSans-30" x="63.623047"/>
       <use xlink:href="#DejaVuSans-30" x="127.246094"/>
      </g>
     </g>
    </g>
    <g id="ytick_4">
     <g id="line2d_19">
      <path d="M 46.965625 258.258531 
L 660.664255 258.258531 
" clip-path="url(#p1fdfd9952c)" style="fill: none; stroke-dasharray: 2.96,1.28; stroke-dashoffset: 0; stroke: #808080; stroke-width: 0.8"/>
     </g>
     <g id="line2d_20">
      <g>
       <use xlink:href="#md7cdce647e" x="46.965625" y="258.258531" style="stroke: #000000; stroke-width: 0.8"/>
      </g>
     </g>
     <g id="text_11">
      <!-- 300 -->
      <g transform="translate(20.878125 262.057749) scale(0.1 -0.1)">
       <use xlink:href="#DejaVuSans-33"/>
       <use xlink:href="#DejaVuSans-30" x="63.623047"/>
       <use xlink:href="#DejaVuSans-30" x="127.246094"/>
      </g>
     </g>
    </g>
    <g id="ytick_5">
     <g id="line2d_21">
      <path d="M 46.965625 146.676961 
L 660.664255 146.676961 
" clip-path="url(#p1fdfd9952c)" style="fill: none; stroke-dasharray: 2.96,1.28; stroke-dashoffset: 0; stroke: #808080; stroke-width: 0.8"/>
     </g>
     <g id="line2d_22">
      <g>
       <use xlink:href="#md7cdce647e" x="46.965625" y="146.676961" style="stroke: #000000; stroke-width: 0.8"/>
      </g>
     </g>
     <g id="text_12">
      <!-- 400 -->
      <g transform="translate(20.878125 150.47618) scale(0.1 -0.1)">
       <use xlink:href="#DejaVuSans-34"/>
       <use xlink:href="#DejaVuSans-30" x="63.623047"/>
       <use xlink:href="#DejaVuSans-30" x="127.246094"/>
      </g>
     </g>
    </g>
    <g id="ytick_6">
     <g id="line2d_23">
      <path d="M 46.965625 35.095392 
L 660.664255 35.095392 
" clip-path="url(#p1fdfd9952c)" style="fill: none; stroke-dasharray: 2.96,1.28; stroke-dashoffset: 0; stroke: #808080; stroke-width: 0.8"/>
     </g>
     <g id="line2d_24">
      <g>
       <use xlink:href="#md7cdce647e" x="46.965625" y="35.095392" style="stroke: #000000; stroke-width: 0.8"/>
      </g>
     </g>
     <g id="text_13">
      <!-- 500 -->
      <g transform="translate(20.878125 38.894611) scale(0.1 -0.1)">
       <use xlink:href="#DejaVuSans-35"/>
       <use xlink:href="#DejaVuSans-30" x="63.623047"/>
       <use xlink:href="#DejaVuSans-30" x="127.246094"/>
      </g>
     </g>
    </g>
    <g id="text_14">
     <!-- y -->
     <g transform="translate(14.798438 317.00869) rotate(-90) scale(0.1 -0.1)">
      <defs>
       <path id="DejaVuSans-79" d="M 2059 -325 
Q 1816 -950 1584 -1140 
Q 1353 -1331 966 -1331 
L 506 -1331 
L 506 -850 
L 844 -850 
Q 1081 -850 1212 -737 
Q 1344 -625 1503 -206 
L 1606 56 
L 191 3500 
L 800 3500 
L 1894 763 
L 2988 3500 
L 3597 3500 
L 2059 -325 
z
" transform="scale(0.015625)"/>
      </defs>
      <use xlink:href="#DejaVuSans-79"/>
     </g>
    </g>
   </g>
   <g id="patch_3">
    <path d="M 74.861017 169.155057 
Q 74.861017 265.484189 74.861017 361.813321 
Q 98.848518 361.813321 122.83602 361.813321 
Q 114.930212 265.484189 107.024404 169.155057 
Q 90.942711 169.155057 74.861017 169.155057 
" style="fill: #e3f3ff; stroke: #0055d4; stroke-linejoin: miter"/>
   </g>
   <g id="patch_4">
    <path d="M 74.861017 361.813321 
Q 74.861017 477.40828 74.861017 593.003238 
Q 108.335488 593.003238 141.809959 593.003238 
Q 132.322989 477.40828 122.83602 361.813321 
Q 98.848518 361.813321 74.861017 361.813321 
" style="fill: #e3f3ff; stroke: #0055d4; stroke-linejoin: miter"/>
   </g>
   <g id="patch_5">
    <path d="M 107.024404 169.155057 
Q 114.930212 265.484189 122.83602 361.813321 
Q 146.823521 361.813321 170.811022 361.813321 
Q 154.999406 265.484189 139.18779 169.155057 
Q 123.106097 169.155057 107.024404 169.155057 
" style="fill: #e3f3ff; stroke: #0055d4; stroke-linejoin: miter"/>
   </g>
   <g id="patch_6">
    <path d="M 122.83602 361.813321 
Q 132.322989 477.40828 141.809959 593.003238 
Q 175.284429 593.003238 208.7589 593.003238 
Q 189.784961 477.40828 170.811022 361.813321 
Q 146.823521 361.813321 122.83602 361.813321 
" style="fill: #e3f3ff; stroke: #0055d4; stroke-linejoin: miter"/>
   </g>
   <g id="patch_7">
    <path d="M 139.18779 169.155057 
Q 154.999406 265.484189 170.811022 361.813321 
Q 194.798523 361.813321 218.786025 361.813321 
Q 195.068601 265.484189 171.351177 169.155057 
Q 155.269484 169.155057 139.18779 169.155057 
" style="fill: #e3f3ff; stroke: #0055d4; stroke-linejoin: miter"/>
   </g>
   <g id="patch_8">
    <path d="M 170.811022 361.813321 
Q 189.784961 477.40828 208.7589 593.003238 
Q 242.233371 593.003238 275.707842 593.003238 
Q 247.246933 477.40828 218.786025 361.813321 
Q 194.798523 361.813321 170.811022 361.813321 
" style="fill: #e3f3ff; stroke: #0055d4; stroke-linejoin: miter"/>
   </g>
   <g id="patch_9">
    <path d="M 130.651802 42.06924 
Q 130.651802 43.812702 130.651802 45.556164 
Q 132.421392 45.502508 133.984061 45.254083 
Q 133.48024 43.661662 132.976418 42.06924 
Q 131.81411 42.06924 130.651802 42.06924 
" style="fill: #e3f3ff; stroke: #0055d4; stroke-linejoin: miter"/>
   </g>
   <g id="patch_10">
    <path d="M 132.976418 42.06924 
Q 133.48024 43.661662 133.984061 45.254083 
Q 135.54673 45.005658 136.902477 44.562465 
Q 136.101756 43.315853 135.301034 42.06924 
Q 134.138726 42.06924 132.976418 42.06924 
" style="fill: #e3f3ff; stroke: #0055d4; stroke-linejoin: miter"/>
   </g>
   <g id="patch_11">
    <path d="M 135.301034 42.06924 
Q 136.101756 43.315853 136.902477 44.562465 
Q 138.258225 44.119272 139.40705 43.481311 
Q 138.51635 42.775276 137.62565 42.06924 
Q 136.463342 42.06924 135.301034 42.06924 
" style="fill: #e3f3ff; stroke: #0055d4; stroke-linejoin: miter"/>
   </g>
   <g id="patch_12">
    <path d="M 130.651802 45.556164 
Q 130.651802 47.299626 130.651802 49.043088 
Q 133.028675 48.935775 134.991705 48.438925 
Q 134.487883 46.846504 133.984061 45.254083 
Q 132.421392 45.502508 130.651802 45.556164 
" style="fill: #e3f3ff; stroke: #0055d4; stroke-linejoin: miter"/>
   </g>
   <g id="patch_13">
    <path d="M 133.984061 45.254083 
Q 134.487883 46.846504 134.991705 48.438925 
Q 136.954735 47.942075 138.503921 47.055689 
Q 137.703199 45.809077 136.902477 44.562465 
Q 135.54673 45.005658 133.984061 45.254083 
" style="fill: #e3f3ff; stroke: #0055d4; stroke-linejoin: miter"/>
   </g>
   <g id="patch_14">
    <path d="M 136.902477 44.562465 
Q 137.703199 45.809077 138.503921 47.055689 
Q 140.053108 46.169303 141.188451 44.893381 
Q 140.29775 44.187346 139.40705 43.481311 
Q 138.258225 44.119272 136.902477 44.562465 
" style="fill: #e3f3ff; stroke: #0055d4; stroke-linejoin: miter"/>
   </g>
   <g id="patch_15">
    <path d="M 137.62565 42.06924 
Q 138.51635 42.775276 139.40705 43.481311 
Q 140.039625 42.163065 140.439986 40.791881 
Q 139.032818 40.268252 137.62565 39.744624 
Q 137.62565 40.906932 137.62565 42.06924 
" style="fill: #e3f3ff; stroke: #0055d4; stroke-linejoin: miter"/>
   </g>
   <g id="patch_16">
    <path d="M 137.62565 39.744624 
Q 139.032818 40.268252 140.439986 40.791881 
Q 140.840346 39.420697 141.008494 37.996574 
Q 139.317072 37.708291 137.62565 37.420008 
Q 137.62565 38.582316 137.62565 39.744624 
" style="fill: #e3f3ff; stroke: #0055d4; stroke-linejoin: miter"/>
   </g>
   <g id="patch_17">
    <path d="M 137.62565 37.420008 
Q 139.317072 37.708291 141.008494 37.996574 
Q 141.176641 36.572452 141.112574 35.095392 
Q 139.369112 35.095392 137.62565 35.095392 
Q 137.62565 36.2577 137.62565 37.420008 
" style="fill: #e3f3ff; stroke: #0055d4; stroke-linejoin: miter"/>
   </g>
   <g id="patch_18">
    <path d="M 139.40705 43.481311 
Q 140.29775 44.187346 141.188451 44.893381 
Q 142.4536 43.419197 143.254321 41.839137 
Q 141.847154 41.315509 140.439986 40.791881 
Q 140.039625 42.163065 139.40705 43.481311 
" style="fill: #e3f3ff; stroke: #0055d4; stroke-linejoin: miter"/>
   </g>
   <g id="patch_19">
    <path d="M 140.439986 40.791881 
Q 141.847154 41.315509 143.254321 41.839137 
Q 144.055043 40.259077 144.391337 38.573141 
Q 142.699915 38.284858 141.008494 37.996574 
Q 140.840346 39.420697 140.439986 40.791881 
" style="fill: #e3f3ff; stroke: #0055d4; stroke-linejoin: miter"/>
   </g>
   <g id="patch_20">
    <path d="M 141.008494 37.996574 
Q 142.699915 38.284858 144.391337 38.573141 
Q 144.727631 36.887204 144.599498 35.095392 
Q 142.856036 35.095392 141.112574 35.095392 
Q 141.176641 36.572452 141.008494 37.996574 
" style="fill: #e3f3ff; stroke: #0055d4; stroke-linejoin: miter"/>
   </g>
   <g id="patch_21">
    <path d="M 130.651802 49.043088 
Q 128.274929 48.935775 126.311899 48.438925 
Q 125.835972 51.89269 125.360045 55.346455 
Q 128.016524 56.080165 130.651802 56.016936 
Q 130.651802 52.530012 130.651802 49.043088 
" style="fill: #e3f3ff; stroke: #0055d4; stroke-linejoin: miter"/>
   </g>
   <g id="patch_22">
    <path d="M 130.651802 56.016936 
Q 128.016524 56.080165 125.360045 55.346455 
Q 124.884119 58.800219 124.408192 62.253984 
Q 127.758119 63.224555 130.651802 62.990785 
Q 130.651802 59.503861 130.651802 56.016936 
" style="fill: #e3f3ff; stroke: #0055d4; stroke-linejoin: miter"/>
   </g>
   <g id="patch_23">
    <path d="M 126.311899 48.438925 
Q 124.348869 47.942075 122.799683 47.055689 
Q 121.412785 50.068892 120.025888 53.082095 
Q 122.703567 54.612744 125.360045 55.346455 
Q 125.835972 51.89269 126.311899 48.438925 
" style="fill: #e3f3ff; stroke: #0055d4; stroke-linejoin: miter"/>
   </g>
   <g id="patch_24">
    <path d="M 125.360045 55.346455 
Q 122.703567 54.612744 120.025888 53.082095 
Q 118.638991 56.095297 117.252094 59.1085 
Q 121.058265 61.283413 124.408192 62.253984 
Q 124.884119 58.800219 125.360045 55.346455 
" style="fill: #e3f3ff; stroke: #0055d4; stroke-linejoin: miter"/>
   </g>
   <g id="patch_25">
    <path d="M 122.799683 47.055689 
Q 121.250496 46.169303 120.115153 44.893381 
Q 117.382242 47.058619 114.649331 49.223856 
Q 117.34821 51.551445 120.025888 53.082095 
Q 121.412785 50.068892 122.799683 47.055689 
" style="fill: #e3f3ff; stroke: #0055d4; stroke-linejoin: miter"/>
   </g>
   <g id="patch_26">
    <path d="M 120.025888 53.082095 
Q 117.34821 51.551445 114.649331 49.223856 
Q 111.916419 51.389094 109.183508 53.554331 
Q 113.445923 56.933587 117.252094 59.1085 
Q 118.638991 56.095297 120.025888 53.082095 
" style="fill: #e3f3ff; stroke: #0055d4; stroke-linejoin: miter"/>
   </g>
   <g id="patch_27">
    <path d="M 130.651802 49.043088 
Q 130.651802 52.530012 130.651802 56.016936 
Q 133.28708 56.080165 135.943558 55.346455 
Q 135.467632 51.89269 134.991705 48.438925 
Q 133.028675 48.935775 130.651802 49.043088 
" style="fill: #e3f3ff; stroke: #0055d4; stroke-linejoin: miter"/>
   </g>
   <g id="patch_28">
    <path d="M 130.651802 56.016936 
Q 130.651802 59.503861 130.651802 62.990785 
Q 133.545485 63.224555 136.895412 62.253984 
Q 136.419485 58.800219 135.943558 55.346455 
Q 133.28708 56.080165 130.651802 56.016936 
" style="fill: #e3f3ff; stroke: #0055d4; stroke-linejoin: miter"/>
   </g>
   <g id="patch_29">
    <path d="M 134.991705 48.438925 
Q 135.467632 51.89269 135.943558 55.346455 
Q 138.600037 54.612744 141.277715 53.082095 
Q 139.890818 50.068892 138.503921 47.055689 
Q 136.954735 47.942075 134.991705 48.438925 
" style="fill: #e3f3ff; stroke: #0055d4; stroke-linejoin: miter"/>
   </g>
   <g id="patch_30">
    <path d="M 135.943558 55.346455 
Q 136.419485 58.800219 136.895412 62.253984 
Q 140.245339 61.283413 144.051509 59.1085 
Q 142.664612 56.095297 141.277715 53.082095 
Q 138.600037 54.612744 135.943558 55.346455 
" style="fill: #e3f3ff; stroke: #0055d4; stroke-linejoin: miter"/>
   </g>
   <g id="patch_31">
    <path d="M 138.503921 47.055689 
Q 139.890818 50.068892 141.277715 53.082095 
Q 143.955393 51.551445 146.654272 49.223856 
Q 143.921361 47.058619 141.188451 44.893381 
Q 140.053108 46.169303 138.503921 47.055689 
" style="fill: #e3f3ff; stroke: #0055d4; stroke-linejoin: miter"/>
   </g>
   <g id="patch_32">
    <path d="M 141.277715 53.082095 
Q 142.664612 56.095297 144.051509 59.1085 
Q 147.857679 56.933587 152.120094 53.554331 
Q 149.387183 51.389094 146.654272 49.223856 
Q 143.955393 51.551445 141.277715 53.082095 
" style="fill: #e3f3ff; stroke: #0055d4; stroke-linejoin: miter"/>
   </g>
   <g id="patch_33">
    <path d="M 130.651802 62.990785 
Q 130.651802 69.330646 130.651802 75.670508 
Q 134.489278 76.121863 139.258066 74.689919 
Q 138.076739 68.471952 136.895412 62.253984 
Q 133.545485 63.224555 130.651802 62.990785 
" style="fill: #e3f3ff; stroke: #0055d4; stroke-linejoin: miter"/>
   </g>
   <g id="patch_34">
    <path d="M 130.651802 75.670508 
Q 130.651802 83.278343 130.651802 90.886177 
Q 135.62183 91.598633 142.093251 89.613041 
Q 140.675659 82.15148 139.258066 74.689919 
Q 134.489278 76.121863 130.651802 75.670508 
" style="fill: #e3f3ff; stroke: #0055d4; stroke-linejoin: miter"/>
   </g>
   <g id="patch_35">
    <path d="M 136.895412 62.253984 
Q 138.076739 68.471952 139.258066 74.689919 
Q 144.026854 73.257975 149.726953 69.942732 
Q 146.889231 64.525616 144.051509 59.1085 
Q 140.245339 61.283413 136.895412 62.253984 
" style="fill: #e3f3ff; stroke: #0055d4; stroke-linejoin: miter"/>
   </g>
   <g id="patch_36">
    <path d="M 139.258066 74.689919 
Q 140.675659 82.15148 142.093251 89.613041 
Q 148.564672 87.62745 156.537485 82.943811 
Q 153.132219 76.443271 149.726953 69.942732 
Q 144.026854 73.257975 139.258066 74.689919 
" style="fill: #e3f3ff; stroke: #0055d4; stroke-linejoin: miter"/>
   </g>
   <g id="patch_37">
    <path d="M 144.051509 59.1085 
Q 146.889231 64.525616 149.726953 69.942732 
Q 155.427051 66.627489 162.058461 61.428947 
Q 157.089277 57.491639 152.120094 53.554331 
Q 147.857679 56.933587 144.051509 59.1085 
" style="fill: #e3f3ff; stroke: #0055d4; stroke-linejoin: miter"/>
   </g>
   <g id="patch_38">
    <path d="M 149.726953 69.942732 
Q 153.132219 76.443271 156.537485 82.943811 
Q 164.510298 78.260172 173.984503 70.878486 
Q 168.021482 66.153716 162.058461 61.428947 
Q 155.427051 66.627489 149.726953 69.942732 
" style="fill: #e3f3ff; stroke: #0055d4; stroke-linejoin: miter"/>
   </g>
   <g id="patch_39">
    <path d="M 130.651802 90.886177 
Q 135.989425 101.150948 141.327048 111.415719 
Q 150.531079 111.941301 160.842694 110.476521 
Q 151.467973 100.044781 142.093251 89.613041 
Q 135.62183 91.598633 130.651802 90.886177 
" style="fill: #e3f3ff; stroke: #0055d4; stroke-linejoin: miter"/>
   </g>
   <g id="patch_40">
    <path d="M 141.327048 111.415719 
Q 147.999076 124.246683 154.671105 137.077647 
Q 169.167639 137.369637 184.279498 136.55587 
Q 172.561096 123.516196 160.842694 110.476521 
Q 150.531079 111.941301 141.327048 111.415719 
" style="fill: #e3f3ff; stroke: #0055d4; stroke-linejoin: miter"/>
   </g>
   <g id="patch_41">
    <path d="M 154.671105 137.077647 
Q 163.011141 153.116352 171.351177 169.155057 
Q 192.46334 169.155057 213.575503 169.155057 
Q 198.927501 152.855464 184.279498 136.55587 
Q 169.167639 137.369637 154.671105 137.077647 
" style="fill: #e3f3ff; stroke: #0055d4; stroke-linejoin: miter"/>
   </g>
   <g id="patch_42">
    <path d="M 142.093251 89.613041 
Q 151.467973 100.044781 160.842694 110.476521 
Q 171.15431 109.01174 182.57351 105.556597 
Q 169.555497 94.250204 156.537485 82.943811 
Q 148.564672 87.62745 142.093251 89.613041 
" style="fill: #e3f3ff; stroke: #0055d4; stroke-linejoin: miter"/>
   </g>
   <g id="patch_43">
    <path d="M 160.842694 110.476521 
Q 172.561096 123.516196 184.279498 136.55587 
Q 199.391357 135.742103 215.118541 133.822579 
Q 198.846025 119.689588 182.57351 105.556597 
Q 171.15431 109.01174 160.842694 110.476521 
" style="fill: #e3f3ff; stroke: #0055d4; stroke-linejoin: miter"/>
   </g>
   <g id="patch_44">
    <path d="M 184.279498 136.55587 
Q 198.927501 152.855464 213.575503 169.155057 
Q 234.687666 169.155057 255.799829 169.155057 
Q 235.459185 151.488818 215.118541 133.822579 
Q 199.391357 135.742103 184.279498 136.55587 
" style="fill: #e3f3ff; stroke: #0055d4; stroke-linejoin: miter"/>
   </g>
   <g id="patch_45">
    <path d="M 156.537485 82.943811 
Q 169.555497 94.250204 182.57351 105.556597 
Q 193.99271 102.101453 206.519494 96.655947 
Q 190.251998 83.767216 173.984503 70.878486 
Q 164.510298 78.260172 156.537485 82.943811 
" style="fill: #e3f3ff; stroke: #0055d4; stroke-linejoin: miter"/>
   </g>
   <g id="patch_46">
    <path d="M 182.57351 105.556597 
Q 198.846025 119.689588 215.118541 133.822579 
Q 230.845724 131.903055 247.188232 128.877774 
Q 226.853863 112.76686 206.519494 96.655947 
Q 193.99271 102.101453 182.57351 105.556597 
" style="fill: #e3f3ff; stroke: #0055d4; stroke-linejoin: miter"/>
   </g>
   <g id="patch_47">
    <path d="M 215.118541 133.822579 
Q 235.459185 151.488818 255.799829 169.155057 
Q 276.911992 169.155057 298.024156 169.155057 
Q 272.606194 149.016416 247.188232 128.877774 
Q 230.845724 131.903055 215.118541 133.822579 
" style="fill: #e3f3ff; stroke: #0055d4; stroke-linejoin: miter"/>
   </g>
   <g id="patch_48">
    <path d="M 171.351177 169.155057 
Q 195.068601 265.484189 218.786025 361.813321 
Q 257.351827 361.813321 295.91763 361.813321 
Q 254.746567 265.484189 213.575503 169.155057 
Q 192.46334 169.155057 171.351177 169.155057 
" style="fill: #e3f3ff; stroke: #0055d4; stroke-linejoin: miter"/>
   </g>
   <g id="patch_49">
    <path d="M 218.786025 361.813321 
Q 247.246933 477.40828 275.707842 593.003238 
Q 335.218012 593.003238 394.728182 593.003238 
Q 345.322906 477.40828 295.91763 361.813321 
Q 257.351827 361.813321 218.786025 361.813321 
" style="fill: #e3f3ff; stroke: #0055d4; stroke-linejoin: miter"/>
   </g>
   <g id="patch_50">
    <path d="M 213.575503 169.155057 
Q 254.746567 265.484189 295.91763 361.813321 
Q 334.483433 361.813321 373.049235 361.813321 
Q 314.424532 265.484189 255.799829 169.155057 
Q 234.687666 169.155057 213.575503 169.155057 
" style="fill: #e3f3ff; stroke: #0055d4; stroke-linejoin: miter"/>
   </g>
   <g id="patch_51">
    <path d="M 295.91763 361.813321 
Q 345.322906 477.40828 394.728182 593.003238 
Q 454.238352 593.003238 513.748522 593.003238 
Q 443.398879 477.40828 373.049235 361.813321 
Q 334.483433 361.813321 295.91763 361.813321 
" style="fill: #e3f3ff; stroke: #0055d4; stroke-linejoin: miter"/>
   </g>
   <g id="patch_52">
    <path d="M 255.799829 169.155057 
Q 314.424532 265.484189 373.049235 361.813321 
Q 411.615038 361.813321 450.180841 361.813321 
Q 374.102498 265.484189 298.024156 169.155057 
Q 276.911992 169.155057 255.799829 169.155057 
" style="fill: #e3f3ff; stroke: #0055d4; stroke-linejoin: miter"/>
   </g>
   <g id="patch_53">
    <path d="M 373.049235 361.813321 
Q 443.398879 477.40828 513.748522 593.003238 
Q 573.258693 593.003238 632.768863 593.003238 
Q 541.474852 477.40828 450.180841 361.813321 
Q 411.615038 361.813321 373.049235 361.813321 
" style="fill: #e3f3ff; stroke: #0055d4; stroke-linejoin: miter"/>
   </g>
   <g id="patch_54">
    <path d="M 116.704106 35.095392 
Q 113.217182 35.095392 109.730258 35.095392 
Q 109.501794 37.340788 109.972203 39.659083 
Q 113.442235 39.116112 116.912266 38.573141 
Q 116.575972 36.887204 116.704106 35.095392 
" style="fill: #e3f3ff; stroke: #0055d4; stroke-linejoin: miter"/>
   </g>
   <g id="patch_55">
    <path d="M 109.730258 35.095392 
Q 106.243334 35.095392 102.75641 35.095392 
Q 102.427615 37.794372 103.032139 40.745025 
Q 106.502171 40.202054 109.972203 39.659083 
Q 109.501794 37.340788 109.730258 35.095392 
" style="fill: #e3f3ff; stroke: #0055d4; stroke-linejoin: miter"/>
   </g>
   <g id="patch_56">
    <path d="M 116.912266 38.573141 
Q 113.442235 39.116112 109.972203 39.659083 
Q 110.442612 41.977377 111.611894 44.368571 
Q 114.830588 43.103854 118.049282 41.839137 
Q 117.248561 40.259077 116.912266 38.573141 
" style="fill: #e3f3ff; stroke: #0055d4; stroke-linejoin: miter"/>
   </g>
   <g id="patch_57">
    <path d="M 109.972203 39.659083 
Q 106.502171 40.202054 103.032139 40.745025 
Q 103.636663 43.695678 105.174505 46.898005 
Q 108.393199 45.633288 111.611894 44.368571 
Q 110.442612 41.977377 109.972203 39.659083 
" style="fill: #e3f3ff; stroke: #0055d4; stroke-linejoin: miter"/>
   </g>
   <g id="patch_58">
    <path d="M 118.049282 41.839137 
Q 114.830588 43.103854 111.611894 44.368571 
Q 112.781176 46.759764 114.649331 49.223856 
Q 117.382242 47.058619 120.115153 44.893381 
Q 118.850004 43.419197 118.049282 41.839137 
" style="fill: #e3f3ff; stroke: #0055d4; stroke-linejoin: miter"/>
   </g>
   <g id="patch_59">
    <path d="M 111.611894 44.368571 
Q 108.393199 45.633288 105.174505 46.898005 
Q 106.712347 50.100331 109.183508 53.554331 
Q 111.916419 51.389094 114.649331 49.223856 
Q 112.781176 46.759764 111.611894 44.368571 
" style="fill: #e3f3ff; stroke: #0055d4; stroke-linejoin: miter"/>
   </g>
   <g id="patch_60">
    <path d="M 141.188451 44.893381 
Q 143.921361 47.058619 146.654272 49.223856 
Q 148.522427 46.759764 149.691709 44.368571 
Q 146.473015 43.103854 143.254321 41.839137 
Q 142.4536 43.419197 141.188451 44.893381 
" style="fill: #e3f3ff; stroke: #0055d4; stroke-linejoin: miter"/>
   </g>
   <g id="patch_61">
    <path d="M 146.654272 49.223856 
Q 149.387183 51.389094 152.120094 53.554331 
Q 154.591254 50.100331 156.129096 46.898005 
Q 152.910402 45.633288 149.691709 44.368571 
Q 148.522427 46.759764 146.654272 49.223856 
" style="fill: #e3f3ff; stroke: #0055d4; stroke-linejoin: miter"/>
   </g>
   <g id="patch_62">
    <path d="M 143.254321 41.839137 
Q 146.473015 43.103854 149.691709 44.368571 
Q 150.860991 41.977377 151.3314 39.659083 
Q 147.861369 39.116112 144.391337 38.573141 
Q 144.055043 40.259077 143.254321 41.839137 
" style="fill: #e3f3ff; stroke: #0055d4; stroke-linejoin: miter"/>
   </g>
   <g id="patch_63">
    <path d="M 149.691709 44.368571 
Q 152.910402 45.633288 156.129096 46.898005 
Q 157.666938 43.695678 158.271463 40.745025 
Q 154.801431 40.202054 151.3314 39.659083 
Q 150.860991 41.977377 149.691709 44.368571 
" style="fill: #e3f3ff; stroke: #0055d4; stroke-linejoin: miter"/>
   </g>
   <g id="patch_64">
    <path d="M 144.391337 38.573141 
Q 147.861369 39.116112 151.3314 39.659083 
Q 151.801809 37.340788 151.573346 35.095392 
Q 148.086422 35.095392 144.599498 35.095392 
Q 144.727631 36.887204 144.391337 38.573141 
" style="fill: #e3f3ff; stroke: #0055d4; stroke-linejoin: miter"/>
   </g>
   <g id="patch_65">
    <path d="M 151.3314 39.659083 
Q 154.801431 40.202054 158.271463 40.745025 
Q 158.875987 37.794372 158.547194 35.095392 
Q 155.06027 35.095392 151.573346 35.095392 
Q 151.801809 37.340788 151.3314 39.659083 
" style="fill: #e3f3ff; stroke: #0055d4; stroke-linejoin: miter"/>
   </g>
   <g id="patch_66">
    <path d="M 152.120094 53.554331 
Q 157.089277 57.491639 162.058461 61.428947 
Q 165.625742 56.174595 167.833553 51.497194 
Q 161.981325 49.197599 156.129096 46.898005 
Q 154.591254 50.100331 152.120094 53.554331 
" style="fill: #e3f3ff; stroke: #0055d4; stroke-linejoin: miter"/>
   </g>
   <g id="patch_67">
    <path d="M 162.058461 61.428947 
Q 168.021482 66.153716 173.984503 70.878486 
Q 178.867129 63.463712 181.878902 57.016221 
Q 174.856228 54.256708 167.833553 51.497194 
Q 165.625742 56.174595 162.058461 61.428947 
" style="fill: #e3f3ff; stroke: #0055d4; stroke-linejoin: miter"/>
   </g>
   <g id="patch_68">
    <path d="M 156.129096 46.898005 
Q 161.981325 49.197599 167.833553 51.497194 
Q 170.041364 46.819793 170.889705 42.719343 
Q 164.580584 41.732184 158.271463 40.745025 
Q 157.666938 43.695678 156.129096 46.898005 
" style="fill: #e3f3ff; stroke: #0055d4; stroke-linejoin: miter"/>
   </g>
   <g id="patch_69">
    <path d="M 167.833553 51.497194 
Q 174.856228 54.256708 181.878902 57.016221 
Q 184.890675 50.568731 186.031596 45.088524 
Q 178.460651 43.903933 170.889705 42.719343 
Q 170.041364 46.819793 167.833553 51.497194 
" style="fill: #e3f3ff; stroke: #0055d4; stroke-linejoin: miter"/>
   </g>
   <g id="patch_70">
    <path d="M 158.271463 40.745025 
Q 164.580584 41.732184 170.889705 42.719343 
Q 171.738047 38.618892 171.226918 35.095392 
Q 164.887056 35.095392 158.547194 35.095392 
Q 158.875987 37.794372 158.271463 40.745025 
" style="fill: #e3f3ff; stroke: #0055d4; stroke-linejoin: miter"/>
   </g>
   <g id="patch_71">
    <path d="M 170.889705 42.719343 
Q 178.460651 43.903933 186.031596 45.088524 
Q 187.172517 39.608316 186.442586 35.095392 
Q 178.834752 35.095392 171.226918 35.095392 
Q 171.738047 38.618892 170.889705 42.719343 
" style="fill: #e3f3ff; stroke: #0055d4; stroke-linejoin: miter"/>
   </g>
   <g id="patch_72">
    <path d="M 298.024156 35.095392 
Q 275.15908 35.095392 252.294004 35.095392 
Q 252.593156 50.131148 252.125566 65.563331 
Q 275.074861 72.672639 298.024156 79.781947 
Q 298.024156 57.43867 298.024156 35.095392 
" style="fill: #e3f3ff; stroke: #0055d4; stroke-linejoin: miter"/>
   </g>
   <g id="patch_73">
    <path d="M 252.294004 35.095392 
Q 234.001944 35.095392 215.709883 35.095392 
Q 216.248357 44.28513 215.406694 54.188438 
Q 233.76613 59.875884 252.125566 65.563331 
Q 252.593156 50.131148 252.294004 35.095392 
" style="fill: #e3f3ff; stroke: #0055d4; stroke-linejoin: miter"/>
   </g>
   <g id="patch_74">
    <path d="M 215.709883 35.095392 
Q 201.076235 35.095392 186.442586 35.095392 
Q 187.172517 39.608316 186.031596 45.088524 
Q 200.719145 49.638481 215.406694 54.188438 
Q 216.248357 44.28513 215.709883 35.095392 
" style="fill: #e3f3ff; stroke: #0055d4; stroke-linejoin: miter"/>
   </g>
   <g id="patch_75">
    <path d="M 298.024156 79.781947 
Q 275.074861 72.672639 252.125566 65.563331 
Q 251.657975 80.995514 250.423642 96.824125 
Q 274.223899 110.646314 298.024156 124.468502 
Q 298.024156 102.125225 298.024156 79.781947 
" style="fill: #e3f3ff; stroke: #0055d4; stroke-linejoin: miter"/>
   </g>
   <g id="patch_76">
    <path d="M 252.125566 65.563331 
Q 233.76613 59.875884 215.406694 54.188438 
Q 214.565031 64.091746 212.343231 74.708623 
Q 231.383436 85.766374 250.423642 96.824125 
Q 251.657975 80.995514 252.125566 65.563331 
" style="fill: #e3f3ff; stroke: #0055d4; stroke-linejoin: miter"/>
   </g>
   <g id="patch_77">
    <path d="M 215.406694 54.188438 
Q 200.719145 49.638481 186.031596 45.088524 
Q 184.890675 50.568731 181.878902 57.016221 
Q 197.111066 65.862422 212.343231 74.708623 
Q 214.565031 64.091746 215.406694 54.188438 
" style="fill: #e3f3ff; stroke: #0055d4; stroke-linejoin: miter"/>
   </g>
   <g id="patch_78">
    <path d="M 298.024156 124.468502 
Q 274.223899 110.646314 250.423642 96.824125 
Q 249.189308 112.652736 247.188232 128.877774 
Q 272.606194 149.016416 298.024156 169.155057 
Q 298.024156 146.81178 298.024156 124.468502 
" style="fill: #e3f3ff; stroke: #0055d4; stroke-linejoin: miter"/>
   </g>
   <g id="patch_79">
    <path d="M 250.423642 96.824125 
Q 231.383436 85.766374 212.343231 74.708623 
Q 210.121431 85.3255 206.519494 96.655947 
Q 226.853863 112.76686 247.188232 128.877774 
Q 249.189308 112.652736 250.423642 96.824125 
" style="fill: #e3f3ff; stroke: #0055d4; stroke-linejoin: miter"/>
   </g>
   <g id="patch_80">
    <path d="M 212.343231 74.708623 
Q 197.111066 65.862422 181.878902 57.016221 
Q 178.867129 63.463712 173.984503 70.878486 
Q 190.251998 83.767216 206.519494 96.655947 
Q 210.121431 85.3255 212.343231 74.708623 
" style="fill: #e3f3ff; stroke: #0055d4; stroke-linejoin: miter"/>
   </g>
   <g id="patch_81">
    <path d="M 298.024156 169.155057 
Q 374.102498 265.484189 450.180841 361.813321 
Q 450.180841 307.360333 450.180841 252.907345 
Q 374.102498 188.687924 298.024156 124.468502 
Q 298.024156 146.81178 298.024156 169.155057 
" style="fill: #e3f3ff; stroke: #0055d4; stroke-linejoin: miter"/>
   </g>
   <g id="patch_82">
    <path d="M 450.180841 361.813321 
Q 541.474852 477.40828 632.768863 593.003238 
Q 632.768863 500.018597 632.768863 407.033956 
Q 541.474852 329.97065 450.180841 252.907345 
Q 450.180841 307.360333 450.180841 361.813321 
" style="fill: #e3f3ff; stroke: #0055d4; stroke-linejoin: miter"/>
   </g>
   <g id="patch_83">
    <path d="M 298.024156 124.468502 
Q 374.102498 188.687924 450.180841 252.907345 
Q 450.180841 198.454357 450.180841 144.001369 
Q 374.102498 111.891658 298.024156 79.781947 
Q 298.024156 102.125225 298.024156 124.468502 
" style="fill: #e3f3ff; stroke: #0055d4; stroke-linejoin: miter"/>
   </g>
   <g id="patch_84">
    <path d="M 450.180841 252.907345 
Q 541.474852 329.97065 632.768863 407.033956 
Q 632.768863 314.049315 632.768863 221.064674 
Q 541.474852 182.533021 450.180841 144.001369 
Q 450.180841 198.454357 450.180841 252.907345 
" style="fill: #e3f3ff; stroke: #0055d4; stroke-linejoin: miter"/>
   </g>
   <g id="patch_85">
    <path d="M 298.024156 79.781947 
Q 374.102498 111.891658 450.180841 144.001369 
Q 450.180841 89.54838 450.180841 35.095392 
Q 374.102498 35.095392 298.024156 35.095392 
Q 298.024156 57.43867 298.024156 79.781947 
" style="fill: #e3f3ff; stroke: #0055d4; stroke-linejoin: miter"/>
   </g>
   <g id="patch_86">
    <path d="M 450.180841 144.001369 
Q 541.474852 182.533021 632.768863 221.064674 
Q 632.768863 128.080033 632.768863 35.095392 
Q 541.474852 35.095392 450.180841 35.095392 
Q 450.180841 89.54838 450.180841 144.001369 
" style="fill: #e3f3ff; stroke: #0055d4; stroke-linejoin: miter"/>
   </g>
   <g id="patch_87">
    <path d="M 102.75641 35.095392 
Q 96.416548 35.095392 90.076686 35.095392 
Q 89.897343 40.026084 90.227084 45.094053 
Q 96.629611 42.919539 103.032139 40.745025 
Q 102.427615 37.794372 102.75641 35.095392 
" style="fill: #e3f3ff; stroke: #0055d4; stroke-linejoin: miter"/>
   </g>
   <g id="patch_88">
    <path d="M 90.076686 35.095392 
Q 82.468852 35.095392 74.861017 35.095392 
Q 74.861017 42.704139 74.861017 50.312887 
Q 82.54405 47.70347 90.227084 45.094053 
Q 89.897343 40.026084 90.076686 35.095392 
" style="fill: #e3f3ff; stroke: #0055d4; stroke-linejoin: miter"/>
   </g>
   <g id="patch_89">
    <path d="M 103.032139 40.745025 
Q 96.629611 42.919539 90.227084 45.094053 
Q 90.556824 50.162022 91.395647 55.367267 
Q 98.285076 51.132636 105.174505 46.898005 
Q 103.636663 43.695678 103.032139 40.745025 
" style="fill: #e3f3ff; stroke: #0055d4; stroke-linejoin: miter"/>
   </g>
   <g id="patch_90">
    <path d="M 90.227084 45.094053 
Q 82.54405 47.70347 74.861017 50.312887 
Q 74.861017 57.921634 74.861017 65.530381 
Q 83.128332 60.448824 91.395647 55.367267 
Q 90.556824 50.162022 90.227084 45.094053 
" style="fill: #e3f3ff; stroke: #0055d4; stroke-linejoin: miter"/>
   </g>
   <g id="patch_91">
    <path d="M 105.174505 46.898005 
Q 98.285076 51.132636 91.395647 55.367267 
Q 92.23447 60.572512 93.582376 65.915033 
Q 101.382942 59.734682 109.183508 53.554331 
Q 106.712347 50.100331 105.174505 46.898005 
" style="fill: #e3f3ff; stroke: #0055d4; stroke-linejoin: miter"/>
   </g>
   <g id="patch_92">
    <path d="M 91.395647 55.367267 
Q 83.128332 60.448824 74.861017 65.530381 
Q 74.861017 73.139128 74.861017 80.747875 
Q 84.221697 73.331454 93.582376 65.915033 
Q 92.23447 60.572512 91.395647 55.367267 
" style="fill: #e3f3ff; stroke: #0055d4; stroke-linejoin: miter"/>
   </g>
   <g id="patch_93">
    <path d="M 74.861017 80.747875 
Q 84.159481 82.437592 93.457945 84.127309 
Q 99.947259 77.303998 106.436572 70.480686 
Q 100.133904 68.526316 93.582376 65.915033 
Q 84.221697 73.331454 74.861017 80.747875 
" style="fill: #e3f3ff; stroke: #0055d4; stroke-linejoin: miter"/>
   </g>
   <g id="patch_94">
    <path d="M 93.457945 84.127309 
Q 102.75641 85.817026 112.054874 87.506743 
Q 115.423961 80.619627 118.793047 73.732511 
Q 112.73924 72.435055 106.436572 70.480686 
Q 99.947259 77.303998 93.457945 84.127309 
" style="fill: #e3f3ff; stroke: #0055d4; stroke-linejoin: miter"/>
   </g>
   <g id="patch_95">
    <path d="M 112.054874 87.506743 
Q 121.353338 89.19646 130.651802 90.886177 
Q 130.651802 83.278343 130.651802 75.670508 
Q 124.846855 75.029967 118.793047 73.732511 
Q 115.423961 80.619627 112.054874 87.506743 
" style="fill: #e3f3ff; stroke: #0055d4; stroke-linejoin: miter"/>
   </g>
   <g id="patch_96">
    <path d="M 93.582376 65.915033 
Q 100.133904 68.526316 106.436572 70.480686 
Q 111.844333 64.794593 117.252094 59.1085 
Q 113.445923 56.933587 109.183508 53.554331 
Q 101.382942 59.734682 93.582376 65.915033 
" style="fill: #e3f3ff; stroke: #0055d4; stroke-linejoin: miter"/>
   </g>
   <g id="patch_97">
    <path d="M 106.436572 70.480686 
Q 112.73924 72.435055 118.793047 73.732511 
Q 121.60062 67.993248 124.408192 62.253984 
Q 121.058265 61.283413 117.252094 59.1085 
Q 111.844333 64.794593 106.436572 70.480686 
" style="fill: #e3f3ff; stroke: #0055d4; stroke-linejoin: miter"/>
   </g>
   <g id="patch_98">
    <path d="M 118.793047 73.732511 
Q 124.846855 75.029967 130.651802 75.670508 
Q 130.651802 69.330646 130.651802 62.990785 
Q 127.758119 63.224555 124.408192 62.253984 
Q 121.60062 67.993248 118.793047 73.732511 
" style="fill: #e3f3ff; stroke: #0055d4; stroke-linejoin: miter"/>
   </g>
   <g id="patch_99">
    <path d="M 74.861017 80.747875 
Q 74.861017 92.34226 74.861017 103.936644 
Q 85.938689 105.183157 97.016361 106.429669 
Q 95.237153 95.278489 93.457945 84.127309 
Q 84.159481 82.437592 74.861017 80.747875 
" style="fill: #e3f3ff; stroke: #0055d4; stroke-linejoin: miter"/>
   </g>
   <g id="patch_100">
    <path d="M 93.457945 84.127309 
Q 95.237153 95.278489 97.016361 106.429669 
Q 108.094033 107.676182 119.171704 108.922694 
Q 115.613289 98.214719 112.054874 87.506743 
Q 102.75641 85.817026 93.457945 84.127309 
" style="fill: #e3f3ff; stroke: #0055d4; stroke-linejoin: miter"/>
   </g>
   <g id="patch_101">
    <path d="M 112.054874 87.506743 
Q 115.613289 98.214719 119.171704 108.922694 
Q 130.249376 110.169207 141.327048 111.415719 
Q 135.989425 101.150948 130.651802 90.886177 
Q 121.353338 89.19646 112.054874 87.506743 
" style="fill: #e3f3ff; stroke: #0055d4; stroke-linejoin: miter"/>
   </g>
   <g id="patch_102">
    <path d="M 74.861017 103.936644 
Q 74.861017 118.429625 74.861017 132.922606 
Q 88.162699 133.615113 101.46438 134.30762 
Q 99.24037 120.368644 97.016361 106.429669 
Q 85.938689 105.183157 74.861017 103.936644 
" style="fill: #e3f3ff; stroke: #0055d4; stroke-linejoin: miter"/>
   </g>
   <g id="patch_103">
    <path d="M 97.016361 106.429669 
Q 99.24037 120.368644 101.46438 134.30762 
Q 114.766061 135.000127 128.067743 135.692633 
Q 123.619723 122.307664 119.171704 108.922694 
Q 108.094033 107.676182 97.016361 106.429669 
" style="fill: #e3f3ff; stroke: #0055d4; stroke-linejoin: miter"/>
   </g>
   <g id="patch_104">
    <path d="M 119.171704 108.922694 
Q 123.619723 122.307664 128.067743 135.692633 
Q 141.369424 136.38514 154.671105 137.077647 
Q 147.999076 124.246683 141.327048 111.415719 
Q 130.249376 110.169207 119.171704 108.922694 
" style="fill: #e3f3ff; stroke: #0055d4; stroke-linejoin: miter"/>
   </g>
   <g id="patch_105">
    <path d="M 74.861017 132.922606 
Q 74.861017 151.038832 74.861017 169.155057 
Q 90.942711 169.155057 107.024404 169.155057 
Q 104.244392 151.731338 101.46438 134.30762 
Q 88.162699 133.615113 74.861017 132.922606 
" style="fill: #e3f3ff; stroke: #0055d4; stroke-linejoin: miter"/>
   </g>
   <g id="patch_106">
    <path d="M 101.46438 134.30762 
Q 104.244392 151.731338 107.024404 169.155057 
Q 123.106097 169.155057 139.18779 169.155057 
Q 133.627766 152.423845 128.067743 135.692633 
Q 114.766061 135.000127 101.46438 134.30762 
" style="fill: #e3f3ff; stroke: #0055d4; stroke-linejoin: miter"/>
   </g>
   <g id="patch_107">
    <path d="M 128.067743 135.692633 
Q 133.627766 152.423845 139.18779 169.155057 
Q 155.269484 169.155057 171.351177 169.155057 
Q 163.011141 153.116352 154.671105 137.077647 
Q 141.369424 136.38514 128.067743 135.692633 
" style="fill: #e3f3ff; stroke: #0055d4; stroke-linejoin: miter"/>
   </g>
   <g id="patch_108">
    <path d="M 123.677954 35.095392 
Q 123.677954 36.2577 123.677954 37.420008 
Q 124.840262 37.420008 126.00257 37.420008 
Q 126.00257 36.2577 126.00257 35.095392 
Q 124.840262 35.095392 123.677954 35.095392 
" style="fill: #e3f3ff; stroke: #0055d4; stroke-linejoin: miter"/>
   </g>
   <g id="patch_109">
    <path d="M 123.677954 37.420008 
Q 123.677954 38.582316 123.677954 39.744624 
Q 124.840262 39.744624 126.00257 39.744624 
Q 126.00257 38.582316 126.00257 37.420008 
Q 124.840262 37.420008 123.677954 37.420008 
" style="fill: #e3f3ff; stroke: #0055d4; stroke-linejoin: miter"/>
   </g>
   <g id="patch_110">
    <path d="M 123.677954 39.744624 
Q 123.677954 40.906932 123.677954 42.06924 
Q 124.840262 42.06924 126.00257 42.06924 
Q 126.00257 40.906932 126.00257 39.744624 
Q 124.840262 39.744624 123.677954 39.744624 
" style="fill: #e3f3ff; stroke: #0055d4; stroke-linejoin: miter"/>
   </g>
   <g id="patch_111">
    <path d="M 126.00257 35.095392 
Q 126.00257 36.2577 126.00257 37.420008 
Q 127.164878 37.420008 128.327186 37.420008 
Q 128.327186 36.2577 128.327186 35.095392 
Q 127.164878 35.095392 126.00257 35.095392 
" style="fill: #e3f3ff; stroke: #0055d4; stroke-linejoin: miter"/>
   </g>
   <g id="patch_112">
    <path d="M 126.00257 37.420008 
Q 126.00257 38.582316 126.00257 39.744624 
Q 127.164878 39.744624 128.327186 39.744624 
Q 128.327186 38.582316 128.327186 37.420008 
Q 127.164878 37.420008 126.00257 37.420008 
" style="fill: #e3f3ff; stroke: #0055d4; stroke-linejoin: miter"/>
   </g>
   <g id="patch_113">
    <path d="M 126.00257 39.744624 
Q 126.00257 40.906932 126.00257 42.06924 
Q 127.164878 42.06924 128.327186 42.06924 
Q 128.327186 40.906932 128.327186 39.744624 
Q 127.164878 39.744624 126.00257 39.744624 
" style="fill: #e3f3ff; stroke: #0055d4; stroke-linejoin: miter"/>
   </g>
   <g id="patch_114">
    <path d="M 128.327186 35.095392 
Q 128.327186 36.2577 128.327186 37.420008 
Q 129.489494 37.420008 130.651802 37.420008 
Q 130.651802 36.2577 130.651802 35.095392 
Q 129.489494 35.095392 128.327186 35.095392 
" style="fill: #e3f3ff; stroke: #0055d4; stroke-linejoin: miter"/>
   </g>
   <g id="patch_115">
    <path d="M 128.327186 37.420008 
Q 128.327186 38.582316 128.327186 39.744624 
Q 129.489494 39.744624 130.651802 39.744624 
Q 130.651802 38.582316 130.651802 37.420008 
Q 129.489494 37.420008 128.327186 37.420008 
" style="fill: #e3f3ff; stroke: #0055d4; stroke-linejoin: miter"/>
   </g>
   <g id="patch_116">
    <path d="M 128.327186 39.744624 
Q 128.327186 40.906932 128.327186 42.06924 
Q 129.489494 42.06924 130.651802 42.06924 
Q 130.651802 40.906932 130.651802 39.744624 
Q 129.489494 39.744624 128.327186 39.744624 
" style="fill: #e3f3ff; stroke: #0055d4; stroke-linejoin: miter"/>
   </g>
   <g id="patch_117">
    <path d="M 123.677954 35.095392 
Q 121.934492 35.095392 120.19103 35.095392 
Q 120.126963 36.572452 120.29511 37.996574 
Q 121.986532 37.708291 123.677954 37.420008 
Q 123.677954 36.2577 123.677954 35.095392 
" style="fill: #e3f3ff; stroke: #0055d4; stroke-linejoin: miter"/>
   </g>
   <g id="patch_118">
    <path d="M 123.677954 37.420008 
Q 121.986532 37.708291 120.29511 37.996574 
Q 120.463257 39.420697 120.863618 40.791881 
Q 122.270786 40.268252 123.677954 39.744624 
Q 123.677954 38.582316 123.677954 37.420008 
" style="fill: #e3f3ff; stroke: #0055d4; stroke-linejoin: miter"/>
   </g>
   <g id="patch_119">
    <path d="M 123.677954 39.744624 
Q 122.270786 40.268252 120.863618 40.791881 
Q 121.263979 42.163065 121.896553 43.481311 
Q 122.787254 42.775276 123.677954 42.06924 
Q 123.677954 40.906932 123.677954 39.744624 
" style="fill: #e3f3ff; stroke: #0055d4; stroke-linejoin: miter"/>
   </g>
   <g id="patch_120">
    <path d="M 120.19103 35.095392 
Q 118.447568 35.095392 116.704106 35.095392 
Q 116.575972 36.887204 116.912266 38.573141 
Q 118.603688 38.284858 120.29511 37.996574 
Q 120.126963 36.572452 120.19103 35.095392 
" style="fill: #e3f3ff; stroke: #0055d4; stroke-linejoin: miter"/>
   </g>
   <g id="patch_121">
    <path d="M 120.29511 37.996574 
Q 118.603688 38.284858 116.912266 38.573141 
Q 117.248561 40.259077 118.049282 41.839137 
Q 119.45645 41.315509 120.863618 40.791881 
Q 120.463257 39.420697 120.29511 37.996574 
" style="fill: #e3f3ff; stroke: #0055d4; stroke-linejoin: miter"/>
   </g>
   <g id="patch_122">
    <path d="M 120.863618 40.791881 
Q 119.45645 41.315509 118.049282 41.839137 
Q 118.850004 43.419197 120.115153 44.893381 
Q 121.005853 44.187346 121.896553 43.481311 
Q 121.263979 42.163065 120.863618 40.791881 
" style="fill: #e3f3ff; stroke: #0055d4; stroke-linejoin: miter"/>
   </g>
   <g id="patch_123">
    <path d="M 123.677954 42.06924 
Q 122.787254 42.775276 121.896553 43.481311 
Q 123.045379 44.119272 124.401126 44.562465 
Q 125.201848 43.315853 126.00257 42.06924 
Q 124.840262 42.06924 123.677954 42.06924 
" style="fill: #e3f3ff; stroke: #0055d4; stroke-linejoin: miter"/>
   </g>
   <g id="patch_124">
    <path d="M 126.00257 42.06924 
Q 125.201848 43.315853 124.401126 44.562465 
Q 125.756873 45.005658 127.319542 45.254083 
Q 127.823364 43.661662 128.327186 42.06924 
Q 127.164878 42.06924 126.00257 42.06924 
" style="fill: #e3f3ff; stroke: #0055d4; stroke-linejoin: miter"/>
   </g>
   <g id="patch_125">
    <path d="M 128.327186 42.06924 
Q 127.823364 43.661662 127.319542 45.254083 
Q 128.882211 45.502508 130.651802 45.556164 
Q 130.651802 43.812702 130.651802 42.06924 
Q 129.489494 42.06924 128.327186 42.06924 
" style="fill: #e3f3ff; stroke: #0055d4; stroke-linejoin: miter"/>
   </g>
   <g id="patch_126">
    <path d="M 121.896553 43.481311 
Q 121.005853 44.187346 120.115153 44.893381 
Q 121.250496 46.169303 122.799683 47.055689 
Q 123.600404 45.809077 124.401126 44.562465 
Q 123.045379 44.119272 121.896553 43.481311 
" style="fill: #e3f3ff; stroke: #0055d4; stroke-linejoin: miter"/>
   </g>
   <g id="patch_127">
    <path d="M 124.401126 44.562465 
Q 123.600404 45.809077 122.799683 47.055689 
Q 124.348869 47.942075 126.311899 48.438925 
Q 126.815721 46.846504 127.319542 45.254083 
Q 125.756873 45.005658 124.401126 44.562465 
" style="fill: #e3f3ff; stroke: #0055d4; stroke-linejoin: miter"/>
   </g>
   <g id="patch_128">
    <path d="M 127.319542 45.254083 
Q 126.815721 46.846504 126.311899 48.438925 
Q 128.274929 48.935775 130.651802 49.043088 
Q 130.651802 47.299626 130.651802 45.556164 
Q 128.882211 45.502508 127.319542 45.254083 
" style="fill: #e3f3ff; stroke: #0055d4; stroke-linejoin: miter"/>
   </g>
   <g id="patch_129">
    <path d="M 130.651802 42.06924 
Q 131.81411 42.06924 132.976418 42.06924 
Q 132.976418 40.906932 132.976418 39.744624 
Q 131.81411 39.744624 130.651802 39.744624 
Q 130.651802 40.906932 130.651802 42.06924 
" style="fill: #e3f3ff; stroke: #0055d4; stroke-linejoin: miter"/>
   </g>
   <g id="patch_130">
    <path d="M 132.976418 42.06924 
Q 134.138726 42.06924 135.301034 42.06924 
Q 135.301034 40.906932 135.301034 39.744624 
Q 134.138726 39.744624 132.976418 39.744624 
Q 132.976418 40.906932 132.976418 42.06924 
" style="fill: #e3f3ff; stroke: #0055d4; stroke-linejoin: miter"/>
   </g>
   <g id="patch_131">
    <path d="M 135.301034 42.06924 
Q 136.463342 42.06924 137.62565 42.06924 
Q 137.62565 40.906932 137.62565 39.744624 
Q 136.463342 39.744624 135.301034 39.744624 
Q 135.301034 40.906932 135.301034 42.06924 
" style="fill: #e3f3ff; stroke: #0055d4; stroke-linejoin: miter"/>
   </g>
   <g id="patch_132">
    <path d="M 130.651802 39.744624 
Q 131.81411 39.744624 132.976418 39.744624 
Q 132.976418 38.582316 132.976418 37.420008 
Q 131.81411 37.420008 130.651802 37.420008 
Q 130.651802 38.582316 130.651802 39.744624 
" style="fill: #e3f3ff; stroke: #0055d4; stroke-linejoin: miter"/>
   </g>
   <g id="patch_133">
    <path d="M 132.976418 39.744624 
Q 134.138726 39.744624 135.301034 39.744624 
Q 135.301034 38.582316 135.301034 37.420008 
Q 134.138726 37.420008 132.976418 37.420008 
Q 132.976418 38.582316 132.976418 39.744624 
" style="fill: #e3f3ff; stroke: #0055d4; stroke-linejoin: miter"/>
   </g>
   <g id="patch_134">
    <path d="M 135.301034 39.744624 
Q 136.463342 39.744624 137.62565 39.744624 
Q 137.62565 38.582316 137.62565 37.420008 
Q 136.463342 37.420008 135.301034 37.420008 
Q 135.301034 38.582316 135.301034 39.744624 
" style="fill: #e3f3ff; stroke: #0055d4; stroke-linejoin: miter"/>
   </g>
   <g id="patch_135">
    <path d="M 130.651802 37.420008 
Q 131.81411 37.420008 132.976418 37.420008 
Q 132.976418 36.2577 132.976418 35.095392 
Q 131.81411 35.095392 130.651802 35.095392 
Q 130.651802 36.2577 130.651802 37.420008 
" style="fill: #e3f3ff; stroke: #0055d4; stroke-linejoin: miter"/>
   </g>
   <g id="patch_136">
    <path d="M 132.976418 37.420008 
Q 134.138726 37.420008 135.301034 37.420008 
Q 135.301034 36.2577 135.301034 35.095392 
Q 134.138726 35.095392 132.976418 35.095392 
Q 132.976418 36.2577 132.976418 37.420008 
" style="fill: #e3f3ff; stroke: #0055d4; stroke-linejoin: miter"/>
   </g>
   <g id="patch_137">
    <path d="M 135.301034 37.420008 
Q 136.463342 37.420008 137.62565 37.420008 
Q 137.62565 36.2577 137.62565 35.095392 
Q 136.463342 35.095392 135.301034 35.095392 
Q 135.301034 36.2577 135.301034 37.420008 
" style="fill: #e3f3ff; stroke: #0055d4; stroke-linejoin: miter"/>
   </g>
   <g id="patch_138">
    <path d="M 46.965625 620.89863 
L 46.965625 7.2 
" style="fill: none; stroke: #000000; stroke-width: 0.8; stroke-linejoin: miter; stroke-linecap: square"/>
   </g>
   <g id="patch_139">
    <path d="M 660.664255 620.89863 
L 660.664255 7.2 
" style="fill: none; stroke: #000000; stroke-width: 0.8; stroke-linejoin: miter; stroke-linecap: square"/>
   </g>
   <g id="patch_140">
    <path d="M 46.965625 620.89863 
L 660.664255 620.89863 
" style="fill: none; stroke: #000000; stroke-width: 0.8; stroke-linejoin: miter; stroke-linecap: square"/>
   </g>
   <g id="patch_141">
    <path d="M 46.965625 7.2 
L 660.664255 7.2 
" style="fill: none; stroke: #000000; stroke-width: 0.8; stroke-linejoin: miter; stroke-linecap: square"/>
   </g>
  </g>
 </g>
 <defs>
  <clipPath id="p1fdfd9952c">
   <rect x="46.965625" y="7.2" width="613.69863" height="613.69863"/>
  </clipPath>
 </defs>
</svg>
