<?xml version="1.0" encoding="utf-8" standalone="no"?>
<!DOCTYPE svg PUBLIC "-//W3C//DTD SVG 1.1//EN"
  "http://www.w3.org/Graphics/SVG/1.1/DTD/svg11.dtd">
<svg xmlns:xlink="http://www.w3.org/1999/xlink" width="525.804952pt" height="202.97639pt" viewBox="0 0 525.804952 202.97639" xmlns="http://www.w3.org/2000/svg" version="1.1">
 <metadata>
  <rdf:RDF xmlns:dc="http://purl.org/dc/elements/1.1/" xmlns:cc="http://creativecommons.org/ns#" xmlns:rdf="http://www.w3.org/1999/02/22-rdf-syntax-ns#">
   <cc:Work>
    <dc:type rdf:resource="http://purl.org/dc/dcmitype/StillImage"/>
    <dc:date>2023-09-13T09:24:32.140186</dc:date>
    <dc:format>image/svg+xml</dc:format>
    <dc:creator>
     <cc:Agent>
      <dc:title>Matplotlib v3.5.2, https://matplotlib.org/</dc:title>
     </cc:Agent>
    </dc:creator>
   </cc:Work>
  </rdf:RDF>
 </metadata>
 <defs>
  <style type="text/css">*{stroke-linejoin: round; stroke-linecap: butt}</style>
 </defs>
 <g id="figure_1">
  <g id="patch_1">
   <path d="M 0 202.97639 
L 525.804952 202.97639 
L 525.804952 0 
L 0 0 
z
" style="fill: #ffffff"/>
  </g>
  <g id="axes_1">
   <g id="patch_2">
    <path d="M 52.160938 165.42014 
L 515.423702 165.42014 
L 515.423702 10.999219 
L 52.160938 10.999219 
z
" style="fill: #ffffff"/>
   </g>
   <g id="matplotlib.axis_1">
    <g id="xtick_1">
     <g id="line2d_1">
      <path d="M 52.160938 165.42014 
L 52.160938 10.999219 
" clip-path="url(#p5018345a35)" style="fill: none; stroke-dasharray: 2.96,1.28; stroke-dashoffset: 0; stroke: #808080; stroke-width: 0.8"/>
     </g>
     <g id="line2d_2">
      <defs>
       <path id="m1a7883eee2" d="M 0 0 
L 0 3.5 
" style="stroke: #000000; stroke-width: 0.8"/>
      </defs>
      <g>
       <use xlink:href="#m1a7883eee2" x="52.160938" y="165.42014" style="stroke: #000000; stroke-width: 0.8"/>
      </g>
     </g>
     <g id="text_1">
      <!-- 0 -->
      <g transform="translate(48.979688 180.018578)scale(0.1 -0.1)">
       <defs>
        <path id="DejaVuSans-30" d="M 2034 4250 
Q 1547 4250 1301 3770 
Q 1056 3291 1056 2328 
Q 1056 1369 1301 889 
Q 1547 409 2034 409 
Q 2525 409 2770 889 
Q 3016 1369 3016 2328 
Q 3016 3291 2770 3770 
Q 2525 4250 2034 4250 
z
M 2034 4750 
Q 2819 4750 3233 4129 
Q 3647 3509 3647 2328 
Q 3647 1150 3233 529 
Q 2819 -91 2034 -91 
Q 1250 -91 836 529 
Q 422 1150 422 2328 
Q 422 3509 836 4129 
Q 1250 4750 2034 4750 
z
" transform="scale(0.015625)"/>
       </defs>
       <use xlink:href="#DejaVuSans-30"/>
      </g>
     </g>
    </g>
    <g id="xtick_2">
     <g id="line2d_3">
      <path d="M 129.371398 165.42014 
L 129.371398 10.999219 
" clip-path="url(#p5018345a35)" style="fill: none; stroke-dasharray: 2.96,1.28; stroke-dashoffset: 0; stroke: #808080; stroke-width: 0.8"/>
     </g>
     <g id="line2d_4">
      <g>
       <use xlink:href="#m1a7883eee2" x="129.371398" y="165.42014" style="stroke: #000000; stroke-width: 0.8"/>
      </g>
     </g>
     <g id="text_2">
      <!-- 1 -->
      <g transform="translate(126.190148 180.018578)scale(0.1 -0.1)">
       <defs>
        <path id="DejaVuSans-31" d="M 794 531 
L 1825 531 
L 1825 4091 
L 703 3866 
L 703 4441 
L 1819 4666 
L 2450 4666 
L 2450 531 
L 3481 531 
L 3481 0 
L 794 0 
L 794 531 
z
" transform="scale(0.015625)"/>
       </defs>
       <use xlink:href="#DejaVuSans-31"/>
      </g>
     </g>
    </g>
    <g id="xtick_3">
     <g id="line2d_5">
      <path d="M 206.581859 165.42014 
L 206.581859 10.999219 
" clip-path="url(#p5018345a35)" style="fill: none; stroke-dasharray: 2.96,1.28; stroke-dashoffset: 0; stroke: #808080; stroke-width: 0.8"/>
     </g>
     <g id="line2d_6">
      <g>
       <use xlink:href="#m1a7883eee2" x="206.581859" y="165.42014" style="stroke: #000000; stroke-width: 0.8"/>
      </g>
     </g>
     <g id="text_3">
      <!-- 2 -->
      <g transform="translate(203.400609 180.018578)scale(0.1 -0.1)">
       <defs>
        <path id="DejaVuSans-32" d="M 1228 531 
L 3431 531 
L 3431 0 
L 469 0 
L 469 531 
Q 828 903 1448 1529 
Q 2069 2156 2228 2338 
Q 2531 2678 2651 2914 
Q 2772 3150 2772 3378 
Q 2772 3750 2511 3984 
Q 2250 4219 1831 4219 
Q 1534 4219 1204 4116 
Q 875 4013 500 3803 
L 500 4441 
Q 881 4594 1212 4672 
Q 1544 4750 1819 4750 
Q 2544 4750 2975 4387 
Q 3406 4025 3406 3419 
Q 3406 3131 3298 2873 
Q 3191 2616 2906 2266 
Q 2828 2175 2409 1742 
Q 1991 1309 1228 531 
z
" transform="scale(0.015625)"/>
       </defs>
       <use xlink:href="#DejaVuSans-32"/>
      </g>
     </g>
    </g>
    <g id="xtick_4">
     <g id="line2d_7">
      <path d="M 283.79232 165.42014 
L 283.79232 10.999219 
" clip-path="url(#p5018345a35)" style="fill: none; stroke-dasharray: 2.96,1.28; stroke-dashoffset: 0; stroke: #808080; stroke-width: 0.8"/>
     </g>
     <g id="line2d_8">
      <g>
       <use xlink:href="#m1a7883eee2" x="283.79232" y="165.42014" style="stroke: #000000; stroke-width: 0.8"/>
      </g>
     </g>
     <g id="text_4">
      <!-- 3 -->
      <g transform="translate(280.61107 180.018578)scale(0.1 -0.1)">
       <defs>
        <path id="DejaVuSans-33" d="M 2597 2516 
Q 3050 2419 3304 2112 
Q 3559 1806 3559 1356 
Q 3559 666 3084 287 
Q 2609 -91 1734 -91 
Q 1441 -91 1130 -33 
Q 819 25 488 141 
L 488 750 
Q 750 597 1062 519 
Q 1375 441 1716 441 
Q 2309 441 2620 675 
Q 2931 909 2931 1356 
Q 2931 1769 2642 2001 
Q 2353 2234 1838 2234 
L 1294 2234 
L 1294 2753 
L 1863 2753 
Q 2328 2753 2575 2939 
Q 2822 3125 2822 3475 
Q 2822 3834 2567 4026 
Q 2313 4219 1838 4219 
Q 1578 4219 1281 4162 
Q 984 4106 628 3988 
L 628 4550 
Q 988 4650 1302 4700 
Q 1616 4750 1894 4750 
Q 2613 4750 3031 4423 
Q 3450 4097 3450 3541 
Q 3450 3153 3228 2886 
Q 3006 2619 2597 2516 
z
" transform="scale(0.015625)"/>
       </defs>
       <use xlink:href="#DejaVuSans-33"/>
      </g>
     </g>
    </g>
    <g id="xtick_5">
     <g id="line2d_9">
      <path d="M 361.002781 165.42014 
L 361.002781 10.999219 
" clip-path="url(#p5018345a35)" style="fill: none; stroke-dasharray: 2.96,1.28; stroke-dashoffset: 0; stroke: #808080; stroke-width: 0.8"/>
     </g>
     <g id="line2d_10">
      <g>
       <use xlink:href="#m1a7883eee2" x="361.002781" y="165.42014" style="stroke: #000000; stroke-width: 0.8"/>
      </g>
     </g>
     <g id="text_5">
      <!-- 4 -->
      <g transform="translate(357.821531 180.018578)scale(0.1 -0.1)">
       <defs>
        <path id="DejaVuSans-34" d="M 2419 4116 
L 825 1625 
L 2419 1625 
L 2419 4116 
z
M 2253 4666 
L 3047 4666 
L 3047 1625 
L 3713 1625 
L 3713 1100 
L 3047 1100 
L 3047 0 
L 2419 0 
L 2419 1100 
L 313 1100 
L 313 1709 
L 2253 4666 
z
" transform="scale(0.015625)"/>
       </defs>
       <use xlink:href="#DejaVuSans-34"/>
      </g>
     </g>
    </g>
    <g id="xtick_6">
     <g id="line2d_11">
      <path d="M 438.213241 165.42014 
L 438.213241 10.999219 
" clip-path="url(#p5018345a35)" style="fill: none; stroke-dasharray: 2.96,1.28; stroke-dashoffset: 0; stroke: #808080; stroke-width: 0.8"/>
     </g>
     <g id="line2d_12">
      <g>
       <use xlink:href="#m1a7883eee2" x="438.213241" y="165.42014" style="stroke: #000000; stroke-width: 0.8"/>
      </g>
     </g>
     <g id="text_6">
      <!-- 5 -->
      <g transform="translate(435.031991 180.018578)scale(0.1 -0.1)">
       <defs>
        <path id="DejaVuSans-35" d="M 691 4666 
L 3169 4666 
L 3169 4134 
L 1269 4134 
L 1269 2991 
Q 1406 3038 1543 3061 
Q 1681 3084 1819 3084 
Q 2600 3084 3056 2656 
Q 3513 2228 3513 1497 
Q 3513 744 3044 326 
Q 2575 -91 1722 -91 
Q 1428 -91 1123 -41 
Q 819 9 494 109 
L 494 744 
Q 775 591 1075 516 
Q 1375 441 1709 441 
Q 2250 441 2565 725 
Q 2881 1009 2881 1497 
Q 2881 1984 2565 2268 
Q 2250 2553 1709 2553 
Q 1456 2553 1204 2497 
Q 953 2441 691 2322 
L 691 4666 
z
" transform="scale(0.015625)"/>
       </defs>
       <use xlink:href="#DejaVuSans-35"/>
      </g>
     </g>
    </g>
    <g id="xtick_7">
     <g id="line2d_13">
      <path d="M 515.423702 165.42014 
L 515.423702 10.999219 
" clip-path="url(#p5018345a35)" style="fill: none; stroke-dasharray: 2.96,1.28; stroke-dashoffset: 0; stroke: #808080; stroke-width: 0.8"/>
     </g>
     <g id="line2d_14">
      <g>
       <use xlink:href="#m1a7883eee2" x="515.423702" y="165.42014" style="stroke: #000000; stroke-width: 0.8"/>
      </g>
     </g>
     <g id="text_7">
      <!-- 6 -->
      <g transform="translate(512.242452 180.018578)scale(0.1 -0.1)">
       <defs>
        <path id="DejaVuSans-36" d="M 2113 2584 
Q 1688 2584 1439 2293 
Q 1191 2003 1191 1497 
Q 1191 994 1439 701 
Q 1688 409 2113 409 
Q 2538 409 2786 701 
Q 3034 994 3034 1497 
Q 3034 2003 2786 2293 
Q 2538 2584 2113 2584 
z
M 3366 4563 
L 3366 3988 
Q 3128 4100 2886 4159 
Q 2644 4219 2406 4219 
Q 1781 4219 1451 3797 
Q 1122 3375 1075 2522 
Q 1259 2794 1537 2939 
Q 1816 3084 2150 3084 
Q 2853 3084 3261 2657 
Q 3669 2231 3669 1497 
Q 3669 778 3244 343 
Q 2819 -91 2113 -91 
Q 1303 -91 875 529 
Q 447 1150 447 2328 
Q 447 3434 972 4092 
Q 1497 4750 2381 4750 
Q 2619 4750 2861 4703 
Q 3103 4656 3366 4563 
z
" transform="scale(0.015625)"/>
       </defs>
       <use xlink:href="#DejaVuSans-36"/>
      </g>
     </g>
    </g>
    <g id="text_8">
     <!-- x -->
     <g transform="translate(280.832945 193.696703)scale(0.1 -0.1)">
      <defs>
       <path id="DejaVuSans-78" d="M 3513 3500 
L 2247 1797 
L 3578 0 
L 2900 0 
L 1881 1375 
L 863 0 
L 184 0 
L 1544 1831 
L 300 3500 
L 978 3500 
L 1906 2253 
L 2834 3500 
L 3513 3500 
z
" transform="scale(0.015625)"/>
      </defs>
      <use xlink:href="#DejaVuSans-78"/>
     </g>
    </g>
   </g>
   <g id="matplotlib.axis_2">
    <g id="ytick_1">
     <g id="line2d_15">
      <path d="M 52.160938 165.42014 
L 515.423702 165.42014 
" clip-path="url(#p5018345a35)" style="fill: none; stroke-dasharray: 2.96,1.28; stroke-dashoffset: 0; stroke: #808080; stroke-width: 0.8"/>
     </g>
     <g id="line2d_16">
      <defs>
       <path id="m898298728f" d="M 0 0 
L -3.5 0 
" style="stroke: #000000; stroke-width: 0.8"/>
      </defs>
      <g>
       <use xlink:href="#m898298728f" x="52.160938" y="165.42014" style="stroke: #000000; stroke-width: 0.8"/>
      </g>
     </g>
     <g id="text_9">
      <!-- −2.0 -->
      <g transform="translate(20.878125 169.219359)scale(0.1 -0.1)">
       <defs>
        <path id="DejaVuSans-2212" d="M 678 2272 
L 4684 2272 
L 4684 1741 
L 678 1741 
L 678 2272 
z
" transform="scale(0.015625)"/>
        <path id="DejaVuSans-2e" d="M 684 794 
L 1344 794 
L 1344 0 
L 684 0 
L 684 794 
z
" transform="scale(0.015625)"/>
       </defs>
       <use xlink:href="#DejaVuSans-2212"/>
       <use xlink:href="#DejaVuSans-32" x="83.789062"/>
       <use xlink:href="#DejaVuSans-2e" x="147.412109"/>
       <use xlink:href="#DejaVuSans-30" x="179.199219"/>
      </g>
     </g>
    </g>
    <g id="ytick_2">
     <g id="line2d_17">
      <path d="M 52.160938 126.81491 
L 515.423702 126.81491 
" clip-path="url(#p5018345a35)" style="fill: none; stroke-dasharray: 2.96,1.28; stroke-dashoffset: 0; stroke: #808080; stroke-width: 0.8"/>
     </g>
     <g id="line2d_18">
      <g>
       <use xlink:href="#m898298728f" x="52.160938" y="126.81491" style="stroke: #000000; stroke-width: 0.8"/>
      </g>
     </g>
     <g id="text_10">
      <!-- −1.5 -->
      <g transform="translate(20.878125 130.614129)scale(0.1 -0.1)">
       <use xlink:href="#DejaVuSans-2212"/>
       <use xlink:href="#DejaVuSans-31" x="83.789062"/>
       <use xlink:href="#DejaVuSans-2e" x="147.412109"/>
       <use xlink:href="#DejaVuSans-35" x="179.199219"/>
      </g>
     </g>
    </g>
    <g id="ytick_3">
     <g id="line2d_19">
      <path d="M 52.160938 88.20968 
L 515.423702 88.20968 
" clip-path="url(#p5018345a35)" style="fill: none; stroke-dasharray: 2.96,1.28; stroke-dashoffset: 0; stroke: #808080; stroke-width: 0.8"/>
     </g>
     <g id="line2d_20">
      <g>
       <use xlink:href="#m898298728f" x="52.160938" y="88.20968" style="stroke: #000000; stroke-width: 0.8"/>
      </g>
     </g>
     <g id="text_11">
      <!-- −1.0 -->
      <g transform="translate(20.878125 92.008898)scale(0.1 -0.1)">
       <use xlink:href="#DejaVuSans-2212"/>
       <use xlink:href="#DejaVuSans-31" x="83.789062"/>
       <use xlink:href="#DejaVuSans-2e" x="147.412109"/>
       <use xlink:href="#DejaVuSans-30" x="179.199219"/>
      </g>
     </g>
    </g>
    <g id="ytick_4">
     <g id="line2d_21">
      <path d="M 52.160938 49.604449 
L 515.423702 49.604449 
" clip-path="url(#p5018345a35)" style="fill: none; stroke-dasharray: 2.96,1.28; stroke-dashoffset: 0; stroke: #808080; stroke-width: 0.8"/>
     </g>
     <g id="line2d_22">
      <g>
       <use xlink:href="#m898298728f" x="52.160938" y="49.604449" style="stroke: #000000; stroke-width: 0.8"/>
      </g>
     </g>
     <g id="text_12">
      <!-- −0.5 -->
      <g transform="translate(20.878125 53.403668)scale(0.1 -0.1)">
       <use xlink:href="#DejaVuSans-2212"/>
       <use xlink:href="#DejaVuSans-30" x="83.789062"/>
       <use xlink:href="#DejaVuSans-2e" x="147.412109"/>
       <use xlink:href="#DejaVuSans-35" x="179.199219"/>
      </g>
     </g>
    </g>
    <g id="ytick_5">
     <g id="line2d_23">
      <path d="M 52.160938 10.999219 
L 515.423702 10.999219 
" clip-path="url(#p5018345a35)" style="fill: none; stroke-dasharray: 2.96,1.28; stroke-dashoffset: 0; stroke: #808080; stroke-width: 0.8"/>
     </g>
     <g id="line2d_24">
      <g>
       <use xlink:href="#m898298728f" x="52.160938" y="10.999219" style="stroke: #000000; stroke-width: 0.8"/>
      </g>
     </g>
     <g id="text_13">
      <!-- 0.0 -->
      <g transform="translate(29.257812 14.798437)scale(0.1 -0.1)">
       <use xlink:href="#DejaVuSans-30"/>
       <use xlink:href="#DejaVuSans-2e" x="63.623047"/>
       <use xlink:href="#DejaVuSans-30" x="95.410156"/>
      </g>
     </g>
    </g>
    <g id="text_14">
     <!-- y -->
     <g transform="translate(14.798438 91.169055)rotate(-90)scale(0.1 -0.1)">
      <defs>
       <path id="DejaVuSans-79" d="M 2059 -325 
Q 1816 -950 1584 -1140 
Q 1353 -1331 966 -1331 
L 506 -1331 
L 506 -850 
L 844 -850 
Q 1081 -850 1212 -737 
Q 1344 -625 1503 -206 
L 1606 56 
L 191 3500 
L 800 3500 
L 1894 763 
L 2988 3500 
L 3597 3500 
L 2059 -325 
z
" transform="scale(0.015625)"/>
      </defs>
      <use xlink:href="#DejaVuSans-79"/>
     </g>
    </g>
   </g>
   <g id="patch_3">
    <path d="M 129.371398 10.999219 
C 103.634578 10.999219 77.897758 10.999219 52.160938 10.999219 
C 52.160938 62.472859 52.160938 113.9465 52.160938 165.42014 
C 77.897758 113.9465 103.634578 62.472859 129.371398 10.999219 
" style="fill: #e3f3ff; stroke: #0055d4; stroke-width: 1.5; stroke-linejoin: miter"/>
   </g>
   <g id="patch_4">
    <path d="M 52.160938 165.42014 
C 77.897758 165.42014 103.634578 165.42014 129.371398 165.42014 
C 129.371398 113.9465 129.371398 62.472859 129.371398 10.999219 
C 103.634578 62.472859 77.897758 113.9465 52.160938 165.42014 
" style="fill: #e3f3ff; stroke: #0055d4; stroke-width: 1.5; stroke-linejoin: miter"/>
   </g>
   <g id="patch_5">
    <path d="M 515.423702 10.999219 
C 386.739601 10.999219 258.0555 10.999219 129.371398 10.999219 
C 129.371398 62.472859 129.371398 113.9465 129.371398 165.42014 
C 258.0555 113.9465 386.739601 62.472859 515.423702 10.999219 
" style="fill: #e3f3ff; stroke: #0055d4; stroke-width: 1.5; stroke-linejoin: miter"/>
   </g>
   <g id="patch_6">
    <path d="M 129.371398 165.42014 
C 258.0555 165.42014 386.739601 165.42014 515.423702 165.42014 
C 515.423702 113.9465 515.423702 62.472859 515.423702 10.999219 
C 386.739601 62.472859 258.0555 113.9465 129.371398 165.42014 
" style="fill: #e3f3ff; stroke: #0055d4; stroke-width: 1.5; stroke-linejoin: miter"/>
   </g>
   <g id="patch_7">
    <path d="M 52.160938 165.42014 
L 52.160938 10.999219 
" style="fill: none; stroke: #000000; stroke-width: 0.8; stroke-linejoin: miter; stroke-linecap: square"/>
   </g>
   <g id="patch_8">
    <path d="M 515.423702 165.42014 
L 515.423702 10.999219 
" style="fill: none; stroke: #000000; stroke-width: 0.8; stroke-linejoin: miter; stroke-linecap: square"/>
   </g>
   <g id="patch_9">
    <path d="M 52.160938 165.42014 
L 515.423702 165.42014 
" style="fill: none; stroke: #000000; stroke-width: 0.8; stroke-linejoin: miter; stroke-linecap: square"/>
   </g>
   <g id="patch_10">
    <path d="M 52.160938 10.999219 
L 515.423702 10.999219 
" style="fill: none; stroke: #000000; stroke-width: 0.8; stroke-linejoin: miter; stroke-linecap: square"/>
   </g>
   <g id="text_15">
    <g id="patch_11">
     <path d="M 67.310102 68.178016 
L 88.485414 68.178016 
L 88.485414 56.767703 
L 67.310102 56.767703 
z
" style="fill: #ffffff; stroke: #b7b7b7; stroke-linejoin: miter"/>
    </g>
    <!-- 0(1) -->
    <g style="fill: #22971f" transform="translate(68.660102 64.956297)scale(0.09 -0.09)">
     <defs>
      <path id="DejaVuSans-28" d="M 1984 4856 
Q 1566 4138 1362 3434 
Q 1159 2731 1159 2009 
Q 1159 1288 1364 580 
Q 1569 -128 1984 -844 
L 1484 -844 
Q 1016 -109 783 600 
Q 550 1309 550 2009 
Q 550 2706 781 3412 
Q 1013 4119 1484 4856 
L 1984 4856 
z
" transform="scale(0.015625)"/>
      <path id="DejaVuSans-29" d="M 513 4856 
L 1013 4856 
Q 1481 4119 1714 3412 
Q 1947 2706 1947 2009 
Q 1947 1309 1714 600 
Q 1481 -109 1013 -844 
L 513 -844 
Q 928 -128 1133 580 
Q 1338 1288 1338 2009 
Q 1338 2731 1133 3434 
Q 928 4138 513 4856 
z
" transform="scale(0.015625)"/>
     </defs>
     <use xlink:href="#DejaVuSans-30"/>
     <use xlink:href="#DejaVuSans-28" x="63.623047"/>
     <use xlink:href="#DejaVuSans-31" x="102.636719"/>
     <use xlink:href="#DejaVuSans-29" x="166.259766"/>
    </g>
   </g>
   <g id="text_16">
    <g id="patch_12">
     <path d="M 93.046922 119.651656 
L 114.222234 119.651656 
L 114.222234 108.241344 
L 93.046922 108.241344 
z
" style="fill: #ffffff; stroke: #b7b7b7; stroke-linejoin: miter"/>
    </g>
    <!-- 1(1) -->
    <g style="fill: #22971f" transform="translate(94.396922 116.429937)scale(0.09 -0.09)">
     <use xlink:href="#DejaVuSans-31"/>
     <use xlink:href="#DejaVuSans-28" x="63.623047"/>
     <use xlink:href="#DejaVuSans-31" x="102.636719"/>
     <use xlink:href="#DejaVuSans-29" x="166.259766"/>
    </g>
   </g>
   <g id="text_17">
    <g id="patch_13">
     <path d="M 247.467843 68.178016 
L 268.643156 68.178016 
L 268.643156 56.767703 
L 247.467843 56.767703 
z
" style="fill: #ffffff; stroke: #b7b7b7; stroke-linejoin: miter"/>
    </g>
    <!-- 2(1) -->
    <g style="fill: #22971f" transform="translate(248.817843 64.956297)scale(0.09 -0.09)">
     <use xlink:href="#DejaVuSans-32"/>
     <use xlink:href="#DejaVuSans-28" x="63.623047"/>
     <use xlink:href="#DejaVuSans-31" x="102.636719"/>
     <use xlink:href="#DejaVuSans-29" x="166.259766"/>
    </g>
   </g>
   <g id="text_18">
    <g id="patch_14">
     <path d="M 376.151945 119.651656 
L 397.327257 119.651656 
L 397.327257 108.241344 
L 376.151945 108.241344 
z
" style="fill: #ffffff; stroke: #b7b7b7; stroke-linejoin: miter"/>
    </g>
    <!-- 3(1) -->
    <g style="fill: #22971f" transform="translate(377.501945 116.429937)scale(0.09 -0.09)">
     <use xlink:href="#DejaVuSans-33"/>
     <use xlink:href="#DejaVuSans-28" x="63.623047"/>
     <use xlink:href="#DejaVuSans-31" x="102.636719"/>
     <use xlink:href="#DejaVuSans-29" x="166.259766"/>
    </g>
   </g>
   <g id="text_19">
    <g id="patch_15">
     <path d="M 52.160938 16.070469 
C 53.505849 16.070469 54.795857 15.53613 55.746853 14.585134 
C 56.697849 13.634138 57.232188 12.34413 57.232188 10.999219 
C 57.232188 9.654308 56.697849 8.364299 55.746853 7.413303 
C 54.795857 6.462308 53.505849 5.927969 52.160938 5.927969 
C 50.816026 5.927969 49.526018 6.462308 48.575022 7.413303 
C 47.624026 8.364299 47.089688 9.654308 47.089688 10.999219 
C 47.089688 12.34413 47.624026 13.634138 48.575022 14.585134 
C 49.526018 15.53613 50.816026 16.070469 52.160938 16.070469 
z
" style="fill: #ffffff"/>
    </g>
    <!-- 0 -->
    <g style="fill: #ff0000" transform="translate(49.615938 13.206719)scale(0.08 -0.08)">
     <use xlink:href="#DejaVuSans-30"/>
    </g>
   </g>
   <g id="text_20">
    <g id="patch_16">
     <path d="M 52.160938 54.675699 
C 53.505849 54.675699 54.795857 54.14136 55.746853 53.190364 
C 56.697849 52.239369 57.232188 50.94936 57.232188 49.604449 
C 57.232188 48.259538 56.697849 46.96953 55.746853 46.018534 
C 54.795857 45.067538 53.505849 44.533199 52.160938 44.533199 
C 50.816026 44.533199 49.526018 45.067538 48.575022 46.018534 
C 47.624026 46.96953 47.089688 48.259538 47.089688 49.604449 
C 47.089688 50.94936 47.624026 52.239369 48.575022 53.190364 
C 49.526018 54.14136 50.816026 54.675699 52.160938 54.675699 
z
" style="fill: #ffffff"/>
    </g>
    <!-- 1 -->
    <g style="fill: #ff0000" transform="translate(49.615938 51.811949)scale(0.08 -0.08)">
     <use xlink:href="#DejaVuSans-31"/>
    </g>
   </g>
   <g id="text_21">
    <g id="patch_17">
     <path d="M 52.160938 93.28093 
C 53.505849 93.28093 54.795857 92.746591 55.746853 91.795595 
C 56.697849 90.844599 57.232188 89.554591 57.232188 88.20968 
C 57.232188 86.864768 56.697849 85.57476 55.746853 84.623764 
C 54.795857 83.672768 53.505849 83.13843 52.160938 83.13843 
C 50.816026 83.13843 49.526018 83.672768 48.575022 84.623764 
C 47.624026 85.57476 47.089688 86.864768 47.089688 88.20968 
C 47.089688 89.554591 47.624026 90.844599 48.575022 91.795595 
C 49.526018 92.746591 50.816026 93.28093 52.160938 93.28093 
z
" style="fill: #ffffff"/>
    </g>
    <!-- 2 -->
    <g style="fill: #ff0000" transform="translate(49.615938 90.41718)scale(0.08 -0.08)">
     <use xlink:href="#DejaVuSans-32"/>
    </g>
   </g>
   <g id="text_22">
    <g id="patch_18">
     <path d="M 52.160938 131.88616 
C 53.505849 131.88616 54.795857 131.351821 55.746853 130.400825 
C 56.697849 129.449829 57.232188 128.159821 57.232188 126.81491 
C 57.232188 125.469999 56.697849 124.17999 55.746853 123.228995 
C 54.795857 122.277999 53.505849 121.74366 52.160938 121.74366 
C 50.816026 121.74366 49.526018 122.277999 48.575022 123.228995 
C 47.624026 124.17999 47.089688 125.469999 47.089688 126.81491 
C 47.089688 128.159821 47.624026 129.449829 48.575022 130.400825 
C 49.526018 131.351821 50.816026 131.88616 52.160938 131.88616 
z
" style="fill: #ffffff"/>
    </g>
    <!-- 3 -->
    <g style="fill: #ff0000" transform="translate(49.615938 129.02241)scale(0.08 -0.08)">
     <use xlink:href="#DejaVuSans-33"/>
    </g>
   </g>
   <g id="text_23">
    <g id="patch_19">
     <path d="M 52.160938 170.49139 
C 53.505849 170.49139 54.795857 169.957051 55.746853 169.006056 
C 56.697849 168.05506 57.232188 166.765052 57.232188 165.42014 
C 57.232188 164.075229 56.697849 162.785221 55.746853 161.834225 
C 54.795857 160.883229 53.505849 160.34889 52.160938 160.34889 
C 50.816026 160.34889 49.526018 160.883229 48.575022 161.834225 
C 47.624026 162.785221 47.089688 164.075229 47.089688 165.42014 
C 47.089688 166.765052 47.624026 168.05506 48.575022 169.006056 
C 49.526018 169.957051 50.816026 170.49139 52.160938 170.49139 
z
" style="fill: #ffffff"/>
    </g>
    <!-- 4 -->
    <g style="fill: #ff0000" transform="translate(49.615938 167.62764)scale(0.08 -0.08)">
     <use xlink:href="#DejaVuSans-34"/>
    </g>
   </g>
   <g id="text_24">
    <g id="patch_20">
     <path d="M 71.463553 16.070469 
C 72.808464 16.070469 74.098472 15.53613 75.049468 14.585134 
C 76.000464 13.634138 76.534803 12.34413 76.534803 10.999219 
C 76.534803 9.654308 76.000464 8.364299 75.049468 7.413303 
C 74.098472 6.462308 72.808464 5.927969 71.463553 5.927969 
C 70.118641 5.927969 68.828633 6.462308 67.877637 7.413303 
C 66.926642 8.364299 66.392303 9.654308 66.392303 10.999219 
C 66.392303 12.34413 66.926642 13.634138 67.877637 14.585134 
C 68.828633 15.53613 70.118641 16.070469 71.463553 16.070469 
z
" style="fill: #ffffff"/>
    </g>
    <!-- 5 -->
    <g style="fill: #ff0000" transform="translate(68.918553 13.206719)scale(0.08 -0.08)">
     <use xlink:href="#DejaVuSans-35"/>
    </g>
   </g>
   <g id="text_25">
    <g id="patch_21">
     <path d="M 71.463553 54.675699 
C 72.808464 54.675699 74.098472 54.14136 75.049468 53.190364 
C 76.000464 52.239369 76.534803 50.94936 76.534803 49.604449 
C 76.534803 48.259538 76.000464 46.96953 75.049468 46.018534 
C 74.098472 45.067538 72.808464 44.533199 71.463553 44.533199 
C 70.118641 44.533199 68.828633 45.067538 67.877637 46.018534 
C 66.926642 46.96953 66.392303 48.259538 66.392303 49.604449 
C 66.392303 50.94936 66.926642 52.239369 67.877637 53.190364 
C 68.828633 54.14136 70.118641 54.675699 71.463553 54.675699 
z
" style="fill: #ffffff"/>
    </g>
    <!-- 6 -->
    <g style="fill: #ff0000" transform="translate(68.918553 51.811949)scale(0.08 -0.08)">
     <use xlink:href="#DejaVuSans-36"/>
    </g>
   </g>
   <g id="text_26">
    <g id="patch_22">
     <path d="M 71.463553 93.28093 
C 72.808464 93.28093 74.098472 92.746591 75.049468 91.795595 
C 76.000464 90.844599 76.534803 89.554591 76.534803 88.20968 
C 76.534803 86.864768 76.000464 85.57476 75.049468 84.623764 
C 74.098472 83.672768 72.808464 83.13843 71.463553 83.13843 
C 70.118641 83.13843 68.828633 83.672768 67.877637 84.623764 
C 66.926642 85.57476 66.392303 86.864768 66.392303 88.20968 
C 66.392303 89.554591 66.926642 90.844599 67.877637 91.795595 
C 68.828633 92.746591 70.118641 93.28093 71.463553 93.28093 
z
" style="fill: #ffffff"/>
    </g>
    <!-- 7 -->
    <g style="fill: #ff0000" transform="translate(68.918553 90.41718)scale(0.08 -0.08)">
     <defs>
      <path id="DejaVuSans-37" d="M 525 4666 
L 3525 4666 
L 3525 4397 
L 1831 0 
L 1172 0 
L 2766 4134 
L 525 4134 
L 525 4666 
z
" transform="scale(0.015625)"/>
     </defs>
     <use xlink:href="#DejaVuSans-37"/>
    </g>
   </g>
   <g id="text_27">
    <g id="patch_23">
     <path d="M 71.463553 131.88616 
C 72.808464 131.88616 74.098472 131.351821 75.049468 130.400825 
C 76.000464 129.449829 76.534803 128.159821 76.534803 126.81491 
C 76.534803 125.469999 76.000464 124.17999 75.049468 123.228995 
C 74.098472 122.277999 72.808464 121.74366 71.463553 121.74366 
C 70.118641 121.74366 68.828633 122.277999 67.877637 123.228995 
C 66.926642 124.17999 66.392303 125.469999 66.392303 126.81491 
C 66.392303 128.159821 66.926642 129.449829 67.877637 130.400825 
C 68.828633 131.351821 70.118641 131.88616 71.463553 131.88616 
z
" style="fill: #ffffff"/>
    </g>
    <!-- 8 -->
    <g style="fill: #ff0000" transform="translate(68.918553 129.02241)scale(0.08 -0.08)">
     <defs>
      <path id="DejaVuSans-38" d="M 2034 2216 
Q 1584 2216 1326 1975 
Q 1069 1734 1069 1313 
Q 1069 891 1326 650 
Q 1584 409 2034 409 
Q 2484 409 2743 651 
Q 3003 894 3003 1313 
Q 3003 1734 2745 1975 
Q 2488 2216 2034 2216 
z
M 1403 2484 
Q 997 2584 770 2862 
Q 544 3141 544 3541 
Q 544 4100 942 4425 
Q 1341 4750 2034 4750 
Q 2731 4750 3128 4425 
Q 3525 4100 3525 3541 
Q 3525 3141 3298 2862 
Q 3072 2584 2669 2484 
Q 3125 2378 3379 2068 
Q 3634 1759 3634 1313 
Q 3634 634 3220 271 
Q 2806 -91 2034 -91 
Q 1263 -91 848 271 
Q 434 634 434 1313 
Q 434 1759 690 2068 
Q 947 2378 1403 2484 
z
M 1172 3481 
Q 1172 3119 1398 2916 
Q 1625 2713 2034 2713 
Q 2441 2713 2670 2916 
Q 2900 3119 2900 3481 
Q 2900 3844 2670 4047 
Q 2441 4250 2034 4250 
Q 1625 4250 1398 4047 
Q 1172 3844 1172 3481 
z
" transform="scale(0.015625)"/>
     </defs>
     <use xlink:href="#DejaVuSans-38"/>
    </g>
   </g>
   <g id="text_28">
    <g id="patch_24">
     <path d="M 71.463553 170.49139 
C 72.808464 170.49139 74.098472 169.957051 75.049468 169.006056 
C 76.000464 168.05506 76.534803 166.765052 76.534803 165.42014 
C 76.534803 164.075229 76.000464 162.785221 75.049468 161.834225 
C 74.098472 160.883229 72.808464 160.34889 71.463553 160.34889 
C 70.118641 160.34889 68.828633 160.883229 67.877637 161.834225 
C 66.926642 162.785221 66.392303 164.075229 66.392303 165.42014 
C 66.392303 166.765052 66.926642 168.05506 67.877637 169.006056 
C 68.828633 169.957051 70.118641 170.49139 71.463553 170.49139 
z
" style="fill: #ffffff"/>
    </g>
    <!-- 9 -->
    <g style="fill: #ff0000" transform="translate(68.918553 167.62764)scale(0.08 -0.08)">
     <defs>
      <path id="DejaVuSans-39" d="M 703 97 
L 703 672 
Q 941 559 1184 500 
Q 1428 441 1663 441 
Q 2288 441 2617 861 
Q 2947 1281 2994 2138 
Q 2813 1869 2534 1725 
Q 2256 1581 1919 1581 
Q 1219 1581 811 2004 
Q 403 2428 403 3163 
Q 403 3881 828 4315 
Q 1253 4750 1959 4750 
Q 2769 4750 3195 4129 
Q 3622 3509 3622 2328 
Q 3622 1225 3098 567 
Q 2575 -91 1691 -91 
Q 1453 -91 1209 -44 
Q 966 3 703 97 
z
M 1959 2075 
Q 2384 2075 2632 2365 
Q 2881 2656 2881 3163 
Q 2881 3666 2632 3958 
Q 2384 4250 1959 4250 
Q 1534 4250 1286 3958 
Q 1038 3666 1038 3163 
Q 1038 2656 1286 2365 
Q 1534 2075 1959 2075 
z
" transform="scale(0.015625)"/>
     </defs>
     <use xlink:href="#DejaVuSans-39"/>
    </g>
   </g>
   <g id="text_29">
    <g id="patch_25">
     <path d="M 90.766168 17.289219 
C 92.434295 17.289219 94.034325 16.626465 95.21387 15.44692 
C 96.393414 14.267376 97.056168 12.667346 97.056168 10.999219 
C 97.056168 9.331091 96.393414 7.731061 95.21387 6.551517 
C 94.034325 5.371973 92.434295 4.709219 90.766168 4.709219 
C 89.09804 4.709219 87.49801 5.371973 86.318466 6.551517 
C 85.138922 7.731061 84.476168 9.331091 84.476168 10.999219 
C 84.476168 12.667346 85.138922 14.267376 86.318466 15.44692 
C 87.49801 16.626465 89.09804 17.289219 90.766168 17.289219 
z
" style="fill: #ffffff"/>
    </g>
    <!-- 10 -->
    <g style="fill: #ff0000" transform="translate(85.676168 13.206719)scale(0.08 -0.08)">
     <use xlink:href="#DejaVuSans-31"/>
     <use xlink:href="#DejaVuSans-30" x="63.623047"/>
    </g>
   </g>
   <g id="text_30">
    <g id="patch_26">
     <path d="M 90.766168 55.894449 
C 92.434295 55.894449 94.034325 55.231695 95.21387 54.052151 
C 96.393414 52.872607 97.056168 51.272577 97.056168 49.604449 
C 97.056168 47.936322 96.393414 46.336292 95.21387 45.156747 
C 94.034325 43.977203 92.434295 43.314449 90.766168 43.314449 
C 89.09804 43.314449 87.49801 43.977203 86.318466 45.156747 
C 85.138922 46.336292 84.476168 47.936322 84.476168 49.604449 
C 84.476168 51.272577 85.138922 52.872607 86.318466 54.052151 
C 87.49801 55.231695 89.09804 55.894449 90.766168 55.894449 
z
" style="fill: #ffffff"/>
    </g>
    <!-- 11 -->
    <g style="fill: #ff0000" transform="translate(85.676168 51.811949)scale(0.08 -0.08)">
     <use xlink:href="#DejaVuSans-31"/>
     <use xlink:href="#DejaVuSans-31" x="63.623047"/>
    </g>
   </g>
   <g id="text_31">
    <g id="patch_27">
     <path d="M 90.766168 94.49968 
C 92.434295 94.49968 94.034325 93.836925 95.21387 92.657381 
C 96.393414 91.477837 97.056168 89.877807 97.056168 88.20968 
C 97.056168 86.541552 96.393414 84.941522 95.21387 83.761978 
C 94.034325 82.582434 92.434295 81.91968 90.766168 81.91968 
C 89.09804 81.91968 87.49801 82.582434 86.318466 83.761978 
C 85.138922 84.941522 84.476168 86.541552 84.476168 88.20968 
C 84.476168 89.877807 85.138922 91.477837 86.318466 92.657381 
C 87.49801 93.836925 89.09804 94.49968 90.766168 94.49968 
z
" style="fill: #ffffff"/>
    </g>
    <!-- 12 -->
    <g style="fill: #ff0000" transform="translate(85.676168 90.41718)scale(0.08 -0.08)">
     <use xlink:href="#DejaVuSans-31"/>
     <use xlink:href="#DejaVuSans-32" x="63.623047"/>
    </g>
   </g>
   <g id="text_32">
    <g id="patch_28">
     <path d="M 90.766168 133.10491 
C 92.434295 133.10491 94.034325 132.442156 95.21387 131.262612 
C 96.393414 130.083067 97.056168 128.483037 97.056168 126.81491 
C 97.056168 125.146782 96.393414 123.546753 95.21387 122.367208 
C 94.034325 121.187664 92.434295 120.52491 90.766168 120.52491 
C 89.09804 120.52491 87.49801 121.187664 86.318466 122.367208 
C 85.138922 123.546753 84.476168 125.146782 84.476168 126.81491 
C 84.476168 128.483037 85.138922 130.083067 86.318466 131.262612 
C 87.49801 132.442156 89.09804 133.10491 90.766168 133.10491 
z
" style="fill: #ffffff"/>
    </g>
    <!-- 13 -->
    <g style="fill: #ff0000" transform="translate(85.676168 129.02241)scale(0.08 -0.08)">
     <use xlink:href="#DejaVuSans-31"/>
     <use xlink:href="#DejaVuSans-33" x="63.623047"/>
    </g>
   </g>
   <g id="text_33">
    <g id="patch_29">
     <path d="M 90.766168 171.71014 
C 92.434295 171.71014 94.034325 171.047386 95.21387 169.867842 
C 96.393414 168.688298 97.056168 167.088268 97.056168 165.42014 
C 97.056168 163.752013 96.393414 162.151983 95.21387 160.972439 
C 94.034325 159.792894 92.434295 159.13014 90.766168 159.13014 
C 89.09804 159.13014 87.49801 159.792894 86.318466 160.972439 
C 85.138922 162.151983 84.476168 163.752013 84.476168 165.42014 
C 84.476168 167.088268 85.138922 168.688298 86.318466 169.867842 
C 87.49801 171.047386 89.09804 171.71014 90.766168 171.71014 
z
" style="fill: #ffffff"/>
    </g>
    <!-- 14 -->
    <g style="fill: #ff0000" transform="translate(85.676168 167.62764)scale(0.08 -0.08)">
     <use xlink:href="#DejaVuSans-31"/>
     <use xlink:href="#DejaVuSans-34" x="63.623047"/>
    </g>
   </g>
   <g id="text_34">
    <g id="patch_30">
     <path d="M 110.068783 17.289219 
C 111.736911 17.289219 113.33694 16.626465 114.516485 15.44692 
C 115.696029 14.267376 116.358783 12.667346 116.358783 10.999219 
C 116.358783 9.331091 115.696029 7.731061 114.516485 6.551517 
C 113.33694 5.371973 111.736911 4.709219 110.068783 4.709219 
C 108.400656 4.709219 106.800626 5.371973 105.621081 6.551517 
C 104.441537 7.731061 103.778783 9.331091 103.778783 10.999219 
C 103.778783 12.667346 104.441537 14.267376 105.621081 15.44692 
C 106.800626 16.626465 108.400656 17.289219 110.068783 17.289219 
z
" style="fill: #ffffff"/>
    </g>
    <!-- 15 -->
    <g style="fill: #ff0000" transform="translate(104.978783 13.206719)scale(0.08 -0.08)">
     <use xlink:href="#DejaVuSans-31"/>
     <use xlink:href="#DejaVuSans-35" x="63.623047"/>
    </g>
   </g>
   <g id="text_35">
    <g id="patch_31">
     <path d="M 110.068783 55.894449 
C 111.736911 55.894449 113.33694 55.231695 114.516485 54.052151 
C 115.696029 52.872607 116.358783 51.272577 116.358783 49.604449 
C 116.358783 47.936322 115.696029 46.336292 114.516485 45.156747 
C 113.33694 43.977203 111.736911 43.314449 110.068783 43.314449 
C 108.400656 43.314449 106.800626 43.977203 105.621081 45.156747 
C 104.441537 46.336292 103.778783 47.936322 103.778783 49.604449 
C 103.778783 51.272577 104.441537 52.872607 105.621081 54.052151 
C 106.800626 55.231695 108.400656 55.894449 110.068783 55.894449 
z
" style="fill: #ffffff"/>
    </g>
    <!-- 16 -->
    <g style="fill: #ff0000" transform="translate(104.978783 51.811949)scale(0.08 -0.08)">
     <use xlink:href="#DejaVuSans-31"/>
     <use xlink:href="#DejaVuSans-36" x="63.623047"/>
    </g>
   </g>
   <g id="text_36">
    <g id="patch_32">
     <path d="M 110.068783 94.49968 
C 111.736911 94.49968 113.33694 93.836925 114.516485 92.657381 
C 115.696029 91.477837 116.358783 89.877807 116.358783 88.20968 
C 116.358783 86.541552 115.696029 84.941522 114.516485 83.761978 
C 113.33694 82.582434 111.736911 81.91968 110.068783 81.91968 
C 108.400656 81.91968 106.800626 82.582434 105.621081 83.761978 
C 104.441537 84.941522 103.778783 86.541552 103.778783 88.20968 
C 103.778783 89.877807 104.441537 91.477837 105.621081 92.657381 
C 106.800626 93.836925 108.400656 94.49968 110.068783 94.49968 
z
" style="fill: #ffffff"/>
    </g>
    <!-- 17 -->
    <g style="fill: #ff0000" transform="translate(104.978783 90.41718)scale(0.08 -0.08)">
     <use xlink:href="#DejaVuSans-31"/>
     <use xlink:href="#DejaVuSans-37" x="63.623047"/>
    </g>
   </g>
   <g id="text_37">
    <g id="patch_33">
     <path d="M 110.068783 133.10491 
C 111.736911 133.10491 113.33694 132.442156 114.516485 131.262612 
C 115.696029 130.083067 116.358783 128.483037 116.358783 126.81491 
C 116.358783 125.146782 115.696029 123.546753 114.516485 122.367208 
C 113.33694 121.187664 111.736911 120.52491 110.068783 120.52491 
C 108.400656 120.52491 106.800626 121.187664 105.621081 122.367208 
C 104.441537 123.546753 103.778783 125.146782 103.778783 126.81491 
C 103.778783 128.483037 104.441537 130.083067 105.621081 131.262612 
C 106.800626 132.442156 108.400656 133.10491 110.068783 133.10491 
z
" style="fill: #ffffff"/>
    </g>
    <!-- 18 -->
    <g style="fill: #ff0000" transform="translate(104.978783 129.02241)scale(0.08 -0.08)">
     <use xlink:href="#DejaVuSans-31"/>
     <use xlink:href="#DejaVuSans-38" x="63.623047"/>
    </g>
   </g>
   <g id="text_38">
    <g id="patch_34">
     <path d="M 110.068783 171.71014 
C 111.736911 171.71014 113.33694 171.047386 114.516485 169.867842 
C 115.696029 168.688298 116.358783 167.088268 116.358783 165.42014 
C 116.358783 163.752013 115.696029 162.151983 114.516485 160.972439 
C 113.33694 159.792894 111.736911 159.13014 110.068783 159.13014 
C 108.400656 159.13014 106.800626 159.792894 105.621081 160.972439 
C 104.441537 162.151983 103.778783 163.752013 103.778783 165.42014 
C 103.778783 167.088268 104.441537 168.688298 105.621081 169.867842 
C 106.800626 171.047386 108.400656 171.71014 110.068783 171.71014 
z
" style="fill: #ffffff"/>
    </g>
    <!-- 19 -->
    <g style="fill: #ff0000" transform="translate(104.978783 167.62764)scale(0.08 -0.08)">
     <use xlink:href="#DejaVuSans-31"/>
     <use xlink:href="#DejaVuSans-39" x="63.623047"/>
    </g>
   </g>
   <g id="text_39">
    <g id="patch_35">
     <path d="M 129.371398 17.289219 
C 131.039526 17.289219 132.639556 16.626465 133.8191 15.44692 
C 134.998644 14.267376 135.661398 12.667346 135.661398 10.999219 
C 135.661398 9.331091 134.998644 7.731061 133.8191 6.551517 
C 132.639556 5.371973 131.039526 4.709219 129.371398 4.709219 
C 127.703271 4.709219 126.103241 5.371973 124.923697 6.551517 
C 123.744152 7.731061 123.081398 9.331091 123.081398 10.999219 
C 123.081398 12.667346 123.744152 14.267376 124.923697 15.44692 
C 126.103241 16.626465 127.703271 17.289219 129.371398 17.289219 
z
" style="fill: #ffffff"/>
    </g>
    <!-- 20 -->
    <g style="fill: #ff0000" transform="translate(124.281398 13.206719)scale(0.08 -0.08)">
     <use xlink:href="#DejaVuSans-32"/>
     <use xlink:href="#DejaVuSans-30" x="63.623047"/>
    </g>
   </g>
   <g id="text_40">
    <g id="patch_36">
     <path d="M 129.371398 55.894449 
C 131.039526 55.894449 132.639556 55.231695 133.8191 54.052151 
C 134.998644 52.872607 135.661398 51.272577 135.661398 49.604449 
C 135.661398 47.936322 134.998644 46.336292 133.8191 45.156747 
C 132.639556 43.977203 131.039526 43.314449 129.371398 43.314449 
C 127.703271 43.314449 126.103241 43.977203 124.923697 45.156747 
C 123.744152 46.336292 123.081398 47.936322 123.081398 49.604449 
C 123.081398 51.272577 123.744152 52.872607 124.923697 54.052151 
C 126.103241 55.231695 127.703271 55.894449 129.371398 55.894449 
z
" style="fill: #ffffff"/>
    </g>
    <!-- 21 -->
    <g style="fill: #ff0000" transform="translate(124.281398 51.811949)scale(0.08 -0.08)">
     <use xlink:href="#DejaVuSans-32"/>
     <use xlink:href="#DejaVuSans-31" x="63.623047"/>
    </g>
   </g>
   <g id="text_41">
    <g id="patch_37">
     <path d="M 129.371398 94.49968 
C 131.039526 94.49968 132.639556 93.836925 133.8191 92.657381 
C 134.998644 91.477837 135.661398 89.877807 135.661398 88.20968 
C 135.661398 86.541552 134.998644 84.941522 133.8191 83.761978 
C 132.639556 82.582434 131.039526 81.91968 129.371398 81.91968 
C 127.703271 81.91968 126.103241 82.582434 124.923697 83.761978 
C 123.744152 84.941522 123.081398 86.541552 123.081398 88.20968 
C 123.081398 89.877807 123.744152 91.477837 124.923697 92.657381 
C 126.103241 93.836925 127.703271 94.49968 129.371398 94.49968 
z
" style="fill: #ffffff"/>
    </g>
    <!-- 22 -->
    <g style="fill: #ff0000" transform="translate(124.281398 90.41718)scale(0.08 -0.08)">
     <use xlink:href="#DejaVuSans-32"/>
     <use xlink:href="#DejaVuSans-32" x="63.623047"/>
    </g>
   </g>
   <g id="text_42">
    <g id="patch_38">
     <path d="M 129.371398 133.10491 
C 131.039526 133.10491 132.639556 132.442156 133.8191 131.262612 
C 134.998644 130.083067 135.661398 128.483037 135.661398 126.81491 
C 135.661398 125.146782 134.998644 123.546753 133.8191 122.367208 
C 132.639556 121.187664 131.039526 120.52491 129.371398 120.52491 
C 127.703271 120.52491 126.103241 121.187664 124.923697 122.367208 
C 123.744152 123.546753 123.081398 125.146782 123.081398 126.81491 
C 123.081398 128.483037 123.744152 130.083067 124.923697 131.262612 
C 126.103241 132.442156 127.703271 133.10491 129.371398 133.10491 
z
" style="fill: #ffffff"/>
    </g>
    <!-- 23 -->
    <g style="fill: #ff0000" transform="translate(124.281398 129.02241)scale(0.08 -0.08)">
     <use xlink:href="#DejaVuSans-32"/>
     <use xlink:href="#DejaVuSans-33" x="63.623047"/>
    </g>
   </g>
   <g id="text_43">
    <g id="patch_39">
     <path d="M 129.371398 171.71014 
C 131.039526 171.71014 132.639556 171.047386 133.8191 169.867842 
C 134.998644 168.688298 135.661398 167.088268 135.661398 165.42014 
C 135.661398 163.752013 134.998644 162.151983 133.8191 160.972439 
C 132.639556 159.792894 131.039526 159.13014 129.371398 159.13014 
C 127.703271 159.13014 126.103241 159.792894 124.923697 160.972439 
C 123.744152 162.151983 123.081398 163.752013 123.081398 165.42014 
C 123.081398 167.088268 123.744152 168.688298 124.923697 169.867842 
C 126.103241 171.047386 127.703271 171.71014 129.371398 171.71014 
z
" style="fill: #ffffff"/>
    </g>
    <!-- 24 -->
    <g style="fill: #ff0000" transform="translate(124.281398 167.62764)scale(0.08 -0.08)">
     <use xlink:href="#DejaVuSans-32"/>
     <use xlink:href="#DejaVuSans-34" x="63.623047"/>
    </g>
   </g>
   <g id="text_44">
    <g id="patch_40">
     <path d="M 225.884474 17.289219 
C 227.552602 17.289219 229.152632 16.626465 230.332176 15.44692 
C 231.51172 14.267376 232.174474 12.667346 232.174474 10.999219 
C 232.174474 9.331091 231.51172 7.731061 230.332176 6.551517 
C 229.152632 5.371973 227.552602 4.709219 225.884474 4.709219 
C 224.216347 4.709219 222.616317 5.371973 221.436773 6.551517 
C 220.257228 7.731061 219.594474 9.331091 219.594474 10.999219 
C 219.594474 12.667346 220.257228 14.267376 221.436773 15.44692 
C 222.616317 16.626465 224.216347 17.289219 225.884474 17.289219 
z
" style="fill: #ffffff"/>
    </g>
    <!-- 25 -->
    <g style="fill: #ff0000" transform="translate(220.794474 13.206719)scale(0.08 -0.08)">
     <use xlink:href="#DejaVuSans-32"/>
     <use xlink:href="#DejaVuSans-35" x="63.623047"/>
    </g>
   </g>
   <g id="text_45">
    <g id="patch_41">
     <path d="M 225.884474 55.894449 
C 227.552602 55.894449 229.152632 55.231695 230.332176 54.052151 
C 231.51172 52.872607 232.174474 51.272577 232.174474 49.604449 
C 232.174474 47.936322 231.51172 46.336292 230.332176 45.156747 
C 229.152632 43.977203 227.552602 43.314449 225.884474 43.314449 
C 224.216347 43.314449 222.616317 43.977203 221.436773 45.156747 
C 220.257228 46.336292 219.594474 47.936322 219.594474 49.604449 
C 219.594474 51.272577 220.257228 52.872607 221.436773 54.052151 
C 222.616317 55.231695 224.216347 55.894449 225.884474 55.894449 
z
" style="fill: #ffffff"/>
    </g>
    <!-- 26 -->
    <g style="fill: #ff0000" transform="translate(220.794474 51.811949)scale(0.08 -0.08)">
     <use xlink:href="#DejaVuSans-32"/>
     <use xlink:href="#DejaVuSans-36" x="63.623047"/>
    </g>
   </g>
   <g id="text_46">
    <g id="patch_42">
     <path d="M 225.884474 94.49968 
C 227.552602 94.49968 229.152632 93.836925 230.332176 92.657381 
C 231.51172 91.477837 232.174474 89.877807 232.174474 88.20968 
C 232.174474 86.541552 231.51172 84.941522 230.332176 83.761978 
C 229.152632 82.582434 227.552602 81.91968 225.884474 81.91968 
C 224.216347 81.91968 222.616317 82.582434 221.436773 83.761978 
C 220.257228 84.941522 219.594474 86.541552 219.594474 88.20968 
C 219.594474 89.877807 220.257228 91.477837 221.436773 92.657381 
C 222.616317 93.836925 224.216347 94.49968 225.884474 94.49968 
z
" style="fill: #ffffff"/>
    </g>
    <!-- 27 -->
    <g style="fill: #ff0000" transform="translate(220.794474 90.41718)scale(0.08 -0.08)">
     <use xlink:href="#DejaVuSans-32"/>
     <use xlink:href="#DejaVuSans-37" x="63.623047"/>
    </g>
   </g>
   <g id="text_47">
    <g id="patch_43">
     <path d="M 225.884474 133.10491 
C 227.552602 133.10491 229.152632 132.442156 230.332176 131.262612 
C 231.51172 130.083067 232.174474 128.483037 232.174474 126.81491 
C 232.174474 125.146782 231.51172 123.546753 230.332176 122.367208 
C 229.152632 121.187664 227.552602 120.52491 225.884474 120.52491 
C 224.216347 120.52491 222.616317 121.187664 221.436773 122.367208 
C 220.257228 123.546753 219.594474 125.146782 219.594474 126.81491 
C 219.594474 128.483037 220.257228 130.083067 221.436773 131.262612 
C 222.616317 132.442156 224.216347 133.10491 225.884474 133.10491 
z
" style="fill: #ffffff"/>
    </g>
    <!-- 28 -->
    <g style="fill: #ff0000" transform="translate(220.794474 129.02241)scale(0.08 -0.08)">
     <use xlink:href="#DejaVuSans-32"/>
     <use xlink:href="#DejaVuSans-38" x="63.623047"/>
    </g>
   </g>
   <g id="text_48">
    <g id="patch_44">
     <path d="M 225.884474 171.71014 
C 227.552602 171.71014 229.152632 171.047386 230.332176 169.867842 
C 231.51172 168.688298 232.174474 167.088268 232.174474 165.42014 
C 232.174474 163.752013 231.51172 162.151983 230.332176 160.972439 
C 229.152632 159.792894 227.552602 159.13014 225.884474 159.13014 
C 224.216347 159.13014 222.616317 159.792894 221.436773 160.972439 
C 220.257228 162.151983 219.594474 163.752013 219.594474 165.42014 
C 219.594474 167.088268 220.257228 168.688298 221.436773 169.867842 
C 222.616317 171.047386 224.216347 171.71014 225.884474 171.71014 
z
" style="fill: #ffffff"/>
    </g>
    <!-- 29 -->
    <g style="fill: #ff0000" transform="translate(220.794474 167.62764)scale(0.08 -0.08)">
     <use xlink:href="#DejaVuSans-32"/>
     <use xlink:href="#DejaVuSans-39" x="63.623047"/>
    </g>
   </g>
   <g id="text_49">
    <g id="patch_45">
     <path d="M 322.39755 17.289219 
C 324.065678 17.289219 325.665708 16.626465 326.845252 15.44692 
C 328.024796 14.267376 328.68755 12.667346 328.68755 10.999219 
C 328.68755 9.331091 328.024796 7.731061 326.845252 6.551517 
C 325.665708 5.371973 324.065678 4.709219 322.39755 4.709219 
C 320.729423 4.709219 319.129393 5.371973 317.949849 6.551517 
C 316.770304 7.731061 316.10755 9.331091 316.10755 10.999219 
C 316.10755 12.667346 316.770304 14.267376 317.949849 15.44692 
C 319.129393 16.626465 320.729423 17.289219 322.39755 17.289219 
z
" style="fill: #ffffff"/>
    </g>
    <!-- 30 -->
    <g style="fill: #ff0000" transform="translate(317.30755 13.206719)scale(0.08 -0.08)">
     <use xlink:href="#DejaVuSans-33"/>
     <use xlink:href="#DejaVuSans-30" x="63.623047"/>
    </g>
   </g>
   <g id="text_50">
    <g id="patch_46">
     <path d="M 322.39755 55.894449 
C 324.065678 55.894449 325.665708 55.231695 326.845252 54.052151 
C 328.024796 52.872607 328.68755 51.272577 328.68755 49.604449 
C 328.68755 47.936322 328.024796 46.336292 326.845252 45.156747 
C 325.665708 43.977203 324.065678 43.314449 322.39755 43.314449 
C 320.729423 43.314449 319.129393 43.977203 317.949849 45.156747 
C 316.770304 46.336292 316.10755 47.936322 316.10755 49.604449 
C 316.10755 51.272577 316.770304 52.872607 317.949849 54.052151 
C 319.129393 55.231695 320.729423 55.894449 322.39755 55.894449 
z
" style="fill: #ffffff"/>
    </g>
    <!-- 31 -->
    <g style="fill: #ff0000" transform="translate(317.30755 51.811949)scale(0.08 -0.08)">
     <use xlink:href="#DejaVuSans-33"/>
     <use xlink:href="#DejaVuSans-31" x="63.623047"/>
    </g>
   </g>
   <g id="text_51">
    <g id="patch_47">
     <path d="M 322.39755 94.49968 
C 324.065678 94.49968 325.665708 93.836925 326.845252 92.657381 
C 328.024796 91.477837 328.68755 89.877807 328.68755 88.20968 
C 328.68755 86.541552 328.024796 84.941522 326.845252 83.761978 
C 325.665708 82.582434 324.065678 81.91968 322.39755 81.91968 
C 320.729423 81.91968 319.129393 82.582434 317.949849 83.761978 
C 316.770304 84.941522 316.10755 86.541552 316.10755 88.20968 
C 316.10755 89.877807 316.770304 91.477837 317.949849 92.657381 
C 319.129393 93.836925 320.729423 94.49968 322.39755 94.49968 
z
" style="fill: #ffffff"/>
    </g>
    <!-- 32 -->
    <g style="fill: #ff0000" transform="translate(317.30755 90.41718)scale(0.08 -0.08)">
     <use xlink:href="#DejaVuSans-33"/>
     <use xlink:href="#DejaVuSans-32" x="63.623047"/>
    </g>
   </g>
   <g id="text_52">
    <g id="patch_48">
     <path d="M 322.39755 133.10491 
C 324.065678 133.10491 325.665708 132.442156 326.845252 131.262612 
C 328.024796 130.083067 328.68755 128.483037 328.68755 126.81491 
C 328.68755 125.146782 328.024796 123.546753 326.845252 122.367208 
C 325.665708 121.187664 324.065678 120.52491 322.39755 120.52491 
C 320.729423 120.52491 319.129393 121.187664 317.949849 122.367208 
C 316.770304 123.546753 316.10755 125.146782 316.10755 126.81491 
C 316.10755 128.483037 316.770304 130.083067 317.949849 131.262612 
C 319.129393 132.442156 320.729423 133.10491 322.39755 133.10491 
z
" style="fill: #ffffff"/>
    </g>
    <!-- 33 -->
    <g style="fill: #ff0000" transform="translate(317.30755 129.02241)scale(0.08 -0.08)">
     <use xlink:href="#DejaVuSans-33"/>
     <use xlink:href="#DejaVuSans-33" x="63.623047"/>
    </g>
   </g>
   <g id="text_53">
    <g id="patch_49">
     <path d="M 322.39755 171.71014 
C 324.065678 171.71014 325.665708 171.047386 326.845252 169.867842 
C 328.024796 168.688298 328.68755 167.088268 328.68755 165.42014 
C 328.68755 163.752013 328.024796 162.151983 326.845252 160.972439 
C 325.665708 159.792894 324.065678 159.13014 322.39755 159.13014 
C 320.729423 159.13014 319.129393 159.792894 317.949849 160.972439 
C 316.770304 162.151983 316.10755 163.752013 316.10755 165.42014 
C 316.10755 167.088268 316.770304 168.688298 317.949849 169.867842 
C 319.129393 171.047386 320.729423 171.71014 322.39755 171.71014 
z
" style="fill: #ffffff"/>
    </g>
    <!-- 34 -->
    <g style="fill: #ff0000" transform="translate(317.30755 167.62764)scale(0.08 -0.08)">
     <use xlink:href="#DejaVuSans-33"/>
     <use xlink:href="#DejaVuSans-34" x="63.623047"/>
    </g>
   </g>
   <g id="text_54">
    <g id="patch_50">
     <path d="M 418.910626 17.289219 
C 420.578754 17.289219 422.178784 16.626465 423.358328 15.44692 
C 424.537872 14.267376 425.200626 12.667346 425.200626 10.999219 
C 425.200626 9.331091 424.537872 7.731061 423.358328 6.551517 
C 422.178784 5.371973 420.578754 4.709219 418.910626 4.709219 
C 417.242499 4.709219 415.642469 5.371973 414.462925 6.551517 
C 413.28338 7.731061 412.620626 9.331091 412.620626 10.999219 
C 412.620626 12.667346 413.28338 14.267376 414.462925 15.44692 
C 415.642469 16.626465 417.242499 17.289219 418.910626 17.289219 
z
" style="fill: #ffffff"/>
    </g>
    <!-- 35 -->
    <g style="fill: #ff0000" transform="translate(413.820626 13.206719)scale(0.08 -0.08)">
     <use xlink:href="#DejaVuSans-33"/>
     <use xlink:href="#DejaVuSans-35" x="63.623047"/>
    </g>
   </g>
   <g id="text_55">
    <g id="patch_51">
     <path d="M 418.910626 55.894449 
C 420.578754 55.894449 422.178784 55.231695 423.358328 54.052151 
C 424.537872 52.872607 425.200626 51.272577 425.200626 49.604449 
C 425.200626 47.936322 424.537872 46.336292 423.358328 45.156747 
C 422.178784 43.977203 420.578754 43.314449 418.910626 43.314449 
C 417.242499 43.314449 415.642469 43.977203 414.462925 45.156747 
C 413.28338 46.336292 412.620626 47.936322 412.620626 49.604449 
C 412.620626 51.272577 413.28338 52.872607 414.462925 54.052151 
C 415.642469 55.231695 417.242499 55.894449 418.910626 55.894449 
z
" style="fill: #ffffff"/>
    </g>
    <!-- 36 -->
    <g style="fill: #ff0000" transform="translate(413.820626 51.811949)scale(0.08 -0.08)">
     <use xlink:href="#DejaVuSans-33"/>
     <use xlink:href="#DejaVuSans-36" x="63.623047"/>
    </g>
   </g>
   <g id="text_56">
    <g id="patch_52">
     <path d="M 418.910626 94.49968 
C 420.578754 94.49968 422.178784 93.836925 423.358328 92.657381 
C 424.537872 91.477837 425.200626 89.877807 425.200626 88.20968 
C 425.200626 86.541552 424.537872 84.941522 423.358328 83.761978 
C 422.178784 82.582434 420.578754 81.91968 418.910626 81.91968 
C 417.242499 81.91968 415.642469 82.582434 414.462925 83.761978 
C 413.28338 84.941522 412.620626 86.541552 412.620626 88.20968 
C 412.620626 89.877807 413.28338 91.477837 414.462925 92.657381 
C 415.642469 93.836925 417.242499 94.49968 418.910626 94.49968 
z
" style="fill: #ffffff"/>
    </g>
    <!-- 37 -->
    <g style="fill: #ff0000" transform="translate(413.820626 90.41718)scale(0.08 -0.08)">
     <use xlink:href="#DejaVuSans-33"/>
     <use xlink:href="#DejaVuSans-37" x="63.623047"/>
    </g>
   </g>
   <g id="text_57">
    <g id="patch_53">
     <path d="M 418.910626 133.10491 
C 420.578754 133.10491 422.178784 132.442156 423.358328 131.262612 
C 424.537872 130.083067 425.200626 128.483037 425.200626 126.81491 
C 425.200626 125.146782 424.537872 123.546753 423.358328 122.367208 
C 422.178784 121.187664 420.578754 120.52491 418.910626 120.52491 
C 417.242499 120.52491 415.642469 121.187664 414.462925 122.367208 
C 413.28338 123.546753 412.620626 125.146782 412.620626 126.81491 
C 412.620626 128.483037 413.28338 130.083067 414.462925 131.262612 
C 415.642469 132.442156 417.242499 133.10491 418.910626 133.10491 
z
" style="fill: #ffffff"/>
    </g>
    <!-- 38 -->
    <g style="fill: #ff0000" transform="translate(413.820626 129.02241)scale(0.08 -0.08)">
     <use xlink:href="#DejaVuSans-33"/>
     <use xlink:href="#DejaVuSans-38" x="63.623047"/>
    </g>
   </g>
   <g id="text_58">
    <g id="patch_54">
     <path d="M 418.910626 171.71014 
C 420.578754 171.71014 422.178784 171.047386 423.358328 169.867842 
C 424.537872 168.688298 425.200626 167.088268 425.200626 165.42014 
C 425.200626 163.752013 424.537872 162.151983 423.358328 160.972439 
C 422.178784 159.792894 420.578754 159.13014 418.910626 159.13014 
C 417.242499 159.13014 415.642469 159.792894 414.462925 160.972439 
C 413.28338 162.151983 412.620626 163.752013 412.620626 165.42014 
C 412.620626 167.088268 413.28338 168.688298 414.462925 169.867842 
C 415.642469 171.047386 417.242499 171.71014 418.910626 171.71014 
z
" style="fill: #ffffff"/>
    </g>
    <!-- 39 -->
    <g style="fill: #ff0000" transform="translate(413.820626 167.62764)scale(0.08 -0.08)">
     <use xlink:href="#DejaVuSans-33"/>
     <use xlink:href="#DejaVuSans-39" x="63.623047"/>
    </g>
   </g>
   <g id="text_59">
    <g id="patch_55">
     <path d="M 515.423702 17.289219 
C 517.09183 17.289219 518.69186 16.626465 519.871404 15.44692 
C 521.050948 14.267376 521.713702 12.667346 521.713702 10.999219 
C 521.713702 9.331091 521.050948 7.731061 519.871404 6.551517 
C 518.69186 5.371973 517.09183 4.709219 515.423702 4.709219 
C 513.755575 4.709219 512.155545 5.371973 510.976 6.551517 
C 509.796456 7.731061 509.133702 9.331091 509.133702 10.999219 
C 509.133702 12.667346 509.796456 14.267376 510.976 15.44692 
C 512.155545 16.626465 513.755575 17.289219 515.423702 17.289219 
z
" style="fill: #ffffff"/>
    </g>
    <!-- 40 -->
    <g style="fill: #ff0000" transform="translate(510.333702 13.206719)scale(0.08 -0.08)">
     <use xlink:href="#DejaVuSans-34"/>
     <use xlink:href="#DejaVuSans-30" x="63.623047"/>
    </g>
   </g>
   <g id="text_60">
    <g id="patch_56">
     <path d="M 515.423702 55.894449 
C 517.09183 55.894449 518.69186 55.231695 519.871404 54.052151 
C 521.050948 52.872607 521.713702 51.272577 521.713702 49.604449 
C 521.713702 47.936322 521.050948 46.336292 519.871404 45.156747 
C 518.69186 43.977203 517.09183 43.314449 515.423702 43.314449 
C 513.755575 43.314449 512.155545 43.977203 510.976 45.156747 
C 509.796456 46.336292 509.133702 47.936322 509.133702 49.604449 
C 509.133702 51.272577 509.796456 52.872607 510.976 54.052151 
C 512.155545 55.231695 513.755575 55.894449 515.423702 55.894449 
z
" style="fill: #ffffff"/>
    </g>
    <!-- 41 -->
    <g style="fill: #ff0000" transform="translate(510.333702 51.811949)scale(0.08 -0.08)">
     <use xlink:href="#DejaVuSans-34"/>
     <use xlink:href="#DejaVuSans-31" x="63.623047"/>
    </g>
   </g>
   <g id="text_61">
    <g id="patch_57">
     <path d="M 515.423702 94.49968 
C 517.09183 94.49968 518.69186 93.836925 519.871404 92.657381 
C 521.050948 91.477837 521.713702 89.877807 521.713702 88.20968 
C 521.713702 86.541552 521.050948 84.941522 519.871404 83.761978 
C 518.69186 82.582434 517.09183 81.91968 515.423702 81.91968 
C 513.755575 81.91968 512.155545 82.582434 510.976 83.761978 
C 509.796456 84.941522 509.133702 86.541552 509.133702 88.20968 
C 509.133702 89.877807 509.796456 91.477837 510.976 92.657381 
C 512.155545 93.836925 513.755575 94.49968 515.423702 94.49968 
z
" style="fill: #ffffff"/>
    </g>
    <!-- 42 -->
    <g style="fill: #ff0000" transform="translate(510.333702 90.41718)scale(0.08 -0.08)">
     <use xlink:href="#DejaVuSans-34"/>
     <use xlink:href="#DejaVuSans-32" x="63.623047"/>
    </g>
   </g>
   <g id="text_62">
    <g id="patch_58">
     <path d="M 515.423702 133.10491 
C 517.09183 133.10491 518.69186 132.442156 519.871404 131.262612 
C 521.050948 130.083067 521.713702 128.483037 521.713702 126.81491 
C 521.713702 125.146782 521.050948 123.546753 519.871404 122.367208 
C 518.69186 121.187664 517.09183 120.52491 515.423702 120.52491 
C 513.755575 120.52491 512.155545 121.187664 510.976 122.367208 
C 509.796456 123.546753 509.133702 125.146782 509.133702 126.81491 
C 509.133702 128.483037 509.796456 130.083067 510.976 131.262612 
C 512.155545 132.442156 513.755575 133.10491 515.423702 133.10491 
z
" style="fill: #ffffff"/>
    </g>
    <!-- 43 -->
    <g style="fill: #ff0000" transform="translate(510.333702 129.02241)scale(0.08 -0.08)">
     <use xlink:href="#DejaVuSans-34"/>
     <use xlink:href="#DejaVuSans-33" x="63.623047"/>
    </g>
   </g>
   <g id="text_63">
    <g id="patch_59">
     <path d="M 515.423702 171.71014 
C 517.09183 171.71014 518.69186 171.047386 519.871404 169.867842 
C 521.050948 168.688298 521.713702 167.088268 521.713702 165.42014 
C 521.713702 163.752013 521.050948 162.151983 519.871404 160.972439 
C 518.69186 159.792894 517.09183 159.13014 515.423702 159.13014 
C 513.755575 159.13014 512.155545 159.792894 510.976 160.972439 
C 509.796456 162.151983 509.133702 163.752013 509.133702 165.42014 
C 509.133702 167.088268 509.796456 168.688298 510.976 169.867842 
C 512.155545 171.047386 513.755575 171.71014 515.423702 171.71014 
z
" style="fill: #ffffff"/>
    </g>
    <!-- 44 -->
    <g style="fill: #ff0000" transform="translate(510.333702 167.62764)scale(0.08 -0.08)">
     <use xlink:href="#DejaVuSans-34"/>
     <use xlink:href="#DejaVuSans-34" x="63.623047"/>
    </g>
   </g>
  </g>
 </g>
 <defs>
  <clipPath id="p5018345a35">
   <rect x="52.160938" y="10.999219" width="463.262765" height="154.420922"/>
  </clipPath>
 </defs>
</svg>
