<?xml version="1.0" encoding="utf-8" standalone="no"?>
<!DOCTYPE svg PUBLIC "-//W3C//DTD SVG 1.1//EN"
  "http://www.w3.org/Graphics/SVG/1.1/DTD/svg11.dtd">
<svg xmlns:xlink="http://www.w3.org/1999/xlink" width="533.527098pt" height="508.829441pt" viewBox="0 0 533.527098 508.829441" xmlns="http://www.w3.org/2000/svg" version="1.1">
 <metadata>
  <rdf:RDF xmlns:dc="http://purl.org/dc/elements/1.1/" xmlns:cc="http://creativecommons.org/ns#" xmlns:rdf="http://www.w3.org/1999/02/22-rdf-syntax-ns#">
   <cc:Work>
    <dc:type rdf:resource="http://purl.org/dc/dcmitype/StillImage"/>
    <dc:date>2022-09-20T22:43:01.139421</dc:date>
    <dc:format>image/svg+xml</dc:format>
    <dc:creator>
     <cc:Agent>
      <dc:title>Matplotlib v3.5.2, https://matplotlib.org/</dc:title>
     </cc:Agent>
    </dc:creator>
   </cc:Work>
  </rdf:RDF>
 </metadata>
 <defs>
  <style type="text/css">*{stroke-linejoin: round; stroke-linecap: butt}</style>
 </defs>
 <g id="figure_1">
  <g id="patch_1">
   <path d="M 0 508.829441 
L 533.527098 508.829441 
L 533.527098 0 
L 0 0 
z
" style="fill: #ffffff"/>
  </g>
  <g id="axes_1">
   <g id="patch_2">
    <path d="M 53.328125 471.273191 
L 513.602098 471.273191 
L 513.602098 10.999219 
L 53.328125 10.999219 
z
" style="fill: #ffffff"/>
   </g>
   <g id="matplotlib.axis_1">
    <g id="xtick_1">
     <g id="line2d_1">
      <path d="M 53.328125 471.273191 
L 53.328125 10.999219 
" clip-path="url(#p178d7b0b76)" style="fill: none; stroke-dasharray: 2.96,1.28; stroke-dashoffset: 0; stroke: #808080; stroke-width: 0.8"/>
     </g>
     <g id="line2d_2">
      <defs>
       <path id="mc0eb9ed836" d="M 0 0 
L 0 3.5 
" style="stroke: #000000; stroke-width: 0.8"/>
      </defs>
      <g>
       <use xlink:href="#mc0eb9ed836" x="53.328125" y="471.273191" style="stroke: #000000; stroke-width: 0.8"/>
      </g>
     </g>
     <g id="text_1">
      <!-- 0 -->
      <g transform="translate(50.146875 485.871629)scale(0.1 -0.1)">
       <defs>
        <path id="DejaVuSans-30" d="M 2034 4250 
Q 1547 4250 1301 3770 
Q 1056 3291 1056 2328 
Q 1056 1369 1301 889 
Q 1547 409 2034 409 
Q 2525 409 2770 889 
Q 3016 1369 3016 2328 
Q 3016 3291 2770 3770 
Q 2525 4250 2034 4250 
z
M 2034 4750 
Q 2819 4750 3233 4129 
Q 3647 3509 3647 2328 
Q 3647 1150 3233 529 
Q 2819 -91 2034 -91 
Q 1250 -91 836 529 
Q 422 1150 422 2328 
Q 422 3509 836 4129 
Q 1250 4750 2034 4750 
z
" transform="scale(0.015625)"/>
       </defs>
       <use xlink:href="#DejaVuSans-30"/>
      </g>
     </g>
    </g>
    <g id="xtick_2">
     <g id="line2d_3">
      <path d="M 145.38292 471.273191 
L 145.38292 10.999219 
" clip-path="url(#p178d7b0b76)" style="fill: none; stroke-dasharray: 2.96,1.28; stroke-dashoffset: 0; stroke: #808080; stroke-width: 0.8"/>
     </g>
     <g id="line2d_4">
      <g>
       <use xlink:href="#mc0eb9ed836" x="145.38292" y="471.273191" style="stroke: #000000; stroke-width: 0.8"/>
      </g>
     </g>
     <g id="text_2">
      <!-- 1000 -->
      <g transform="translate(132.65792 485.871629)scale(0.1 -0.1)">
       <defs>
        <path id="DejaVuSans-31" d="M 794 531 
L 1825 531 
L 1825 4091 
L 703 3866 
L 703 4441 
L 1819 4666 
L 2450 4666 
L 2450 531 
L 3481 531 
L 3481 0 
L 794 0 
L 794 531 
z
" transform="scale(0.015625)"/>
       </defs>
       <use xlink:href="#DejaVuSans-31"/>
       <use xlink:href="#DejaVuSans-30" x="63.623047"/>
       <use xlink:href="#DejaVuSans-30" x="127.246094"/>
       <use xlink:href="#DejaVuSans-30" x="190.869141"/>
      </g>
     </g>
    </g>
    <g id="xtick_3">
     <g id="line2d_5">
      <path d="M 237.437714 471.273191 
L 237.437714 10.999219 
" clip-path="url(#p178d7b0b76)" style="fill: none; stroke-dasharray: 2.96,1.28; stroke-dashoffset: 0; stroke: #808080; stroke-width: 0.8"/>
     </g>
     <g id="line2d_6">
      <g>
       <use xlink:href="#mc0eb9ed836" x="237.437714" y="471.273191" style="stroke: #000000; stroke-width: 0.8"/>
      </g>
     </g>
     <g id="text_3">
      <!-- 2000 -->
      <g transform="translate(224.712714 485.871629)scale(0.1 -0.1)">
       <defs>
        <path id="DejaVuSans-32" d="M 1228 531 
L 3431 531 
L 3431 0 
L 469 0 
L 469 531 
Q 828 903 1448 1529 
Q 2069 2156 2228 2338 
Q 2531 2678 2651 2914 
Q 2772 3150 2772 3378 
Q 2772 3750 2511 3984 
Q 2250 4219 1831 4219 
Q 1534 4219 1204 4116 
Q 875 4013 500 3803 
L 500 4441 
Q 881 4594 1212 4672 
Q 1544 4750 1819 4750 
Q 2544 4750 2975 4387 
Q 3406 4025 3406 3419 
Q 3406 3131 3298 2873 
Q 3191 2616 2906 2266 
Q 2828 2175 2409 1742 
Q 1991 1309 1228 531 
z
" transform="scale(0.015625)"/>
       </defs>
       <use xlink:href="#DejaVuSans-32"/>
       <use xlink:href="#DejaVuSans-30" x="63.623047"/>
       <use xlink:href="#DejaVuSans-30" x="127.246094"/>
       <use xlink:href="#DejaVuSans-30" x="190.869141"/>
      </g>
     </g>
    </g>
    <g id="xtick_4">
     <g id="line2d_7">
      <path d="M 329.492509 471.273191 
L 329.492509 10.999219 
" clip-path="url(#p178d7b0b76)" style="fill: none; stroke-dasharray: 2.96,1.28; stroke-dashoffset: 0; stroke: #808080; stroke-width: 0.8"/>
     </g>
     <g id="line2d_8">
      <g>
       <use xlink:href="#mc0eb9ed836" x="329.492509" y="471.273191" style="stroke: #000000; stroke-width: 0.8"/>
      </g>
     </g>
     <g id="text_4">
      <!-- 3000 -->
      <g transform="translate(316.767509 485.871629)scale(0.1 -0.1)">
       <defs>
        <path id="DejaVuSans-33" d="M 2597 2516 
Q 3050 2419 3304 2112 
Q 3559 1806 3559 1356 
Q 3559 666 3084 287 
Q 2609 -91 1734 -91 
Q 1441 -91 1130 -33 
Q 819 25 488 141 
L 488 750 
Q 750 597 1062 519 
Q 1375 441 1716 441 
Q 2309 441 2620 675 
Q 2931 909 2931 1356 
Q 2931 1769 2642 2001 
Q 2353 2234 1838 2234 
L 1294 2234 
L 1294 2753 
L 1863 2753 
Q 2328 2753 2575 2939 
Q 2822 3125 2822 3475 
Q 2822 3834 2567 4026 
Q 2313 4219 1838 4219 
Q 1578 4219 1281 4162 
Q 984 4106 628 3988 
L 628 4550 
Q 988 4650 1302 4700 
Q 1616 4750 1894 4750 
Q 2613 4750 3031 4423 
Q 3450 4097 3450 3541 
Q 3450 3153 3228 2886 
Q 3006 2619 2597 2516 
z
" transform="scale(0.015625)"/>
       </defs>
       <use xlink:href="#DejaVuSans-33"/>
       <use xlink:href="#DejaVuSans-30" x="63.623047"/>
       <use xlink:href="#DejaVuSans-30" x="127.246094"/>
       <use xlink:href="#DejaVuSans-30" x="190.869141"/>
      </g>
     </g>
    </g>
    <g id="xtick_5">
     <g id="line2d_9">
      <path d="M 421.547303 471.273191 
L 421.547303 10.999219 
" clip-path="url(#p178d7b0b76)" style="fill: none; stroke-dasharray: 2.96,1.28; stroke-dashoffset: 0; stroke: #808080; stroke-width: 0.8"/>
     </g>
     <g id="line2d_10">
      <g>
       <use xlink:href="#mc0eb9ed836" x="421.547303" y="471.273191" style="stroke: #000000; stroke-width: 0.8"/>
      </g>
     </g>
     <g id="text_5">
      <!-- 4000 -->
      <g transform="translate(408.822303 485.871629)scale(0.1 -0.1)">
       <defs>
        <path id="DejaVuSans-34" d="M 2419 4116 
L 825 1625 
L 2419 1625 
L 2419 4116 
z
M 2253 4666 
L 3047 4666 
L 3047 1625 
L 3713 1625 
L 3713 1100 
L 3047 1100 
L 3047 0 
L 2419 0 
L 2419 1100 
L 313 1100 
L 313 1709 
L 2253 4666 
z
" transform="scale(0.015625)"/>
       </defs>
       <use xlink:href="#DejaVuSans-34"/>
       <use xlink:href="#DejaVuSans-30" x="63.623047"/>
       <use xlink:href="#DejaVuSans-30" x="127.246094"/>
       <use xlink:href="#DejaVuSans-30" x="190.869141"/>
      </g>
     </g>
    </g>
    <g id="xtick_6">
     <g id="line2d_11">
      <path d="M 513.602098 471.273191 
L 513.602098 10.999219 
" clip-path="url(#p178d7b0b76)" style="fill: none; stroke-dasharray: 2.96,1.28; stroke-dashoffset: 0; stroke: #808080; stroke-width: 0.8"/>
     </g>
     <g id="line2d_12">
      <g>
       <use xlink:href="#mc0eb9ed836" x="513.602098" y="471.273191" style="stroke: #000000; stroke-width: 0.8"/>
      </g>
     </g>
     <g id="text_6">
      <!-- 5000 -->
      <g transform="translate(500.877098 485.871629)scale(0.1 -0.1)">
       <defs>
        <path id="DejaVuSans-35" d="M 691 4666 
L 3169 4666 
L 3169 4134 
L 1269 4134 
L 1269 2991 
Q 1406 3038 1543 3061 
Q 1681 3084 1819 3084 
Q 2600 3084 3056 2656 
Q 3513 2228 3513 1497 
Q 3513 744 3044 326 
Q 2575 -91 1722 -91 
Q 1428 -91 1123 -41 
Q 819 9 494 109 
L 494 744 
Q 775 591 1075 516 
Q 1375 441 1709 441 
Q 2250 441 2565 725 
Q 2881 1009 2881 1497 
Q 2881 1984 2565 2268 
Q 2250 2553 1709 2553 
Q 1456 2553 1204 2497 
Q 953 2441 691 2322 
L 691 4666 
z
" transform="scale(0.015625)"/>
       </defs>
       <use xlink:href="#DejaVuSans-35"/>
       <use xlink:href="#DejaVuSans-30" x="63.623047"/>
       <use xlink:href="#DejaVuSans-30" x="127.246094"/>
       <use xlink:href="#DejaVuSans-30" x="190.869141"/>
      </g>
     </g>
    </g>
    <g id="text_7">
     <!-- x -->
     <g transform="translate(280.505736 499.549754)scale(0.1 -0.1)">
      <defs>
       <path id="DejaVuSans-78" d="M 3513 3500 
L 2247 1797 
L 3578 0 
L 2900 0 
L 1881 1375 
L 863 0 
L 184 0 
L 1544 1831 
L 300 3500 
L 978 3500 
L 1906 2253 
L 2834 3500 
L 3513 3500 
z
" transform="scale(0.015625)"/>
      </defs>
      <use xlink:href="#DejaVuSans-78"/>
     </g>
    </g>
   </g>
   <g id="matplotlib.axis_2">
    <g id="ytick_1">
     <g id="line2d_13">
      <path d="M 53.328125 471.273191 
L 513.602098 471.273191 
" clip-path="url(#p178d7b0b76)" style="fill: none; stroke-dasharray: 2.96,1.28; stroke-dashoffset: 0; stroke: #808080; stroke-width: 0.8"/>
     </g>
     <g id="line2d_14">
      <defs>
       <path id="m937d177e30" d="M 0 0 
L -3.5 0 
" style="stroke: #000000; stroke-width: 0.8"/>
      </defs>
      <g>
       <use xlink:href="#m937d177e30" x="53.328125" y="471.273191" style="stroke: #000000; stroke-width: 0.8"/>
      </g>
     </g>
     <g id="text_8">
      <!-- 0 -->
      <g transform="translate(39.965625 475.07241)scale(0.1 -0.1)">
       <use xlink:href="#DejaVuSans-30"/>
      </g>
     </g>
    </g>
    <g id="ytick_2">
     <g id="line2d_15">
      <path d="M 53.328125 379.218397 
L 513.602098 379.218397 
" clip-path="url(#p178d7b0b76)" style="fill: none; stroke-dasharray: 2.96,1.28; stroke-dashoffset: 0; stroke: #808080; stroke-width: 0.8"/>
     </g>
     <g id="line2d_16">
      <g>
       <use xlink:href="#m937d177e30" x="53.328125" y="379.218397" style="stroke: #000000; stroke-width: 0.8"/>
      </g>
     </g>
     <g id="text_9">
      <!-- 1000 -->
      <g transform="translate(20.878125 383.017616)scale(0.1 -0.1)">
       <use xlink:href="#DejaVuSans-31"/>
       <use xlink:href="#DejaVuSans-30" x="63.623047"/>
       <use xlink:href="#DejaVuSans-30" x="127.246094"/>
       <use xlink:href="#DejaVuSans-30" x="190.869141"/>
      </g>
     </g>
    </g>
    <g id="ytick_3">
     <g id="line2d_17">
      <path d="M 53.328125 287.163602 
L 513.602098 287.163602 
" clip-path="url(#p178d7b0b76)" style="fill: none; stroke-dasharray: 2.96,1.28; stroke-dashoffset: 0; stroke: #808080; stroke-width: 0.8"/>
     </g>
     <g id="line2d_18">
      <g>
       <use xlink:href="#m937d177e30" x="53.328125" y="287.163602" style="stroke: #000000; stroke-width: 0.8"/>
      </g>
     </g>
     <g id="text_10">
      <!-- 2000 -->
      <g transform="translate(20.878125 290.962821)scale(0.1 -0.1)">
       <use xlink:href="#DejaVuSans-32"/>
       <use xlink:href="#DejaVuSans-30" x="63.623047"/>
       <use xlink:href="#DejaVuSans-30" x="127.246094"/>
       <use xlink:href="#DejaVuSans-30" x="190.869141"/>
      </g>
     </g>
    </g>
    <g id="ytick_4">
     <g id="line2d_19">
      <path d="M 53.328125 195.108808 
L 513.602098 195.108808 
" clip-path="url(#p178d7b0b76)" style="fill: none; stroke-dasharray: 2.96,1.28; stroke-dashoffset: 0; stroke: #808080; stroke-width: 0.8"/>
     </g>
     <g id="line2d_20">
      <g>
       <use xlink:href="#m937d177e30" x="53.328125" y="195.108808" style="stroke: #000000; stroke-width: 0.8"/>
      </g>
     </g>
     <g id="text_11">
      <!-- 3000 -->
      <g transform="translate(20.878125 198.908027)scale(0.1 -0.1)">
       <use xlink:href="#DejaVuSans-33"/>
       <use xlink:href="#DejaVuSans-30" x="63.623047"/>
       <use xlink:href="#DejaVuSans-30" x="127.246094"/>
       <use xlink:href="#DejaVuSans-30" x="190.869141"/>
      </g>
     </g>
    </g>
    <g id="ytick_5">
     <g id="line2d_21">
      <path d="M 53.328125 103.054013 
L 513.602098 103.054013 
" clip-path="url(#p178d7b0b76)" style="fill: none; stroke-dasharray: 2.96,1.28; stroke-dashoffset: 0; stroke: #808080; stroke-width: 0.8"/>
     </g>
     <g id="line2d_22">
      <g>
       <use xlink:href="#m937d177e30" x="53.328125" y="103.054013" style="stroke: #000000; stroke-width: 0.8"/>
      </g>
     </g>
     <g id="text_12">
      <!-- 4000 -->
      <g transform="translate(20.878125 106.853232)scale(0.1 -0.1)">
       <use xlink:href="#DejaVuSans-34"/>
       <use xlink:href="#DejaVuSans-30" x="63.623047"/>
       <use xlink:href="#DejaVuSans-30" x="127.246094"/>
       <use xlink:href="#DejaVuSans-30" x="190.869141"/>
      </g>
     </g>
    </g>
    <g id="ytick_6">
     <g id="line2d_23">
      <path d="M 53.328125 10.999219 
L 513.602098 10.999219 
" clip-path="url(#p178d7b0b76)" style="fill: none; stroke-dasharray: 2.96,1.28; stroke-dashoffset: 0; stroke: #808080; stroke-width: 0.8"/>
     </g>
     <g id="line2d_24">
      <g>
       <use xlink:href="#m937d177e30" x="53.328125" y="10.999219" style="stroke: #000000; stroke-width: 0.8"/>
      </g>
     </g>
     <g id="text_13">
      <!-- 5000 -->
      <g transform="translate(20.878125 14.798437)scale(0.1 -0.1)">
       <use xlink:href="#DejaVuSans-35"/>
       <use xlink:href="#DejaVuSans-30" x="63.623047"/>
       <use xlink:href="#DejaVuSans-30" x="127.246094"/>
       <use xlink:href="#DejaVuSans-30" x="190.869141"/>
      </g>
     </g>
    </g>
    <g id="text_14">
     <!-- y -->
     <g transform="translate(14.798438 244.09558)rotate(-90)scale(0.1 -0.1)">
      <defs>
       <path id="DejaVuSans-79" d="M 2059 -325 
Q 1816 -950 1584 -1140 
Q 1353 -1331 966 -1331 
L 506 -1331 
L 506 -850 
L 844 -850 
Q 1081 -850 1212 -737 
Q 1344 -625 1503 -206 
L 1606 56 
L 191 3500 
L 800 3500 
L 1894 763 
L 2988 3500 
L 3597 3500 
L 2059 -325 
z
" transform="scale(0.015625)"/>
      </defs>
      <use xlink:href="#DejaVuSans-79"/>
     </g>
    </g>
   </g>
   <g id="patch_3">
    <path d="M 53.328125 471.273191 
L 191.410317 149.081411 
" style="fill: none; stroke: #cd0000; stroke-width: 3; stroke-linejoin: miter"/>
   </g>
   <g id="patch_4">
    <path d="M 191.410317 149.081411 
L 513.602098 10.999219 
" style="fill: none; stroke: #cd0000; stroke-width: 3; stroke-linejoin: miter"/>
   </g>
   <g id="patch_5">
    <path d="M 53.328125 471.273191 
L 53.328125 10.999219 
" style="fill: none; stroke: #cd0000; stroke-width: 3; stroke-linejoin: miter"/>
   </g>
   <g id="patch_6">
    <path d="M 53.328125 10.999219 
L 513.602098 10.999219 
" style="fill: none; stroke: #cd0000; stroke-width: 3; stroke-linejoin: miter"/>
   </g>
   <g id="patch_7">
    <path d="M 53.328125 10.999219 
L 191.410317 149.081411 
" style="fill: none; stroke: #cd0000; stroke-width: 3; stroke-linejoin: miter"/>
   </g>
   <g id="patch_8">
    <path d="M 53.328125 471.273191 
L 53.328125 10.999219 
" style="fill: none; stroke: #000000; stroke-width: 0.8; stroke-linejoin: miter; stroke-linecap: square"/>
   </g>
   <g id="patch_9">
    <path d="M 513.602098 471.273191 
L 513.602098 10.999219 
" style="fill: none; stroke: #000000; stroke-width: 0.8; stroke-linejoin: miter; stroke-linecap: square"/>
   </g>
   <g id="patch_10">
    <path d="M 53.328125 471.273191 
L 513.602098 471.273191 
" style="fill: none; stroke: #000000; stroke-width: 0.8; stroke-linejoin: miter; stroke-linecap: square"/>
   </g>
   <g id="patch_11">
    <path d="M 53.328125 10.999219 
L 513.602098 10.999219 
" style="fill: none; stroke: #000000; stroke-width: 0.8; stroke-linejoin: miter; stroke-linecap: square"/>
   </g>
   <g id="text_15">
    <g id="patch_12">
     <path d="M 109.675002 315.882457 
L 135.06344 315.882457 
L 135.06344 304.472145 
L 109.675002 304.472145 
z
" style="fill: #ffffff; stroke: #b7b7b7; stroke-linejoin: miter"/>
    </g>
    <!-- 0 a 1 -->
    <g style="fill: #22971f" transform="translate(111.025002 312.660738)scale(0.09 -0.09)">
     <defs>
      <path id="DejaVuSans-20" transform="scale(0.015625)"/>
      <path id="DejaVuSans-61" d="M 2194 1759 
Q 1497 1759 1228 1600 
Q 959 1441 959 1056 
Q 959 750 1161 570 
Q 1363 391 1709 391 
Q 2188 391 2477 730 
Q 2766 1069 2766 1631 
L 2766 1759 
L 2194 1759 
z
M 3341 1997 
L 3341 0 
L 2766 0 
L 2766 531 
Q 2569 213 2275 61 
Q 1981 -91 1556 -91 
Q 1019 -91 701 211 
Q 384 513 384 1019 
Q 384 1609 779 1909 
Q 1175 2209 1959 2209 
L 2766 2209 
L 2766 2266 
Q 2766 2663 2505 2880 
Q 2244 3097 1772 3097 
Q 1472 3097 1187 3025 
Q 903 2953 641 2809 
L 641 3341 
Q 956 3463 1253 3523 
Q 1550 3584 1831 3584 
Q 2591 3584 2966 3190 
Q 3341 2797 3341 1997 
z
" transform="scale(0.015625)"/>
     </defs>
     <use xlink:href="#DejaVuSans-30"/>
     <use xlink:href="#DejaVuSans-20" x="63.623047"/>
     <use xlink:href="#DejaVuSans-61" x="95.410156"/>
     <use xlink:href="#DejaVuSans-20" x="156.689453"/>
     <use xlink:href="#DejaVuSans-31" x="188.476562"/>
    </g>
   </g>
   <g id="text_16">
    <g id="patch_13">
     <path d="M 339.811988 85.745471 
L 365.200426 85.745471 
L 365.200426 74.335158 
L 339.811988 74.335158 
z
" style="fill: #ffffff; stroke: #b7b7b7; stroke-linejoin: miter"/>
    </g>
    <!-- 1 a 1 -->
    <g style="fill: #22971f" transform="translate(341.161988 82.523752)scale(0.09 -0.09)">
     <use xlink:href="#DejaVuSans-31"/>
     <use xlink:href="#DejaVuSans-20" x="63.623047"/>
     <use xlink:href="#DejaVuSans-61" x="95.410156"/>
     <use xlink:href="#DejaVuSans-20" x="156.689453"/>
     <use xlink:href="#DejaVuSans-31" x="188.476562"/>
    </g>
   </g>
   <g id="text_17">
    <g id="patch_14">
     <path d="M 40.633906 246.841361 
L 66.022344 246.841361 
L 66.022344 235.431049 
L 40.633906 235.431049 
z
" style="fill: #ffffff; stroke: #b7b7b7; stroke-linejoin: miter"/>
    </g>
    <!-- 2 a 2 -->
    <g style="fill: #22971f" transform="translate(41.983906 243.619643)scale(0.09 -0.09)">
     <use xlink:href="#DejaVuSans-32"/>
     <use xlink:href="#DejaVuSans-20" x="63.623047"/>
     <use xlink:href="#DejaVuSans-61" x="95.410156"/>
     <use xlink:href="#DejaVuSans-20" x="156.689453"/>
     <use xlink:href="#DejaVuSans-32" x="188.476562"/>
    </g>
   </g>
   <g id="text_18">
    <g id="patch_15">
     <path d="M 270.770893 16.704375 
L 296.15933 16.704375 
L 296.15933 5.294062 
L 270.770893 5.294062 
z
" style="fill: #ffffff; stroke: #b7b7b7; stroke-linejoin: miter"/>
    </g>
    <!-- 3 a 2 -->
    <g style="fill: #22971f" transform="translate(272.120893 13.482656)scale(0.09 -0.09)">
     <use xlink:href="#DejaVuSans-33"/>
     <use xlink:href="#DejaVuSans-20" x="63.623047"/>
     <use xlink:href="#DejaVuSans-61" x="95.410156"/>
     <use xlink:href="#DejaVuSans-20" x="156.689453"/>
     <use xlink:href="#DejaVuSans-32" x="188.476562"/>
    </g>
   </g>
   <g id="text_19">
    <g id="patch_16">
     <path d="M 109.675002 85.745471 
L 135.06344 85.745471 
L 135.06344 74.335158 
L 109.675002 74.335158 
z
" style="fill: #ffffff; stroke: #b7b7b7; stroke-linejoin: miter"/>
    </g>
    <!-- 4 a 3 -->
    <g style="fill: #22971f" transform="translate(111.025002 82.523752)scale(0.09 -0.09)">
     <use xlink:href="#DejaVuSans-34"/>
     <use xlink:href="#DejaVuSans-20" x="63.623047"/>
     <use xlink:href="#DejaVuSans-61" x="95.410156"/>
     <use xlink:href="#DejaVuSans-20" x="156.689453"/>
     <use xlink:href="#DejaVuSans-33" x="188.476562"/>
    </g>
   </g>
   <g id="text_20">
    <g id="patch_17">
     <path d="M 53.328125 476.344441 
C 54.673036 476.344441 55.963044 475.810102 56.91404 474.859107 
C 57.865036 473.908111 58.399375 472.618103 58.399375 471.273191 
C 58.399375 469.92828 57.865036 468.638272 56.91404 467.687276 
C 55.963044 466.73628 54.673036 466.201941 53.328125 466.201941 
C 51.983214 466.201941 50.693206 466.73628 49.74221 467.687276 
C 48.791214 468.638272 48.256875 469.92828 48.256875 471.273191 
C 48.256875 472.618103 48.791214 473.908111 49.74221 474.859107 
C 50.693206 475.810102 51.983214 476.344441 53.328125 476.344441 
z
" style="fill: #ffffff"/>
    </g>
    <!-- 0 -->
    <g style="fill: #ff0000" transform="translate(50.783125 473.480691)scale(0.08 -0.08)">
     <use xlink:href="#DejaVuSans-30"/>
    </g>
   </g>
   <g id="text_21">
    <g id="patch_18">
     <path d="M 191.410317 154.152661 
C 192.755228 154.152661 194.045236 153.618322 194.996232 152.667326 
C 195.947228 151.71633 196.481567 150.426322 196.481567 149.081411 
C 196.481567 147.736499 195.947228 146.446491 194.996232 145.495495 
C 194.045236 144.544499 192.755228 144.010161 191.410317 144.010161 
C 190.065406 144.010161 188.775397 144.544499 187.824402 145.495495 
C 186.873406 146.446491 186.339067 147.736499 186.339067 149.081411 
C 186.339067 150.426322 186.873406 151.71633 187.824402 152.667326 
C 188.775397 153.618322 190.065406 154.152661 191.410317 154.152661 
z
" style="fill: #ffffff"/>
    </g>
    <!-- 1 -->
    <g style="fill: #ff0000" transform="translate(188.865317 151.288911)scale(0.08 -0.08)">
     <use xlink:href="#DejaVuSans-31"/>
    </g>
   </g>
   <g id="text_22">
    <g id="patch_19">
     <path d="M 53.328125 16.070469 
C 54.673036 16.070469 55.963044 15.53613 56.91404 14.585134 
C 57.865036 13.634138 58.399375 12.34413 58.399375 10.999219 
C 58.399375 9.654308 57.865036 8.364299 56.91404 7.413303 
C 55.963044 6.462308 54.673036 5.927969 53.328125 5.927969 
C 51.983214 5.927969 50.693206 6.462308 49.74221 7.413303 
C 48.791214 8.364299 48.256875 9.654308 48.256875 10.999219 
C 48.256875 12.34413 48.791214 13.634138 49.74221 14.585134 
C 50.693206 15.53613 51.983214 16.070469 53.328125 16.070469 
z
" style="fill: #ffffff"/>
    </g>
    <!-- 2 -->
    <g style="fill: #ff0000" transform="translate(50.783125 13.206719)scale(0.08 -0.08)">
     <use xlink:href="#DejaVuSans-32"/>
    </g>
   </g>
   <g id="text_23">
    <g id="patch_20">
     <path d="M 513.602098 16.070469 
C 514.947009 16.070469 516.237017 15.53613 517.188013 14.585134 
C 518.139009 13.634138 518.673348 12.34413 518.673348 10.999219 
C 518.673348 9.654308 518.139009 8.364299 517.188013 7.413303 
C 516.237017 6.462308 514.947009 5.927969 513.602098 5.927969 
C 512.257186 5.927969 510.967178 6.462308 510.016182 7.413303 
C 509.065186 8.364299 508.530848 9.654308 508.530848 10.999219 
C 508.530848 12.34413 509.065186 13.634138 510.016182 14.585134 
C 510.967178 15.53613 512.257186 16.070469 513.602098 16.070469 
z
" style="fill: #ffffff"/>
    </g>
    <!-- 3 -->
    <g style="fill: #ff0000" transform="translate(511.057098 13.206719)scale(0.08 -0.08)">
     <use xlink:href="#DejaVuSans-33"/>
    </g>
   </g>
  </g>
 </g>
 <defs>
  <clipPath id="p178d7b0b76">
   <rect x="53.328125" y="10.999219" width="460.273973" height="460.273973"/>
  </clipPath>
 </defs>
</svg>
