<?xml version="1.0" encoding="utf-8" standalone="no"?>
<!DOCTYPE svg PUBLIC "-//W3C//DTD SVG 1.1//EN"
  "http://www.w3.org/Graphics/SVG/1.1/DTD/svg11.dtd">
<svg xmlns:xlink="http://www.w3.org/1999/xlink" width="177.182556pt" height="508.829441pt" viewBox="0 0 177.182556 508.829441" xmlns="http://www.w3.org/2000/svg" version="1.1">
 <metadata>
  <rdf:RDF xmlns:dc="http://purl.org/dc/elements/1.1/" xmlns:cc="http://creativecommons.org/ns#" xmlns:rdf="http://www.w3.org/1999/02/22-rdf-syntax-ns#">
   <cc:Work>
    <dc:type rdf:resource="http://purl.org/dc/dcmitype/StillImage"/>
    <dc:date>2022-09-29T11:35:56.168283</dc:date>
    <dc:format>image/svg+xml</dc:format>
    <dc:creator>
     <cc:Agent>
      <dc:title>Matplotlib v3.5.2, https://matplotlib.org/</dc:title>
     </cc:Agent>
    </dc:creator>
   </cc:Work>
  </rdf:RDF>
 </metadata>
 <defs>
  <style type="text/css">*{stroke-linejoin: round; stroke-linecap: butt}</style>
 </defs>
 <g id="figure_1">
  <g id="patch_1">
   <path d="M 0 508.829441 
L 177.182556 508.829441 
L 177.182556 0 
L 0 0 
z
" style="fill: #ffffff"/>
  </g>
  <g id="axes_1">
   <g id="patch_2">
    <path d="M 43.78125 471.273191 
L 158.849743 471.273191 
L 158.849743 10.999219 
L 43.78125 10.999219 
z
" style="fill: #ffffff"/>
   </g>
   <g id="matplotlib.axis_1">
    <g id="xtick_1">
     <g id="line2d_1">
      <path d="M 43.78125 471.273191 
L 43.78125 10.999219 
" clip-path="url(#p6079686bb2)" style="fill: none; stroke-dasharray: 2.96,1.28; stroke-dashoffset: 0; stroke: #808080; stroke-width: 0.8"/>
     </g>
     <g id="line2d_2">
      <defs>
       <path id="mdf877579cd" d="M 0 0 
L 0 3.5 
" style="stroke: #000000; stroke-width: 0.8"/>
      </defs>
      <g>
       <use xlink:href="#mdf877579cd" x="43.78125" y="471.273191" style="stroke: #000000; stroke-width: 0.8"/>
      </g>
     </g>
     <g id="text_1">
      <!-- 0.00 -->
      <g transform="translate(32.648438 485.871629)scale(0.1 -0.1)">
       <defs>
        <path id="DejaVuSans-30" d="M 2034 4250 
Q 1547 4250 1301 3770 
Q 1056 3291 1056 2328 
Q 1056 1369 1301 889 
Q 1547 409 2034 409 
Q 2525 409 2770 889 
Q 3016 1369 3016 2328 
Q 3016 3291 2770 3770 
Q 2525 4250 2034 4250 
z
M 2034 4750 
Q 2819 4750 3233 4129 
Q 3647 3509 3647 2328 
Q 3647 1150 3233 529 
Q 2819 -91 2034 -91 
Q 1250 -91 836 529 
Q 422 1150 422 2328 
Q 422 3509 836 4129 
Q 1250 4750 2034 4750 
z
" transform="scale(0.015625)"/>
        <path id="DejaVuSans-2e" d="M 684 794 
L 1344 794 
L 1344 0 
L 684 0 
L 684 794 
z
" transform="scale(0.015625)"/>
       </defs>
       <use xlink:href="#DejaVuSans-30"/>
       <use xlink:href="#DejaVuSans-2e" x="63.623047"/>
       <use xlink:href="#DejaVuSans-30" x="95.410156"/>
       <use xlink:href="#DejaVuSans-30" x="159.033203"/>
      </g>
     </g>
    </g>
    <g id="xtick_2">
     <g id="line2d_3">
      <path d="M 82.137414 471.273191 
L 82.137414 10.999219 
" clip-path="url(#p6079686bb2)" style="fill: none; stroke-dasharray: 2.96,1.28; stroke-dashoffset: 0; stroke: #808080; stroke-width: 0.8"/>
     </g>
     <g id="line2d_4">
      <g>
       <use xlink:href="#mdf877579cd" x="82.137414" y="471.273191" style="stroke: #000000; stroke-width: 0.8"/>
      </g>
     </g>
     <g id="text_2">
      <!-- 0.25 -->
      <g transform="translate(71.004602 485.871629)scale(0.1 -0.1)">
       <defs>
        <path id="DejaVuSans-32" d="M 1228 531 
L 3431 531 
L 3431 0 
L 469 0 
L 469 531 
Q 828 903 1448 1529 
Q 2069 2156 2228 2338 
Q 2531 2678 2651 2914 
Q 2772 3150 2772 3378 
Q 2772 3750 2511 3984 
Q 2250 4219 1831 4219 
Q 1534 4219 1204 4116 
Q 875 4013 500 3803 
L 500 4441 
Q 881 4594 1212 4672 
Q 1544 4750 1819 4750 
Q 2544 4750 2975 4387 
Q 3406 4025 3406 3419 
Q 3406 3131 3298 2873 
Q 3191 2616 2906 2266 
Q 2828 2175 2409 1742 
Q 1991 1309 1228 531 
z
" transform="scale(0.015625)"/>
        <path id="DejaVuSans-35" d="M 691 4666 
L 3169 4666 
L 3169 4134 
L 1269 4134 
L 1269 2991 
Q 1406 3038 1543 3061 
Q 1681 3084 1819 3084 
Q 2600 3084 3056 2656 
Q 3513 2228 3513 1497 
Q 3513 744 3044 326 
Q 2575 -91 1722 -91 
Q 1428 -91 1123 -41 
Q 819 9 494 109 
L 494 744 
Q 775 591 1075 516 
Q 1375 441 1709 441 
Q 2250 441 2565 725 
Q 2881 1009 2881 1497 
Q 2881 1984 2565 2268 
Q 2250 2553 1709 2553 
Q 1456 2553 1204 2497 
Q 953 2441 691 2322 
L 691 4666 
z
" transform="scale(0.015625)"/>
       </defs>
       <use xlink:href="#DejaVuSans-30"/>
       <use xlink:href="#DejaVuSans-2e" x="63.623047"/>
       <use xlink:href="#DejaVuSans-32" x="95.410156"/>
       <use xlink:href="#DejaVuSans-35" x="159.033203"/>
      </g>
     </g>
    </g>
    <g id="xtick_3">
     <g id="line2d_5">
      <path d="M 120.493579 471.273191 
L 120.493579 10.999219 
" clip-path="url(#p6079686bb2)" style="fill: none; stroke-dasharray: 2.96,1.28; stroke-dashoffset: 0; stroke: #808080; stroke-width: 0.8"/>
     </g>
     <g id="line2d_6">
      <g>
       <use xlink:href="#mdf877579cd" x="120.493579" y="471.273191" style="stroke: #000000; stroke-width: 0.8"/>
      </g>
     </g>
     <g id="text_3">
      <!-- 0.50 -->
      <g transform="translate(109.360766 485.871629)scale(0.1 -0.1)">
       <use xlink:href="#DejaVuSans-30"/>
       <use xlink:href="#DejaVuSans-2e" x="63.623047"/>
       <use xlink:href="#DejaVuSans-35" x="95.410156"/>
       <use xlink:href="#DejaVuSans-30" x="159.033203"/>
      </g>
     </g>
    </g>
    <g id="xtick_4">
     <g id="line2d_7">
      <path d="M 158.849743 471.273191 
L 158.849743 10.999219 
" clip-path="url(#p6079686bb2)" style="fill: none; stroke-dasharray: 2.96,1.28; stroke-dashoffset: 0; stroke: #808080; stroke-width: 0.8"/>
     </g>
     <g id="line2d_8">
      <g>
       <use xlink:href="#mdf877579cd" x="158.849743" y="471.273191" style="stroke: #000000; stroke-width: 0.8"/>
      </g>
     </g>
     <g id="text_4">
      <!-- 0.75 -->
      <g transform="translate(147.716931 485.871629)scale(0.1 -0.1)">
       <defs>
        <path id="DejaVuSans-37" d="M 525 4666 
L 3525 4666 
L 3525 4397 
L 1831 0 
L 1172 0 
L 2766 4134 
L 525 4134 
L 525 4666 
z
" transform="scale(0.015625)"/>
       </defs>
       <use xlink:href="#DejaVuSans-30"/>
       <use xlink:href="#DejaVuSans-2e" x="63.623047"/>
       <use xlink:href="#DejaVuSans-37" x="95.410156"/>
       <use xlink:href="#DejaVuSans-35" x="159.033203"/>
      </g>
     </g>
    </g>
    <g id="text_5">
     <!-- x -->
     <g transform="translate(98.356122 499.549754)scale(0.1 -0.1)">
      <defs>
       <path id="DejaVuSans-78" d="M 3513 3500 
L 2247 1797 
L 3578 0 
L 2900 0 
L 1881 1375 
L 863 0 
L 184 0 
L 1544 1831 
L 300 3500 
L 978 3500 
L 1906 2253 
L 2834 3500 
L 3513 3500 
z
" transform="scale(0.015625)"/>
      </defs>
      <use xlink:href="#DejaVuSans-78"/>
     </g>
    </g>
   </g>
   <g id="matplotlib.axis_2">
    <g id="ytick_1">
     <g id="line2d_9">
      <path d="M 43.78125 471.273191 
L 158.849743 471.273191 
" clip-path="url(#p6079686bb2)" style="fill: none; stroke-dasharray: 2.96,1.28; stroke-dashoffset: 0; stroke: #808080; stroke-width: 0.8"/>
     </g>
     <g id="line2d_10">
      <defs>
       <path id="m1be6ff0221" d="M 0 0 
L -3.5 0 
" style="stroke: #000000; stroke-width: 0.8"/>
      </defs>
      <g>
       <use xlink:href="#m1be6ff0221" x="43.78125" y="471.273191" style="stroke: #000000; stroke-width: 0.8"/>
      </g>
     </g>
     <g id="text_6">
      <!-- 0.0 -->
      <g transform="translate(20.878125 475.07241)scale(0.1 -0.1)">
       <use xlink:href="#DejaVuSans-30"/>
       <use xlink:href="#DejaVuSans-2e" x="63.623047"/>
       <use xlink:href="#DejaVuSans-30" x="95.410156"/>
      </g>
     </g>
    </g>
    <g id="ytick_2">
     <g id="line2d_11">
      <path d="M 43.78125 394.560863 
L 158.849743 394.560863 
" clip-path="url(#p6079686bb2)" style="fill: none; stroke-dasharray: 2.96,1.28; stroke-dashoffset: 0; stroke: #808080; stroke-width: 0.8"/>
     </g>
     <g id="line2d_12">
      <g>
       <use xlink:href="#m1be6ff0221" x="43.78125" y="394.560863" style="stroke: #000000; stroke-width: 0.8"/>
      </g>
     </g>
     <g id="text_7">
      <!-- 0.5 -->
      <g transform="translate(20.878125 398.360081)scale(0.1 -0.1)">
       <use xlink:href="#DejaVuSans-30"/>
       <use xlink:href="#DejaVuSans-2e" x="63.623047"/>
       <use xlink:href="#DejaVuSans-35" x="95.410156"/>
      </g>
     </g>
    </g>
    <g id="ytick_3">
     <g id="line2d_13">
      <path d="M 43.78125 317.848534 
L 158.849743 317.848534 
" clip-path="url(#p6079686bb2)" style="fill: none; stroke-dasharray: 2.96,1.28; stroke-dashoffset: 0; stroke: #808080; stroke-width: 0.8"/>
     </g>
     <g id="line2d_14">
      <g>
       <use xlink:href="#m1be6ff0221" x="43.78125" y="317.848534" style="stroke: #000000; stroke-width: 0.8"/>
      </g>
     </g>
     <g id="text_8">
      <!-- 1.0 -->
      <g transform="translate(20.878125 321.647753)scale(0.1 -0.1)">
       <defs>
        <path id="DejaVuSans-31" d="M 794 531 
L 1825 531 
L 1825 4091 
L 703 3866 
L 703 4441 
L 1819 4666 
L 2450 4666 
L 2450 531 
L 3481 531 
L 3481 0 
L 794 0 
L 794 531 
z
" transform="scale(0.015625)"/>
       </defs>
       <use xlink:href="#DejaVuSans-31"/>
       <use xlink:href="#DejaVuSans-2e" x="63.623047"/>
       <use xlink:href="#DejaVuSans-30" x="95.410156"/>
      </g>
     </g>
    </g>
    <g id="ytick_4">
     <g id="line2d_15">
      <path d="M 43.78125 241.136205 
L 158.849743 241.136205 
" clip-path="url(#p6079686bb2)" style="fill: none; stroke-dasharray: 2.96,1.28; stroke-dashoffset: 0; stroke: #808080; stroke-width: 0.8"/>
     </g>
     <g id="line2d_16">
      <g>
       <use xlink:href="#m1be6ff0221" x="43.78125" y="241.136205" style="stroke: #000000; stroke-width: 0.8"/>
      </g>
     </g>
     <g id="text_9">
      <!-- 1.5 -->
      <g transform="translate(20.878125 244.935424)scale(0.1 -0.1)">
       <use xlink:href="#DejaVuSans-31"/>
       <use xlink:href="#DejaVuSans-2e" x="63.623047"/>
       <use xlink:href="#DejaVuSans-35" x="95.410156"/>
      </g>
     </g>
    </g>
    <g id="ytick_5">
     <g id="line2d_17">
      <path d="M 43.78125 164.423876 
L 158.849743 164.423876 
" clip-path="url(#p6079686bb2)" style="fill: none; stroke-dasharray: 2.96,1.28; stroke-dashoffset: 0; stroke: #808080; stroke-width: 0.8"/>
     </g>
     <g id="line2d_18">
      <g>
       <use xlink:href="#m1be6ff0221" x="43.78125" y="164.423876" style="stroke: #000000; stroke-width: 0.8"/>
      </g>
     </g>
     <g id="text_10">
      <!-- 2.0 -->
      <g transform="translate(20.878125 168.223095)scale(0.1 -0.1)">
       <use xlink:href="#DejaVuSans-32"/>
       <use xlink:href="#DejaVuSans-2e" x="63.623047"/>
       <use xlink:href="#DejaVuSans-30" x="95.410156"/>
      </g>
     </g>
    </g>
    <g id="ytick_6">
     <g id="line2d_19">
      <path d="M 43.78125 87.711548 
L 158.849743 87.711548 
" clip-path="url(#p6079686bb2)" style="fill: none; stroke-dasharray: 2.96,1.28; stroke-dashoffset: 0; stroke: #808080; stroke-width: 0.8"/>
     </g>
     <g id="line2d_20">
      <g>
       <use xlink:href="#m1be6ff0221" x="43.78125" y="87.711548" style="stroke: #000000; stroke-width: 0.8"/>
      </g>
     </g>
     <g id="text_11">
      <!-- 2.5 -->
      <g transform="translate(20.878125 91.510766)scale(0.1 -0.1)">
       <use xlink:href="#DejaVuSans-32"/>
       <use xlink:href="#DejaVuSans-2e" x="63.623047"/>
       <use xlink:href="#DejaVuSans-35" x="95.410156"/>
      </g>
     </g>
    </g>
    <g id="ytick_7">
     <g id="line2d_21">
      <path d="M 43.78125 10.999219 
L 158.849743 10.999219 
" clip-path="url(#p6079686bb2)" style="fill: none; stroke-dasharray: 2.96,1.28; stroke-dashoffset: 0; stroke: #808080; stroke-width: 0.8"/>
     </g>
     <g id="line2d_22">
      <g>
       <use xlink:href="#m1be6ff0221" x="43.78125" y="10.999219" style="stroke: #000000; stroke-width: 0.8"/>
      </g>
     </g>
     <g id="text_12">
      <!-- 3.0 -->
      <g transform="translate(20.878125 14.798437)scale(0.1 -0.1)">
       <defs>
        <path id="DejaVuSans-33" d="M 2597 2516 
Q 3050 2419 3304 2112 
Q 3559 1806 3559 1356 
Q 3559 666 3084 287 
Q 2609 -91 1734 -91 
Q 1441 -91 1130 -33 
Q 819 25 488 141 
L 488 750 
Q 750 597 1062 519 
Q 1375 441 1716 441 
Q 2309 441 2620 675 
Q 2931 909 2931 1356 
Q 2931 1769 2642 2001 
Q 2353 2234 1838 2234 
L 1294 2234 
L 1294 2753 
L 1863 2753 
Q 2328 2753 2575 2939 
Q 2822 3125 2822 3475 
Q 2822 3834 2567 4026 
Q 2313 4219 1838 4219 
Q 1578 4219 1281 4162 
Q 984 4106 628 3988 
L 628 4550 
Q 988 4650 1302 4700 
Q 1616 4750 1894 4750 
Q 2613 4750 3031 4423 
Q 3450 4097 3450 3541 
Q 3450 3153 3228 2886 
Q 3006 2619 2597 2516 
z
" transform="scale(0.015625)"/>
       </defs>
       <use xlink:href="#DejaVuSans-33"/>
       <use xlink:href="#DejaVuSans-2e" x="63.623047"/>
       <use xlink:href="#DejaVuSans-30" x="95.410156"/>
      </g>
     </g>
    </g>
    <g id="text_13">
     <!-- y -->
     <g transform="translate(14.798437 244.09558)rotate(-90)scale(0.1 -0.1)">
      <defs>
       <path id="DejaVuSans-79" d="M 2059 -325 
Q 1816 -950 1584 -1140 
Q 1353 -1331 966 -1331 
L 506 -1331 
L 506 -850 
L 844 -850 
Q 1081 -850 1212 -737 
Q 1344 -625 1503 -206 
L 1606 56 
L 191 3500 
L 800 3500 
L 1894 763 
L 2988 3500 
L 3597 3500 
L 2059 -325 
z
" transform="scale(0.015625)"/>
      </defs>
      <use xlink:href="#DejaVuSans-79"/>
     </g>
    </g>
   </g>
   <g id="patch_3">
    <path d="M 43.78125 471.273191 
Q 101.315497 471.273191 158.849743 471.273191 
Q 158.849743 413.738945 158.849743 356.204698 
Q 101.315497 356.204698 43.78125 356.204698 
Q 43.78125 413.738945 43.78125 471.273191 
" style="fill: #e3f3ff; stroke: #0055d4; stroke-width: 1.5; stroke-linejoin: miter"/>
   </g>
   <g id="patch_4">
    <path d="M 43.78125 356.204698 
Q 101.315497 356.204698 158.849743 356.204698 
Q 158.849743 298.670452 158.849743 241.136205 
Q 101.315497 241.136205 43.78125 241.136205 
Q 43.78125 298.670452 43.78125 356.204698 
" style="fill: #e3f3ff; stroke: #0055d4; stroke-width: 1.5; stroke-linejoin: miter"/>
   </g>
   <g id="patch_5">
    <path d="M 43.78125 241.136205 
Q 101.315497 241.136205 158.849743 241.136205 
Q 158.849743 183.601958 158.849743 126.067712 
Q 101.315497 126.067712 43.78125 126.067712 
Q 43.78125 183.601958 43.78125 241.136205 
" style="fill: #e3f3ff; stroke: #0055d4; stroke-width: 1.5; stroke-linejoin: miter"/>
   </g>
   <g id="patch_6">
    <path d="M 43.78125 126.067712 
Q 101.315497 126.067712 158.849743 126.067712 
Q 158.849743 68.533465 158.849743 10.999219 
Q 101.315497 10.999219 43.78125 10.999219 
Q 43.78125 68.533465 43.78125 126.067712 
" style="fill: #e3f3ff; stroke: #0055d4; stroke-width: 1.5; stroke-linejoin: miter"/>
   </g>
   <g id="patch_7">
    <path d="M 43.78125 471.273191 
L 43.78125 10.999219 
" style="fill: none; stroke: #000000; stroke-width: 0.8; stroke-linejoin: miter; stroke-linecap: square"/>
   </g>
   <g id="patch_8">
    <path d="M 158.849743 471.273191 
L 158.849743 10.999219 
" style="fill: none; stroke: #000000; stroke-width: 0.8; stroke-linejoin: miter; stroke-linecap: square"/>
   </g>
   <g id="patch_9">
    <path d="M 43.78125 471.273191 
L 158.849743 471.273191 
" style="fill: none; stroke: #000000; stroke-width: 0.8; stroke-linejoin: miter; stroke-linecap: square"/>
   </g>
   <g id="patch_10">
    <path d="M 43.78125 10.999219 
L 158.849743 10.999219 
" style="fill: none; stroke: #000000; stroke-width: 0.8; stroke-linejoin: miter; stroke-linecap: square"/>
   </g>
   <g id="text_14">
    <g id="patch_11">
     <path d="M 88.621278 419.444101 
L 114.009715 419.444101 
L 114.009715 408.033789 
L 88.621278 408.033789 
z
" style="fill: #ffffff; stroke: #b7b7b7; stroke-linejoin: miter"/>
    </g>
    <!-- 0 a 2 -->
    <g style="fill: #22971f" transform="translate(89.971278 416.222382)scale(0.09 -0.09)">
     <defs>
      <path id="DejaVuSans-20" transform="scale(0.015625)"/>
      <path id="DejaVuSans-61" d="M 2194 1759 
Q 1497 1759 1228 1600 
Q 959 1441 959 1056 
Q 959 750 1161 570 
Q 1363 391 1709 391 
Q 2188 391 2477 730 
Q 2766 1069 2766 1631 
L 2766 1759 
L 2194 1759 
z
M 3341 1997 
L 3341 0 
L 2766 0 
L 2766 531 
Q 2569 213 2275 61 
Q 1981 -91 1556 -91 
Q 1019 -91 701 211 
Q 384 513 384 1019 
Q 384 1609 779 1909 
Q 1175 2209 1959 2209 
L 2766 2209 
L 2766 2266 
Q 2766 2663 2505 2880 
Q 2244 3097 1772 3097 
Q 1472 3097 1187 3025 
Q 903 2953 641 2809 
L 641 3341 
Q 956 3463 1253 3523 
Q 1550 3584 1831 3584 
Q 2591 3584 2966 3190 
Q 3341 2797 3341 1997 
z
" transform="scale(0.015625)"/>
     </defs>
     <use xlink:href="#DejaVuSans-30"/>
     <use xlink:href="#DejaVuSans-20" x="63.623047"/>
     <use xlink:href="#DejaVuSans-61" x="95.410156"/>
     <use xlink:href="#DejaVuSans-20" x="156.689453"/>
     <use xlink:href="#DejaVuSans-32" x="188.476562"/>
    </g>
   </g>
   <g id="text_15">
    <g id="patch_12">
     <path d="M 88.621278 304.375608 
L 114.009715 304.375608 
L 114.009715 292.965295 
L 88.621278 292.965295 
z
" style="fill: #ffffff; stroke: #b7b7b7; stroke-linejoin: miter"/>
    </g>
    <!-- 1 a 2 -->
    <g style="fill: #22971f" transform="translate(89.971278 301.153889)scale(0.09 -0.09)">
     <use xlink:href="#DejaVuSans-31"/>
     <use xlink:href="#DejaVuSans-20" x="63.623047"/>
     <use xlink:href="#DejaVuSans-61" x="95.410156"/>
     <use xlink:href="#DejaVuSans-20" x="156.689453"/>
     <use xlink:href="#DejaVuSans-32" x="188.476562"/>
    </g>
   </g>
   <g id="text_16">
    <g id="patch_13">
     <path d="M 88.621278 189.307115 
L 114.009715 189.307115 
L 114.009715 177.896802 
L 88.621278 177.896802 
z
" style="fill: #ffffff; stroke: #b7b7b7; stroke-linejoin: miter"/>
    </g>
    <!-- 2 a 1 -->
    <g style="fill: #22971f" transform="translate(89.971278 186.085396)scale(0.09 -0.09)">
     <use xlink:href="#DejaVuSans-32"/>
     <use xlink:href="#DejaVuSans-20" x="63.623047"/>
     <use xlink:href="#DejaVuSans-61" x="95.410156"/>
     <use xlink:href="#DejaVuSans-20" x="156.689453"/>
     <use xlink:href="#DejaVuSans-31" x="188.476562"/>
    </g>
   </g>
   <g id="text_17">
    <g id="patch_14">
     <path d="M 88.621278 74.238622 
L 114.009715 74.238622 
L 114.009715 62.828309 
L 88.621278 62.828309 
z
" style="fill: #ffffff; stroke: #b7b7b7; stroke-linejoin: miter"/>
    </g>
    <!-- 3 a 1 -->
    <g style="fill: #22971f" transform="translate(89.971278 71.016903)scale(0.09 -0.09)">
     <use xlink:href="#DejaVuSans-33"/>
     <use xlink:href="#DejaVuSans-20" x="63.623047"/>
     <use xlink:href="#DejaVuSans-61" x="95.410156"/>
     <use xlink:href="#DejaVuSans-20" x="156.689453"/>
     <use xlink:href="#DejaVuSans-31" x="188.476562"/>
    </g>
   </g>
   <g id="text_18">
    <g id="patch_15">
     <path d="M 43.78125 476.344441 
C 45.126161 476.344441 46.416169 475.810102 47.367165 474.859107 
C 48.318161 473.908111 48.8525 472.618103 48.8525 471.273191 
C 48.8525 469.92828 48.318161 468.638272 47.367165 467.687276 
C 46.416169 466.73628 45.126161 466.201941 43.78125 466.201941 
C 42.436339 466.201941 41.146331 466.73628 40.195335 467.687276 
C 39.244339 468.638272 38.71 469.92828 38.71 471.273191 
C 38.71 472.618103 39.244339 473.908111 40.195335 474.859107 
C 41.146331 475.810102 42.436339 476.344441 43.78125 476.344441 
z
" style="fill: #ffffff"/>
    </g>
    <!-- 0 -->
    <g style="fill: #ff0000" transform="translate(41.23625 473.480691)scale(0.08 -0.08)">
     <use xlink:href="#DejaVuSans-30"/>
    </g>
   </g>
   <g id="text_19">
    <g id="patch_16">
     <path d="M 158.849743 476.344441 
C 160.194654 476.344441 161.484663 475.810102 162.435658 474.859107 
C 163.386654 473.908111 163.920993 472.618103 163.920993 471.273191 
C 163.920993 469.92828 163.386654 468.638272 162.435658 467.687276 
C 161.484663 466.73628 160.194654 466.201941 158.849743 466.201941 
C 157.504832 466.201941 156.214824 466.73628 155.263828 467.687276 
C 154.312832 468.638272 153.778493 469.92828 153.778493 471.273191 
C 153.778493 472.618103 154.312832 473.908111 155.263828 474.859107 
C 156.214824 475.810102 157.504832 476.344441 158.849743 476.344441 
z
" style="fill: #ffffff"/>
    </g>
    <!-- 1 -->
    <g style="fill: #ff0000" transform="translate(156.304743 473.480691)scale(0.08 -0.08)">
     <use xlink:href="#DejaVuSans-31"/>
    </g>
   </g>
   <g id="text_20">
    <g id="patch_17">
     <path d="M 43.78125 361.275948 
C 45.126161 361.275948 46.416169 360.741609 47.367165 359.790613 
C 48.318161 358.839618 48.8525 357.549609 48.8525 356.204698 
C 48.8525 354.859787 48.318161 353.569779 47.367165 352.618783 
C 46.416169 351.667787 45.126161 351.133448 43.78125 351.133448 
C 42.436339 351.133448 41.146331 351.667787 40.195335 352.618783 
C 39.244339 353.569779 38.71 354.859787 38.71 356.204698 
C 38.71 357.549609 39.244339 358.839618 40.195335 359.790613 
C 41.146331 360.741609 42.436339 361.275948 43.78125 361.275948 
z
" style="fill: #ffffff"/>
    </g>
    <!-- 2 -->
    <g style="fill: #ff0000" transform="translate(41.23625 358.412198)scale(0.08 -0.08)">
     <use xlink:href="#DejaVuSans-32"/>
    </g>
   </g>
   <g id="text_21">
    <g id="patch_18">
     <path d="M 158.849743 361.275948 
C 160.194654 361.275948 161.484663 360.741609 162.435658 359.790613 
C 163.386654 358.839618 163.920993 357.549609 163.920993 356.204698 
C 163.920993 354.859787 163.386654 353.569779 162.435658 352.618783 
C 161.484663 351.667787 160.194654 351.133448 158.849743 351.133448 
C 157.504832 351.133448 156.214824 351.667787 155.263828 352.618783 
C 154.312832 353.569779 153.778493 354.859787 153.778493 356.204698 
C 153.778493 357.549609 154.312832 358.839618 155.263828 359.790613 
C 156.214824 360.741609 157.504832 361.275948 158.849743 361.275948 
z
" style="fill: #ffffff"/>
    </g>
    <!-- 3 -->
    <g style="fill: #ff0000" transform="translate(156.304743 358.412198)scale(0.08 -0.08)">
     <use xlink:href="#DejaVuSans-33"/>
    </g>
   </g>
   <g id="text_22">
    <g id="patch_19">
     <path d="M 43.78125 246.207455 
C 45.126161 246.207455 46.416169 245.673116 47.367165 244.72212 
C 48.318161 243.771124 48.8525 242.481116 48.8525 241.136205 
C 48.8525 239.791294 48.318161 238.501286 47.367165 237.55029 
C 46.416169 236.599294 45.126161 236.064955 43.78125 236.064955 
C 42.436339 236.064955 41.146331 236.599294 40.195335 237.55029 
C 39.244339 238.501286 38.71 239.791294 38.71 241.136205 
C 38.71 242.481116 39.244339 243.771124 40.195335 244.72212 
C 41.146331 245.673116 42.436339 246.207455 43.78125 246.207455 
z
" style="fill: #ffffff"/>
    </g>
    <!-- 4 -->
    <g style="fill: #ff0000" transform="translate(41.23625 243.343705)scale(0.08 -0.08)">
     <defs>
      <path id="DejaVuSans-34" d="M 2419 4116 
L 825 1625 
L 2419 1625 
L 2419 4116 
z
M 2253 4666 
L 3047 4666 
L 3047 1625 
L 3713 1625 
L 3713 1100 
L 3047 1100 
L 3047 0 
L 2419 0 
L 2419 1100 
L 313 1100 
L 313 1709 
L 2253 4666 
z
" transform="scale(0.015625)"/>
     </defs>
     <use xlink:href="#DejaVuSans-34"/>
    </g>
   </g>
   <g id="text_23">
    <g id="patch_20">
     <path d="M 158.849743 246.207455 
C 160.194654 246.207455 161.484663 245.673116 162.435658 244.72212 
C 163.386654 243.771124 163.920993 242.481116 163.920993 241.136205 
C 163.920993 239.791294 163.386654 238.501286 162.435658 237.55029 
C 161.484663 236.599294 160.194654 236.064955 158.849743 236.064955 
C 157.504832 236.064955 156.214824 236.599294 155.263828 237.55029 
C 154.312832 238.501286 153.778493 239.791294 153.778493 241.136205 
C 153.778493 242.481116 154.312832 243.771124 155.263828 244.72212 
C 156.214824 245.673116 157.504832 246.207455 158.849743 246.207455 
z
" style="fill: #ffffff"/>
    </g>
    <!-- 5 -->
    <g style="fill: #ff0000" transform="translate(156.304743 243.343705)scale(0.08 -0.08)">
     <use xlink:href="#DejaVuSans-35"/>
    </g>
   </g>
   <g id="text_24">
    <g id="patch_21">
     <path d="M 43.78125 131.138962 
C 45.126161 131.138962 46.416169 130.604623 47.367165 129.653627 
C 48.318161 128.702631 48.8525 127.412623 48.8525 126.067712 
C 48.8525 124.722801 48.318161 123.432792 47.367165 122.481797 
C 46.416169 121.530801 45.126161 120.996462 43.78125 120.996462 
C 42.436339 120.996462 41.146331 121.530801 40.195335 122.481797 
C 39.244339 123.432792 38.71 124.722801 38.71 126.067712 
C 38.71 127.412623 39.244339 128.702631 40.195335 129.653627 
C 41.146331 130.604623 42.436339 131.138962 43.78125 131.138962 
z
" style="fill: #ffffff"/>
    </g>
    <!-- 6 -->
    <g style="fill: #ff0000" transform="translate(41.23625 128.275212)scale(0.08 -0.08)">
     <defs>
      <path id="DejaVuSans-36" d="M 2113 2584 
Q 1688 2584 1439 2293 
Q 1191 2003 1191 1497 
Q 1191 994 1439 701 
Q 1688 409 2113 409 
Q 2538 409 2786 701 
Q 3034 994 3034 1497 
Q 3034 2003 2786 2293 
Q 2538 2584 2113 2584 
z
M 3366 4563 
L 3366 3988 
Q 3128 4100 2886 4159 
Q 2644 4219 2406 4219 
Q 1781 4219 1451 3797 
Q 1122 3375 1075 2522 
Q 1259 2794 1537 2939 
Q 1816 3084 2150 3084 
Q 2853 3084 3261 2657 
Q 3669 2231 3669 1497 
Q 3669 778 3244 343 
Q 2819 -91 2113 -91 
Q 1303 -91 875 529 
Q 447 1150 447 2328 
Q 447 3434 972 4092 
Q 1497 4750 2381 4750 
Q 2619 4750 2861 4703 
Q 3103 4656 3366 4563 
z
" transform="scale(0.015625)"/>
     </defs>
     <use xlink:href="#DejaVuSans-36"/>
    </g>
   </g>
   <g id="text_25">
    <g id="patch_22">
     <path d="M 158.849743 131.138962 
C 160.194654 131.138962 161.484663 130.604623 162.435658 129.653627 
C 163.386654 128.702631 163.920993 127.412623 163.920993 126.067712 
C 163.920993 124.722801 163.386654 123.432792 162.435658 122.481797 
C 161.484663 121.530801 160.194654 120.996462 158.849743 120.996462 
C 157.504832 120.996462 156.214824 121.530801 155.263828 122.481797 
C 154.312832 123.432792 153.778493 124.722801 153.778493 126.067712 
C 153.778493 127.412623 154.312832 128.702631 155.263828 129.653627 
C 156.214824 130.604623 157.504832 131.138962 158.849743 131.138962 
z
" style="fill: #ffffff"/>
    </g>
    <!-- 7 -->
    <g style="fill: #ff0000" transform="translate(156.304743 128.275212)scale(0.08 -0.08)">
     <use xlink:href="#DejaVuSans-37"/>
    </g>
   </g>
   <g id="text_26">
    <g id="patch_23">
     <path d="M 43.78125 16.070469 
C 45.126161 16.070469 46.416169 15.53613 47.367165 14.585134 
C 48.318161 13.634138 48.8525 12.34413 48.8525 10.999219 
C 48.8525 9.654308 48.318161 8.364299 47.367165 7.413303 
C 46.416169 6.462308 45.126161 5.927969 43.78125 5.927969 
C 42.436339 5.927969 41.146331 6.462308 40.195335 7.413303 
C 39.244339 8.364299 38.71 9.654308 38.71 10.999219 
C 38.71 12.34413 39.244339 13.634138 40.195335 14.585134 
C 41.146331 15.53613 42.436339 16.070469 43.78125 16.070469 
z
" style="fill: #ffffff"/>
    </g>
    <!-- 8 -->
    <g style="fill: #ff0000" transform="translate(41.23625 13.206719)scale(0.08 -0.08)">
     <defs>
      <path id="DejaVuSans-38" d="M 2034 2216 
Q 1584 2216 1326 1975 
Q 1069 1734 1069 1313 
Q 1069 891 1326 650 
Q 1584 409 2034 409 
Q 2484 409 2743 651 
Q 3003 894 3003 1313 
Q 3003 1734 2745 1975 
Q 2488 2216 2034 2216 
z
M 1403 2484 
Q 997 2584 770 2862 
Q 544 3141 544 3541 
Q 544 4100 942 4425 
Q 1341 4750 2034 4750 
Q 2731 4750 3128 4425 
Q 3525 4100 3525 3541 
Q 3525 3141 3298 2862 
Q 3072 2584 2669 2484 
Q 3125 2378 3379 2068 
Q 3634 1759 3634 1313 
Q 3634 634 3220 271 
Q 2806 -91 2034 -91 
Q 1263 -91 848 271 
Q 434 634 434 1313 
Q 434 1759 690 2068 
Q 947 2378 1403 2484 
z
M 1172 3481 
Q 1172 3119 1398 2916 
Q 1625 2713 2034 2713 
Q 2441 2713 2670 2916 
Q 2900 3119 2900 3481 
Q 2900 3844 2670 4047 
Q 2441 4250 2034 4250 
Q 1625 4250 1398 4047 
Q 1172 3844 1172 3481 
z
" transform="scale(0.015625)"/>
     </defs>
     <use xlink:href="#DejaVuSans-38"/>
    </g>
   </g>
   <g id="text_27">
    <g id="patch_24">
     <path d="M 158.849743 16.070469 
C 160.194654 16.070469 161.484663 15.53613 162.435658 14.585134 
C 163.386654 13.634138 163.920993 12.34413 163.920993 10.999219 
C 163.920993 9.654308 163.386654 8.364299 162.435658 7.413303 
C 161.484663 6.462308 160.194654 5.927969 158.849743 5.927969 
C 157.504832 5.927969 156.214824 6.462308 155.263828 7.413303 
C 154.312832 8.364299 153.778493 9.654308 153.778493 10.999219 
C 153.778493 12.34413 154.312832 13.634138 155.263828 14.585134 
C 156.214824 15.53613 157.504832 16.070469 158.849743 16.070469 
z
" style="fill: #ffffff"/>
    </g>
    <!-- 9 -->
    <g style="fill: #ff0000" transform="translate(156.304743 13.206719)scale(0.08 -0.08)">
     <defs>
      <path id="DejaVuSans-39" d="M 703 97 
L 703 672 
Q 941 559 1184 500 
Q 1428 441 1663 441 
Q 2288 441 2617 861 
Q 2947 1281 2994 2138 
Q 2813 1869 2534 1725 
Q 2256 1581 1919 1581 
Q 1219 1581 811 2004 
Q 403 2428 403 3163 
Q 403 3881 828 4315 
Q 1253 4750 1959 4750 
Q 2769 4750 3195 4129 
Q 3622 3509 3622 2328 
Q 3622 1225 3098 567 
Q 2575 -91 1691 -91 
Q 1453 -91 1209 -44 
Q 966 3 703 97 
z
M 1959 2075 
Q 2384 2075 2632 2365 
Q 2881 2656 2881 3163 
Q 2881 3666 2632 3958 
Q 2384 4250 1959 4250 
Q 1534 4250 1286 3958 
Q 1038 3666 1038 3163 
Q 1038 2656 1286 2365 
Q 1534 2075 1959 2075 
z
" transform="scale(0.015625)"/>
     </defs>
     <use xlink:href="#DejaVuSans-39"/>
    </g>
   </g>
   <g id="text_28">
    <g id="patch_25">
     <path d="M 101.315497 477.563191 
C 102.983624 477.563191 104.583654 476.900437 105.763198 475.720893 
C 106.942742 474.541349 107.605497 472.941319 107.605497 471.273191 
C 107.605497 469.605064 106.942742 468.005034 105.763198 466.82549 
C 104.583654 465.645945 102.983624 464.983191 101.315497 464.983191 
C 99.647369 464.983191 98.047339 465.645945 96.867795 466.82549 
C 95.688251 468.005034 95.025497 469.605064 95.025497 471.273191 
C 95.025497 472.941319 95.688251 474.541349 96.867795 475.720893 
C 98.047339 476.900437 99.647369 477.563191 101.315497 477.563191 
z
" style="fill: #ffffff"/>
    </g>
    <!-- 10 -->
    <g style="fill: #ff0000" transform="translate(96.225497 473.480691)scale(0.08 -0.08)">
     <use xlink:href="#DejaVuSans-31"/>
     <use xlink:href="#DejaVuSans-30" x="63.623047"/>
    </g>
   </g>
   <g id="text_29">
    <g id="patch_26">
     <path d="M 101.315497 362.494698 
C 102.983624 362.494698 104.583654 361.831944 105.763198 360.6524 
C 106.942742 359.472856 107.605497 357.872826 107.605497 356.204698 
C 107.605497 354.536571 106.942742 352.936541 105.763198 351.756997 
C 104.583654 350.577452 102.983624 349.914698 101.315497 349.914698 
C 99.647369 349.914698 98.047339 350.577452 96.867795 351.756997 
C 95.688251 352.936541 95.025497 354.536571 95.025497 356.204698 
C 95.025497 357.872826 95.688251 359.472856 96.867795 360.6524 
C 98.047339 361.831944 99.647369 362.494698 101.315497 362.494698 
z
" style="fill: #ffffff"/>
    </g>
    <!-- 11 -->
    <g style="fill: #ff0000" transform="translate(96.225497 358.412198)scale(0.08 -0.08)">
     <use xlink:href="#DejaVuSans-31"/>
     <use xlink:href="#DejaVuSans-31" x="63.623047"/>
    </g>
   </g>
   <g id="text_30">
    <g id="patch_27">
     <path d="M 101.315497 247.426205 
C 102.983624 247.426205 104.583654 246.763451 105.763198 245.583907 
C 106.942742 244.404362 107.605497 242.804333 107.605497 241.136205 
C 107.605497 239.468078 106.942742 237.868048 105.763198 236.688503 
C 104.583654 235.508959 102.983624 234.846205 101.315497 234.846205 
C 99.647369 234.846205 98.047339 235.508959 96.867795 236.688503 
C 95.688251 237.868048 95.025497 239.468078 95.025497 241.136205 
C 95.025497 242.804333 95.688251 244.404362 96.867795 245.583907 
C 98.047339 246.763451 99.647369 247.426205 101.315497 247.426205 
z
" style="fill: #ffffff"/>
    </g>
    <!-- 12 -->
    <g style="fill: #ff0000" transform="translate(96.225497 243.343705)scale(0.08 -0.08)">
     <use xlink:href="#DejaVuSans-31"/>
     <use xlink:href="#DejaVuSans-32" x="63.623047"/>
    </g>
   </g>
   <g id="text_31">
    <g id="patch_28">
     <path d="M 101.315497 132.357712 
C 102.983624 132.357712 104.583654 131.694958 105.763198 130.515414 
C 106.942742 129.335869 107.605497 127.735839 107.605497 126.067712 
C 107.605497 124.399584 106.942742 122.799555 105.763198 121.62001 
C 104.583654 120.440466 102.983624 119.777712 101.315497 119.777712 
C 99.647369 119.777712 98.047339 120.440466 96.867795 121.62001 
C 95.688251 122.799555 95.025497 124.399584 95.025497 126.067712 
C 95.025497 127.735839 95.688251 129.335869 96.867795 130.515414 
C 98.047339 131.694958 99.647369 132.357712 101.315497 132.357712 
z
" style="fill: #ffffff"/>
    </g>
    <!-- 13 -->
    <g style="fill: #ff0000" transform="translate(96.225497 128.275212)scale(0.08 -0.08)">
     <use xlink:href="#DejaVuSans-31"/>
     <use xlink:href="#DejaVuSans-33" x="63.623047"/>
    </g>
   </g>
   <g id="text_32">
    <g id="patch_29">
     <path d="M 101.315497 17.289219 
C 102.983624 17.289219 104.583654 16.626465 105.763198 15.44692 
C 106.942742 14.267376 107.605497 12.667346 107.605497 10.999219 
C 107.605497 9.331091 106.942742 7.731061 105.763198 6.551517 
C 104.583654 5.371973 102.983624 4.709219 101.315497 4.709219 
C 99.647369 4.709219 98.047339 5.371973 96.867795 6.551517 
C 95.688251 7.731061 95.025497 9.331091 95.025497 10.999219 
C 95.025497 12.667346 95.688251 14.267376 96.867795 15.44692 
C 98.047339 16.626465 99.647369 17.289219 101.315497 17.289219 
z
" style="fill: #ffffff"/>
    </g>
    <!-- 14 -->
    <g style="fill: #ff0000" transform="translate(96.225497 13.206719)scale(0.08 -0.08)">
     <use xlink:href="#DejaVuSans-31"/>
     <use xlink:href="#DejaVuSans-34" x="63.623047"/>
    </g>
   </g>
   <g id="text_33">
    <g id="patch_30">
     <path d="M 43.78125 420.028945 
C 45.449377 420.028945 47.049407 419.366191 48.228952 418.186646 
C 49.408496 417.007102 50.07125 415.407072 50.07125 413.738945 
C 50.07125 412.070817 49.408496 410.470787 48.228952 409.291243 
C 47.049407 408.111699 45.449377 407.448945 43.78125 407.448945 
C 42.113123 407.448945 40.513093 408.111699 39.333548 409.291243 
C 38.154004 410.470787 37.49125 412.070817 37.49125 413.738945 
C 37.49125 415.407072 38.154004 417.007102 39.333548 418.186646 
C 40.513093 419.366191 42.113123 420.028945 43.78125 420.028945 
z
" style="fill: #ffffff"/>
    </g>
    <!-- 15 -->
    <g style="fill: #ff0000" transform="translate(38.69125 415.946445)scale(0.08 -0.08)">
     <use xlink:href="#DejaVuSans-31"/>
     <use xlink:href="#DejaVuSans-35" x="63.623047"/>
    </g>
   </g>
   <g id="text_34">
    <g id="patch_31">
     <path d="M 158.849743 420.028945 
C 160.517871 420.028945 162.117901 419.366191 163.297445 418.186646 
C 164.476989 417.007102 165.139743 415.407072 165.139743 413.738945 
C 165.139743 412.070817 164.476989 410.470787 163.297445 409.291243 
C 162.117901 408.111699 160.517871 407.448945 158.849743 407.448945 
C 157.181616 407.448945 155.581586 408.111699 154.402041 409.291243 
C 153.222497 410.470787 152.559743 412.070817 152.559743 413.738945 
C 152.559743 415.407072 153.222497 417.007102 154.402041 418.186646 
C 155.581586 419.366191 157.181616 420.028945 158.849743 420.028945 
z
" style="fill: #ffffff"/>
    </g>
    <!-- 16 -->
    <g style="fill: #ff0000" transform="translate(153.759743 415.946445)scale(0.08 -0.08)">
     <use xlink:href="#DejaVuSans-31"/>
     <use xlink:href="#DejaVuSans-36" x="63.623047"/>
    </g>
   </g>
   <g id="text_35">
    <g id="patch_32">
     <path d="M 43.78125 304.960452 
C 45.449377 304.960452 47.049407 304.297698 48.228952 303.118153 
C 49.408496 301.938609 50.07125 300.338579 50.07125 298.670452 
C 50.07125 297.002324 49.408496 295.402294 48.228952 294.22275 
C 47.049407 293.043206 45.449377 292.380452 43.78125 292.380452 
C 42.113123 292.380452 40.513093 293.043206 39.333548 294.22275 
C 38.154004 295.402294 37.49125 297.002324 37.49125 298.670452 
C 37.49125 300.338579 38.154004 301.938609 39.333548 303.118153 
C 40.513093 304.297698 42.113123 304.960452 43.78125 304.960452 
z
" style="fill: #ffffff"/>
    </g>
    <!-- 17 -->
    <g style="fill: #ff0000" transform="translate(38.69125 300.877952)scale(0.08 -0.08)">
     <use xlink:href="#DejaVuSans-31"/>
     <use xlink:href="#DejaVuSans-37" x="63.623047"/>
    </g>
   </g>
   <g id="text_36">
    <g id="patch_33">
     <path d="M 158.849743 304.960452 
C 160.517871 304.960452 162.117901 304.297698 163.297445 303.118153 
C 164.476989 301.938609 165.139743 300.338579 165.139743 298.670452 
C 165.139743 297.002324 164.476989 295.402294 163.297445 294.22275 
C 162.117901 293.043206 160.517871 292.380452 158.849743 292.380452 
C 157.181616 292.380452 155.581586 293.043206 154.402041 294.22275 
C 153.222497 295.402294 152.559743 297.002324 152.559743 298.670452 
C 152.559743 300.338579 153.222497 301.938609 154.402041 303.118153 
C 155.581586 304.297698 157.181616 304.960452 158.849743 304.960452 
z
" style="fill: #ffffff"/>
    </g>
    <!-- 18 -->
    <g style="fill: #ff0000" transform="translate(153.759743 300.877952)scale(0.08 -0.08)">
     <use xlink:href="#DejaVuSans-31"/>
     <use xlink:href="#DejaVuSans-38" x="63.623047"/>
    </g>
   </g>
   <g id="text_37">
    <g id="patch_34">
     <path d="M 43.78125 189.891958 
C 45.449377 189.891958 47.049407 189.229204 48.228952 188.04966 
C 49.408496 186.870116 50.07125 185.270086 50.07125 183.601958 
C 50.07125 181.933831 49.408496 180.333801 48.228952 179.154257 
C 47.049407 177.974713 45.449377 177.311958 43.78125 177.311958 
C 42.113123 177.311958 40.513093 177.974713 39.333548 179.154257 
C 38.154004 180.333801 37.49125 181.933831 37.49125 183.601958 
C 37.49125 185.270086 38.154004 186.870116 39.333548 188.04966 
C 40.513093 189.229204 42.113123 189.891958 43.78125 189.891958 
z
" style="fill: #ffffff"/>
    </g>
    <!-- 19 -->
    <g style="fill: #ff0000" transform="translate(38.69125 185.809458)scale(0.08 -0.08)">
     <use xlink:href="#DejaVuSans-31"/>
     <use xlink:href="#DejaVuSans-39" x="63.623047"/>
    </g>
   </g>
   <g id="text_38">
    <g id="patch_35">
     <path d="M 158.849743 189.891958 
C 160.517871 189.891958 162.117901 189.229204 163.297445 188.04966 
C 164.476989 186.870116 165.139743 185.270086 165.139743 183.601958 
C 165.139743 181.933831 164.476989 180.333801 163.297445 179.154257 
C 162.117901 177.974713 160.517871 177.311958 158.849743 177.311958 
C 157.181616 177.311958 155.581586 177.974713 154.402041 179.154257 
C 153.222497 180.333801 152.559743 181.933831 152.559743 183.601958 
C 152.559743 185.270086 153.222497 186.870116 154.402041 188.04966 
C 155.581586 189.229204 157.181616 189.891958 158.849743 189.891958 
z
" style="fill: #ffffff"/>
    </g>
    <!-- 20 -->
    <g style="fill: #ff0000" transform="translate(153.759743 185.809458)scale(0.08 -0.08)">
     <use xlink:href="#DejaVuSans-32"/>
     <use xlink:href="#DejaVuSans-30" x="63.623047"/>
    </g>
   </g>
   <g id="text_39">
    <g id="patch_36">
     <path d="M 43.78125 74.823465 
C 45.449377 74.823465 47.049407 74.160711 48.228952 72.981167 
C 49.408496 71.801623 50.07125 70.201593 50.07125 68.533465 
C 50.07125 66.865338 49.408496 65.265308 48.228952 64.085764 
C 47.049407 62.906219 45.449377 62.243465 43.78125 62.243465 
C 42.113123 62.243465 40.513093 62.906219 39.333548 64.085764 
C 38.154004 65.265308 37.49125 66.865338 37.49125 68.533465 
C 37.49125 70.201593 38.154004 71.801623 39.333548 72.981167 
C 40.513093 74.160711 42.113123 74.823465 43.78125 74.823465 
z
" style="fill: #ffffff"/>
    </g>
    <!-- 21 -->
    <g style="fill: #ff0000" transform="translate(38.69125 70.740965)scale(0.08 -0.08)">
     <use xlink:href="#DejaVuSans-32"/>
     <use xlink:href="#DejaVuSans-31" x="63.623047"/>
    </g>
   </g>
   <g id="text_40">
    <g id="patch_37">
     <path d="M 158.849743 74.823465 
C 160.517871 74.823465 162.117901 74.160711 163.297445 72.981167 
C 164.476989 71.801623 165.139743 70.201593 165.139743 68.533465 
C 165.139743 66.865338 164.476989 65.265308 163.297445 64.085764 
C 162.117901 62.906219 160.517871 62.243465 158.849743 62.243465 
C 157.181616 62.243465 155.581586 62.906219 154.402041 64.085764 
C 153.222497 65.265308 152.559743 66.865338 152.559743 68.533465 
C 152.559743 70.201593 153.222497 71.801623 154.402041 72.981167 
C 155.581586 74.160711 157.181616 74.823465 158.849743 74.823465 
z
" style="fill: #ffffff"/>
    </g>
    <!-- 22 -->
    <g style="fill: #ff0000" transform="translate(153.759743 70.740965)scale(0.08 -0.08)">
     <use xlink:href="#DejaVuSans-32"/>
     <use xlink:href="#DejaVuSans-32" x="63.623047"/>
    </g>
   </g>
   <g id="text_41">
    <g id="patch_38">
     <path d="M 101.315497 420.028945 
C 102.983624 420.028945 104.583654 419.366191 105.763198 418.186646 
C 106.942742 417.007102 107.605497 415.407072 107.605497 413.738945 
C 107.605497 412.070817 106.942742 410.470787 105.763198 409.291243 
C 104.583654 408.111699 102.983624 407.448945 101.315497 407.448945 
C 99.647369 407.448945 98.047339 408.111699 96.867795 409.291243 
C 95.688251 410.470787 95.025497 412.070817 95.025497 413.738945 
C 95.025497 415.407072 95.688251 417.007102 96.867795 418.186646 
C 98.047339 419.366191 99.647369 420.028945 101.315497 420.028945 
z
" style="fill: #ffffff"/>
    </g>
    <!-- 23 -->
    <g style="fill: #ff0000" transform="translate(96.225497 415.946445)scale(0.08 -0.08)">
     <use xlink:href="#DejaVuSans-32"/>
     <use xlink:href="#DejaVuSans-33" x="63.623047"/>
    </g>
   </g>
   <g id="text_42">
    <g id="patch_39">
     <path d="M 101.315497 304.960452 
C 102.983624 304.960452 104.583654 304.297698 105.763198 303.118153 
C 106.942742 301.938609 107.605497 300.338579 107.605497 298.670452 
C 107.605497 297.002324 106.942742 295.402294 105.763198 294.22275 
C 104.583654 293.043206 102.983624 292.380452 101.315497 292.380452 
C 99.647369 292.380452 98.047339 293.043206 96.867795 294.22275 
C 95.688251 295.402294 95.025497 297.002324 95.025497 298.670452 
C 95.025497 300.338579 95.688251 301.938609 96.867795 303.118153 
C 98.047339 304.297698 99.647369 304.960452 101.315497 304.960452 
z
" style="fill: #ffffff"/>
    </g>
    <!-- 24 -->
    <g style="fill: #ff0000" transform="translate(96.225497 300.877952)scale(0.08 -0.08)">
     <use xlink:href="#DejaVuSans-32"/>
     <use xlink:href="#DejaVuSans-34" x="63.623047"/>
    </g>
   </g>
   <g id="text_43">
    <g id="patch_40">
     <path d="M 101.315497 189.891958 
C 102.983624 189.891958 104.583654 189.229204 105.763198 188.04966 
C 106.942742 186.870116 107.605497 185.270086 107.605497 183.601958 
C 107.605497 181.933831 106.942742 180.333801 105.763198 179.154257 
C 104.583654 177.974713 102.983624 177.311958 101.315497 177.311958 
C 99.647369 177.311958 98.047339 177.974713 96.867795 179.154257 
C 95.688251 180.333801 95.025497 181.933831 95.025497 183.601958 
C 95.025497 185.270086 95.688251 186.870116 96.867795 188.04966 
C 98.047339 189.229204 99.647369 189.891958 101.315497 189.891958 
z
" style="fill: #ffffff"/>
    </g>
    <!-- 25 -->
    <g style="fill: #ff0000" transform="translate(96.225497 185.809458)scale(0.08 -0.08)">
     <use xlink:href="#DejaVuSans-32"/>
     <use xlink:href="#DejaVuSans-35" x="63.623047"/>
    </g>
   </g>
   <g id="text_44">
    <g id="patch_41">
     <path d="M 101.315497 74.823465 
C 102.983624 74.823465 104.583654 74.160711 105.763198 72.981167 
C 106.942742 71.801623 107.605497 70.201593 107.605497 68.533465 
C 107.605497 66.865338 106.942742 65.265308 105.763198 64.085764 
C 104.583654 62.906219 102.983624 62.243465 101.315497 62.243465 
C 99.647369 62.243465 98.047339 62.906219 96.867795 64.085764 
C 95.688251 65.265308 95.025497 66.865338 95.025497 68.533465 
C 95.025497 70.201593 95.688251 71.801623 96.867795 72.981167 
C 98.047339 74.160711 99.647369 74.823465 101.315497 74.823465 
z
" style="fill: #ffffff"/>
    </g>
    <!-- 26 -->
    <g style="fill: #ff0000" transform="translate(96.225497 70.740965)scale(0.08 -0.08)">
     <use xlink:href="#DejaVuSans-32"/>
     <use xlink:href="#DejaVuSans-36" x="63.623047"/>
    </g>
   </g>
  </g>
 </g>
 <defs>
  <clipPath id="p6079686bb2">
   <rect x="43.78125" y="10.999219" width="115.068493" height="460.273973"/>
  </clipPath>
 </defs>
</svg>
