<?xml version="1.0" encoding="utf-8" standalone="no"?>
<!DOCTYPE svg PUBLIC "-//W3C//DTD SVG 1.1//EN"
  "http://www.w3.org/Graphics/SVG/1.1/DTD/svg11.dtd">
<svg xmlns:xlink="http://www.w3.org/1999/xlink" width="504.70339pt" height="103.716965pt" viewBox="0 0 504.70339 103.716965" xmlns="http://www.w3.org/2000/svg" version="1.1">
 <metadata>
  <rdf:RDF xmlns:dc="http://purl.org/dc/elements/1.1/" xmlns:cc="http://creativecommons.org/ns#" xmlns:rdf="http://www.w3.org/1999/02/22-rdf-syntax-ns#">
   <cc:Work>
    <dc:type rdf:resource="http://purl.org/dc/dcmitype/StillImage"/>
    <dc:date>2025-02-10T13:35:52.624630</dc:date>
    <dc:format>image/svg+xml</dc:format>
    <dc:creator>
     <cc:Agent>
      <dc:title>Matplotlib v3.6.3, https://matplotlib.org/</dc:title>
     </cc:Agent>
    </dc:creator>
   </cc:Work>
  </rdf:RDF>
 </metadata>
 <defs>
  <style type="text/css">*{stroke-linejoin: round; stroke-linecap: butt}</style>
 </defs>
 <g id="figure_1">
  <g id="patch_1">
   <path d="M 0 103.716965 
L 504.70339 103.716965 
L 504.70339 0 
L 0 0 
z
" style="fill: #ffffff"/>
  </g>
  <g id="axes_1">
   <g id="patch_2">
    <path d="M 34.240625 66.160715 
L 497.50339 66.160715 
L 497.50339 7.2 
L 34.240625 7.2 
z
" style="fill: #ffffff"/>
   </g>
   <g id="matplotlib.axis_1">
    <g id="xtick_1">
     <g id="line2d_1">
      <path d="M 55.298023 66.160715 
L 55.298023 7.2 
" clip-path="url(#p99d8ca92b1)" style="fill: none; stroke-dasharray: 2.96,1.28; stroke-dashoffset: 0; stroke: #808080; stroke-width: 0.8"/>
     </g>
     <g id="line2d_2">
      <defs>
       <path id="m51c1d8da4d" d="M 0 0 
L 0 3.5 
" style="stroke: #000000; stroke-width: 0.8"/>
      </defs>
      <g>
       <use xlink:href="#m51c1d8da4d" x="55.298023" y="66.160715" style="stroke: #000000; stroke-width: 0.8"/>
      </g>
     </g>
     <g id="text_1">
      <!-- 0 -->
      <g transform="translate(52.116773 80.759153) scale(0.1 -0.1)">
       <defs>
        <path id="DejaVuSans-30" d="M 2034 4250 
Q 1547 4250 1301 3770 
Q 1056 3291 1056 2328 
Q 1056 1369 1301 889 
Q 1547 409 2034 409 
Q 2525 409 2770 889 
Q 3016 1369 3016 2328 
Q 3016 3291 2770 3770 
Q 2525 4250 2034 4250 
z
M 2034 4750 
Q 2819 4750 3233 4129 
Q 3647 3509 3647 2328 
Q 3647 1150 3233 529 
Q 2819 -91 2034 -91 
Q 1250 -91 836 529 
Q 422 1150 422 2328 
Q 422 3509 836 4129 
Q 1250 4750 2034 4750 
z
" transform="scale(0.015625)"/>
       </defs>
       <use xlink:href="#DejaVuSans-30"/>
      </g>
     </g>
    </g>
    <g id="xtick_2">
     <g id="line2d_3">
      <path d="M 139.527617 66.160715 
L 139.527617 7.2 
" clip-path="url(#p99d8ca92b1)" style="fill: none; stroke-dasharray: 2.96,1.28; stroke-dashoffset: 0; stroke: #808080; stroke-width: 0.8"/>
     </g>
     <g id="line2d_4">
      <g>
       <use xlink:href="#m51c1d8da4d" x="139.527617" y="66.160715" style="stroke: #000000; stroke-width: 0.8"/>
      </g>
     </g>
     <g id="text_2">
      <!-- 2 -->
      <g transform="translate(136.346367 80.759153) scale(0.1 -0.1)">
       <defs>
        <path id="DejaVuSans-32" d="M 1228 531 
L 3431 531 
L 3431 0 
L 469 0 
L 469 531 
Q 828 903 1448 1529 
Q 2069 2156 2228 2338 
Q 2531 2678 2651 2914 
Q 2772 3150 2772 3378 
Q 2772 3750 2511 3984 
Q 2250 4219 1831 4219 
Q 1534 4219 1204 4116 
Q 875 4013 500 3803 
L 500 4441 
Q 881 4594 1212 4672 
Q 1544 4750 1819 4750 
Q 2544 4750 2975 4387 
Q 3406 4025 3406 3419 
Q 3406 3131 3298 2873 
Q 3191 2616 2906 2266 
Q 2828 2175 2409 1742 
Q 1991 1309 1228 531 
z
" transform="scale(0.015625)"/>
       </defs>
       <use xlink:href="#DejaVuSans-32"/>
      </g>
     </g>
    </g>
    <g id="xtick_3">
     <g id="line2d_5">
      <path d="M 223.757211 66.160715 
L 223.757211 7.2 
" clip-path="url(#p99d8ca92b1)" style="fill: none; stroke-dasharray: 2.96,1.28; stroke-dashoffset: 0; stroke: #808080; stroke-width: 0.8"/>
     </g>
     <g id="line2d_6">
      <g>
       <use xlink:href="#m51c1d8da4d" x="223.757211" y="66.160715" style="stroke: #000000; stroke-width: 0.8"/>
      </g>
     </g>
     <g id="text_3">
      <!-- 4 -->
      <g transform="translate(220.575961 80.759153) scale(0.1 -0.1)">
       <defs>
        <path id="DejaVuSans-34" d="M 2419 4116 
L 825 1625 
L 2419 1625 
L 2419 4116 
z
M 2253 4666 
L 3047 4666 
L 3047 1625 
L 3713 1625 
L 3713 1100 
L 3047 1100 
L 3047 0 
L 2419 0 
L 2419 1100 
L 313 1100 
L 313 1709 
L 2253 4666 
z
" transform="scale(0.015625)"/>
       </defs>
       <use xlink:href="#DejaVuSans-34"/>
      </g>
     </g>
    </g>
    <g id="xtick_4">
     <g id="line2d_7">
      <path d="M 307.986804 66.160715 
L 307.986804 7.2 
" clip-path="url(#p99d8ca92b1)" style="fill: none; stroke-dasharray: 2.96,1.28; stroke-dashoffset: 0; stroke: #808080; stroke-width: 0.8"/>
     </g>
     <g id="line2d_8">
      <g>
       <use xlink:href="#m51c1d8da4d" x="307.986804" y="66.160715" style="stroke: #000000; stroke-width: 0.8"/>
      </g>
     </g>
     <g id="text_4">
      <!-- 6 -->
      <g transform="translate(304.805554 80.759153) scale(0.1 -0.1)">
       <defs>
        <path id="DejaVuSans-36" d="M 2113 2584 
Q 1688 2584 1439 2293 
Q 1191 2003 1191 1497 
Q 1191 994 1439 701 
Q 1688 409 2113 409 
Q 2538 409 2786 701 
Q 3034 994 3034 1497 
Q 3034 2003 2786 2293 
Q 2538 2584 2113 2584 
z
M 3366 4563 
L 3366 3988 
Q 3128 4100 2886 4159 
Q 2644 4219 2406 4219 
Q 1781 4219 1451 3797 
Q 1122 3375 1075 2522 
Q 1259 2794 1537 2939 
Q 1816 3084 2150 3084 
Q 2853 3084 3261 2657 
Q 3669 2231 3669 1497 
Q 3669 778 3244 343 
Q 2819 -91 2113 -91 
Q 1303 -91 875 529 
Q 447 1150 447 2328 
Q 447 3434 972 4092 
Q 1497 4750 2381 4750 
Q 2619 4750 2861 4703 
Q 3103 4656 3366 4563 
z
" transform="scale(0.015625)"/>
       </defs>
       <use xlink:href="#DejaVuSans-36"/>
      </g>
     </g>
    </g>
    <g id="xtick_5">
     <g id="line2d_9">
      <path d="M 392.216398 66.160715 
L 392.216398 7.2 
" clip-path="url(#p99d8ca92b1)" style="fill: none; stroke-dasharray: 2.96,1.28; stroke-dashoffset: 0; stroke: #808080; stroke-width: 0.8"/>
     </g>
     <g id="line2d_10">
      <g>
       <use xlink:href="#m51c1d8da4d" x="392.216398" y="66.160715" style="stroke: #000000; stroke-width: 0.8"/>
      </g>
     </g>
     <g id="text_5">
      <!-- 8 -->
      <g transform="translate(389.035148 80.759153) scale(0.1 -0.1)">
       <defs>
        <path id="DejaVuSans-38" d="M 2034 2216 
Q 1584 2216 1326 1975 
Q 1069 1734 1069 1313 
Q 1069 891 1326 650 
Q 1584 409 2034 409 
Q 2484 409 2743 651 
Q 3003 894 3003 1313 
Q 3003 1734 2745 1975 
Q 2488 2216 2034 2216 
z
M 1403 2484 
Q 997 2584 770 2862 
Q 544 3141 544 3541 
Q 544 4100 942 4425 
Q 1341 4750 2034 4750 
Q 2731 4750 3128 4425 
Q 3525 4100 3525 3541 
Q 3525 3141 3298 2862 
Q 3072 2584 2669 2484 
Q 3125 2378 3379 2068 
Q 3634 1759 3634 1313 
Q 3634 634 3220 271 
Q 2806 -91 2034 -91 
Q 1263 -91 848 271 
Q 434 634 434 1313 
Q 434 1759 690 2068 
Q 947 2378 1403 2484 
z
M 1172 3481 
Q 1172 3119 1398 2916 
Q 1625 2713 2034 2713 
Q 2441 2713 2670 2916 
Q 2900 3119 2900 3481 
Q 2900 3844 2670 4047 
Q 2441 4250 2034 4250 
Q 1625 4250 1398 4047 
Q 1172 3844 1172 3481 
z
" transform="scale(0.015625)"/>
       </defs>
       <use xlink:href="#DejaVuSans-38"/>
      </g>
     </g>
    </g>
    <g id="xtick_6">
     <g id="line2d_11">
      <path d="M 476.445991 66.160715 
L 476.445991 7.2 
" clip-path="url(#p99d8ca92b1)" style="fill: none; stroke-dasharray: 2.96,1.28; stroke-dashoffset: 0; stroke: #808080; stroke-width: 0.8"/>
     </g>
     <g id="line2d_12">
      <g>
       <use xlink:href="#m51c1d8da4d" x="476.445991" y="66.160715" style="stroke: #000000; stroke-width: 0.8"/>
      </g>
     </g>
     <g id="text_6">
      <!-- 10 -->
      <g transform="translate(470.083491 80.759153) scale(0.1 -0.1)">
       <defs>
        <path id="DejaVuSans-31" d="M 794 531 
L 1825 531 
L 1825 4091 
L 703 3866 
L 703 4441 
L 1819 4666 
L 2450 4666 
L 2450 531 
L 3481 531 
L 3481 0 
L 794 0 
L 794 531 
z
" transform="scale(0.015625)"/>
       </defs>
       <use xlink:href="#DejaVuSans-31"/>
       <use xlink:href="#DejaVuSans-30" x="63.623047"/>
      </g>
     </g>
    </g>
    <g id="text_7">
     <!-- x -->
     <g transform="translate(262.912632 94.437278) scale(0.1 -0.1)">
      <defs>
       <path id="DejaVuSans-78" d="M 3513 3500 
L 2247 1797 
L 3578 0 
L 2900 0 
L 1881 1375 
L 863 0 
L 184 0 
L 1544 1831 
L 300 3500 
L 978 3500 
L 1906 2253 
L 2834 3500 
L 3513 3500 
z
" transform="scale(0.015625)"/>
      </defs>
      <use xlink:href="#DejaVuSans-78"/>
     </g>
    </g>
   </g>
   <g id="matplotlib.axis_2">
    <g id="ytick_1">
     <g id="line2d_13">
      <path d="M 34.240625 57.737756 
L 497.50339 57.737756 
" clip-path="url(#p99d8ca92b1)" style="fill: none; stroke-dasharray: 2.96,1.28; stroke-dashoffset: 0; stroke: #808080; stroke-width: 0.8"/>
     </g>
     <g id="line2d_14">
      <defs>
       <path id="m992106c769" d="M 0 0 
L -3.5 0 
" style="stroke: #000000; stroke-width: 0.8"/>
      </defs>
      <g>
       <use xlink:href="#m992106c769" x="34.240625" y="57.737756" style="stroke: #000000; stroke-width: 0.8"/>
      </g>
     </g>
     <g id="text_8">
      <!-- 0 -->
      <g transform="translate(20.878125 61.536975) scale(0.1 -0.1)">
       <use xlink:href="#DejaVuSans-30"/>
      </g>
     </g>
    </g>
    <g id="ytick_2">
     <g id="line2d_15">
      <path d="M 34.240625 15.622959 
L 497.50339 15.622959 
" clip-path="url(#p99d8ca92b1)" style="fill: none; stroke-dasharray: 2.96,1.28; stroke-dashoffset: 0; stroke: #808080; stroke-width: 0.8"/>
     </g>
     <g id="line2d_16">
      <g>
       <use xlink:href="#m992106c769" x="34.240625" y="15.622959" style="stroke: #000000; stroke-width: 0.8"/>
      </g>
     </g>
     <g id="text_9">
      <!-- 1 -->
      <g transform="translate(20.878125 19.422178) scale(0.1 -0.1)">
       <use xlink:href="#DejaVuSans-31"/>
      </g>
     </g>
    </g>
    <g id="text_10">
     <!-- y -->
     <g transform="translate(14.798438 39.639733) rotate(-90) scale(0.1 -0.1)">
      <defs>
       <path id="DejaVuSans-79" d="M 2059 -325 
Q 1816 -950 1584 -1140 
Q 1353 -1331 966 -1331 
L 506 -1331 
L 506 -850 
L 844 -850 
Q 1081 -850 1212 -737 
Q 1344 -625 1503 -206 
L 1606 56 
L 191 3500 
L 800 3500 
L 1894 763 
L 2988 3500 
L 3597 3500 
L 2059 -325 
z
" transform="scale(0.015625)"/>
      </defs>
      <use xlink:href="#DejaVuSans-79"/>
     </g>
    </g>
   </g>
   <g id="patch_3">
    <path d="M 55.298023 57.737756 
Q 97.41282 57.737756 139.527617 57.737756 
Q 139.527617 47.209057 139.527617 36.680358 
Q 97.41282 36.680358 55.298023 36.680358 
Q 55.298023 47.209057 55.298023 57.737756 
" clip-path="url(#p99d8ca92b1)" style="fill: #e3f3ff; stroke: #0055d4; stroke-linejoin: miter"/>
   </g>
   <g id="patch_4">
    <path d="M 55.298023 36.680358 
Q 97.41282 36.680358 139.527617 36.680358 
Q 139.527617 26.151659 139.527617 15.622959 
Q 97.41282 15.622959 55.298023 15.622959 
Q 55.298023 26.151659 55.298023 36.680358 
" clip-path="url(#p99d8ca92b1)" style="fill: #e3f3ff; stroke: #0055d4; stroke-linejoin: miter"/>
   </g>
   <g id="patch_5">
    <path d="M 307.986804 57.737756 
Q 307.986804 47.209057 307.986804 36.680358 
Q 265.872007 36.680358 223.757211 36.680358 
Q 223.757211 47.209057 223.757211 57.737756 
Q 265.872007 57.737756 307.986804 57.737756 
" clip-path="url(#p99d8ca92b1)" style="fill: #e3f3ff; stroke: #0055d4; stroke-linejoin: miter"/>
   </g>
   <g id="patch_6">
    <path d="M 307.986804 36.680358 
Q 307.986804 26.151659 307.986804 15.622959 
Q 265.872007 15.622959 223.757211 15.622959 
Q 223.757211 26.151659 223.757211 36.680358 
Q 265.872007 36.680358 307.986804 36.680358 
" clip-path="url(#p99d8ca92b1)" style="fill: #e3f3ff; stroke: #0055d4; stroke-linejoin: miter"/>
   </g>
   <g id="patch_7">
    <path d="M 307.986804 57.737756 
Q 350.101601 57.737756 392.216398 57.737756 
Q 392.216398 47.209057 392.216398 36.680358 
Q 350.101601 36.680358 307.986804 36.680358 
Q 307.986804 47.209057 307.986804 57.737756 
" clip-path="url(#p99d8ca92b1)" style="fill: #e3f3ff; stroke: #0055d4; stroke-linejoin: miter"/>
   </g>
   <g id="patch_8">
    <path d="M 307.986804 36.680358 
Q 350.101601 36.680358 392.216398 36.680358 
Q 392.216398 26.151659 392.216398 15.622959 
Q 350.101601 15.622959 307.986804 15.622959 
Q 307.986804 26.151659 307.986804 36.680358 
" clip-path="url(#p99d8ca92b1)" style="fill: #e3f3ff; stroke: #0055d4; stroke-linejoin: miter"/>
   </g>
   <g id="patch_9">
    <path d="M 392.216398 57.737756 
Q 434.331194 57.737756 476.445991 57.737756 
Q 476.445991 47.209057 476.445991 36.680358 
Q 434.331194 36.680358 392.216398 36.680358 
Q 392.216398 47.209057 392.216398 57.737756 
" clip-path="url(#p99d8ca92b1)" style="fill: #e3f3ff; stroke: #0055d4; stroke-linejoin: miter"/>
   </g>
   <g id="patch_10">
    <path d="M 392.216398 36.680358 
Q 434.331194 36.680358 476.445991 36.680358 
Q 476.445991 26.151659 476.445991 15.622959 
Q 434.331194 15.622959 392.216398 15.622959 
Q 392.216398 26.151659 392.216398 36.680358 
" clip-path="url(#p99d8ca92b1)" style="fill: #e3f3ff; stroke: #0055d4; stroke-linejoin: miter"/>
   </g>
   <g id="patch_11">
    <path d="M 139.527617 15.622959 
Q 139.527617 26.151659 139.527617 36.680358 
Q 181.642414 36.680358 223.757211 36.680358 
Q 223.757211 26.151659 223.757211 15.622959 
Q 181.642414 15.622959 139.527617 15.622959 
" clip-path="url(#p99d8ca92b1)" style="fill: #e3f3ff; stroke: #0055d4; stroke-linejoin: miter"/>
   </g>
   <g id="patch_12">
    <path d="M 139.527617 36.680358 
Q 139.527617 47.209057 139.527617 57.737756 
Q 181.642414 57.737756 223.757211 57.737756 
Q 223.757211 47.209057 223.757211 36.680358 
Q 181.642414 36.680358 139.527617 36.680358 
" clip-path="url(#p99d8ca92b1)" style="fill: #e3f3ff; stroke: #0055d4; stroke-linejoin: miter"/>
   </g>
   <g id="patch_13">
    <path d="M 34.240625 66.160715 
L 34.240625 7.2 
" style="fill: none; stroke: #000000; stroke-width: 0.8; stroke-linejoin: miter; stroke-linecap: square"/>
   </g>
   <g id="patch_14">
    <path d="M 497.50339 66.160715 
L 497.50339 7.2 
" style="fill: none; stroke: #000000; stroke-width: 0.8; stroke-linejoin: miter; stroke-linecap: square"/>
   </g>
   <g id="patch_15">
    <path d="M 34.240625 66.160715 
L 497.50339 66.160715 
" style="fill: none; stroke: #000000; stroke-width: 0.8; stroke-linejoin: miter; stroke-linecap: square"/>
   </g>
   <g id="patch_16">
    <path d="M 34.240625 7.2 
L 497.50339 7.2 
" style="fill: none; stroke: #000000; stroke-width: 0.8; stroke-linejoin: miter; stroke-linecap: square"/>
   </g>
   <g id="text_11">
    <g id="patch_17">
     <path d="M 53.071148 62.1751 
L 57.524898 62.1751 
Q 58.574898 62.1751 58.574898 61.1251 
L 58.574898 54.350412 
Q 58.574898 53.300412 57.524898 53.300412 
L 53.071148 53.300412 
Q 52.021148 53.300412 52.021148 54.350412 
L 52.021148 61.1251 
Q 52.021148 62.1751 53.071148 62.1751 
z
" clip-path="url(#p99d8ca92b1)" style="fill: #ffffff"/>
    </g>
    <g clip-path="url(#p99d8ca92b1)">
     <!-- 0 -->
     <g style="fill: #ff0000" transform="translate(53.071148 59.669319) scale(0.07 -0.07)">
      <use xlink:href="#DejaVuSans-30"/>
     </g>
    </g>
   </g>
   <g id="text_12">
    <g id="patch_18">
     <path d="M 53.071148 20.060303 
L 57.524898 20.060303 
Q 58.574898 20.060303 58.574898 19.010303 
L 58.574898 12.235616 
Q 58.574898 11.185616 57.524898 11.185616 
L 53.071148 11.185616 
Q 52.021148 11.185616 52.021148 12.235616 
L 52.021148 19.010303 
Q 52.021148 20.060303 53.071148 20.060303 
z
" clip-path="url(#p99d8ca92b1)" style="fill: #ffffff"/>
    </g>
    <g clip-path="url(#p99d8ca92b1)">
     <!-- 1 -->
     <g style="fill: #ff0000" transform="translate(53.071148 17.554522) scale(0.07 -0.07)">
      <use xlink:href="#DejaVuSans-31"/>
     </g>
    </g>
   </g>
   <g id="text_13">
    <g id="patch_19">
     <path d="M 305.759929 62.1751 
L 310.213679 62.1751 
Q 311.263679 62.1751 311.263679 61.1251 
L 311.263679 54.350412 
Q 311.263679 53.300412 310.213679 53.300412 
L 305.759929 53.300412 
Q 304.709929 53.300412 304.709929 54.350412 
L 304.709929 61.1251 
Q 304.709929 62.1751 305.759929 62.1751 
z
" clip-path="url(#p99d8ca92b1)" style="fill: #ffffff"/>
    </g>
    <g clip-path="url(#p99d8ca92b1)">
     <!-- 2 -->
     <g style="fill: #ff0000" transform="translate(305.759929 59.669319) scale(0.07 -0.07)">
      <use xlink:href="#DejaVuSans-32"/>
     </g>
    </g>
   </g>
   <g id="text_14">
    <g id="patch_20">
     <path d="M 221.530336 62.1751 
L 225.984086 62.1751 
Q 227.034086 62.1751 227.034086 61.1251 
L 227.034086 54.350412 
Q 227.034086 53.300412 225.984086 53.300412 
L 221.530336 53.300412 
Q 220.480336 53.300412 220.480336 54.350412 
L 220.480336 61.1251 
Q 220.480336 62.1751 221.530336 62.1751 
z
" clip-path="url(#p99d8ca92b1)" style="fill: #ffffff"/>
    </g>
    <g clip-path="url(#p99d8ca92b1)">
     <!-- 3 -->
     <g style="fill: #ff0000" transform="translate(221.530336 59.669319) scale(0.07 -0.07)">
      <defs>
       <path id="DejaVuSans-33" d="M 2597 2516 
Q 3050 2419 3304 2112 
Q 3559 1806 3559 1356 
Q 3559 666 3084 287 
Q 2609 -91 1734 -91 
Q 1441 -91 1130 -33 
Q 819 25 488 141 
L 488 750 
Q 750 597 1062 519 
Q 1375 441 1716 441 
Q 2309 441 2620 675 
Q 2931 909 2931 1356 
Q 2931 1769 2642 2001 
Q 2353 2234 1838 2234 
L 1294 2234 
L 1294 2753 
L 1863 2753 
Q 2328 2753 2575 2939 
Q 2822 3125 2822 3475 
Q 2822 3834 2567 4026 
Q 2313 4219 1838 4219 
Q 1578 4219 1281 4162 
Q 984 4106 628 3988 
L 628 4550 
Q 988 4650 1302 4700 
Q 1616 4750 1894 4750 
Q 2613 4750 3031 4423 
Q 3450 4097 3450 3541 
Q 3450 3153 3228 2886 
Q 3006 2619 2597 2516 
z
" transform="scale(0.015625)"/>
      </defs>
      <use xlink:href="#DejaVuSans-33"/>
     </g>
    </g>
   </g>
   <g id="text_15">
    <g id="patch_21">
     <path d="M 389.989523 62.1751 
L 394.443273 62.1751 
Q 395.493273 62.1751 395.493273 61.1251 
L 395.493273 54.350412 
Q 395.493273 53.300412 394.443273 53.300412 
L 389.989523 53.300412 
Q 388.939523 53.300412 388.939523 54.350412 
L 388.939523 61.1251 
Q 388.939523 62.1751 389.989523 62.1751 
z
" clip-path="url(#p99d8ca92b1)" style="fill: #ffffff"/>
    </g>
    <g clip-path="url(#p99d8ca92b1)">
     <!-- 4 -->
     <g style="fill: #ff0000" transform="translate(389.989523 59.669319) scale(0.07 -0.07)">
      <use xlink:href="#DejaVuSans-34"/>
     </g>
    </g>
   </g>
   <g id="text_16">
    <g id="patch_22">
     <path d="M 389.989523 20.060303 
L 394.443273 20.060303 
Q 395.493273 20.060303 395.493273 19.010303 
L 395.493273 12.235616 
Q 395.493273 11.185616 394.443273 11.185616 
L 389.989523 11.185616 
Q 388.939523 11.185616 388.939523 12.235616 
L 388.939523 19.010303 
Q 388.939523 20.060303 389.989523 20.060303 
z
" clip-path="url(#p99d8ca92b1)" style="fill: #ffffff"/>
    </g>
    <g clip-path="url(#p99d8ca92b1)">
     <!-- 5 -->
     <g style="fill: #ff0000" transform="translate(389.989523 17.554522) scale(0.07 -0.07)">
      <defs>
       <path id="DejaVuSans-35" d="M 691 4666 
L 3169 4666 
L 3169 4134 
L 1269 4134 
L 1269 2991 
Q 1406 3038 1543 3061 
Q 1681 3084 1819 3084 
Q 2600 3084 3056 2656 
Q 3513 2228 3513 1497 
Q 3513 744 3044 326 
Q 2575 -91 1722 -91 
Q 1428 -91 1123 -41 
Q 819 9 494 109 
L 494 744 
Q 775 591 1075 516 
Q 1375 441 1709 441 
Q 2250 441 2565 725 
Q 2881 1009 2881 1497 
Q 2881 1984 2565 2268 
Q 2250 2553 1709 2553 
Q 1456 2553 1204 2497 
Q 953 2441 691 2322 
L 691 4666 
z
" transform="scale(0.015625)"/>
      </defs>
      <use xlink:href="#DejaVuSans-35"/>
     </g>
    </g>
   </g>
   <g id="text_17">
    <g id="patch_23">
     <path d="M 305.759929 20.060303 
L 310.213679 20.060303 
Q 311.263679 20.060303 311.263679 19.010303 
L 311.263679 12.235616 
Q 311.263679 11.185616 310.213679 11.185616 
L 305.759929 11.185616 
Q 304.709929 11.185616 304.709929 12.235616 
L 304.709929 19.010303 
Q 304.709929 20.060303 305.759929 20.060303 
z
" clip-path="url(#p99d8ca92b1)" style="fill: #ffffff"/>
    </g>
    <g clip-path="url(#p99d8ca92b1)">
     <!-- 6 -->
     <g style="fill: #ff0000" transform="translate(305.759929 17.554522) scale(0.07 -0.07)">
      <use xlink:href="#DejaVuSans-36"/>
     </g>
    </g>
   </g>
   <g id="text_18">
    <g id="patch_24">
     <path d="M 474.219116 62.1751 
L 478.672866 62.1751 
Q 479.722866 62.1751 479.722866 61.1251 
L 479.722866 54.350412 
Q 479.722866 53.300412 478.672866 53.300412 
L 474.219116 53.300412 
Q 473.169116 53.300412 473.169116 54.350412 
L 473.169116 61.1251 
Q 473.169116 62.1751 474.219116 62.1751 
z
" clip-path="url(#p99d8ca92b1)" style="fill: #ffffff"/>
    </g>
    <g clip-path="url(#p99d8ca92b1)">
     <!-- 7 -->
     <g style="fill: #ff0000" transform="translate(474.219116 59.669319) scale(0.07 -0.07)">
      <defs>
       <path id="DejaVuSans-37" d="M 525 4666 
L 3525 4666 
L 3525 4397 
L 1831 0 
L 1172 0 
L 2766 4134 
L 525 4134 
L 525 4666 
z
" transform="scale(0.015625)"/>
      </defs>
      <use xlink:href="#DejaVuSans-37"/>
     </g>
    </g>
   </g>
   <g id="text_19">
    <g id="patch_25">
     <path d="M 474.219116 20.060303 
L 478.672866 20.060303 
Q 479.722866 20.060303 479.722866 19.010303 
L 479.722866 12.235616 
Q 479.722866 11.185616 478.672866 11.185616 
L 474.219116 11.185616 
Q 473.169116 11.185616 473.169116 12.235616 
L 473.169116 19.010303 
Q 473.169116 20.060303 474.219116 20.060303 
z
" clip-path="url(#p99d8ca92b1)" style="fill: #ffffff"/>
    </g>
    <g clip-path="url(#p99d8ca92b1)">
     <!-- 8 -->
     <g style="fill: #ff0000" transform="translate(474.219116 17.554522) scale(0.07 -0.07)">
      <use xlink:href="#DejaVuSans-38"/>
     </g>
    </g>
   </g>
   <g id="text_20">
    <g id="patch_26">
     <path d="M 137.300742 20.060303 
L 141.754492 20.060303 
Q 142.804492 20.060303 142.804492 19.010303 
L 142.804492 12.235616 
Q 142.804492 11.185616 141.754492 11.185616 
L 137.300742 11.185616 
Q 136.250742 11.185616 136.250742 12.235616 
L 136.250742 19.010303 
Q 136.250742 20.060303 137.300742 20.060303 
z
" clip-path="url(#p99d8ca92b1)" style="fill: #ffffff"/>
    </g>
    <g clip-path="url(#p99d8ca92b1)">
     <!-- 9 -->
     <g style="fill: #ff0000" transform="translate(137.300742 17.554522) scale(0.07 -0.07)">
      <defs>
       <path id="DejaVuSans-39" d="M 703 97 
L 703 672 
Q 941 559 1184 500 
Q 1428 441 1663 441 
Q 2288 441 2617 861 
Q 2947 1281 2994 2138 
Q 2813 1869 2534 1725 
Q 2256 1581 1919 1581 
Q 1219 1581 811 2004 
Q 403 2428 403 3163 
Q 403 3881 828 4315 
Q 1253 4750 1959 4750 
Q 2769 4750 3195 4129 
Q 3622 3509 3622 2328 
Q 3622 1225 3098 567 
Q 2575 -91 1691 -91 
Q 1453 -91 1209 -44 
Q 966 3 703 97 
z
M 1959 2075 
Q 2384 2075 2632 2365 
Q 2881 2656 2881 3163 
Q 2881 3666 2632 3958 
Q 2384 4250 1959 4250 
Q 1534 4250 1286 3958 
Q 1038 3666 1038 3163 
Q 1038 2656 1286 2365 
Q 1534 2075 1959 2075 
z
" transform="scale(0.015625)"/>
      </defs>
      <use xlink:href="#DejaVuSans-39"/>
     </g>
    </g>
   </g>
   <g id="text_21">
    <g id="patch_27">
     <path d="M 135.073867 62.1751 
L 143.981367 62.1751 
Q 145.031367 62.1751 145.031367 61.1251 
L 145.031367 54.350412 
Q 145.031367 53.300412 143.981367 53.300412 
L 135.073867 53.300412 
Q 134.023867 53.300412 134.023867 54.350412 
L 134.023867 61.1251 
Q 134.023867 62.1751 135.073867 62.1751 
z
" clip-path="url(#p99d8ca92b1)" style="fill: #ffffff"/>
    </g>
    <g clip-path="url(#p99d8ca92b1)">
     <!-- 10 -->
     <g style="fill: #ff0000" transform="translate(135.073867 59.669319) scale(0.07 -0.07)">
      <use xlink:href="#DejaVuSans-31"/>
      <use xlink:href="#DejaVuSans-30" x="63.623047"/>
     </g>
    </g>
   </g>
   <g id="text_22">
    <g id="patch_28">
     <path d="M 219.303461 20.060303 
L 228.210961 20.060303 
Q 229.260961 20.060303 229.260961 19.010303 
L 229.260961 12.235616 
Q 229.260961 11.185616 228.210961 11.185616 
L 219.303461 11.185616 
Q 218.253461 11.185616 218.253461 12.235616 
L 218.253461 19.010303 
Q 218.253461 20.060303 219.303461 20.060303 
z
" clip-path="url(#p99d8ca92b1)" style="fill: #ffffff"/>
    </g>
    <g clip-path="url(#p99d8ca92b1)">
     <!-- 11 -->
     <g style="fill: #ff0000" transform="translate(219.303461 17.554522) scale(0.07 -0.07)">
      <use xlink:href="#DejaVuSans-31"/>
      <use xlink:href="#DejaVuSans-31" x="63.623047"/>
     </g>
    </g>
   </g>
   <g id="text_23">
    <g id="patch_29">
     <path d="M 50.844273 41.117701 
L 59.751773 41.117701 
Q 60.801773 41.117701 60.801773 40.067701 
L 60.801773 33.293014 
Q 60.801773 32.243014 59.751773 32.243014 
L 50.844273 32.243014 
Q 49.794273 32.243014 49.794273 33.293014 
L 49.794273 40.067701 
Q 49.794273 41.117701 50.844273 41.117701 
z
" clip-path="url(#p99d8ca92b1)" style="fill: #ffffff"/>
    </g>
    <g clip-path="url(#p99d8ca92b1)">
     <!-- 12 -->
     <g style="fill: #ff0000" transform="translate(50.844273 38.61192) scale(0.07 -0.07)">
      <use xlink:href="#DejaVuSans-31"/>
      <use xlink:href="#DejaVuSans-32" x="63.623047"/>
     </g>
    </g>
   </g>
   <g id="text_24">
    <g id="patch_30">
     <path d="M 387.762648 41.117701 
L 396.670148 41.117701 
Q 397.720148 41.117701 397.720148 40.067701 
L 397.720148 33.293014 
Q 397.720148 32.243014 396.670148 32.243014 
L 387.762648 32.243014 
Q 386.712648 32.243014 386.712648 33.293014 
L 386.712648 40.067701 
Q 386.712648 41.117701 387.762648 41.117701 
z
" clip-path="url(#p99d8ca92b1)" style="fill: #ffffff"/>
    </g>
    <g clip-path="url(#p99d8ca92b1)">
     <!-- 13 -->
     <g style="fill: #ff0000" transform="translate(387.762648 38.61192) scale(0.07 -0.07)">
      <use xlink:href="#DejaVuSans-31"/>
      <use xlink:href="#DejaVuSans-33" x="63.623047"/>
     </g>
    </g>
   </g>
   <g id="text_25">
    <g id="patch_31">
     <path d="M 471.992241 41.117701 
L 480.899741 41.117701 
Q 481.949741 41.117701 481.949741 40.067701 
L 481.949741 33.293014 
Q 481.949741 32.243014 480.899741 32.243014 
L 471.992241 32.243014 
Q 470.942241 32.243014 470.942241 33.293014 
L 470.942241 40.067701 
Q 470.942241 41.117701 471.992241 41.117701 
z
" clip-path="url(#p99d8ca92b1)" style="fill: #ffffff"/>
    </g>
    <g clip-path="url(#p99d8ca92b1)">
     <!-- 14 -->
     <g style="fill: #ff0000" transform="translate(471.992241 38.61192) scale(0.07 -0.07)">
      <use xlink:href="#DejaVuSans-31"/>
      <use xlink:href="#DejaVuSans-34" x="63.623047"/>
     </g>
    </g>
   </g>
   <g id="text_26">
    <g id="patch_32">
     <path d="M 135.073867 41.117701 
L 143.981367 41.117701 
Q 145.031367 41.117701 145.031367 40.067701 
L 145.031367 33.293014 
Q 145.031367 32.243014 143.981367 32.243014 
L 135.073867 32.243014 
Q 134.023867 32.243014 134.023867 33.293014 
L 134.023867 40.067701 
Q 134.023867 41.117701 135.073867 41.117701 
z
" clip-path="url(#p99d8ca92b1)" style="fill: #ffffff"/>
    </g>
    <g clip-path="url(#p99d8ca92b1)">
     <!-- 15 -->
     <g style="fill: #ff0000" transform="translate(135.073867 38.61192) scale(0.07 -0.07)">
      <use xlink:href="#DejaVuSans-31"/>
      <use xlink:href="#DejaVuSans-35" x="63.623047"/>
     </g>
    </g>
   </g>
   <g id="text_27">
    <g id="patch_33">
     <path d="M 219.303461 41.117701 
L 228.210961 41.117701 
Q 229.260961 41.117701 229.260961 40.067701 
L 229.260961 33.293014 
Q 229.260961 32.243014 228.210961 32.243014 
L 219.303461 32.243014 
Q 218.253461 32.243014 218.253461 33.293014 
L 218.253461 40.067701 
Q 218.253461 41.117701 219.303461 41.117701 
z
" clip-path="url(#p99d8ca92b1)" style="fill: #ffffff"/>
    </g>
    <g clip-path="url(#p99d8ca92b1)">
     <!-- 16 -->
     <g style="fill: #ff0000" transform="translate(219.303461 38.61192) scale(0.07 -0.07)">
      <use xlink:href="#DejaVuSans-31"/>
      <use xlink:href="#DejaVuSans-36" x="63.623047"/>
     </g>
    </g>
   </g>
   <g id="text_28">
    <g id="patch_34">
     <path d="M 303.533054 41.117701 
L 312.440554 41.117701 
Q 313.490554 41.117701 313.490554 40.067701 
L 313.490554 33.293014 
Q 313.490554 32.243014 312.440554 32.243014 
L 303.533054 32.243014 
Q 302.483054 32.243014 302.483054 33.293014 
L 302.483054 40.067701 
Q 302.483054 41.117701 303.533054 41.117701 
z
" clip-path="url(#p99d8ca92b1)" style="fill: #ffffff"/>
    </g>
    <g clip-path="url(#p99d8ca92b1)">
     <!-- 17 -->
     <g style="fill: #ff0000" transform="translate(303.533054 38.61192) scale(0.07 -0.07)">
      <use xlink:href="#DejaVuSans-31"/>
      <use xlink:href="#DejaVuSans-37" x="63.623047"/>
     </g>
    </g>
   </g>
   <g id="text_29">
    <g id="patch_35">
     <path d="M 92.95907 62.1751 
L 101.86657 62.1751 
Q 102.91657 62.1751 102.91657 61.1251 
L 102.91657 54.350412 
Q 102.91657 53.300412 101.86657 53.300412 
L 92.95907 53.300412 
Q 91.90907 53.300412 91.90907 54.350412 
L 91.90907 61.1251 
Q 91.90907 62.1751 92.95907 62.1751 
z
" clip-path="url(#p99d8ca92b1)" style="fill: #ffffff"/>
    </g>
    <g clip-path="url(#p99d8ca92b1)">
     <!-- 18 -->
     <g style="fill: #ff0000" transform="translate(92.95907 59.669319) scale(0.07 -0.07)">
      <use xlink:href="#DejaVuSans-31"/>
      <use xlink:href="#DejaVuSans-38" x="63.623047"/>
     </g>
    </g>
   </g>
   <g id="text_30">
    <g id="patch_36">
     <path d="M 135.073867 51.646401 
L 143.981367 51.646401 
Q 145.031367 51.646401 145.031367 50.596401 
L 145.031367 43.821713 
Q 145.031367 42.771713 143.981367 42.771713 
L 135.073867 42.771713 
Q 134.023867 42.771713 134.023867 43.821713 
L 134.023867 50.596401 
Q 134.023867 51.646401 135.073867 51.646401 
z
" clip-path="url(#p99d8ca92b1)" style="fill: #ffffff"/>
    </g>
    <g clip-path="url(#p99d8ca92b1)">
     <!-- 19 -->
     <g style="fill: #ff0000" transform="translate(135.073867 49.140619) scale(0.07 -0.07)">
      <use xlink:href="#DejaVuSans-31"/>
      <use xlink:href="#DejaVuSans-39" x="63.623047"/>
     </g>
    </g>
   </g>
   <g id="text_31">
    <g id="patch_37">
     <path d="M 92.95907 41.117701 
L 101.86657 41.117701 
Q 102.91657 41.117701 102.91657 40.067701 
L 102.91657 33.293014 
Q 102.91657 32.243014 101.86657 32.243014 
L 92.95907 32.243014 
Q 91.90907 32.243014 91.90907 33.293014 
L 91.90907 40.067701 
Q 91.90907 41.117701 92.95907 41.117701 
z
" clip-path="url(#p99d8ca92b1)" style="fill: #ffffff"/>
    </g>
    <g clip-path="url(#p99d8ca92b1)">
     <!-- 20 -->
     <g style="fill: #ff0000" transform="translate(92.95907 38.61192) scale(0.07 -0.07)">
      <use xlink:href="#DejaVuSans-32"/>
      <use xlink:href="#DejaVuSans-30" x="63.623047"/>
     </g>
    </g>
   </g>
   <g id="text_32">
    <g id="patch_38">
     <path d="M 50.844273 51.646401 
L 59.751773 51.646401 
Q 60.801773 51.646401 60.801773 50.596401 
L 60.801773 43.821713 
Q 60.801773 42.771713 59.751773 42.771713 
L 50.844273 42.771713 
Q 49.794273 42.771713 49.794273 43.821713 
L 49.794273 50.596401 
Q 49.794273 51.646401 50.844273 51.646401 
z
" clip-path="url(#p99d8ca92b1)" style="fill: #ffffff"/>
    </g>
    <g clip-path="url(#p99d8ca92b1)">
     <!-- 21 -->
     <g style="fill: #ff0000" transform="translate(50.844273 49.140619) scale(0.07 -0.07)">
      <use xlink:href="#DejaVuSans-32"/>
      <use xlink:href="#DejaVuSans-31" x="63.623047"/>
     </g>
    </g>
   </g>
   <g id="text_33">
    <g id="patch_39">
     <path d="M 135.073867 30.589002 
L 143.981367 30.589002 
Q 145.031367 30.589002 145.031367 29.539002 
L 145.031367 22.764315 
Q 145.031367 21.714315 143.981367 21.714315 
L 135.073867 21.714315 
Q 134.023867 21.714315 134.023867 22.764315 
L 134.023867 29.539002 
Q 134.023867 30.589002 135.073867 30.589002 
z
" clip-path="url(#p99d8ca92b1)" style="fill: #ffffff"/>
    </g>
    <g clip-path="url(#p99d8ca92b1)">
     <!-- 22 -->
     <g style="fill: #ff0000" transform="translate(135.073867 28.083221) scale(0.07 -0.07)">
      <use xlink:href="#DejaVuSans-32"/>
      <use xlink:href="#DejaVuSans-32" x="63.623047"/>
     </g>
    </g>
   </g>
   <g id="text_34">
    <g id="patch_40">
     <path d="M 92.95907 20.060303 
L 101.86657 20.060303 
Q 102.91657 20.060303 102.91657 19.010303 
L 102.91657 12.235616 
Q 102.91657 11.185616 101.86657 11.185616 
L 92.95907 11.185616 
Q 91.90907 11.185616 91.90907 12.235616 
L 91.90907 19.010303 
Q 91.90907 20.060303 92.95907 20.060303 
z
" clip-path="url(#p99d8ca92b1)" style="fill: #ffffff"/>
    </g>
    <g clip-path="url(#p99d8ca92b1)">
     <!-- 23 -->
     <g style="fill: #ff0000" transform="translate(92.95907 17.554522) scale(0.07 -0.07)">
      <use xlink:href="#DejaVuSans-32"/>
      <use xlink:href="#DejaVuSans-33" x="63.623047"/>
     </g>
    </g>
   </g>
   <g id="text_35">
    <g id="patch_41">
     <path d="M 50.844273 30.589002 
L 59.751773 30.589002 
Q 60.801773 30.589002 60.801773 29.539002 
L 60.801773 22.764315 
Q 60.801773 21.714315 59.751773 21.714315 
L 50.844273 21.714315 
Q 49.794273 21.714315 49.794273 22.764315 
L 49.794273 29.539002 
Q 49.794273 30.589002 50.844273 30.589002 
z
" clip-path="url(#p99d8ca92b1)" style="fill: #ffffff"/>
    </g>
    <g clip-path="url(#p99d8ca92b1)">
     <!-- 24 -->
     <g style="fill: #ff0000" transform="translate(50.844273 28.083221) scale(0.07 -0.07)">
      <use xlink:href="#DejaVuSans-32"/>
      <use xlink:href="#DejaVuSans-34" x="63.623047"/>
     </g>
    </g>
   </g>
   <g id="text_36">
    <g id="patch_42">
     <path d="M 303.533054 51.646401 
L 312.440554 51.646401 
Q 313.490554 51.646401 313.490554 50.596401 
L 313.490554 43.821713 
Q 313.490554 42.771713 312.440554 42.771713 
L 303.533054 42.771713 
Q 302.483054 42.771713 302.483054 43.821713 
L 302.483054 50.596401 
Q 302.483054 51.646401 303.533054 51.646401 
z
" clip-path="url(#p99d8ca92b1)" style="fill: #ffffff"/>
    </g>
    <g clip-path="url(#p99d8ca92b1)">
     <!-- 25 -->
     <g style="fill: #ff0000" transform="translate(303.533054 49.140619) scale(0.07 -0.07)">
      <use xlink:href="#DejaVuSans-32"/>
      <use xlink:href="#DejaVuSans-35" x="63.623047"/>
     </g>
    </g>
   </g>
   <g id="text_37">
    <g id="patch_43">
     <path d="M 261.418257 41.117701 
L 270.325757 41.117701 
Q 271.375757 41.117701 271.375757 40.067701 
L 271.375757 33.293014 
Q 271.375757 32.243014 270.325757 32.243014 
L 261.418257 32.243014 
Q 260.368257 32.243014 260.368257 33.293014 
L 260.368257 40.067701 
Q 260.368257 41.117701 261.418257 41.117701 
z
" clip-path="url(#p99d8ca92b1)" style="fill: #ffffff"/>
    </g>
    <g clip-path="url(#p99d8ca92b1)">
     <!-- 26 -->
     <g style="fill: #ff0000" transform="translate(261.418257 38.61192) scale(0.07 -0.07)">
      <use xlink:href="#DejaVuSans-32"/>
      <use xlink:href="#DejaVuSans-36" x="63.623047"/>
     </g>
    </g>
   </g>
   <g id="text_38">
    <g id="patch_44">
     <path d="M 219.303461 51.646401 
L 228.210961 51.646401 
Q 229.260961 51.646401 229.260961 50.596401 
L 229.260961 43.821713 
Q 229.260961 42.771713 228.210961 42.771713 
L 219.303461 42.771713 
Q 218.253461 42.771713 218.253461 43.821713 
L 218.253461 50.596401 
Q 218.253461 51.646401 219.303461 51.646401 
z
" clip-path="url(#p99d8ca92b1)" style="fill: #ffffff"/>
    </g>
    <g clip-path="url(#p99d8ca92b1)">
     <!-- 27 -->
     <g style="fill: #ff0000" transform="translate(219.303461 49.140619) scale(0.07 -0.07)">
      <use xlink:href="#DejaVuSans-32"/>
      <use xlink:href="#DejaVuSans-37" x="63.623047"/>
     </g>
    </g>
   </g>
   <g id="text_39">
    <g id="patch_45">
     <path d="M 261.418257 62.1751 
L 270.325757 62.1751 
Q 271.375757 62.1751 271.375757 61.1251 
L 271.375757 54.350412 
Q 271.375757 53.300412 270.325757 53.300412 
L 261.418257 53.300412 
Q 260.368257 53.300412 260.368257 54.350412 
L 260.368257 61.1251 
Q 260.368257 62.1751 261.418257 62.1751 
z
" clip-path="url(#p99d8ca92b1)" style="fill: #ffffff"/>
    </g>
    <g clip-path="url(#p99d8ca92b1)">
     <!-- 28 -->
     <g style="fill: #ff0000" transform="translate(261.418257 59.669319) scale(0.07 -0.07)">
      <use xlink:href="#DejaVuSans-32"/>
      <use xlink:href="#DejaVuSans-38" x="63.623047"/>
     </g>
    </g>
   </g>
   <g id="text_40">
    <g id="patch_46">
     <path d="M 303.533054 30.589002 
L 312.440554 30.589002 
Q 313.490554 30.589002 313.490554 29.539002 
L 313.490554 22.764315 
Q 313.490554 21.714315 312.440554 21.714315 
L 303.533054 21.714315 
Q 302.483054 21.714315 302.483054 22.764315 
L 302.483054 29.539002 
Q 302.483054 30.589002 303.533054 30.589002 
z
" clip-path="url(#p99d8ca92b1)" style="fill: #ffffff"/>
    </g>
    <g clip-path="url(#p99d8ca92b1)">
     <!-- 29 -->
     <g style="fill: #ff0000" transform="translate(303.533054 28.083221) scale(0.07 -0.07)">
      <use xlink:href="#DejaVuSans-32"/>
      <use xlink:href="#DejaVuSans-39" x="63.623047"/>
     </g>
    </g>
   </g>
   <g id="text_41">
    <g id="patch_47">
     <path d="M 261.418257 20.060303 
L 270.325757 20.060303 
Q 271.375757 20.060303 271.375757 19.010303 
L 271.375757 12.235616 
Q 271.375757 11.185616 270.325757 11.185616 
L 261.418257 11.185616 
Q 260.368257 11.185616 260.368257 12.235616 
L 260.368257 19.010303 
Q 260.368257 20.060303 261.418257 20.060303 
z
" clip-path="url(#p99d8ca92b1)" style="fill: #ffffff"/>
    </g>
    <g clip-path="url(#p99d8ca92b1)">
     <!-- 30 -->
     <g style="fill: #ff0000" transform="translate(261.418257 17.554522) scale(0.07 -0.07)">
      <use xlink:href="#DejaVuSans-33"/>
      <use xlink:href="#DejaVuSans-30" x="63.623047"/>
     </g>
    </g>
   </g>
   <g id="text_42">
    <g id="patch_48">
     <path d="M 219.303461 30.589002 
L 228.210961 30.589002 
Q 229.260961 30.589002 229.260961 29.539002 
L 229.260961 22.764315 
Q 229.260961 21.714315 228.210961 21.714315 
L 219.303461 21.714315 
Q 218.253461 21.714315 218.253461 22.764315 
L 218.253461 29.539002 
Q 218.253461 30.589002 219.303461 30.589002 
z
" clip-path="url(#p99d8ca92b1)" style="fill: #ffffff"/>
    </g>
    <g clip-path="url(#p99d8ca92b1)">
     <!-- 31 -->
     <g style="fill: #ff0000" transform="translate(219.303461 28.083221) scale(0.07 -0.07)">
      <use xlink:href="#DejaVuSans-33"/>
      <use xlink:href="#DejaVuSans-31" x="63.623047"/>
     </g>
    </g>
   </g>
   <g id="text_43">
    <g id="patch_49">
     <path d="M 345.647851 62.1751 
L 354.555351 62.1751 
Q 355.605351 62.1751 355.605351 61.1251 
L 355.605351 54.350412 
Q 355.605351 53.300412 354.555351 53.300412 
L 345.647851 53.300412 
Q 344.597851 53.300412 344.597851 54.350412 
L 344.597851 61.1251 
Q 344.597851 62.1751 345.647851 62.1751 
z
" clip-path="url(#p99d8ca92b1)" style="fill: #ffffff"/>
    </g>
    <g clip-path="url(#p99d8ca92b1)">
     <!-- 32 -->
     <g style="fill: #ff0000" transform="translate(345.647851 59.669319) scale(0.07 -0.07)">
      <use xlink:href="#DejaVuSans-33"/>
      <use xlink:href="#DejaVuSans-32" x="63.623047"/>
     </g>
    </g>
   </g>
   <g id="text_44">
    <g id="patch_50">
     <path d="M 387.762648 51.646401 
L 396.670148 51.646401 
Q 397.720148 51.646401 397.720148 50.596401 
L 397.720148 43.821713 
Q 397.720148 42.771713 396.670148 42.771713 
L 387.762648 42.771713 
Q 386.712648 42.771713 386.712648 43.821713 
L 386.712648 50.596401 
Q 386.712648 51.646401 387.762648 51.646401 
z
" clip-path="url(#p99d8ca92b1)" style="fill: #ffffff"/>
    </g>
    <g clip-path="url(#p99d8ca92b1)">
     <!-- 33 -->
     <g style="fill: #ff0000" transform="translate(387.762648 49.140619) scale(0.07 -0.07)">
      <use xlink:href="#DejaVuSans-33"/>
      <use xlink:href="#DejaVuSans-33" x="63.623047"/>
     </g>
    </g>
   </g>
   <g id="text_45">
    <g id="patch_51">
     <path d="M 345.647851 41.117701 
L 354.555351 41.117701 
Q 355.605351 41.117701 355.605351 40.067701 
L 355.605351 33.293014 
Q 355.605351 32.243014 354.555351 32.243014 
L 345.647851 32.243014 
Q 344.597851 32.243014 344.597851 33.293014 
L 344.597851 40.067701 
Q 344.597851 41.117701 345.647851 41.117701 
z
" clip-path="url(#p99d8ca92b1)" style="fill: #ffffff"/>
    </g>
    <g clip-path="url(#p99d8ca92b1)">
     <!-- 34 -->
     <g style="fill: #ff0000" transform="translate(345.647851 38.61192) scale(0.07 -0.07)">
      <use xlink:href="#DejaVuSans-33"/>
      <use xlink:href="#DejaVuSans-34" x="63.623047"/>
     </g>
    </g>
   </g>
   <g id="text_46">
    <g id="patch_52">
     <path d="M 387.762648 30.589002 
L 396.670148 30.589002 
Q 397.720148 30.589002 397.720148 29.539002 
L 397.720148 22.764315 
Q 397.720148 21.714315 396.670148 21.714315 
L 387.762648 21.714315 
Q 386.712648 21.714315 386.712648 22.764315 
L 386.712648 29.539002 
Q 386.712648 30.589002 387.762648 30.589002 
z
" clip-path="url(#p99d8ca92b1)" style="fill: #ffffff"/>
    </g>
    <g clip-path="url(#p99d8ca92b1)">
     <!-- 35 -->
     <g style="fill: #ff0000" transform="translate(387.762648 28.083221) scale(0.07 -0.07)">
      <use xlink:href="#DejaVuSans-33"/>
      <use xlink:href="#DejaVuSans-35" x="63.623047"/>
     </g>
    </g>
   </g>
   <g id="text_47">
    <g id="patch_53">
     <path d="M 345.647851 20.060303 
L 354.555351 20.060303 
Q 355.605351 20.060303 355.605351 19.010303 
L 355.605351 12.235616 
Q 355.605351 11.185616 354.555351 11.185616 
L 345.647851 11.185616 
Q 344.597851 11.185616 344.597851 12.235616 
L 344.597851 19.010303 
Q 344.597851 20.060303 345.647851 20.060303 
z
" clip-path="url(#p99d8ca92b1)" style="fill: #ffffff"/>
    </g>
    <g clip-path="url(#p99d8ca92b1)">
     <!-- 36 -->
     <g style="fill: #ff0000" transform="translate(345.647851 17.554522) scale(0.07 -0.07)">
      <use xlink:href="#DejaVuSans-33"/>
      <use xlink:href="#DejaVuSans-36" x="63.623047"/>
     </g>
    </g>
   </g>
   <g id="text_48">
    <g id="patch_54">
     <path d="M 429.877444 62.1751 
L 438.784944 62.1751 
Q 439.834944 62.1751 439.834944 61.1251 
L 439.834944 54.350412 
Q 439.834944 53.300412 438.784944 53.300412 
L 429.877444 53.300412 
Q 428.827444 53.300412 428.827444 54.350412 
L 428.827444 61.1251 
Q 428.827444 62.1751 429.877444 62.1751 
z
" clip-path="url(#p99d8ca92b1)" style="fill: #ffffff"/>
    </g>
    <g clip-path="url(#p99d8ca92b1)">
     <!-- 37 -->
     <g style="fill: #ff0000" transform="translate(429.877444 59.669319) scale(0.07 -0.07)">
      <use xlink:href="#DejaVuSans-33"/>
      <use xlink:href="#DejaVuSans-37" x="63.623047"/>
     </g>
    </g>
   </g>
   <g id="text_49">
    <g id="patch_55">
     <path d="M 471.992241 51.646401 
L 480.899741 51.646401 
Q 481.949741 51.646401 481.949741 50.596401 
L 481.949741 43.821713 
Q 481.949741 42.771713 480.899741 42.771713 
L 471.992241 42.771713 
Q 470.942241 42.771713 470.942241 43.821713 
L 470.942241 50.596401 
Q 470.942241 51.646401 471.992241 51.646401 
z
" clip-path="url(#p99d8ca92b1)" style="fill: #ffffff"/>
    </g>
    <g clip-path="url(#p99d8ca92b1)">
     <!-- 38 -->
     <g style="fill: #ff0000" transform="translate(471.992241 49.140619) scale(0.07 -0.07)">
      <use xlink:href="#DejaVuSans-33"/>
      <use xlink:href="#DejaVuSans-38" x="63.623047"/>
     </g>
    </g>
   </g>
   <g id="text_50">
    <g id="patch_56">
     <path d="M 429.877444 41.117701 
L 438.784944 41.117701 
Q 439.834944 41.117701 439.834944 40.067701 
L 439.834944 33.293014 
Q 439.834944 32.243014 438.784944 32.243014 
L 429.877444 32.243014 
Q 428.827444 32.243014 428.827444 33.293014 
L 428.827444 40.067701 
Q 428.827444 41.117701 429.877444 41.117701 
z
" clip-path="url(#p99d8ca92b1)" style="fill: #ffffff"/>
    </g>
    <g clip-path="url(#p99d8ca92b1)">
     <!-- 39 -->
     <g style="fill: #ff0000" transform="translate(429.877444 38.61192) scale(0.07 -0.07)">
      <use xlink:href="#DejaVuSans-33"/>
      <use xlink:href="#DejaVuSans-39" x="63.623047"/>
     </g>
    </g>
   </g>
   <g id="text_51">
    <g id="patch_57">
     <path d="M 471.992241 30.589002 
L 480.899741 30.589002 
Q 481.949741 30.589002 481.949741 29.539002 
L 481.949741 22.764315 
Q 481.949741 21.714315 480.899741 21.714315 
L 471.992241 21.714315 
Q 470.942241 21.714315 470.942241 22.764315 
L 470.942241 29.539002 
Q 470.942241 30.589002 471.992241 30.589002 
z
" clip-path="url(#p99d8ca92b1)" style="fill: #ffffff"/>
    </g>
    <g clip-path="url(#p99d8ca92b1)">
     <!-- 40 -->
     <g style="fill: #ff0000" transform="translate(471.992241 28.083221) scale(0.07 -0.07)">
      <use xlink:href="#DejaVuSans-34"/>
      <use xlink:href="#DejaVuSans-30" x="63.623047"/>
     </g>
    </g>
   </g>
   <g id="text_52">
    <g id="patch_58">
     <path d="M 429.877444 20.060303 
L 438.784944 20.060303 
Q 439.834944 20.060303 439.834944 19.010303 
L 439.834944 12.235616 
Q 439.834944 11.185616 438.784944 11.185616 
L 429.877444 11.185616 
Q 428.827444 11.185616 428.827444 12.235616 
L 428.827444 19.010303 
Q 428.827444 20.060303 429.877444 20.060303 
z
" clip-path="url(#p99d8ca92b1)" style="fill: #ffffff"/>
    </g>
    <g clip-path="url(#p99d8ca92b1)">
     <!-- 41 -->
     <g style="fill: #ff0000" transform="translate(429.877444 17.554522) scale(0.07 -0.07)">
      <use xlink:href="#DejaVuSans-34"/>
      <use xlink:href="#DejaVuSans-31" x="63.623047"/>
     </g>
    </g>
   </g>
   <g id="text_53">
    <g id="patch_59">
     <path d="M 177.188664 41.117701 
L 186.096164 41.117701 
Q 187.146164 41.117701 187.146164 40.067701 
L 187.146164 33.293014 
Q 187.146164 32.243014 186.096164 32.243014 
L 177.188664 32.243014 
Q 176.138664 32.243014 176.138664 33.293014 
L 176.138664 40.067701 
Q 176.138664 41.117701 177.188664 41.117701 
z
" clip-path="url(#p99d8ca92b1)" style="fill: #ffffff"/>
    </g>
    <g clip-path="url(#p99d8ca92b1)">
     <!-- 42 -->
     <g style="fill: #ff0000" transform="translate(177.188664 38.61192) scale(0.07 -0.07)">
      <use xlink:href="#DejaVuSans-34"/>
      <use xlink:href="#DejaVuSans-32" x="63.623047"/>
     </g>
    </g>
   </g>
   <g id="text_54">
    <g id="patch_60">
     <path d="M 177.188664 20.060303 
L 186.096164 20.060303 
Q 187.146164 20.060303 187.146164 19.010303 
L 187.146164 12.235616 
Q 187.146164 11.185616 186.096164 11.185616 
L 177.188664 11.185616 
Q 176.138664 11.185616 176.138664 12.235616 
L 176.138664 19.010303 
Q 176.138664 20.060303 177.188664 20.060303 
z
" clip-path="url(#p99d8ca92b1)" style="fill: #ffffff"/>
    </g>
    <g clip-path="url(#p99d8ca92b1)">
     <!-- 43 -->
     <g style="fill: #ff0000" transform="translate(177.188664 17.554522) scale(0.07 -0.07)">
      <use xlink:href="#DejaVuSans-34"/>
      <use xlink:href="#DejaVuSans-33" x="63.623047"/>
     </g>
    </g>
   </g>
   <g id="text_55">
    <g id="patch_61">
     <path d="M 177.188664 62.1751 
L 186.096164 62.1751 
Q 187.146164 62.1751 187.146164 61.1251 
L 187.146164 54.350412 
Q 187.146164 53.300412 186.096164 53.300412 
L 177.188664 53.300412 
Q 176.138664 53.300412 176.138664 54.350412 
L 176.138664 61.1251 
Q 176.138664 62.1751 177.188664 62.1751 
z
" clip-path="url(#p99d8ca92b1)" style="fill: #ffffff"/>
    </g>
    <g clip-path="url(#p99d8ca92b1)">
     <!-- 44 -->
     <g style="fill: #ff0000" transform="translate(177.188664 59.669319) scale(0.07 -0.07)">
      <use xlink:href="#DejaVuSans-34"/>
      <use xlink:href="#DejaVuSans-34" x="63.623047"/>
     </g>
    </g>
   </g>
  </g>
 </g>
 <defs>
  <clipPath id="p99d8ca92b1">
   <rect x="34.240625" y="7.2" width="463.262765" height="58.960715"/>
  </clipPath>
 </defs>
</svg>
