<?xml version="1.0" encoding="utf-8" standalone="no"?>
<!DOCTYPE svg PUBLIC "-//W3C//DTD SVG 1.1//EN"
  "http://www.w3.org/Graphics/SVG/1.1/DTD/svg11.dtd">
<svg xmlns:xlink="http://www.w3.org/1999/xlink" width="521.14754pt" height="392.530129pt" viewBox="0 0 521.14754 392.530129" xmlns="http://www.w3.org/2000/svg" version="1.1">
 <metadata>
  <rdf:RDF xmlns:dc="http://purl.org/dc/elements/1.1/" xmlns:cc="http://creativecommons.org/ns#" xmlns:rdf="http://www.w3.org/1999/02/22-rdf-syntax-ns#">
   <cc:Work>
    <dc:type rdf:resource="http://purl.org/dc/dcmitype/StillImage"/>
    <dc:date>2025-02-25T08:59:18.006933</dc:date>
    <dc:format>image/svg+xml</dc:format>
    <dc:creator>
     <cc:Agent>
      <dc:title>Matplotlib v3.6.3, https://matplotlib.org/</dc:title>
     </cc:Agent>
    </dc:creator>
   </cc:Work>
  </rdf:RDF>
 </metadata>
 <defs>
  <style type="text/css">*{stroke-linejoin: round; stroke-linecap: butt}</style>
 </defs>
 <g id="figure_1">
  <g id="patch_1">
   <path d="M 0 392.530129 
L 521.14754 392.530129 
L 521.14754 0 
L 0 0 
z
" style="fill: #ffffff"/>
  </g>
  <g id="axes_1">
   <g id="patch_2">
    <path d="M 50.165625 163.193057 
L 381.0676 163.193057 
L 381.0676 9.768399 
L 50.165625 9.768399 
z
" style="fill: #ffffff"/>
   </g>
   <g id="matplotlib.axis_1">
    <g id="xtick_1">
     <g id="line2d_1">
      <path d="M 65.206624 163.193057 
L 65.206624 9.768399 
" clip-path="url(#p24f8c5689c)" style="fill: none; stroke-dasharray: 2.96,1.28; stroke-dashoffset: 0; stroke: #808080; stroke-width: 0.8"/>
     </g>
     <g id="line2d_2">
      <defs>
       <path id="m2651db9d8e" d="M 0 0 
L 0 3.5 
" style="stroke: #000000; stroke-width: 0.8"/>
      </defs>
      <g>
       <use xlink:href="#m2651db9d8e" x="65.206624" y="163.193057" style="stroke: #000000; stroke-width: 0.8"/>
      </g>
     </g>
     <g id="text_1">
      <!-- 0.0 -->
      <g transform="translate(57.255061 177.791494) scale(0.1 -0.1)">
       <defs>
        <path id="DejaVuSans-30" d="M 2034 4250 
Q 1547 4250 1301 3770 
Q 1056 3291 1056 2328 
Q 1056 1369 1301 889 
Q 1547 409 2034 409 
Q 2525 409 2770 889 
Q 3016 1369 3016 2328 
Q 3016 3291 2770 3770 
Q 2525 4250 2034 4250 
z
M 2034 4750 
Q 2819 4750 3233 4129 
Q 3647 3509 3647 2328 
Q 3647 1150 3233 529 
Q 2819 -91 2034 -91 
Q 1250 -91 836 529 
Q 422 1150 422 2328 
Q 422 3509 836 4129 
Q 1250 4750 2034 4750 
z
" transform="scale(0.015625)"/>
        <path id="DejaVuSans-2e" d="M 684 794 
L 1344 794 
L 1344 0 
L 684 0 
L 684 794 
z
" transform="scale(0.015625)"/>
       </defs>
       <use xlink:href="#DejaVuSans-30"/>
       <use xlink:href="#DejaVuSans-2e" x="63.623047"/>
       <use xlink:href="#DejaVuSans-30" x="95.410156"/>
      </g>
     </g>
    </g>
    <g id="xtick_2">
     <g id="line2d_3">
      <path d="M 116.405653 163.193057 
L 116.405653 9.768399 
" clip-path="url(#p24f8c5689c)" style="fill: none; stroke-dasharray: 2.96,1.28; stroke-dashoffset: 0; stroke: #808080; stroke-width: 0.8"/>
     </g>
     <g id="line2d_4">
      <g>
       <use xlink:href="#m2651db9d8e" x="116.405653" y="163.193057" style="stroke: #000000; stroke-width: 0.8"/>
      </g>
     </g>
     <g id="text_2">
      <!-- 0.1 -->
      <g transform="translate(108.454091 177.791494) scale(0.1 -0.1)">
       <defs>
        <path id="DejaVuSans-31" d="M 794 531 
L 1825 531 
L 1825 4091 
L 703 3866 
L 703 4441 
L 1819 4666 
L 2450 4666 
L 2450 531 
L 3481 531 
L 3481 0 
L 794 0 
L 794 531 
z
" transform="scale(0.015625)"/>
       </defs>
       <use xlink:href="#DejaVuSans-30"/>
       <use xlink:href="#DejaVuSans-2e" x="63.623047"/>
       <use xlink:href="#DejaVuSans-31" x="95.410156"/>
      </g>
     </g>
    </g>
    <g id="xtick_3">
     <g id="line2d_5">
      <path d="M 167.604682 163.193057 
L 167.604682 9.768399 
" clip-path="url(#p24f8c5689c)" style="fill: none; stroke-dasharray: 2.96,1.28; stroke-dashoffset: 0; stroke: #808080; stroke-width: 0.8"/>
     </g>
     <g id="line2d_6">
      <g>
       <use xlink:href="#m2651db9d8e" x="167.604682" y="163.193057" style="stroke: #000000; stroke-width: 0.8"/>
      </g>
     </g>
     <g id="text_3">
      <!-- 0.2 -->
      <g transform="translate(159.65312 177.791494) scale(0.1 -0.1)">
       <defs>
        <path id="DejaVuSans-32" d="M 1228 531 
L 3431 531 
L 3431 0 
L 469 0 
L 469 531 
Q 828 903 1448 1529 
Q 2069 2156 2228 2338 
Q 2531 2678 2651 2914 
Q 2772 3150 2772 3378 
Q 2772 3750 2511 3984 
Q 2250 4219 1831 4219 
Q 1534 4219 1204 4116 
Q 875 4013 500 3803 
L 500 4441 
Q 881 4594 1212 4672 
Q 1544 4750 1819 4750 
Q 2544 4750 2975 4387 
Q 3406 4025 3406 3419 
Q 3406 3131 3298 2873 
Q 3191 2616 2906 2266 
Q 2828 2175 2409 1742 
Q 1991 1309 1228 531 
z
" transform="scale(0.015625)"/>
       </defs>
       <use xlink:href="#DejaVuSans-30"/>
       <use xlink:href="#DejaVuSans-2e" x="63.623047"/>
       <use xlink:href="#DejaVuSans-32" x="95.410156"/>
      </g>
     </g>
    </g>
    <g id="xtick_4">
     <g id="line2d_7">
      <path d="M 218.803712 163.193057 
L 218.803712 9.768399 
" clip-path="url(#p24f8c5689c)" style="fill: none; stroke-dasharray: 2.96,1.28; stroke-dashoffset: 0; stroke: #808080; stroke-width: 0.8"/>
     </g>
     <g id="line2d_8">
      <g>
       <use xlink:href="#m2651db9d8e" x="218.803712" y="163.193057" style="stroke: #000000; stroke-width: 0.8"/>
      </g>
     </g>
     <g id="text_4">
      <!-- 0.3 -->
      <g transform="translate(210.852149 177.791494) scale(0.1 -0.1)">
       <defs>
        <path id="DejaVuSans-33" d="M 2597 2516 
Q 3050 2419 3304 2112 
Q 3559 1806 3559 1356 
Q 3559 666 3084 287 
Q 2609 -91 1734 -91 
Q 1441 -91 1130 -33 
Q 819 25 488 141 
L 488 750 
Q 750 597 1062 519 
Q 1375 441 1716 441 
Q 2309 441 2620 675 
Q 2931 909 2931 1356 
Q 2931 1769 2642 2001 
Q 2353 2234 1838 2234 
L 1294 2234 
L 1294 2753 
L 1863 2753 
Q 2328 2753 2575 2939 
Q 2822 3125 2822 3475 
Q 2822 3834 2567 4026 
Q 2313 4219 1838 4219 
Q 1578 4219 1281 4162 
Q 984 4106 628 3988 
L 628 4550 
Q 988 4650 1302 4700 
Q 1616 4750 1894 4750 
Q 2613 4750 3031 4423 
Q 3450 4097 3450 3541 
Q 3450 3153 3228 2886 
Q 3006 2619 2597 2516 
z
" transform="scale(0.015625)"/>
       </defs>
       <use xlink:href="#DejaVuSans-30"/>
       <use xlink:href="#DejaVuSans-2e" x="63.623047"/>
       <use xlink:href="#DejaVuSans-33" x="95.410156"/>
      </g>
     </g>
    </g>
    <g id="xtick_5">
     <g id="line2d_9">
      <path d="M 270.002741 163.193057 
L 270.002741 9.768399 
" clip-path="url(#p24f8c5689c)" style="fill: none; stroke-dasharray: 2.96,1.28; stroke-dashoffset: 0; stroke: #808080; stroke-width: 0.8"/>
     </g>
     <g id="line2d_10">
      <g>
       <use xlink:href="#m2651db9d8e" x="270.002741" y="163.193057" style="stroke: #000000; stroke-width: 0.8"/>
      </g>
     </g>
     <g id="text_5">
      <!-- 0.4 -->
      <g transform="translate(262.051179 177.791494) scale(0.1 -0.1)">
       <defs>
        <path id="DejaVuSans-34" d="M 2419 4116 
L 825 1625 
L 2419 1625 
L 2419 4116 
z
M 2253 4666 
L 3047 4666 
L 3047 1625 
L 3713 1625 
L 3713 1100 
L 3047 1100 
L 3047 0 
L 2419 0 
L 2419 1100 
L 313 1100 
L 313 1709 
L 2253 4666 
z
" transform="scale(0.015625)"/>
       </defs>
       <use xlink:href="#DejaVuSans-30"/>
       <use xlink:href="#DejaVuSans-2e" x="63.623047"/>
       <use xlink:href="#DejaVuSans-34" x="95.410156"/>
      </g>
     </g>
    </g>
    <g id="xtick_6">
     <g id="line2d_11">
      <path d="M 321.20177 163.193057 
L 321.20177 9.768399 
" clip-path="url(#p24f8c5689c)" style="fill: none; stroke-dasharray: 2.96,1.28; stroke-dashoffset: 0; stroke: #808080; stroke-width: 0.8"/>
     </g>
     <g id="line2d_12">
      <g>
       <use xlink:href="#m2651db9d8e" x="321.20177" y="163.193057" style="stroke: #000000; stroke-width: 0.8"/>
      </g>
     </g>
     <g id="text_6">
      <!-- 0.5 -->
      <g transform="translate(313.250208 177.791494) scale(0.1 -0.1)">
       <defs>
        <path id="DejaVuSans-35" d="M 691 4666 
L 3169 4666 
L 3169 4134 
L 1269 4134 
L 1269 2991 
Q 1406 3038 1543 3061 
Q 1681 3084 1819 3084 
Q 2600 3084 3056 2656 
Q 3513 2228 3513 1497 
Q 3513 744 3044 326 
Q 2575 -91 1722 -91 
Q 1428 -91 1123 -41 
Q 819 9 494 109 
L 494 744 
Q 775 591 1075 516 
Q 1375 441 1709 441 
Q 2250 441 2565 725 
Q 2881 1009 2881 1497 
Q 2881 1984 2565 2268 
Q 2250 2553 1709 2553 
Q 1456 2553 1204 2497 
Q 953 2441 691 2322 
L 691 4666 
z
" transform="scale(0.015625)"/>
       </defs>
       <use xlink:href="#DejaVuSans-30"/>
       <use xlink:href="#DejaVuSans-2e" x="63.623047"/>
       <use xlink:href="#DejaVuSans-35" x="95.410156"/>
      </g>
     </g>
    </g>
    <g id="xtick_7">
     <g id="line2d_13">
      <path d="M 372.4008 163.193057 
L 372.4008 9.768399 
" clip-path="url(#p24f8c5689c)" style="fill: none; stroke-dasharray: 2.96,1.28; stroke-dashoffset: 0; stroke: #808080; stroke-width: 0.8"/>
     </g>
     <g id="line2d_14">
      <g>
       <use xlink:href="#m2651db9d8e" x="372.4008" y="163.193057" style="stroke: #000000; stroke-width: 0.8"/>
      </g>
     </g>
     <g id="text_7">
      <!-- 0.6 -->
      <g transform="translate(364.449237 177.791494) scale(0.1 -0.1)">
       <defs>
        <path id="DejaVuSans-36" d="M 2113 2584 
Q 1688 2584 1439 2293 
Q 1191 2003 1191 1497 
Q 1191 994 1439 701 
Q 1688 409 2113 409 
Q 2538 409 2786 701 
Q 3034 994 3034 1497 
Q 3034 2003 2786 2293 
Q 2538 2584 2113 2584 
z
M 3366 4563 
L 3366 3988 
Q 3128 4100 2886 4159 
Q 2644 4219 2406 4219 
Q 1781 4219 1451 3797 
Q 1122 3375 1075 2522 
Q 1259 2794 1537 2939 
Q 1816 3084 2150 3084 
Q 2853 3084 3261 2657 
Q 3669 2231 3669 1497 
Q 3669 778 3244 343 
Q 2819 -91 2113 -91 
Q 1303 -91 875 529 
Q 447 1150 447 2328 
Q 447 3434 972 4092 
Q 1497 4750 2381 4750 
Q 2619 4750 2861 4703 
Q 3103 4656 3366 4563 
z
" transform="scale(0.015625)"/>
       </defs>
       <use xlink:href="#DejaVuSans-30"/>
       <use xlink:href="#DejaVuSans-2e" x="63.623047"/>
       <use xlink:href="#DejaVuSans-36" x="95.410156"/>
      </g>
     </g>
    </g>
    <g id="text_8">
     <!-- Radial displacement at outer face $u_b$ -->
     <g transform="translate(123.866612 191.471182) scale(0.1 -0.1)">
      <defs>
       <path id="DejaVuSans-52" d="M 2841 2188 
Q 3044 2119 3236 1894 
Q 3428 1669 3622 1275 
L 4263 0 
L 3584 0 
L 2988 1197 
Q 2756 1666 2539 1819 
Q 2322 1972 1947 1972 
L 1259 1972 
L 1259 0 
L 628 0 
L 628 4666 
L 2053 4666 
Q 2853 4666 3247 4331 
Q 3641 3997 3641 3322 
Q 3641 2881 3436 2590 
Q 3231 2300 2841 2188 
z
M 1259 4147 
L 1259 2491 
L 2053 2491 
Q 2509 2491 2742 2702 
Q 2975 2913 2975 3322 
Q 2975 3731 2742 3939 
Q 2509 4147 2053 4147 
L 1259 4147 
z
" transform="scale(0.015625)"/>
       <path id="DejaVuSans-61" d="M 2194 1759 
Q 1497 1759 1228 1600 
Q 959 1441 959 1056 
Q 959 750 1161 570 
Q 1363 391 1709 391 
Q 2188 391 2477 730 
Q 2766 1069 2766 1631 
L 2766 1759 
L 2194 1759 
z
M 3341 1997 
L 3341 0 
L 2766 0 
L 2766 531 
Q 2569 213 2275 61 
Q 1981 -91 1556 -91 
Q 1019 -91 701 211 
Q 384 513 384 1019 
Q 384 1609 779 1909 
Q 1175 2209 1959 2209 
L 2766 2209 
L 2766 2266 
Q 2766 2663 2505 2880 
Q 2244 3097 1772 3097 
Q 1472 3097 1187 3025 
Q 903 2953 641 2809 
L 641 3341 
Q 956 3463 1253 3523 
Q 1550 3584 1831 3584 
Q 2591 3584 2966 3190 
Q 3341 2797 3341 1997 
z
" transform="scale(0.015625)"/>
       <path id="DejaVuSans-64" d="M 2906 2969 
L 2906 4863 
L 3481 4863 
L 3481 0 
L 2906 0 
L 2906 525 
Q 2725 213 2448 61 
Q 2172 -91 1784 -91 
Q 1150 -91 751 415 
Q 353 922 353 1747 
Q 353 2572 751 3078 
Q 1150 3584 1784 3584 
Q 2172 3584 2448 3432 
Q 2725 3281 2906 2969 
z
M 947 1747 
Q 947 1113 1208 752 
Q 1469 391 1925 391 
Q 2381 391 2643 752 
Q 2906 1113 2906 1747 
Q 2906 2381 2643 2742 
Q 2381 3103 1925 3103 
Q 1469 3103 1208 2742 
Q 947 2381 947 1747 
z
" transform="scale(0.015625)"/>
       <path id="DejaVuSans-69" d="M 603 3500 
L 1178 3500 
L 1178 0 
L 603 0 
L 603 3500 
z
M 603 4863 
L 1178 4863 
L 1178 4134 
L 603 4134 
L 603 4863 
z
" transform="scale(0.015625)"/>
       <path id="DejaVuSans-6c" d="M 603 4863 
L 1178 4863 
L 1178 0 
L 603 0 
L 603 4863 
z
" transform="scale(0.015625)"/>
       <path id="DejaVuSans-20" transform="scale(0.015625)"/>
       <path id="DejaVuSans-73" d="M 2834 3397 
L 2834 2853 
Q 2591 2978 2328 3040 
Q 2066 3103 1784 3103 
Q 1356 3103 1142 2972 
Q 928 2841 928 2578 
Q 928 2378 1081 2264 
Q 1234 2150 1697 2047 
L 1894 2003 
Q 2506 1872 2764 1633 
Q 3022 1394 3022 966 
Q 3022 478 2636 193 
Q 2250 -91 1575 -91 
Q 1294 -91 989 -36 
Q 684 19 347 128 
L 347 722 
Q 666 556 975 473 
Q 1284 391 1588 391 
Q 1994 391 2212 530 
Q 2431 669 2431 922 
Q 2431 1156 2273 1281 
Q 2116 1406 1581 1522 
L 1381 1569 
Q 847 1681 609 1914 
Q 372 2147 372 2553 
Q 372 3047 722 3315 
Q 1072 3584 1716 3584 
Q 2034 3584 2315 3537 
Q 2597 3491 2834 3397 
z
" transform="scale(0.015625)"/>
       <path id="DejaVuSans-70" d="M 1159 525 
L 1159 -1331 
L 581 -1331 
L 581 3500 
L 1159 3500 
L 1159 2969 
Q 1341 3281 1617 3432 
Q 1894 3584 2278 3584 
Q 2916 3584 3314 3078 
Q 3713 2572 3713 1747 
Q 3713 922 3314 415 
Q 2916 -91 2278 -91 
Q 1894 -91 1617 61 
Q 1341 213 1159 525 
z
M 3116 1747 
Q 3116 2381 2855 2742 
Q 2594 3103 2138 3103 
Q 1681 3103 1420 2742 
Q 1159 2381 1159 1747 
Q 1159 1113 1420 752 
Q 1681 391 2138 391 
Q 2594 391 2855 752 
Q 3116 1113 3116 1747 
z
" transform="scale(0.015625)"/>
       <path id="DejaVuSans-63" d="M 3122 3366 
L 3122 2828 
Q 2878 2963 2633 3030 
Q 2388 3097 2138 3097 
Q 1578 3097 1268 2742 
Q 959 2388 959 1747 
Q 959 1106 1268 751 
Q 1578 397 2138 397 
Q 2388 397 2633 464 
Q 2878 531 3122 666 
L 3122 134 
Q 2881 22 2623 -34 
Q 2366 -91 2075 -91 
Q 1284 -91 818 406 
Q 353 903 353 1747 
Q 353 2603 823 3093 
Q 1294 3584 2113 3584 
Q 2378 3584 2631 3529 
Q 2884 3475 3122 3366 
z
" transform="scale(0.015625)"/>
       <path id="DejaVuSans-65" d="M 3597 1894 
L 3597 1613 
L 953 1613 
Q 991 1019 1311 708 
Q 1631 397 2203 397 
Q 2534 397 2845 478 
Q 3156 559 3463 722 
L 3463 178 
Q 3153 47 2828 -22 
Q 2503 -91 2169 -91 
Q 1331 -91 842 396 
Q 353 884 353 1716 
Q 353 2575 817 3079 
Q 1281 3584 2069 3584 
Q 2775 3584 3186 3129 
Q 3597 2675 3597 1894 
z
M 3022 2063 
Q 3016 2534 2758 2815 
Q 2500 3097 2075 3097 
Q 1594 3097 1305 2825 
Q 1016 2553 972 2059 
L 3022 2063 
z
" transform="scale(0.015625)"/>
       <path id="DejaVuSans-6d" d="M 3328 2828 
Q 3544 3216 3844 3400 
Q 4144 3584 4550 3584 
Q 5097 3584 5394 3201 
Q 5691 2819 5691 2113 
L 5691 0 
L 5113 0 
L 5113 2094 
Q 5113 2597 4934 2840 
Q 4756 3084 4391 3084 
Q 3944 3084 3684 2787 
Q 3425 2491 3425 1978 
L 3425 0 
L 2847 0 
L 2847 2094 
Q 2847 2600 2669 2842 
Q 2491 3084 2119 3084 
Q 1678 3084 1418 2786 
Q 1159 2488 1159 1978 
L 1159 0 
L 581 0 
L 581 3500 
L 1159 3500 
L 1159 2956 
Q 1356 3278 1631 3431 
Q 1906 3584 2284 3584 
Q 2666 3584 2933 3390 
Q 3200 3197 3328 2828 
z
" transform="scale(0.015625)"/>
       <path id="DejaVuSans-6e" d="M 3513 2113 
L 3513 0 
L 2938 0 
L 2938 2094 
Q 2938 2591 2744 2837 
Q 2550 3084 2163 3084 
Q 1697 3084 1428 2787 
Q 1159 2491 1159 1978 
L 1159 0 
L 581 0 
L 581 3500 
L 1159 3500 
L 1159 2956 
Q 1366 3272 1645 3428 
Q 1925 3584 2291 3584 
Q 2894 3584 3203 3211 
Q 3513 2838 3513 2113 
z
" transform="scale(0.015625)"/>
       <path id="DejaVuSans-74" d="M 1172 4494 
L 1172 3500 
L 2356 3500 
L 2356 3053 
L 1172 3053 
L 1172 1153 
Q 1172 725 1289 603 
Q 1406 481 1766 481 
L 2356 481 
L 2356 0 
L 1766 0 
Q 1100 0 847 248 
Q 594 497 594 1153 
L 594 3053 
L 172 3053 
L 172 3500 
L 594 3500 
L 594 4494 
L 1172 4494 
z
" transform="scale(0.015625)"/>
       <path id="DejaVuSans-6f" d="M 1959 3097 
Q 1497 3097 1228 2736 
Q 959 2375 959 1747 
Q 959 1119 1226 758 
Q 1494 397 1959 397 
Q 2419 397 2687 759 
Q 2956 1122 2956 1747 
Q 2956 2369 2687 2733 
Q 2419 3097 1959 3097 
z
M 1959 3584 
Q 2709 3584 3137 3096 
Q 3566 2609 3566 1747 
Q 3566 888 3137 398 
Q 2709 -91 1959 -91 
Q 1206 -91 779 398 
Q 353 888 353 1747 
Q 353 2609 779 3096 
Q 1206 3584 1959 3584 
z
" transform="scale(0.015625)"/>
       <path id="DejaVuSans-75" d="M 544 1381 
L 544 3500 
L 1119 3500 
L 1119 1403 
Q 1119 906 1312 657 
Q 1506 409 1894 409 
Q 2359 409 2629 706 
Q 2900 1003 2900 1516 
L 2900 3500 
L 3475 3500 
L 3475 0 
L 2900 0 
L 2900 538 
Q 2691 219 2414 64 
Q 2138 -91 1772 -91 
Q 1169 -91 856 284 
Q 544 659 544 1381 
z
M 1991 3584 
L 1991 3584 
z
" transform="scale(0.015625)"/>
       <path id="DejaVuSans-72" d="M 2631 2963 
Q 2534 3019 2420 3045 
Q 2306 3072 2169 3072 
Q 1681 3072 1420 2755 
Q 1159 2438 1159 1844 
L 1159 0 
L 581 0 
L 581 3500 
L 1159 3500 
L 1159 2956 
Q 1341 3275 1631 3429 
Q 1922 3584 2338 3584 
Q 2397 3584 2469 3576 
Q 2541 3569 2628 3553 
L 2631 2963 
z
" transform="scale(0.015625)"/>
       <path id="DejaVuSans-66" d="M 2375 4863 
L 2375 4384 
L 1825 4384 
Q 1516 4384 1395 4259 
Q 1275 4134 1275 3809 
L 1275 3500 
L 2222 3500 
L 2222 3053 
L 1275 3053 
L 1275 0 
L 697 0 
L 697 3053 
L 147 3053 
L 147 3500 
L 697 3500 
L 697 3744 
Q 697 4328 969 4595 
Q 1241 4863 1831 4863 
L 2375 4863 
z
" transform="scale(0.015625)"/>
       <path id="DejaVuSans-Oblique-75" d="M 428 1388 
L 838 3500 
L 1416 3500 
L 1006 1409 
Q 975 1256 961 1147 
Q 947 1038 947 966 
Q 947 700 1109 554 
Q 1272 409 1569 409 
Q 2031 409 2368 721 
Q 2706 1034 2809 1563 
L 3194 3500 
L 3769 3500 
L 3091 0 
L 2516 0 
L 2631 550 
Q 2388 244 2052 76 
Q 1716 -91 1338 -91 
Q 878 -91 622 161 
Q 366 413 366 863 
Q 366 956 381 1097 
Q 397 1238 428 1388 
z
" transform="scale(0.015625)"/>
       <path id="DejaVuSans-Oblique-62" d="M 3169 2138 
Q 3169 2591 2961 2847 
Q 2753 3103 2388 3103 
Q 2122 3103 1889 2973 
Q 1656 2844 1484 2597 
Q 1303 2338 1198 1995 
Q 1094 1653 1094 1313 
Q 1094 881 1298 636 
Q 1503 391 1863 391 
Q 2134 391 2365 517 
Q 2597 644 2772 891 
Q 2950 1147 3059 1487 
Q 3169 1828 3169 2138 
z
M 1381 2969 
Q 1594 3256 1914 3420 
Q 2234 3584 2584 3584 
Q 3122 3584 3439 3221 
Q 3756 2859 3756 2241 
Q 3756 1734 3570 1259 
Q 3384 784 3041 416 
Q 2816 172 2522 40 
Q 2228 -91 1906 -91 
Q 1566 -91 1316 65 
Q 1066 222 909 531 
L 806 0 
L 231 0 
L 1178 4863 
L 1753 4863 
L 1381 2969 
z
" transform="scale(0.015625)"/>
      </defs>
      <use xlink:href="#DejaVuSans-52" transform="translate(0 0.015625)"/>
      <use xlink:href="#DejaVuSans-61" transform="translate(69.482422 0.015625)"/>
      <use xlink:href="#DejaVuSans-64" transform="translate(130.761719 0.015625)"/>
      <use xlink:href="#DejaVuSans-69" transform="translate(194.238281 0.015625)"/>
      <use xlink:href="#DejaVuSans-61" transform="translate(222.021484 0.015625)"/>
      <use xlink:href="#DejaVuSans-6c" transform="translate(283.300781 0.015625)"/>
      <use xlink:href="#DejaVuSans-20" transform="translate(311.083984 0.015625)"/>
      <use xlink:href="#DejaVuSans-64" transform="translate(342.871094 0.015625)"/>
      <use xlink:href="#DejaVuSans-69" transform="translate(406.347656 0.015625)"/>
      <use xlink:href="#DejaVuSans-73" transform="translate(434.130859 0.015625)"/>
      <use xlink:href="#DejaVuSans-70" transform="translate(486.230469 0.015625)"/>
      <use xlink:href="#DejaVuSans-6c" transform="translate(549.707031 0.015625)"/>
      <use xlink:href="#DejaVuSans-61" transform="translate(577.490234 0.015625)"/>
      <use xlink:href="#DejaVuSans-63" transform="translate(638.769531 0.015625)"/>
      <use xlink:href="#DejaVuSans-65" transform="translate(693.75 0.015625)"/>
      <use xlink:href="#DejaVuSans-6d" transform="translate(755.273438 0.015625)"/>
      <use xlink:href="#DejaVuSans-65" transform="translate(852.685547 0.015625)"/>
      <use xlink:href="#DejaVuSans-6e" transform="translate(914.208984 0.015625)"/>
      <use xlink:href="#DejaVuSans-74" transform="translate(977.587891 0.015625)"/>
      <use xlink:href="#DejaVuSans-20" transform="translate(1016.796875 0.015625)"/>
      <use xlink:href="#DejaVuSans-61" transform="translate(1048.583984 0.015625)"/>
      <use xlink:href="#DejaVuSans-74" transform="translate(1109.863281 0.015625)"/>
      <use xlink:href="#DejaVuSans-20" transform="translate(1149.072266 0.015625)"/>
      <use xlink:href="#DejaVuSans-6f" transform="translate(1180.859375 0.015625)"/>
      <use xlink:href="#DejaVuSans-75" transform="translate(1242.041016 0.015625)"/>
      <use xlink:href="#DejaVuSans-74" transform="translate(1305.419922 0.015625)"/>
      <use xlink:href="#DejaVuSans-65" transform="translate(1344.628906 0.015625)"/>
      <use xlink:href="#DejaVuSans-72" transform="translate(1406.152344 0.015625)"/>
      <use xlink:href="#DejaVuSans-20" transform="translate(1447.265625 0.015625)"/>
      <use xlink:href="#DejaVuSans-66" transform="translate(1479.052734 0.015625)"/>
      <use xlink:href="#DejaVuSans-61" transform="translate(1514.257812 0.015625)"/>
      <use xlink:href="#DejaVuSans-63" transform="translate(1575.537109 0.015625)"/>
      <use xlink:href="#DejaVuSans-65" transform="translate(1630.517578 0.015625)"/>
      <use xlink:href="#DejaVuSans-20" transform="translate(1692.041016 0.015625)"/>
      <use xlink:href="#DejaVuSans-Oblique-75" transform="translate(1723.828125 0.015625)"/>
      <use xlink:href="#DejaVuSans-Oblique-62" transform="translate(1787.207031 -16.390625) scale(0.7)"/>
     </g>
    </g>
   </g>
   <g id="matplotlib.axis_2">
    <g id="ytick_1">
     <g id="line2d_15">
      <path d="M 50.165625 156.219209 
L 381.0676 156.219209 
" clip-path="url(#p24f8c5689c)" style="fill: none; stroke-dasharray: 2.96,1.28; stroke-dashoffset: 0; stroke: #808080; stroke-width: 0.8"/>
     </g>
     <g id="line2d_16">
      <defs>
       <path id="mb75d1a83ed" d="M 0 0 
L -3.5 0 
" style="stroke: #000000; stroke-width: 0.8"/>
      </defs>
      <g>
       <use xlink:href="#mb75d1a83ed" x="50.165625" y="156.219209" style="stroke: #000000; stroke-width: 0.8"/>
      </g>
     </g>
     <g id="text_9">
      <!-- 0.00 -->
      <g transform="translate(20.9 160.018427) scale(0.1 -0.1)">
       <use xlink:href="#DejaVuSans-30"/>
       <use xlink:href="#DejaVuSans-2e" x="63.623047"/>
       <use xlink:href="#DejaVuSans-30" x="95.410156"/>
       <use xlink:href="#DejaVuSans-30" x="159.033203"/>
      </g>
     </g>
    </g>
    <g id="ytick_2">
     <g id="line2d_17">
      <path d="M 50.165625 119.914211 
L 381.0676 119.914211 
" clip-path="url(#p24f8c5689c)" style="fill: none; stroke-dasharray: 2.96,1.28; stroke-dashoffset: 0; stroke: #808080; stroke-width: 0.8"/>
     </g>
     <g id="line2d_18">
      <g>
       <use xlink:href="#mb75d1a83ed" x="50.165625" y="119.914211" style="stroke: #000000; stroke-width: 0.8"/>
      </g>
     </g>
     <g id="text_10">
      <!-- 0.05 -->
      <g transform="translate(20.9 123.71343) scale(0.1 -0.1)">
       <use xlink:href="#DejaVuSans-30"/>
       <use xlink:href="#DejaVuSans-2e" x="63.623047"/>
       <use xlink:href="#DejaVuSans-30" x="95.410156"/>
       <use xlink:href="#DejaVuSans-35" x="159.033203"/>
      </g>
     </g>
    </g>
    <g id="ytick_3">
     <g id="line2d_19">
      <path d="M 50.165625 83.609214 
L 381.0676 83.609214 
" clip-path="url(#p24f8c5689c)" style="fill: none; stroke-dasharray: 2.96,1.28; stroke-dashoffset: 0; stroke: #808080; stroke-width: 0.8"/>
     </g>
     <g id="line2d_20">
      <g>
       <use xlink:href="#mb75d1a83ed" x="50.165625" y="83.609214" style="stroke: #000000; stroke-width: 0.8"/>
      </g>
     </g>
     <g id="text_11">
      <!-- 0.10 -->
      <g transform="translate(20.9 87.408432) scale(0.1 -0.1)">
       <use xlink:href="#DejaVuSans-30"/>
       <use xlink:href="#DejaVuSans-2e" x="63.623047"/>
       <use xlink:href="#DejaVuSans-31" x="95.410156"/>
       <use xlink:href="#DejaVuSans-30" x="159.033203"/>
      </g>
     </g>
    </g>
    <g id="ytick_4">
     <g id="line2d_21">
      <path d="M 50.165625 47.304216 
L 381.0676 47.304216 
" clip-path="url(#p24f8c5689c)" style="fill: none; stroke-dasharray: 2.96,1.28; stroke-dashoffset: 0; stroke: #808080; stroke-width: 0.8"/>
     </g>
     <g id="line2d_22">
      <g>
       <use xlink:href="#mb75d1a83ed" x="50.165625" y="47.304216" style="stroke: #000000; stroke-width: 0.8"/>
      </g>
     </g>
     <g id="text_12">
      <!-- 0.15 -->
      <g transform="translate(20.9 51.103435) scale(0.1 -0.1)">
       <use xlink:href="#DejaVuSans-30"/>
       <use xlink:href="#DejaVuSans-2e" x="63.623047"/>
       <use xlink:href="#DejaVuSans-31" x="95.410156"/>
       <use xlink:href="#DejaVuSans-35" x="159.033203"/>
      </g>
     </g>
    </g>
    <g id="ytick_5">
     <g id="line2d_23">
      <path d="M 50.165625 10.999219 
L 381.0676 10.999219 
" clip-path="url(#p24f8c5689c)" style="fill: none; stroke-dasharray: 2.96,1.28; stroke-dashoffset: 0; stroke: #808080; stroke-width: 0.8"/>
     </g>
     <g id="line2d_24">
      <g>
       <use xlink:href="#mb75d1a83ed" x="50.165625" y="10.999219" style="stroke: #000000; stroke-width: 0.8"/>
      </g>
     </g>
     <g id="text_13">
      <!-- 0.20 -->
      <g transform="translate(20.9 14.798437) scale(0.1 -0.1)">
       <use xlink:href="#DejaVuSans-30"/>
       <use xlink:href="#DejaVuSans-2e" x="63.623047"/>
       <use xlink:href="#DejaVuSans-32" x="95.410156"/>
       <use xlink:href="#DejaVuSans-30" x="159.033203"/>
      </g>
     </g>
    </g>
    <g id="text_14">
     <!-- Internal pressure $P$ -->
     <g transform="translate(14.8 133.880728) rotate(-90) scale(0.1 -0.1)">
      <defs>
       <path id="DejaVuSans-49" d="M 628 4666 
L 1259 4666 
L 1259 0 
L 628 0 
L 628 4666 
z
" transform="scale(0.015625)"/>
       <path id="DejaVuSans-Oblique-50" d="M 1081 4666 
L 2541 4666 
Q 3178 4666 3512 4369 
Q 3847 4072 3847 3500 
Q 3847 2731 3353 2303 
Q 2859 1875 1966 1875 
L 1172 1875 
L 806 0 
L 172 0 
L 1081 4666 
z
M 1613 4147 
L 1275 2394 
L 2069 2394 
Q 2606 2394 2893 2669 
Q 3181 2944 3181 3456 
Q 3181 3784 2986 3965 
Q 2791 4147 2438 4147 
L 1613 4147 
z
" transform="scale(0.015625)"/>
      </defs>
      <use xlink:href="#DejaVuSans-49" transform="translate(0 0.015625)"/>
      <use xlink:href="#DejaVuSans-6e" transform="translate(29.492188 0.015625)"/>
      <use xlink:href="#DejaVuSans-74" transform="translate(92.871094 0.015625)"/>
      <use xlink:href="#DejaVuSans-65" transform="translate(132.080078 0.015625)"/>
      <use xlink:href="#DejaVuSans-72" transform="translate(193.603516 0.015625)"/>
      <use xlink:href="#DejaVuSans-6e" transform="translate(234.716797 0.015625)"/>
      <use xlink:href="#DejaVuSans-61" transform="translate(298.095703 0.015625)"/>
      <use xlink:href="#DejaVuSans-6c" transform="translate(359.375 0.015625)"/>
      <use xlink:href="#DejaVuSans-20" transform="translate(387.158203 0.015625)"/>
      <use xlink:href="#DejaVuSans-70" transform="translate(418.945312 0.015625)"/>
      <use xlink:href="#DejaVuSans-72" transform="translate(482.421875 0.015625)"/>
      <use xlink:href="#DejaVuSans-65" transform="translate(523.535156 0.015625)"/>
      <use xlink:href="#DejaVuSans-73" transform="translate(585.058594 0.015625)"/>
      <use xlink:href="#DejaVuSans-73" transform="translate(637.158203 0.015625)"/>
      <use xlink:href="#DejaVuSans-75" transform="translate(689.257812 0.015625)"/>
      <use xlink:href="#DejaVuSans-72" transform="translate(752.636719 0.015625)"/>
      <use xlink:href="#DejaVuSans-65" transform="translate(793.75 0.015625)"/>
      <use xlink:href="#DejaVuSans-20" transform="translate(855.273438 0.015625)"/>
      <use xlink:href="#DejaVuSans-Oblique-50" transform="translate(887.060547 0.015625)"/>
     </g>
    </g>
   </g>
   <g id="line2d_25">
    <path d="M 65.206624 156.219209 
L 98.276156 75.322571 
L 100.921963 69.743493 
L 103.488248 64.861799 
L 106.33143 59.980105 
L 109.028511 55.795796 
L 112.010968 51.611488 
L 114.754899 48.124564 
L 117.779592 44.63764 
L 121.142619 41.150716 
L 124.12886 38.361176 
L 127.43744 35.571637 
L 131.145859 32.782098 
L 134.25574 30.689943 
L 137.722359 28.597789 
L 141.647552 26.505635 
L 146.192054 24.41348 
L 149.696279 23.018711 
L 153.738924 21.623941 
L 158.577099 20.229171 
L 164.772804 18.834402 
L 168.820005 18.137017 
L 174.2594 17.439632 
L 188.170609 16.742247 
L 188.170609 16.742247 
" clip-path="url(#p24f8c5689c)" style="fill: none; stroke: #1f77b4; stroke-width: 1.5; stroke-linecap: square"/>
   </g>
   <g id="line2d_26">
    <path d="M 65.206624 156.219209 
L 94.793093 83.609214 
L 109.765317 54.565216 
L 143.938297 25.521218 
L 171.487012 18.260218 
L 366.026601 16.808018 
" clip-path="url(#p24f8c5689c)" style="fill: none; stroke-dasharray: 5.55,2.4; stroke-dashoffset: 0; stroke: #ff7f0e; stroke-width: 1.5"/>
    <defs>
     <path id="mca32777d83" d="M 0 3 
C 0.795609 3 1.55874 2.683901 2.12132 2.12132 
C 2.683901 1.55874 3 0.795609 3 0 
C 3 -0.795609 2.683901 -1.55874 2.12132 -2.12132 
C 1.55874 -2.683901 0.795609 -3 0 -3 
C -0.795609 -3 -1.55874 -2.683901 -2.12132 -2.12132 
C -2.683901 -1.55874 -3 -0.795609 -3 0 
C -3 0.795609 -2.683901 1.55874 -2.12132 2.12132 
C -1.55874 2.683901 -0.795609 3 0 3 
z
" style="stroke: #ff7f0e"/>
    </defs>
    <g clip-path="url(#p24f8c5689c)">
     <use xlink:href="#mca32777d83" x="65.206624" y="156.219209" style="fill-opacity: 0; stroke: #ff7f0e"/>
     <use xlink:href="#mca32777d83" x="94.793093" y="83.609214" style="fill-opacity: 0; stroke: #ff7f0e"/>
     <use xlink:href="#mca32777d83" x="109.765317" y="54.565216" style="fill-opacity: 0; stroke: #ff7f0e"/>
     <use xlink:href="#mca32777d83" x="143.938297" y="25.521218" style="fill-opacity: 0; stroke: #ff7f0e"/>
     <use xlink:href="#mca32777d83" x="171.487012" y="18.260218" style="fill-opacity: 0; stroke: #ff7f0e"/>
     <use xlink:href="#mca32777d83" x="366.026601" y="16.808018" style="fill-opacity: 0; stroke: #ff7f0e"/>
    </g>
   </g>
   <g id="patch_3">
    <path d="M 50.165625 163.193057 
L 50.165625 9.768399 
" style="fill: none; stroke: #000000; stroke-width: 0.8; stroke-linejoin: miter; stroke-linecap: square"/>
   </g>
   <g id="patch_4">
    <path d="M 381.0676 163.193057 
L 381.0676 9.768399 
" style="fill: none; stroke: #000000; stroke-width: 0.8; stroke-linejoin: miter; stroke-linecap: square"/>
   </g>
   <g id="patch_5">
    <path d="M 50.165625 163.193057 
L 381.0676 163.193057 
" style="fill: none; stroke: #000000; stroke-width: 0.8; stroke-linejoin: miter; stroke-linecap: square"/>
   </g>
   <g id="patch_6">
    <path d="M 50.165625 9.768399 
L 381.0676 9.768399 
" style="fill: none; stroke: #000000; stroke-width: 0.8; stroke-linejoin: miter; stroke-linecap: square"/>
   </g>
   <g id="legend_1">
    <g id="patch_7">
     <path d="M 282.2051 158.193057 
L 374.0676 158.193057 
Q 376.0676 158.193057 376.0676 156.193057 
L 376.0676 127.836807 
Q 376.0676 125.836807 374.0676 125.836807 
L 282.2051 125.836807 
Q 280.2051 125.836807 280.2051 127.836807 
L 280.2051 156.193057 
Q 280.2051 158.193057 282.2051 158.193057 
z
" style="fill: #ffffff; opacity: 0.8; stroke: #cccccc; stroke-linejoin: miter"/>
    </g>
    <g id="line2d_27">
     <path d="M 284.2051 133.935244 
L 299.2051 133.935244 
L 314.2051 133.935244 
" style="fill: none; stroke: #1f77b4; stroke-width: 1.5; stroke-linecap: square"/>
    </g>
    <g id="text_15">
     <!-- analytical -->
     <g transform="translate(322.2051 137.435244) scale(0.1 -0.1)">
      <defs>
       <path id="DejaVuSans-79" d="M 2059 -325 
Q 1816 -950 1584 -1140 
Q 1353 -1331 966 -1331 
L 506 -1331 
L 506 -850 
L 844 -850 
Q 1081 -850 1212 -737 
Q 1344 -625 1503 -206 
L 1606 56 
L 191 3500 
L 800 3500 
L 1894 763 
L 2988 3500 
L 3597 3500 
L 2059 -325 
z
" transform="scale(0.015625)"/>
      </defs>
      <use xlink:href="#DejaVuSans-61"/>
      <use xlink:href="#DejaVuSans-6e" x="61.279297"/>
      <use xlink:href="#DejaVuSans-61" x="124.658203"/>
      <use xlink:href="#DejaVuSans-6c" x="185.9375"/>
      <use xlink:href="#DejaVuSans-79" x="213.720703"/>
      <use xlink:href="#DejaVuSans-74" x="272.900391"/>
      <use xlink:href="#DejaVuSans-69" x="312.109375"/>
      <use xlink:href="#DejaVuSans-63" x="339.892578"/>
      <use xlink:href="#DejaVuSans-61" x="394.873047"/>
      <use xlink:href="#DejaVuSans-6c" x="456.152344"/>
     </g>
    </g>
    <g id="line2d_28">
     <path d="M 284.2051 148.613369 
L 299.2051 148.613369 
L 314.2051 148.613369 
" style="fill: none; stroke-dasharray: 5.55,2.4; stroke-dashoffset: 0; stroke: #ff7f0e; stroke-width: 1.5"/>
     <g>
      <use xlink:href="#mca32777d83" x="299.2051" y="148.613369" style="fill-opacity: 0; stroke: #ff7f0e"/>
     </g>
    </g>
    <g id="text_16">
     <!-- numerical -->
     <g transform="translate(322.2051 152.113369) scale(0.1 -0.1)">
      <use xlink:href="#DejaVuSans-6e"/>
      <use xlink:href="#DejaVuSans-75" x="63.378906"/>
      <use xlink:href="#DejaVuSans-6d" x="126.757812"/>
      <use xlink:href="#DejaVuSans-65" x="224.169922"/>
      <use xlink:href="#DejaVuSans-72" x="285.693359"/>
      <use xlink:href="#DejaVuSans-69" x="326.806641"/>
      <use xlink:href="#DejaVuSans-63" x="354.589844"/>
      <use xlink:href="#DejaVuSans-61" x="409.570312"/>
      <use xlink:href="#DejaVuSans-6c" x="470.849609"/>
     </g>
    </g>
   </g>
  </g>
  <g id="axes_2">
   <g id="patch_8">
    <path d="M 50.165625 354.973879 
L 248.70681 354.973879 
L 248.70681 201.549221 
L 50.165625 201.549221 
z
" style="fill: #ffffff"/>
   </g>
   <g id="matplotlib.axis_3">
    <g id="xtick_8">
     <g id="line2d_29">
      <path d="M 59.190224 354.973879 
L 59.190224 201.549221 
" clip-path="url(#p7ca8691e2d)" style="fill: none; stroke-dasharray: 2.96,1.28; stroke-dashoffset: 0; stroke: #808080; stroke-width: 0.8"/>
     </g>
     <g id="line2d_30">
      <g>
       <use xlink:href="#m2651db9d8e" x="59.190224" y="354.973879" style="stroke: #000000; stroke-width: 0.8"/>
      </g>
     </g>
     <g id="text_17">
      <!-- 100 -->
      <g transform="translate(49.646474 369.572316) scale(0.1 -0.1)">
       <use xlink:href="#DejaVuSans-31"/>
       <use xlink:href="#DejaVuSans-30" x="63.623047"/>
       <use xlink:href="#DejaVuSans-30" x="127.246094"/>
      </g>
     </g>
    </g>
    <g id="xtick_9">
     <g id="line2d_31">
      <path d="M 95.288622 354.973879 
L 95.288622 201.549221 
" clip-path="url(#p7ca8691e2d)" style="fill: none; stroke-dasharray: 2.96,1.28; stroke-dashoffset: 0; stroke: #808080; stroke-width: 0.8"/>
     </g>
     <g id="line2d_32">
      <g>
       <use xlink:href="#m2651db9d8e" x="95.288622" y="354.973879" style="stroke: #000000; stroke-width: 0.8"/>
      </g>
     </g>
     <g id="text_18">
      <!-- 120 -->
      <g transform="translate(85.744872 369.572316) scale(0.1 -0.1)">
       <use xlink:href="#DejaVuSans-31"/>
       <use xlink:href="#DejaVuSans-32" x="63.623047"/>
       <use xlink:href="#DejaVuSans-30" x="127.246094"/>
      </g>
     </g>
    </g>
    <g id="xtick_10">
     <g id="line2d_33">
      <path d="M 131.387019 354.973879 
L 131.387019 201.549221 
" clip-path="url(#p7ca8691e2d)" style="fill: none; stroke-dasharray: 2.96,1.28; stroke-dashoffset: 0; stroke: #808080; stroke-width: 0.8"/>
     </g>
     <g id="line2d_34">
      <g>
       <use xlink:href="#m2651db9d8e" x="131.387019" y="354.973879" style="stroke: #000000; stroke-width: 0.8"/>
      </g>
     </g>
     <g id="text_19">
      <!-- 140 -->
      <g transform="translate(121.843269 369.572316) scale(0.1 -0.1)">
       <use xlink:href="#DejaVuSans-31"/>
       <use xlink:href="#DejaVuSans-34" x="63.623047"/>
       <use xlink:href="#DejaVuSans-30" x="127.246094"/>
      </g>
     </g>
    </g>
    <g id="xtick_11">
     <g id="line2d_35">
      <path d="M 167.485416 354.973879 
L 167.485416 201.549221 
" clip-path="url(#p7ca8691e2d)" style="fill: none; stroke-dasharray: 2.96,1.28; stroke-dashoffset: 0; stroke: #808080; stroke-width: 0.8"/>
     </g>
     <g id="line2d_36">
      <g>
       <use xlink:href="#m2651db9d8e" x="167.485416" y="354.973879" style="stroke: #000000; stroke-width: 0.8"/>
      </g>
     </g>
     <g id="text_20">
      <!-- 160 -->
      <g transform="translate(157.941666 369.572316) scale(0.1 -0.1)">
       <use xlink:href="#DejaVuSans-31"/>
       <use xlink:href="#DejaVuSans-36" x="63.623047"/>
       <use xlink:href="#DejaVuSans-30" x="127.246094"/>
      </g>
     </g>
    </g>
    <g id="xtick_12">
     <g id="line2d_37">
      <path d="M 203.583813 354.973879 
L 203.583813 201.549221 
" clip-path="url(#p7ca8691e2d)" style="fill: none; stroke-dasharray: 2.96,1.28; stroke-dashoffset: 0; stroke: #808080; stroke-width: 0.8"/>
     </g>
     <g id="line2d_38">
      <g>
       <use xlink:href="#m2651db9d8e" x="203.583813" y="354.973879" style="stroke: #000000; stroke-width: 0.8"/>
      </g>
     </g>
     <g id="text_21">
      <!-- 180 -->
      <g transform="translate(194.040063 369.572316) scale(0.1 -0.1)">
       <defs>
        <path id="DejaVuSans-38" d="M 2034 2216 
Q 1584 2216 1326 1975 
Q 1069 1734 1069 1313 
Q 1069 891 1326 650 
Q 1584 409 2034 409 
Q 2484 409 2743 651 
Q 3003 894 3003 1313 
Q 3003 1734 2745 1975 
Q 2488 2216 2034 2216 
z
M 1403 2484 
Q 997 2584 770 2862 
Q 544 3141 544 3541 
Q 544 4100 942 4425 
Q 1341 4750 2034 4750 
Q 2731 4750 3128 4425 
Q 3525 4100 3525 3541 
Q 3525 3141 3298 2862 
Q 3072 2584 2669 2484 
Q 3125 2378 3379 2068 
Q 3634 1759 3634 1313 
Q 3634 634 3220 271 
Q 2806 -91 2034 -91 
Q 1263 -91 848 271 
Q 434 634 434 1313 
Q 434 1759 690 2068 
Q 947 2378 1403 2484 
z
M 1172 3481 
Q 1172 3119 1398 2916 
Q 1625 2713 2034 2713 
Q 2441 2713 2670 2916 
Q 2900 3119 2900 3481 
Q 2900 3844 2670 4047 
Q 2441 4250 2034 4250 
Q 1625 4250 1398 4047 
Q 1172 3844 1172 3481 
z
" transform="scale(0.015625)"/>
       </defs>
       <use xlink:href="#DejaVuSans-31"/>
       <use xlink:href="#DejaVuSans-38" x="63.623047"/>
       <use xlink:href="#DejaVuSans-30" x="127.246094"/>
      </g>
     </g>
    </g>
    <g id="xtick_13">
     <g id="line2d_39">
      <path d="M 239.682211 354.973879 
L 239.682211 201.549221 
" clip-path="url(#p7ca8691e2d)" style="fill: none; stroke-dasharray: 2.96,1.28; stroke-dashoffset: 0; stroke: #808080; stroke-width: 0.8"/>
     </g>
     <g id="line2d_40">
      <g>
       <use xlink:href="#m2651db9d8e" x="239.682211" y="354.973879" style="stroke: #000000; stroke-width: 0.8"/>
      </g>
     </g>
     <g id="text_22">
      <!-- 200 -->
      <g transform="translate(230.138461 369.572316) scale(0.1 -0.1)">
       <use xlink:href="#DejaVuSans-32"/>
       <use xlink:href="#DejaVuSans-30" x="63.623047"/>
       <use xlink:href="#DejaVuSans-30" x="127.246094"/>
      </g>
     </g>
    </g>
    <g id="text_23">
     <!-- Radial coordinate $r$ -->
     <g transform="translate(101.886217 383.250441) scale(0.1 -0.1)">
      <defs>
       <path id="DejaVuSans-Oblique-72" d="M 2853 2969 
Q 2766 3016 2653 3041 
Q 2541 3066 2413 3066 
Q 1953 3066 1609 2717 
Q 1266 2369 1153 1784 
L 800 0 
L 225 0 
L 909 3500 
L 1484 3500 
L 1375 2956 
Q 1603 3259 1920 3421 
Q 2238 3584 2597 3584 
Q 2691 3584 2781 3573 
Q 2872 3563 2963 3538 
L 2853 2969 
z
" transform="scale(0.015625)"/>
      </defs>
      <use xlink:href="#DejaVuSans-52" transform="translate(0 0.015625)"/>
      <use xlink:href="#DejaVuSans-61" transform="translate(69.482422 0.015625)"/>
      <use xlink:href="#DejaVuSans-64" transform="translate(130.761719 0.015625)"/>
      <use xlink:href="#DejaVuSans-69" transform="translate(194.238281 0.015625)"/>
      <use xlink:href="#DejaVuSans-61" transform="translate(222.021484 0.015625)"/>
      <use xlink:href="#DejaVuSans-6c" transform="translate(283.300781 0.015625)"/>
      <use xlink:href="#DejaVuSans-20" transform="translate(311.083984 0.015625)"/>
      <use xlink:href="#DejaVuSans-63" transform="translate(342.871094 0.015625)"/>
      <use xlink:href="#DejaVuSans-6f" transform="translate(397.851562 0.015625)"/>
      <use xlink:href="#DejaVuSans-6f" transform="translate(459.033203 0.015625)"/>
      <use xlink:href="#DejaVuSans-72" transform="translate(520.214844 0.015625)"/>
      <use xlink:href="#DejaVuSans-64" transform="translate(561.328125 0.015625)"/>
      <use xlink:href="#DejaVuSans-69" transform="translate(624.804688 0.015625)"/>
      <use xlink:href="#DejaVuSans-6e" transform="translate(652.587891 0.015625)"/>
      <use xlink:href="#DejaVuSans-61" transform="translate(715.966797 0.015625)"/>
      <use xlink:href="#DejaVuSans-74" transform="translate(777.246094 0.015625)"/>
      <use xlink:href="#DejaVuSans-65" transform="translate(816.455078 0.015625)"/>
      <use xlink:href="#DejaVuSans-20" transform="translate(877.978516 0.015625)"/>
      <use xlink:href="#DejaVuSans-Oblique-72" transform="translate(909.765625 0.015625)"/>
     </g>
    </g>
   </g>
   <g id="matplotlib.axis_4">
    <g id="ytick_6">
     <g id="line2d_41">
      <path d="M 50.165625 324.838299 
L 248.70681 324.838299 
" clip-path="url(#p7ca8691e2d)" style="fill: none; stroke-dasharray: 2.96,1.28; stroke-dashoffset: 0; stroke: #808080; stroke-width: 0.8"/>
     </g>
     <g id="line2d_42">
      <g>
       <use xlink:href="#mb75d1a83ed" x="50.165625" y="324.838299" style="stroke: #000000; stroke-width: 0.8"/>
      </g>
     </g>
     <g id="text_24">
      <!-- 0.10 -->
      <g transform="translate(20.9 328.637518) scale(0.1 -0.1)">
       <use xlink:href="#DejaVuSans-30"/>
       <use xlink:href="#DejaVuSans-2e" x="63.623047"/>
       <use xlink:href="#DejaVuSans-31" x="95.410156"/>
       <use xlink:href="#DejaVuSans-30" x="159.033203"/>
      </g>
     </g>
    </g>
    <g id="ytick_7">
     <g id="line2d_43">
      <path d="M 50.165625 287.137675 
L 248.70681 287.137675 
" clip-path="url(#p7ca8691e2d)" style="fill: none; stroke-dasharray: 2.96,1.28; stroke-dashoffset: 0; stroke: #808080; stroke-width: 0.8"/>
     </g>
     <g id="line2d_44">
      <g>
       <use xlink:href="#mb75d1a83ed" x="50.165625" y="287.137675" style="stroke: #000000; stroke-width: 0.8"/>
      </g>
     </g>
     <g id="text_25">
      <!-- 0.15 -->
      <g transform="translate(20.9 290.936894) scale(0.1 -0.1)">
       <use xlink:href="#DejaVuSans-30"/>
       <use xlink:href="#DejaVuSans-2e" x="63.623047"/>
       <use xlink:href="#DejaVuSans-31" x="95.410156"/>
       <use xlink:href="#DejaVuSans-35" x="159.033203"/>
      </g>
     </g>
    </g>
    <g id="ytick_8">
     <g id="line2d_45">
      <path d="M 50.165625 249.43705 
L 248.70681 249.43705 
" clip-path="url(#p7ca8691e2d)" style="fill: none; stroke-dasharray: 2.96,1.28; stroke-dashoffset: 0; stroke: #808080; stroke-width: 0.8"/>
     </g>
     <g id="line2d_46">
      <g>
       <use xlink:href="#mb75d1a83ed" x="50.165625" y="249.43705" style="stroke: #000000; stroke-width: 0.8"/>
      </g>
     </g>
     <g id="text_26">
      <!-- 0.20 -->
      <g transform="translate(20.9 253.236269) scale(0.1 -0.1)">
       <use xlink:href="#DejaVuSans-30"/>
       <use xlink:href="#DejaVuSans-2e" x="63.623047"/>
       <use xlink:href="#DejaVuSans-32" x="95.410156"/>
       <use xlink:href="#DejaVuSans-30" x="159.033203"/>
      </g>
     </g>
    </g>
    <g id="ytick_9">
     <g id="line2d_47">
      <path d="M 50.165625 211.736426 
L 248.70681 211.736426 
" clip-path="url(#p7ca8691e2d)" style="fill: none; stroke-dasharray: 2.96,1.28; stroke-dashoffset: 0; stroke: #808080; stroke-width: 0.8"/>
     </g>
     <g id="line2d_48">
      <g>
       <use xlink:href="#mb75d1a83ed" x="50.165625" y="211.736426" style="stroke: #000000; stroke-width: 0.8"/>
      </g>
     </g>
     <g id="text_27">
      <!-- 0.25 -->
      <g transform="translate(20.9 215.535645) scale(0.1 -0.1)">
       <use xlink:href="#DejaVuSans-30"/>
       <use xlink:href="#DejaVuSans-2e" x="63.623047"/>
       <use xlink:href="#DejaVuSans-32" x="95.410156"/>
       <use xlink:href="#DejaVuSans-35" x="159.033203"/>
      </g>
     </g>
    </g>
    <g id="text_28">
     <!-- Hoop stress $\sigma_\theta$ -->
     <g transform="translate(14.8 314.86155) rotate(-90) scale(0.1 -0.1)">
      <defs>
       <path id="DejaVuSans-48" d="M 628 4666 
L 1259 4666 
L 1259 2753 
L 3553 2753 
L 3553 4666 
L 4184 4666 
L 4184 0 
L 3553 0 
L 3553 2222 
L 1259 2222 
L 1259 0 
L 628 0 
L 628 4666 
z
" transform="scale(0.015625)"/>
       <path id="DejaVuSans-Oblique-3c3" d="M 2219 3044 
Q 1744 3044 1422 2700 
Q 1081 2341 969 1747 
Q 844 1119 1044 756 
Q 1241 397 1706 397 
Q 2166 397 2503 759 
Q 2844 1122 2966 1747 
Q 3075 2319 2881 2700 
Q 2700 3044 2219 3044 
z
M 2309 3503 
L 4219 3500 
L 4106 2925 
L 3463 2925 
Q 3706 2438 3575 1747 
Q 3406 888 2884 400 
Q 2359 -91 1609 -91 
Q 856 -91 525 400 
Q 194 888 363 1747 
Q 528 2609 1050 3097 
Q 1484 3503 2309 3503 
z
" transform="scale(0.015625)"/>
       <path id="DejaVuSans-Oblique-3b8" d="M 2913 2219 
L 925 2219 
Q 791 1284 928 888 
Q 1100 400 1566 400 
Q 2034 400 2391 891 
Q 2703 1322 2913 2219 
z
M 3009 2750 
Q 3094 3638 2984 3950 
Q 2813 4444 2353 4444 
Q 1875 4444 1525 3956 
Q 1250 3563 1034 2750 
L 3009 2750 
z
M 2444 4913 
Q 3194 4913 3494 4250 
Q 3794 3591 3566 2422 
Q 3341 1256 2781 594 
Q 2225 -72 1475 -72 
Q 722 -72 425 594 
Q 128 1256 353 2422 
Q 581 3591 1134 4250 
Q 1691 4913 2444 4913 
z
" transform="scale(0.015625)"/>
      </defs>
      <use xlink:href="#DejaVuSans-48" transform="translate(0 0.09375)"/>
      <use xlink:href="#DejaVuSans-6f" transform="translate(75.195312 0.09375)"/>
      <use xlink:href="#DejaVuSans-6f" transform="translate(136.376953 0.09375)"/>
      <use xlink:href="#DejaVuSans-70" transform="translate(197.558594 0.09375)"/>
      <use xlink:href="#DejaVuSans-20" transform="translate(261.035156 0.09375)"/>
      <use xlink:href="#DejaVuSans-73" transform="translate(292.822266 0.09375)"/>
      <use xlink:href="#DejaVuSans-74" transform="translate(344.921875 0.09375)"/>
      <use xlink:href="#DejaVuSans-72" transform="translate(384.130859 0.09375)"/>
      <use xlink:href="#DejaVuSans-65" transform="translate(425.244141 0.09375)"/>
      <use xlink:href="#DejaVuSans-73" transform="translate(486.767578 0.09375)"/>
      <use xlink:href="#DejaVuSans-73" transform="translate(538.867188 0.09375)"/>
      <use xlink:href="#DejaVuSans-20" transform="translate(590.966797 0.09375)"/>
      <use xlink:href="#DejaVuSans-Oblique-3c3" transform="translate(622.753906 0.09375)"/>
      <use xlink:href="#DejaVuSans-Oblique-3b8" transform="translate(686.132812 -16.3125) scale(0.7)"/>
     </g>
    </g>
   </g>
   <g id="line2d_49">
    <path d="M 59.190224 269.640754 
L 63.702524 274.675139 
L 68.214824 279.354224 
L 72.727123 283.710673 
L 77.239423 287.773479 
L 81.751723 291.568453 
L 87.166482 295.801141 
L 92.581242 299.716446 
L 97.996001 303.345324 
L 103.410761 306.715047 
L 108.825521 309.849718 
L 115.14274 313.238119 
L 121.45996 316.365455 
L 127.777179 319.257872 
L 134.996859 322.305152 
L 142.216538 325.105417 
L 149.436217 327.684663 
L 157.558357 330.350229 
L 165.680496 332.792692 
L 174.705095 335.274223 
L 184.632155 337.754274 
L 194.559214 340.004186 
L 205.388733 342.228505 
L 217.120712 344.401308 
L 229.755151 346.501935 
L 239.682211 348.000031 
L 239.682211 348.000031 
" clip-path="url(#p7ca8691e2d)" style="fill: none; stroke: #1f77b4; stroke-width: 1.5; stroke-linecap: square"/>
   </g>
   <g id="line2d_50">
    <path d="M 59.190224 327.003726 
L 66.409904 318.808241 
L 73.629583 310.922095 
L 81.751723 302.39201 
L 89.873862 294.196525 
L 97.996001 286.310379 
L 106.118141 278.711066 
L 115.14274 270.579376 
L 124.167339 262.752316 
L 133.191939 255.207884 
L 143.118998 247.211991 
L 153.046057 239.510822 
L 162.973116 232.08342 
L 166.582956 229.446691 
L 167.485416 229.353493 
L 173.802636 233.766856 
L 180.119855 237.90565 
L 186.437075 241.792187 
L 193.656754 245.95074 
L 200.876433 249.83287 
L 208.096113 253.462545 
L 215.315792 256.861189 
L 223.437932 260.432337 
L 231.560071 263.759733 
L 239.682211 266.865066 
L 239.682211 266.865066 
" clip-path="url(#p7ca8691e2d)" style="fill: none; stroke: #ff7f0e; stroke-width: 1.5; stroke-linecap: square"/>
   </g>
   <g id="line2d_51">
    <path d="M 59.190224 334.543851 
L 66.409904 326.348366 
L 73.629583 318.46222 
L 81.751723 309.932135 
L 89.873862 301.73665 
L 97.996001 293.850504 
L 106.118141 286.251191 
L 115.14274 278.119501 
L 124.167339 270.292441 
L 133.191939 262.748009 
L 143.118998 254.752116 
L 153.046057 247.050947 
L 162.973116 239.623545 
L 173.802636 231.811119 
L 184.632155 224.280283 
L 195.461674 217.011443 
L 207.193653 209.412131 
L 208.096113 208.838857 
L 208.998573 208.523069 
L 216.218252 212.939542 
L 223.437932 217.081457 
L 230.657611 220.971108 
L 237.877291 224.628572 
L 239.682211 225.508822 
L 239.682211 225.508822 
" clip-path="url(#p7ca8691e2d)" style="fill: none; stroke: #2ca02c; stroke-width: 1.5; stroke-linecap: square"/>
   </g>
   <g id="line2d_52">
    <defs>
     <path id="m47921acb5a" d="M 0 1.5 
C 0.397805 1.5 0.77937 1.341951 1.06066 1.06066 
C 1.341951 0.77937 1.5 0.397805 1.5 0 
C 1.5 -0.397805 1.341951 -0.77937 1.06066 -1.06066 
C 0.77937 -1.341951 0.397805 -1.5 0 -1.5 
C -0.397805 -1.5 -0.77937 -1.341951 -1.06066 -1.06066 
C -1.341951 -0.77937 -1.5 -0.397805 -1.5 0 
C -1.5 0.397805 -1.341951 0.77937 -1.06066 1.06066 
C -0.77937 1.341951 -0.397805 1.5 0 1.5 
z
" style="stroke: #000000"/>
    </defs>
    <g clip-path="url(#p7ca8691e2d)">
     <use xlink:href="#m47921acb5a" x="65.268942" y="281.024958" style="stroke: #000000"/>
     <use xlink:href="#m47921acb5a" x="81.939927" y="295.850599" style="stroke: #000000"/>
     <use xlink:href="#m47921acb5a" x="95.669435" y="305.539106" style="stroke: #000000"/>
     <use xlink:href="#m47921acb5a" x="116.508166" y="317.219335" style="stroke: #000000"/>
     <use xlink:href="#m47921acb5a" x="134.814177" y="325.173117" style="stroke: #000000"/>
     <use xlink:href="#m47921acb5a" x="163.9884" y="334.888713" style="stroke: #000000"/>
     <use xlink:href="#m47921acb5a" x="188.396415" y="340.954486" style="stroke: #000000"/>
     <use xlink:href="#m47921acb5a" x="225.90613" y="347.955261" style="stroke: #000000"/>
    </g>
   </g>
   <g id="line2d_53">
    <g clip-path="url(#p7ca8691e2d)">
     <use xlink:href="#m47921acb5a" x="65.268942" y="320.119861" style="stroke: #000000"/>
     <use xlink:href="#m47921acb5a" x="81.939927" y="302.193592" style="stroke: #000000"/>
     <use xlink:href="#m47921acb5a" x="95.669435" y="288.516185" style="stroke: #000000"/>
     <use xlink:href="#m47921acb5a" x="116.508166" y="269.510721" style="stroke: #000000"/>
     <use xlink:href="#m47921acb5a" x="134.814177" y="254.370046" style="stroke: #000000"/>
     <use xlink:href="#m47921acb5a" x="163.9884" y="233.379961" style="stroke: #000000"/>
     <use xlink:href="#m47921acb5a" x="188.396415" y="242.47547" style="stroke: #000000"/>
     <use xlink:href="#m47921acb5a" x="225.90613" y="261.105264" style="stroke: #000000"/>
    </g>
   </g>
   <g id="line2d_54">
    <g clip-path="url(#p7ca8691e2d)">
     <use xlink:href="#m47921acb5a" x="65.268942" y="327.637029" style="stroke: #000000"/>
     <use xlink:href="#m47921acb5a" x="81.939927" y="309.743199" style="stroke: #000000"/>
     <use xlink:href="#m47921acb5a" x="95.669435" y="296.051936" style="stroke: #000000"/>
     <use xlink:href="#m47921acb5a" x="116.508166" y="276.917947" style="stroke: #000000"/>
     <use xlink:href="#m47921acb5a" x="134.814177" y="261.513082" style="stroke: #000000"/>
     <use xlink:href="#m47921acb5a" x="163.9884" y="239.656059" style="stroke: #000000"/>
     <use xlink:href="#m47921acb5a" x="188.396415" y="223.593027" style="stroke: #000000"/>
     <use xlink:href="#m47921acb5a" x="225.90613" y="212.663021" style="stroke: #000000"/>
    </g>
   </g>
   <g id="patch_9">
    <path d="M 50.165625 354.973879 
L 50.165625 201.549221 
" style="fill: none; stroke: #000000; stroke-width: 0.8; stroke-linejoin: miter; stroke-linecap: square"/>
   </g>
   <g id="patch_10">
    <path d="M 248.70681 354.973879 
L 248.70681 201.549221 
" style="fill: none; stroke: #000000; stroke-width: 0.8; stroke-linejoin: miter; stroke-linecap: square"/>
   </g>
   <g id="patch_11">
    <path d="M 50.165625 354.973879 
L 248.70681 354.973879 
" style="fill: none; stroke: #000000; stroke-width: 0.8; stroke-linejoin: miter; stroke-linecap: square"/>
   </g>
   <g id="patch_12">
    <path d="M 50.165625 201.549221 
L 248.70681 201.549221 
" style="fill: none; stroke: #000000; stroke-width: 0.8; stroke-linejoin: miter; stroke-linecap: square"/>
   </g>
  </g>
  <g id="axes_3">
   <g id="patch_13">
    <path d="M 314.887205 354.973879 
L 513.42839 354.973879 
L 513.42839 201.549221 
L 314.887205 201.549221 
z
" style="fill: #ffffff"/>
   </g>
   <g id="matplotlib.axis_5">
    <g id="xtick_14">
     <g id="line2d_55">
      <path d="M 323.911804 354.973879 
L 323.911804 201.549221 
" clip-path="url(#p6cfefb47d3)" style="fill: none; stroke-dasharray: 2.96,1.28; stroke-dashoffset: 0; stroke: #808080; stroke-width: 0.8"/>
     </g>
     <g id="line2d_56">
      <g>
       <use xlink:href="#m2651db9d8e" x="323.911804" y="354.973879" style="stroke: #000000; stroke-width: 0.8"/>
      </g>
     </g>
     <g id="text_29">
      <!-- 100 -->
      <g transform="translate(314.368054 369.572316) scale(0.1 -0.1)">
       <use xlink:href="#DejaVuSans-31"/>
       <use xlink:href="#DejaVuSans-30" x="63.623047"/>
       <use xlink:href="#DejaVuSans-30" x="127.246094"/>
      </g>
     </g>
    </g>
    <g id="xtick_15">
     <g id="line2d_57">
      <path d="M 360.010201 354.973879 
L 360.010201 201.549221 
" clip-path="url(#p6cfefb47d3)" style="fill: none; stroke-dasharray: 2.96,1.28; stroke-dashoffset: 0; stroke: #808080; stroke-width: 0.8"/>
     </g>
     <g id="line2d_58">
      <g>
       <use xlink:href="#m2651db9d8e" x="360.010201" y="354.973879" style="stroke: #000000; stroke-width: 0.8"/>
      </g>
     </g>
     <g id="text_30">
      <!-- 120 -->
      <g transform="translate(350.466451 369.572316) scale(0.1 -0.1)">
       <use xlink:href="#DejaVuSans-31"/>
       <use xlink:href="#DejaVuSans-32" x="63.623047"/>
       <use xlink:href="#DejaVuSans-30" x="127.246094"/>
      </g>
     </g>
    </g>
    <g id="xtick_16">
     <g id="line2d_59">
      <path d="M 396.108599 354.973879 
L 396.108599 201.549221 
" clip-path="url(#p6cfefb47d3)" style="fill: none; stroke-dasharray: 2.96,1.28; stroke-dashoffset: 0; stroke: #808080; stroke-width: 0.8"/>
     </g>
     <g id="line2d_60">
      <g>
       <use xlink:href="#m2651db9d8e" x="396.108599" y="354.973879" style="stroke: #000000; stroke-width: 0.8"/>
      </g>
     </g>
     <g id="text_31">
      <!-- 140 -->
      <g transform="translate(386.564849 369.572316) scale(0.1 -0.1)">
       <use xlink:href="#DejaVuSans-31"/>
       <use xlink:href="#DejaVuSans-34" x="63.623047"/>
       <use xlink:href="#DejaVuSans-30" x="127.246094"/>
      </g>
     </g>
    </g>
    <g id="xtick_17">
     <g id="line2d_61">
      <path d="M 432.206996 354.973879 
L 432.206996 201.549221 
" clip-path="url(#p6cfefb47d3)" style="fill: none; stroke-dasharray: 2.96,1.28; stroke-dashoffset: 0; stroke: #808080; stroke-width: 0.8"/>
     </g>
     <g id="line2d_62">
      <g>
       <use xlink:href="#m2651db9d8e" x="432.206996" y="354.973879" style="stroke: #000000; stroke-width: 0.8"/>
      </g>
     </g>
     <g id="text_32">
      <!-- 160 -->
      <g transform="translate(422.663246 369.572316) scale(0.1 -0.1)">
       <use xlink:href="#DejaVuSans-31"/>
       <use xlink:href="#DejaVuSans-36" x="63.623047"/>
       <use xlink:href="#DejaVuSans-30" x="127.246094"/>
      </g>
     </g>
    </g>
    <g id="xtick_18">
     <g id="line2d_63">
      <path d="M 468.305393 354.973879 
L 468.305393 201.549221 
" clip-path="url(#p6cfefb47d3)" style="fill: none; stroke-dasharray: 2.96,1.28; stroke-dashoffset: 0; stroke: #808080; stroke-width: 0.8"/>
     </g>
     <g id="line2d_64">
      <g>
       <use xlink:href="#m2651db9d8e" x="468.305393" y="354.973879" style="stroke: #000000; stroke-width: 0.8"/>
      </g>
     </g>
     <g id="text_33">
      <!-- 180 -->
      <g transform="translate(458.761643 369.572316) scale(0.1 -0.1)">
       <use xlink:href="#DejaVuSans-31"/>
       <use xlink:href="#DejaVuSans-38" x="63.623047"/>
       <use xlink:href="#DejaVuSans-30" x="127.246094"/>
      </g>
     </g>
    </g>
    <g id="xtick_19">
     <g id="line2d_65">
      <path d="M 504.40379 354.973879 
L 504.40379 201.549221 
" clip-path="url(#p6cfefb47d3)" style="fill: none; stroke-dasharray: 2.96,1.28; stroke-dashoffset: 0; stroke: #808080; stroke-width: 0.8"/>
     </g>
     <g id="line2d_66">
      <g>
       <use xlink:href="#m2651db9d8e" x="504.40379" y="354.973879" style="stroke: #000000; stroke-width: 0.8"/>
      </g>
     </g>
     <g id="text_34">
      <!-- 200 -->
      <g transform="translate(494.86004 369.572316) scale(0.1 -0.1)">
       <use xlink:href="#DejaVuSans-32"/>
       <use xlink:href="#DejaVuSans-30" x="63.623047"/>
       <use xlink:href="#DejaVuSans-30" x="127.246094"/>
      </g>
     </g>
    </g>
    <g id="text_35">
     <!-- Radial coordinate $r$ -->
     <g transform="translate(366.607797 383.250441) scale(0.1 -0.1)">
      <use xlink:href="#DejaVuSans-52" transform="translate(0 0.015625)"/>
      <use xlink:href="#DejaVuSans-61" transform="translate(69.482422 0.015625)"/>
      <use xlink:href="#DejaVuSans-64" transform="translate(130.761719 0.015625)"/>
      <use xlink:href="#DejaVuSans-69" transform="translate(194.238281 0.015625)"/>
      <use xlink:href="#DejaVuSans-61" transform="translate(222.021484 0.015625)"/>
      <use xlink:href="#DejaVuSans-6c" transform="translate(283.300781 0.015625)"/>
      <use xlink:href="#DejaVuSans-20" transform="translate(311.083984 0.015625)"/>
      <use xlink:href="#DejaVuSans-63" transform="translate(342.871094 0.015625)"/>
      <use xlink:href="#DejaVuSans-6f" transform="translate(397.851562 0.015625)"/>
      <use xlink:href="#DejaVuSans-6f" transform="translate(459.033203 0.015625)"/>
      <use xlink:href="#DejaVuSans-72" transform="translate(520.214844 0.015625)"/>
      <use xlink:href="#DejaVuSans-64" transform="translate(561.328125 0.015625)"/>
      <use xlink:href="#DejaVuSans-69" transform="translate(624.804688 0.015625)"/>
      <use xlink:href="#DejaVuSans-6e" transform="translate(652.587891 0.015625)"/>
      <use xlink:href="#DejaVuSans-61" transform="translate(715.966797 0.015625)"/>
      <use xlink:href="#DejaVuSans-74" transform="translate(777.246094 0.015625)"/>
      <use xlink:href="#DejaVuSans-65" transform="translate(816.455078 0.015625)"/>
      <use xlink:href="#DejaVuSans-20" transform="translate(877.978516 0.015625)"/>
      <use xlink:href="#DejaVuSans-Oblique-72" transform="translate(909.765625 0.015625)"/>
     </g>
    </g>
   </g>
   <g id="matplotlib.axis_6">
    <g id="ytick_10">
     <g id="line2d_67">
      <path d="M 314.887205 318.63646 
L 513.42839 318.63646 
" clip-path="url(#p6cfefb47d3)" style="fill: none; stroke-dasharray: 2.96,1.28; stroke-dashoffset: 0; stroke: #808080; stroke-width: 0.8"/>
     </g>
     <g id="line2d_68">
      <g>
       <use xlink:href="#mb75d1a83ed" x="314.887205" y="318.63646" style="stroke: #000000; stroke-width: 0.8"/>
      </g>
     </g>
     <g id="text_36">
      <!-- 0.15 -->
      <g transform="translate(277.241892 322.435678) scale(0.1 -0.1)">
       <defs>
        <path id="DejaVuSans-2212" d="M 678 2272 
L 4684 2272 
L 4684 1741 
L 678 1741 
L 678 2272 
z
" transform="scale(0.015625)"/>
       </defs>
       <use xlink:href="#DejaVuSans-2212"/>
       <use xlink:href="#DejaVuSans-30" x="83.789062"/>
       <use xlink:href="#DejaVuSans-2e" x="147.412109"/>
       <use xlink:href="#DejaVuSans-31" x="179.199219"/>
       <use xlink:href="#DejaVuSans-35" x="242.822266"/>
      </g>
     </g>
    </g>
    <g id="ytick_11">
     <g id="line2d_69">
      <path d="M 314.887205 281.931996 
L 513.42839 281.931996 
" clip-path="url(#p6cfefb47d3)" style="fill: none; stroke-dasharray: 2.96,1.28; stroke-dashoffset: 0; stroke: #808080; stroke-width: 0.8"/>
     </g>
     <g id="line2d_70">
      <g>
       <use xlink:href="#mb75d1a83ed" x="314.887205" y="281.931996" style="stroke: #000000; stroke-width: 0.8"/>
      </g>
     </g>
     <g id="text_37">
      <!-- 0.10 -->
      <g transform="translate(277.241892 285.731215) scale(0.1 -0.1)">
       <use xlink:href="#DejaVuSans-2212"/>
       <use xlink:href="#DejaVuSans-30" x="83.789062"/>
       <use xlink:href="#DejaVuSans-2e" x="147.412109"/>
       <use xlink:href="#DejaVuSans-31" x="179.199219"/>
       <use xlink:href="#DejaVuSans-30" x="242.822266"/>
      </g>
     </g>
    </g>
    <g id="ytick_12">
     <g id="line2d_71">
      <path d="M 314.887205 245.227533 
L 513.42839 245.227533 
" clip-path="url(#p6cfefb47d3)" style="fill: none; stroke-dasharray: 2.96,1.28; stroke-dashoffset: 0; stroke: #808080; stroke-width: 0.8"/>
     </g>
     <g id="line2d_72">
      <g>
       <use xlink:href="#mb75d1a83ed" x="314.887205" y="245.227533" style="stroke: #000000; stroke-width: 0.8"/>
      </g>
     </g>
     <g id="text_38">
      <!-- 0.05 -->
      <g transform="translate(277.241892 249.026751) scale(0.1 -0.1)">
       <use xlink:href="#DejaVuSans-2212"/>
       <use xlink:href="#DejaVuSans-30" x="83.789062"/>
       <use xlink:href="#DejaVuSans-2e" x="147.412109"/>
       <use xlink:href="#DejaVuSans-30" x="179.199219"/>
       <use xlink:href="#DejaVuSans-35" x="242.822266"/>
      </g>
     </g>
    </g>
    <g id="ytick_13">
     <g id="line2d_73">
      <path d="M 314.887205 208.523069 
L 513.42839 208.523069 
" clip-path="url(#p6cfefb47d3)" style="fill: none; stroke-dasharray: 2.96,1.28; stroke-dashoffset: 0; stroke: #808080; stroke-width: 0.8"/>
     </g>
     <g id="line2d_74">
      <g>
       <use xlink:href="#mb75d1a83ed" x="314.887205" y="208.523069" style="stroke: #000000; stroke-width: 0.8"/>
      </g>
     </g>
     <g id="text_39">
      <!-- 0.00 -->
      <g transform="translate(285.62158 212.322288) scale(0.1 -0.1)">
       <use xlink:href="#DejaVuSans-30"/>
       <use xlink:href="#DejaVuSans-2e" x="63.623047"/>
       <use xlink:href="#DejaVuSans-30" x="95.410156"/>
       <use xlink:href="#DejaVuSans-30" x="159.033203"/>
      </g>
     </g>
    </g>
    <g id="text_40">
     <!-- Radial stress $\sigma_r$ -->
     <g transform="translate(271.162205 316.66155) rotate(-90) scale(0.1 -0.1)">
      <use xlink:href="#DejaVuSans-52" transform="translate(0 0.015625)"/>
      <use xlink:href="#DejaVuSans-61" transform="translate(69.482422 0.015625)"/>
      <use xlink:href="#DejaVuSans-64" transform="translate(130.761719 0.015625)"/>
      <use xlink:href="#DejaVuSans-69" transform="translate(194.238281 0.015625)"/>
      <use xlink:href="#DejaVuSans-61" transform="translate(222.021484 0.015625)"/>
      <use xlink:href="#DejaVuSans-6c" transform="translate(283.300781 0.015625)"/>
      <use xlink:href="#DejaVuSans-20" transform="translate(311.083984 0.015625)"/>
      <use xlink:href="#DejaVuSans-73" transform="translate(342.871094 0.015625)"/>
      <use xlink:href="#DejaVuSans-74" transform="translate(394.970703 0.015625)"/>
      <use xlink:href="#DejaVuSans-72" transform="translate(434.179688 0.015625)"/>
      <use xlink:href="#DejaVuSans-65" transform="translate(475.292969 0.015625)"/>
      <use xlink:href="#DejaVuSans-73" transform="translate(536.816406 0.015625)"/>
      <use xlink:href="#DejaVuSans-73" transform="translate(588.916016 0.015625)"/>
      <use xlink:href="#DejaVuSans-20" transform="translate(641.015625 0.015625)"/>
      <use xlink:href="#DejaVuSans-Oblique-3c3" transform="translate(672.802734 0.015625)"/>
      <use xlink:href="#DejaVuSans-Oblique-72" transform="translate(736.181641 -16.390625) scale(0.7)"/>
     </g>
    </g>
   </g>
   <g id="line2d_75">
    <path d="M 323.911804 284.811864 
L 328.424104 279.910502 
L 332.936403 275.355052 
L 337.448703 271.113714 
L 341.961003 267.158259 
L 346.473302 263.463559 
L 351.888062 259.342711 
L 357.302822 255.53086 
L 362.717581 251.997868 
L 368.132341 248.717182 
L 374.44956 245.177451 
L 380.76678 241.916581 
L 387.083999 238.906032 
L 393.401219 236.120823 
L 400.620898 233.185631 
L 407.840578 230.487567 
L 415.962717 227.704845 
L 424.084856 225.160196 
L 433.109456 222.580042 
L 442.134055 220.230187 
L 452.061114 217.879693 
L 462.890633 215.561278 
L 473.720153 213.467144 
L 485.452132 211.419198 
L 498.086571 209.437026 
L 504.40379 208.523069 
L 504.40379 208.523069 
" clip-path="url(#p6cfefb47d3)" style="fill: none; stroke: #1f77b4; stroke-width: 1.5; stroke-linecap: square"/>
   </g>
   <g id="line2d_76">
    <path d="M 323.911804 340.659138 
L 331.131484 332.680202 
L 338.351163 325.002431 
L 346.473302 316.697736 
L 354.595442 308.7188 
L 362.717581 301.041029 
L 371.74218 292.836821 
L 380.76678 284.950687 
L 389.791379 277.358881 
L 398.815978 270.040222 
L 408.743038 262.282593 
L 418.670097 254.809951 
L 428.597156 247.602097 
L 436.719295 241.946085 
L 443.036515 237.842593 
L 449.353735 233.990666 
L 456.573414 229.870745 
L 463.793093 226.026204 
L 471.012773 222.433036 
L 478.232452 219.069795 
L 486.354592 215.537146 
L 494.476731 212.246845 
L 503.50133 208.848916 
L 504.40379 208.523069 
L 504.40379 208.523069 
" clip-path="url(#p6cfefb47d3)" style="fill: none; stroke: #ff7f0e; stroke-width: 1.5; stroke-linecap: square"/>
   </g>
   <g id="line2d_77">
    <path d="M 323.911804 348.000031 
L 331.131484 340.021095 
L 338.351163 332.343324 
L 346.473302 324.038628 
L 354.595442 316.059692 
L 362.717581 308.381921 
L 371.74218 300.177714 
L 380.76678 292.291579 
L 389.791379 284.699774 
L 398.815978 277.381114 
L 408.743038 269.623486 
L 418.670097 262.150844 
L 428.597156 254.94299 
L 439.426675 247.360617 
L 450.256194 240.050725 
L 461.085714 232.994406 
L 472.817693 225.616531 
L 480.037372 221.282615 
L 487.257052 217.217963 
L 494.476731 213.4015 
L 502.59887 209.38006 
L 504.40379 208.523069 
L 504.40379 208.523069 
" clip-path="url(#p6cfefb47d3)" style="fill: none; stroke: #2ca02c; stroke-width: 1.5; stroke-linecap: square"/>
   </g>
   <g id="line2d_78">
    <g clip-path="url(#p6cfefb47d3)">
     <use xlink:href="#m47921acb5a" x="329.990522" y="275.649084" style="stroke: #000000"/>
     <use xlink:href="#m47921acb5a" x="346.661506" y="261.214039" style="stroke: #000000"/>
     <use xlink:href="#m47921acb5a" x="360.391015" y="251.781781" style="stroke: #000000"/>
     <use xlink:href="#m47921acb5a" x="381.229745" y="240.410474" style="stroke: #000000"/>
     <use xlink:href="#m47921acb5a" x="399.535757" y="232.666738" style="stroke: #000000"/>
     <use xlink:href="#m47921acb5a" x="428.70998" y="223.207856" style="stroke: #000000"/>
     <use xlink:href="#m47921acb5a" x="453.117995" y="217.30225" style="stroke: #000000"/>
     <use xlink:href="#m47921acb5a" x="490.62771" y="210.486635" style="stroke: #000000"/>
    </g>
   </g>
   <g id="line2d_79">
    <g clip-path="url(#p6cfefb47d3)">
     <use xlink:href="#m47921acb5a" x="329.990522" y="333.891261" style="stroke: #000000"/>
     <use xlink:href="#m47921acb5a" x="346.661506" y="316.493095" style="stroke: #000000"/>
     <use xlink:href="#m47921acb5a" x="360.391015" y="303.182007" style="stroke: #000000"/>
     <use xlink:href="#m47921acb5a" x="381.229745" y="284.545524" style="stroke: #000000"/>
     <use xlink:href="#m47921acb5a" x="399.535757" y="269.454976" style="stroke: #000000"/>
     <use xlink:href="#m47921acb5a" x="428.70998" y="247.656626" style="stroke: #000000"/>
     <use xlink:href="#m47921acb5a" x="453.117995" y="231.885496" style="stroke: #000000"/>
     <use xlink:href="#m47921acb5a" x="490.62771" y="213.748291" style="stroke: #000000"/>
    </g>
   </g>
   <g id="line2d_80">
    <g clip-path="url(#p6cfefb47d3)">
     <use xlink:href="#m47921acb5a" x="329.990522" y="341.231232" style="stroke: #000000"/>
     <use xlink:href="#m47921acb5a" x="346.661506" y="323.832605" style="stroke: #000000"/>
     <use xlink:href="#m47921acb5a" x="360.391015" y="310.522679" style="stroke: #000000"/>
     <use xlink:href="#m47921acb5a" x="381.229745" y="291.880359" style="stroke: #000000"/>
     <use xlink:href="#m47921acb5a" x="399.535757" y="276.776122" style="stroke: #000000"/>
     <use xlink:href="#m47921acb5a" x="428.70998" y="254.896964" style="stroke: #000000"/>
     <use xlink:href="#m47921acb5a" x="453.117995" y="238.179001" style="stroke: #000000"/>
     <use xlink:href="#m47921acb5a" x="490.62771" y="215.821582" style="stroke: #000000"/>
    </g>
   </g>
   <g id="patch_14">
    <path d="M 314.887205 354.973879 
L 314.887205 201.549221 
" style="fill: none; stroke: #000000; stroke-width: 0.8; stroke-linejoin: miter; stroke-linecap: square"/>
   </g>
   <g id="patch_15">
    <path d="M 513.42839 354.973879 
L 513.42839 201.549221 
" style="fill: none; stroke: #000000; stroke-width: 0.8; stroke-linejoin: miter; stroke-linecap: square"/>
   </g>
   <g id="patch_16">
    <path d="M 314.887205 354.973879 
L 513.42839 354.973879 
" style="fill: none; stroke: #000000; stroke-width: 0.8; stroke-linejoin: miter; stroke-linecap: square"/>
   </g>
   <g id="patch_17">
    <path d="M 314.887205 201.549221 
L 513.42839 201.549221 
" style="fill: none; stroke: #000000; stroke-width: 0.8; stroke-linejoin: miter; stroke-linecap: square"/>
   </g>
  </g>
  <g id="axes_4">
   <g id="line2d_81">
    <path d="M 381.0676 316.617714 
" clip-path="url(#p65ae4aa938)" style="fill: none; stroke: #1f77b4; stroke-width: 1.5; stroke-linecap: square"/>
   </g>
   <g id="line2d_82">
    <path d="M 381.0676 316.617714 
" clip-path="url(#p65ae4aa938)" style="fill: none; stroke: #ff7f0e; stroke-width: 1.5; stroke-linecap: square"/>
   </g>
   <g id="line2d_83">
    <path d="M 381.0676 316.617714 
" clip-path="url(#p65ae4aa938)" style="fill: none; stroke: #2ca02c; stroke-width: 1.5; stroke-linecap: square"/>
   </g>
   <g id="line2d_84">
    <g clip-path="url(#p65ae4aa938)">
     <use xlink:href="#m47921acb5a" x="381.0676" y="316.617714" style="stroke: #000000"/>
    </g>
   </g>
   <g id="legend_2">
    <g id="patch_18">
     <path d="M 416.157797 186.206755 
L 504.81035 186.206755 
Q 506.81035 186.206755 506.81035 184.206755 
L 506.81035 126.494255 
Q 506.81035 124.494255 504.81035 124.494255 
L 416.157797 124.494255 
Q 414.157797 124.494255 414.157797 126.494255 
L 414.157797 184.206755 
Q 414.157797 186.206755 416.157797 186.206755 
z
" style="fill: #ffffff; opacity: 0.8; stroke: #cccccc; stroke-linejoin: miter"/>
    </g>
    <g id="line2d_85">
     <path d="M 418.157797 132.592693 
L 430.657797 132.592693 
L 443.157797 132.592693 
" style="fill: none; stroke: #1f77b4; stroke-width: 1.5; stroke-linecap: square"/>
    </g>
    <g id="text_41">
     <!--  $P = 0.1$ -->
     <g transform="translate(443.657797 136.092693) scale(0.1 -0.1)">
      <defs>
       <path id="DejaVuSans-3d" d="M 678 2906 
L 4684 2906 
L 4684 2381 
L 678 2381 
L 678 2906 
z
M 678 1631 
L 4684 1631 
L 4684 1100 
L 678 1100 
L 678 1631 
z
" transform="scale(0.015625)"/>
      </defs>
      <use xlink:href="#DejaVuSans-20" transform="translate(0 0.78125)"/>
      <use xlink:href="#DejaVuSans-Oblique-50" transform="translate(31.787109 0.78125)"/>
      <use xlink:href="#DejaVuSans-3d" transform="translate(111.572266 0.78125)"/>
      <use xlink:href="#DejaVuSans-30" transform="translate(214.84375 0.78125)"/>
      <use xlink:href="#DejaVuSans-2e" transform="translate(278.466797 0.78125)"/>
      <use xlink:href="#DejaVuSans-31" transform="translate(310.253906 0.78125)"/>
     </g>
    </g>
    <g id="line2d_86">
     <path d="M 418.157797 147.270818 
L 430.657797 147.270818 
L 443.157797 147.270818 
" style="fill: none; stroke: #ff7f0e; stroke-width: 1.5; stroke-linecap: square"/>
    </g>
    <g id="text_42">
     <!--  $P = 0.18$ -->
     <g transform="translate(443.657797 150.770818) scale(0.1 -0.1)">
      <use xlink:href="#DejaVuSans-20" transform="translate(0 0.78125)"/>
      <use xlink:href="#DejaVuSans-Oblique-50" transform="translate(31.787109 0.78125)"/>
      <use xlink:href="#DejaVuSans-3d" transform="translate(111.572266 0.78125)"/>
      <use xlink:href="#DejaVuSans-30" transform="translate(214.84375 0.78125)"/>
      <use xlink:href="#DejaVuSans-2e" transform="translate(278.466797 0.78125)"/>
      <use xlink:href="#DejaVuSans-31" transform="translate(310.253906 0.78125)"/>
      <use xlink:href="#DejaVuSans-38" transform="translate(373.876953 0.78125)"/>
     </g>
    </g>
    <g id="line2d_87">
     <path d="M 418.157797 161.948943 
L 430.657797 161.948943 
L 443.157797 161.948943 
" style="fill: none; stroke: #2ca02c; stroke-width: 1.5; stroke-linecap: square"/>
    </g>
    <g id="text_43">
     <!--  $P = 0.19$ -->
     <g transform="translate(443.657797 165.448943) scale(0.1 -0.1)">
      <defs>
       <path id="DejaVuSans-39" d="M 703 97 
L 703 672 
Q 941 559 1184 500 
Q 1428 441 1663 441 
Q 2288 441 2617 861 
Q 2947 1281 2994 2138 
Q 2813 1869 2534 1725 
Q 2256 1581 1919 1581 
Q 1219 1581 811 2004 
Q 403 2428 403 3163 
Q 403 3881 828 4315 
Q 1253 4750 1959 4750 
Q 2769 4750 3195 4129 
Q 3622 3509 3622 2328 
Q 3622 1225 3098 567 
Q 2575 -91 1691 -91 
Q 1453 -91 1209 -44 
Q 966 3 703 97 
z
M 1959 2075 
Q 2384 2075 2632 2365 
Q 2881 2656 2881 3163 
Q 2881 3666 2632 3958 
Q 2384 4250 1959 4250 
Q 1534 4250 1286 3958 
Q 1038 3666 1038 3163 
Q 1038 2656 1286 2365 
Q 1534 2075 1959 2075 
z
" transform="scale(0.015625)"/>
      </defs>
      <use xlink:href="#DejaVuSans-20" transform="translate(0 0.78125)"/>
      <use xlink:href="#DejaVuSans-Oblique-50" transform="translate(31.787109 0.78125)"/>
      <use xlink:href="#DejaVuSans-3d" transform="translate(111.572266 0.78125)"/>
      <use xlink:href="#DejaVuSans-30" transform="translate(214.84375 0.78125)"/>
      <use xlink:href="#DejaVuSans-2e" transform="translate(278.466797 0.78125)"/>
      <use xlink:href="#DejaVuSans-31" transform="translate(310.253906 0.78125)"/>
      <use xlink:href="#DejaVuSans-39" transform="translate(373.876953 0.78125)"/>
     </g>
    </g>
    <g id="line2d_88">
     <g>
      <use xlink:href="#m47921acb5a" x="430.657797" y="176.627068" style="stroke: #000000"/>
     </g>
    </g>
    <g id="text_44">
     <!-- numerical -->
     <g transform="translate(443.657797 180.127068) scale(0.1 -0.1)">
      <use xlink:href="#DejaVuSans-6e"/>
      <use xlink:href="#DejaVuSans-75" x="63.378906"/>
      <use xlink:href="#DejaVuSans-6d" x="126.757812"/>
      <use xlink:href="#DejaVuSans-65" x="224.169922"/>
      <use xlink:href="#DejaVuSans-72" x="285.693359"/>
      <use xlink:href="#DejaVuSans-69" x="326.806641"/>
      <use xlink:href="#DejaVuSans-63" x="354.589844"/>
      <use xlink:href="#DejaVuSans-61" x="409.570312"/>
      <use xlink:href="#DejaVuSans-6c" x="470.849609"/>
     </g>
    </g>
   </g>
  </g>
 </g>
 <defs>
  <clipPath id="p24f8c5689c">
   <rect x="50.165625" y="9.768399" width="330.901975" height="153.424658"/>
  </clipPath>
  <clipPath id="p7ca8691e2d">
   <rect x="50.165625" y="201.549221" width="198.541185" height="153.424658"/>
  </clipPath>
  <clipPath id="p6cfefb47d3">
   <rect x="314.887205" y="201.549221" width="198.541185" height="153.424658"/>
  </clipPath>
  <clipPath id="p65ae4aa938">
   <rect x="447.247995" y="9.768399" width="66.180395" height="153.424658"/>
  </clipPath>
 </defs>
</svg>
