<?xml version="1.0" encoding="utf-8" standalone="no"?>
<!DOCTYPE svg PUBLIC "-//W3C//DTD SVG 1.1//EN"
  "http://www.w3.org/Graphics/SVG/1.1/DTD/svg11.dtd">
<svg xmlns:xlink="http://www.w3.org/1999/xlink" width="517.450265pt" height="240.336291pt" viewBox="0 0 517.450265 240.336291" xmlns="http://www.w3.org/2000/svg" version="1.1">
 <metadata>
  <rdf:RDF xmlns:dc="http://purl.org/dc/elements/1.1/" xmlns:cc="http://creativecommons.org/ns#" xmlns:rdf="http://www.w3.org/1999/02/22-rdf-syntax-ns#">
   <cc:Work>
    <dc:type rdf:resource="http://purl.org/dc/dcmitype/StillImage"/>
    <dc:date>2025-02-14T16:31:44.511888</dc:date>
    <dc:format>image/svg+xml</dc:format>
    <dc:creator>
     <cc:Agent>
      <dc:title>Matplotlib v3.6.3, https://matplotlib.org/</dc:title>
     </cc:Agent>
    </dc:creator>
   </cc:Work>
  </rdf:RDF>
 </metadata>
 <defs>
  <style type="text/css">*{stroke-linejoin: round; stroke-linecap: butt}</style>
 </defs>
 <g id="figure_1">
  <g id="patch_1">
   <path d="M 0 240.336291 
L 517.450265 240.336291 
L 517.450265 0 
L 0 0 
z
" style="fill: #ffffff"/>
  </g>
  <g id="axes_1">
   <g id="patch_2">
    <path d="M 46.9875 202.780041 
L 257.561484 202.780041 
L 257.561484 10.999219 
L 46.9875 10.999219 
z
" style="fill: #ffffff"/>
   </g>
   <g id="matplotlib.axis_1">
    <g id="xtick_1">
     <g id="line2d_1">
      <path d="M 56.559045 202.780041 
L 56.559045 10.999219 
" clip-path="url(#p74072ac0f8)" style="fill: none; stroke-dasharray: 2.96,1.28; stroke-dashoffset: 0; stroke: #808080; stroke-width: 0.8"/>
     </g>
     <g id="line2d_2">
      <defs>
       <path id="me2c63903cf" d="M 0 0 
L 0 3.5 
" style="stroke: #000000; stroke-width: 0.8"/>
      </defs>
      <g>
       <use xlink:href="#me2c63903cf" x="56.559045" y="202.780041" style="stroke: #000000; stroke-width: 0.8"/>
      </g>
     </g>
     <g id="text_1">
      <!-- 0.00 -->
      <g transform="translate(45.426232 217.378478) scale(0.1 -0.1)">
       <defs>
        <path id="DejaVuSans-30" d="M 2034 4250 
Q 1547 4250 1301 3770 
Q 1056 3291 1056 2328 
Q 1056 1369 1301 889 
Q 1547 409 2034 409 
Q 2525 409 2770 889 
Q 3016 1369 3016 2328 
Q 3016 3291 2770 3770 
Q 2525 4250 2034 4250 
z
M 2034 4750 
Q 2819 4750 3233 4129 
Q 3647 3509 3647 2328 
Q 3647 1150 3233 529 
Q 2819 -91 2034 -91 
Q 1250 -91 836 529 
Q 422 1150 422 2328 
Q 422 3509 836 4129 
Q 1250 4750 2034 4750 
z
" transform="scale(0.015625)"/>
        <path id="DejaVuSans-2e" d="M 684 794 
L 1344 794 
L 1344 0 
L 684 0 
L 684 794 
z
" transform="scale(0.015625)"/>
       </defs>
       <use xlink:href="#DejaVuSans-30"/>
       <use xlink:href="#DejaVuSans-2e" x="63.623047"/>
       <use xlink:href="#DejaVuSans-30" x="95.410156"/>
       <use xlink:href="#DejaVuSans-30" x="159.033203"/>
      </g>
     </g>
    </g>
    <g id="xtick_2">
     <g id="line2d_3">
      <path d="M 91.93479 202.780041 
L 91.93479 10.999219 
" clip-path="url(#p74072ac0f8)" style="fill: none; stroke-dasharray: 2.96,1.28; stroke-dashoffset: 0; stroke: #808080; stroke-width: 0.8"/>
     </g>
     <g id="line2d_4">
      <g>
       <use xlink:href="#me2c63903cf" x="91.93479" y="202.780041" style="stroke: #000000; stroke-width: 0.8"/>
      </g>
     </g>
     <g id="text_2">
      <!-- 0.25 -->
      <g transform="translate(80.801978 217.378478) scale(0.1 -0.1)">
       <defs>
        <path id="DejaVuSans-32" d="M 1228 531 
L 3431 531 
L 3431 0 
L 469 0 
L 469 531 
Q 828 903 1448 1529 
Q 2069 2156 2228 2338 
Q 2531 2678 2651 2914 
Q 2772 3150 2772 3378 
Q 2772 3750 2511 3984 
Q 2250 4219 1831 4219 
Q 1534 4219 1204 4116 
Q 875 4013 500 3803 
L 500 4441 
Q 881 4594 1212 4672 
Q 1544 4750 1819 4750 
Q 2544 4750 2975 4387 
Q 3406 4025 3406 3419 
Q 3406 3131 3298 2873 
Q 3191 2616 2906 2266 
Q 2828 2175 2409 1742 
Q 1991 1309 1228 531 
z
" transform="scale(0.015625)"/>
        <path id="DejaVuSans-35" d="M 691 4666 
L 3169 4666 
L 3169 4134 
L 1269 4134 
L 1269 2991 
Q 1406 3038 1543 3061 
Q 1681 3084 1819 3084 
Q 2600 3084 3056 2656 
Q 3513 2228 3513 1497 
Q 3513 744 3044 326 
Q 2575 -91 1722 -91 
Q 1428 -91 1123 -41 
Q 819 9 494 109 
L 494 744 
Q 775 591 1075 516 
Q 1375 441 1709 441 
Q 2250 441 2565 725 
Q 2881 1009 2881 1497 
Q 2881 1984 2565 2268 
Q 2250 2553 1709 2553 
Q 1456 2553 1204 2497 
Q 953 2441 691 2322 
L 691 4666 
z
" transform="scale(0.015625)"/>
       </defs>
       <use xlink:href="#DejaVuSans-30"/>
       <use xlink:href="#DejaVuSans-2e" x="63.623047"/>
       <use xlink:href="#DejaVuSans-32" x="95.410156"/>
       <use xlink:href="#DejaVuSans-35" x="159.033203"/>
      </g>
     </g>
    </g>
    <g id="xtick_3">
     <g id="line2d_5">
      <path d="M 127.310536 202.780041 
L 127.310536 10.999219 
" clip-path="url(#p74072ac0f8)" style="fill: none; stroke-dasharray: 2.96,1.28; stroke-dashoffset: 0; stroke: #808080; stroke-width: 0.8"/>
     </g>
     <g id="line2d_6">
      <g>
       <use xlink:href="#me2c63903cf" x="127.310536" y="202.780041" style="stroke: #000000; stroke-width: 0.8"/>
      </g>
     </g>
     <g id="text_3">
      <!-- 0.50 -->
      <g transform="translate(116.177723 217.378478) scale(0.1 -0.1)">
       <use xlink:href="#DejaVuSans-30"/>
       <use xlink:href="#DejaVuSans-2e" x="63.623047"/>
       <use xlink:href="#DejaVuSans-35" x="95.410156"/>
       <use xlink:href="#DejaVuSans-30" x="159.033203"/>
      </g>
     </g>
    </g>
    <g id="xtick_4">
     <g id="line2d_7">
      <path d="M 162.686281 202.780041 
L 162.686281 10.999219 
" clip-path="url(#p74072ac0f8)" style="fill: none; stroke-dasharray: 2.96,1.28; stroke-dashoffset: 0; stroke: #808080; stroke-width: 0.8"/>
     </g>
     <g id="line2d_8">
      <g>
       <use xlink:href="#me2c63903cf" x="162.686281" y="202.780041" style="stroke: #000000; stroke-width: 0.8"/>
      </g>
     </g>
     <g id="text_4">
      <!-- 0.75 -->
      <g transform="translate(151.553469 217.378478) scale(0.1 -0.1)">
       <defs>
        <path id="DejaVuSans-37" d="M 525 4666 
L 3525 4666 
L 3525 4397 
L 1831 0 
L 1172 0 
L 2766 4134 
L 525 4134 
L 525 4666 
z
" transform="scale(0.015625)"/>
       </defs>
       <use xlink:href="#DejaVuSans-30"/>
       <use xlink:href="#DejaVuSans-2e" x="63.623047"/>
       <use xlink:href="#DejaVuSans-37" x="95.410156"/>
       <use xlink:href="#DejaVuSans-35" x="159.033203"/>
      </g>
     </g>
    </g>
    <g id="xtick_5">
     <g id="line2d_9">
      <path d="M 198.062027 202.780041 
L 198.062027 10.999219 
" clip-path="url(#p74072ac0f8)" style="fill: none; stroke-dasharray: 2.96,1.28; stroke-dashoffset: 0; stroke: #808080; stroke-width: 0.8"/>
     </g>
     <g id="line2d_10">
      <g>
       <use xlink:href="#me2c63903cf" x="198.062027" y="202.780041" style="stroke: #000000; stroke-width: 0.8"/>
      </g>
     </g>
     <g id="text_5">
      <!-- 1.00 -->
      <g transform="translate(186.929214 217.378478) scale(0.1 -0.1)">
       <defs>
        <path id="DejaVuSans-31" d="M 794 531 
L 1825 531 
L 1825 4091 
L 703 3866 
L 703 4441 
L 1819 4666 
L 2450 4666 
L 2450 531 
L 3481 531 
L 3481 0 
L 794 0 
L 794 531 
z
" transform="scale(0.015625)"/>
       </defs>
       <use xlink:href="#DejaVuSans-31"/>
       <use xlink:href="#DejaVuSans-2e" x="63.623047"/>
       <use xlink:href="#DejaVuSans-30" x="95.410156"/>
       <use xlink:href="#DejaVuSans-30" x="159.033203"/>
      </g>
     </g>
    </g>
    <g id="xtick_6">
     <g id="line2d_11">
      <path d="M 233.437773 202.780041 
L 233.437773 10.999219 
" clip-path="url(#p74072ac0f8)" style="fill: none; stroke-dasharray: 2.96,1.28; stroke-dashoffset: 0; stroke: #808080; stroke-width: 0.8"/>
     </g>
     <g id="line2d_12">
      <g>
       <use xlink:href="#me2c63903cf" x="233.437773" y="202.780041" style="stroke: #000000; stroke-width: 0.8"/>
      </g>
     </g>
     <g id="text_6">
      <!-- 1.25 -->
      <g transform="translate(222.30496 217.378478) scale(0.1 -0.1)">
       <use xlink:href="#DejaVuSans-31"/>
       <use xlink:href="#DejaVuSans-2e" x="63.623047"/>
       <use xlink:href="#DejaVuSans-32" x="95.410156"/>
       <use xlink:href="#DejaVuSans-35" x="159.033203"/>
      </g>
     </g>
    </g>
    <g id="text_7">
     <!-- Central deflection $w$ -->
     <g transform="translate(101.974492 231.056603) scale(0.1 -0.1)">
      <defs>
       <path id="DejaVuSans-43" d="M 4122 4306 
L 4122 3641 
Q 3803 3938 3442 4084 
Q 3081 4231 2675 4231 
Q 1875 4231 1450 3742 
Q 1025 3253 1025 2328 
Q 1025 1406 1450 917 
Q 1875 428 2675 428 
Q 3081 428 3442 575 
Q 3803 722 4122 1019 
L 4122 359 
Q 3791 134 3420 21 
Q 3050 -91 2638 -91 
Q 1578 -91 968 557 
Q 359 1206 359 2328 
Q 359 3453 968 4101 
Q 1578 4750 2638 4750 
Q 3056 4750 3426 4639 
Q 3797 4528 4122 4306 
z
" transform="scale(0.015625)"/>
       <path id="DejaVuSans-65" d="M 3597 1894 
L 3597 1613 
L 953 1613 
Q 991 1019 1311 708 
Q 1631 397 2203 397 
Q 2534 397 2845 478 
Q 3156 559 3463 722 
L 3463 178 
Q 3153 47 2828 -22 
Q 2503 -91 2169 -91 
Q 1331 -91 842 396 
Q 353 884 353 1716 
Q 353 2575 817 3079 
Q 1281 3584 2069 3584 
Q 2775 3584 3186 3129 
Q 3597 2675 3597 1894 
z
M 3022 2063 
Q 3016 2534 2758 2815 
Q 2500 3097 2075 3097 
Q 1594 3097 1305 2825 
Q 1016 2553 972 2059 
L 3022 2063 
z
" transform="scale(0.015625)"/>
       <path id="DejaVuSans-6e" d="M 3513 2113 
L 3513 0 
L 2938 0 
L 2938 2094 
Q 2938 2591 2744 2837 
Q 2550 3084 2163 3084 
Q 1697 3084 1428 2787 
Q 1159 2491 1159 1978 
L 1159 0 
L 581 0 
L 581 3500 
L 1159 3500 
L 1159 2956 
Q 1366 3272 1645 3428 
Q 1925 3584 2291 3584 
Q 2894 3584 3203 3211 
Q 3513 2838 3513 2113 
z
" transform="scale(0.015625)"/>
       <path id="DejaVuSans-74" d="M 1172 4494 
L 1172 3500 
L 2356 3500 
L 2356 3053 
L 1172 3053 
L 1172 1153 
Q 1172 725 1289 603 
Q 1406 481 1766 481 
L 2356 481 
L 2356 0 
L 1766 0 
Q 1100 0 847 248 
Q 594 497 594 1153 
L 594 3053 
L 172 3053 
L 172 3500 
L 594 3500 
L 594 4494 
L 1172 4494 
z
" transform="scale(0.015625)"/>
       <path id="DejaVuSans-72" d="M 2631 2963 
Q 2534 3019 2420 3045 
Q 2306 3072 2169 3072 
Q 1681 3072 1420 2755 
Q 1159 2438 1159 1844 
L 1159 0 
L 581 0 
L 581 3500 
L 1159 3500 
L 1159 2956 
Q 1341 3275 1631 3429 
Q 1922 3584 2338 3584 
Q 2397 3584 2469 3576 
Q 2541 3569 2628 3553 
L 2631 2963 
z
" transform="scale(0.015625)"/>
       <path id="DejaVuSans-61" d="M 2194 1759 
Q 1497 1759 1228 1600 
Q 959 1441 959 1056 
Q 959 750 1161 570 
Q 1363 391 1709 391 
Q 2188 391 2477 730 
Q 2766 1069 2766 1631 
L 2766 1759 
L 2194 1759 
z
M 3341 1997 
L 3341 0 
L 2766 0 
L 2766 531 
Q 2569 213 2275 61 
Q 1981 -91 1556 -91 
Q 1019 -91 701 211 
Q 384 513 384 1019 
Q 384 1609 779 1909 
Q 1175 2209 1959 2209 
L 2766 2209 
L 2766 2266 
Q 2766 2663 2505 2880 
Q 2244 3097 1772 3097 
Q 1472 3097 1187 3025 
Q 903 2953 641 2809 
L 641 3341 
Q 956 3463 1253 3523 
Q 1550 3584 1831 3584 
Q 2591 3584 2966 3190 
Q 3341 2797 3341 1997 
z
" transform="scale(0.015625)"/>
       <path id="DejaVuSans-6c" d="M 603 4863 
L 1178 4863 
L 1178 0 
L 603 0 
L 603 4863 
z
" transform="scale(0.015625)"/>
       <path id="DejaVuSans-20" transform="scale(0.015625)"/>
       <path id="DejaVuSans-64" d="M 2906 2969 
L 2906 4863 
L 3481 4863 
L 3481 0 
L 2906 0 
L 2906 525 
Q 2725 213 2448 61 
Q 2172 -91 1784 -91 
Q 1150 -91 751 415 
Q 353 922 353 1747 
Q 353 2572 751 3078 
Q 1150 3584 1784 3584 
Q 2172 3584 2448 3432 
Q 2725 3281 2906 2969 
z
M 947 1747 
Q 947 1113 1208 752 
Q 1469 391 1925 391 
Q 2381 391 2643 752 
Q 2906 1113 2906 1747 
Q 2906 2381 2643 2742 
Q 2381 3103 1925 3103 
Q 1469 3103 1208 2742 
Q 947 2381 947 1747 
z
" transform="scale(0.015625)"/>
       <path id="DejaVuSans-66" d="M 2375 4863 
L 2375 4384 
L 1825 4384 
Q 1516 4384 1395 4259 
Q 1275 4134 1275 3809 
L 1275 3500 
L 2222 3500 
L 2222 3053 
L 1275 3053 
L 1275 0 
L 697 0 
L 697 3053 
L 147 3053 
L 147 3500 
L 697 3500 
L 697 3744 
Q 697 4328 969 4595 
Q 1241 4863 1831 4863 
L 2375 4863 
z
" transform="scale(0.015625)"/>
       <path id="DejaVuSans-63" d="M 3122 3366 
L 3122 2828 
Q 2878 2963 2633 3030 
Q 2388 3097 2138 3097 
Q 1578 3097 1268 2742 
Q 959 2388 959 1747 
Q 959 1106 1268 751 
Q 1578 397 2138 397 
Q 2388 397 2633 464 
Q 2878 531 3122 666 
L 3122 134 
Q 2881 22 2623 -34 
Q 2366 -91 2075 -91 
Q 1284 -91 818 406 
Q 353 903 353 1747 
Q 353 2603 823 3093 
Q 1294 3584 2113 3584 
Q 2378 3584 2631 3529 
Q 2884 3475 3122 3366 
z
" transform="scale(0.015625)"/>
       <path id="DejaVuSans-69" d="M 603 3500 
L 1178 3500 
L 1178 0 
L 603 0 
L 603 3500 
z
M 603 4863 
L 1178 4863 
L 1178 4134 
L 603 4134 
L 603 4863 
z
" transform="scale(0.015625)"/>
       <path id="DejaVuSans-6f" d="M 1959 3097 
Q 1497 3097 1228 2736 
Q 959 2375 959 1747 
Q 959 1119 1226 758 
Q 1494 397 1959 397 
Q 2419 397 2687 759 
Q 2956 1122 2956 1747 
Q 2956 2369 2687 2733 
Q 2419 3097 1959 3097 
z
M 1959 3584 
Q 2709 3584 3137 3096 
Q 3566 2609 3566 1747 
Q 3566 888 3137 398 
Q 2709 -91 1959 -91 
Q 1206 -91 779 398 
Q 353 888 353 1747 
Q 353 2609 779 3096 
Q 1206 3584 1959 3584 
z
" transform="scale(0.015625)"/>
       <path id="DejaVuSans-Oblique-77" d="M 544 3500 
L 1113 3500 
L 1259 684 
L 2566 3500 
L 3231 3500 
L 3425 684 
L 4666 3500 
L 5241 3500 
L 3641 0 
L 2969 0 
L 2797 2900 
L 1459 0 
L 781 0 
L 544 3500 
z
" transform="scale(0.015625)"/>
      </defs>
      <use xlink:href="#DejaVuSans-43" transform="translate(0 0.015625)"/>
      <use xlink:href="#DejaVuSans-65" transform="translate(69.824219 0.015625)"/>
      <use xlink:href="#DejaVuSans-6e" transform="translate(131.347656 0.015625)"/>
      <use xlink:href="#DejaVuSans-74" transform="translate(194.726562 0.015625)"/>
      <use xlink:href="#DejaVuSans-72" transform="translate(233.935547 0.015625)"/>
      <use xlink:href="#DejaVuSans-61" transform="translate(275.048828 0.015625)"/>
      <use xlink:href="#DejaVuSans-6c" transform="translate(336.328125 0.015625)"/>
      <use xlink:href="#DejaVuSans-20" transform="translate(364.111328 0.015625)"/>
      <use xlink:href="#DejaVuSans-64" transform="translate(395.898438 0.015625)"/>
      <use xlink:href="#DejaVuSans-65" transform="translate(459.375 0.015625)"/>
      <use xlink:href="#DejaVuSans-66" transform="translate(520.898438 0.015625)"/>
      <use xlink:href="#DejaVuSans-6c" transform="translate(556.103516 0.015625)"/>
      <use xlink:href="#DejaVuSans-65" transform="translate(583.886719 0.015625)"/>
      <use xlink:href="#DejaVuSans-63" transform="translate(645.410156 0.015625)"/>
      <use xlink:href="#DejaVuSans-74" transform="translate(700.390625 0.015625)"/>
      <use xlink:href="#DejaVuSans-69" transform="translate(739.599609 0.015625)"/>
      <use xlink:href="#DejaVuSans-6f" transform="translate(767.382812 0.015625)"/>
      <use xlink:href="#DejaVuSans-6e" transform="translate(828.564453 0.015625)"/>
      <use xlink:href="#DejaVuSans-20" transform="translate(891.943359 0.015625)"/>
      <use xlink:href="#DejaVuSans-Oblique-77" transform="translate(923.730469 0.015625)"/>
     </g>
    </g>
   </g>
   <g id="matplotlib.axis_2">
    <g id="ytick_1">
     <g id="line2d_13">
      <path d="M 46.9875 194.062731 
L 257.561484 194.062731 
" clip-path="url(#p74072ac0f8)" style="fill: none; stroke-dasharray: 2.96,1.28; stroke-dashoffset: 0; stroke: #808080; stroke-width: 0.8"/>
     </g>
     <g id="line2d_14">
      <defs>
       <path id="m8a09672b35" d="M 0 0 
L -3.5 0 
" style="stroke: #000000; stroke-width: 0.8"/>
      </defs>
      <g>
       <use xlink:href="#m8a09672b35" x="46.9875" y="194.062731" style="stroke: #000000; stroke-width: 0.8"/>
      </g>
     </g>
     <g id="text_8">
      <!-- 0 -->
      <g transform="translate(33.625 197.861949) scale(0.1 -0.1)">
       <use xlink:href="#DejaVuSans-30"/>
      </g>
     </g>
    </g>
    <g id="ytick_2">
     <g id="line2d_15">
      <path d="M 46.9875 160.637462 
L 257.561484 160.637462 
" clip-path="url(#p74072ac0f8)" style="fill: none; stroke-dasharray: 2.96,1.28; stroke-dashoffset: 0; stroke: #808080; stroke-width: 0.8"/>
     </g>
     <g id="line2d_16">
      <g>
       <use xlink:href="#m8a09672b35" x="46.9875" y="160.637462" style="stroke: #000000; stroke-width: 0.8"/>
      </g>
     </g>
     <g id="text_9">
      <!-- 50 -->
      <g transform="translate(27.2625 164.436681) scale(0.1 -0.1)">
       <use xlink:href="#DejaVuSans-35"/>
       <use xlink:href="#DejaVuSans-30" x="63.623047"/>
      </g>
     </g>
    </g>
    <g id="ytick_3">
     <g id="line2d_17">
      <path d="M 46.9875 127.212193 
L 257.561484 127.212193 
" clip-path="url(#p74072ac0f8)" style="fill: none; stroke-dasharray: 2.96,1.28; stroke-dashoffset: 0; stroke: #808080; stroke-width: 0.8"/>
     </g>
     <g id="line2d_18">
      <g>
       <use xlink:href="#m8a09672b35" x="46.9875" y="127.212193" style="stroke: #000000; stroke-width: 0.8"/>
      </g>
     </g>
     <g id="text_10">
      <!-- 100 -->
      <g transform="translate(20.9 131.011412) scale(0.1 -0.1)">
       <use xlink:href="#DejaVuSans-31"/>
       <use xlink:href="#DejaVuSans-30" x="63.623047"/>
       <use xlink:href="#DejaVuSans-30" x="127.246094"/>
      </g>
     </g>
    </g>
    <g id="ytick_4">
     <g id="line2d_19">
      <path d="M 46.9875 93.786924 
L 257.561484 93.786924 
" clip-path="url(#p74072ac0f8)" style="fill: none; stroke-dasharray: 2.96,1.28; stroke-dashoffset: 0; stroke: #808080; stroke-width: 0.8"/>
     </g>
     <g id="line2d_20">
      <g>
       <use xlink:href="#m8a09672b35" x="46.9875" y="93.786924" style="stroke: #000000; stroke-width: 0.8"/>
      </g>
     </g>
     <g id="text_11">
      <!-- 150 -->
      <g transform="translate(20.9 97.586143) scale(0.1 -0.1)">
       <use xlink:href="#DejaVuSans-31"/>
       <use xlink:href="#DejaVuSans-35" x="63.623047"/>
       <use xlink:href="#DejaVuSans-30" x="127.246094"/>
      </g>
     </g>
    </g>
    <g id="ytick_5">
     <g id="line2d_21">
      <path d="M 46.9875 60.361656 
L 257.561484 60.361656 
" clip-path="url(#p74072ac0f8)" style="fill: none; stroke-dasharray: 2.96,1.28; stroke-dashoffset: 0; stroke: #808080; stroke-width: 0.8"/>
     </g>
     <g id="line2d_22">
      <g>
       <use xlink:href="#m8a09672b35" x="46.9875" y="60.361656" style="stroke: #000000; stroke-width: 0.8"/>
      </g>
     </g>
     <g id="text_12">
      <!-- 200 -->
      <g transform="translate(20.9 64.160874) scale(0.1 -0.1)">
       <use xlink:href="#DejaVuSans-32"/>
       <use xlink:href="#DejaVuSans-30" x="63.623047"/>
       <use xlink:href="#DejaVuSans-30" x="127.246094"/>
      </g>
     </g>
    </g>
    <g id="ytick_6">
     <g id="line2d_23">
      <path d="M 46.9875 26.936387 
L 257.561484 26.936387 
" clip-path="url(#p74072ac0f8)" style="fill: none; stroke-dasharray: 2.96,1.28; stroke-dashoffset: 0; stroke: #808080; stroke-width: 0.8"/>
     </g>
     <g id="line2d_24">
      <g>
       <use xlink:href="#m8a09672b35" x="46.9875" y="26.936387" style="stroke: #000000; stroke-width: 0.8"/>
      </g>
     </g>
     <g id="text_13">
      <!-- 250 -->
      <g transform="translate(20.9 30.735606) scale(0.1 -0.1)">
       <use xlink:href="#DejaVuSans-32"/>
       <use xlink:href="#DejaVuSans-35" x="63.623047"/>
       <use xlink:href="#DejaVuSans-30" x="127.246094"/>
      </g>
     </g>
    </g>
    <g id="text_14">
     <!-- Distributed load intensity $P$ -->
     <g transform="translate(14.8 174.83963) rotate(-90) scale(0.1 -0.1)">
      <defs>
       <path id="DejaVuSans-44" d="M 1259 4147 
L 1259 519 
L 2022 519 
Q 2988 519 3436 956 
Q 3884 1394 3884 2338 
Q 3884 3275 3436 3711 
Q 2988 4147 2022 4147 
L 1259 4147 
z
M 628 4666 
L 1925 4666 
Q 3281 4666 3915 4102 
Q 4550 3538 4550 2338 
Q 4550 1131 3912 565 
Q 3275 0 1925 0 
L 628 0 
L 628 4666 
z
" transform="scale(0.015625)"/>
       <path id="DejaVuSans-73" d="M 2834 3397 
L 2834 2853 
Q 2591 2978 2328 3040 
Q 2066 3103 1784 3103 
Q 1356 3103 1142 2972 
Q 928 2841 928 2578 
Q 928 2378 1081 2264 
Q 1234 2150 1697 2047 
L 1894 2003 
Q 2506 1872 2764 1633 
Q 3022 1394 3022 966 
Q 3022 478 2636 193 
Q 2250 -91 1575 -91 
Q 1294 -91 989 -36 
Q 684 19 347 128 
L 347 722 
Q 666 556 975 473 
Q 1284 391 1588 391 
Q 1994 391 2212 530 
Q 2431 669 2431 922 
Q 2431 1156 2273 1281 
Q 2116 1406 1581 1522 
L 1381 1569 
Q 847 1681 609 1914 
Q 372 2147 372 2553 
Q 372 3047 722 3315 
Q 1072 3584 1716 3584 
Q 2034 3584 2315 3537 
Q 2597 3491 2834 3397 
z
" transform="scale(0.015625)"/>
       <path id="DejaVuSans-62" d="M 3116 1747 
Q 3116 2381 2855 2742 
Q 2594 3103 2138 3103 
Q 1681 3103 1420 2742 
Q 1159 2381 1159 1747 
Q 1159 1113 1420 752 
Q 1681 391 2138 391 
Q 2594 391 2855 752 
Q 3116 1113 3116 1747 
z
M 1159 2969 
Q 1341 3281 1617 3432 
Q 1894 3584 2278 3584 
Q 2916 3584 3314 3078 
Q 3713 2572 3713 1747 
Q 3713 922 3314 415 
Q 2916 -91 2278 -91 
Q 1894 -91 1617 61 
Q 1341 213 1159 525 
L 1159 0 
L 581 0 
L 581 4863 
L 1159 4863 
L 1159 2969 
z
" transform="scale(0.015625)"/>
       <path id="DejaVuSans-75" d="M 544 1381 
L 544 3500 
L 1119 3500 
L 1119 1403 
Q 1119 906 1312 657 
Q 1506 409 1894 409 
Q 2359 409 2629 706 
Q 2900 1003 2900 1516 
L 2900 3500 
L 3475 3500 
L 3475 0 
L 2900 0 
L 2900 538 
Q 2691 219 2414 64 
Q 2138 -91 1772 -91 
Q 1169 -91 856 284 
Q 544 659 544 1381 
z
M 1991 3584 
L 1991 3584 
z
" transform="scale(0.015625)"/>
       <path id="DejaVuSans-79" d="M 2059 -325 
Q 1816 -950 1584 -1140 
Q 1353 -1331 966 -1331 
L 506 -1331 
L 506 -850 
L 844 -850 
Q 1081 -850 1212 -737 
Q 1344 -625 1503 -206 
L 1606 56 
L 191 3500 
L 800 3500 
L 1894 763 
L 2988 3500 
L 3597 3500 
L 2059 -325 
z
" transform="scale(0.015625)"/>
       <path id="DejaVuSans-Oblique-50" d="M 1081 4666 
L 2541 4666 
Q 3178 4666 3512 4369 
Q 3847 4072 3847 3500 
Q 3847 2731 3353 2303 
Q 2859 1875 1966 1875 
L 1172 1875 
L 806 0 
L 172 0 
L 1081 4666 
z
M 1613 4147 
L 1275 2394 
L 2069 2394 
Q 2606 2394 2893 2669 
Q 3181 2944 3181 3456 
Q 3181 3784 2986 3965 
Q 2791 4147 2438 4147 
L 1613 4147 
z
" transform="scale(0.015625)"/>
      </defs>
      <use xlink:href="#DejaVuSans-44" transform="translate(0 0.015625)"/>
      <use xlink:href="#DejaVuSans-69" transform="translate(77.001953 0.015625)"/>
      <use xlink:href="#DejaVuSans-73" transform="translate(104.785156 0.015625)"/>
      <use xlink:href="#DejaVuSans-74" transform="translate(156.884766 0.015625)"/>
      <use xlink:href="#DejaVuSans-72" transform="translate(196.09375 0.015625)"/>
      <use xlink:href="#DejaVuSans-69" transform="translate(237.207031 0.015625)"/>
      <use xlink:href="#DejaVuSans-62" transform="translate(264.990234 0.015625)"/>
      <use xlink:href="#DejaVuSans-75" transform="translate(328.466797 0.015625)"/>
      <use xlink:href="#DejaVuSans-74" transform="translate(391.845703 0.015625)"/>
      <use xlink:href="#DejaVuSans-65" transform="translate(431.054688 0.015625)"/>
      <use xlink:href="#DejaVuSans-64" transform="translate(492.578125 0.015625)"/>
      <use xlink:href="#DejaVuSans-20" transform="translate(556.054688 0.015625)"/>
      <use xlink:href="#DejaVuSans-6c" transform="translate(587.841797 0.015625)"/>
      <use xlink:href="#DejaVuSans-6f" transform="translate(615.625 0.015625)"/>
      <use xlink:href="#DejaVuSans-61" transform="translate(676.806641 0.015625)"/>
      <use xlink:href="#DejaVuSans-64" transform="translate(738.085938 0.015625)"/>
      <use xlink:href="#DejaVuSans-20" transform="translate(801.5625 0.015625)"/>
      <use xlink:href="#DejaVuSans-69" transform="translate(833.349609 0.015625)"/>
      <use xlink:href="#DejaVuSans-6e" transform="translate(861.132812 0.015625)"/>
      <use xlink:href="#DejaVuSans-74" transform="translate(924.511719 0.015625)"/>
      <use xlink:href="#DejaVuSans-65" transform="translate(963.720703 0.015625)"/>
      <use xlink:href="#DejaVuSans-6e" transform="translate(1025.244141 0.015625)"/>
      <use xlink:href="#DejaVuSans-73" transform="translate(1088.623047 0.015625)"/>
      <use xlink:href="#DejaVuSans-69" transform="translate(1140.722656 0.015625)"/>
      <use xlink:href="#DejaVuSans-74" transform="translate(1168.505859 0.015625)"/>
      <use xlink:href="#DejaVuSans-79" transform="translate(1207.714844 0.015625)"/>
      <use xlink:href="#DejaVuSans-20" transform="translate(1266.894531 0.015625)"/>
      <use xlink:href="#DejaVuSans-Oblique-50" transform="translate(1298.681641 0.015625)"/>
     </g>
    </g>
   </g>
   <g id="line2d_25">
    <path d="M 46.9875 19.716529 
L 257.561484 19.716529 
" clip-path="url(#p74072ac0f8)" style="fill: none; stroke-dasharray: 1,1.65; stroke-dashoffset: 0; stroke: #008000"/>
   </g>
   <g id="line2d_26">
    <path d="M 56.559045 194.062731 
L 67.231304 127.212193 
L 81.005604 60.361656 
L 88.912833 46.991548 
L 95.36303 40.306494 
L 109.799191 33.621441 
L 133.085255 26.936387 
L 154.239868 23.59386 
L 165.728463 22.256849 
L 186.965475 20.919839 
L 247.488694 20.585586 
" clip-path="url(#p74072ac0f8)" style="fill: none; stroke: #000000; stroke-width: 1.5; stroke-linecap: square"/>
    <defs>
     <path id="m9f0ebe9d8c" d="M 0 1.5 
C 0.397805 1.5 0.77937 1.341951 1.06066 1.06066 
C 1.341951 0.77937 1.5 0.397805 1.5 0 
C 1.5 -0.397805 1.341951 -0.77937 1.06066 -1.06066 
C 0.77937 -1.341951 0.397805 -1.5 0 -1.5 
C -0.397805 -1.5 -0.77937 -1.341951 -1.06066 -1.06066 
C -1.341951 -0.77937 -1.5 -0.397805 -1.5 0 
C -1.5 0.397805 -1.341951 0.77937 -1.06066 1.06066 
C -0.77937 1.341951 -0.397805 1.5 0 1.5 
z
" style="stroke: #000000"/>
    </defs>
    <g clip-path="url(#p74072ac0f8)">
     <use xlink:href="#m9f0ebe9d8c" x="56.559045" y="194.062731" style="stroke: #000000"/>
     <use xlink:href="#m9f0ebe9d8c" x="67.231304" y="127.212193" style="stroke: #000000"/>
     <use xlink:href="#m9f0ebe9d8c" x="81.005604" y="60.361656" style="stroke: #000000"/>
     <use xlink:href="#m9f0ebe9d8c" x="88.912833" y="46.991548" style="stroke: #000000"/>
     <use xlink:href="#m9f0ebe9d8c" x="95.36303" y="40.306494" style="stroke: #000000"/>
     <use xlink:href="#m9f0ebe9d8c" x="109.799191" y="33.621441" style="stroke: #000000"/>
     <use xlink:href="#m9f0ebe9d8c" x="133.085255" y="26.936387" style="stroke: #000000"/>
     <use xlink:href="#m9f0ebe9d8c" x="154.239868" y="23.59386" style="stroke: #000000"/>
     <use xlink:href="#m9f0ebe9d8c" x="165.728463" y="22.256849" style="stroke: #000000"/>
     <use xlink:href="#m9f0ebe9d8c" x="186.965475" y="20.919839" style="stroke: #000000"/>
     <use xlink:href="#m9f0ebe9d8c" x="247.488694" y="20.585586" style="stroke: #000000"/>
    </g>
   </g>
   <g id="line2d_27">
    <defs>
     <path id="m7d5e4e6c51" d="M -0 4.242641 
L 4.242641 0 
L 0 -4.242641 
L -4.242641 -0 
z
" style="stroke: #ffa500; stroke-linejoin: miter"/>
    </defs>
    <g clip-path="url(#p74072ac0f8)">
     <use xlink:href="#m7d5e4e6c51" x="56.559045" y="194.062731" style="fill-opacity: 0; stroke: #ffa500; stroke-linejoin: miter"/>
     <use xlink:href="#m7d5e4e6c51" x="67.258085" y="127.82655" style="fill-opacity: 0; stroke: #ffa500; stroke-linejoin: miter"/>
     <use xlink:href="#m7d5e4e6c51" x="81.187639" y="60.527445" style="fill-opacity: 0; stroke: #ffa500; stroke-linejoin: miter"/>
     <use xlink:href="#m7d5e4e6c51" x="89.366511" y="47.818489" style="fill-opacity: 0; stroke: #ffa500; stroke-linejoin: miter"/>
     <use xlink:href="#m7d5e4e6c51" x="95.640753" y="40.825923" style="fill-opacity: 0; stroke: #ffa500; stroke-linejoin: miter"/>
     <use xlink:href="#m7d5e4e6c51" x="110.082548" y="34.240477" style="fill-opacity: 0; stroke: #ffa500; stroke-linejoin: miter"/>
     <use xlink:href="#m7d5e4e6c51" x="133.262151" y="27.215822" style="fill-opacity: 0; stroke: #ffa500; stroke-linejoin: miter"/>
     <use xlink:href="#m7d5e4e6c51" x="154.728154" y="24.002985" style="fill-opacity: 0; stroke: #ffa500; stroke-linejoin: miter"/>
     <use xlink:href="#m7d5e4e6c51" x="166.124804" y="22.712101" style="fill-opacity: 0; stroke: #ffa500; stroke-linejoin: miter"/>
     <use xlink:href="#m7d5e4e6c51" x="187.589391" y="20.979335" style="fill-opacity: 0; stroke: #ffa500; stroke-linejoin: miter"/>
     <use xlink:href="#m7d5e4e6c51" x="247.989939" y="20.65511" style="fill-opacity: 0; stroke: #ffa500; stroke-linejoin: miter"/>
    </g>
   </g>
   <g id="patch_3">
    <path d="M 46.9875 202.780041 
L 46.9875 10.999219 
" style="fill: none; stroke: #000000; stroke-width: 0.8; stroke-linejoin: miter; stroke-linecap: square"/>
   </g>
   <g id="patch_4">
    <path d="M 257.561484 202.780041 
L 257.561484 10.999219 
" style="fill: none; stroke: #000000; stroke-width: 0.8; stroke-linejoin: miter; stroke-linecap: square"/>
   </g>
   <g id="patch_5">
    <path d="M 46.9875 202.780041 
L 257.561484 202.780041 
" style="fill: none; stroke: #000000; stroke-width: 0.8; stroke-linejoin: miter; stroke-linecap: square"/>
   </g>
   <g id="patch_6">
    <path d="M 46.9875 10.999219 
L 257.561484 10.999219 
" style="fill: none; stroke: #000000; stroke-width: 0.8; stroke-linejoin: miter; stroke-linecap: square"/>
   </g>
   <g id="legend_1">
    <g id="patch_7">
     <path d="M 76.103671 197.780041 
L 250.561484 197.780041 
Q 252.561484 197.780041 252.561484 195.780041 
L 252.561484 167.423791 
Q 252.561484 165.423791 250.561484 165.423791 
L 76.103671 165.423791 
Q 74.103671 165.423791 74.103671 167.423791 
L 74.103671 195.780041 
Q 74.103671 197.780041 76.103671 197.780041 
z
" style="fill: #ffffff; opacity: 0.8; stroke: #cccccc; stroke-linejoin: miter"/>
    </g>
    <g id="line2d_28">
     <path d="M 78.103671 173.522228 
L 93.103671 173.522228 
L 108.103671 173.522228 
" style="fill: none; stroke: #000000; stroke-width: 1.5; stroke-linecap: square"/>
     <g>
      <use xlink:href="#m9f0ebe9d8c" x="93.103671" y="173.522228" style="stroke: #000000"/>
     </g>
    </g>
    <g id="text_15">
     <!-- pmsim -->
     <g transform="translate(116.103671 177.022228) scale(0.1 -0.1)">
      <defs>
       <path id="DejaVuSans-70" d="M 1159 525 
L 1159 -1331 
L 581 -1331 
L 581 3500 
L 1159 3500 
L 1159 2969 
Q 1341 3281 1617 3432 
Q 1894 3584 2278 3584 
Q 2916 3584 3314 3078 
Q 3713 2572 3713 1747 
Q 3713 922 3314 415 
Q 2916 -91 2278 -91 
Q 1894 -91 1617 61 
Q 1341 213 1159 525 
z
M 3116 1747 
Q 3116 2381 2855 2742 
Q 2594 3103 2138 3103 
Q 1681 3103 1420 2742 
Q 1159 2381 1159 1747 
Q 1159 1113 1420 752 
Q 1681 391 2138 391 
Q 2594 391 2855 752 
Q 3116 1113 3116 1747 
z
" transform="scale(0.015625)"/>
       <path id="DejaVuSans-6d" d="M 3328 2828 
Q 3544 3216 3844 3400 
Q 4144 3584 4550 3584 
Q 5097 3584 5394 3201 
Q 5691 2819 5691 2113 
L 5691 0 
L 5113 0 
L 5113 2094 
Q 5113 2597 4934 2840 
Q 4756 3084 4391 3084 
Q 3944 3084 3684 2787 
Q 3425 2491 3425 1978 
L 3425 0 
L 2847 0 
L 2847 2094 
Q 2847 2600 2669 2842 
Q 2491 3084 2119 3084 
Q 1678 3084 1418 2786 
Q 1159 2488 1159 1978 
L 1159 0 
L 581 0 
L 581 3500 
L 1159 3500 
L 1159 2956 
Q 1356 3278 1631 3431 
Q 1906 3584 2284 3584 
Q 2666 3584 2933 3390 
Q 3200 3197 3328 2828 
z
" transform="scale(0.015625)"/>
      </defs>
      <use xlink:href="#DejaVuSans-70"/>
      <use xlink:href="#DejaVuSans-6d" x="63.476562"/>
      <use xlink:href="#DejaVuSans-73" x="160.888672"/>
      <use xlink:href="#DejaVuSans-69" x="212.988281"/>
      <use xlink:href="#DejaVuSans-6d" x="240.771484"/>
     </g>
    </g>
    <g id="line2d_29">
     <g>
      <use xlink:href="#m7d5e4e6c51" x="93.103671" y="188.200353" style="fill-opacity: 0; stroke: #ffa500; stroke-linejoin: miter"/>
     </g>
    </g>
    <g id="text_16">
     <!-- de Souza Neto et al. (SPO) -->
     <g transform="translate(116.103671 191.700353) scale(0.1 -0.1)">
      <defs>
       <path id="DejaVuSans-53" d="M 3425 4513 
L 3425 3897 
Q 3066 4069 2747 4153 
Q 2428 4238 2131 4238 
Q 1616 4238 1336 4038 
Q 1056 3838 1056 3469 
Q 1056 3159 1242 3001 
Q 1428 2844 1947 2747 
L 2328 2669 
Q 3034 2534 3370 2195 
Q 3706 1856 3706 1288 
Q 3706 609 3251 259 
Q 2797 -91 1919 -91 
Q 1588 -91 1214 -16 
Q 841 59 441 206 
L 441 856 
Q 825 641 1194 531 
Q 1563 422 1919 422 
Q 2459 422 2753 634 
Q 3047 847 3047 1241 
Q 3047 1584 2836 1778 
Q 2625 1972 2144 2069 
L 1759 2144 
Q 1053 2284 737 2584 
Q 422 2884 422 3419 
Q 422 4038 858 4394 
Q 1294 4750 2059 4750 
Q 2388 4750 2728 4690 
Q 3069 4631 3425 4513 
z
" transform="scale(0.015625)"/>
       <path id="DejaVuSans-7a" d="M 353 3500 
L 3084 3500 
L 3084 2975 
L 922 459 
L 3084 459 
L 3084 0 
L 275 0 
L 275 525 
L 2438 3041 
L 353 3041 
L 353 3500 
z
" transform="scale(0.015625)"/>
       <path id="DejaVuSans-4e" d="M 628 4666 
L 1478 4666 
L 3547 763 
L 3547 4666 
L 4159 4666 
L 4159 0 
L 3309 0 
L 1241 3903 
L 1241 0 
L 628 0 
L 628 4666 
z
" transform="scale(0.015625)"/>
       <path id="DejaVuSans-28" d="M 1984 4856 
Q 1566 4138 1362 3434 
Q 1159 2731 1159 2009 
Q 1159 1288 1364 580 
Q 1569 -128 1984 -844 
L 1484 -844 
Q 1016 -109 783 600 
Q 550 1309 550 2009 
Q 550 2706 781 3412 
Q 1013 4119 1484 4856 
L 1984 4856 
z
" transform="scale(0.015625)"/>
       <path id="DejaVuSans-50" d="M 1259 4147 
L 1259 2394 
L 2053 2394 
Q 2494 2394 2734 2622 
Q 2975 2850 2975 3272 
Q 2975 3691 2734 3919 
Q 2494 4147 2053 4147 
L 1259 4147 
z
M 628 4666 
L 2053 4666 
Q 2838 4666 3239 4311 
Q 3641 3956 3641 3272 
Q 3641 2581 3239 2228 
Q 2838 1875 2053 1875 
L 1259 1875 
L 1259 0 
L 628 0 
L 628 4666 
z
" transform="scale(0.015625)"/>
       <path id="DejaVuSans-4f" d="M 2522 4238 
Q 1834 4238 1429 3725 
Q 1025 3213 1025 2328 
Q 1025 1447 1429 934 
Q 1834 422 2522 422 
Q 3209 422 3611 934 
Q 4013 1447 4013 2328 
Q 4013 3213 3611 3725 
Q 3209 4238 2522 4238 
z
M 2522 4750 
Q 3503 4750 4090 4092 
Q 4678 3434 4678 2328 
Q 4678 1225 4090 567 
Q 3503 -91 2522 -91 
Q 1538 -91 948 565 
Q 359 1222 359 2328 
Q 359 3434 948 4092 
Q 1538 4750 2522 4750 
z
" transform="scale(0.015625)"/>
       <path id="DejaVuSans-29" d="M 513 4856 
L 1013 4856 
Q 1481 4119 1714 3412 
Q 1947 2706 1947 2009 
Q 1947 1309 1714 600 
Q 1481 -109 1013 -844 
L 513 -844 
Q 928 -128 1133 580 
Q 1338 1288 1338 2009 
Q 1338 2731 1133 3434 
Q 928 4138 513 4856 
z
" transform="scale(0.015625)"/>
      </defs>
      <use xlink:href="#DejaVuSans-64"/>
      <use xlink:href="#DejaVuSans-65" x="63.476562"/>
      <use xlink:href="#DejaVuSans-20" x="125"/>
      <use xlink:href="#DejaVuSans-53" x="156.787109"/>
      <use xlink:href="#DejaVuSans-6f" x="220.263672"/>
      <use xlink:href="#DejaVuSans-75" x="281.445312"/>
      <use xlink:href="#DejaVuSans-7a" x="344.824219"/>
      <use xlink:href="#DejaVuSans-61" x="397.314453"/>
      <use xlink:href="#DejaVuSans-20" x="458.59375"/>
      <use xlink:href="#DejaVuSans-4e" x="490.380859"/>
      <use xlink:href="#DejaVuSans-65" x="565.185547"/>
      <use xlink:href="#DejaVuSans-74" x="626.708984"/>
      <use xlink:href="#DejaVuSans-6f" x="665.917969"/>
      <use xlink:href="#DejaVuSans-20" x="727.099609"/>
      <use xlink:href="#DejaVuSans-65" x="758.886719"/>
      <use xlink:href="#DejaVuSans-74" x="820.410156"/>
      <use xlink:href="#DejaVuSans-20" x="859.619141"/>
      <use xlink:href="#DejaVuSans-61" x="891.40625"/>
      <use xlink:href="#DejaVuSans-6c" x="952.685547"/>
      <use xlink:href="#DejaVuSans-2e" x="980.46875"/>
      <use xlink:href="#DejaVuSans-20" x="1012.255859"/>
      <use xlink:href="#DejaVuSans-28" x="1044.042969"/>
      <use xlink:href="#DejaVuSans-53" x="1083.056641"/>
      <use xlink:href="#DejaVuSans-50" x="1146.533203"/>
      <use xlink:href="#DejaVuSans-4f" x="1206.835938"/>
      <use xlink:href="#DejaVuSans-29" x="1285.546875"/>
     </g>
    </g>
   </g>
  </g>
  <g id="axes_2">
   <g id="patch_8">
    <path d="M 299.676281 202.780041 
L 510.250265 202.780041 
L 510.250265 10.999219 
L 299.676281 10.999219 
z
" style="fill: #ffffff"/>
   </g>
   <g id="matplotlib.axis_3">
    <g id="xtick_7">
     <g id="line2d_30">
      <path d="M 309.247825 202.780041 
L 309.247825 10.999219 
" clip-path="url(#p5811b5b215)" style="fill: none; stroke-dasharray: 2.96,1.28; stroke-dashoffset: 0; stroke: #808080; stroke-width: 0.8"/>
     </g>
     <g id="line2d_31">
      <g>
       <use xlink:href="#me2c63903cf" x="309.247825" y="202.780041" style="stroke: #000000; stroke-width: 0.8"/>
      </g>
     </g>
     <g id="text_17">
      <!-- 0.0 -->
      <g transform="translate(301.296263 217.378478) scale(0.1 -0.1)">
       <use xlink:href="#DejaVuSans-30"/>
       <use xlink:href="#DejaVuSans-2e" x="63.623047"/>
       <use xlink:href="#DejaVuSans-30" x="95.410156"/>
      </g>
     </g>
    </g>
    <g id="xtick_8">
     <g id="line2d_32">
      <path d="M 347.476928 202.780041 
L 347.476928 10.999219 
" clip-path="url(#p5811b5b215)" style="fill: none; stroke-dasharray: 2.96,1.28; stroke-dashoffset: 0; stroke: #808080; stroke-width: 0.8"/>
     </g>
     <g id="line2d_33">
      <g>
       <use xlink:href="#me2c63903cf" x="347.476928" y="202.780041" style="stroke: #000000; stroke-width: 0.8"/>
      </g>
     </g>
     <g id="text_18">
      <!-- 0.2 -->
      <g transform="translate(339.525366 217.378478) scale(0.1 -0.1)">
       <use xlink:href="#DejaVuSans-30"/>
       <use xlink:href="#DejaVuSans-2e" x="63.623047"/>
       <use xlink:href="#DejaVuSans-32" x="95.410156"/>
      </g>
     </g>
    </g>
    <g id="xtick_9">
     <g id="line2d_34">
      <path d="M 385.706031 202.780041 
L 385.706031 10.999219 
" clip-path="url(#p5811b5b215)" style="fill: none; stroke-dasharray: 2.96,1.28; stroke-dashoffset: 0; stroke: #808080; stroke-width: 0.8"/>
     </g>
     <g id="line2d_35">
      <g>
       <use xlink:href="#me2c63903cf" x="385.706031" y="202.780041" style="stroke: #000000; stroke-width: 0.8"/>
      </g>
     </g>
     <g id="text_19">
      <!-- 0.4 -->
      <g transform="translate(377.754469 217.378478) scale(0.1 -0.1)">
       <defs>
        <path id="DejaVuSans-34" d="M 2419 4116 
L 825 1625 
L 2419 1625 
L 2419 4116 
z
M 2253 4666 
L 3047 4666 
L 3047 1625 
L 3713 1625 
L 3713 1100 
L 3047 1100 
L 3047 0 
L 2419 0 
L 2419 1100 
L 313 1100 
L 313 1709 
L 2253 4666 
z
" transform="scale(0.015625)"/>
       </defs>
       <use xlink:href="#DejaVuSans-30"/>
       <use xlink:href="#DejaVuSans-2e" x="63.623047"/>
       <use xlink:href="#DejaVuSans-34" x="95.410156"/>
      </g>
     </g>
    </g>
    <g id="xtick_10">
     <g id="line2d_36">
      <path d="M 423.935134 202.780041 
L 423.935134 10.999219 
" clip-path="url(#p5811b5b215)" style="fill: none; stroke-dasharray: 2.96,1.28; stroke-dashoffset: 0; stroke: #808080; stroke-width: 0.8"/>
     </g>
     <g id="line2d_37">
      <g>
       <use xlink:href="#me2c63903cf" x="423.935134" y="202.780041" style="stroke: #000000; stroke-width: 0.8"/>
      </g>
     </g>
     <g id="text_20">
      <!-- 0.6 -->
      <g transform="translate(415.983571 217.378478) scale(0.1 -0.1)">
       <defs>
        <path id="DejaVuSans-36" d="M 2113 2584 
Q 1688 2584 1439 2293 
Q 1191 2003 1191 1497 
Q 1191 994 1439 701 
Q 1688 409 2113 409 
Q 2538 409 2786 701 
Q 3034 994 3034 1497 
Q 3034 2003 2786 2293 
Q 2538 2584 2113 2584 
z
M 3366 4563 
L 3366 3988 
Q 3128 4100 2886 4159 
Q 2644 4219 2406 4219 
Q 1781 4219 1451 3797 
Q 1122 3375 1075 2522 
Q 1259 2794 1537 2939 
Q 1816 3084 2150 3084 
Q 2853 3084 3261 2657 
Q 3669 2231 3669 1497 
Q 3669 778 3244 343 
Q 2819 -91 2113 -91 
Q 1303 -91 875 529 
Q 447 1150 447 2328 
Q 447 3434 972 4092 
Q 1497 4750 2381 4750 
Q 2619 4750 2861 4703 
Q 3103 4656 3366 4563 
z
" transform="scale(0.015625)"/>
       </defs>
       <use xlink:href="#DejaVuSans-30"/>
       <use xlink:href="#DejaVuSans-2e" x="63.623047"/>
       <use xlink:href="#DejaVuSans-36" x="95.410156"/>
      </g>
     </g>
    </g>
    <g id="xtick_11">
     <g id="line2d_38">
      <path d="M 462.164237 202.780041 
L 462.164237 10.999219 
" clip-path="url(#p5811b5b215)" style="fill: none; stroke-dasharray: 2.96,1.28; stroke-dashoffset: 0; stroke: #808080; stroke-width: 0.8"/>
     </g>
     <g id="line2d_39">
      <g>
       <use xlink:href="#me2c63903cf" x="462.164237" y="202.780041" style="stroke: #000000; stroke-width: 0.8"/>
      </g>
     </g>
     <g id="text_21">
      <!-- 0.8 -->
      <g transform="translate(454.212674 217.378478) scale(0.1 -0.1)">
       <defs>
        <path id="DejaVuSans-38" d="M 2034 2216 
Q 1584 2216 1326 1975 
Q 1069 1734 1069 1313 
Q 1069 891 1326 650 
Q 1584 409 2034 409 
Q 2484 409 2743 651 
Q 3003 894 3003 1313 
Q 3003 1734 2745 1975 
Q 2488 2216 2034 2216 
z
M 1403 2484 
Q 997 2584 770 2862 
Q 544 3141 544 3541 
Q 544 4100 942 4425 
Q 1341 4750 2034 4750 
Q 2731 4750 3128 4425 
Q 3525 4100 3525 3541 
Q 3525 3141 3298 2862 
Q 3072 2584 2669 2484 
Q 3125 2378 3379 2068 
Q 3634 1759 3634 1313 
Q 3634 634 3220 271 
Q 2806 -91 2034 -91 
Q 1263 -91 848 271 
Q 434 634 434 1313 
Q 434 1759 690 2068 
Q 947 2378 1403 2484 
z
M 1172 3481 
Q 1172 3119 1398 2916 
Q 1625 2713 2034 2713 
Q 2441 2713 2670 2916 
Q 2900 3119 2900 3481 
Q 2900 3844 2670 4047 
Q 2441 4250 2034 4250 
Q 1625 4250 1398 4047 
Q 1172 3844 1172 3481 
z
" transform="scale(0.015625)"/>
       </defs>
       <use xlink:href="#DejaVuSans-30"/>
       <use xlink:href="#DejaVuSans-2e" x="63.623047"/>
       <use xlink:href="#DejaVuSans-38" x="95.410156"/>
      </g>
     </g>
    </g>
    <g id="xtick_12">
     <g id="line2d_40">
      <path d="M 500.39334 202.780041 
L 500.39334 10.999219 
" clip-path="url(#p5811b5b215)" style="fill: none; stroke-dasharray: 2.96,1.28; stroke-dashoffset: 0; stroke: #808080; stroke-width: 0.8"/>
     </g>
     <g id="line2d_41">
      <g>
       <use xlink:href="#me2c63903cf" x="500.39334" y="202.780041" style="stroke: #000000; stroke-width: 0.8"/>
      </g>
     </g>
     <g id="text_22">
      <!-- 1.0 -->
      <g transform="translate(492.441777 217.378478) scale(0.1 -0.1)">
       <use xlink:href="#DejaVuSans-31"/>
       <use xlink:href="#DejaVuSans-2e" x="63.623047"/>
       <use xlink:href="#DejaVuSans-30" x="95.410156"/>
      </g>
     </g>
    </g>
    <g id="text_23">
     <!-- Normalized coordinate $x/R$ -->
     <g transform="translate(338.513273 231.056603) scale(0.1 -0.1)">
      <defs>
       <path id="DejaVuSans-Oblique-78" d="M 3841 3500 
L 2234 1784 
L 3219 0 
L 2559 0 
L 1819 1388 
L 531 0 
L -166 0 
L 1556 1844 
L 641 3500 
L 1300 3500 
L 1972 2234 
L 3144 3500 
L 3841 3500 
z
" transform="scale(0.015625)"/>
       <path id="DejaVuSans-2f" d="M 1625 4666 
L 2156 4666 
L 531 -594 
L 0 -594 
L 1625 4666 
z
" transform="scale(0.015625)"/>
       <path id="DejaVuSans-Oblique-52" d="M 1613 4147 
L 1294 2491 
L 2106 2491 
Q 2584 2491 2879 2755 
Q 3175 3019 3175 3444 
Q 3175 3784 2976 3965 
Q 2778 4147 2406 4147 
L 1613 4147 
z
M 2772 2241 
Q 2972 2194 3105 2009 
Q 3238 1825 3413 1275 
L 3809 0 
L 3144 0 
L 2778 1197 
Q 2638 1659 2453 1815 
Q 2269 1972 1888 1972 
L 1191 1972 
L 806 0 
L 172 0 
L 1081 4666 
L 2503 4666 
Q 3150 4666 3495 4373 
Q 3841 4081 3841 3531 
Q 3841 3044 3547 2687 
Q 3253 2331 2772 2241 
z
" transform="scale(0.015625)"/>
      </defs>
      <use xlink:href="#DejaVuSans-4e" transform="translate(0 0.015625)"/>
      <use xlink:href="#DejaVuSans-6f" transform="translate(74.804688 0.015625)"/>
      <use xlink:href="#DejaVuSans-72" transform="translate(135.986328 0.015625)"/>
      <use xlink:href="#DejaVuSans-6d" transform="translate(177.099609 0.015625)"/>
      <use xlink:href="#DejaVuSans-61" transform="translate(274.511719 0.015625)"/>
      <use xlink:href="#DejaVuSans-6c" transform="translate(335.791016 0.015625)"/>
      <use xlink:href="#DejaVuSans-69" transform="translate(363.574219 0.015625)"/>
      <use xlink:href="#DejaVuSans-7a" transform="translate(391.357422 0.015625)"/>
      <use xlink:href="#DejaVuSans-65" transform="translate(443.847656 0.015625)"/>
      <use xlink:href="#DejaVuSans-64" transform="translate(505.371094 0.015625)"/>
      <use xlink:href="#DejaVuSans-20" transform="translate(568.847656 0.015625)"/>
      <use xlink:href="#DejaVuSans-63" transform="translate(600.634766 0.015625)"/>
      <use xlink:href="#DejaVuSans-6f" transform="translate(655.615234 0.015625)"/>
      <use xlink:href="#DejaVuSans-6f" transform="translate(716.796875 0.015625)"/>
      <use xlink:href="#DejaVuSans-72" transform="translate(777.978516 0.015625)"/>
      <use xlink:href="#DejaVuSans-64" transform="translate(819.091797 0.015625)"/>
      <use xlink:href="#DejaVuSans-69" transform="translate(882.568359 0.015625)"/>
      <use xlink:href="#DejaVuSans-6e" transform="translate(910.351562 0.015625)"/>
      <use xlink:href="#DejaVuSans-61" transform="translate(973.730469 0.015625)"/>
      <use xlink:href="#DejaVuSans-74" transform="translate(1035.009766 0.015625)"/>
      <use xlink:href="#DejaVuSans-65" transform="translate(1074.21875 0.015625)"/>
      <use xlink:href="#DejaVuSans-20" transform="translate(1135.742188 0.015625)"/>
      <use xlink:href="#DejaVuSans-Oblique-78" transform="translate(1167.529297 0.015625)"/>
      <use xlink:href="#DejaVuSans-2f" transform="translate(1226.708984 0.015625)"/>
      <use xlink:href="#DejaVuSans-Oblique-52" transform="translate(1258.650391 0.015625)"/>
     </g>
    </g>
   </g>
   <g id="matplotlib.axis_4">
    <g id="ytick_7">
     <g id="line2d_42">
      <path d="M 299.676281 10.999219 
L 510.250265 10.999219 
" clip-path="url(#p5811b5b215)" style="fill: none; stroke-dasharray: 2.96,1.28; stroke-dashoffset: 0; stroke: #808080; stroke-width: 0.8"/>
     </g>
     <g id="line2d_43">
      <g>
       <use xlink:href="#m8a09672b35" x="299.676281" y="10.999219" style="stroke: #000000; stroke-width: 0.8"/>
      </g>
     </g>
     <g id="text_24">
      <!-- 0.0 -->
      <g transform="translate(276.773156 14.798437) scale(0.1 -0.1)">
       <use xlink:href="#DejaVuSans-30"/>
       <use xlink:href="#DejaVuSans-2e" x="63.623047"/>
       <use xlink:href="#DejaVuSans-30" x="95.410156"/>
      </g>
     </g>
    </g>
    <g id="ytick_8">
     <g id="line2d_44">
      <path d="M 299.676281 42.962689 
L 510.250265 42.962689 
" clip-path="url(#p5811b5b215)" style="fill: none; stroke-dasharray: 2.96,1.28; stroke-dashoffset: 0; stroke: #808080; stroke-width: 0.8"/>
     </g>
     <g id="line2d_45">
      <g>
       <use xlink:href="#m8a09672b35" x="299.676281" y="42.962689" style="stroke: #000000; stroke-width: 0.8"/>
      </g>
     </g>
     <g id="text_25">
      <!-- 0.1 -->
      <g transform="translate(276.773156 46.761908) scale(0.1 -0.1)">
       <use xlink:href="#DejaVuSans-30"/>
       <use xlink:href="#DejaVuSans-2e" x="63.623047"/>
       <use xlink:href="#DejaVuSans-31" x="95.410156"/>
      </g>
     </g>
    </g>
    <g id="ytick_9">
     <g id="line2d_46">
      <path d="M 299.676281 74.926159 
L 510.250265 74.926159 
" clip-path="url(#p5811b5b215)" style="fill: none; stroke-dasharray: 2.96,1.28; stroke-dashoffset: 0; stroke: #808080; stroke-width: 0.8"/>
     </g>
     <g id="line2d_47">
      <g>
       <use xlink:href="#m8a09672b35" x="299.676281" y="74.926159" style="stroke: #000000; stroke-width: 0.8"/>
      </g>
     </g>
     <g id="text_26">
      <!-- 0.2 -->
      <g transform="translate(276.773156 78.725378) scale(0.1 -0.1)">
       <use xlink:href="#DejaVuSans-30"/>
       <use xlink:href="#DejaVuSans-2e" x="63.623047"/>
       <use xlink:href="#DejaVuSans-32" x="95.410156"/>
      </g>
     </g>
    </g>
    <g id="ytick_10">
     <g id="line2d_48">
      <path d="M 299.676281 106.88963 
L 510.250265 106.88963 
" clip-path="url(#p5811b5b215)" style="fill: none; stroke-dasharray: 2.96,1.28; stroke-dashoffset: 0; stroke: #808080; stroke-width: 0.8"/>
     </g>
     <g id="line2d_49">
      <g>
       <use xlink:href="#m8a09672b35" x="299.676281" y="106.88963" style="stroke: #000000; stroke-width: 0.8"/>
      </g>
     </g>
     <g id="text_27">
      <!-- 0.3 -->
      <g transform="translate(276.773156 110.688848) scale(0.1 -0.1)">
       <defs>
        <path id="DejaVuSans-33" d="M 2597 2516 
Q 3050 2419 3304 2112 
Q 3559 1806 3559 1356 
Q 3559 666 3084 287 
Q 2609 -91 1734 -91 
Q 1441 -91 1130 -33 
Q 819 25 488 141 
L 488 750 
Q 750 597 1062 519 
Q 1375 441 1716 441 
Q 2309 441 2620 675 
Q 2931 909 2931 1356 
Q 2931 1769 2642 2001 
Q 2353 2234 1838 2234 
L 1294 2234 
L 1294 2753 
L 1863 2753 
Q 2328 2753 2575 2939 
Q 2822 3125 2822 3475 
Q 2822 3834 2567 4026 
Q 2313 4219 1838 4219 
Q 1578 4219 1281 4162 
Q 984 4106 628 3988 
L 628 4550 
Q 988 4650 1302 4700 
Q 1616 4750 1894 4750 
Q 2613 4750 3031 4423 
Q 3450 4097 3450 3541 
Q 3450 3153 3228 2886 
Q 3006 2619 2597 2516 
z
" transform="scale(0.015625)"/>
       </defs>
       <use xlink:href="#DejaVuSans-30"/>
       <use xlink:href="#DejaVuSans-2e" x="63.623047"/>
       <use xlink:href="#DejaVuSans-33" x="95.410156"/>
      </g>
     </g>
    </g>
    <g id="ytick_11">
     <g id="line2d_50">
      <path d="M 299.676281 138.8531 
L 510.250265 138.8531 
" clip-path="url(#p5811b5b215)" style="fill: none; stroke-dasharray: 2.96,1.28; stroke-dashoffset: 0; stroke: #808080; stroke-width: 0.8"/>
     </g>
     <g id="line2d_51">
      <g>
       <use xlink:href="#m8a09672b35" x="299.676281" y="138.8531" style="stroke: #000000; stroke-width: 0.8"/>
      </g>
     </g>
     <g id="text_28">
      <!-- 0.4 -->
      <g transform="translate(276.773156 142.652319) scale(0.1 -0.1)">
       <use xlink:href="#DejaVuSans-30"/>
       <use xlink:href="#DejaVuSans-2e" x="63.623047"/>
       <use xlink:href="#DejaVuSans-34" x="95.410156"/>
      </g>
     </g>
    </g>
    <g id="ytick_12">
     <g id="line2d_52">
      <path d="M 299.676281 170.81657 
L 510.250265 170.81657 
" clip-path="url(#p5811b5b215)" style="fill: none; stroke-dasharray: 2.96,1.28; stroke-dashoffset: 0; stroke: #808080; stroke-width: 0.8"/>
     </g>
     <g id="line2d_53">
      <g>
       <use xlink:href="#m8a09672b35" x="299.676281" y="170.81657" style="stroke: #000000; stroke-width: 0.8"/>
      </g>
     </g>
     <g id="text_29">
      <!-- 0.5 -->
      <g transform="translate(276.773156 174.615789) scale(0.1 -0.1)">
       <use xlink:href="#DejaVuSans-30"/>
       <use xlink:href="#DejaVuSans-2e" x="63.623047"/>
       <use xlink:href="#DejaVuSans-35" x="95.410156"/>
      </g>
     </g>
    </g>
    <g id="ytick_13">
     <g id="line2d_54">
      <path d="M 299.676281 202.780041 
L 510.250265 202.780041 
" clip-path="url(#p5811b5b215)" style="fill: none; stroke-dasharray: 2.96,1.28; stroke-dashoffset: 0; stroke: #808080; stroke-width: 0.8"/>
     </g>
     <g id="line2d_55">
      <g>
       <use xlink:href="#m8a09672b35" x="299.676281" y="202.780041" style="stroke: #000000; stroke-width: 0.8"/>
      </g>
     </g>
     <g id="text_30">
      <!-- 0.6 -->
      <g transform="translate(276.773156 206.579259) scale(0.1 -0.1)">
       <use xlink:href="#DejaVuSans-30"/>
       <use xlink:href="#DejaVuSans-2e" x="63.623047"/>
       <use xlink:href="#DejaVuSans-36" x="95.410156"/>
      </g>
     </g>
    </g>
    <g id="text_31">
     <!-- Normalized deflection $w/h$ -->
     <g transform="translate(270.693468 172.28963) rotate(-90) scale(0.1 -0.1)">
      <defs>
       <path id="DejaVuSans-Oblique-68" d="M 3566 2113 
L 3156 0 
L 2578 0 
L 2988 2091 
Q 3016 2238 3031 2350 
Q 3047 2463 3047 2528 
Q 3047 2791 2881 2937 
Q 2716 3084 2419 3084 
Q 1956 3084 1617 2771 
Q 1278 2459 1178 1941 
L 800 0 
L 225 0 
L 1172 4863 
L 1747 4863 
L 1375 2950 
Q 1594 3244 1934 3414 
Q 2275 3584 2650 3584 
Q 3113 3584 3367 3334 
Q 3622 3084 3622 2631 
Q 3622 2519 3608 2391 
Q 3594 2263 3566 2113 
z
" transform="scale(0.015625)"/>
      </defs>
      <use xlink:href="#DejaVuSans-4e" transform="translate(0 0.015625)"/>
      <use xlink:href="#DejaVuSans-6f" transform="translate(74.804688 0.015625)"/>
      <use xlink:href="#DejaVuSans-72" transform="translate(135.986328 0.015625)"/>
      <use xlink:href="#DejaVuSans-6d" transform="translate(177.099609 0.015625)"/>
      <use xlink:href="#DejaVuSans-61" transform="translate(274.511719 0.015625)"/>
      <use xlink:href="#DejaVuSans-6c" transform="translate(335.791016 0.015625)"/>
      <use xlink:href="#DejaVuSans-69" transform="translate(363.574219 0.015625)"/>
      <use xlink:href="#DejaVuSans-7a" transform="translate(391.357422 0.015625)"/>
      <use xlink:href="#DejaVuSans-65" transform="translate(443.847656 0.015625)"/>
      <use xlink:href="#DejaVuSans-64" transform="translate(505.371094 0.015625)"/>
      <use xlink:href="#DejaVuSans-20" transform="translate(568.847656 0.015625)"/>
      <use xlink:href="#DejaVuSans-64" transform="translate(600.634766 0.015625)"/>
      <use xlink:href="#DejaVuSans-65" transform="translate(664.111328 0.015625)"/>
      <use xlink:href="#DejaVuSans-66" transform="translate(725.634766 0.015625)"/>
      <use xlink:href="#DejaVuSans-6c" transform="translate(760.839844 0.015625)"/>
      <use xlink:href="#DejaVuSans-65" transform="translate(788.623047 0.015625)"/>
      <use xlink:href="#DejaVuSans-63" transform="translate(850.146484 0.015625)"/>
      <use xlink:href="#DejaVuSans-74" transform="translate(905.126953 0.015625)"/>
      <use xlink:href="#DejaVuSans-69" transform="translate(944.335938 0.015625)"/>
      <use xlink:href="#DejaVuSans-6f" transform="translate(972.119141 0.015625)"/>
      <use xlink:href="#DejaVuSans-6e" transform="translate(1033.300781 0.015625)"/>
      <use xlink:href="#DejaVuSans-20" transform="translate(1096.679688 0.015625)"/>
      <use xlink:href="#DejaVuSans-Oblique-77" transform="translate(1128.466797 0.015625)"/>
      <use xlink:href="#DejaVuSans-2f" transform="translate(1210.253906 0.015625)"/>
      <use xlink:href="#DejaVuSans-Oblique-68" transform="translate(1243.945312 0.015625)"/>
     </g>
    </g>
   </g>
   <g id="line2d_56">
    <path d="M 309.6758 35.277712 
L 313.242002 35.277712 
L 316.808013 35.073785 
L 327.506427 35.073785 
L 343.910726 34.256799 
L 347.334334 34.175931 
L 350.615155 33.825611 
L 353.753382 33.536342 
L 362.740089 33.033557 
L 366.59148 32.603009 
L 369.872301 32.421456 
L 406.532291 28.057484 
L 411.810201 27.117118 
L 416.660136 26.454196 
L 420.083743 25.923922 
L 423.364565 25.510954 
L 439.483484 22.628488 
L 443.762849 22.078716 
L 447.186457 21.251821 
L 467.727336 17.638032 
L 470.722968 16.915977 
L 483.133091 14.531821 
L 484.274421 14.263648 
L 494.25948 12.597712 
L 500.67872 11.759949 
L 500.67872 11.759949 
" clip-path="url(#p5811b5b215)" style="fill: none; stroke: #1f77b4; stroke-width: 1.5; stroke-linecap: square"/>
   </g>
   <g id="line2d_57">
    <path d="M 309.6758 66.493237 
L 313.242002 66.493237 
L 320.374215 66.085063 
L 323.940417 66.085063 
L 327.506427 65.867073 
L 348.760662 63.349949 
L 353.753382 62.258397 
L 359.316481 61.261137 
L 363.453253 60.337712 
L 366.59148 59.7531 
L 373.295909 58.120086 
L 376.861919 57.046753 
L 383.851728 55.355246 
L 405.105963 48.832141 
L 408.243999 47.824333 
L 411.810201 46.648397 
L 416.660136 44.866753 
L 420.083743 43.846799 
L 427.215956 41.228032 
L 430.211588 39.970269 
L 438.057156 37.040497 
L 440.767408 35.933283 
L 443.762849 34.869858 
L 454.318669 30.579721 
L 457.028921 29.5652 
L 465.017084 26.174516 
L 467.727336 25.134105 
L 474.146576 22.345611 
L 478.283156 20.678077 
L 484.274421 18.117803 
L 487.840431 16.730908 
L 494.25948 13.961274 
L 500.67872 11.502643 
L 500.67872 11.502643 
" clip-path="url(#p5811b5b215)" style="fill: none; stroke: #ff7f0e; stroke-width: 1.5; stroke-linecap: square"/>
   </g>
   <g id="line2d_58">
    <path d="M 309.6758 185.642187 
L 316.808013 184.398808 
L 320.374215 183.966662 
L 327.506427 182.689082 
L 331.072629 181.54415 
L 348.332878 173.821456 
L 350.615155 172.176616 
L 355.750471 168.551319 
L 366.59148 161.159447 
L 369.872301 158.380863 
L 376.861919 152.087895 
L 379.286982 149.878579 
L 382.710399 147.145063 
L 387.275145 142.611365 
L 396.404446 133.412598 
L 401.254381 128.317621 
L 405.105963 124.639584 
L 408.243999 121.08173 
L 416.660136 111.587301 
L 418.942604 109.133785 
L 422.223426 105.236799 
L 425.646842 101.482369 
L 430.211588 95.954287 
L 433.635004 92.039082 
L 443.762849 79.839264 
L 447.186457 75.850863 
L 450.609873 71.552735 
L 460.309934 59.920589 
L 500.67872 11.407392 
L 500.67872 11.407392 
" clip-path="url(#p5811b5b215)" style="fill: none; stroke: #2ca02c; stroke-width: 1.5; stroke-linecap: square"/>
   </g>
   <g id="line2d_59">
    <defs>
     <path id="mde864cd615" d="M 0 3 
C 0.795609 3 1.55874 2.683901 2.12132 2.12132 
C 2.683901 1.55874 3 0.795609 3 0 
C 3 -0.795609 2.683901 -1.55874 2.12132 -2.12132 
C 1.55874 -2.683901 0.795609 -3 0 -3 
C -0.795609 -3 -1.55874 -2.683901 -2.12132 -2.12132 
C -2.683901 -1.55874 -3 -0.795609 -3 0 
C -3 0.795609 -2.683901 1.55874 -2.12132 2.12132 
C -1.55874 2.683901 -0.795609 3 0 3 
z
" style="stroke: #000000"/>
    </defs>
    <g clip-path="url(#p5811b5b215)">
     <use xlink:href="#mde864cd615" x="309.247825" y="35.106303" style="fill-opacity: 0; stroke: #000000"/>
     <use xlink:href="#mde864cd615" x="328.362377" y="34.81846" style="fill-opacity: 0; stroke: #000000"/>
     <use xlink:href="#mde864cd615" x="347.476928" y="33.925386" style="fill-opacity: 0; stroke: #000000"/>
     <use xlink:href="#mde864cd615" x="366.59148" y="32.48794" style="fill-opacity: 0; stroke: #000000"/>
     <use xlink:href="#mde864cd615" x="385.706031" y="30.494582" style="fill-opacity: 0; stroke: #000000"/>
     <use xlink:href="#mde864cd615" x="404.820583" y="28.046023" style="fill-opacity: 0; stroke: #000000"/>
     <use xlink:href="#mde864cd615" x="423.935134" y="25.135498" style="fill-opacity: 0; stroke: #000000"/>
     <use xlink:href="#mde864cd615" x="443.049685" y="21.925978" style="fill-opacity: 0; stroke: #000000"/>
     <use xlink:href="#mde864cd615" x="462.164237" y="18.389294" style="fill-opacity: 0; stroke: #000000"/>
     <use xlink:href="#mde864cd615" x="481.278788" y="14.786276" style="fill-opacity: 0; stroke: #000000"/>
     <use xlink:href="#mde864cd615" x="500.39334" y="10.999219" style="fill-opacity: 0; stroke: #000000"/>
    </g>
   </g>
   <g id="line2d_60">
    <g clip-path="url(#p5811b5b215)">
     <use xlink:href="#mde864cd615" x="309.247825" y="66.220448" style="fill-opacity: 0; stroke: #000000"/>
     <use xlink:href="#mde864cd615" x="328.362377" y="65.455714" style="fill-opacity: 0; stroke: #000000"/>
     <use xlink:href="#mde864cd615" x="347.476928" y="63.099263" style="fill-opacity: 0; stroke: #000000"/>
     <use xlink:href="#mde864cd615" x="366.59148" y="59.420478" style="fill-opacity: 0; stroke: #000000"/>
     <use xlink:href="#mde864cd615" x="385.706031" y="54.503605" style="fill-opacity: 0; stroke: #000000"/>
     <use xlink:href="#mde864cd615" x="404.820583" y="48.700904" style="fill-opacity: 0; stroke: #000000"/>
     <use xlink:href="#mde864cd615" x="423.935134" y="42.03867" style="fill-opacity: 0; stroke: #000000"/>
     <use xlink:href="#mde864cd615" x="443.049685" y="34.860856" style="fill-opacity: 0; stroke: #000000"/>
     <use xlink:href="#mde864cd615" x="462.164237" y="27.084079" style="fill-opacity: 0; stroke: #000000"/>
     <use xlink:href="#mde864cd615" x="481.278788" y="19.214622" style="fill-opacity: 0; stroke: #000000"/>
     <use xlink:href="#mde864cd615" x="500.39334" y="10.999219" style="fill-opacity: 0; stroke: #000000"/>
    </g>
   </g>
   <g id="line2d_61">
    <g clip-path="url(#p5811b5b215)">
     <use xlink:href="#mde864cd615" x="309.247825" y="183.860822" style="fill-opacity: 0; stroke: #000000"/>
     <use xlink:href="#mde864cd615" x="328.362377" y="181.157302" style="fill-opacity: 0; stroke: #000000"/>
     <use xlink:href="#mde864cd615" x="347.476928" y="172.782485" style="fill-opacity: 0; stroke: #000000"/>
     <use xlink:href="#mde864cd615" x="366.59148" y="160.009358" style="fill-opacity: 0; stroke: #000000"/>
     <use xlink:href="#mde864cd615" x="385.706031" y="143.228697" style="fill-opacity: 0; stroke: #000000"/>
     <use xlink:href="#mde864cd615" x="404.820583" y="124.008723" style="fill-opacity: 0; stroke: #000000"/>
     <use xlink:href="#mde864cd615" x="423.935134" y="102.49853" style="fill-opacity: 0; stroke: #000000"/>
     <use xlink:href="#mde864cd615" x="443.049685" y="80.232147" style="fill-opacity: 0; stroke: #000000"/>
     <use xlink:href="#mde864cd615" x="462.164237" y="56.927281" style="fill-opacity: 0; stroke: #000000"/>
     <use xlink:href="#mde864cd615" x="481.278788" y="34.143357" style="fill-opacity: 0; stroke: #000000"/>
     <use xlink:href="#mde864cd615" x="500.39334" y="10.999219" style="fill-opacity: 0; stroke: #000000"/>
    </g>
   </g>
   <g id="patch_9">
    <path d="M 299.676281 202.780041 
L 299.676281 10.999219 
" style="fill: none; stroke: #000000; stroke-width: 0.8; stroke-linejoin: miter; stroke-linecap: square"/>
   </g>
   <g id="patch_10">
    <path d="M 510.250265 202.780041 
L 510.250265 10.999219 
" style="fill: none; stroke: #000000; stroke-width: 0.8; stroke-linejoin: miter; stroke-linecap: square"/>
   </g>
   <g id="patch_11">
    <path d="M 299.676281 202.780041 
L 510.250265 202.780041 
" style="fill: none; stroke: #000000; stroke-width: 0.8; stroke-linejoin: miter; stroke-linecap: square"/>
   </g>
   <g id="patch_12">
    <path d="M 299.676281 10.999219 
L 510.250265 10.999219 
" style="fill: none; stroke: #000000; stroke-width: 0.8; stroke-linejoin: miter; stroke-linecap: square"/>
   </g>
   <g id="legend_2">
    <g id="patch_13">
     <path d="M 396.52214 197.780041 
L 503.250265 197.780041 
Q 505.250265 197.780041 505.250265 195.780041 
L 505.250265 152.745666 
Q 505.250265 150.745666 503.250265 150.745666 
L 396.52214 150.745666 
Q 394.52214 150.745666 394.52214 152.745666 
L 394.52214 195.780041 
Q 394.52214 197.780041 396.52214 197.780041 
z
" style="fill: #ffffff; opacity: 0.8; stroke: #cccccc; stroke-linejoin: miter"/>
    </g>
    <g id="line2d_62">
     <path d="M 398.52214 158.844103 
L 413.52214 158.844103 
L 428.52214 158.844103 
" style="fill: none; stroke: #1f77b4; stroke-width: 1.5; stroke-linecap: square"/>
    </g>
    <g id="text_32">
     <!-- P=100 (SPO) -->
     <g transform="translate(436.52214 162.344103) scale(0.1 -0.1)">
      <defs>
       <path id="DejaVuSans-3d" d="M 678 2906 
L 4684 2906 
L 4684 2381 
L 678 2381 
L 678 2906 
z
M 678 1631 
L 4684 1631 
L 4684 1100 
L 678 1100 
L 678 1631 
z
" transform="scale(0.015625)"/>
      </defs>
      <use xlink:href="#DejaVuSans-50"/>
      <use xlink:href="#DejaVuSans-3d" x="60.302734"/>
      <use xlink:href="#DejaVuSans-31" x="144.091797"/>
      <use xlink:href="#DejaVuSans-30" x="207.714844"/>
      <use xlink:href="#DejaVuSans-30" x="271.337891"/>
      <use xlink:href="#DejaVuSans-20" x="334.960938"/>
      <use xlink:href="#DejaVuSans-28" x="366.748047"/>
      <use xlink:href="#DejaVuSans-53" x="405.761719"/>
      <use xlink:href="#DejaVuSans-50" x="469.238281"/>
      <use xlink:href="#DejaVuSans-4f" x="529.541016"/>
      <use xlink:href="#DejaVuSans-29" x="608.251953"/>
     </g>
    </g>
    <g id="line2d_63">
     <path d="M 398.52214 173.522228 
L 413.52214 173.522228 
L 428.52214 173.522228 
" style="fill: none; stroke: #ff7f0e; stroke-width: 1.5; stroke-linecap: square"/>
    </g>
    <g id="text_33">
     <!-- P=200 (SPO) -->
     <g transform="translate(436.52214 177.022228) scale(0.1 -0.1)">
      <use xlink:href="#DejaVuSans-50"/>
      <use xlink:href="#DejaVuSans-3d" x="60.302734"/>
      <use xlink:href="#DejaVuSans-32" x="144.091797"/>
      <use xlink:href="#DejaVuSans-30" x="207.714844"/>
      <use xlink:href="#DejaVuSans-30" x="271.337891"/>
      <use xlink:href="#DejaVuSans-20" x="334.960938"/>
      <use xlink:href="#DejaVuSans-28" x="366.748047"/>
      <use xlink:href="#DejaVuSans-53" x="405.761719"/>
      <use xlink:href="#DejaVuSans-50" x="469.238281"/>
      <use xlink:href="#DejaVuSans-4f" x="529.541016"/>
      <use xlink:href="#DejaVuSans-29" x="608.251953"/>
     </g>
    </g>
    <g id="line2d_64">
     <path d="M 398.52214 188.200353 
L 413.52214 188.200353 
L 428.52214 188.200353 
" style="fill: none; stroke: #2ca02c; stroke-width: 1.5; stroke-linecap: square"/>
    </g>
    <g id="text_34">
     <!-- P=250 (SPO) -->
     <g transform="translate(436.52214 191.700353) scale(0.1 -0.1)">
      <use xlink:href="#DejaVuSans-50"/>
      <use xlink:href="#DejaVuSans-3d" x="60.302734"/>
      <use xlink:href="#DejaVuSans-32" x="144.091797"/>
      <use xlink:href="#DejaVuSans-35" x="207.714844"/>
      <use xlink:href="#DejaVuSans-30" x="271.337891"/>
      <use xlink:href="#DejaVuSans-20" x="334.960938"/>
      <use xlink:href="#DejaVuSans-28" x="366.748047"/>
      <use xlink:href="#DejaVuSans-53" x="405.761719"/>
      <use xlink:href="#DejaVuSans-50" x="469.238281"/>
      <use xlink:href="#DejaVuSans-4f" x="529.541016"/>
      <use xlink:href="#DejaVuSans-29" x="608.251953"/>
     </g>
    </g>
   </g>
  </g>
 </g>
 <defs>
  <clipPath id="p74072ac0f8">
   <rect x="46.9875" y="10.999219" width="210.573984" height="191.780822"/>
  </clipPath>
  <clipPath id="p5811b5b215">
   <rect x="299.676281" y="10.999219" width="210.573984" height="191.780822"/>
  </clipPath>
 </defs>
</svg>
