<?xml version="1.0" encoding="utf-8" standalone="no"?>
<!DOCTYPE svg PUBLIC "-//W3C//DTD SVG 1.1//EN"
  "http://www.w3.org/Graphics/SVG/1.1/DTD/svg11.dtd">
<svg xmlns:xlink="http://www.w3.org/1999/xlink" width="529.505353pt" height="389.961729pt" viewBox="0 0 529.505353 389.961729" xmlns="http://www.w3.org/2000/svg" version="1.1">
 <metadata>
  <rdf:RDF xmlns:dc="http://purl.org/dc/elements/1.1/" xmlns:cc="http://creativecommons.org/ns#" xmlns:rdf="http://www.w3.org/1999/02/22-rdf-syntax-ns#">
   <cc:Work>
    <dc:type rdf:resource="http://purl.org/dc/dcmitype/StillImage"/>
    <dc:date>2025-02-25T12:11:08.214332</dc:date>
    <dc:format>image/svg+xml</dc:format>
    <dc:creator>
     <cc:Agent>
      <dc:title>Matplotlib v3.6.3, https://matplotlib.org/</dc:title>
     </cc:Agent>
    </dc:creator>
   </cc:Work>
  </rdf:RDF>
 </metadata>
 <defs>
  <style type="text/css">*{stroke-linejoin: round; stroke-linecap: butt}</style>
 </defs>
 <g id="figure_1">
  <g id="patch_1">
   <path d="M 0 389.961729 
L 529.505353 389.961729 
L 529.505353 0 
L 0 0 
z
" style="fill: #ffffff"/>
  </g>
  <g id="axes_1">
   <g id="patch_2">
    <path d="M 58.523438 160.624658 
L 389.425412 160.624658 
L 389.425412 7.2 
L 58.523438 7.2 
z
" style="fill: #ffffff"/>
   </g>
   <g id="matplotlib.axis_1">
    <g id="xtick_1">
     <g id="line2d_1">
      <path d="M 73.564436 160.624658 
L 73.564436 7.2 
" clip-path="url(#pf74bffadda)" style="fill: none; stroke-dasharray: 2.96,1.28; stroke-dashoffset: 0; stroke: #808080; stroke-width: 0.8"/>
     </g>
     <g id="line2d_2">
      <defs>
       <path id="m3eb97b5e41" d="M 0 0 
L 0 3.5 
" style="stroke: #000000; stroke-width: 0.8"/>
      </defs>
      <g>
       <use xlink:href="#m3eb97b5e41" x="73.564436" y="160.624658" style="stroke: #000000; stroke-width: 0.8"/>
      </g>
     </g>
     <g id="text_1">
      <!-- 0.00 -->
      <g transform="translate(62.431624 175.223095) scale(0.1 -0.1)">
       <defs>
        <path id="DejaVuSans-30" d="M 2034 4250 
Q 1547 4250 1301 3770 
Q 1056 3291 1056 2328 
Q 1056 1369 1301 889 
Q 1547 409 2034 409 
Q 2525 409 2770 889 
Q 3016 1369 3016 2328 
Q 3016 3291 2770 3770 
Q 2525 4250 2034 4250 
z
M 2034 4750 
Q 2819 4750 3233 4129 
Q 3647 3509 3647 2328 
Q 3647 1150 3233 529 
Q 2819 -91 2034 -91 
Q 1250 -91 836 529 
Q 422 1150 422 2328 
Q 422 3509 836 4129 
Q 1250 4750 2034 4750 
z
" transform="scale(0.015625)"/>
        <path id="DejaVuSans-2e" d="M 684 794 
L 1344 794 
L 1344 0 
L 684 0 
L 684 794 
z
" transform="scale(0.015625)"/>
       </defs>
       <use xlink:href="#DejaVuSans-30"/>
       <use xlink:href="#DejaVuSans-2e" x="63.623047"/>
       <use xlink:href="#DejaVuSans-30" x="95.410156"/>
       <use xlink:href="#DejaVuSans-30" x="159.033203"/>
      </g>
     </g>
    </g>
    <g id="xtick_2">
     <g id="line2d_3">
      <path d="M 111.168263 160.624658 
L 111.168263 7.2 
" clip-path="url(#pf74bffadda)" style="fill: none; stroke-dasharray: 2.96,1.28; stroke-dashoffset: 0; stroke: #808080; stroke-width: 0.8"/>
     </g>
     <g id="line2d_4">
      <g>
       <use xlink:href="#m3eb97b5e41" x="111.168263" y="160.624658" style="stroke: #000000; stroke-width: 0.8"/>
      </g>
     </g>
     <g id="text_2">
      <!-- 0.02 -->
      <g transform="translate(100.03545 175.223095) scale(0.1 -0.1)">
       <defs>
        <path id="DejaVuSans-32" d="M 1228 531 
L 3431 531 
L 3431 0 
L 469 0 
L 469 531 
Q 828 903 1448 1529 
Q 2069 2156 2228 2338 
Q 2531 2678 2651 2914 
Q 2772 3150 2772 3378 
Q 2772 3750 2511 3984 
Q 2250 4219 1831 4219 
Q 1534 4219 1204 4116 
Q 875 4013 500 3803 
L 500 4441 
Q 881 4594 1212 4672 
Q 1544 4750 1819 4750 
Q 2544 4750 2975 4387 
Q 3406 4025 3406 3419 
Q 3406 3131 3298 2873 
Q 3191 2616 2906 2266 
Q 2828 2175 2409 1742 
Q 1991 1309 1228 531 
z
" transform="scale(0.015625)"/>
       </defs>
       <use xlink:href="#DejaVuSans-30"/>
       <use xlink:href="#DejaVuSans-2e" x="63.623047"/>
       <use xlink:href="#DejaVuSans-30" x="95.410156"/>
       <use xlink:href="#DejaVuSans-32" x="159.033203"/>
      </g>
     </g>
    </g>
    <g id="xtick_3">
     <g id="line2d_5">
      <path d="M 148.77209 160.624658 
L 148.77209 7.2 
" clip-path="url(#pf74bffadda)" style="fill: none; stroke-dasharray: 2.96,1.28; stroke-dashoffset: 0; stroke: #808080; stroke-width: 0.8"/>
     </g>
     <g id="line2d_6">
      <g>
       <use xlink:href="#m3eb97b5e41" x="148.77209" y="160.624658" style="stroke: #000000; stroke-width: 0.8"/>
      </g>
     </g>
     <g id="text_3">
      <!-- 0.04 -->
      <g transform="translate(137.639277 175.223095) scale(0.1 -0.1)">
       <defs>
        <path id="DejaVuSans-34" d="M 2419 4116 
L 825 1625 
L 2419 1625 
L 2419 4116 
z
M 2253 4666 
L 3047 4666 
L 3047 1625 
L 3713 1625 
L 3713 1100 
L 3047 1100 
L 3047 0 
L 2419 0 
L 2419 1100 
L 313 1100 
L 313 1709 
L 2253 4666 
z
" transform="scale(0.015625)"/>
       </defs>
       <use xlink:href="#DejaVuSans-30"/>
       <use xlink:href="#DejaVuSans-2e" x="63.623047"/>
       <use xlink:href="#DejaVuSans-30" x="95.410156"/>
       <use xlink:href="#DejaVuSans-34" x="159.033203"/>
      </g>
     </g>
    </g>
    <g id="xtick_4">
     <g id="line2d_7">
      <path d="M 186.375916 160.624658 
L 186.375916 7.2 
" clip-path="url(#pf74bffadda)" style="fill: none; stroke-dasharray: 2.96,1.28; stroke-dashoffset: 0; stroke: #808080; stroke-width: 0.8"/>
     </g>
     <g id="line2d_8">
      <g>
       <use xlink:href="#m3eb97b5e41" x="186.375916" y="160.624658" style="stroke: #000000; stroke-width: 0.8"/>
      </g>
     </g>
     <g id="text_4">
      <!-- 0.06 -->
      <g transform="translate(175.243104 175.223095) scale(0.1 -0.1)">
       <defs>
        <path id="DejaVuSans-36" d="M 2113 2584 
Q 1688 2584 1439 2293 
Q 1191 2003 1191 1497 
Q 1191 994 1439 701 
Q 1688 409 2113 409 
Q 2538 409 2786 701 
Q 3034 994 3034 1497 
Q 3034 2003 2786 2293 
Q 2538 2584 2113 2584 
z
M 3366 4563 
L 3366 3988 
Q 3128 4100 2886 4159 
Q 2644 4219 2406 4219 
Q 1781 4219 1451 3797 
Q 1122 3375 1075 2522 
Q 1259 2794 1537 2939 
Q 1816 3084 2150 3084 
Q 2853 3084 3261 2657 
Q 3669 2231 3669 1497 
Q 3669 778 3244 343 
Q 2819 -91 2113 -91 
Q 1303 -91 875 529 
Q 447 1150 447 2328 
Q 447 3434 972 4092 
Q 1497 4750 2381 4750 
Q 2619 4750 2861 4703 
Q 3103 4656 3366 4563 
z
" transform="scale(0.015625)"/>
       </defs>
       <use xlink:href="#DejaVuSans-30"/>
       <use xlink:href="#DejaVuSans-2e" x="63.623047"/>
       <use xlink:href="#DejaVuSans-30" x="95.410156"/>
       <use xlink:href="#DejaVuSans-36" x="159.033203"/>
      </g>
     </g>
    </g>
    <g id="xtick_5">
     <g id="line2d_9">
      <path d="M 223.979743 160.624658 
L 223.979743 7.2 
" clip-path="url(#pf74bffadda)" style="fill: none; stroke-dasharray: 2.96,1.28; stroke-dashoffset: 0; stroke: #808080; stroke-width: 0.8"/>
     </g>
     <g id="line2d_10">
      <g>
       <use xlink:href="#m3eb97b5e41" x="223.979743" y="160.624658" style="stroke: #000000; stroke-width: 0.8"/>
      </g>
     </g>
     <g id="text_5">
      <!-- 0.08 -->
      <g transform="translate(212.84693 175.223095) scale(0.1 -0.1)">
       <defs>
        <path id="DejaVuSans-38" d="M 2034 2216 
Q 1584 2216 1326 1975 
Q 1069 1734 1069 1313 
Q 1069 891 1326 650 
Q 1584 409 2034 409 
Q 2484 409 2743 651 
Q 3003 894 3003 1313 
Q 3003 1734 2745 1975 
Q 2488 2216 2034 2216 
z
M 1403 2484 
Q 997 2584 770 2862 
Q 544 3141 544 3541 
Q 544 4100 942 4425 
Q 1341 4750 2034 4750 
Q 2731 4750 3128 4425 
Q 3525 4100 3525 3541 
Q 3525 3141 3298 2862 
Q 3072 2584 2669 2484 
Q 3125 2378 3379 2068 
Q 3634 1759 3634 1313 
Q 3634 634 3220 271 
Q 2806 -91 2034 -91 
Q 1263 -91 848 271 
Q 434 634 434 1313 
Q 434 1759 690 2068 
Q 947 2378 1403 2484 
z
M 1172 3481 
Q 1172 3119 1398 2916 
Q 1625 2713 2034 2713 
Q 2441 2713 2670 2916 
Q 2900 3119 2900 3481 
Q 2900 3844 2670 4047 
Q 2441 4250 2034 4250 
Q 1625 4250 1398 4047 
Q 1172 3844 1172 3481 
z
" transform="scale(0.015625)"/>
       </defs>
       <use xlink:href="#DejaVuSans-30"/>
       <use xlink:href="#DejaVuSans-2e" x="63.623047"/>
       <use xlink:href="#DejaVuSans-30" x="95.410156"/>
       <use xlink:href="#DejaVuSans-38" x="159.033203"/>
      </g>
     </g>
    </g>
    <g id="xtick_6">
     <g id="line2d_11">
      <path d="M 261.583569 160.624658 
L 261.583569 7.2 
" clip-path="url(#pf74bffadda)" style="fill: none; stroke-dasharray: 2.96,1.28; stroke-dashoffset: 0; stroke: #808080; stroke-width: 0.8"/>
     </g>
     <g id="line2d_12">
      <g>
       <use xlink:href="#m3eb97b5e41" x="261.583569" y="160.624658" style="stroke: #000000; stroke-width: 0.8"/>
      </g>
     </g>
     <g id="text_6">
      <!-- 0.10 -->
      <g transform="translate(250.450757 175.223095) scale(0.1 -0.1)">
       <defs>
        <path id="DejaVuSans-31" d="M 794 531 
L 1825 531 
L 1825 4091 
L 703 3866 
L 703 4441 
L 1819 4666 
L 2450 4666 
L 2450 531 
L 3481 531 
L 3481 0 
L 794 0 
L 794 531 
z
" transform="scale(0.015625)"/>
       </defs>
       <use xlink:href="#DejaVuSans-30"/>
       <use xlink:href="#DejaVuSans-2e" x="63.623047"/>
       <use xlink:href="#DejaVuSans-31" x="95.410156"/>
       <use xlink:href="#DejaVuSans-30" x="159.033203"/>
      </g>
     </g>
    </g>
    <g id="xtick_7">
     <g id="line2d_13">
      <path d="M 299.187396 160.624658 
L 299.187396 7.2 
" clip-path="url(#pf74bffadda)" style="fill: none; stroke-dasharray: 2.96,1.28; stroke-dashoffset: 0; stroke: #808080; stroke-width: 0.8"/>
     </g>
     <g id="line2d_14">
      <g>
       <use xlink:href="#m3eb97b5e41" x="299.187396" y="160.624658" style="stroke: #000000; stroke-width: 0.8"/>
      </g>
     </g>
     <g id="text_7">
      <!-- 0.12 -->
      <g transform="translate(288.054584 175.223095) scale(0.1 -0.1)">
       <use xlink:href="#DejaVuSans-30"/>
       <use xlink:href="#DejaVuSans-2e" x="63.623047"/>
       <use xlink:href="#DejaVuSans-31" x="95.410156"/>
       <use xlink:href="#DejaVuSans-32" x="159.033203"/>
      </g>
     </g>
    </g>
    <g id="xtick_8">
     <g id="line2d_15">
      <path d="M 336.791223 160.624658 
L 336.791223 7.2 
" clip-path="url(#pf74bffadda)" style="fill: none; stroke-dasharray: 2.96,1.28; stroke-dashoffset: 0; stroke: #808080; stroke-width: 0.8"/>
     </g>
     <g id="line2d_16">
      <g>
       <use xlink:href="#m3eb97b5e41" x="336.791223" y="160.624658" style="stroke: #000000; stroke-width: 0.8"/>
      </g>
     </g>
     <g id="text_8">
      <!-- 0.14 -->
      <g transform="translate(325.65841 175.223095) scale(0.1 -0.1)">
       <use xlink:href="#DejaVuSans-30"/>
       <use xlink:href="#DejaVuSans-2e" x="63.623047"/>
       <use xlink:href="#DejaVuSans-31" x="95.410156"/>
       <use xlink:href="#DejaVuSans-34" x="159.033203"/>
      </g>
     </g>
    </g>
    <g id="xtick_9">
     <g id="line2d_17">
      <path d="M 374.395049 160.624658 
L 374.395049 7.2 
" clip-path="url(#pf74bffadda)" style="fill: none; stroke-dasharray: 2.96,1.28; stroke-dashoffset: 0; stroke: #808080; stroke-width: 0.8"/>
     </g>
     <g id="line2d_18">
      <g>
       <use xlink:href="#m3eb97b5e41" x="374.395049" y="160.624658" style="stroke: #000000; stroke-width: 0.8"/>
      </g>
     </g>
     <g id="text_9">
      <!-- 0.16 -->
      <g transform="translate(363.262237 175.223095) scale(0.1 -0.1)">
       <use xlink:href="#DejaVuSans-30"/>
       <use xlink:href="#DejaVuSans-2e" x="63.623047"/>
       <use xlink:href="#DejaVuSans-31" x="95.410156"/>
       <use xlink:href="#DejaVuSans-36" x="159.033203"/>
      </g>
     </g>
    </g>
    <g id="text_10">
     <!-- Radial displacement at outer face $u_b$ -->
     <g transform="translate(132.224425 188.902783) scale(0.1 -0.1)">
      <defs>
       <path id="DejaVuSans-52" d="M 2841 2188 
Q 3044 2119 3236 1894 
Q 3428 1669 3622 1275 
L 4263 0 
L 3584 0 
L 2988 1197 
Q 2756 1666 2539 1819 
Q 2322 1972 1947 1972 
L 1259 1972 
L 1259 0 
L 628 0 
L 628 4666 
L 2053 4666 
Q 2853 4666 3247 4331 
Q 3641 3997 3641 3322 
Q 3641 2881 3436 2590 
Q 3231 2300 2841 2188 
z
M 1259 4147 
L 1259 2491 
L 2053 2491 
Q 2509 2491 2742 2702 
Q 2975 2913 2975 3322 
Q 2975 3731 2742 3939 
Q 2509 4147 2053 4147 
L 1259 4147 
z
" transform="scale(0.015625)"/>
       <path id="DejaVuSans-61" d="M 2194 1759 
Q 1497 1759 1228 1600 
Q 959 1441 959 1056 
Q 959 750 1161 570 
Q 1363 391 1709 391 
Q 2188 391 2477 730 
Q 2766 1069 2766 1631 
L 2766 1759 
L 2194 1759 
z
M 3341 1997 
L 3341 0 
L 2766 0 
L 2766 531 
Q 2569 213 2275 61 
Q 1981 -91 1556 -91 
Q 1019 -91 701 211 
Q 384 513 384 1019 
Q 384 1609 779 1909 
Q 1175 2209 1959 2209 
L 2766 2209 
L 2766 2266 
Q 2766 2663 2505 2880 
Q 2244 3097 1772 3097 
Q 1472 3097 1187 3025 
Q 903 2953 641 2809 
L 641 3341 
Q 956 3463 1253 3523 
Q 1550 3584 1831 3584 
Q 2591 3584 2966 3190 
Q 3341 2797 3341 1997 
z
" transform="scale(0.015625)"/>
       <path id="DejaVuSans-64" d="M 2906 2969 
L 2906 4863 
L 3481 4863 
L 3481 0 
L 2906 0 
L 2906 525 
Q 2725 213 2448 61 
Q 2172 -91 1784 -91 
Q 1150 -91 751 415 
Q 353 922 353 1747 
Q 353 2572 751 3078 
Q 1150 3584 1784 3584 
Q 2172 3584 2448 3432 
Q 2725 3281 2906 2969 
z
M 947 1747 
Q 947 1113 1208 752 
Q 1469 391 1925 391 
Q 2381 391 2643 752 
Q 2906 1113 2906 1747 
Q 2906 2381 2643 2742 
Q 2381 3103 1925 3103 
Q 1469 3103 1208 2742 
Q 947 2381 947 1747 
z
" transform="scale(0.015625)"/>
       <path id="DejaVuSans-69" d="M 603 3500 
L 1178 3500 
L 1178 0 
L 603 0 
L 603 3500 
z
M 603 4863 
L 1178 4863 
L 1178 4134 
L 603 4134 
L 603 4863 
z
" transform="scale(0.015625)"/>
       <path id="DejaVuSans-6c" d="M 603 4863 
L 1178 4863 
L 1178 0 
L 603 0 
L 603 4863 
z
" transform="scale(0.015625)"/>
       <path id="DejaVuSans-20" transform="scale(0.015625)"/>
       <path id="DejaVuSans-73" d="M 2834 3397 
L 2834 2853 
Q 2591 2978 2328 3040 
Q 2066 3103 1784 3103 
Q 1356 3103 1142 2972 
Q 928 2841 928 2578 
Q 928 2378 1081 2264 
Q 1234 2150 1697 2047 
L 1894 2003 
Q 2506 1872 2764 1633 
Q 3022 1394 3022 966 
Q 3022 478 2636 193 
Q 2250 -91 1575 -91 
Q 1294 -91 989 -36 
Q 684 19 347 128 
L 347 722 
Q 666 556 975 473 
Q 1284 391 1588 391 
Q 1994 391 2212 530 
Q 2431 669 2431 922 
Q 2431 1156 2273 1281 
Q 2116 1406 1581 1522 
L 1381 1569 
Q 847 1681 609 1914 
Q 372 2147 372 2553 
Q 372 3047 722 3315 
Q 1072 3584 1716 3584 
Q 2034 3584 2315 3537 
Q 2597 3491 2834 3397 
z
" transform="scale(0.015625)"/>
       <path id="DejaVuSans-70" d="M 1159 525 
L 1159 -1331 
L 581 -1331 
L 581 3500 
L 1159 3500 
L 1159 2969 
Q 1341 3281 1617 3432 
Q 1894 3584 2278 3584 
Q 2916 3584 3314 3078 
Q 3713 2572 3713 1747 
Q 3713 922 3314 415 
Q 2916 -91 2278 -91 
Q 1894 -91 1617 61 
Q 1341 213 1159 525 
z
M 3116 1747 
Q 3116 2381 2855 2742 
Q 2594 3103 2138 3103 
Q 1681 3103 1420 2742 
Q 1159 2381 1159 1747 
Q 1159 1113 1420 752 
Q 1681 391 2138 391 
Q 2594 391 2855 752 
Q 3116 1113 3116 1747 
z
" transform="scale(0.015625)"/>
       <path id="DejaVuSans-63" d="M 3122 3366 
L 3122 2828 
Q 2878 2963 2633 3030 
Q 2388 3097 2138 3097 
Q 1578 3097 1268 2742 
Q 959 2388 959 1747 
Q 959 1106 1268 751 
Q 1578 397 2138 397 
Q 2388 397 2633 464 
Q 2878 531 3122 666 
L 3122 134 
Q 2881 22 2623 -34 
Q 2366 -91 2075 -91 
Q 1284 -91 818 406 
Q 353 903 353 1747 
Q 353 2603 823 3093 
Q 1294 3584 2113 3584 
Q 2378 3584 2631 3529 
Q 2884 3475 3122 3366 
z
" transform="scale(0.015625)"/>
       <path id="DejaVuSans-65" d="M 3597 1894 
L 3597 1613 
L 953 1613 
Q 991 1019 1311 708 
Q 1631 397 2203 397 
Q 2534 397 2845 478 
Q 3156 559 3463 722 
L 3463 178 
Q 3153 47 2828 -22 
Q 2503 -91 2169 -91 
Q 1331 -91 842 396 
Q 353 884 353 1716 
Q 353 2575 817 3079 
Q 1281 3584 2069 3584 
Q 2775 3584 3186 3129 
Q 3597 2675 3597 1894 
z
M 3022 2063 
Q 3016 2534 2758 2815 
Q 2500 3097 2075 3097 
Q 1594 3097 1305 2825 
Q 1016 2553 972 2059 
L 3022 2063 
z
" transform="scale(0.015625)"/>
       <path id="DejaVuSans-6d" d="M 3328 2828 
Q 3544 3216 3844 3400 
Q 4144 3584 4550 3584 
Q 5097 3584 5394 3201 
Q 5691 2819 5691 2113 
L 5691 0 
L 5113 0 
L 5113 2094 
Q 5113 2597 4934 2840 
Q 4756 3084 4391 3084 
Q 3944 3084 3684 2787 
Q 3425 2491 3425 1978 
L 3425 0 
L 2847 0 
L 2847 2094 
Q 2847 2600 2669 2842 
Q 2491 3084 2119 3084 
Q 1678 3084 1418 2786 
Q 1159 2488 1159 1978 
L 1159 0 
L 581 0 
L 581 3500 
L 1159 3500 
L 1159 2956 
Q 1356 3278 1631 3431 
Q 1906 3584 2284 3584 
Q 2666 3584 2933 3390 
Q 3200 3197 3328 2828 
z
" transform="scale(0.015625)"/>
       <path id="DejaVuSans-6e" d="M 3513 2113 
L 3513 0 
L 2938 0 
L 2938 2094 
Q 2938 2591 2744 2837 
Q 2550 3084 2163 3084 
Q 1697 3084 1428 2787 
Q 1159 2491 1159 1978 
L 1159 0 
L 581 0 
L 581 3500 
L 1159 3500 
L 1159 2956 
Q 1366 3272 1645 3428 
Q 1925 3584 2291 3584 
Q 2894 3584 3203 3211 
Q 3513 2838 3513 2113 
z
" transform="scale(0.015625)"/>
       <path id="DejaVuSans-74" d="M 1172 4494 
L 1172 3500 
L 2356 3500 
L 2356 3053 
L 1172 3053 
L 1172 1153 
Q 1172 725 1289 603 
Q 1406 481 1766 481 
L 2356 481 
L 2356 0 
L 1766 0 
Q 1100 0 847 248 
Q 594 497 594 1153 
L 594 3053 
L 172 3053 
L 172 3500 
L 594 3500 
L 594 4494 
L 1172 4494 
z
" transform="scale(0.015625)"/>
       <path id="DejaVuSans-6f" d="M 1959 3097 
Q 1497 3097 1228 2736 
Q 959 2375 959 1747 
Q 959 1119 1226 758 
Q 1494 397 1959 397 
Q 2419 397 2687 759 
Q 2956 1122 2956 1747 
Q 2956 2369 2687 2733 
Q 2419 3097 1959 3097 
z
M 1959 3584 
Q 2709 3584 3137 3096 
Q 3566 2609 3566 1747 
Q 3566 888 3137 398 
Q 2709 -91 1959 -91 
Q 1206 -91 779 398 
Q 353 888 353 1747 
Q 353 2609 779 3096 
Q 1206 3584 1959 3584 
z
" transform="scale(0.015625)"/>
       <path id="DejaVuSans-75" d="M 544 1381 
L 544 3500 
L 1119 3500 
L 1119 1403 
Q 1119 906 1312 657 
Q 1506 409 1894 409 
Q 2359 409 2629 706 
Q 2900 1003 2900 1516 
L 2900 3500 
L 3475 3500 
L 3475 0 
L 2900 0 
L 2900 538 
Q 2691 219 2414 64 
Q 2138 -91 1772 -91 
Q 1169 -91 856 284 
Q 544 659 544 1381 
z
M 1991 3584 
L 1991 3584 
z
" transform="scale(0.015625)"/>
       <path id="DejaVuSans-72" d="M 2631 2963 
Q 2534 3019 2420 3045 
Q 2306 3072 2169 3072 
Q 1681 3072 1420 2755 
Q 1159 2438 1159 1844 
L 1159 0 
L 581 0 
L 581 3500 
L 1159 3500 
L 1159 2956 
Q 1341 3275 1631 3429 
Q 1922 3584 2338 3584 
Q 2397 3584 2469 3576 
Q 2541 3569 2628 3553 
L 2631 2963 
z
" transform="scale(0.015625)"/>
       <path id="DejaVuSans-66" d="M 2375 4863 
L 2375 4384 
L 1825 4384 
Q 1516 4384 1395 4259 
Q 1275 4134 1275 3809 
L 1275 3500 
L 2222 3500 
L 2222 3053 
L 1275 3053 
L 1275 0 
L 697 0 
L 697 3053 
L 147 3053 
L 147 3500 
L 697 3500 
L 697 3744 
Q 697 4328 969 4595 
Q 1241 4863 1831 4863 
L 2375 4863 
z
" transform="scale(0.015625)"/>
       <path id="DejaVuSans-Oblique-75" d="M 428 1388 
L 838 3500 
L 1416 3500 
L 1006 1409 
Q 975 1256 961 1147 
Q 947 1038 947 966 
Q 947 700 1109 554 
Q 1272 409 1569 409 
Q 2031 409 2368 721 
Q 2706 1034 2809 1563 
L 3194 3500 
L 3769 3500 
L 3091 0 
L 2516 0 
L 2631 550 
Q 2388 244 2052 76 
Q 1716 -91 1338 -91 
Q 878 -91 622 161 
Q 366 413 366 863 
Q 366 956 381 1097 
Q 397 1238 428 1388 
z
" transform="scale(0.015625)"/>
       <path id="DejaVuSans-Oblique-62" d="M 3169 2138 
Q 3169 2591 2961 2847 
Q 2753 3103 2388 3103 
Q 2122 3103 1889 2973 
Q 1656 2844 1484 2597 
Q 1303 2338 1198 1995 
Q 1094 1653 1094 1313 
Q 1094 881 1298 636 
Q 1503 391 1863 391 
Q 2134 391 2365 517 
Q 2597 644 2772 891 
Q 2950 1147 3059 1487 
Q 3169 1828 3169 2138 
z
M 1381 2969 
Q 1594 3256 1914 3420 
Q 2234 3584 2584 3584 
Q 3122 3584 3439 3221 
Q 3756 2859 3756 2241 
Q 3756 1734 3570 1259 
Q 3384 784 3041 416 
Q 2816 172 2522 40 
Q 2228 -91 1906 -91 
Q 1566 -91 1316 65 
Q 1066 222 909 531 
L 806 0 
L 231 0 
L 1178 4863 
L 1753 4863 
L 1381 2969 
z
" transform="scale(0.015625)"/>
      </defs>
      <use xlink:href="#DejaVuSans-52" transform="translate(0 0.015625)"/>
      <use xlink:href="#DejaVuSans-61" transform="translate(69.482422 0.015625)"/>
      <use xlink:href="#DejaVuSans-64" transform="translate(130.761719 0.015625)"/>
      <use xlink:href="#DejaVuSans-69" transform="translate(194.238281 0.015625)"/>
      <use xlink:href="#DejaVuSans-61" transform="translate(222.021484 0.015625)"/>
      <use xlink:href="#DejaVuSans-6c" transform="translate(283.300781 0.015625)"/>
      <use xlink:href="#DejaVuSans-20" transform="translate(311.083984 0.015625)"/>
      <use xlink:href="#DejaVuSans-64" transform="translate(342.871094 0.015625)"/>
      <use xlink:href="#DejaVuSans-69" transform="translate(406.347656 0.015625)"/>
      <use xlink:href="#DejaVuSans-73" transform="translate(434.130859 0.015625)"/>
      <use xlink:href="#DejaVuSans-70" transform="translate(486.230469 0.015625)"/>
      <use xlink:href="#DejaVuSans-6c" transform="translate(549.707031 0.015625)"/>
      <use xlink:href="#DejaVuSans-61" transform="translate(577.490234 0.015625)"/>
      <use xlink:href="#DejaVuSans-63" transform="translate(638.769531 0.015625)"/>
      <use xlink:href="#DejaVuSans-65" transform="translate(693.75 0.015625)"/>
      <use xlink:href="#DejaVuSans-6d" transform="translate(755.273438 0.015625)"/>
      <use xlink:href="#DejaVuSans-65" transform="translate(852.685547 0.015625)"/>
      <use xlink:href="#DejaVuSans-6e" transform="translate(914.208984 0.015625)"/>
      <use xlink:href="#DejaVuSans-74" transform="translate(977.587891 0.015625)"/>
      <use xlink:href="#DejaVuSans-20" transform="translate(1016.796875 0.015625)"/>
      <use xlink:href="#DejaVuSans-61" transform="translate(1048.583984 0.015625)"/>
      <use xlink:href="#DejaVuSans-74" transform="translate(1109.863281 0.015625)"/>
      <use xlink:href="#DejaVuSans-20" transform="translate(1149.072266 0.015625)"/>
      <use xlink:href="#DejaVuSans-6f" transform="translate(1180.859375 0.015625)"/>
      <use xlink:href="#DejaVuSans-75" transform="translate(1242.041016 0.015625)"/>
      <use xlink:href="#DejaVuSans-74" transform="translate(1305.419922 0.015625)"/>
      <use xlink:href="#DejaVuSans-65" transform="translate(1344.628906 0.015625)"/>
      <use xlink:href="#DejaVuSans-72" transform="translate(1406.152344 0.015625)"/>
      <use xlink:href="#DejaVuSans-20" transform="translate(1447.265625 0.015625)"/>
      <use xlink:href="#DejaVuSans-66" transform="translate(1479.052734 0.015625)"/>
      <use xlink:href="#DejaVuSans-61" transform="translate(1514.257812 0.015625)"/>
      <use xlink:href="#DejaVuSans-63" transform="translate(1575.537109 0.015625)"/>
      <use xlink:href="#DejaVuSans-65" transform="translate(1630.517578 0.015625)"/>
      <use xlink:href="#DejaVuSans-20" transform="translate(1692.041016 0.015625)"/>
      <use xlink:href="#DejaVuSans-Oblique-75" transform="translate(1723.828125 0.015625)"/>
      <use xlink:href="#DejaVuSans-Oblique-62" transform="translate(1787.207031 -16.390625) scale(0.7)"/>
     </g>
    </g>
   </g>
   <g id="matplotlib.axis_2">
    <g id="ytick_1">
     <g id="line2d_19">
      <path d="M 58.523438 153.650809 
L 389.425412 153.650809 
" clip-path="url(#pf74bffadda)" style="fill: none; stroke-dasharray: 2.96,1.28; stroke-dashoffset: 0; stroke: #808080; stroke-width: 0.8"/>
     </g>
     <g id="line2d_20">
      <defs>
       <path id="m2dc09eee46" d="M 0 0 
L -3.5 0 
" style="stroke: #000000; stroke-width: 0.8"/>
      </defs>
      <g>
       <use xlink:href="#m2dc09eee46" x="58.523438" y="153.650809" style="stroke: #000000; stroke-width: 0.8"/>
      </g>
     </g>
     <g id="text_11">
      <!-- 0.0 -->
      <g transform="translate(35.620312 157.450028) scale(0.1 -0.1)">
       <use xlink:href="#DejaVuSans-30"/>
       <use xlink:href="#DejaVuSans-2e" x="63.623047"/>
       <use xlink:href="#DejaVuSans-30" x="95.410156"/>
      </g>
     </g>
    </g>
    <g id="ytick_2">
     <g id="line2d_21">
      <path d="M 58.523438 111.729409 
L 389.425412 111.729409 
" clip-path="url(#pf74bffadda)" style="fill: none; stroke-dasharray: 2.96,1.28; stroke-dashoffset: 0; stroke: #808080; stroke-width: 0.8"/>
     </g>
     <g id="line2d_22">
      <g>
       <use xlink:href="#m2dc09eee46" x="58.523438" y="111.729409" style="stroke: #000000; stroke-width: 0.8"/>
      </g>
     </g>
     <g id="text_12">
      <!-- 0.1 -->
      <g transform="translate(35.620312 115.528628) scale(0.1 -0.1)">
       <use xlink:href="#DejaVuSans-30"/>
       <use xlink:href="#DejaVuSans-2e" x="63.623047"/>
       <use xlink:href="#DejaVuSans-31" x="95.410156"/>
      </g>
     </g>
    </g>
    <g id="ytick_3">
     <g id="line2d_23">
      <path d="M 58.523438 69.808009 
L 389.425412 69.808009 
" clip-path="url(#pf74bffadda)" style="fill: none; stroke-dasharray: 2.96,1.28; stroke-dashoffset: 0; stroke: #808080; stroke-width: 0.8"/>
     </g>
     <g id="line2d_24">
      <g>
       <use xlink:href="#m2dc09eee46" x="58.523438" y="69.808009" style="stroke: #000000; stroke-width: 0.8"/>
      </g>
     </g>
     <g id="text_13">
      <!-- 0.2 -->
      <g transform="translate(35.620312 73.607228) scale(0.1 -0.1)">
       <use xlink:href="#DejaVuSans-30"/>
       <use xlink:href="#DejaVuSans-2e" x="63.623047"/>
       <use xlink:href="#DejaVuSans-32" x="95.410156"/>
      </g>
     </g>
    </g>
    <g id="ytick_4">
     <g id="line2d_25">
      <path d="M 58.523438 27.886609 
L 389.425412 27.886609 
" clip-path="url(#pf74bffadda)" style="fill: none; stroke-dasharray: 2.96,1.28; stroke-dashoffset: 0; stroke: #808080; stroke-width: 0.8"/>
     </g>
     <g id="line2d_26">
      <g>
       <use xlink:href="#m2dc09eee46" x="58.523438" y="27.886609" style="stroke: #000000; stroke-width: 0.8"/>
      </g>
     </g>
     <g id="text_14">
      <!-- 0.3 -->
      <g transform="translate(35.620312 31.685828) scale(0.1 -0.1)">
       <defs>
        <path id="DejaVuSans-33" d="M 2597 2516 
Q 3050 2419 3304 2112 
Q 3559 1806 3559 1356 
Q 3559 666 3084 287 
Q 2609 -91 1734 -91 
Q 1441 -91 1130 -33 
Q 819 25 488 141 
L 488 750 
Q 750 597 1062 519 
Q 1375 441 1716 441 
Q 2309 441 2620 675 
Q 2931 909 2931 1356 
Q 2931 1769 2642 2001 
Q 2353 2234 1838 2234 
L 1294 2234 
L 1294 2753 
L 1863 2753 
Q 2328 2753 2575 2939 
Q 2822 3125 2822 3475 
Q 2822 3834 2567 4026 
Q 2313 4219 1838 4219 
Q 1578 4219 1281 4162 
Q 984 4106 628 3988 
L 628 4550 
Q 988 4650 1302 4700 
Q 1616 4750 1894 4750 
Q 2613 4750 3031 4423 
Q 3450 4097 3450 3541 
Q 3450 3153 3228 2886 
Q 3006 2619 2597 2516 
z
" transform="scale(0.015625)"/>
       </defs>
       <use xlink:href="#DejaVuSans-30"/>
       <use xlink:href="#DejaVuSans-2e" x="63.623047"/>
       <use xlink:href="#DejaVuSans-33" x="95.410156"/>
      </g>
     </g>
    </g>
    <g id="text_15">
     <!-- Internal pressure $P$ -->
     <g transform="translate(29.520312 131.312329) rotate(-90) scale(0.1 -0.1)">
      <defs>
       <path id="DejaVuSans-49" d="M 628 4666 
L 1259 4666 
L 1259 0 
L 628 0 
L 628 4666 
z
" transform="scale(0.015625)"/>
       <path id="DejaVuSans-Oblique-50" d="M 1081 4666 
L 2541 4666 
Q 3178 4666 3512 4369 
Q 3847 4072 3847 3500 
Q 3847 2731 3353 2303 
Q 2859 1875 1966 1875 
L 1172 1875 
L 806 0 
L 172 0 
L 1081 4666 
z
M 1613 4147 
L 1275 2394 
L 2069 2394 
Q 2606 2394 2893 2669 
Q 3181 2944 3181 3456 
Q 3181 3784 2986 3965 
Q 2791 4147 2438 4147 
L 1613 4147 
z
" transform="scale(0.015625)"/>
      </defs>
      <use xlink:href="#DejaVuSans-49" transform="translate(0 0.015625)"/>
      <use xlink:href="#DejaVuSans-6e" transform="translate(29.492188 0.015625)"/>
      <use xlink:href="#DejaVuSans-74" transform="translate(92.871094 0.015625)"/>
      <use xlink:href="#DejaVuSans-65" transform="translate(132.080078 0.015625)"/>
      <use xlink:href="#DejaVuSans-72" transform="translate(193.603516 0.015625)"/>
      <use xlink:href="#DejaVuSans-6e" transform="translate(234.716797 0.015625)"/>
      <use xlink:href="#DejaVuSans-61" transform="translate(298.095703 0.015625)"/>
      <use xlink:href="#DejaVuSans-6c" transform="translate(359.375 0.015625)"/>
      <use xlink:href="#DejaVuSans-20" transform="translate(387.158203 0.015625)"/>
      <use xlink:href="#DejaVuSans-70" transform="translate(418.945312 0.015625)"/>
      <use xlink:href="#DejaVuSans-72" transform="translate(482.421875 0.015625)"/>
      <use xlink:href="#DejaVuSans-65" transform="translate(523.535156 0.015625)"/>
      <use xlink:href="#DejaVuSans-73" transform="translate(585.058594 0.015625)"/>
      <use xlink:href="#DejaVuSans-73" transform="translate(637.158203 0.015625)"/>
      <use xlink:href="#DejaVuSans-75" transform="translate(689.257812 0.015625)"/>
      <use xlink:href="#DejaVuSans-72" transform="translate(752.636719 0.015625)"/>
      <use xlink:href="#DejaVuSans-65" transform="translate(793.75 0.015625)"/>
      <use xlink:href="#DejaVuSans-20" transform="translate(855.273438 0.015625)"/>
      <use xlink:href="#DejaVuSans-Oblique-50" transform="translate(887.060547 0.015625)"/>
     </g>
    </g>
   </g>
   <g id="line2d_27">
    <path d="M 73.564436 153.650809 
L 113.886103 90.886177 
L 116.916061 86.701868 
L 120.21547 82.517559 
L 123.81632 78.33325 
L 127.756135 74.148941 
L 131.330068 70.662017 
L 135.200399 67.175093 
L 139.402646 63.688169 
L 143.978879 60.201245 
L 148.979511 56.714321 
L 153.32628 53.924782 
L 158.021301 51.135243 
L 163.109703 48.345704 
L 168.646192 45.556164 
L 174.698134 42.766625 
L 181.350024 39.977086 
L 188.710224 37.187547 
L 194.779373 35.095392 
L 201.404441 33.003238 
L 208.68628 30.911083 
L 216.758732 28.818929 
L 225.805951 26.726775 
L 236.093537 24.63462 
L 243.833582 23.239851 
L 252.481167 21.845081 
L 262.303594 20.450311 
L 273.729027 19.055542 
L 287.526693 17.660772 
L 295.766381 16.963387 
L 305.378669 16.266002 
L 317.143213 15.568618 
L 333.07412 14.871233 
L 374.384413 14.173848 
L 374.384413 14.173848 
" clip-path="url(#pf74bffadda)" style="fill: none; stroke: #1f77b4; stroke-width: 1.5; stroke-linecap: square"/>
   </g>
   <g id="line2d_28">
    <path d="M 73.564436 153.650809 
L 113.878266 90.768709 
L 191.999964 36.270889 
L 116.747482 153.650809 
" clip-path="url(#pf74bffadda)" style="fill: none; stroke-dasharray: 5.55,2.4; stroke-dashoffset: 0; stroke: #000000; stroke-width: 1.5"/>
    <defs>
     <path id="maa12068ea7" d="M 0 1.5 
C 0.397805 1.5 0.77937 1.341951 1.06066 1.06066 
C 1.341951 0.77937 1.5 0.397805 1.5 0 
C 1.5 -0.397805 1.341951 -0.77937 1.06066 -1.06066 
C 0.77937 -1.341951 0.397805 -1.5 0 -1.5 
C -0.397805 -1.5 -0.77937 -1.341951 -1.06066 -1.06066 
C -1.341951 -0.77937 -1.5 -0.397805 -1.5 0 
C -1.5 0.397805 -1.341951 0.77937 -1.06066 1.06066 
C -0.77937 1.341951 -0.397805 1.5 0 1.5 
z
" style="stroke: #000000"/>
    </defs>
    <g clip-path="url(#pf74bffadda)">
     <use xlink:href="#maa12068ea7" x="73.564436" y="153.650809" style="stroke: #000000"/>
     <use xlink:href="#maa12068ea7" x="113.878266" y="90.768709" style="stroke: #000000"/>
     <use xlink:href="#maa12068ea7" x="191.999964" y="36.270889" style="stroke: #000000"/>
     <use xlink:href="#maa12068ea7" x="116.747482" y="153.650809" style="stroke: #000000"/>
    </g>
   </g>
   <g id="patch_3">
    <path d="M 58.523438 160.624658 
L 58.523438 7.2 
" style="fill: none; stroke: #000000; stroke-width: 0.8; stroke-linejoin: miter; stroke-linecap: square"/>
   </g>
   <g id="patch_4">
    <path d="M 389.425412 160.624658 
L 389.425412 7.2 
" style="fill: none; stroke: #000000; stroke-width: 0.8; stroke-linejoin: miter; stroke-linecap: square"/>
   </g>
   <g id="patch_5">
    <path d="M 58.523438 160.624658 
L 389.425412 160.624658 
" style="fill: none; stroke: #000000; stroke-width: 0.8; stroke-linejoin: miter; stroke-linecap: square"/>
   </g>
   <g id="patch_6">
    <path d="M 58.523438 7.2 
L 389.425412 7.2 
" style="fill: none; stroke: #000000; stroke-width: 0.8; stroke-linejoin: miter; stroke-linecap: square"/>
   </g>
   <g id="legend_1">
    <g id="patch_7">
     <path d="M 290.562912 155.624658 
L 382.425412 155.624658 
Q 384.425412 155.624658 384.425412 153.624658 
L 384.425412 125.268408 
Q 384.425412 123.268408 382.425412 123.268408 
L 290.562912 123.268408 
Q 288.562912 123.268408 288.562912 125.268408 
L 288.562912 153.624658 
Q 288.562912 155.624658 290.562912 155.624658 
z
" style="fill: #ffffff; opacity: 0.8; stroke: #cccccc; stroke-linejoin: miter"/>
    </g>
    <g id="line2d_29">
     <path d="M 292.562912 131.366845 
L 307.562912 131.366845 
L 322.562912 131.366845 
" style="fill: none; stroke: #1f77b4; stroke-width: 1.5; stroke-linecap: square"/>
    </g>
    <g id="text_16">
     <!-- analytical -->
     <g transform="translate(330.562912 134.866845) scale(0.1 -0.1)">
      <defs>
       <path id="DejaVuSans-79" d="M 2059 -325 
Q 1816 -950 1584 -1140 
Q 1353 -1331 966 -1331 
L 506 -1331 
L 506 -850 
L 844 -850 
Q 1081 -850 1212 -737 
Q 1344 -625 1503 -206 
L 1606 56 
L 191 3500 
L 800 3500 
L 1894 763 
L 2988 3500 
L 3597 3500 
L 2059 -325 
z
" transform="scale(0.015625)"/>
      </defs>
      <use xlink:href="#DejaVuSans-61"/>
      <use xlink:href="#DejaVuSans-6e" x="61.279297"/>
      <use xlink:href="#DejaVuSans-61" x="124.658203"/>
      <use xlink:href="#DejaVuSans-6c" x="185.9375"/>
      <use xlink:href="#DejaVuSans-79" x="213.720703"/>
      <use xlink:href="#DejaVuSans-74" x="272.900391"/>
      <use xlink:href="#DejaVuSans-69" x="312.109375"/>
      <use xlink:href="#DejaVuSans-63" x="339.892578"/>
      <use xlink:href="#DejaVuSans-61" x="394.873047"/>
      <use xlink:href="#DejaVuSans-6c" x="456.152344"/>
     </g>
    </g>
    <g id="line2d_30">
     <path d="M 292.562912 146.04497 
L 307.562912 146.04497 
L 322.562912 146.04497 
" style="fill: none; stroke-dasharray: 5.55,2.4; stroke-dashoffset: 0; stroke: #000000; stroke-width: 1.5"/>
     <g>
      <use xlink:href="#maa12068ea7" x="307.562912" y="146.04497" style="stroke: #000000"/>
     </g>
    </g>
    <g id="text_17">
     <!-- numerical -->
     <g transform="translate(330.562912 149.54497) scale(0.1 -0.1)">
      <use xlink:href="#DejaVuSans-6e"/>
      <use xlink:href="#DejaVuSans-75" x="63.378906"/>
      <use xlink:href="#DejaVuSans-6d" x="126.757812"/>
      <use xlink:href="#DejaVuSans-65" x="224.169922"/>
      <use xlink:href="#DejaVuSans-72" x="285.693359"/>
      <use xlink:href="#DejaVuSans-69" x="326.806641"/>
      <use xlink:href="#DejaVuSans-63" x="354.589844"/>
      <use xlink:href="#DejaVuSans-61" x="409.570312"/>
      <use xlink:href="#DejaVuSans-6c" x="470.849609"/>
     </g>
    </g>
   </g>
  </g>
  <g id="axes_2">
   <g id="patch_8">
    <path d="M 58.523438 352.405479 
L 257.064622 352.405479 
L 257.064622 198.980822 
L 58.523438 198.980822 
z
" style="fill: #ffffff"/>
   </g>
   <g id="matplotlib.axis_3">
    <g id="xtick_10">
     <g id="line2d_31">
      <path d="M 67.548037 352.405479 
L 67.548037 198.980822 
" clip-path="url(#pa3d42fa222)" style="fill: none; stroke-dasharray: 2.96,1.28; stroke-dashoffset: 0; stroke: #808080; stroke-width: 0.8"/>
     </g>
     <g id="line2d_32">
      <g>
       <use xlink:href="#m3eb97b5e41" x="67.548037" y="352.405479" style="stroke: #000000; stroke-width: 0.8"/>
      </g>
     </g>
     <g id="text_18">
      <!-- 100 -->
      <g transform="translate(58.004287 367.003917) scale(0.1 -0.1)">
       <use xlink:href="#DejaVuSans-31"/>
       <use xlink:href="#DejaVuSans-30" x="63.623047"/>
       <use xlink:href="#DejaVuSans-30" x="127.246094"/>
      </g>
     </g>
    </g>
    <g id="xtick_11">
     <g id="line2d_33">
      <path d="M 103.646434 352.405479 
L 103.646434 198.980822 
" clip-path="url(#pa3d42fa222)" style="fill: none; stroke-dasharray: 2.96,1.28; stroke-dashoffset: 0; stroke: #808080; stroke-width: 0.8"/>
     </g>
     <g id="line2d_34">
      <g>
       <use xlink:href="#m3eb97b5e41" x="103.646434" y="352.405479" style="stroke: #000000; stroke-width: 0.8"/>
      </g>
     </g>
     <g id="text_19">
      <!-- 120 -->
      <g transform="translate(94.102684 367.003917) scale(0.1 -0.1)">
       <use xlink:href="#DejaVuSans-31"/>
       <use xlink:href="#DejaVuSans-32" x="63.623047"/>
       <use xlink:href="#DejaVuSans-30" x="127.246094"/>
      </g>
     </g>
    </g>
    <g id="xtick_12">
     <g id="line2d_35">
      <path d="M 139.744831 352.405479 
L 139.744831 198.980822 
" clip-path="url(#pa3d42fa222)" style="fill: none; stroke-dasharray: 2.96,1.28; stroke-dashoffset: 0; stroke: #808080; stroke-width: 0.8"/>
     </g>
     <g id="line2d_36">
      <g>
       <use xlink:href="#m3eb97b5e41" x="139.744831" y="352.405479" style="stroke: #000000; stroke-width: 0.8"/>
      </g>
     </g>
     <g id="text_20">
      <!-- 140 -->
      <g transform="translate(130.201081 367.003917) scale(0.1 -0.1)">
       <use xlink:href="#DejaVuSans-31"/>
       <use xlink:href="#DejaVuSans-34" x="63.623047"/>
       <use xlink:href="#DejaVuSans-30" x="127.246094"/>
      </g>
     </g>
    </g>
    <g id="xtick_13">
     <g id="line2d_37">
      <path d="M 175.843229 352.405479 
L 175.843229 198.980822 
" clip-path="url(#pa3d42fa222)" style="fill: none; stroke-dasharray: 2.96,1.28; stroke-dashoffset: 0; stroke: #808080; stroke-width: 0.8"/>
     </g>
     <g id="line2d_38">
      <g>
       <use xlink:href="#m3eb97b5e41" x="175.843229" y="352.405479" style="stroke: #000000; stroke-width: 0.8"/>
      </g>
     </g>
     <g id="text_21">
      <!-- 160 -->
      <g transform="translate(166.299479 367.003917) scale(0.1 -0.1)">
       <use xlink:href="#DejaVuSans-31"/>
       <use xlink:href="#DejaVuSans-36" x="63.623047"/>
       <use xlink:href="#DejaVuSans-30" x="127.246094"/>
      </g>
     </g>
    </g>
    <g id="xtick_14">
     <g id="line2d_39">
      <path d="M 211.941626 352.405479 
L 211.941626 198.980822 
" clip-path="url(#pa3d42fa222)" style="fill: none; stroke-dasharray: 2.96,1.28; stroke-dashoffset: 0; stroke: #808080; stroke-width: 0.8"/>
     </g>
     <g id="line2d_40">
      <g>
       <use xlink:href="#m3eb97b5e41" x="211.941626" y="352.405479" style="stroke: #000000; stroke-width: 0.8"/>
      </g>
     </g>
     <g id="text_22">
      <!-- 180 -->
      <g transform="translate(202.397876 367.003917) scale(0.1 -0.1)">
       <use xlink:href="#DejaVuSans-31"/>
       <use xlink:href="#DejaVuSans-38" x="63.623047"/>
       <use xlink:href="#DejaVuSans-30" x="127.246094"/>
      </g>
     </g>
    </g>
    <g id="xtick_15">
     <g id="line2d_41">
      <path d="M 248.040023 352.405479 
L 248.040023 198.980822 
" clip-path="url(#pa3d42fa222)" style="fill: none; stroke-dasharray: 2.96,1.28; stroke-dashoffset: 0; stroke: #808080; stroke-width: 0.8"/>
     </g>
     <g id="line2d_42">
      <g>
       <use xlink:href="#m3eb97b5e41" x="248.040023" y="352.405479" style="stroke: #000000; stroke-width: 0.8"/>
      </g>
     </g>
     <g id="text_23">
      <!-- 200 -->
      <g transform="translate(238.496273 367.003917) scale(0.1 -0.1)">
       <use xlink:href="#DejaVuSans-32"/>
       <use xlink:href="#DejaVuSans-30" x="63.623047"/>
       <use xlink:href="#DejaVuSans-30" x="127.246094"/>
      </g>
     </g>
    </g>
    <g id="text_24">
     <!-- Radial coordinate $r$ -->
     <g transform="translate(110.24403 380.682042) scale(0.1 -0.1)">
      <defs>
       <path id="DejaVuSans-Oblique-72" d="M 2853 2969 
Q 2766 3016 2653 3041 
Q 2541 3066 2413 3066 
Q 1953 3066 1609 2717 
Q 1266 2369 1153 1784 
L 800 0 
L 225 0 
L 909 3500 
L 1484 3500 
L 1375 2956 
Q 1603 3259 1920 3421 
Q 2238 3584 2597 3584 
Q 2691 3584 2781 3573 
Q 2872 3563 2963 3538 
L 2853 2969 
z
" transform="scale(0.015625)"/>
      </defs>
      <use xlink:href="#DejaVuSans-52" transform="translate(0 0.015625)"/>
      <use xlink:href="#DejaVuSans-61" transform="translate(69.482422 0.015625)"/>
      <use xlink:href="#DejaVuSans-64" transform="translate(130.761719 0.015625)"/>
      <use xlink:href="#DejaVuSans-69" transform="translate(194.238281 0.015625)"/>
      <use xlink:href="#DejaVuSans-61" transform="translate(222.021484 0.015625)"/>
      <use xlink:href="#DejaVuSans-6c" transform="translate(283.300781 0.015625)"/>
      <use xlink:href="#DejaVuSans-20" transform="translate(311.083984 0.015625)"/>
      <use xlink:href="#DejaVuSans-63" transform="translate(342.871094 0.015625)"/>
      <use xlink:href="#DejaVuSans-6f" transform="translate(397.851562 0.015625)"/>
      <use xlink:href="#DejaVuSans-6f" transform="translate(459.033203 0.015625)"/>
      <use xlink:href="#DejaVuSans-72" transform="translate(520.214844 0.015625)"/>
      <use xlink:href="#DejaVuSans-64" transform="translate(561.328125 0.015625)"/>
      <use xlink:href="#DejaVuSans-69" transform="translate(624.804688 0.015625)"/>
      <use xlink:href="#DejaVuSans-6e" transform="translate(652.587891 0.015625)"/>
      <use xlink:href="#DejaVuSans-61" transform="translate(715.966797 0.015625)"/>
      <use xlink:href="#DejaVuSans-74" transform="translate(777.246094 0.015625)"/>
      <use xlink:href="#DejaVuSans-65" transform="translate(816.455078 0.015625)"/>
      <use xlink:href="#DejaVuSans-20" transform="translate(877.978516 0.015625)"/>
      <use xlink:href="#DejaVuSans-Oblique-72" transform="translate(909.765625 0.015625)"/>
     </g>
    </g>
   </g>
   <g id="matplotlib.axis_4">
    <g id="ytick_5">
     <g id="line2d_43">
      <path d="M 58.523438 350.218044 
L 257.064622 350.218044 
" clip-path="url(#pa3d42fa222)" style="fill: none; stroke-dasharray: 2.96,1.28; stroke-dashoffset: 0; stroke: #808080; stroke-width: 0.8"/>
     </g>
     <g id="line2d_44">
      <g>
       <use xlink:href="#m2dc09eee46" x="58.523438" y="350.218044" style="stroke: #000000; stroke-width: 0.8"/>
      </g>
     </g>
     <g id="text_25">
      <!-- −0.25 -->
      <g transform="translate(20.878125 354.017263) scale(0.1 -0.1)">
       <defs>
        <path id="DejaVuSans-2212" d="M 678 2272 
L 4684 2272 
L 4684 1741 
L 678 1741 
L 678 2272 
z
" transform="scale(0.015625)"/>
        <path id="DejaVuSans-35" d="M 691 4666 
L 3169 4666 
L 3169 4134 
L 1269 4134 
L 1269 2991 
Q 1406 3038 1543 3061 
Q 1681 3084 1819 3084 
Q 2600 3084 3056 2656 
Q 3513 2228 3513 1497 
Q 3513 744 3044 326 
Q 2575 -91 1722 -91 
Q 1428 -91 1123 -41 
Q 819 9 494 109 
L 494 744 
Q 775 591 1075 516 
Q 1375 441 1709 441 
Q 2250 441 2565 725 
Q 2881 1009 2881 1497 
Q 2881 1984 2565 2268 
Q 2250 2553 1709 2553 
Q 1456 2553 1204 2497 
Q 953 2441 691 2322 
L 691 4666 
z
" transform="scale(0.015625)"/>
       </defs>
       <use xlink:href="#DejaVuSans-2212"/>
       <use xlink:href="#DejaVuSans-30" x="83.789062"/>
       <use xlink:href="#DejaVuSans-2e" x="147.412109"/>
       <use xlink:href="#DejaVuSans-32" x="179.199219"/>
       <use xlink:href="#DejaVuSans-35" x="242.822266"/>
      </g>
     </g>
    </g>
    <g id="ytick_6">
     <g id="line2d_45">
      <path d="M 58.523438 326.285982 
L 257.064622 326.285982 
" clip-path="url(#pa3d42fa222)" style="fill: none; stroke-dasharray: 2.96,1.28; stroke-dashoffset: 0; stroke: #808080; stroke-width: 0.8"/>
     </g>
     <g id="line2d_46">
      <g>
       <use xlink:href="#m2dc09eee46" x="58.523438" y="326.285982" style="stroke: #000000; stroke-width: 0.8"/>
      </g>
     </g>
     <g id="text_26">
      <!-- −0.20 -->
      <g transform="translate(20.878125 330.085201) scale(0.1 -0.1)">
       <use xlink:href="#DejaVuSans-2212"/>
       <use xlink:href="#DejaVuSans-30" x="83.789062"/>
       <use xlink:href="#DejaVuSans-2e" x="147.412109"/>
       <use xlink:href="#DejaVuSans-32" x="179.199219"/>
       <use xlink:href="#DejaVuSans-30" x="242.822266"/>
      </g>
     </g>
    </g>
    <g id="ytick_7">
     <g id="line2d_47">
      <path d="M 58.523438 302.35392 
L 257.064622 302.35392 
" clip-path="url(#pa3d42fa222)" style="fill: none; stroke-dasharray: 2.96,1.28; stroke-dashoffset: 0; stroke: #808080; stroke-width: 0.8"/>
     </g>
     <g id="line2d_48">
      <g>
       <use xlink:href="#m2dc09eee46" x="58.523438" y="302.35392" style="stroke: #000000; stroke-width: 0.8"/>
      </g>
     </g>
     <g id="text_27">
      <!-- −0.15 -->
      <g transform="translate(20.878125 306.153139) scale(0.1 -0.1)">
       <use xlink:href="#DejaVuSans-2212"/>
       <use xlink:href="#DejaVuSans-30" x="83.789062"/>
       <use xlink:href="#DejaVuSans-2e" x="147.412109"/>
       <use xlink:href="#DejaVuSans-31" x="179.199219"/>
       <use xlink:href="#DejaVuSans-35" x="242.822266"/>
      </g>
     </g>
    </g>
    <g id="ytick_8">
     <g id="line2d_49">
      <path d="M 58.523438 278.421858 
L 257.064622 278.421858 
" clip-path="url(#pa3d42fa222)" style="fill: none; stroke-dasharray: 2.96,1.28; stroke-dashoffset: 0; stroke: #808080; stroke-width: 0.8"/>
     </g>
     <g id="line2d_50">
      <g>
       <use xlink:href="#m2dc09eee46" x="58.523438" y="278.421858" style="stroke: #000000; stroke-width: 0.8"/>
      </g>
     </g>
     <g id="text_28">
      <!-- −0.10 -->
      <g transform="translate(20.878125 282.221077) scale(0.1 -0.1)">
       <use xlink:href="#DejaVuSans-2212"/>
       <use xlink:href="#DejaVuSans-30" x="83.789062"/>
       <use xlink:href="#DejaVuSans-2e" x="147.412109"/>
       <use xlink:href="#DejaVuSans-31" x="179.199219"/>
       <use xlink:href="#DejaVuSans-30" x="242.822266"/>
      </g>
     </g>
    </g>
    <g id="ytick_9">
     <g id="line2d_51">
      <path d="M 58.523438 254.489796 
L 257.064622 254.489796 
" clip-path="url(#pa3d42fa222)" style="fill: none; stroke-dasharray: 2.96,1.28; stroke-dashoffset: 0; stroke: #808080; stroke-width: 0.8"/>
     </g>
     <g id="line2d_52">
      <g>
       <use xlink:href="#m2dc09eee46" x="58.523438" y="254.489796" style="stroke: #000000; stroke-width: 0.8"/>
      </g>
     </g>
     <g id="text_29">
      <!-- −0.05 -->
      <g transform="translate(20.878125 258.289015) scale(0.1 -0.1)">
       <use xlink:href="#DejaVuSans-2212"/>
       <use xlink:href="#DejaVuSans-30" x="83.789062"/>
       <use xlink:href="#DejaVuSans-2e" x="147.412109"/>
       <use xlink:href="#DejaVuSans-30" x="179.199219"/>
       <use xlink:href="#DejaVuSans-35" x="242.822266"/>
      </g>
     </g>
    </g>
    <g id="ytick_10">
     <g id="line2d_53">
      <path d="M 58.523438 230.557734 
L 257.064622 230.557734 
" clip-path="url(#pa3d42fa222)" style="fill: none; stroke-dasharray: 2.96,1.28; stroke-dashoffset: 0; stroke: #808080; stroke-width: 0.8"/>
     </g>
     <g id="line2d_54">
      <g>
       <use xlink:href="#m2dc09eee46" x="58.523438" y="230.557734" style="stroke: #000000; stroke-width: 0.8"/>
      </g>
     </g>
     <g id="text_30">
      <!-- 0.00 -->
      <g transform="translate(29.257812 234.356953) scale(0.1 -0.1)">
       <use xlink:href="#DejaVuSans-30"/>
       <use xlink:href="#DejaVuSans-2e" x="63.623047"/>
       <use xlink:href="#DejaVuSans-30" x="95.410156"/>
       <use xlink:href="#DejaVuSans-30" x="159.033203"/>
      </g>
     </g>
    </g>
    <g id="ytick_11">
     <g id="line2d_55">
      <path d="M 58.523438 206.625672 
L 257.064622 206.625672 
" clip-path="url(#pa3d42fa222)" style="fill: none; stroke-dasharray: 2.96,1.28; stroke-dashoffset: 0; stroke: #808080; stroke-width: 0.8"/>
     </g>
     <g id="line2d_56">
      <g>
       <use xlink:href="#m2dc09eee46" x="58.523438" y="206.625672" style="stroke: #000000; stroke-width: 0.8"/>
      </g>
     </g>
     <g id="text_31">
      <!-- 0.05 -->
      <g transform="translate(29.257812 210.424891) scale(0.1 -0.1)">
       <use xlink:href="#DejaVuSans-30"/>
       <use xlink:href="#DejaVuSans-2e" x="63.623047"/>
       <use xlink:href="#DejaVuSans-30" x="95.410156"/>
       <use xlink:href="#DejaVuSans-35" x="159.033203"/>
      </g>
     </g>
    </g>
    <g id="text_32">
     <!-- Hoop stress $\sigma_\theta$ -->
     <g transform="translate(14.778125 312.293151) rotate(-90) scale(0.1 -0.1)">
      <defs>
       <path id="DejaVuSans-48" d="M 628 4666 
L 1259 4666 
L 1259 2753 
L 3553 2753 
L 3553 4666 
L 4184 4666 
L 4184 0 
L 3553 0 
L 3553 2222 
L 1259 2222 
L 1259 0 
L 628 0 
L 628 4666 
z
" transform="scale(0.015625)"/>
       <path id="DejaVuSans-Oblique-3c3" d="M 2219 3044 
Q 1744 3044 1422 2700 
Q 1081 2341 969 1747 
Q 844 1119 1044 756 
Q 1241 397 1706 397 
Q 2166 397 2503 759 
Q 2844 1122 2966 1747 
Q 3075 2319 2881 2700 
Q 2700 3044 2219 3044 
z
M 2309 3503 
L 4219 3500 
L 4106 2925 
L 3463 2925 
Q 3706 2438 3575 1747 
Q 3406 888 2884 400 
Q 2359 -91 1609 -91 
Q 856 -91 525 400 
Q 194 888 363 1747 
Q 528 2609 1050 3097 
Q 1484 3503 2309 3503 
z
" transform="scale(0.015625)"/>
       <path id="DejaVuSans-Oblique-3b8" d="M 2913 2219 
L 925 2219 
Q 791 1284 928 888 
Q 1100 400 1566 400 
Q 2034 400 2391 891 
Q 2703 1322 2913 2219 
z
M 3009 2750 
Q 3094 3638 2984 3950 
Q 2813 4444 2353 4444 
Q 1875 4444 1525 3956 
Q 1250 3563 1034 2750 
L 3009 2750 
z
M 2444 4913 
Q 3194 4913 3494 4250 
Q 3794 3591 3566 2422 
Q 3341 1256 2781 594 
Q 2225 -72 1475 -72 
Q 722 -72 425 594 
Q 128 1256 353 2422 
Q 581 3591 1134 4250 
Q 1691 4913 2444 4913 
z
" transform="scale(0.015625)"/>
      </defs>
      <use xlink:href="#DejaVuSans-48" transform="translate(0 0.09375)"/>
      <use xlink:href="#DejaVuSans-6f" transform="translate(75.195312 0.09375)"/>
      <use xlink:href="#DejaVuSans-6f" transform="translate(136.376953 0.09375)"/>
      <use xlink:href="#DejaVuSans-70" transform="translate(197.558594 0.09375)"/>
      <use xlink:href="#DejaVuSans-20" transform="translate(261.035156 0.09375)"/>
      <use xlink:href="#DejaVuSans-73" transform="translate(292.822266 0.09375)"/>
      <use xlink:href="#DejaVuSans-74" transform="translate(344.921875 0.09375)"/>
      <use xlink:href="#DejaVuSans-72" transform="translate(384.130859 0.09375)"/>
      <use xlink:href="#DejaVuSans-65" transform="translate(425.244141 0.09375)"/>
      <use xlink:href="#DejaVuSans-73" transform="translate(486.767578 0.09375)"/>
      <use xlink:href="#DejaVuSans-73" transform="translate(538.867188 0.09375)"/>
      <use xlink:href="#DejaVuSans-20" transform="translate(590.966797 0.09375)"/>
      <use xlink:href="#DejaVuSans-Oblique-3c3" transform="translate(622.753906 0.09375)"/>
      <use xlink:href="#DejaVuSans-Oblique-3b8" transform="translate(686.132812 -16.3125) scale(0.7)"/>
     </g>
    </g>
   </g>
   <g id="line2d_57">
    <path d="M 67.548037 345.431631 
L 72.060336 334.290515 
L 76.572636 323.794528 
L 81.084936 313.879493 
L 85.597235 304.489369 
L 90.109535 295.575047 
L 94.621835 287.093337 
L 100.036594 277.43299 
L 105.451354 268.283306 
L 110.866114 259.594265 
L 116.280873 251.322282 
L 121.695633 243.429227 
L 127.110392 235.881612 
L 133.427612 227.473472 
L 139.744831 219.454389 
L 146.062051 211.788589 
L 150.57435 206.511825 
L 151.47681 205.95467 
L 161.40387 207.396538 
L 172.233389 208.748907 
L 184.867828 210.088018 
L 198.404727 211.29175 
L 213.746546 212.425577 
L 230.893284 213.46474 
L 248.040023 214.31577 
L 248.040023 214.31577 
" clip-path="url(#pa3d42fa222)" style="fill: none; stroke: #1f77b4; stroke-width: 1.5; stroke-linecap: square"/>
   </g>
   <g id="line2d_58">
    <defs>
     <path id="mc3fe65b7e3" d="M -0 4.242641 
L 4.242641 0 
L 0 -4.242641 
L -4.242641 -0 
z
" style="stroke: #787878; stroke-linejoin: miter"/>
    </defs>
    <g clip-path="url(#pa3d42fa222)">
     <use xlink:href="#mc3fe65b7e3" x="73.812914" y="330.565513" style="fill-opacity: 0; stroke: #787878; stroke-linejoin: miter"/>
     <use xlink:href="#mc3fe65b7e3" x="74.018855" y="330.108411" style="fill-opacity: 0; stroke: #787878; stroke-linejoin: miter"/>
     <use xlink:href="#mc3fe65b7e3" x="90.322516" y="295.083838" style="fill-opacity: 0; stroke: #787878; stroke-linejoin: miter"/>
     <use xlink:href="#mc3fe65b7e3" x="90.63242" y="294.474528" style="fill-opacity: 0; stroke: #787878; stroke-linejoin: miter"/>
     <use xlink:href="#mc3fe65b7e3" x="104.33086" y="270.684622" style="fill-opacity: 0; stroke: #787878; stroke-linejoin: miter"/>
     <use xlink:href="#mc3fe65b7e3" x="104.620369" y="270.205981" style="fill-opacity: 0; stroke: #787878; stroke-linejoin: miter"/>
     <use xlink:href="#mc3fe65b7e3" x="123.469688" y="238.705165" style="fill-opacity: 0; stroke: #787878; stroke-linejoin: miter"/>
     <use xlink:href="#mc3fe65b7e3" x="123.597477" y="238.49217" style="fill-opacity: 0; stroke: #787878; stroke-linejoin: miter"/>
     <use xlink:href="#mc3fe65b7e3" x="143.711143" y="214.662537" style="fill-opacity: 0; stroke: #787878; stroke-linejoin: miter"/>
     <use xlink:href="#mc3fe65b7e3" x="143.824672" y="214.598399" style="fill-opacity: 0; stroke: #787878; stroke-linejoin: miter"/>
     <use xlink:href="#mc3fe65b7e3" x="173.057696" y="208.510083" style="fill-opacity: 0; stroke: #787878; stroke-linejoin: miter"/>
     <use xlink:href="#mc3fe65b7e3" x="173.220319" y="208.509604" style="fill-opacity: 0; stroke: #787878; stroke-linejoin: miter"/>
     <use xlink:href="#mc3fe65b7e3" x="197.302282" y="210.673541" style="fill-opacity: 0; stroke: #787878; stroke-linejoin: miter"/>
     <use xlink:href="#mc3fe65b7e3" x="197.321414" y="210.675934" style="fill-opacity: 0; stroke: #787878; stroke-linejoin: miter"/>
     <use xlink:href="#mc3fe65b7e3" x="234.844976" y="213.533422" style="fill-opacity: 0; stroke: #787878; stroke-linejoin: miter"/>
     <use xlink:href="#mc3fe65b7e3" x="235.135387" y="213.552568" style="fill-opacity: 0; stroke: #787878; stroke-linejoin: miter"/>
    </g>
   </g>
   <g id="line2d_59">
    <g clip-path="url(#pa3d42fa222)">
     <use xlink:href="#maa12068ea7" x="73.626755" y="330.629794" style="stroke: #000000"/>
     <use xlink:href="#maa12068ea7" x="90.297739" y="295.203652" style="stroke: #000000"/>
     <use xlink:href="#maa12068ea7" x="104.027248" y="270.588196" style="stroke: #000000"/>
     <use xlink:href="#maa12068ea7" x="124.865978" y="238.885005" style="stroke: #000000"/>
     <use xlink:href="#maa12068ea7" x="143.17199" y="214.847685" style="stroke: #000000"/>
     <use xlink:href="#maa12068ea7" x="172.346212" y="208.640199" style="stroke: #000000"/>
     <use xlink:href="#maa12068ea7" x="196.754228" y="210.844265" style="stroke: #000000"/>
     <use xlink:href="#maa12068ea7" x="234.263943" y="213.37826" style="stroke: #000000"/>
    </g>
   </g>
   <g id="patch_9">
    <path d="M 58.523438 352.405479 
L 58.523438 198.980822 
" style="fill: none; stroke: #000000; stroke-width: 0.8; stroke-linejoin: miter; stroke-linecap: square"/>
   </g>
   <g id="patch_10">
    <path d="M 257.064622 352.405479 
L 257.064622 198.980822 
" style="fill: none; stroke: #000000; stroke-width: 0.8; stroke-linejoin: miter; stroke-linecap: square"/>
   </g>
   <g id="patch_11">
    <path d="M 58.523438 352.405479 
L 257.064622 352.405479 
" style="fill: none; stroke: #000000; stroke-width: 0.8; stroke-linejoin: miter; stroke-linecap: square"/>
   </g>
   <g id="patch_12">
    <path d="M 58.523438 198.980822 
L 257.064622 198.980822 
" style="fill: none; stroke: #000000; stroke-width: 0.8; stroke-linejoin: miter; stroke-linecap: square"/>
   </g>
  </g>
  <g id="axes_3">
   <g id="patch_13">
    <path d="M 323.245017 352.405479 
L 521.786202 352.405479 
L 521.786202 198.980822 
L 323.245017 198.980822 
z
" style="fill: #ffffff"/>
   </g>
   <g id="matplotlib.axis_5">
    <g id="xtick_16">
     <g id="line2d_60">
      <path d="M 332.269617 352.405479 
L 332.269617 198.980822 
" clip-path="url(#p15257bf518)" style="fill: none; stroke-dasharray: 2.96,1.28; stroke-dashoffset: 0; stroke: #808080; stroke-width: 0.8"/>
     </g>
     <g id="line2d_61">
      <g>
       <use xlink:href="#m3eb97b5e41" x="332.269617" y="352.405479" style="stroke: #000000; stroke-width: 0.8"/>
      </g>
     </g>
     <g id="text_33">
      <!-- 100 -->
      <g transform="translate(322.725867 367.003917) scale(0.1 -0.1)">
       <use xlink:href="#DejaVuSans-31"/>
       <use xlink:href="#DejaVuSans-30" x="63.623047"/>
       <use xlink:href="#DejaVuSans-30" x="127.246094"/>
      </g>
     </g>
    </g>
    <g id="xtick_17">
     <g id="line2d_62">
      <path d="M 368.368014 352.405479 
L 368.368014 198.980822 
" clip-path="url(#p15257bf518)" style="fill: none; stroke-dasharray: 2.96,1.28; stroke-dashoffset: 0; stroke: #808080; stroke-width: 0.8"/>
     </g>
     <g id="line2d_63">
      <g>
       <use xlink:href="#m3eb97b5e41" x="368.368014" y="352.405479" style="stroke: #000000; stroke-width: 0.8"/>
      </g>
     </g>
     <g id="text_34">
      <!-- 120 -->
      <g transform="translate(358.824264 367.003917) scale(0.1 -0.1)">
       <use xlink:href="#DejaVuSans-31"/>
       <use xlink:href="#DejaVuSans-32" x="63.623047"/>
       <use xlink:href="#DejaVuSans-30" x="127.246094"/>
      </g>
     </g>
    </g>
    <g id="xtick_18">
     <g id="line2d_64">
      <path d="M 404.466411 352.405479 
L 404.466411 198.980822 
" clip-path="url(#p15257bf518)" style="fill: none; stroke-dasharray: 2.96,1.28; stroke-dashoffset: 0; stroke: #808080; stroke-width: 0.8"/>
     </g>
     <g id="line2d_65">
      <g>
       <use xlink:href="#m3eb97b5e41" x="404.466411" y="352.405479" style="stroke: #000000; stroke-width: 0.8"/>
      </g>
     </g>
     <g id="text_35">
      <!-- 140 -->
      <g transform="translate(394.922661 367.003917) scale(0.1 -0.1)">
       <use xlink:href="#DejaVuSans-31"/>
       <use xlink:href="#DejaVuSans-34" x="63.623047"/>
       <use xlink:href="#DejaVuSans-30" x="127.246094"/>
      </g>
     </g>
    </g>
    <g id="xtick_19">
     <g id="line2d_66">
      <path d="M 440.564808 352.405479 
L 440.564808 198.980822 
" clip-path="url(#p15257bf518)" style="fill: none; stroke-dasharray: 2.96,1.28; stroke-dashoffset: 0; stroke: #808080; stroke-width: 0.8"/>
     </g>
     <g id="line2d_67">
      <g>
       <use xlink:href="#m3eb97b5e41" x="440.564808" y="352.405479" style="stroke: #000000; stroke-width: 0.8"/>
      </g>
     </g>
     <g id="text_36">
      <!-- 160 -->
      <g transform="translate(431.021058 367.003917) scale(0.1 -0.1)">
       <use xlink:href="#DejaVuSans-31"/>
       <use xlink:href="#DejaVuSans-36" x="63.623047"/>
       <use xlink:href="#DejaVuSans-30" x="127.246094"/>
      </g>
     </g>
    </g>
    <g id="xtick_20">
     <g id="line2d_68">
      <path d="M 476.663206 352.405479 
L 476.663206 198.980822 
" clip-path="url(#p15257bf518)" style="fill: none; stroke-dasharray: 2.96,1.28; stroke-dashoffset: 0; stroke: #808080; stroke-width: 0.8"/>
     </g>
     <g id="line2d_69">
      <g>
       <use xlink:href="#m3eb97b5e41" x="476.663206" y="352.405479" style="stroke: #000000; stroke-width: 0.8"/>
      </g>
     </g>
     <g id="text_37">
      <!-- 180 -->
      <g transform="translate(467.119456 367.003917) scale(0.1 -0.1)">
       <use xlink:href="#DejaVuSans-31"/>
       <use xlink:href="#DejaVuSans-38" x="63.623047"/>
       <use xlink:href="#DejaVuSans-30" x="127.246094"/>
      </g>
     </g>
    </g>
    <g id="xtick_21">
     <g id="line2d_70">
      <path d="M 512.761603 352.405479 
L 512.761603 198.980822 
" clip-path="url(#p15257bf518)" style="fill: none; stroke-dasharray: 2.96,1.28; stroke-dashoffset: 0; stroke: #808080; stroke-width: 0.8"/>
     </g>
     <g id="line2d_71">
      <g>
       <use xlink:href="#m3eb97b5e41" x="512.761603" y="352.405479" style="stroke: #000000; stroke-width: 0.8"/>
      </g>
     </g>
     <g id="text_38">
      <!-- 200 -->
      <g transform="translate(503.217853 367.003917) scale(0.1 -0.1)">
       <use xlink:href="#DejaVuSans-32"/>
       <use xlink:href="#DejaVuSans-30" x="63.623047"/>
       <use xlink:href="#DejaVuSans-30" x="127.246094"/>
      </g>
     </g>
    </g>
    <g id="text_39">
     <!-- Radial coordinate $r$ -->
     <g transform="translate(374.96561 380.682042) scale(0.1 -0.1)">
      <use xlink:href="#DejaVuSans-52" transform="translate(0 0.015625)"/>
      <use xlink:href="#DejaVuSans-61" transform="translate(69.482422 0.015625)"/>
      <use xlink:href="#DejaVuSans-64" transform="translate(130.761719 0.015625)"/>
      <use xlink:href="#DejaVuSans-69" transform="translate(194.238281 0.015625)"/>
      <use xlink:href="#DejaVuSans-61" transform="translate(222.021484 0.015625)"/>
      <use xlink:href="#DejaVuSans-6c" transform="translate(283.300781 0.015625)"/>
      <use xlink:href="#DejaVuSans-20" transform="translate(311.083984 0.015625)"/>
      <use xlink:href="#DejaVuSans-63" transform="translate(342.871094 0.015625)"/>
      <use xlink:href="#DejaVuSans-6f" transform="translate(397.851562 0.015625)"/>
      <use xlink:href="#DejaVuSans-6f" transform="translate(459.033203 0.015625)"/>
      <use xlink:href="#DejaVuSans-72" transform="translate(520.214844 0.015625)"/>
      <use xlink:href="#DejaVuSans-64" transform="translate(561.328125 0.015625)"/>
      <use xlink:href="#DejaVuSans-69" transform="translate(624.804688 0.015625)"/>
      <use xlink:href="#DejaVuSans-6e" transform="translate(652.587891 0.015625)"/>
      <use xlink:href="#DejaVuSans-61" transform="translate(715.966797 0.015625)"/>
      <use xlink:href="#DejaVuSans-74" transform="translate(777.246094 0.015625)"/>
      <use xlink:href="#DejaVuSans-65" transform="translate(816.455078 0.015625)"/>
      <use xlink:href="#DejaVuSans-20" transform="translate(877.978516 0.015625)"/>
      <use xlink:href="#DejaVuSans-Oblique-72" transform="translate(909.765625 0.015625)"/>
     </g>
    </g>
   </g>
   <g id="matplotlib.axis_6">
    <g id="ytick_12">
     <g id="line2d_72">
      <path d="M 323.245017 347.998511 
L 521.786202 347.998511 
" clip-path="url(#p15257bf518)" style="fill: none; stroke-dasharray: 2.96,1.28; stroke-dashoffset: 0; stroke: #808080; stroke-width: 0.8"/>
     </g>
     <g id="line2d_73">
      <g>
       <use xlink:href="#m2dc09eee46" x="323.245017" y="347.998511" style="stroke: #000000; stroke-width: 0.8"/>
      </g>
     </g>
     <g id="text_40">
      <!-- −0.05 -->
      <g transform="translate(285.599705 351.797729) scale(0.1 -0.1)">
       <use xlink:href="#DejaVuSans-2212"/>
       <use xlink:href="#DejaVuSans-30" x="83.789062"/>
       <use xlink:href="#DejaVuSans-2e" x="147.412109"/>
       <use xlink:href="#DejaVuSans-30" x="179.199219"/>
       <use xlink:href="#DejaVuSans-35" x="242.822266"/>
      </g>
     </g>
    </g>
    <g id="ytick_13">
     <g id="line2d_74">
      <path d="M 323.245017 319.589742 
L 521.786202 319.589742 
" clip-path="url(#p15257bf518)" style="fill: none; stroke-dasharray: 2.96,1.28; stroke-dashoffset: 0; stroke: #808080; stroke-width: 0.8"/>
     </g>
     <g id="line2d_75">
      <g>
       <use xlink:href="#m2dc09eee46" x="323.245017" y="319.589742" style="stroke: #000000; stroke-width: 0.8"/>
      </g>
     </g>
     <g id="text_41">
      <!-- −0.04 -->
      <g transform="translate(285.599705 323.388961) scale(0.1 -0.1)">
       <use xlink:href="#DejaVuSans-2212"/>
       <use xlink:href="#DejaVuSans-30" x="83.789062"/>
       <use xlink:href="#DejaVuSans-2e" x="147.412109"/>
       <use xlink:href="#DejaVuSans-30" x="179.199219"/>
       <use xlink:href="#DejaVuSans-34" x="242.822266"/>
      </g>
     </g>
    </g>
    <g id="ytick_14">
     <g id="line2d_76">
      <path d="M 323.245017 291.180974 
L 521.786202 291.180974 
" clip-path="url(#p15257bf518)" style="fill: none; stroke-dasharray: 2.96,1.28; stroke-dashoffset: 0; stroke: #808080; stroke-width: 0.8"/>
     </g>
     <g id="line2d_77">
      <g>
       <use xlink:href="#m2dc09eee46" x="323.245017" y="291.180974" style="stroke: #000000; stroke-width: 0.8"/>
      </g>
     </g>
     <g id="text_42">
      <!-- −0.03 -->
      <g transform="translate(285.599705 294.980193) scale(0.1 -0.1)">
       <use xlink:href="#DejaVuSans-2212"/>
       <use xlink:href="#DejaVuSans-30" x="83.789062"/>
       <use xlink:href="#DejaVuSans-2e" x="147.412109"/>
       <use xlink:href="#DejaVuSans-30" x="179.199219"/>
       <use xlink:href="#DejaVuSans-33" x="242.822266"/>
      </g>
     </g>
    </g>
    <g id="ytick_15">
     <g id="line2d_78">
      <path d="M 323.245017 262.772206 
L 521.786202 262.772206 
" clip-path="url(#p15257bf518)" style="fill: none; stroke-dasharray: 2.96,1.28; stroke-dashoffset: 0; stroke: #808080; stroke-width: 0.8"/>
     </g>
     <g id="line2d_79">
      <g>
       <use xlink:href="#m2dc09eee46" x="323.245017" y="262.772206" style="stroke: #000000; stroke-width: 0.8"/>
      </g>
     </g>
     <g id="text_43">
      <!-- −0.02 -->
      <g transform="translate(285.599705 266.571425) scale(0.1 -0.1)">
       <use xlink:href="#DejaVuSans-2212"/>
       <use xlink:href="#DejaVuSans-30" x="83.789062"/>
       <use xlink:href="#DejaVuSans-2e" x="147.412109"/>
       <use xlink:href="#DejaVuSans-30" x="179.199219"/>
       <use xlink:href="#DejaVuSans-32" x="242.822266"/>
      </g>
     </g>
    </g>
    <g id="ytick_16">
     <g id="line2d_80">
      <path d="M 323.245017 234.363438 
L 521.786202 234.363438 
" clip-path="url(#p15257bf518)" style="fill: none; stroke-dasharray: 2.96,1.28; stroke-dashoffset: 0; stroke: #808080; stroke-width: 0.8"/>
     </g>
     <g id="line2d_81">
      <g>
       <use xlink:href="#m2dc09eee46" x="323.245017" y="234.363438" style="stroke: #000000; stroke-width: 0.8"/>
      </g>
     </g>
     <g id="text_44">
      <!-- −0.01 -->
      <g transform="translate(285.599705 238.162657) scale(0.1 -0.1)">
       <use xlink:href="#DejaVuSans-2212"/>
       <use xlink:href="#DejaVuSans-30" x="83.789062"/>
       <use xlink:href="#DejaVuSans-2e" x="147.412109"/>
       <use xlink:href="#DejaVuSans-30" x="179.199219"/>
       <use xlink:href="#DejaVuSans-31" x="242.822266"/>
      </g>
     </g>
    </g>
    <g id="ytick_17">
     <g id="line2d_82">
      <path d="M 323.245017 205.95467 
L 521.786202 205.95467 
" clip-path="url(#p15257bf518)" style="fill: none; stroke-dasharray: 2.96,1.28; stroke-dashoffset: 0; stroke: #808080; stroke-width: 0.8"/>
     </g>
     <g id="line2d_83">
      <g>
       <use xlink:href="#m2dc09eee46" x="323.245017" y="205.95467" style="stroke: #000000; stroke-width: 0.8"/>
      </g>
     </g>
     <g id="text_45">
      <!-- 0.00 -->
      <g transform="translate(293.979392 209.753889) scale(0.1 -0.1)">
       <use xlink:href="#DejaVuSans-30"/>
       <use xlink:href="#DejaVuSans-2e" x="63.623047"/>
       <use xlink:href="#DejaVuSans-30" x="95.410156"/>
       <use xlink:href="#DejaVuSans-30" x="159.033203"/>
      </g>
     </g>
    </g>
    <g id="text_46">
     <!-- Radial stress $\sigma_r$ -->
     <g transform="translate(279.520017 314.093151) rotate(-90) scale(0.1 -0.1)">
      <use xlink:href="#DejaVuSans-52" transform="translate(0 0.015625)"/>
      <use xlink:href="#DejaVuSans-61" transform="translate(69.482422 0.015625)"/>
      <use xlink:href="#DejaVuSans-64" transform="translate(130.761719 0.015625)"/>
      <use xlink:href="#DejaVuSans-69" transform="translate(194.238281 0.015625)"/>
      <use xlink:href="#DejaVuSans-61" transform="translate(222.021484 0.015625)"/>
      <use xlink:href="#DejaVuSans-6c" transform="translate(283.300781 0.015625)"/>
      <use xlink:href="#DejaVuSans-20" transform="translate(311.083984 0.015625)"/>
      <use xlink:href="#DejaVuSans-73" transform="translate(342.871094 0.015625)"/>
      <use xlink:href="#DejaVuSans-74" transform="translate(394.970703 0.015625)"/>
      <use xlink:href="#DejaVuSans-72" transform="translate(434.179688 0.015625)"/>
      <use xlink:href="#DejaVuSans-65" transform="translate(475.292969 0.015625)"/>
      <use xlink:href="#DejaVuSans-73" transform="translate(536.816406 0.015625)"/>
      <use xlink:href="#DejaVuSans-73" transform="translate(588.916016 0.015625)"/>
      <use xlink:href="#DejaVuSans-20" transform="translate(641.015625 0.015625)"/>
      <use xlink:href="#DejaVuSans-Oblique-3c3" transform="translate(672.802734 0.015625)"/>
      <use xlink:href="#DejaVuSans-Oblique-72" transform="translate(736.181641 -16.390625) scale(0.7)"/>
     </g>
    </g>
   </g>
   <g id="line2d_84">
    <path d="M 332.269617 205.95467 
L 334.976996 225.36362 
L 337.684376 242.79074 
L 340.391756 258.388681 
L 343.099136 272.296966 
L 345.806516 284.643265 
L 348.513895 295.544539 
L 350.318815 302.062605 
L 352.123735 308.01587 
L 353.928655 313.432289 
L 355.733575 318.338292 
L 357.538495 322.758879 
L 359.343415 326.71771 
L 361.148334 330.237184 
L 362.953254 333.338514 
L 364.758174 336.041801 
L 366.563094 338.366097 
L 368.368014 340.329471 
L 370.172934 341.949062 
L 371.977854 343.241132 
L 373.782773 344.221124 
L 375.587693 344.9037 
L 377.392613 345.302789 
L 379.197533 345.431631 
L 381.002453 345.302811 
L 382.807373 344.928295 
L 384.612293 344.31947 
L 386.417212 343.487169 
L 388.222132 342.441704 
L 390.027052 341.192894 
L 391.831972 339.750093 
L 394.539352 337.241533 
L 397.246732 334.344771 
L 399.954111 331.08618 
L 402.661491 327.490328 
L 405.368871 323.580112 
L 408.978711 317.914182 
L 412.58855 311.7739 
L 417.10085 303.542974 
L 421.61315 295.558158 
L 426.125449 288.090041 
L 430.637749 281.097498 
L 435.150049 274.543265 
L 439.662348 268.393532 
L 444.174648 262.617569 
L 448.686948 257.187405 
L 453.199247 252.077545 
L 457.711547 247.264716 
L 462.223847 242.727645 
L 467.638606 237.619863 
L 473.053366 232.850639 
L 478.468125 228.392379 
L 483.882885 224.220148 
L 489.297645 220.311369 
L 494.712404 216.645573 
L 501.029624 212.651207 
L 507.346843 208.935675 
L 512.761603 205.95467 
L 512.761603 205.95467 
" clip-path="url(#p15257bf518)" style="fill: none; stroke: #1f77b4; stroke-width: 1.5; stroke-linecap: square"/>
   </g>
   <g id="line2d_85">
    <g clip-path="url(#p15257bf518)">
     <use xlink:href="#mc3fe65b7e3" x="338.534493" y="246.26103" style="fill-opacity: 0; stroke: #787878; stroke-linejoin: miter"/>
     <use xlink:href="#mc3fe65b7e3" x="338.740435" y="247.243974" style="fill-opacity: 0; stroke: #787878; stroke-linejoin: miter"/>
     <use xlink:href="#mc3fe65b7e3" x="355.044095" y="318.334075" style="fill-opacity: 0; stroke: #787878; stroke-linejoin: miter"/>
     <use xlink:href="#mc3fe65b7e3" x="355.354" y="319.365313" style="fill-opacity: 0; stroke: #787878; stroke-linejoin: miter"/>
     <use xlink:href="#mc3fe65b7e3" x="369.052439" y="340.973022" style="fill-opacity: 0; stroke: #787878; stroke-linejoin: miter"/>
     <use xlink:href="#mc3fe65b7e3" x="369.341949" y="341.109384" style="fill-opacity: 0; stroke: #787878; stroke-linejoin: miter"/>
     <use xlink:href="#mc3fe65b7e3" x="388.191268" y="342.046874" style="fill-opacity: 0; stroke: #787878; stroke-linejoin: miter"/>
     <use xlink:href="#mc3fe65b7e3" x="388.319057" y="341.975852" style="fill-opacity: 0; stroke: #787878; stroke-linejoin: miter"/>
     <use xlink:href="#mc3fe65b7e3" x="408.432722" y="316.700571" style="fill-opacity: 0; stroke: #787878; stroke-linejoin: miter"/>
     <use xlink:href="#mc3fe65b7e3" x="408.546252" y="316.527277" style="fill-opacity: 0; stroke: #787878; stroke-linejoin: miter"/>
     <use xlink:href="#mc3fe65b7e3" x="437.779276" y="273.434017" style="fill-opacity: 0; stroke: #787878; stroke-linejoin: miter"/>
     <use xlink:href="#mc3fe65b7e3" x="437.941899" y="273.206747" style="fill-opacity: 0; stroke: #787878; stroke-linejoin: miter"/>
     <use xlink:href="#mc3fe65b7e3" x="462.023862" y="244.650253" style="fill-opacity: 0; stroke: #787878; stroke-linejoin: miter"/>
     <use xlink:href="#mc3fe65b7e3" x="462.042994" y="244.633208" style="fill-opacity: 0; stroke: #787878; stroke-linejoin: miter"/>
     <use xlink:href="#mc3fe65b7e3" x="499.566556" y="213.511402" style="fill-opacity: 0; stroke: #787878; stroke-linejoin: miter"/>
     <use xlink:href="#mc3fe65b7e3" x="499.856967" y="213.281291" style="fill-opacity: 0; stroke: #787878; stroke-linejoin: miter"/>
    </g>
   </g>
   <g id="line2d_86">
    <g clip-path="url(#p15257bf518)">
     <use xlink:href="#maa12068ea7" x="338.348334" y="246.057554" style="stroke: #000000"/>
     <use xlink:href="#maa12068ea7" x="355.019319" y="317.149045" style="stroke: #000000"/>
     <use xlink:href="#maa12068ea7" x="368.748827" y="340.520871" style="stroke: #000000"/>
     <use xlink:href="#maa12068ea7" x="389.587558" y="341.680544" style="stroke: #000000"/>
     <use xlink:href="#maa12068ea7" x="407.893569" y="317.080373" style="stroke: #000000"/>
     <use xlink:href="#maa12068ea7" x="437.067792" y="273.675048" style="stroke: #000000"/>
     <use xlink:href="#maa12068ea7" x="461.475807" y="244.138792" style="stroke: #000000"/>
     <use xlink:href="#maa12068ea7" x="498.985522" y="213.999742" style="stroke: #000000"/>
    </g>
   </g>
   <g id="patch_14">
    <path d="M 323.245017 352.405479 
L 323.245017 198.980822 
" style="fill: none; stroke: #000000; stroke-width: 0.8; stroke-linejoin: miter; stroke-linecap: square"/>
   </g>
   <g id="patch_15">
    <path d="M 521.786202 352.405479 
L 521.786202 198.980822 
" style="fill: none; stroke: #000000; stroke-width: 0.8; stroke-linejoin: miter; stroke-linecap: square"/>
   </g>
   <g id="patch_16">
    <path d="M 323.245017 352.405479 
L 521.786202 352.405479 
" style="fill: none; stroke: #000000; stroke-width: 0.8; stroke-linejoin: miter; stroke-linecap: square"/>
   </g>
   <g id="patch_17">
    <path d="M 323.245017 198.980822 
L 521.786202 198.980822 
" style="fill: none; stroke: #000000; stroke-width: 0.8; stroke-linejoin: miter; stroke-linecap: square"/>
   </g>
  </g>
  <g id="axes_4">
   <g id="line2d_87">
    <path d="M 389.425412 314.049315 
" clip-path="url(#p989bf26fb8)" style="fill: none; stroke: #1f77b4; stroke-width: 1.5; stroke-linecap: square"/>
   </g>
   <g id="line2d_88"/>
   <g id="line2d_89">
    <g clip-path="url(#p989bf26fb8)">
     <use xlink:href="#maa12068ea7" x="389.425412" y="314.049315" style="stroke: #000000"/>
    </g>
   </g>
   <g id="line2d_90">
    <g clip-path="url(#p989bf26fb8)">
     <use xlink:href="#mc3fe65b7e3" x="389.425412" y="314.049315" style="fill-opacity: 0; stroke: #787878; stroke-linejoin: miter"/>
    </g>
   </g>
   <g id="legend_2">
    <g id="patch_18">
     <path d="M 424.51561 183.638356 
L 513.168163 183.638356 
Q 515.168163 183.638356 515.168163 181.638356 
L 515.168163 123.925856 
Q 515.168163 121.925856 513.168163 121.925856 
L 424.51561 121.925856 
Q 422.51561 121.925856 422.51561 123.925856 
L 422.51561 181.638356 
Q 422.51561 183.638356 424.51561 183.638356 
z
" style="fill: #ffffff; opacity: 0.8; stroke: #cccccc; stroke-linejoin: miter"/>
    </g>
    <g id="line2d_91">
     <path d="M 426.51561 130.024294 
L 439.01561 130.024294 
L 451.51561 130.024294 
" style="fill: none; stroke: #1f77b4; stroke-width: 1.5; stroke-linecap: square"/>
    </g>
    <g id="text_47">
     <!--  $P_{max} = 0.28$ -->
     <g transform="translate(452.01561 133.524294) scale(0.1 -0.1)">
      <defs>
       <path id="DejaVuSans-Oblique-6d" d="M 5747 2113 
L 5338 0 
L 4763 0 
L 5166 2094 
Q 5191 2228 5203 2325 
Q 5216 2422 5216 2491 
Q 5216 2772 5059 2928 
Q 4903 3084 4622 3084 
Q 4203 3084 3875 2770 
Q 3547 2456 3450 1953 
L 3066 0 
L 2491 0 
L 2900 2094 
Q 2925 2209 2937 2307 
Q 2950 2406 2950 2484 
Q 2950 2769 2794 2926 
Q 2638 3084 2363 3084 
Q 1938 3084 1609 2770 
Q 1281 2456 1184 1953 
L 800 0 
L 225 0 
L 909 3500 
L 1484 3500 
L 1375 2956 
Q 1609 3263 1923 3423 
Q 2238 3584 2597 3584 
Q 2978 3584 3223 3384 
Q 3469 3184 3519 2828 
Q 3781 3197 4126 3390 
Q 4472 3584 4856 3584 
Q 5306 3584 5551 3325 
Q 5797 3066 5797 2591 
Q 5797 2488 5784 2364 
Q 5772 2241 5747 2113 
z
" transform="scale(0.015625)"/>
       <path id="DejaVuSans-Oblique-61" d="M 3438 1997 
L 3047 0 
L 2472 0 
L 2578 531 
Q 2325 219 2001 64 
Q 1678 -91 1281 -91 
Q 834 -91 548 182 
Q 263 456 263 884 
Q 263 1497 752 1853 
Q 1241 2209 2100 2209 
L 2900 2209 
L 2931 2363 
Q 2938 2388 2941 2417 
Q 2944 2447 2944 2509 
Q 2944 2788 2717 2942 
Q 2491 3097 2081 3097 
Q 1800 3097 1504 3025 
Q 1209 2953 897 2809 
L 997 3341 
Q 1322 3463 1633 3523 
Q 1944 3584 2234 3584 
Q 2853 3584 3176 3315 
Q 3500 3047 3500 2534 
Q 3500 2431 3484 2292 
Q 3469 2153 3438 1997 
z
M 2816 1759 
L 2241 1759 
Q 1534 1759 1195 1570 
Q 856 1381 856 984 
Q 856 709 1029 553 
Q 1203 397 1509 397 
Q 1978 397 2328 733 
Q 2678 1069 2791 1631 
L 2816 1759 
z
" transform="scale(0.015625)"/>
       <path id="DejaVuSans-Oblique-78" d="M 3841 3500 
L 2234 1784 
L 3219 0 
L 2559 0 
L 1819 1388 
L 531 0 
L -166 0 
L 1556 1844 
L 641 3500 
L 1300 3500 
L 1972 2234 
L 3144 3500 
L 3841 3500 
z
" transform="scale(0.015625)"/>
       <path id="DejaVuSans-3d" d="M 678 2906 
L 4684 2906 
L 4684 2381 
L 678 2381 
L 678 2906 
z
M 678 1631 
L 4684 1631 
L 4684 1100 
L 678 1100 
L 678 1631 
z
" transform="scale(0.015625)"/>
      </defs>
      <use xlink:href="#DejaVuSans-20" transform="translate(0 0.78125)"/>
      <use xlink:href="#DejaVuSans-Oblique-50" transform="translate(31.787109 0.78125)"/>
      <use xlink:href="#DejaVuSans-Oblique-6d" transform="translate(92.089844 -15.625) scale(0.7)"/>
      <use xlink:href="#DejaVuSans-Oblique-61" transform="translate(160.27832 -15.625) scale(0.7)"/>
      <use xlink:href="#DejaVuSans-Oblique-78" transform="translate(203.173828 -15.625) scale(0.7)"/>
      <use xlink:href="#DejaVuSans-3d" transform="translate(266.816406 0.78125)"/>
      <use xlink:href="#DejaVuSans-30" transform="translate(370.087891 0.78125)"/>
      <use xlink:href="#DejaVuSans-2e" transform="translate(433.710938 0.78125)"/>
      <use xlink:href="#DejaVuSans-32" transform="translate(459.998047 0.78125)"/>
      <use xlink:href="#DejaVuSans-38" transform="translate(523.621094 0.78125)"/>
     </g>
    </g>
    <g id="line2d_92"/>
    <g id="text_48">
     <!--  $P = 0$ -->
     <g transform="translate(452.01561 148.202419) scale(0.1 -0.1)">
      <use xlink:href="#DejaVuSans-20" transform="translate(0 0.78125)"/>
      <use xlink:href="#DejaVuSans-Oblique-50" transform="translate(31.787109 0.78125)"/>
      <use xlink:href="#DejaVuSans-3d" transform="translate(111.572266 0.78125)"/>
      <use xlink:href="#DejaVuSans-30" transform="translate(214.84375 0.78125)"/>
     </g>
    </g>
    <g id="line2d_93">
     <g>
      <use xlink:href="#maa12068ea7" x="439.01561" y="159.380544" style="stroke: #000000"/>
     </g>
    </g>
    <g id="text_49">
     <!-- numerical -->
     <g transform="translate(452.01561 162.880544) scale(0.1 -0.1)">
      <use xlink:href="#DejaVuSans-6e"/>
      <use xlink:href="#DejaVuSans-75" x="63.378906"/>
      <use xlink:href="#DejaVuSans-6d" x="126.757812"/>
      <use xlink:href="#DejaVuSans-65" x="224.169922"/>
      <use xlink:href="#DejaVuSans-72" x="285.693359"/>
      <use xlink:href="#DejaVuSans-69" x="326.806641"/>
      <use xlink:href="#DejaVuSans-63" x="354.589844"/>
      <use xlink:href="#DejaVuSans-61" x="409.570312"/>
      <use xlink:href="#DejaVuSans-6c" x="470.849609"/>
     </g>
    </g>
    <g id="line2d_94">
     <g>
      <use xlink:href="#mc3fe65b7e3" x="439.01561" y="174.058669" style="fill-opacity: 0; stroke: #787878; stroke-linejoin: miter"/>
     </g>
    </g>
    <g id="text_50">
     <!-- SPO -->
     <g transform="translate(452.01561 177.558669) scale(0.1 -0.1)">
      <defs>
       <path id="DejaVuSans-53" d="M 3425 4513 
L 3425 3897 
Q 3066 4069 2747 4153 
Q 2428 4238 2131 4238 
Q 1616 4238 1336 4038 
Q 1056 3838 1056 3469 
Q 1056 3159 1242 3001 
Q 1428 2844 1947 2747 
L 2328 2669 
Q 3034 2534 3370 2195 
Q 3706 1856 3706 1288 
Q 3706 609 3251 259 
Q 2797 -91 1919 -91 
Q 1588 -91 1214 -16 
Q 841 59 441 206 
L 441 856 
Q 825 641 1194 531 
Q 1563 422 1919 422 
Q 2459 422 2753 634 
Q 3047 847 3047 1241 
Q 3047 1584 2836 1778 
Q 2625 1972 2144 2069 
L 1759 2144 
Q 1053 2284 737 2584 
Q 422 2884 422 3419 
Q 422 4038 858 4394 
Q 1294 4750 2059 4750 
Q 2388 4750 2728 4690 
Q 3069 4631 3425 4513 
z
" transform="scale(0.015625)"/>
       <path id="DejaVuSans-50" d="M 1259 4147 
L 1259 2394 
L 2053 2394 
Q 2494 2394 2734 2622 
Q 2975 2850 2975 3272 
Q 2975 3691 2734 3919 
Q 2494 4147 2053 4147 
L 1259 4147 
z
M 628 4666 
L 2053 4666 
Q 2838 4666 3239 4311 
Q 3641 3956 3641 3272 
Q 3641 2581 3239 2228 
Q 2838 1875 2053 1875 
L 1259 1875 
L 1259 0 
L 628 0 
L 628 4666 
z
" transform="scale(0.015625)"/>
       <path id="DejaVuSans-4f" d="M 2522 4238 
Q 1834 4238 1429 3725 
Q 1025 3213 1025 2328 
Q 1025 1447 1429 934 
Q 1834 422 2522 422 
Q 3209 422 3611 934 
Q 4013 1447 4013 2328 
Q 4013 3213 3611 3725 
Q 3209 4238 2522 4238 
z
M 2522 4750 
Q 3503 4750 4090 4092 
Q 4678 3434 4678 2328 
Q 4678 1225 4090 567 
Q 3503 -91 2522 -91 
Q 1538 -91 948 565 
Q 359 1222 359 2328 
Q 359 3434 948 4092 
Q 1538 4750 2522 4750 
z
" transform="scale(0.015625)"/>
      </defs>
      <use xlink:href="#DejaVuSans-53"/>
      <use xlink:href="#DejaVuSans-50" x="63.476562"/>
      <use xlink:href="#DejaVuSans-4f" x="123.779297"/>
     </g>
    </g>
   </g>
  </g>
 </g>
 <defs>
  <clipPath id="pf74bffadda">
   <rect x="58.523438" y="7.2" width="330.901975" height="153.424658"/>
  </clipPath>
  <clipPath id="pa3d42fa222">
   <rect x="58.523438" y="198.980822" width="198.541185" height="153.424658"/>
  </clipPath>
  <clipPath id="p15257bf518">
   <rect x="323.245017" y="198.980822" width="198.541185" height="153.424658"/>
  </clipPath>
  <clipPath id="p989bf26fb8">
   <rect x="455.605807" y="7.2" width="66.180395" height="153.424658"/>
  </clipPath>
 </defs>
</svg>
