<?xml version="1.0" encoding="utf-8" standalone="no"?>
<!DOCTYPE svg PUBLIC "-//W3C//DTD SVG 1.1//EN"
  "http://www.w3.org/Graphics/SVG/1.1/DTD/svg11.dtd">
<svg xmlns:xlink="http://www.w3.org/1999/xlink" width="359.850878pt" height="508.829441pt" viewBox="0 0 359.850878 508.829441" xmlns="http://www.w3.org/2000/svg" version="1.1">
 <metadata>
  <rdf:RDF xmlns:dc="http://purl.org/dc/elements/1.1/" xmlns:cc="http://creativecommons.org/ns#" xmlns:rdf="http://www.w3.org/1999/02/22-rdf-syntax-ns#">
   <cc:Work>
    <dc:type rdf:resource="http://purl.org/dc/dcmitype/StillImage"/>
    <dc:date>2023-09-13T09:24:33.085135</dc:date>
    <dc:format>image/svg+xml</dc:format>
    <dc:creator>
     <cc:Agent>
      <dc:title>Matplotlib v3.5.2, https://matplotlib.org/</dc:title>
     </cc:Agent>
    </dc:creator>
   </cc:Work>
  </rdf:RDF>
 </metadata>
 <defs>
  <style type="text/css">*{stroke-linejoin: round; stroke-linecap: butt}</style>
 </defs>
 <g id="figure_1">
  <g id="patch_1">
   <path d="M 0 508.829441 
L 359.850878 508.829441 
L 359.850878 0 
L 0 0 
z
" style="fill: #ffffff"/>
  </g>
  <g id="axes_1">
   <g id="patch_2">
    <path d="M 42.620313 471.273191 
L 349.469628 471.273191 
L 349.469628 10.999219 
L 42.620313 10.999219 
z
" style="fill: #ffffff"/>
   </g>
   <g id="matplotlib.axis_1">
    <g id="xtick_1">
     <g id="line2d_1">
      <path d="M 42.620313 471.273191 
L 42.620313 10.999219 
" clip-path="url(#p4ff3147ef5)" style="fill: none; stroke-dasharray: 2.96,1.28; stroke-dashoffset: 0; stroke: #808080; stroke-width: 0.8"/>
     </g>
     <g id="line2d_2">
      <defs>
       <path id="me9eb4e324c" d="M 0 0 
L 0 3.5 
" style="stroke: #000000; stroke-width: 0.8"/>
      </defs>
      <g>
       <use xlink:href="#me9eb4e324c" x="42.620313" y="471.273191" style="stroke: #000000; stroke-width: 0.8"/>
      </g>
     </g>
     <g id="text_1">
      <!-- 0 -->
      <g transform="translate(39.439063 485.871629)scale(0.1 -0.1)">
       <defs>
        <path id="DejaVuSans-30" d="M 2034 4250 
Q 1547 4250 1301 3770 
Q 1056 3291 1056 2328 
Q 1056 1369 1301 889 
Q 1547 409 2034 409 
Q 2525 409 2770 889 
Q 3016 1369 3016 2328 
Q 3016 3291 2770 3770 
Q 2525 4250 2034 4250 
z
M 2034 4750 
Q 2819 4750 3233 4129 
Q 3647 3509 3647 2328 
Q 3647 1150 3233 529 
Q 2819 -91 2034 -91 
Q 1250 -91 836 529 
Q 422 1150 422 2328 
Q 422 3509 836 4129 
Q 1250 4750 2034 4750 
z
" transform="scale(0.015625)"/>
       </defs>
       <use xlink:href="#DejaVuSans-30"/>
      </g>
     </g>
    </g>
    <g id="xtick_2">
     <g id="line2d_3">
      <path d="M 93.761865 471.273191 
L 93.761865 10.999219 
" clip-path="url(#p4ff3147ef5)" style="fill: none; stroke-dasharray: 2.96,1.28; stroke-dashoffset: 0; stroke: #808080; stroke-width: 0.8"/>
     </g>
     <g id="line2d_4">
      <g>
       <use xlink:href="#me9eb4e324c" x="93.761865" y="471.273191" style="stroke: #000000; stroke-width: 0.8"/>
      </g>
     </g>
     <g id="text_2">
      <!-- 1 -->
      <g transform="translate(90.580615 485.871629)scale(0.1 -0.1)">
       <defs>
        <path id="DejaVuSans-31" d="M 794 531 
L 1825 531 
L 1825 4091 
L 703 3866 
L 703 4441 
L 1819 4666 
L 2450 4666 
L 2450 531 
L 3481 531 
L 3481 0 
L 794 0 
L 794 531 
z
" transform="scale(0.015625)"/>
       </defs>
       <use xlink:href="#DejaVuSans-31"/>
      </g>
     </g>
    </g>
    <g id="xtick_3">
     <g id="line2d_5">
      <path d="M 144.903418 471.273191 
L 144.903418 10.999219 
" clip-path="url(#p4ff3147ef5)" style="fill: none; stroke-dasharray: 2.96,1.28; stroke-dashoffset: 0; stroke: #808080; stroke-width: 0.8"/>
     </g>
     <g id="line2d_6">
      <g>
       <use xlink:href="#me9eb4e324c" x="144.903418" y="471.273191" style="stroke: #000000; stroke-width: 0.8"/>
      </g>
     </g>
     <g id="text_3">
      <!-- 2 -->
      <g transform="translate(141.722168 485.871629)scale(0.1 -0.1)">
       <defs>
        <path id="DejaVuSans-32" d="M 1228 531 
L 3431 531 
L 3431 0 
L 469 0 
L 469 531 
Q 828 903 1448 1529 
Q 2069 2156 2228 2338 
Q 2531 2678 2651 2914 
Q 2772 3150 2772 3378 
Q 2772 3750 2511 3984 
Q 2250 4219 1831 4219 
Q 1534 4219 1204 4116 
Q 875 4013 500 3803 
L 500 4441 
Q 881 4594 1212 4672 
Q 1544 4750 1819 4750 
Q 2544 4750 2975 4387 
Q 3406 4025 3406 3419 
Q 3406 3131 3298 2873 
Q 3191 2616 2906 2266 
Q 2828 2175 2409 1742 
Q 1991 1309 1228 531 
z
" transform="scale(0.015625)"/>
       </defs>
       <use xlink:href="#DejaVuSans-32"/>
      </g>
     </g>
    </g>
    <g id="xtick_4">
     <g id="line2d_7">
      <path d="M 196.04497 471.273191 
L 196.04497 10.999219 
" clip-path="url(#p4ff3147ef5)" style="fill: none; stroke-dasharray: 2.96,1.28; stroke-dashoffset: 0; stroke: #808080; stroke-width: 0.8"/>
     </g>
     <g id="line2d_8">
      <g>
       <use xlink:href="#me9eb4e324c" x="196.04497" y="471.273191" style="stroke: #000000; stroke-width: 0.8"/>
      </g>
     </g>
     <g id="text_4">
      <!-- 3 -->
      <g transform="translate(192.86372 485.871629)scale(0.1 -0.1)">
       <defs>
        <path id="DejaVuSans-33" d="M 2597 2516 
Q 3050 2419 3304 2112 
Q 3559 1806 3559 1356 
Q 3559 666 3084 287 
Q 2609 -91 1734 -91 
Q 1441 -91 1130 -33 
Q 819 25 488 141 
L 488 750 
Q 750 597 1062 519 
Q 1375 441 1716 441 
Q 2309 441 2620 675 
Q 2931 909 2931 1356 
Q 2931 1769 2642 2001 
Q 2353 2234 1838 2234 
L 1294 2234 
L 1294 2753 
L 1863 2753 
Q 2328 2753 2575 2939 
Q 2822 3125 2822 3475 
Q 2822 3834 2567 4026 
Q 2313 4219 1838 4219 
Q 1578 4219 1281 4162 
Q 984 4106 628 3988 
L 628 4550 
Q 988 4650 1302 4700 
Q 1616 4750 1894 4750 
Q 2613 4750 3031 4423 
Q 3450 4097 3450 3541 
Q 3450 3153 3228 2886 
Q 3006 2619 2597 2516 
z
" transform="scale(0.015625)"/>
       </defs>
       <use xlink:href="#DejaVuSans-33"/>
      </g>
     </g>
    </g>
    <g id="xtick_5">
     <g id="line2d_9">
      <path d="M 247.186523 471.273191 
L 247.186523 10.999219 
" clip-path="url(#p4ff3147ef5)" style="fill: none; stroke-dasharray: 2.96,1.28; stroke-dashoffset: 0; stroke: #808080; stroke-width: 0.8"/>
     </g>
     <g id="line2d_10">
      <g>
       <use xlink:href="#me9eb4e324c" x="247.186523" y="471.273191" style="stroke: #000000; stroke-width: 0.8"/>
      </g>
     </g>
     <g id="text_5">
      <!-- 4 -->
      <g transform="translate(244.005273 485.871629)scale(0.1 -0.1)">
       <defs>
        <path id="DejaVuSans-34" d="M 2419 4116 
L 825 1625 
L 2419 1625 
L 2419 4116 
z
M 2253 4666 
L 3047 4666 
L 3047 1625 
L 3713 1625 
L 3713 1100 
L 3047 1100 
L 3047 0 
L 2419 0 
L 2419 1100 
L 313 1100 
L 313 1709 
L 2253 4666 
z
" transform="scale(0.015625)"/>
       </defs>
       <use xlink:href="#DejaVuSans-34"/>
      </g>
     </g>
    </g>
    <g id="xtick_6">
     <g id="line2d_11">
      <path d="M 298.328075 471.273191 
L 298.328075 10.999219 
" clip-path="url(#p4ff3147ef5)" style="fill: none; stroke-dasharray: 2.96,1.28; stroke-dashoffset: 0; stroke: #808080; stroke-width: 0.8"/>
     </g>
     <g id="line2d_12">
      <g>
       <use xlink:href="#me9eb4e324c" x="298.328075" y="471.273191" style="stroke: #000000; stroke-width: 0.8"/>
      </g>
     </g>
     <g id="text_6">
      <!-- 5 -->
      <g transform="translate(295.146825 485.871629)scale(0.1 -0.1)">
       <defs>
        <path id="DejaVuSans-35" d="M 691 4666 
L 3169 4666 
L 3169 4134 
L 1269 4134 
L 1269 2991 
Q 1406 3038 1543 3061 
Q 1681 3084 1819 3084 
Q 2600 3084 3056 2656 
Q 3513 2228 3513 1497 
Q 3513 744 3044 326 
Q 2575 -91 1722 -91 
Q 1428 -91 1123 -41 
Q 819 9 494 109 
L 494 744 
Q 775 591 1075 516 
Q 1375 441 1709 441 
Q 2250 441 2565 725 
Q 2881 1009 2881 1497 
Q 2881 1984 2565 2268 
Q 2250 2553 1709 2553 
Q 1456 2553 1204 2497 
Q 953 2441 691 2322 
L 691 4666 
z
" transform="scale(0.015625)"/>
       </defs>
       <use xlink:href="#DejaVuSans-35"/>
      </g>
     </g>
    </g>
    <g id="xtick_7">
     <g id="line2d_13">
      <path d="M 349.469628 471.273191 
L 349.469628 10.999219 
" clip-path="url(#p4ff3147ef5)" style="fill: none; stroke-dasharray: 2.96,1.28; stroke-dashoffset: 0; stroke: #808080; stroke-width: 0.8"/>
     </g>
     <g id="line2d_14">
      <g>
       <use xlink:href="#me9eb4e324c" x="349.469628" y="471.273191" style="stroke: #000000; stroke-width: 0.8"/>
      </g>
     </g>
     <g id="text_7">
      <!-- 6 -->
      <g transform="translate(346.288378 485.871629)scale(0.1 -0.1)">
       <defs>
        <path id="DejaVuSans-36" d="M 2113 2584 
Q 1688 2584 1439 2293 
Q 1191 2003 1191 1497 
Q 1191 994 1439 701 
Q 1688 409 2113 409 
Q 2538 409 2786 701 
Q 3034 994 3034 1497 
Q 3034 2003 2786 2293 
Q 2538 2584 2113 2584 
z
M 3366 4563 
L 3366 3988 
Q 3128 4100 2886 4159 
Q 2644 4219 2406 4219 
Q 1781 4219 1451 3797 
Q 1122 3375 1075 2522 
Q 1259 2794 1537 2939 
Q 1816 3084 2150 3084 
Q 2853 3084 3261 2657 
Q 3669 2231 3669 1497 
Q 3669 778 3244 343 
Q 2819 -91 2113 -91 
Q 1303 -91 875 529 
Q 447 1150 447 2328 
Q 447 3434 972 4092 
Q 1497 4750 2381 4750 
Q 2619 4750 2861 4703 
Q 3103 4656 3366 4563 
z
" transform="scale(0.015625)"/>
       </defs>
       <use xlink:href="#DejaVuSans-36"/>
      </g>
     </g>
    </g>
    <g id="text_8">
     <!-- x -->
     <g transform="translate(193.085595 499.549754)scale(0.1 -0.1)">
      <defs>
       <path id="DejaVuSans-78" d="M 3513 3500 
L 2247 1797 
L 3578 0 
L 2900 0 
L 1881 1375 
L 863 0 
L 184 0 
L 1544 1831 
L 300 3500 
L 978 3500 
L 1906 2253 
L 2834 3500 
L 3513 3500 
z
" transform="scale(0.015625)"/>
      </defs>
      <use xlink:href="#DejaVuSans-78"/>
     </g>
    </g>
   </g>
   <g id="matplotlib.axis_2">
    <g id="ytick_1">
     <g id="line2d_15">
      <path d="M 42.620313 471.273191 
L 349.469628 471.273191 
" clip-path="url(#p4ff3147ef5)" style="fill: none; stroke-dasharray: 2.96,1.28; stroke-dashoffset: 0; stroke: #808080; stroke-width: 0.8"/>
     </g>
     <g id="line2d_16">
      <defs>
       <path id="m3373b13746" d="M 0 0 
L -3.5 0 
" style="stroke: #000000; stroke-width: 0.8"/>
      </defs>
      <g>
       <use xlink:href="#m3373b13746" x="42.620313" y="471.273191" style="stroke: #000000; stroke-width: 0.8"/>
      </g>
     </g>
     <g id="text_9">
      <!-- −9 -->
      <g transform="translate(20.878125 475.07241)scale(0.1 -0.1)">
       <defs>
        <path id="DejaVuSans-2212" d="M 678 2272 
L 4684 2272 
L 4684 1741 
L 678 1741 
L 678 2272 
z
" transform="scale(0.015625)"/>
        <path id="DejaVuSans-39" d="M 703 97 
L 703 672 
Q 941 559 1184 500 
Q 1428 441 1663 441 
Q 2288 441 2617 861 
Q 2947 1281 2994 2138 
Q 2813 1869 2534 1725 
Q 2256 1581 1919 1581 
Q 1219 1581 811 2004 
Q 403 2428 403 3163 
Q 403 3881 828 4315 
Q 1253 4750 1959 4750 
Q 2769 4750 3195 4129 
Q 3622 3509 3622 2328 
Q 3622 1225 3098 567 
Q 2575 -91 1691 -91 
Q 1453 -91 1209 -44 
Q 966 3 703 97 
z
M 1959 2075 
Q 2384 2075 2632 2365 
Q 2881 2656 2881 3163 
Q 2881 3666 2632 3958 
Q 2384 4250 1959 4250 
Q 1534 4250 1286 3958 
Q 1038 3666 1038 3163 
Q 1038 2656 1286 2365 
Q 1534 2075 1959 2075 
z
" transform="scale(0.015625)"/>
       </defs>
       <use xlink:href="#DejaVuSans-2212"/>
       <use xlink:href="#DejaVuSans-39" x="83.789062"/>
      </g>
     </g>
    </g>
    <g id="ytick_2">
     <g id="line2d_17">
      <path d="M 42.620313 420.131639 
L 349.469628 420.131639 
" clip-path="url(#p4ff3147ef5)" style="fill: none; stroke-dasharray: 2.96,1.28; stroke-dashoffset: 0; stroke: #808080; stroke-width: 0.8"/>
     </g>
     <g id="line2d_18">
      <g>
       <use xlink:href="#m3373b13746" x="42.620313" y="420.131639" style="stroke: #000000; stroke-width: 0.8"/>
      </g>
     </g>
     <g id="text_10">
      <!-- −8 -->
      <g transform="translate(20.878125 423.930858)scale(0.1 -0.1)">
       <defs>
        <path id="DejaVuSans-38" d="M 2034 2216 
Q 1584 2216 1326 1975 
Q 1069 1734 1069 1313 
Q 1069 891 1326 650 
Q 1584 409 2034 409 
Q 2484 409 2743 651 
Q 3003 894 3003 1313 
Q 3003 1734 2745 1975 
Q 2488 2216 2034 2216 
z
M 1403 2484 
Q 997 2584 770 2862 
Q 544 3141 544 3541 
Q 544 4100 942 4425 
Q 1341 4750 2034 4750 
Q 2731 4750 3128 4425 
Q 3525 4100 3525 3541 
Q 3525 3141 3298 2862 
Q 3072 2584 2669 2484 
Q 3125 2378 3379 2068 
Q 3634 1759 3634 1313 
Q 3634 634 3220 271 
Q 2806 -91 2034 -91 
Q 1263 -91 848 271 
Q 434 634 434 1313 
Q 434 1759 690 2068 
Q 947 2378 1403 2484 
z
M 1172 3481 
Q 1172 3119 1398 2916 
Q 1625 2713 2034 2713 
Q 2441 2713 2670 2916 
Q 2900 3119 2900 3481 
Q 2900 3844 2670 4047 
Q 2441 4250 2034 4250 
Q 1625 4250 1398 4047 
Q 1172 3844 1172 3481 
z
" transform="scale(0.015625)"/>
       </defs>
       <use xlink:href="#DejaVuSans-2212"/>
       <use xlink:href="#DejaVuSans-38" x="83.789062"/>
      </g>
     </g>
    </g>
    <g id="ytick_3">
     <g id="line2d_19">
      <path d="M 42.620313 368.990086 
L 349.469628 368.990086 
" clip-path="url(#p4ff3147ef5)" style="fill: none; stroke-dasharray: 2.96,1.28; stroke-dashoffset: 0; stroke: #808080; stroke-width: 0.8"/>
     </g>
     <g id="line2d_20">
      <g>
       <use xlink:href="#m3373b13746" x="42.620313" y="368.990086" style="stroke: #000000; stroke-width: 0.8"/>
      </g>
     </g>
     <g id="text_11">
      <!-- −7 -->
      <g transform="translate(20.878125 372.789305)scale(0.1 -0.1)">
       <defs>
        <path id="DejaVuSans-37" d="M 525 4666 
L 3525 4666 
L 3525 4397 
L 1831 0 
L 1172 0 
L 2766 4134 
L 525 4134 
L 525 4666 
z
" transform="scale(0.015625)"/>
       </defs>
       <use xlink:href="#DejaVuSans-2212"/>
       <use xlink:href="#DejaVuSans-37" x="83.789062"/>
      </g>
     </g>
    </g>
    <g id="ytick_4">
     <g id="line2d_21">
      <path d="M 42.620313 317.848534 
L 349.469628 317.848534 
" clip-path="url(#p4ff3147ef5)" style="fill: none; stroke-dasharray: 2.96,1.28; stroke-dashoffset: 0; stroke: #808080; stroke-width: 0.8"/>
     </g>
     <g id="line2d_22">
      <g>
       <use xlink:href="#m3373b13746" x="42.620313" y="317.848534" style="stroke: #000000; stroke-width: 0.8"/>
      </g>
     </g>
     <g id="text_12">
      <!-- −6 -->
      <g transform="translate(20.878125 321.647753)scale(0.1 -0.1)">
       <use xlink:href="#DejaVuSans-2212"/>
       <use xlink:href="#DejaVuSans-36" x="83.789062"/>
      </g>
     </g>
    </g>
    <g id="ytick_5">
     <g id="line2d_23">
      <path d="M 42.620313 266.706981 
L 349.469628 266.706981 
" clip-path="url(#p4ff3147ef5)" style="fill: none; stroke-dasharray: 2.96,1.28; stroke-dashoffset: 0; stroke: #808080; stroke-width: 0.8"/>
     </g>
     <g id="line2d_24">
      <g>
       <use xlink:href="#m3373b13746" x="42.620313" y="266.706981" style="stroke: #000000; stroke-width: 0.8"/>
      </g>
     </g>
     <g id="text_13">
      <!-- −5 -->
      <g transform="translate(20.878125 270.5062)scale(0.1 -0.1)">
       <use xlink:href="#DejaVuSans-2212"/>
       <use xlink:href="#DejaVuSans-35" x="83.789062"/>
      </g>
     </g>
    </g>
    <g id="ytick_6">
     <g id="line2d_25">
      <path d="M 42.620313 215.565429 
L 349.469628 215.565429 
" clip-path="url(#p4ff3147ef5)" style="fill: none; stroke-dasharray: 2.96,1.28; stroke-dashoffset: 0; stroke: #808080; stroke-width: 0.8"/>
     </g>
     <g id="line2d_26">
      <g>
       <use xlink:href="#m3373b13746" x="42.620313" y="215.565429" style="stroke: #000000; stroke-width: 0.8"/>
      </g>
     </g>
     <g id="text_14">
      <!-- −4 -->
      <g transform="translate(20.878125 219.364648)scale(0.1 -0.1)">
       <use xlink:href="#DejaVuSans-2212"/>
       <use xlink:href="#DejaVuSans-34" x="83.789062"/>
      </g>
     </g>
    </g>
    <g id="ytick_7">
     <g id="line2d_27">
      <path d="M 42.620313 164.423876 
L 349.469628 164.423876 
" clip-path="url(#p4ff3147ef5)" style="fill: none; stroke-dasharray: 2.96,1.28; stroke-dashoffset: 0; stroke: #808080; stroke-width: 0.8"/>
     </g>
     <g id="line2d_28">
      <g>
       <use xlink:href="#m3373b13746" x="42.620313" y="164.423876" style="stroke: #000000; stroke-width: 0.8"/>
      </g>
     </g>
     <g id="text_15">
      <!-- −3 -->
      <g transform="translate(20.878125 168.223095)scale(0.1 -0.1)">
       <use xlink:href="#DejaVuSans-2212"/>
       <use xlink:href="#DejaVuSans-33" x="83.789062"/>
      </g>
     </g>
    </g>
    <g id="ytick_8">
     <g id="line2d_29">
      <path d="M 42.620313 113.282324 
L 349.469628 113.282324 
" clip-path="url(#p4ff3147ef5)" style="fill: none; stroke-dasharray: 2.96,1.28; stroke-dashoffset: 0; stroke: #808080; stroke-width: 0.8"/>
     </g>
     <g id="line2d_30">
      <g>
       <use xlink:href="#m3373b13746" x="42.620313" y="113.282324" style="stroke: #000000; stroke-width: 0.8"/>
      </g>
     </g>
     <g id="text_16">
      <!-- −2 -->
      <g transform="translate(20.878125 117.081543)scale(0.1 -0.1)">
       <use xlink:href="#DejaVuSans-2212"/>
       <use xlink:href="#DejaVuSans-32" x="83.789062"/>
      </g>
     </g>
    </g>
    <g id="ytick_9">
     <g id="line2d_31">
      <path d="M 42.620313 62.140771 
L 349.469628 62.140771 
" clip-path="url(#p4ff3147ef5)" style="fill: none; stroke-dasharray: 2.96,1.28; stroke-dashoffset: 0; stroke: #808080; stroke-width: 0.8"/>
     </g>
     <g id="line2d_32">
      <g>
       <use xlink:href="#m3373b13746" x="42.620313" y="62.140771" style="stroke: #000000; stroke-width: 0.8"/>
      </g>
     </g>
     <g id="text_17">
      <!-- −1 -->
      <g transform="translate(20.878125 65.93999)scale(0.1 -0.1)">
       <use xlink:href="#DejaVuSans-2212"/>
       <use xlink:href="#DejaVuSans-31" x="83.789062"/>
      </g>
     </g>
    </g>
    <g id="ytick_10">
     <g id="line2d_33">
      <path d="M 42.620313 10.999219 
L 349.469628 10.999219 
" clip-path="url(#p4ff3147ef5)" style="fill: none; stroke-dasharray: 2.96,1.28; stroke-dashoffset: 0; stroke: #808080; stroke-width: 0.8"/>
     </g>
     <g id="line2d_34">
      <g>
       <use xlink:href="#m3373b13746" x="42.620313" y="10.999219" style="stroke: #000000; stroke-width: 0.8"/>
      </g>
     </g>
     <g id="text_18">
      <!-- 0 -->
      <g transform="translate(29.257813 14.798437)scale(0.1 -0.1)">
       <use xlink:href="#DejaVuSans-30"/>
      </g>
     </g>
    </g>
    <g id="text_19">
     <!-- y -->
     <g transform="translate(14.798438 244.09558)rotate(-90)scale(0.1 -0.1)">
      <defs>
       <path id="DejaVuSans-79" d="M 2059 -325 
Q 1816 -950 1584 -1140 
Q 1353 -1331 966 -1331 
L 506 -1331 
L 506 -850 
L 844 -850 
Q 1081 -850 1212 -737 
Q 1344 -625 1503 -206 
L 1606 56 
L 191 3500 
L 800 3500 
L 1894 763 
L 2988 3500 
L 3597 3500 
L 2059 -325 
z
" transform="scale(0.015625)"/>
      </defs>
      <use xlink:href="#DejaVuSans-79"/>
     </g>
    </g>
   </g>
   <g id="patch_3">
    <path d="M 42.620313 164.423876 
Q 119.332641 164.423876 196.04497 164.423876 
Q 196.04497 87.711548 196.04497 10.999219 
Q 119.332641 10.999219 42.620313 10.999219 
Q 42.620313 87.711548 42.620313 164.423876 
" style="fill: #e3f3ff; stroke: #0055d4; stroke-width: 1.5; stroke-linejoin: miter"/>
   </g>
   <g id="patch_4">
    <path d="M 196.04497 164.423876 
Q 272.757299 164.423876 349.469628 164.423876 
Q 349.469628 87.711548 349.469628 10.999219 
Q 272.757299 10.999219 196.04497 10.999219 
Q 196.04497 87.711548 196.04497 164.423876 
" style="fill: #e3f3ff; stroke: #0055d4; stroke-width: 1.5; stroke-linejoin: miter"/>
   </g>
   <g id="patch_5">
    <path d="M 42.620313 317.848534 
Q 119.332641 317.848534 196.04497 317.848534 
Q 196.04497 241.136205 196.04497 164.423876 
Q 119.332641 164.423876 42.620313 164.423876 
Q 42.620313 241.136205 42.620313 317.848534 
" style="fill: #e3f3ff; stroke: #0055d4; stroke-width: 1.5; stroke-linejoin: miter"/>
   </g>
   <g id="patch_6">
    <path d="M 196.04497 317.848534 
Q 272.757299 317.848534 349.469628 317.848534 
Q 349.469628 241.136205 349.469628 164.423876 
Q 272.757299 164.423876 196.04497 164.423876 
Q 196.04497 241.136205 196.04497 317.848534 
" style="fill: #e3f3ff; stroke: #0055d4; stroke-width: 1.5; stroke-linejoin: miter"/>
   </g>
   <g id="patch_7">
    <path d="M 42.620313 471.273191 
Q 119.332641 471.273191 196.04497 471.273191 
Q 196.04497 394.560863 196.04497 317.848534 
Q 119.332641 317.848534 42.620313 317.848534 
Q 42.620313 394.560863 42.620313 471.273191 
" style="fill: #e3f3ff; stroke: #0055d4; stroke-width: 1.5; stroke-linejoin: miter"/>
   </g>
   <g id="patch_8">
    <path d="M 196.04497 471.273191 
Q 272.757299 471.273191 349.469628 471.273191 
Q 349.469628 394.560863 349.469628 317.848534 
Q 272.757299 317.848534 196.04497 317.848534 
Q 196.04497 394.560863 196.04497 471.273191 
" style="fill: #e3f3ff; stroke: #0055d4; stroke-width: 1.5; stroke-linejoin: miter"/>
   </g>
   <g id="patch_9">
    <path d="M 42.620313 471.273191 
L 42.620313 10.999219 
" style="fill: none; stroke: #000000; stroke-width: 0.8; stroke-linejoin: miter; stroke-linecap: square"/>
   </g>
   <g id="patch_10">
    <path d="M 349.469628 471.273191 
L 349.469628 10.999219 
" style="fill: none; stroke: #000000; stroke-width: 0.8; stroke-linejoin: miter; stroke-linecap: square"/>
   </g>
   <g id="patch_11">
    <path d="M 42.620313 471.273191 
L 349.469628 471.273191 
" style="fill: none; stroke: #000000; stroke-width: 0.8; stroke-linejoin: miter; stroke-linecap: square"/>
   </g>
   <g id="patch_12">
    <path d="M 42.620313 10.999219 
L 349.469628 10.999219 
" style="fill: none; stroke: #000000; stroke-width: 0.8; stroke-linejoin: miter; stroke-linecap: square"/>
   </g>
   <g id="text_20">
    <g id="patch_13">
     <path d="M 108.744985 93.416704 
L 129.920298 93.416704 
L 129.920298 82.006391 
L 108.744985 82.006391 
z
" style="fill: #ffffff; stroke: #b7b7b7; stroke-linejoin: miter"/>
    </g>
    <!-- 0(1) -->
    <g style="fill: #22971f" transform="translate(110.094985 90.194985)scale(0.09 -0.09)">
     <defs>
      <path id="DejaVuSans-28" d="M 1984 4856 
Q 1566 4138 1362 3434 
Q 1159 2731 1159 2009 
Q 1159 1288 1364 580 
Q 1569 -128 1984 -844 
L 1484 -844 
Q 1016 -109 783 600 
Q 550 1309 550 2009 
Q 550 2706 781 3412 
Q 1013 4119 1484 4856 
L 1984 4856 
z
" transform="scale(0.015625)"/>
      <path id="DejaVuSans-29" d="M 513 4856 
L 1013 4856 
Q 1481 4119 1714 3412 
Q 1947 2706 1947 2009 
Q 1947 1309 1714 600 
Q 1481 -109 1013 -844 
L 513 -844 
Q 928 -128 1133 580 
Q 1338 1288 1338 2009 
Q 1338 2731 1133 3434 
Q 928 4138 513 4856 
z
" transform="scale(0.015625)"/>
     </defs>
     <use xlink:href="#DejaVuSans-30"/>
     <use xlink:href="#DejaVuSans-28" x="63.623047"/>
     <use xlink:href="#DejaVuSans-31" x="102.636719"/>
     <use xlink:href="#DejaVuSans-29" x="166.259766"/>
    </g>
   </g>
   <g id="text_21">
    <g id="patch_14">
     <path d="M 262.169643 93.416704 
L 283.344955 93.416704 
L 283.344955 82.006391 
L 262.169643 82.006391 
z
" style="fill: #ffffff; stroke: #b7b7b7; stroke-linejoin: miter"/>
    </g>
    <!-- 1(1) -->
    <g style="fill: #22971f" transform="translate(263.519643 90.194985)scale(0.09 -0.09)">
     <use xlink:href="#DejaVuSans-31"/>
     <use xlink:href="#DejaVuSans-28" x="63.623047"/>
     <use xlink:href="#DejaVuSans-31" x="102.636719"/>
     <use xlink:href="#DejaVuSans-29" x="166.259766"/>
    </g>
   </g>
   <g id="text_22">
    <g id="patch_15">
     <path d="M 108.744985 246.841361 
L 129.920298 246.841361 
L 129.920298 235.431049 
L 108.744985 235.431049 
z
" style="fill: #ffffff; stroke: #b7b7b7; stroke-linejoin: miter"/>
    </g>
    <!-- 2(1) -->
    <g style="fill: #22971f" transform="translate(110.094985 243.619643)scale(0.09 -0.09)">
     <use xlink:href="#DejaVuSans-32"/>
     <use xlink:href="#DejaVuSans-28" x="63.623047"/>
     <use xlink:href="#DejaVuSans-31" x="102.636719"/>
     <use xlink:href="#DejaVuSans-29" x="166.259766"/>
    </g>
   </g>
   <g id="text_23">
    <g id="patch_16">
     <path d="M 262.169643 246.841361 
L 283.344955 246.841361 
L 283.344955 235.431049 
L 262.169643 235.431049 
z
" style="fill: #ffffff; stroke: #b7b7b7; stroke-linejoin: miter"/>
    </g>
    <!-- 3(1) -->
    <g style="fill: #22971f" transform="translate(263.519643 243.619643)scale(0.09 -0.09)">
     <use xlink:href="#DejaVuSans-33"/>
     <use xlink:href="#DejaVuSans-28" x="63.623047"/>
     <use xlink:href="#DejaVuSans-31" x="102.636719"/>
     <use xlink:href="#DejaVuSans-29" x="166.259766"/>
    </g>
   </g>
   <g id="text_24">
    <g id="patch_17">
     <path d="M 108.744985 400.266019 
L 129.920298 400.266019 
L 129.920298 388.855706 
L 108.744985 388.855706 
z
" style="fill: #ffffff; stroke: #b7b7b7; stroke-linejoin: miter"/>
    </g>
    <!-- 4(1) -->
    <g style="fill: #22971f" transform="translate(110.094985 397.0443)scale(0.09 -0.09)">
     <use xlink:href="#DejaVuSans-34"/>
     <use xlink:href="#DejaVuSans-28" x="63.623047"/>
     <use xlink:href="#DejaVuSans-31" x="102.636719"/>
     <use xlink:href="#DejaVuSans-29" x="166.259766"/>
    </g>
   </g>
   <g id="text_25">
    <g id="patch_18">
     <path d="M 262.169643 400.266019 
L 283.344955 400.266019 
L 283.344955 388.855706 
L 262.169643 388.855706 
z
" style="fill: #ffffff; stroke: #b7b7b7; stroke-linejoin: miter"/>
    </g>
    <!-- 5(1) -->
    <g style="fill: #22971f" transform="translate(263.519643 397.0443)scale(0.09 -0.09)">
     <use xlink:href="#DejaVuSans-35"/>
     <use xlink:href="#DejaVuSans-28" x="63.623047"/>
     <use xlink:href="#DejaVuSans-31" x="102.636719"/>
     <use xlink:href="#DejaVuSans-29" x="166.259766"/>
    </g>
   </g>
   <g id="text_26">
    <g id="patch_19">
     <path d="M 42.620313 16.070469 
C 43.965224 16.070469 45.255232 15.53613 46.206228 14.585134 
C 47.157224 13.634138 47.691563 12.34413 47.691563 10.999219 
C 47.691563 9.654308 47.157224 8.364299 46.206228 7.413303 
C 45.255232 6.462308 43.965224 5.927969 42.620313 5.927969 
C 41.275401 5.927969 39.985393 6.462308 39.034397 7.413303 
C 38.083401 8.364299 37.549063 9.654308 37.549063 10.999219 
C 37.549063 12.34413 38.083401 13.634138 39.034397 14.585134 
C 39.985393 15.53613 41.275401 16.070469 42.620313 16.070469 
z
" style="fill: #ffffff"/>
    </g>
    <!-- 0 -->
    <g style="fill: #ff0000" transform="translate(40.075313 13.206719)scale(0.08 -0.08)">
     <use xlink:href="#DejaVuSans-30"/>
    </g>
   </g>
   <g id="text_27">
    <g id="patch_20">
     <path d="M 119.332641 16.070469 
C 120.677552 16.070469 121.967561 15.53613 122.918557 14.585134 
C 123.869552 13.634138 124.403891 12.34413 124.403891 10.999219 
C 124.403891 9.654308 123.869552 8.364299 122.918557 7.413303 
C 121.967561 6.462308 120.677552 5.927969 119.332641 5.927969 
C 117.98773 5.927969 116.697722 6.462308 115.746726 7.413303 
C 114.79573 8.364299 114.261391 9.654308 114.261391 10.999219 
C 114.261391 12.34413 114.79573 13.634138 115.746726 14.585134 
C 116.697722 15.53613 117.98773 16.070469 119.332641 16.070469 
z
" style="fill: #ffffff"/>
    </g>
    <!-- 1 -->
    <g style="fill: #ff0000" transform="translate(116.787641 13.206719)scale(0.08 -0.08)">
     <use xlink:href="#DejaVuSans-31"/>
    </g>
   </g>
   <g id="text_28">
    <g id="patch_21">
     <path d="M 196.04497 16.070469 
C 197.389881 16.070469 198.679889 15.53613 199.630885 14.585134 
C 200.581881 13.634138 201.11622 12.34413 201.11622 10.999219 
C 201.11622 9.654308 200.581881 8.364299 199.630885 7.413303 
C 198.679889 6.462308 197.389881 5.927969 196.04497 5.927969 
C 194.700059 5.927969 193.410051 6.462308 192.459055 7.413303 
C 191.508059 8.364299 190.97372 9.654308 190.97372 10.999219 
C 190.97372 12.34413 191.508059 13.634138 192.459055 14.585134 
C 193.410051 15.53613 194.700059 16.070469 196.04497 16.070469 
z
" style="fill: #ffffff"/>
    </g>
    <!-- 2 -->
    <g style="fill: #ff0000" transform="translate(193.49997 13.206719)scale(0.08 -0.08)">
     <use xlink:href="#DejaVuSans-32"/>
    </g>
   </g>
   <g id="text_29">
    <g id="patch_22">
     <path d="M 272.757299 16.070469 
C 274.10221 16.070469 275.392218 15.53613 276.343214 14.585134 
C 277.29421 13.634138 277.828549 12.34413 277.828549 10.999219 
C 277.828549 9.654308 277.29421 8.364299 276.343214 7.413303 
C 275.392218 6.462308 274.10221 5.927969 272.757299 5.927969 
C 271.412388 5.927969 270.122379 6.462308 269.171384 7.413303 
C 268.220388 8.364299 267.686049 9.654308 267.686049 10.999219 
C 267.686049 12.34413 268.220388 13.634138 269.171384 14.585134 
C 270.122379 15.53613 271.412388 16.070469 272.757299 16.070469 
z
" style="fill: #ffffff"/>
    </g>
    <!-- 3 -->
    <g style="fill: #ff0000" transform="translate(270.212299 13.206719)scale(0.08 -0.08)">
     <use xlink:href="#DejaVuSans-33"/>
    </g>
   </g>
   <g id="text_30">
    <g id="patch_23">
     <path d="M 349.469628 16.070469 
C 350.814539 16.070469 352.104547 15.53613 353.055543 14.585134 
C 354.006539 13.634138 354.540878 12.34413 354.540878 10.999219 
C 354.540878 9.654308 354.006539 8.364299 353.055543 7.413303 
C 352.104547 6.462308 350.814539 5.927969 349.469628 5.927969 
C 348.124716 5.927969 346.834708 6.462308 345.883712 7.413303 
C 344.932716 8.364299 344.398378 9.654308 344.398378 10.999219 
C 344.398378 12.34413 344.932716 13.634138 345.883712 14.585134 
C 346.834708 15.53613 348.124716 16.070469 349.469628 16.070469 
z
" style="fill: #ffffff"/>
    </g>
    <!-- 4 -->
    <g style="fill: #ff0000" transform="translate(346.924628 13.206719)scale(0.08 -0.08)">
     <use xlink:href="#DejaVuSans-34"/>
    </g>
   </g>
   <g id="text_31">
    <g id="patch_24">
     <path d="M 42.620313 92.782798 
C 43.965224 92.782798 45.255232 92.248459 46.206228 91.297463 
C 47.157224 90.346467 47.691563 89.056459 47.691563 87.711548 
C 47.691563 86.366636 47.157224 85.076628 46.206228 84.125632 
C 45.255232 83.174636 43.965224 82.640298 42.620313 82.640298 
C 41.275401 82.640298 39.985393 83.174636 39.034397 84.125632 
C 38.083401 85.076628 37.549063 86.366636 37.549063 87.711548 
C 37.549063 89.056459 38.083401 90.346467 39.034397 91.297463 
C 39.985393 92.248459 41.275401 92.782798 42.620313 92.782798 
z
" style="fill: #ffffff"/>
    </g>
    <!-- 5 -->
    <g style="fill: #ff0000" transform="translate(40.075313 89.919048)scale(0.08 -0.08)">
     <use xlink:href="#DejaVuSans-35"/>
    </g>
   </g>
   <g id="text_32">
    <g id="patch_25">
     <path d="M 196.04497 92.782798 
C 197.389881 92.782798 198.679889 92.248459 199.630885 91.297463 
C 200.581881 90.346467 201.11622 89.056459 201.11622 87.711548 
C 201.11622 86.366636 200.581881 85.076628 199.630885 84.125632 
C 198.679889 83.174636 197.389881 82.640298 196.04497 82.640298 
C 194.700059 82.640298 193.410051 83.174636 192.459055 84.125632 
C 191.508059 85.076628 190.97372 86.366636 190.97372 87.711548 
C 190.97372 89.056459 191.508059 90.346467 192.459055 91.297463 
C 193.410051 92.248459 194.700059 92.782798 196.04497 92.782798 
z
" style="fill: #ffffff"/>
    </g>
    <!-- 6 -->
    <g style="fill: #ff0000" transform="translate(193.49997 89.919048)scale(0.08 -0.08)">
     <use xlink:href="#DejaVuSans-36"/>
    </g>
   </g>
   <g id="text_33">
    <g id="patch_26">
     <path d="M 349.469628 92.782798 
C 350.814539 92.782798 352.104547 92.248459 353.055543 91.297463 
C 354.006539 90.346467 354.540878 89.056459 354.540878 87.711548 
C 354.540878 86.366636 354.006539 85.076628 353.055543 84.125632 
C 352.104547 83.174636 350.814539 82.640298 349.469628 82.640298 
C 348.124716 82.640298 346.834708 83.174636 345.883712 84.125632 
C 344.932716 85.076628 344.398378 86.366636 344.398378 87.711548 
C 344.398378 89.056459 344.932716 90.346467 345.883712 91.297463 
C 346.834708 92.248459 348.124716 92.782798 349.469628 92.782798 
z
" style="fill: #ffffff"/>
    </g>
    <!-- 7 -->
    <g style="fill: #ff0000" transform="translate(346.924628 89.919048)scale(0.08 -0.08)">
     <use xlink:href="#DejaVuSans-37"/>
    </g>
   </g>
   <g id="text_34">
    <g id="patch_27">
     <path d="M 42.620313 169.495126 
C 43.965224 169.495126 45.255232 168.960787 46.206228 168.009792 
C 47.157224 167.058796 47.691563 165.768788 47.691563 164.423876 
C 47.691563 163.078965 47.157224 161.788957 46.206228 160.837961 
C 45.255232 159.886965 43.965224 159.352626 42.620313 159.352626 
C 41.275401 159.352626 39.985393 159.886965 39.034397 160.837961 
C 38.083401 161.788957 37.549063 163.078965 37.549063 164.423876 
C 37.549063 165.768788 38.083401 167.058796 39.034397 168.009792 
C 39.985393 168.960787 41.275401 169.495126 42.620313 169.495126 
z
" style="fill: #ffffff"/>
    </g>
    <!-- 8 -->
    <g style="fill: #ff0000" transform="translate(40.075313 166.631376)scale(0.08 -0.08)">
     <use xlink:href="#DejaVuSans-38"/>
    </g>
   </g>
   <g id="text_35">
    <g id="patch_28">
     <path d="M 119.332641 169.495126 
C 120.677552 169.495126 121.967561 168.960787 122.918557 168.009792 
C 123.869552 167.058796 124.403891 165.768788 124.403891 164.423876 
C 124.403891 163.078965 123.869552 161.788957 122.918557 160.837961 
C 121.967561 159.886965 120.677552 159.352626 119.332641 159.352626 
C 117.98773 159.352626 116.697722 159.886965 115.746726 160.837961 
C 114.79573 161.788957 114.261391 163.078965 114.261391 164.423876 
C 114.261391 165.768788 114.79573 167.058796 115.746726 168.009792 
C 116.697722 168.960787 117.98773 169.495126 119.332641 169.495126 
z
" style="fill: #ffffff"/>
    </g>
    <!-- 9 -->
    <g style="fill: #ff0000" transform="translate(116.787641 166.631376)scale(0.08 -0.08)">
     <use xlink:href="#DejaVuSans-39"/>
    </g>
   </g>
   <g id="text_36">
    <g id="patch_29">
     <path d="M 196.04497 170.713876 
C 197.713098 170.713876 199.313127 170.051122 200.492672 168.871578 
C 201.672216 167.692034 202.33497 166.092004 202.33497 164.423876 
C 202.33497 162.755749 201.672216 161.155719 200.492672 159.976175 
C 199.313127 158.79663 197.713098 158.133876 196.04497 158.133876 
C 194.376843 158.133876 192.776813 158.79663 191.597268 159.976175 
C 190.417724 161.155719 189.75497 162.755749 189.75497 164.423876 
C 189.75497 166.092004 190.417724 167.692034 191.597268 168.871578 
C 192.776813 170.051122 194.376843 170.713876 196.04497 170.713876 
z
" style="fill: #ffffff"/>
    </g>
    <!-- 10 -->
    <g style="fill: #ff0000" transform="translate(190.95497 166.631376)scale(0.08 -0.08)">
     <use xlink:href="#DejaVuSans-31"/>
     <use xlink:href="#DejaVuSans-30" x="63.623047"/>
    </g>
   </g>
   <g id="text_37">
    <g id="patch_30">
     <path d="M 272.757299 170.713876 
C 274.425426 170.713876 276.025456 170.051122 277.205 168.871578 
C 278.384545 167.692034 279.047299 166.092004 279.047299 164.423876 
C 279.047299 162.755749 278.384545 161.155719 277.205 159.976175 
C 276.025456 158.79663 274.425426 158.133876 272.757299 158.133876 
C 271.089171 158.133876 269.489141 158.79663 268.309597 159.976175 
C 267.130053 161.155719 266.467299 162.755749 266.467299 164.423876 
C 266.467299 166.092004 267.130053 167.692034 268.309597 168.871578 
C 269.489141 170.051122 271.089171 170.713876 272.757299 170.713876 
z
" style="fill: #ffffff"/>
    </g>
    <!-- 11 -->
    <g style="fill: #ff0000" transform="translate(267.667299 166.631376)scale(0.08 -0.08)">
     <use xlink:href="#DejaVuSans-31"/>
     <use xlink:href="#DejaVuSans-31" x="63.623047"/>
    </g>
   </g>
   <g id="text_38">
    <g id="patch_31">
     <path d="M 349.469628 170.713876 
C 351.137755 170.713876 352.737785 170.051122 353.917329 168.871578 
C 355.096873 167.692034 355.759628 166.092004 355.759628 164.423876 
C 355.759628 162.755749 355.096873 161.155719 353.917329 159.976175 
C 352.737785 158.79663 351.137755 158.133876 349.469628 158.133876 
C 347.8015 158.133876 346.20147 158.79663 345.021926 159.976175 
C 343.842382 161.155719 343.179628 162.755749 343.179628 164.423876 
C 343.179628 166.092004 343.842382 167.692034 345.021926 168.871578 
C 346.20147 170.051122 347.8015 170.713876 349.469628 170.713876 
z
" style="fill: #ffffff"/>
    </g>
    <!-- 12 -->
    <g style="fill: #ff0000" transform="translate(344.379628 166.631376)scale(0.08 -0.08)">
     <use xlink:href="#DejaVuSans-31"/>
     <use xlink:href="#DejaVuSans-32" x="63.623047"/>
    </g>
   </g>
   <g id="text_39">
    <g id="patch_32">
     <path d="M 42.620313 247.426205 
C 44.28844 247.426205 45.88847 246.763451 47.068014 245.583907 
C 48.247558 244.404362 48.910313 242.804333 48.910313 241.136205 
C 48.910313 239.468078 48.247558 237.868048 47.068014 236.688503 
C 45.88847 235.508959 44.28844 234.846205 42.620313 234.846205 
C 40.952185 234.846205 39.352155 235.508959 38.172611 236.688503 
C 36.993067 237.868048 36.330313 239.468078 36.330313 241.136205 
C 36.330313 242.804333 36.993067 244.404362 38.172611 245.583907 
C 39.352155 246.763451 40.952185 247.426205 42.620313 247.426205 
z
" style="fill: #ffffff"/>
    </g>
    <!-- 13 -->
    <g style="fill: #ff0000" transform="translate(37.530313 243.343705)scale(0.08 -0.08)">
     <use xlink:href="#DejaVuSans-31"/>
     <use xlink:href="#DejaVuSans-33" x="63.623047"/>
    </g>
   </g>
   <g id="text_40">
    <g id="patch_33">
     <path d="M 196.04497 247.426205 
C 197.713098 247.426205 199.313127 246.763451 200.492672 245.583907 
C 201.672216 244.404362 202.33497 242.804333 202.33497 241.136205 
C 202.33497 239.468078 201.672216 237.868048 200.492672 236.688503 
C 199.313127 235.508959 197.713098 234.846205 196.04497 234.846205 
C 194.376843 234.846205 192.776813 235.508959 191.597268 236.688503 
C 190.417724 237.868048 189.75497 239.468078 189.75497 241.136205 
C 189.75497 242.804333 190.417724 244.404362 191.597268 245.583907 
C 192.776813 246.763451 194.376843 247.426205 196.04497 247.426205 
z
" style="fill: #ffffff"/>
    </g>
    <!-- 14 -->
    <g style="fill: #ff0000" transform="translate(190.95497 243.343705)scale(0.08 -0.08)">
     <use xlink:href="#DejaVuSans-31"/>
     <use xlink:href="#DejaVuSans-34" x="63.623047"/>
    </g>
   </g>
   <g id="text_41">
    <g id="patch_34">
     <path d="M 349.469628 247.426205 
C 351.137755 247.426205 352.737785 246.763451 353.917329 245.583907 
C 355.096873 244.404362 355.759628 242.804333 355.759628 241.136205 
C 355.759628 239.468078 355.096873 237.868048 353.917329 236.688503 
C 352.737785 235.508959 351.137755 234.846205 349.469628 234.846205 
C 347.8015 234.846205 346.20147 235.508959 345.021926 236.688503 
C 343.842382 237.868048 343.179628 239.468078 343.179628 241.136205 
C 343.179628 242.804333 343.842382 244.404362 345.021926 245.583907 
C 346.20147 246.763451 347.8015 247.426205 349.469628 247.426205 
z
" style="fill: #ffffff"/>
    </g>
    <!-- 15 -->
    <g style="fill: #ff0000" transform="translate(344.379628 243.343705)scale(0.08 -0.08)">
     <use xlink:href="#DejaVuSans-31"/>
     <use xlink:href="#DejaVuSans-35" x="63.623047"/>
    </g>
   </g>
   <g id="text_42">
    <g id="patch_35">
     <path d="M 42.620313 324.138534 
C 44.28844 324.138534 45.88847 323.47578 47.068014 322.296235 
C 48.247558 321.116691 48.910313 319.516661 48.910313 317.848534 
C 48.910313 316.180406 48.247558 314.580376 47.068014 313.400832 
C 45.88847 312.221288 44.28844 311.558534 42.620313 311.558534 
C 40.952185 311.558534 39.352155 312.221288 38.172611 313.400832 
C 36.993067 314.580376 36.330313 316.180406 36.330313 317.848534 
C 36.330313 319.516661 36.993067 321.116691 38.172611 322.296235 
C 39.352155 323.47578 40.952185 324.138534 42.620313 324.138534 
z
" style="fill: #ffffff"/>
    </g>
    <!-- 16 -->
    <g style="fill: #ff0000" transform="translate(37.530313 320.056034)scale(0.08 -0.08)">
     <use xlink:href="#DejaVuSans-31"/>
     <use xlink:href="#DejaVuSans-36" x="63.623047"/>
    </g>
   </g>
   <g id="text_43">
    <g id="patch_36">
     <path d="M 119.332641 324.138534 
C 121.000769 324.138534 122.600799 323.47578 123.780343 322.296235 
C 124.959887 321.116691 125.622641 319.516661 125.622641 317.848534 
C 125.622641 316.180406 124.959887 314.580376 123.780343 313.400832 
C 122.600799 312.221288 121.000769 311.558534 119.332641 311.558534 
C 117.664514 311.558534 116.064484 312.221288 114.88494 313.400832 
C 113.705395 314.580376 113.042641 316.180406 113.042641 317.848534 
C 113.042641 319.516661 113.705395 321.116691 114.88494 322.296235 
C 116.064484 323.47578 117.664514 324.138534 119.332641 324.138534 
z
" style="fill: #ffffff"/>
    </g>
    <!-- 17 -->
    <g style="fill: #ff0000" transform="translate(114.242641 320.056034)scale(0.08 -0.08)">
     <use xlink:href="#DejaVuSans-31"/>
     <use xlink:href="#DejaVuSans-37" x="63.623047"/>
    </g>
   </g>
   <g id="text_44">
    <g id="patch_37">
     <path d="M 196.04497 324.138534 
C 197.713098 324.138534 199.313127 323.47578 200.492672 322.296235 
C 201.672216 321.116691 202.33497 319.516661 202.33497 317.848534 
C 202.33497 316.180406 201.672216 314.580376 200.492672 313.400832 
C 199.313127 312.221288 197.713098 311.558534 196.04497 311.558534 
C 194.376843 311.558534 192.776813 312.221288 191.597268 313.400832 
C 190.417724 314.580376 189.75497 316.180406 189.75497 317.848534 
C 189.75497 319.516661 190.417724 321.116691 191.597268 322.296235 
C 192.776813 323.47578 194.376843 324.138534 196.04497 324.138534 
z
" style="fill: #ffffff"/>
    </g>
    <!-- 18 -->
    <g style="fill: #ff0000" transform="translate(190.95497 320.056034)scale(0.08 -0.08)">
     <use xlink:href="#DejaVuSans-31"/>
     <use xlink:href="#DejaVuSans-38" x="63.623047"/>
    </g>
   </g>
   <g id="text_45">
    <g id="patch_38">
     <path d="M 272.757299 324.138534 
C 274.425426 324.138534 276.025456 323.47578 277.205 322.296235 
C 278.384545 321.116691 279.047299 319.516661 279.047299 317.848534 
C 279.047299 316.180406 278.384545 314.580376 277.205 313.400832 
C 276.025456 312.221288 274.425426 311.558534 272.757299 311.558534 
C 271.089171 311.558534 269.489141 312.221288 268.309597 313.400832 
C 267.130053 314.580376 266.467299 316.180406 266.467299 317.848534 
C 266.467299 319.516661 267.130053 321.116691 268.309597 322.296235 
C 269.489141 323.47578 271.089171 324.138534 272.757299 324.138534 
z
" style="fill: #ffffff"/>
    </g>
    <!-- 19 -->
    <g style="fill: #ff0000" transform="translate(267.667299 320.056034)scale(0.08 -0.08)">
     <use xlink:href="#DejaVuSans-31"/>
     <use xlink:href="#DejaVuSans-39" x="63.623047"/>
    </g>
   </g>
   <g id="text_46">
    <g id="patch_39">
     <path d="M 349.469628 324.138534 
C 351.137755 324.138534 352.737785 323.47578 353.917329 322.296235 
C 355.096873 321.116691 355.759628 319.516661 355.759628 317.848534 
C 355.759628 316.180406 355.096873 314.580376 353.917329 313.400832 
C 352.737785 312.221288 351.137755 311.558534 349.469628 311.558534 
C 347.8015 311.558534 346.20147 312.221288 345.021926 313.400832 
C 343.842382 314.580376 343.179628 316.180406 343.179628 317.848534 
C 343.179628 319.516661 343.842382 321.116691 345.021926 322.296235 
C 346.20147 323.47578 347.8015 324.138534 349.469628 324.138534 
z
" style="fill: #ffffff"/>
    </g>
    <!-- 20 -->
    <g style="fill: #ff0000" transform="translate(344.379628 320.056034)scale(0.08 -0.08)">
     <use xlink:href="#DejaVuSans-32"/>
     <use xlink:href="#DejaVuSans-30" x="63.623047"/>
    </g>
   </g>
   <g id="text_47">
    <g id="patch_40">
     <path d="M 42.620313 400.850863 
C 44.28844 400.850863 45.88847 400.188109 47.068014 399.008564 
C 48.247558 397.82902 48.910313 396.22899 48.910313 394.560863 
C 48.910313 392.892735 48.247558 391.292705 47.068014 390.113161 
C 45.88847 388.933617 44.28844 388.270863 42.620313 388.270863 
C 40.952185 388.270863 39.352155 388.933617 38.172611 390.113161 
C 36.993067 391.292705 36.330313 392.892735 36.330313 394.560863 
C 36.330313 396.22899 36.993067 397.82902 38.172611 399.008564 
C 39.352155 400.188109 40.952185 400.850863 42.620313 400.850863 
z
" style="fill: #ffffff"/>
    </g>
    <!-- 21 -->
    <g style="fill: #ff0000" transform="translate(37.530313 396.768363)scale(0.08 -0.08)">
     <use xlink:href="#DejaVuSans-32"/>
     <use xlink:href="#DejaVuSans-31" x="63.623047"/>
    </g>
   </g>
   <g id="text_48">
    <g id="patch_41">
     <path d="M 196.04497 400.850863 
C 197.713098 400.850863 199.313127 400.188109 200.492672 399.008564 
C 201.672216 397.82902 202.33497 396.22899 202.33497 394.560863 
C 202.33497 392.892735 201.672216 391.292705 200.492672 390.113161 
C 199.313127 388.933617 197.713098 388.270863 196.04497 388.270863 
C 194.376843 388.270863 192.776813 388.933617 191.597268 390.113161 
C 190.417724 391.292705 189.75497 392.892735 189.75497 394.560863 
C 189.75497 396.22899 190.417724 397.82902 191.597268 399.008564 
C 192.776813 400.188109 194.376843 400.850863 196.04497 400.850863 
z
" style="fill: #ffffff"/>
    </g>
    <!-- 22 -->
    <g style="fill: #ff0000" transform="translate(190.95497 396.768363)scale(0.08 -0.08)">
     <use xlink:href="#DejaVuSans-32"/>
     <use xlink:href="#DejaVuSans-32" x="63.623047"/>
    </g>
   </g>
   <g id="text_49">
    <g id="patch_42">
     <path d="M 349.469628 400.850863 
C 351.137755 400.850863 352.737785 400.188109 353.917329 399.008564 
C 355.096873 397.82902 355.759628 396.22899 355.759628 394.560863 
C 355.759628 392.892735 355.096873 391.292705 353.917329 390.113161 
C 352.737785 388.933617 351.137755 388.270863 349.469628 388.270863 
C 347.8015 388.270863 346.20147 388.933617 345.021926 390.113161 
C 343.842382 391.292705 343.179628 392.892735 343.179628 394.560863 
C 343.179628 396.22899 343.842382 397.82902 345.021926 399.008564 
C 346.20147 400.188109 347.8015 400.850863 349.469628 400.850863 
z
" style="fill: #ffffff"/>
    </g>
    <!-- 23 -->
    <g style="fill: #ff0000" transform="translate(344.379628 396.768363)scale(0.08 -0.08)">
     <use xlink:href="#DejaVuSans-32"/>
     <use xlink:href="#DejaVuSans-33" x="63.623047"/>
    </g>
   </g>
   <g id="text_50">
    <g id="patch_43">
     <path d="M 42.620313 477.563191 
C 44.28844 477.563191 45.88847 476.900437 47.068014 475.720893 
C 48.247558 474.541349 48.910313 472.941319 48.910313 471.273191 
C 48.910313 469.605064 48.247558 468.005034 47.068014 466.82549 
C 45.88847 465.645945 44.28844 464.983191 42.620313 464.983191 
C 40.952185 464.983191 39.352155 465.645945 38.172611 466.82549 
C 36.993067 468.005034 36.330313 469.605064 36.330313 471.273191 
C 36.330313 472.941319 36.993067 474.541349 38.172611 475.720893 
C 39.352155 476.900437 40.952185 477.563191 42.620313 477.563191 
z
" style="fill: #ffffff"/>
    </g>
    <!-- 24 -->
    <g style="fill: #ff0000" transform="translate(37.530313 473.480691)scale(0.08 -0.08)">
     <use xlink:href="#DejaVuSans-32"/>
     <use xlink:href="#DejaVuSans-34" x="63.623047"/>
    </g>
   </g>
   <g id="text_51">
    <g id="patch_44">
     <path d="M 119.332641 477.563191 
C 121.000769 477.563191 122.600799 476.900437 123.780343 475.720893 
C 124.959887 474.541349 125.622641 472.941319 125.622641 471.273191 
C 125.622641 469.605064 124.959887 468.005034 123.780343 466.82549 
C 122.600799 465.645945 121.000769 464.983191 119.332641 464.983191 
C 117.664514 464.983191 116.064484 465.645945 114.88494 466.82549 
C 113.705395 468.005034 113.042641 469.605064 113.042641 471.273191 
C 113.042641 472.941319 113.705395 474.541349 114.88494 475.720893 
C 116.064484 476.900437 117.664514 477.563191 119.332641 477.563191 
z
" style="fill: #ffffff"/>
    </g>
    <!-- 25 -->
    <g style="fill: #ff0000" transform="translate(114.242641 473.480691)scale(0.08 -0.08)">
     <use xlink:href="#DejaVuSans-32"/>
     <use xlink:href="#DejaVuSans-35" x="63.623047"/>
    </g>
   </g>
   <g id="text_52">
    <g id="patch_45">
     <path d="M 196.04497 477.563191 
C 197.713098 477.563191 199.313127 476.900437 200.492672 475.720893 
C 201.672216 474.541349 202.33497 472.941319 202.33497 471.273191 
C 202.33497 469.605064 201.672216 468.005034 200.492672 466.82549 
C 199.313127 465.645945 197.713098 464.983191 196.04497 464.983191 
C 194.376843 464.983191 192.776813 465.645945 191.597268 466.82549 
C 190.417724 468.005034 189.75497 469.605064 189.75497 471.273191 
C 189.75497 472.941319 190.417724 474.541349 191.597268 475.720893 
C 192.776813 476.900437 194.376843 477.563191 196.04497 477.563191 
z
" style="fill: #ffffff"/>
    </g>
    <!-- 26 -->
    <g style="fill: #ff0000" transform="translate(190.95497 473.480691)scale(0.08 -0.08)">
     <use xlink:href="#DejaVuSans-32"/>
     <use xlink:href="#DejaVuSans-36" x="63.623047"/>
    </g>
   </g>
   <g id="text_53">
    <g id="patch_46">
     <path d="M 272.757299 477.563191 
C 274.425426 477.563191 276.025456 476.900437 277.205 475.720893 
C 278.384545 474.541349 279.047299 472.941319 279.047299 471.273191 
C 279.047299 469.605064 278.384545 468.005034 277.205 466.82549 
C 276.025456 465.645945 274.425426 464.983191 272.757299 464.983191 
C 271.089171 464.983191 269.489141 465.645945 268.309597 466.82549 
C 267.130053 468.005034 266.467299 469.605064 266.467299 471.273191 
C 266.467299 472.941319 267.130053 474.541349 268.309597 475.720893 
C 269.489141 476.900437 271.089171 477.563191 272.757299 477.563191 
z
" style="fill: #ffffff"/>
    </g>
    <!-- 27 -->
    <g style="fill: #ff0000" transform="translate(267.667299 473.480691)scale(0.08 -0.08)">
     <use xlink:href="#DejaVuSans-32"/>
     <use xlink:href="#DejaVuSans-37" x="63.623047"/>
    </g>
   </g>
   <g id="text_54">
    <g id="patch_47">
     <path d="M 349.469628 477.563191 
C 351.137755 477.563191 352.737785 476.900437 353.917329 475.720893 
C 355.096873 474.541349 355.759628 472.941319 355.759628 471.273191 
C 355.759628 469.605064 355.096873 468.005034 353.917329 466.82549 
C 352.737785 465.645945 351.137755 464.983191 349.469628 464.983191 
C 347.8015 464.983191 346.20147 465.645945 345.021926 466.82549 
C 343.842382 468.005034 343.179628 469.605064 343.179628 471.273191 
C 343.179628 472.941319 343.842382 474.541349 345.021926 475.720893 
C 346.20147 476.900437 347.8015 477.563191 349.469628 477.563191 
z
" style="fill: #ffffff"/>
    </g>
    <!-- 28 -->
    <g style="fill: #ff0000" transform="translate(344.379628 473.480691)scale(0.08 -0.08)">
     <use xlink:href="#DejaVuSans-32"/>
     <use xlink:href="#DejaVuSans-38" x="63.623047"/>
    </g>
   </g>
  </g>
 </g>
 <defs>
  <clipPath id="p4ff3147ef5">
   <rect x="42.620313" y="10.999219" width="306.849315" height="460.273973"/>
  </clipPath>
 </defs>
</svg>
