<?xml version="1.0" encoding="utf-8" standalone="no"?>
<!DOCTYPE svg PUBLIC "-//W3C//DTD SVG 1.1//EN"
  "http://www.w3.org/Graphics/SVG/1.1/DTD/svg11.dtd">
<svg xmlns:xlink="http://www.w3.org/1999/xlink" width="525.808077pt" height="202.97639pt" viewBox="0 0 525.808077 202.97639" xmlns="http://www.w3.org/2000/svg" version="1.1">
 <metadata>
  <rdf:RDF xmlns:dc="http://purl.org/dc/elements/1.1/" xmlns:cc="http://creativecommons.org/ns#" xmlns:rdf="http://www.w3.org/1999/02/22-rdf-syntax-ns#">
   <cc:Work>
    <dc:type rdf:resource="http://purl.org/dc/dcmitype/StillImage"/>
    <dc:date>2023-09-13T09:24:33.555500</dc:date>
    <dc:format>image/svg+xml</dc:format>
    <dc:creator>
     <cc:Agent>
      <dc:title>Matplotlib v3.5.2, https://matplotlib.org/</dc:title>
     </cc:Agent>
    </dc:creator>
   </cc:Work>
  </rdf:RDF>
 </metadata>
 <defs>
  <style type="text/css">*{stroke-linejoin: round; stroke-linecap: butt}</style>
 </defs>
 <g id="figure_1">
  <g id="patch_1">
   <path d="M 0 202.97639 
L 525.808077 202.97639 
L 525.808077 0 
L 0 0 
z
" style="fill: #ffffff"/>
  </g>
  <g id="axes_1">
   <g id="patch_2">
    <path d="M 48.982813 165.42014 
L 512.245577 165.42014 
L 512.245577 10.999219 
L 48.982813 10.999219 
z
" style="fill: #ffffff"/>
   </g>
   <g id="matplotlib.axis_1">
    <g id="xtick_1">
     <g id="line2d_1">
      <path d="M 48.982813 165.42014 
L 48.982813 10.999219 
" clip-path="url(#p7a95716298)" style="fill: none; stroke-dasharray: 2.96,1.28; stroke-dashoffset: 0; stroke: #808080; stroke-width: 0.8"/>
     </g>
     <g id="line2d_2">
      <defs>
       <path id="m0491313d64" d="M 0 0 
L 0 3.5 
" style="stroke: #000000; stroke-width: 0.8"/>
      </defs>
      <g>
       <use xlink:href="#m0491313d64" x="48.982813" y="165.42014" style="stroke: #000000; stroke-width: 0.8"/>
      </g>
     </g>
     <g id="text_1">
      <!-- 0 -->
      <g transform="translate(45.801563 180.018578)scale(0.1 -0.1)">
       <defs>
        <path id="DejaVuSans-30" d="M 2034 4250 
Q 1547 4250 1301 3770 
Q 1056 3291 1056 2328 
Q 1056 1369 1301 889 
Q 1547 409 2034 409 
Q 2525 409 2770 889 
Q 3016 1369 3016 2328 
Q 3016 3291 2770 3770 
Q 2525 4250 2034 4250 
z
M 2034 4750 
Q 2819 4750 3233 4129 
Q 3647 3509 3647 2328 
Q 3647 1150 3233 529 
Q 2819 -91 2034 -91 
Q 1250 -91 836 529 
Q 422 1150 422 2328 
Q 422 3509 836 4129 
Q 1250 4750 2034 4750 
z
" transform="scale(0.015625)"/>
       </defs>
       <use xlink:href="#DejaVuSans-30"/>
      </g>
     </g>
    </g>
    <g id="xtick_2">
     <g id="line2d_3">
      <path d="M 126.193273 165.42014 
L 126.193273 10.999219 
" clip-path="url(#p7a95716298)" style="fill: none; stroke-dasharray: 2.96,1.28; stroke-dashoffset: 0; stroke: #808080; stroke-width: 0.8"/>
     </g>
     <g id="line2d_4">
      <g>
       <use xlink:href="#m0491313d64" x="126.193273" y="165.42014" style="stroke: #000000; stroke-width: 0.8"/>
      </g>
     </g>
     <g id="text_2">
      <!-- 5 -->
      <g transform="translate(123.012023 180.018578)scale(0.1 -0.1)">
       <defs>
        <path id="DejaVuSans-35" d="M 691 4666 
L 3169 4666 
L 3169 4134 
L 1269 4134 
L 1269 2991 
Q 1406 3038 1543 3061 
Q 1681 3084 1819 3084 
Q 2600 3084 3056 2656 
Q 3513 2228 3513 1497 
Q 3513 744 3044 326 
Q 2575 -91 1722 -91 
Q 1428 -91 1123 -41 
Q 819 9 494 109 
L 494 744 
Q 775 591 1075 516 
Q 1375 441 1709 441 
Q 2250 441 2565 725 
Q 2881 1009 2881 1497 
Q 2881 1984 2565 2268 
Q 2250 2553 1709 2553 
Q 1456 2553 1204 2497 
Q 953 2441 691 2322 
L 691 4666 
z
" transform="scale(0.015625)"/>
       </defs>
       <use xlink:href="#DejaVuSans-35"/>
      </g>
     </g>
    </g>
    <g id="xtick_3">
     <g id="line2d_5">
      <path d="M 203.403734 165.42014 
L 203.403734 10.999219 
" clip-path="url(#p7a95716298)" style="fill: none; stroke-dasharray: 2.96,1.28; stroke-dashoffset: 0; stroke: #808080; stroke-width: 0.8"/>
     </g>
     <g id="line2d_6">
      <g>
       <use xlink:href="#m0491313d64" x="203.403734" y="165.42014" style="stroke: #000000; stroke-width: 0.8"/>
      </g>
     </g>
     <g id="text_3">
      <!-- 10 -->
      <g transform="translate(197.041234 180.018578)scale(0.1 -0.1)">
       <defs>
        <path id="DejaVuSans-31" d="M 794 531 
L 1825 531 
L 1825 4091 
L 703 3866 
L 703 4441 
L 1819 4666 
L 2450 4666 
L 2450 531 
L 3481 531 
L 3481 0 
L 794 0 
L 794 531 
z
" transform="scale(0.015625)"/>
       </defs>
       <use xlink:href="#DejaVuSans-31"/>
       <use xlink:href="#DejaVuSans-30" x="63.623047"/>
      </g>
     </g>
    </g>
    <g id="xtick_4">
     <g id="line2d_7">
      <path d="M 280.614195 165.42014 
L 280.614195 10.999219 
" clip-path="url(#p7a95716298)" style="fill: none; stroke-dasharray: 2.96,1.28; stroke-dashoffset: 0; stroke: #808080; stroke-width: 0.8"/>
     </g>
     <g id="line2d_8">
      <g>
       <use xlink:href="#m0491313d64" x="280.614195" y="165.42014" style="stroke: #000000; stroke-width: 0.8"/>
      </g>
     </g>
     <g id="text_4">
      <!-- 15 -->
      <g transform="translate(274.251695 180.018578)scale(0.1 -0.1)">
       <use xlink:href="#DejaVuSans-31"/>
       <use xlink:href="#DejaVuSans-35" x="63.623047"/>
      </g>
     </g>
    </g>
    <g id="xtick_5">
     <g id="line2d_9">
      <path d="M 357.824656 165.42014 
L 357.824656 10.999219 
" clip-path="url(#p7a95716298)" style="fill: none; stroke-dasharray: 2.96,1.28; stroke-dashoffset: 0; stroke: #808080; stroke-width: 0.8"/>
     </g>
     <g id="line2d_10">
      <g>
       <use xlink:href="#m0491313d64" x="357.824656" y="165.42014" style="stroke: #000000; stroke-width: 0.8"/>
      </g>
     </g>
     <g id="text_5">
      <!-- 20 -->
      <g transform="translate(351.462156 180.018578)scale(0.1 -0.1)">
       <defs>
        <path id="DejaVuSans-32" d="M 1228 531 
L 3431 531 
L 3431 0 
L 469 0 
L 469 531 
Q 828 903 1448 1529 
Q 2069 2156 2228 2338 
Q 2531 2678 2651 2914 
Q 2772 3150 2772 3378 
Q 2772 3750 2511 3984 
Q 2250 4219 1831 4219 
Q 1534 4219 1204 4116 
Q 875 4013 500 3803 
L 500 4441 
Q 881 4594 1212 4672 
Q 1544 4750 1819 4750 
Q 2544 4750 2975 4387 
Q 3406 4025 3406 3419 
Q 3406 3131 3298 2873 
Q 3191 2616 2906 2266 
Q 2828 2175 2409 1742 
Q 1991 1309 1228 531 
z
" transform="scale(0.015625)"/>
       </defs>
       <use xlink:href="#DejaVuSans-32"/>
       <use xlink:href="#DejaVuSans-30" x="63.623047"/>
      </g>
     </g>
    </g>
    <g id="xtick_6">
     <g id="line2d_11">
      <path d="M 435.035116 165.42014 
L 435.035116 10.999219 
" clip-path="url(#p7a95716298)" style="fill: none; stroke-dasharray: 2.96,1.28; stroke-dashoffset: 0; stroke: #808080; stroke-width: 0.8"/>
     </g>
     <g id="line2d_12">
      <g>
       <use xlink:href="#m0491313d64" x="435.035116" y="165.42014" style="stroke: #000000; stroke-width: 0.8"/>
      </g>
     </g>
     <g id="text_6">
      <!-- 25 -->
      <g transform="translate(428.672616 180.018578)scale(0.1 -0.1)">
       <use xlink:href="#DejaVuSans-32"/>
       <use xlink:href="#DejaVuSans-35" x="63.623047"/>
      </g>
     </g>
    </g>
    <g id="xtick_7">
     <g id="line2d_13">
      <path d="M 512.245577 165.42014 
L 512.245577 10.999219 
" clip-path="url(#p7a95716298)" style="fill: none; stroke-dasharray: 2.96,1.28; stroke-dashoffset: 0; stroke: #808080; stroke-width: 0.8"/>
     </g>
     <g id="line2d_14">
      <g>
       <use xlink:href="#m0491313d64" x="512.245577" y="165.42014" style="stroke: #000000; stroke-width: 0.8"/>
      </g>
     </g>
     <g id="text_7">
      <!-- 30 -->
      <g transform="translate(505.883077 180.018578)scale(0.1 -0.1)">
       <defs>
        <path id="DejaVuSans-33" d="M 2597 2516 
Q 3050 2419 3304 2112 
Q 3559 1806 3559 1356 
Q 3559 666 3084 287 
Q 2609 -91 1734 -91 
Q 1441 -91 1130 -33 
Q 819 25 488 141 
L 488 750 
Q 750 597 1062 519 
Q 1375 441 1716 441 
Q 2309 441 2620 675 
Q 2931 909 2931 1356 
Q 2931 1769 2642 2001 
Q 2353 2234 1838 2234 
L 1294 2234 
L 1294 2753 
L 1863 2753 
Q 2328 2753 2575 2939 
Q 2822 3125 2822 3475 
Q 2822 3834 2567 4026 
Q 2313 4219 1838 4219 
Q 1578 4219 1281 4162 
Q 984 4106 628 3988 
L 628 4550 
Q 988 4650 1302 4700 
Q 1616 4750 1894 4750 
Q 2613 4750 3031 4423 
Q 3450 4097 3450 3541 
Q 3450 3153 3228 2886 
Q 3006 2619 2597 2516 
z
" transform="scale(0.015625)"/>
       </defs>
       <use xlink:href="#DejaVuSans-33"/>
       <use xlink:href="#DejaVuSans-30" x="63.623047"/>
      </g>
     </g>
    </g>
    <g id="text_8">
     <!-- x -->
     <g transform="translate(277.65482 193.696703)scale(0.1 -0.1)">
      <defs>
       <path id="DejaVuSans-78" d="M 3513 3500 
L 2247 1797 
L 3578 0 
L 2900 0 
L 1881 1375 
L 863 0 
L 184 0 
L 1544 1831 
L 300 3500 
L 978 3500 
L 1906 2253 
L 2834 3500 
L 3513 3500 
z
" transform="scale(0.015625)"/>
      </defs>
      <use xlink:href="#DejaVuSans-78"/>
     </g>
    </g>
   </g>
   <g id="matplotlib.axis_2">
    <g id="ytick_1">
     <g id="line2d_15">
      <path d="M 48.982813 165.42014 
L 512.245577 165.42014 
" clip-path="url(#p7a95716298)" style="fill: none; stroke-dasharray: 2.96,1.28; stroke-dashoffset: 0; stroke: #808080; stroke-width: 0.8"/>
     </g>
     <g id="line2d_16">
      <defs>
       <path id="md6d6ff5151" d="M 0 0 
L -3.5 0 
" style="stroke: #000000; stroke-width: 0.8"/>
      </defs>
      <g>
       <use xlink:href="#md6d6ff5151" x="48.982813" y="165.42014" style="stroke: #000000; stroke-width: 0.8"/>
      </g>
     </g>
     <g id="text_9">
      <!-- −10 -->
      <g transform="translate(20.878125 169.219359)scale(0.1 -0.1)">
       <defs>
        <path id="DejaVuSans-2212" d="M 678 2272 
L 4684 2272 
L 4684 1741 
L 678 1741 
L 678 2272 
z
" transform="scale(0.015625)"/>
       </defs>
       <use xlink:href="#DejaVuSans-2212"/>
       <use xlink:href="#DejaVuSans-31" x="83.789062"/>
       <use xlink:href="#DejaVuSans-30" x="147.412109"/>
      </g>
     </g>
    </g>
    <g id="ytick_2">
     <g id="line2d_17">
      <path d="M 48.982813 134.535956 
L 512.245577 134.535956 
" clip-path="url(#p7a95716298)" style="fill: none; stroke-dasharray: 2.96,1.28; stroke-dashoffset: 0; stroke: #808080; stroke-width: 0.8"/>
     </g>
     <g id="line2d_18">
      <g>
       <use xlink:href="#md6d6ff5151" x="48.982813" y="134.535956" style="stroke: #000000; stroke-width: 0.8"/>
      </g>
     </g>
     <g id="text_10">
      <!-- −8 -->
      <g transform="translate(27.240625 138.335175)scale(0.1 -0.1)">
       <defs>
        <path id="DejaVuSans-38" d="M 2034 2216 
Q 1584 2216 1326 1975 
Q 1069 1734 1069 1313 
Q 1069 891 1326 650 
Q 1584 409 2034 409 
Q 2484 409 2743 651 
Q 3003 894 3003 1313 
Q 3003 1734 2745 1975 
Q 2488 2216 2034 2216 
z
M 1403 2484 
Q 997 2584 770 2862 
Q 544 3141 544 3541 
Q 544 4100 942 4425 
Q 1341 4750 2034 4750 
Q 2731 4750 3128 4425 
Q 3525 4100 3525 3541 
Q 3525 3141 3298 2862 
Q 3072 2584 2669 2484 
Q 3125 2378 3379 2068 
Q 3634 1759 3634 1313 
Q 3634 634 3220 271 
Q 2806 -91 2034 -91 
Q 1263 -91 848 271 
Q 434 634 434 1313 
Q 434 1759 690 2068 
Q 947 2378 1403 2484 
z
M 1172 3481 
Q 1172 3119 1398 2916 
Q 1625 2713 2034 2713 
Q 2441 2713 2670 2916 
Q 2900 3119 2900 3481 
Q 2900 3844 2670 4047 
Q 2441 4250 2034 4250 
Q 1625 4250 1398 4047 
Q 1172 3844 1172 3481 
z
" transform="scale(0.015625)"/>
       </defs>
       <use xlink:href="#DejaVuSans-2212"/>
       <use xlink:href="#DejaVuSans-38" x="83.789062"/>
      </g>
     </g>
    </g>
    <g id="ytick_3">
     <g id="line2d_19">
      <path d="M 48.982813 103.651772 
L 512.245577 103.651772 
" clip-path="url(#p7a95716298)" style="fill: none; stroke-dasharray: 2.96,1.28; stroke-dashoffset: 0; stroke: #808080; stroke-width: 0.8"/>
     </g>
     <g id="line2d_20">
      <g>
       <use xlink:href="#md6d6ff5151" x="48.982813" y="103.651772" style="stroke: #000000; stroke-width: 0.8"/>
      </g>
     </g>
     <g id="text_11">
      <!-- −6 -->
      <g transform="translate(27.240625 107.45099)scale(0.1 -0.1)">
       <defs>
        <path id="DejaVuSans-36" d="M 2113 2584 
Q 1688 2584 1439 2293 
Q 1191 2003 1191 1497 
Q 1191 994 1439 701 
Q 1688 409 2113 409 
Q 2538 409 2786 701 
Q 3034 994 3034 1497 
Q 3034 2003 2786 2293 
Q 2538 2584 2113 2584 
z
M 3366 4563 
L 3366 3988 
Q 3128 4100 2886 4159 
Q 2644 4219 2406 4219 
Q 1781 4219 1451 3797 
Q 1122 3375 1075 2522 
Q 1259 2794 1537 2939 
Q 1816 3084 2150 3084 
Q 2853 3084 3261 2657 
Q 3669 2231 3669 1497 
Q 3669 778 3244 343 
Q 2819 -91 2113 -91 
Q 1303 -91 875 529 
Q 447 1150 447 2328 
Q 447 3434 972 4092 
Q 1497 4750 2381 4750 
Q 2619 4750 2861 4703 
Q 3103 4656 3366 4563 
z
" transform="scale(0.015625)"/>
       </defs>
       <use xlink:href="#DejaVuSans-2212"/>
       <use xlink:href="#DejaVuSans-36" x="83.789062"/>
      </g>
     </g>
    </g>
    <g id="ytick_4">
     <g id="line2d_21">
      <path d="M 48.982813 72.767587 
L 512.245577 72.767587 
" clip-path="url(#p7a95716298)" style="fill: none; stroke-dasharray: 2.96,1.28; stroke-dashoffset: 0; stroke: #808080; stroke-width: 0.8"/>
     </g>
     <g id="line2d_22">
      <g>
       <use xlink:href="#md6d6ff5151" x="48.982813" y="72.767587" style="stroke: #000000; stroke-width: 0.8"/>
      </g>
     </g>
     <g id="text_12">
      <!-- −4 -->
      <g transform="translate(27.240625 76.566806)scale(0.1 -0.1)">
       <defs>
        <path id="DejaVuSans-34" d="M 2419 4116 
L 825 1625 
L 2419 1625 
L 2419 4116 
z
M 2253 4666 
L 3047 4666 
L 3047 1625 
L 3713 1625 
L 3713 1100 
L 3047 1100 
L 3047 0 
L 2419 0 
L 2419 1100 
L 313 1100 
L 313 1709 
L 2253 4666 
z
" transform="scale(0.015625)"/>
       </defs>
       <use xlink:href="#DejaVuSans-2212"/>
       <use xlink:href="#DejaVuSans-34" x="83.789062"/>
      </g>
     </g>
    </g>
    <g id="ytick_5">
     <g id="line2d_23">
      <path d="M 48.982813 41.883403 
L 512.245577 41.883403 
" clip-path="url(#p7a95716298)" style="fill: none; stroke-dasharray: 2.96,1.28; stroke-dashoffset: 0; stroke: #808080; stroke-width: 0.8"/>
     </g>
     <g id="line2d_24">
      <g>
       <use xlink:href="#md6d6ff5151" x="48.982813" y="41.883403" style="stroke: #000000; stroke-width: 0.8"/>
      </g>
     </g>
     <g id="text_13">
      <!-- −2 -->
      <g transform="translate(27.240625 45.682622)scale(0.1 -0.1)">
       <use xlink:href="#DejaVuSans-2212"/>
       <use xlink:href="#DejaVuSans-32" x="83.789062"/>
      </g>
     </g>
    </g>
    <g id="ytick_6">
     <g id="line2d_25">
      <path d="M 48.982813 10.999219 
L 512.245577 10.999219 
" clip-path="url(#p7a95716298)" style="fill: none; stroke-dasharray: 2.96,1.28; stroke-dashoffset: 0; stroke: #808080; stroke-width: 0.8"/>
     </g>
     <g id="line2d_26">
      <g>
       <use xlink:href="#md6d6ff5151" x="48.982813" y="10.999219" style="stroke: #000000; stroke-width: 0.8"/>
      </g>
     </g>
     <g id="text_14">
      <!-- 0 -->
      <g transform="translate(35.620313 14.798437)scale(0.1 -0.1)">
       <use xlink:href="#DejaVuSans-30"/>
      </g>
     </g>
    </g>
    <g id="text_15">
     <!-- y -->
     <g transform="translate(14.798438 91.169055)rotate(-90)scale(0.1 -0.1)">
      <defs>
       <path id="DejaVuSans-79" d="M 2059 -325 
Q 1816 -950 1584 -1140 
Q 1353 -1331 966 -1331 
L 506 -1331 
L 506 -850 
L 844 -850 
Q 1081 -850 1212 -737 
Q 1344 -625 1503 -206 
L 1606 56 
L 191 3500 
L 800 3500 
L 1894 763 
L 2988 3500 
L 3597 3500 
L 2059 -325 
z
" transform="scale(0.015625)"/>
      </defs>
      <use xlink:href="#DejaVuSans-79"/>
     </g>
    </g>
   </g>
   <g id="patch_3">
    <path d="M 48.982813 72.767587 
L 110.751181 72.767587 
L 110.751181 10.999219 
L 48.982813 10.999219 
L 48.982813 72.767587 
" style="fill: #e3f3ff; stroke: #0055d4; stroke-width: 1.5; stroke-linejoin: miter"/>
   </g>
   <g id="patch_4">
    <path d="M 48.982813 165.42014 
L 110.751181 165.42014 
L 110.751181 72.767587 
L 48.982813 72.767587 
L 48.982813 165.42014 
" style="fill: #e3f3ff; stroke: #0055d4; stroke-width: 1.5; stroke-linejoin: miter"/>
   </g>
   <g id="patch_5">
    <path d="M 110.751181 72.767587 
L 203.403734 72.767587 
L 203.403734 10.999219 
L 110.751181 10.999219 
L 110.751181 72.767587 
" style="fill: #e3f3ff; stroke: #0055d4; stroke-width: 1.5; stroke-linejoin: miter"/>
   </g>
   <g id="patch_6">
    <path d="M 110.751181 165.42014 
L 203.403734 165.42014 
L 203.403734 72.767587 
L 110.751181 72.767587 
L 110.751181 165.42014 
" style="fill: #e3f3ff; stroke: #0055d4; stroke-width: 1.5; stroke-linejoin: miter"/>
   </g>
   <g id="patch_7">
    <path d="M 203.403734 72.767587 
L 512.245577 72.767587 
L 512.245577 10.999219 
L 203.403734 10.999219 
L 203.403734 72.767587 
" style="fill: #e3f3ff; stroke: #0055d4; stroke-width: 1.5; stroke-linejoin: miter"/>
   </g>
   <g id="patch_8">
    <path d="M 203.403734 165.42014 
L 512.245577 165.42014 
L 512.245577 72.767587 
L 203.403734 72.767587 
L 203.403734 165.42014 
" style="fill: #e3f3ff; stroke: #0055d4; stroke-width: 1.5; stroke-linejoin: miter"/>
   </g>
   <g id="patch_9">
    <path d="M 48.982813 165.42014 
L 48.982813 10.999219 
" style="fill: none; stroke: #000000; stroke-width: 0.8; stroke-linejoin: miter; stroke-linecap: square"/>
   </g>
   <g id="patch_10">
    <path d="M 512.245577 165.42014 
L 512.245577 10.999219 
" style="fill: none; stroke: #000000; stroke-width: 0.8; stroke-linejoin: miter; stroke-linecap: square"/>
   </g>
   <g id="patch_11">
    <path d="M 48.982813 165.42014 
L 512.245577 165.42014 
" style="fill: none; stroke: #000000; stroke-width: 0.8; stroke-linejoin: miter; stroke-linecap: square"/>
   </g>
   <g id="patch_12">
    <path d="M 48.982813 10.999219 
L 512.245577 10.999219 
" style="fill: none; stroke: #000000; stroke-width: 0.8; stroke-linejoin: miter; stroke-linecap: square"/>
   </g>
   <g id="text_16">
    <g id="patch_13">
     <path d="M 69.279341 47.588559 
L 90.454653 47.588559 
L 90.454653 36.178247 
L 69.279341 36.178247 
z
" style="fill: #ffffff; stroke: #b7b7b7; stroke-linejoin: miter"/>
    </g>
    <!-- 0(1) -->
    <g style="fill: #22971f" transform="translate(70.629341 44.366841)scale(0.09 -0.09)">
     <defs>
      <path id="DejaVuSans-28" d="M 1984 4856 
Q 1566 4138 1362 3434 
Q 1159 2731 1159 2009 
Q 1159 1288 1364 580 
Q 1569 -128 1984 -844 
L 1484 -844 
Q 1016 -109 783 600 
Q 550 1309 550 2009 
Q 550 2706 781 3412 
Q 1013 4119 1484 4856 
L 1984 4856 
z
" transform="scale(0.015625)"/>
      <path id="DejaVuSans-29" d="M 513 4856 
L 1013 4856 
Q 1481 4119 1714 3412 
Q 1947 2706 1947 2009 
Q 1947 1309 1714 600 
Q 1481 -109 1013 -844 
L 513 -844 
Q 928 -128 1133 580 
Q 1338 1288 1338 2009 
Q 1338 2731 1133 3434 
Q 928 4138 513 4856 
z
" transform="scale(0.015625)"/>
     </defs>
     <use xlink:href="#DejaVuSans-30"/>
     <use xlink:href="#DejaVuSans-28" x="63.623047"/>
     <use xlink:href="#DejaVuSans-31" x="102.636719"/>
     <use xlink:href="#DejaVuSans-29" x="166.259766"/>
    </g>
   </g>
   <g id="text_17">
    <g id="patch_14">
     <path d="M 69.279341 124.79902 
L 90.454653 124.79902 
L 90.454653 113.388708 
L 69.279341 113.388708 
z
" style="fill: #ffffff; stroke: #b7b7b7; stroke-linejoin: miter"/>
    </g>
    <!-- 1(2) -->
    <g style="fill: #22971f" transform="translate(70.629341 121.577301)scale(0.09 -0.09)">
     <use xlink:href="#DejaVuSans-31"/>
     <use xlink:href="#DejaVuSans-28" x="63.623047"/>
     <use xlink:href="#DejaVuSans-32" x="102.636719"/>
     <use xlink:href="#DejaVuSans-29" x="166.259766"/>
    </g>
   </g>
   <g id="text_18">
    <g id="patch_15">
     <path d="M 146.489801 47.588559 
L 167.665114 47.588559 
L 167.665114 36.178247 
L 146.489801 36.178247 
z
" style="fill: #ffffff; stroke: #b7b7b7; stroke-linejoin: miter"/>
    </g>
    <!-- 2(1) -->
    <g style="fill: #22971f" transform="translate(147.839801 44.366841)scale(0.09 -0.09)">
     <use xlink:href="#DejaVuSans-32"/>
     <use xlink:href="#DejaVuSans-28" x="63.623047"/>
     <use xlink:href="#DejaVuSans-31" x="102.636719"/>
     <use xlink:href="#DejaVuSans-29" x="166.259766"/>
    </g>
   </g>
   <g id="text_19">
    <g id="patch_16">
     <path d="M 146.489801 124.79902 
L 167.665114 124.79902 
L 167.665114 113.388708 
L 146.489801 113.388708 
z
" style="fill: #ffffff; stroke: #b7b7b7; stroke-linejoin: miter"/>
    </g>
    <!-- 3(2) -->
    <g style="fill: #22971f" transform="translate(147.839801 121.577301)scale(0.09 -0.09)">
     <use xlink:href="#DejaVuSans-33"/>
     <use xlink:href="#DejaVuSans-28" x="63.623047"/>
     <use xlink:href="#DejaVuSans-32" x="102.636719"/>
     <use xlink:href="#DejaVuSans-29" x="166.259766"/>
    </g>
   </g>
   <g id="text_20">
    <g id="patch_17">
     <path d="M 347.236999 47.588559 
L 368.412312 47.588559 
L 368.412312 36.178247 
L 347.236999 36.178247 
z
" style="fill: #ffffff; stroke: #b7b7b7; stroke-linejoin: miter"/>
    </g>
    <!-- 4(1) -->
    <g style="fill: #22971f" transform="translate(348.586999 44.366841)scale(0.09 -0.09)">
     <use xlink:href="#DejaVuSans-34"/>
     <use xlink:href="#DejaVuSans-28" x="63.623047"/>
     <use xlink:href="#DejaVuSans-31" x="102.636719"/>
     <use xlink:href="#DejaVuSans-29" x="166.259766"/>
    </g>
   </g>
   <g id="text_21">
    <g id="patch_18">
     <path d="M 347.236999 124.79902 
L 368.412312 124.79902 
L 368.412312 113.388708 
L 347.236999 113.388708 
z
" style="fill: #ffffff; stroke: #b7b7b7; stroke-linejoin: miter"/>
    </g>
    <!-- 5(2) -->
    <g style="fill: #22971f" transform="translate(348.586999 121.577301)scale(0.09 -0.09)">
     <use xlink:href="#DejaVuSans-35"/>
     <use xlink:href="#DejaVuSans-28" x="63.623047"/>
     <use xlink:href="#DejaVuSans-32" x="102.636719"/>
     <use xlink:href="#DejaVuSans-29" x="166.259766"/>
    </g>
   </g>
   <g id="text_22">
    <g id="patch_19">
     <path d="M 48.982813 16.070469 
C 50.327724 16.070469 51.617732 15.53613 52.568728 14.585134 
C 53.519724 13.634138 54.054063 12.34413 54.054063 10.999219 
C 54.054063 9.654308 53.519724 8.364299 52.568728 7.413303 
C 51.617732 6.462308 50.327724 5.927969 48.982813 5.927969 
C 47.637901 5.927969 46.347893 6.462308 45.396897 7.413303 
C 44.445901 8.364299 43.911563 9.654308 43.911563 10.999219 
C 43.911563 12.34413 44.445901 13.634138 45.396897 14.585134 
C 46.347893 15.53613 47.637901 16.070469 48.982813 16.070469 
z
" style="fill: #ffffff"/>
    </g>
    <!-- 0 -->
    <g style="fill: #ff0000" transform="translate(46.437813 13.206719)scale(0.08 -0.08)">
     <use xlink:href="#DejaVuSans-30"/>
    </g>
   </g>
   <g id="text_23">
    <g id="patch_20">
     <path d="M 48.982813 77.838837 
C 50.327724 77.838837 51.617732 77.304498 52.568728 76.353503 
C 53.519724 75.402507 54.054063 74.112499 54.054063 72.767587 
C 54.054063 71.422676 53.519724 70.132668 52.568728 69.181672 
C 51.617732 68.230676 50.327724 67.696337 48.982813 67.696337 
C 47.637901 67.696337 46.347893 68.230676 45.396897 69.181672 
C 44.445901 70.132668 43.911563 71.422676 43.911563 72.767587 
C 43.911563 74.112499 44.445901 75.402507 45.396897 76.353503 
C 46.347893 77.304498 47.637901 77.838837 48.982813 77.838837 
z
" style="fill: #ffffff"/>
    </g>
    <!-- 1 -->
    <g style="fill: #ff0000" transform="translate(46.437813 74.975087)scale(0.08 -0.08)">
     <use xlink:href="#DejaVuSans-31"/>
    </g>
   </g>
   <g id="text_24">
    <g id="patch_21">
     <path d="M 48.982813 170.49139 
C 50.327724 170.49139 51.617732 169.957051 52.568728 169.006056 
C 53.519724 168.05506 54.054063 166.765052 54.054063 165.42014 
C 54.054063 164.075229 53.519724 162.785221 52.568728 161.834225 
C 51.617732 160.883229 50.327724 160.34889 48.982813 160.34889 
C 47.637901 160.34889 46.347893 160.883229 45.396897 161.834225 
C 44.445901 162.785221 43.911563 164.075229 43.911563 165.42014 
C 43.911563 166.765052 44.445901 168.05506 45.396897 169.006056 
C 46.347893 169.957051 47.637901 170.49139 48.982813 170.49139 
z
" style="fill: #ffffff"/>
    </g>
    <!-- 2 -->
    <g style="fill: #ff0000" transform="translate(46.437813 167.62764)scale(0.08 -0.08)">
     <use xlink:href="#DejaVuSans-32"/>
    </g>
   </g>
   <g id="text_25">
    <g id="patch_22">
     <path d="M 110.751181 16.070469 
C 112.096092 16.070469 113.386101 15.53613 114.337096 14.585134 
C 115.288092 13.634138 115.822431 12.34413 115.822431 10.999219 
C 115.822431 9.654308 115.288092 8.364299 114.337096 7.413303 
C 113.386101 6.462308 112.096092 5.927969 110.751181 5.927969 
C 109.40627 5.927969 108.116262 6.462308 107.165266 7.413303 
C 106.21427 8.364299 105.679931 9.654308 105.679931 10.999219 
C 105.679931 12.34413 106.21427 13.634138 107.165266 14.585134 
C 108.116262 15.53613 109.40627 16.070469 110.751181 16.070469 
z
" style="fill: #ffffff"/>
    </g>
    <!-- 3 -->
    <g style="fill: #ff0000" transform="translate(108.206181 13.206719)scale(0.08 -0.08)">
     <use xlink:href="#DejaVuSans-33"/>
    </g>
   </g>
   <g id="text_26">
    <g id="patch_23">
     <path d="M 110.751181 77.838837 
C 112.096092 77.838837 113.386101 77.304498 114.337096 76.353503 
C 115.288092 75.402507 115.822431 74.112499 115.822431 72.767587 
C 115.822431 71.422676 115.288092 70.132668 114.337096 69.181672 
C 113.386101 68.230676 112.096092 67.696337 110.751181 67.696337 
C 109.40627 67.696337 108.116262 68.230676 107.165266 69.181672 
C 106.21427 70.132668 105.679931 71.422676 105.679931 72.767587 
C 105.679931 74.112499 106.21427 75.402507 107.165266 76.353503 
C 108.116262 77.304498 109.40627 77.838837 110.751181 77.838837 
z
" style="fill: #ffffff"/>
    </g>
    <!-- 4 -->
    <g style="fill: #ff0000" transform="translate(108.206181 74.975087)scale(0.08 -0.08)">
     <use xlink:href="#DejaVuSans-34"/>
    </g>
   </g>
   <g id="text_27">
    <g id="patch_24">
     <path d="M 110.751181 170.49139 
C 112.096092 170.49139 113.386101 169.957051 114.337096 169.006056 
C 115.288092 168.05506 115.822431 166.765052 115.822431 165.42014 
C 115.822431 164.075229 115.288092 162.785221 114.337096 161.834225 
C 113.386101 160.883229 112.096092 160.34889 110.751181 160.34889 
C 109.40627 160.34889 108.116262 160.883229 107.165266 161.834225 
C 106.21427 162.785221 105.679931 164.075229 105.679931 165.42014 
C 105.679931 166.765052 106.21427 168.05506 107.165266 169.006056 
C 108.116262 169.957051 109.40627 170.49139 110.751181 170.49139 
z
" style="fill: #ffffff"/>
    </g>
    <!-- 5 -->
    <g style="fill: #ff0000" transform="translate(108.206181 167.62764)scale(0.08 -0.08)">
     <use xlink:href="#DejaVuSans-35"/>
    </g>
   </g>
   <g id="text_28">
    <g id="patch_25">
     <path d="M 203.403734 16.070469 
C 204.748645 16.070469 206.038653 15.53613 206.989649 14.585134 
C 207.940645 13.634138 208.474984 12.34413 208.474984 10.999219 
C 208.474984 9.654308 207.940645 8.364299 206.989649 7.413303 
C 206.038653 6.462308 204.748645 5.927969 203.403734 5.927969 
C 202.058823 5.927969 200.768815 6.462308 199.817819 7.413303 
C 198.866823 8.364299 198.332484 9.654308 198.332484 10.999219 
C 198.332484 12.34413 198.866823 13.634138 199.817819 14.585134 
C 200.768815 15.53613 202.058823 16.070469 203.403734 16.070469 
z
" style="fill: #ffffff"/>
    </g>
    <!-- 6 -->
    <g style="fill: #ff0000" transform="translate(200.858734 13.206719)scale(0.08 -0.08)">
     <use xlink:href="#DejaVuSans-36"/>
    </g>
   </g>
   <g id="text_29">
    <g id="patch_26">
     <path d="M 203.403734 77.838837 
C 204.748645 77.838837 206.038653 77.304498 206.989649 76.353503 
C 207.940645 75.402507 208.474984 74.112499 208.474984 72.767587 
C 208.474984 71.422676 207.940645 70.132668 206.989649 69.181672 
C 206.038653 68.230676 204.748645 67.696337 203.403734 67.696337 
C 202.058823 67.696337 200.768815 68.230676 199.817819 69.181672 
C 198.866823 70.132668 198.332484 71.422676 198.332484 72.767587 
C 198.332484 74.112499 198.866823 75.402507 199.817819 76.353503 
C 200.768815 77.304498 202.058823 77.838837 203.403734 77.838837 
z
" style="fill: #ffffff"/>
    </g>
    <!-- 7 -->
    <g style="fill: #ff0000" transform="translate(200.858734 74.975087)scale(0.08 -0.08)">
     <defs>
      <path id="DejaVuSans-37" d="M 525 4666 
L 3525 4666 
L 3525 4397 
L 1831 0 
L 1172 0 
L 2766 4134 
L 525 4134 
L 525 4666 
z
" transform="scale(0.015625)"/>
     </defs>
     <use xlink:href="#DejaVuSans-37"/>
    </g>
   </g>
   <g id="text_30">
    <g id="patch_27">
     <path d="M 203.403734 170.49139 
C 204.748645 170.49139 206.038653 169.957051 206.989649 169.006056 
C 207.940645 168.05506 208.474984 166.765052 208.474984 165.42014 
C 208.474984 164.075229 207.940645 162.785221 206.989649 161.834225 
C 206.038653 160.883229 204.748645 160.34889 203.403734 160.34889 
C 202.058823 160.34889 200.768815 160.883229 199.817819 161.834225 
C 198.866823 162.785221 198.332484 164.075229 198.332484 165.42014 
C 198.332484 166.765052 198.866823 168.05506 199.817819 169.006056 
C 200.768815 169.957051 202.058823 170.49139 203.403734 170.49139 
z
" style="fill: #ffffff"/>
    </g>
    <!-- 8 -->
    <g style="fill: #ff0000" transform="translate(200.858734 167.62764)scale(0.08 -0.08)">
     <use xlink:href="#DejaVuSans-38"/>
    </g>
   </g>
   <g id="text_31">
    <g id="patch_28">
     <path d="M 512.245577 16.070469 
C 513.590488 16.070469 514.880497 15.53613 515.831492 14.585134 
C 516.782488 13.634138 517.316827 12.34413 517.316827 10.999219 
C 517.316827 9.654308 516.782488 8.364299 515.831492 7.413303 
C 514.880497 6.462308 513.590488 5.927969 512.245577 5.927969 
C 510.900666 5.927969 509.610658 6.462308 508.659662 7.413303 
C 507.708666 8.364299 507.174327 9.654308 507.174327 10.999219 
C 507.174327 12.34413 507.708666 13.634138 508.659662 14.585134 
C 509.610658 15.53613 510.900666 16.070469 512.245577 16.070469 
z
" style="fill: #ffffff"/>
    </g>
    <!-- 9 -->
    <g style="fill: #ff0000" transform="translate(509.700577 13.206719)scale(0.08 -0.08)">
     <defs>
      <path id="DejaVuSans-39" d="M 703 97 
L 703 672 
Q 941 559 1184 500 
Q 1428 441 1663 441 
Q 2288 441 2617 861 
Q 2947 1281 2994 2138 
Q 2813 1869 2534 1725 
Q 2256 1581 1919 1581 
Q 1219 1581 811 2004 
Q 403 2428 403 3163 
Q 403 3881 828 4315 
Q 1253 4750 1959 4750 
Q 2769 4750 3195 4129 
Q 3622 3509 3622 2328 
Q 3622 1225 3098 567 
Q 2575 -91 1691 -91 
Q 1453 -91 1209 -44 
Q 966 3 703 97 
z
M 1959 2075 
Q 2384 2075 2632 2365 
Q 2881 2656 2881 3163 
Q 2881 3666 2632 3958 
Q 2384 4250 1959 4250 
Q 1534 4250 1286 3958 
Q 1038 3666 1038 3163 
Q 1038 2656 1286 2365 
Q 1534 2075 1959 2075 
z
" transform="scale(0.015625)"/>
     </defs>
     <use xlink:href="#DejaVuSans-39"/>
    </g>
   </g>
   <g id="text_32">
    <g id="patch_29">
     <path d="M 512.245577 79.057587 
C 513.913705 79.057587 515.513735 78.394833 516.693279 77.215289 
C 517.872823 76.035745 518.535577 74.435715 518.535577 72.767587 
C 518.535577 71.09946 517.872823 69.49943 516.693279 68.319886 
C 515.513735 67.140341 513.913705 66.477587 512.245577 66.477587 
C 510.57745 66.477587 508.97742 67.140341 507.797875 68.319886 
C 506.618331 69.49943 505.955577 71.09946 505.955577 72.767587 
C 505.955577 74.435715 506.618331 76.035745 507.797875 77.215289 
C 508.97742 78.394833 510.57745 79.057587 512.245577 79.057587 
z
" style="fill: #ffffff"/>
    </g>
    <!-- 10 -->
    <g style="fill: #ff0000" transform="translate(507.155577 74.975087)scale(0.08 -0.08)">
     <use xlink:href="#DejaVuSans-31"/>
     <use xlink:href="#DejaVuSans-30" x="63.623047"/>
    </g>
   </g>
   <g id="text_33">
    <g id="patch_30">
     <path d="M 512.245577 171.71014 
C 513.913705 171.71014 515.513735 171.047386 516.693279 169.867842 
C 517.872823 168.688298 518.535577 167.088268 518.535577 165.42014 
C 518.535577 163.752013 517.872823 162.151983 516.693279 160.972439 
C 515.513735 159.792894 513.913705 159.13014 512.245577 159.13014 
C 510.57745 159.13014 508.97742 159.792894 507.797875 160.972439 
C 506.618331 162.151983 505.955577 163.752013 505.955577 165.42014 
C 505.955577 167.088268 506.618331 168.688298 507.797875 169.867842 
C 508.97742 171.047386 510.57745 171.71014 512.245577 171.71014 
z
" style="fill: #ffffff"/>
    </g>
    <!-- 11 -->
    <g style="fill: #ff0000" transform="translate(507.155577 167.62764)scale(0.08 -0.08)">
     <use xlink:href="#DejaVuSans-31"/>
     <use xlink:href="#DejaVuSans-31" x="63.623047"/>
    </g>
   </g>
  </g>
 </g>
 <defs>
  <clipPath id="p7a95716298">
   <rect x="48.982813" y="10.999219" width="463.262765" height="154.420922"/>
  </clipPath>
 </defs>
</svg>
