# header
# ndim npoint ncell nmarked_edge nmarked_face
2 21 10 4 0

# points
# id marker x y {z}
0 0 4.6 5.0
1 0 -4.6 5.0
2 0 4.6 0.0
3 0 -4.6 0.0
4 0 -13.6 0.0
5 0 -13.6 10.0
6 0 -4.6 10.0
7 0 13.6 0.0
8 0 13.6 10.0
9 0 4.6 10.0
10 0 4.4 7.5
11 0 -4.4 7.5
12 0 4.4 5.0
13 0 -4.4 5.0
14 0 -13.6 5.0
15 0 13.6 5.0
16 0 4.4 0.0
17 0 -4.4 0.0
18 0 0.0 7.5
19 0 0.0 5.0
20 0 0.0 0.0

# cells
# id attribute kind points
0 1 qua4 12 10 18 19
1 1 qua4 14 1 6 5
2 1 qua4 7 15 0 2
3 1 qua4 15 8 9 0
4 1 qua4 4 3 1 14
5 1 qua4 2 0 12 16
6 1 qua4 3 17 13 1
7 1 qua4 16 12 19 20
8 1 qua4 17 20 19 13
9 1 qua4 13 19 18 11

# marked edges
# marker p1 p2 p3 p4
20 5 6
20 8 9
10 11 18
10 10 18
