<?xml version="1.0" encoding="utf-8" standalone="no"?>
<!DOCTYPE svg PUBLIC "-//W3C//DTD SVG 1.1//EN"
  "http://www.w3.org/Graphics/SVG/1.1/DTD/svg11.dtd">
<svg xmlns:xlink="http://www.w3.org/1999/xlink" width="515.836202pt" height="71.718607pt" viewBox="0 0 515.836202 71.718607" xmlns="http://www.w3.org/2000/svg" version="1.1">
 <metadata>
  <rdf:RDF xmlns:dc="http://purl.org/dc/elements/1.1/" xmlns:cc="http://creativecommons.org/ns#" xmlns:rdf="http://www.w3.org/1999/02/22-rdf-syntax-ns#">
   <cc:Work>
    <dc:type rdf:resource="http://purl.org/dc/dcmitype/StillImage"/>
    <dc:date>2022-09-05T23:32:15.909157</dc:date>
    <dc:format>image/svg+xml</dc:format>
    <dc:creator>
     <cc:Agent>
      <dc:title>Matplotlib v3.5.2, https://matplotlib.org/</dc:title>
     </cc:Agent>
    </dc:creator>
   </cc:Work>
  </rdf:RDF>
 </metadata>
 <defs>
  <style type="text/css">*{stroke-linejoin: round; stroke-linecap: butt}</style>
 </defs>
 <g id="figure_1">
  <g id="patch_1">
   <path d="M 0 71.718607 
L 515.836202 71.718607 
L 515.836202 -0 
L 0 -0 
z
" style="fill: #ffffff"/>
  </g>
  <g id="axes_1">
   <g id="patch_2">
    <path d="M 34.240625 34.162357 
L 497.50339 34.162357 
L 497.50339 10.999219 
L 34.240625 10.999219 
z
" style="fill: #ffffff"/>
   </g>
   <g id="matplotlib.axis_1">
    <g id="xtick_1">
     <g id="line2d_1">
      <path d="M 34.240625 34.162357 
L 34.240625 10.999219 
" clip-path="url(#p522d904fb3)" style="fill: none; stroke-dasharray: 2.96,1.28; stroke-dashoffset: 0; stroke: #808080; stroke-width: 0.8"/>
     </g>
     <g id="line2d_2">
      <defs>
       <path id="m1d0356111a" d="M 0 0 
L 0 3.5 
" style="stroke: #000000; stroke-width: 0.8"/>
      </defs>
      <g>
       <use xlink:href="#m1d0356111a" x="34.240625" y="34.162357" style="stroke: #000000; stroke-width: 0.8"/>
      </g>
     </g>
     <g id="text_1">
      <!-- 0.0 -->
      <g transform="translate(26.289062 48.760794)scale(0.1 -0.1)">
       <defs>
        <path id="DejaVuSans-30" d="M 2034 4250 
Q 1547 4250 1301 3770 
Q 1056 3291 1056 2328 
Q 1056 1369 1301 889 
Q 1547 409 2034 409 
Q 2525 409 2770 889 
Q 3016 1369 3016 2328 
Q 3016 3291 2770 3770 
Q 2525 4250 2034 4250 
z
M 2034 4750 
Q 2819 4750 3233 4129 
Q 3647 3509 3647 2328 
Q 3647 1150 3233 529 
Q 2819 -91 2034 -91 
Q 1250 -91 836 529 
Q 422 1150 422 2328 
Q 422 3509 836 4129 
Q 1250 4750 2034 4750 
z
" transform="scale(0.015625)"/>
        <path id="DejaVuSans-2e" d="M 684 794 
L 1344 794 
L 1344 0 
L 684 0 
L 684 794 
z
" transform="scale(0.015625)"/>
       </defs>
       <use xlink:href="#DejaVuSans-30"/>
       <use xlink:href="#DejaVuSans-2e" x="63.623047"/>
       <use xlink:href="#DejaVuSans-30" x="95.410156"/>
      </g>
     </g>
    </g>
    <g id="xtick_2">
     <g id="line2d_3">
      <path d="M 92.148471 34.162357 
L 92.148471 10.999219 
" clip-path="url(#p522d904fb3)" style="fill: none; stroke-dasharray: 2.96,1.28; stroke-dashoffset: 0; stroke: #808080; stroke-width: 0.8"/>
     </g>
     <g id="line2d_4">
      <g>
       <use xlink:href="#m1d0356111a" x="92.148471" y="34.162357" style="stroke: #000000; stroke-width: 0.8"/>
      </g>
     </g>
     <g id="text_2">
      <!-- 2.5 -->
      <g transform="translate(84.196908 48.760794)scale(0.1 -0.1)">
       <defs>
        <path id="DejaVuSans-32" d="M 1228 531 
L 3431 531 
L 3431 0 
L 469 0 
L 469 531 
Q 828 903 1448 1529 
Q 2069 2156 2228 2338 
Q 2531 2678 2651 2914 
Q 2772 3150 2772 3378 
Q 2772 3750 2511 3984 
Q 2250 4219 1831 4219 
Q 1534 4219 1204 4116 
Q 875 4013 500 3803 
L 500 4441 
Q 881 4594 1212 4672 
Q 1544 4750 1819 4750 
Q 2544 4750 2975 4387 
Q 3406 4025 3406 3419 
Q 3406 3131 3298 2873 
Q 3191 2616 2906 2266 
Q 2828 2175 2409 1742 
Q 1991 1309 1228 531 
z
" transform="scale(0.015625)"/>
        <path id="DejaVuSans-35" d="M 691 4666 
L 3169 4666 
L 3169 4134 
L 1269 4134 
L 1269 2991 
Q 1406 3038 1543 3061 
Q 1681 3084 1819 3084 
Q 2600 3084 3056 2656 
Q 3513 2228 3513 1497 
Q 3513 744 3044 326 
Q 2575 -91 1722 -91 
Q 1428 -91 1123 -41 
Q 819 9 494 109 
L 494 744 
Q 775 591 1075 516 
Q 1375 441 1709 441 
Q 2250 441 2565 725 
Q 2881 1009 2881 1497 
Q 2881 1984 2565 2268 
Q 2250 2553 1709 2553 
Q 1456 2553 1204 2497 
Q 953 2441 691 2322 
L 691 4666 
z
" transform="scale(0.015625)"/>
       </defs>
       <use xlink:href="#DejaVuSans-32"/>
       <use xlink:href="#DejaVuSans-2e" x="63.623047"/>
       <use xlink:href="#DejaVuSans-35" x="95.410156"/>
      </g>
     </g>
    </g>
    <g id="xtick_3">
     <g id="line2d_5">
      <path d="M 150.056316 34.162357 
L 150.056316 10.999219 
" clip-path="url(#p522d904fb3)" style="fill: none; stroke-dasharray: 2.96,1.28; stroke-dashoffset: 0; stroke: #808080; stroke-width: 0.8"/>
     </g>
     <g id="line2d_6">
      <g>
       <use xlink:href="#m1d0356111a" x="150.056316" y="34.162357" style="stroke: #000000; stroke-width: 0.8"/>
      </g>
     </g>
     <g id="text_3">
      <!-- 5.0 -->
      <g transform="translate(142.104754 48.760794)scale(0.1 -0.1)">
       <use xlink:href="#DejaVuSans-35"/>
       <use xlink:href="#DejaVuSans-2e" x="63.623047"/>
       <use xlink:href="#DejaVuSans-30" x="95.410156"/>
      </g>
     </g>
    </g>
    <g id="xtick_4">
     <g id="line2d_7">
      <path d="M 207.964162 34.162357 
L 207.964162 10.999219 
" clip-path="url(#p522d904fb3)" style="fill: none; stroke-dasharray: 2.96,1.28; stroke-dashoffset: 0; stroke: #808080; stroke-width: 0.8"/>
     </g>
     <g id="line2d_8">
      <g>
       <use xlink:href="#m1d0356111a" x="207.964162" y="34.162357" style="stroke: #000000; stroke-width: 0.8"/>
      </g>
     </g>
     <g id="text_4">
      <!-- 7.5 -->
      <g transform="translate(200.012599 48.760794)scale(0.1 -0.1)">
       <defs>
        <path id="DejaVuSans-37" d="M 525 4666 
L 3525 4666 
L 3525 4397 
L 1831 0 
L 1172 0 
L 2766 4134 
L 525 4134 
L 525 4666 
z
" transform="scale(0.015625)"/>
       </defs>
       <use xlink:href="#DejaVuSans-37"/>
       <use xlink:href="#DejaVuSans-2e" x="63.623047"/>
       <use xlink:href="#DejaVuSans-35" x="95.410156"/>
      </g>
     </g>
    </g>
    <g id="xtick_5">
     <g id="line2d_9">
      <path d="M 265.872007 34.162357 
L 265.872007 10.999219 
" clip-path="url(#p522d904fb3)" style="fill: none; stroke-dasharray: 2.96,1.28; stroke-dashoffset: 0; stroke: #808080; stroke-width: 0.8"/>
     </g>
     <g id="line2d_10">
      <g>
       <use xlink:href="#m1d0356111a" x="265.872007" y="34.162357" style="stroke: #000000; stroke-width: 0.8"/>
      </g>
     </g>
     <g id="text_5">
      <!-- 10.0 -->
      <g transform="translate(254.739195 48.760794)scale(0.1 -0.1)">
       <defs>
        <path id="DejaVuSans-31" d="M 794 531 
L 1825 531 
L 1825 4091 
L 703 3866 
L 703 4441 
L 1819 4666 
L 2450 4666 
L 2450 531 
L 3481 531 
L 3481 0 
L 794 0 
L 794 531 
z
" transform="scale(0.015625)"/>
       </defs>
       <use xlink:href="#DejaVuSans-31"/>
       <use xlink:href="#DejaVuSans-30" x="63.623047"/>
       <use xlink:href="#DejaVuSans-2e" x="127.246094"/>
       <use xlink:href="#DejaVuSans-30" x="159.033203"/>
      </g>
     </g>
    </g>
    <g id="xtick_6">
     <g id="line2d_11">
      <path d="M 323.779853 34.162357 
L 323.779853 10.999219 
" clip-path="url(#p522d904fb3)" style="fill: none; stroke-dasharray: 2.96,1.28; stroke-dashoffset: 0; stroke: #808080; stroke-width: 0.8"/>
     </g>
     <g id="line2d_12">
      <g>
       <use xlink:href="#m1d0356111a" x="323.779853" y="34.162357" style="stroke: #000000; stroke-width: 0.8"/>
      </g>
     </g>
     <g id="text_6">
      <!-- 12.5 -->
      <g transform="translate(312.64704 48.760794)scale(0.1 -0.1)">
       <use xlink:href="#DejaVuSans-31"/>
       <use xlink:href="#DejaVuSans-32" x="63.623047"/>
       <use xlink:href="#DejaVuSans-2e" x="127.246094"/>
       <use xlink:href="#DejaVuSans-35" x="159.033203"/>
      </g>
     </g>
    </g>
    <g id="xtick_7">
     <g id="line2d_13">
      <path d="M 381.687698 34.162357 
L 381.687698 10.999219 
" clip-path="url(#p522d904fb3)" style="fill: none; stroke-dasharray: 2.96,1.28; stroke-dashoffset: 0; stroke: #808080; stroke-width: 0.8"/>
     </g>
     <g id="line2d_14">
      <g>
       <use xlink:href="#m1d0356111a" x="381.687698" y="34.162357" style="stroke: #000000; stroke-width: 0.8"/>
      </g>
     </g>
     <g id="text_7">
      <!-- 15.0 -->
      <g transform="translate(370.554886 48.760794)scale(0.1 -0.1)">
       <use xlink:href="#DejaVuSans-31"/>
       <use xlink:href="#DejaVuSans-35" x="63.623047"/>
       <use xlink:href="#DejaVuSans-2e" x="127.246094"/>
       <use xlink:href="#DejaVuSans-30" x="159.033203"/>
      </g>
     </g>
    </g>
    <g id="xtick_8">
     <g id="line2d_15">
      <path d="M 439.595544 34.162357 
L 439.595544 10.999219 
" clip-path="url(#p522d904fb3)" style="fill: none; stroke-dasharray: 2.96,1.28; stroke-dashoffset: 0; stroke: #808080; stroke-width: 0.8"/>
     </g>
     <g id="line2d_16">
      <g>
       <use xlink:href="#m1d0356111a" x="439.595544" y="34.162357" style="stroke: #000000; stroke-width: 0.8"/>
      </g>
     </g>
     <g id="text_8">
      <!-- 17.5 -->
      <g transform="translate(428.462732 48.760794)scale(0.1 -0.1)">
       <use xlink:href="#DejaVuSans-31"/>
       <use xlink:href="#DejaVuSans-37" x="63.623047"/>
       <use xlink:href="#DejaVuSans-2e" x="127.246094"/>
       <use xlink:href="#DejaVuSans-35" x="159.033203"/>
      </g>
     </g>
    </g>
    <g id="xtick_9">
     <g id="line2d_17">
      <path d="M 497.50339 34.162357 
L 497.50339 10.999219 
" clip-path="url(#p522d904fb3)" style="fill: none; stroke-dasharray: 2.96,1.28; stroke-dashoffset: 0; stroke: #808080; stroke-width: 0.8"/>
     </g>
     <g id="line2d_18">
      <g>
       <use xlink:href="#m1d0356111a" x="497.50339" y="34.162357" style="stroke: #000000; stroke-width: 0.8"/>
      </g>
     </g>
     <g id="text_9">
      <!-- 20.0 -->
      <g transform="translate(486.370577 48.760794)scale(0.1 -0.1)">
       <use xlink:href="#DejaVuSans-32"/>
       <use xlink:href="#DejaVuSans-30" x="63.623047"/>
       <use xlink:href="#DejaVuSans-2e" x="127.246094"/>
       <use xlink:href="#DejaVuSans-30" x="159.033203"/>
      </g>
     </g>
    </g>
    <g id="text_10">
     <!-- x -->
     <g transform="translate(262.912632 62.438919)scale(0.1 -0.1)">
      <defs>
       <path id="DejaVuSans-78" d="M 3513 3500 
L 2247 1797 
L 3578 0 
L 2900 0 
L 1881 1375 
L 863 0 
L 184 0 
L 1544 1831 
L 300 3500 
L 978 3500 
L 1906 2253 
L 2834 3500 
L 3513 3500 
z
" transform="scale(0.015625)"/>
      </defs>
      <use xlink:href="#DejaVuSans-78"/>
     </g>
    </g>
   </g>
   <g id="matplotlib.axis_2">
    <g id="ytick_1">
     <g id="line2d_19">
      <path d="M 34.240625 34.162357 
L 497.50339 34.162357 
" clip-path="url(#p522d904fb3)" style="fill: none; stroke-dasharray: 2.96,1.28; stroke-dashoffset: 0; stroke: #808080; stroke-width: 0.8"/>
     </g>
     <g id="line2d_20">
      <defs>
       <path id="m67ee2656ba" d="M 0 0 
L -3.5 0 
" style="stroke: #000000; stroke-width: 0.8"/>
      </defs>
      <g>
       <use xlink:href="#m67ee2656ba" x="34.240625" y="34.162357" style="stroke: #000000; stroke-width: 0.8"/>
      </g>
     </g>
     <g id="text_11">
      <!-- 0 -->
      <g transform="translate(20.878125 37.961576)scale(0.1 -0.1)">
       <use xlink:href="#DejaVuSans-30"/>
      </g>
     </g>
    </g>
    <g id="ytick_2">
     <g id="line2d_21">
      <path d="M 34.240625 10.999219 
L 497.50339 10.999219 
" clip-path="url(#p522d904fb3)" style="fill: none; stroke-dasharray: 2.96,1.28; stroke-dashoffset: 0; stroke: #808080; stroke-width: 0.8"/>
     </g>
     <g id="line2d_22">
      <g>
       <use xlink:href="#m67ee2656ba" x="34.240625" y="10.999219" style="stroke: #000000; stroke-width: 0.8"/>
      </g>
     </g>
     <g id="text_12">
      <!-- 1 -->
      <g transform="translate(20.878125 14.798437)scale(0.1 -0.1)">
       <use xlink:href="#DejaVuSans-31"/>
      </g>
     </g>
    </g>
    <g id="text_13">
     <!-- y -->
     <g transform="translate(14.798438 25.540163)rotate(-90)scale(0.1 -0.1)">
      <defs>
       <path id="DejaVuSans-79" d="M 2059 -325 
Q 1816 -950 1584 -1140 
Q 1353 -1331 966 -1331 
L 506 -1331 
L 506 -850 
L 844 -850 
Q 1081 -850 1212 -737 
Q 1344 -625 1503 -206 
L 1606 56 
L 191 3500 
L 800 3500 
L 1894 763 
L 2988 3500 
L 3597 3500 
L 2059 -325 
z
" transform="scale(0.015625)"/>
      </defs>
      <use xlink:href="#DejaVuSans-79"/>
     </g>
    </g>
   </g>
   <g id="patch_3">
    <path d="M 34.240625 34.162357 
L 80.566901 34.162357 
L 80.566901 10.999219 
L 34.240625 10.999219 
L 34.240625 34.162357 
" style="fill: #e3f3ff; stroke: #0055d4; stroke-width: 1.5; stroke-linejoin: miter"/>
   </g>
   <g id="patch_4">
    <path d="M 80.566901 34.162357 
L 126.893178 34.162357 
L 126.893178 10.999219 
L 80.566901 10.999219 
L 80.566901 34.162357 
" style="fill: #e3f3ff; stroke: #0055d4; stroke-width: 1.5; stroke-linejoin: miter"/>
   </g>
   <g id="patch_5">
    <path d="M 126.893178 34.162357 
L 173.219454 34.162357 
L 173.219454 10.999219 
L 126.893178 10.999219 
L 126.893178 34.162357 
" style="fill: #e3f3ff; stroke: #0055d4; stroke-width: 1.5; stroke-linejoin: miter"/>
   </g>
   <g id="patch_6">
    <path d="M 173.219454 34.162357 
L 219.545731 34.162357 
L 219.545731 10.999219 
L 173.219454 10.999219 
L 173.219454 34.162357 
" style="fill: #e3f3ff; stroke: #0055d4; stroke-width: 1.5; stroke-linejoin: miter"/>
   </g>
   <g id="patch_7">
    <path d="M 219.545731 34.162357 
L 265.872007 34.162357 
L 265.872007 10.999219 
L 219.545731 10.999219 
L 219.545731 34.162357 
" style="fill: #e3f3ff; stroke: #0055d4; stroke-width: 1.5; stroke-linejoin: miter"/>
   </g>
   <g id="patch_8">
    <path d="M 265.872007 34.162357 
L 312.198284 34.162357 
L 312.198284 10.999219 
L 265.872007 10.999219 
L 265.872007 34.162357 
" style="fill: #e3f3ff; stroke: #0055d4; stroke-width: 1.5; stroke-linejoin: miter"/>
   </g>
   <g id="patch_9">
    <path d="M 312.198284 34.162357 
L 358.52456 34.162357 
L 358.52456 10.999219 
L 312.198284 10.999219 
L 312.198284 34.162357 
" style="fill: #e3f3ff; stroke: #0055d4; stroke-width: 1.5; stroke-linejoin: miter"/>
   </g>
   <g id="patch_10">
    <path d="M 358.52456 34.162357 
L 404.850837 34.162357 
L 404.850837 10.999219 
L 358.52456 10.999219 
L 358.52456 34.162357 
" style="fill: #e3f3ff; stroke: #0055d4; stroke-width: 1.5; stroke-linejoin: miter"/>
   </g>
   <g id="patch_11">
    <path d="M 404.850837 34.162357 
L 451.177113 34.162357 
L 451.177113 10.999219 
L 404.850837 10.999219 
L 404.850837 34.162357 
" style="fill: #e3f3ff; stroke: #0055d4; stroke-width: 1.5; stroke-linejoin: miter"/>
   </g>
   <g id="patch_12">
    <path d="M 451.177113 34.162357 
L 497.50339 34.162357 
L 497.50339 10.999219 
L 451.177113 10.999219 
L 451.177113 34.162357 
" style="fill: #e3f3ff; stroke: #0055d4; stroke-width: 1.5; stroke-linejoin: miter"/>
   </g>
   <g id="patch_13">
    <path d="M 34.240625 34.162357 
L 34.240625 10.999219 
" style="fill: none; stroke: #000000; stroke-width: 0.8; stroke-linejoin: miter; stroke-linecap: square"/>
   </g>
   <g id="patch_14">
    <path d="M 497.50339 34.162357 
L 497.50339 10.999219 
" style="fill: none; stroke: #000000; stroke-width: 0.8; stroke-linejoin: miter; stroke-linecap: square"/>
   </g>
   <g id="patch_15">
    <path d="M 34.240625 34.162357 
L 497.50339 34.162357 
" style="fill: none; stroke: #000000; stroke-width: 0.8; stroke-linejoin: miter; stroke-linecap: square"/>
   </g>
   <g id="patch_16">
    <path d="M 34.240625 10.999219 
L 497.50339 10.999219 
" style="fill: none; stroke: #000000; stroke-width: 0.8; stroke-linejoin: miter; stroke-linecap: square"/>
   </g>
   <g id="text_14">
    <g id="patch_17">
     <path d="M 44.709544 28.285944 
L 70.097982 28.285944 
L 70.097982 16.875632 
L 44.709544 16.875632 
z
" style="fill: #ffffff; stroke: #b7b7b7; stroke-linejoin: miter"/>
    </g>
    <!-- 0 a 1 -->
    <g style="fill: #22971f" transform="translate(46.059544 25.064225)scale(0.09 -0.09)">
     <defs>
      <path id="DejaVuSans-20" transform="scale(0.015625)"/>
      <path id="DejaVuSans-61" d="M 2194 1759 
Q 1497 1759 1228 1600 
Q 959 1441 959 1056 
Q 959 750 1161 570 
Q 1363 391 1709 391 
Q 2188 391 2477 730 
Q 2766 1069 2766 1631 
L 2766 1759 
L 2194 1759 
z
M 3341 1997 
L 3341 0 
L 2766 0 
L 2766 531 
Q 2569 213 2275 61 
Q 1981 -91 1556 -91 
Q 1019 -91 701 211 
Q 384 513 384 1019 
Q 384 1609 779 1909 
Q 1175 2209 1959 2209 
L 2766 2209 
L 2766 2266 
Q 2766 2663 2505 2880 
Q 2244 3097 1772 3097 
Q 1472 3097 1187 3025 
Q 903 2953 641 2809 
L 641 3341 
Q 956 3463 1253 3523 
Q 1550 3584 1831 3584 
Q 2591 3584 2966 3190 
Q 3341 2797 3341 1997 
z
" transform="scale(0.015625)"/>
     </defs>
     <use xlink:href="#DejaVuSans-30"/>
     <use xlink:href="#DejaVuSans-20" x="63.623047"/>
     <use xlink:href="#DejaVuSans-61" x="95.410156"/>
     <use xlink:href="#DejaVuSans-20" x="156.689453"/>
     <use xlink:href="#DejaVuSans-31" x="188.476562"/>
    </g>
   </g>
   <g id="text_15">
    <g id="patch_18">
     <path d="M 91.035821 28.285944 
L 116.424258 28.285944 
L 116.424258 16.875632 
L 91.035821 16.875632 
z
" style="fill: #ffffff; stroke: #b7b7b7; stroke-linejoin: miter"/>
    </g>
    <!-- 1 a 1 -->
    <g style="fill: #22971f" transform="translate(92.385821 25.064225)scale(0.09 -0.09)">
     <use xlink:href="#DejaVuSans-31"/>
     <use xlink:href="#DejaVuSans-20" x="63.623047"/>
     <use xlink:href="#DejaVuSans-61" x="95.410156"/>
     <use xlink:href="#DejaVuSans-20" x="156.689453"/>
     <use xlink:href="#DejaVuSans-31" x="188.476562"/>
    </g>
   </g>
   <g id="text_16">
    <g id="patch_19">
     <path d="M 137.362097 28.285944 
L 162.750535 28.285944 
L 162.750535 16.875632 
L 137.362097 16.875632 
z
" style="fill: #ffffff; stroke: #b7b7b7; stroke-linejoin: miter"/>
    </g>
    <!-- 2 a 1 -->
    <g style="fill: #22971f" transform="translate(138.712097 25.064225)scale(0.09 -0.09)">
     <use xlink:href="#DejaVuSans-32"/>
     <use xlink:href="#DejaVuSans-20" x="63.623047"/>
     <use xlink:href="#DejaVuSans-61" x="95.410156"/>
     <use xlink:href="#DejaVuSans-20" x="156.689453"/>
     <use xlink:href="#DejaVuSans-31" x="188.476562"/>
    </g>
   </g>
   <g id="text_17">
    <g id="patch_20">
     <path d="M 183.688374 28.285944 
L 209.076811 28.285944 
L 209.076811 16.875632 
L 183.688374 16.875632 
z
" style="fill: #ffffff; stroke: #b7b7b7; stroke-linejoin: miter"/>
    </g>
    <!-- 3 a 1 -->
    <g style="fill: #22971f" transform="translate(185.038374 25.064225)scale(0.09 -0.09)">
     <defs>
      <path id="DejaVuSans-33" d="M 2597 2516 
Q 3050 2419 3304 2112 
Q 3559 1806 3559 1356 
Q 3559 666 3084 287 
Q 2609 -91 1734 -91 
Q 1441 -91 1130 -33 
Q 819 25 488 141 
L 488 750 
Q 750 597 1062 519 
Q 1375 441 1716 441 
Q 2309 441 2620 675 
Q 2931 909 2931 1356 
Q 2931 1769 2642 2001 
Q 2353 2234 1838 2234 
L 1294 2234 
L 1294 2753 
L 1863 2753 
Q 2328 2753 2575 2939 
Q 2822 3125 2822 3475 
Q 2822 3834 2567 4026 
Q 2313 4219 1838 4219 
Q 1578 4219 1281 4162 
Q 984 4106 628 3988 
L 628 4550 
Q 988 4650 1302 4700 
Q 1616 4750 1894 4750 
Q 2613 4750 3031 4423 
Q 3450 4097 3450 3541 
Q 3450 3153 3228 2886 
Q 3006 2619 2597 2516 
z
" transform="scale(0.015625)"/>
     </defs>
     <use xlink:href="#DejaVuSans-33"/>
     <use xlink:href="#DejaVuSans-20" x="63.623047"/>
     <use xlink:href="#DejaVuSans-61" x="95.410156"/>
     <use xlink:href="#DejaVuSans-20" x="156.689453"/>
     <use xlink:href="#DejaVuSans-31" x="188.476562"/>
    </g>
   </g>
   <g id="text_18">
    <g id="patch_21">
     <path d="M 230.01465 28.285944 
L 255.403088 28.285944 
L 255.403088 16.875632 
L 230.01465 16.875632 
z
" style="fill: #ffffff; stroke: #b7b7b7; stroke-linejoin: miter"/>
    </g>
    <!-- 4 a 1 -->
    <g style="fill: #22971f" transform="translate(231.36465 25.064225)scale(0.09 -0.09)">
     <defs>
      <path id="DejaVuSans-34" d="M 2419 4116 
L 825 1625 
L 2419 1625 
L 2419 4116 
z
M 2253 4666 
L 3047 4666 
L 3047 1625 
L 3713 1625 
L 3713 1100 
L 3047 1100 
L 3047 0 
L 2419 0 
L 2419 1100 
L 313 1100 
L 313 1709 
L 2253 4666 
z
" transform="scale(0.015625)"/>
     </defs>
     <use xlink:href="#DejaVuSans-34"/>
     <use xlink:href="#DejaVuSans-20" x="63.623047"/>
     <use xlink:href="#DejaVuSans-61" x="95.410156"/>
     <use xlink:href="#DejaVuSans-20" x="156.689453"/>
     <use xlink:href="#DejaVuSans-31" x="188.476562"/>
    </g>
   </g>
   <g id="text_19">
    <g id="patch_22">
     <path d="M 276.340927 28.285944 
L 301.729364 28.285944 
L 301.729364 16.875632 
L 276.340927 16.875632 
z
" style="fill: #ffffff; stroke: #b7b7b7; stroke-linejoin: miter"/>
    </g>
    <!-- 5 a 1 -->
    <g style="fill: #22971f" transform="translate(277.690927 25.064225)scale(0.09 -0.09)">
     <use xlink:href="#DejaVuSans-35"/>
     <use xlink:href="#DejaVuSans-20" x="63.623047"/>
     <use xlink:href="#DejaVuSans-61" x="95.410156"/>
     <use xlink:href="#DejaVuSans-20" x="156.689453"/>
     <use xlink:href="#DejaVuSans-31" x="188.476562"/>
    </g>
   </g>
   <g id="text_20">
    <g id="patch_23">
     <path d="M 322.667203 28.285944 
L 348.055641 28.285944 
L 348.055641 16.875632 
L 322.667203 16.875632 
z
" style="fill: #ffffff; stroke: #b7b7b7; stroke-linejoin: miter"/>
    </g>
    <!-- 6 a 1 -->
    <g style="fill: #22971f" transform="translate(324.017203 25.064225)scale(0.09 -0.09)">
     <defs>
      <path id="DejaVuSans-36" d="M 2113 2584 
Q 1688 2584 1439 2293 
Q 1191 2003 1191 1497 
Q 1191 994 1439 701 
Q 1688 409 2113 409 
Q 2538 409 2786 701 
Q 3034 994 3034 1497 
Q 3034 2003 2786 2293 
Q 2538 2584 2113 2584 
z
M 3366 4563 
L 3366 3988 
Q 3128 4100 2886 4159 
Q 2644 4219 2406 4219 
Q 1781 4219 1451 3797 
Q 1122 3375 1075 2522 
Q 1259 2794 1537 2939 
Q 1816 3084 2150 3084 
Q 2853 3084 3261 2657 
Q 3669 2231 3669 1497 
Q 3669 778 3244 343 
Q 2819 -91 2113 -91 
Q 1303 -91 875 529 
Q 447 1150 447 2328 
Q 447 3434 972 4092 
Q 1497 4750 2381 4750 
Q 2619 4750 2861 4703 
Q 3103 4656 3366 4563 
z
" transform="scale(0.015625)"/>
     </defs>
     <use xlink:href="#DejaVuSans-36"/>
     <use xlink:href="#DejaVuSans-20" x="63.623047"/>
     <use xlink:href="#DejaVuSans-61" x="95.410156"/>
     <use xlink:href="#DejaVuSans-20" x="156.689453"/>
     <use xlink:href="#DejaVuSans-31" x="188.476562"/>
    </g>
   </g>
   <g id="text_21">
    <g id="patch_24">
     <path d="M 368.99348 28.285944 
L 394.381917 28.285944 
L 394.381917 16.875632 
L 368.99348 16.875632 
z
" style="fill: #ffffff; stroke: #b7b7b7; stroke-linejoin: miter"/>
    </g>
    <!-- 7 a 1 -->
    <g style="fill: #22971f" transform="translate(370.34348 25.064225)scale(0.09 -0.09)">
     <use xlink:href="#DejaVuSans-37"/>
     <use xlink:href="#DejaVuSans-20" x="63.623047"/>
     <use xlink:href="#DejaVuSans-61" x="95.410156"/>
     <use xlink:href="#DejaVuSans-20" x="156.689453"/>
     <use xlink:href="#DejaVuSans-31" x="188.476562"/>
    </g>
   </g>
   <g id="text_22">
    <g id="patch_25">
     <path d="M 415.319756 28.285944 
L 440.708194 28.285944 
L 440.708194 16.875632 
L 415.319756 16.875632 
z
" style="fill: #ffffff; stroke: #b7b7b7; stroke-linejoin: miter"/>
    </g>
    <!-- 8 a 1 -->
    <g style="fill: #22971f" transform="translate(416.669756 25.064225)scale(0.09 -0.09)">
     <defs>
      <path id="DejaVuSans-38" d="M 2034 2216 
Q 1584 2216 1326 1975 
Q 1069 1734 1069 1313 
Q 1069 891 1326 650 
Q 1584 409 2034 409 
Q 2484 409 2743 651 
Q 3003 894 3003 1313 
Q 3003 1734 2745 1975 
Q 2488 2216 2034 2216 
z
M 1403 2484 
Q 997 2584 770 2862 
Q 544 3141 544 3541 
Q 544 4100 942 4425 
Q 1341 4750 2034 4750 
Q 2731 4750 3128 4425 
Q 3525 4100 3525 3541 
Q 3525 3141 3298 2862 
Q 3072 2584 2669 2484 
Q 3125 2378 3379 2068 
Q 3634 1759 3634 1313 
Q 3634 634 3220 271 
Q 2806 -91 2034 -91 
Q 1263 -91 848 271 
Q 434 634 434 1313 
Q 434 1759 690 2068 
Q 947 2378 1403 2484 
z
M 1172 3481 
Q 1172 3119 1398 2916 
Q 1625 2713 2034 2713 
Q 2441 2713 2670 2916 
Q 2900 3119 2900 3481 
Q 2900 3844 2670 4047 
Q 2441 4250 2034 4250 
Q 1625 4250 1398 4047 
Q 1172 3844 1172 3481 
z
" transform="scale(0.015625)"/>
     </defs>
     <use xlink:href="#DejaVuSans-38"/>
     <use xlink:href="#DejaVuSans-20" x="63.623047"/>
     <use xlink:href="#DejaVuSans-61" x="95.410156"/>
     <use xlink:href="#DejaVuSans-20" x="156.689453"/>
     <use xlink:href="#DejaVuSans-31" x="188.476562"/>
    </g>
   </g>
   <g id="text_23">
    <g id="patch_26">
     <path d="M 461.646033 28.285944 
L 487.03447 28.285944 
L 487.03447 16.875632 
L 461.646033 16.875632 
z
" style="fill: #ffffff; stroke: #b7b7b7; stroke-linejoin: miter"/>
    </g>
    <!-- 9 a 1 -->
    <g style="fill: #22971f" transform="translate(462.996033 25.064225)scale(0.09 -0.09)">
     <defs>
      <path id="DejaVuSans-39" d="M 703 97 
L 703 672 
Q 941 559 1184 500 
Q 1428 441 1663 441 
Q 2288 441 2617 861 
Q 2947 1281 2994 2138 
Q 2813 1869 2534 1725 
Q 2256 1581 1919 1581 
Q 1219 1581 811 2004 
Q 403 2428 403 3163 
Q 403 3881 828 4315 
Q 1253 4750 1959 4750 
Q 2769 4750 3195 4129 
Q 3622 3509 3622 2328 
Q 3622 1225 3098 567 
Q 2575 -91 1691 -91 
Q 1453 -91 1209 -44 
Q 966 3 703 97 
z
M 1959 2075 
Q 2384 2075 2632 2365 
Q 2881 2656 2881 3163 
Q 2881 3666 2632 3958 
Q 2384 4250 1959 4250 
Q 1534 4250 1286 3958 
Q 1038 3666 1038 3163 
Q 1038 2656 1286 2365 
Q 1534 2075 1959 2075 
z
" transform="scale(0.015625)"/>
     </defs>
     <use xlink:href="#DejaVuSans-39"/>
     <use xlink:href="#DejaVuSans-20" x="63.623047"/>
     <use xlink:href="#DejaVuSans-61" x="95.410156"/>
     <use xlink:href="#DejaVuSans-20" x="156.689453"/>
     <use xlink:href="#DejaVuSans-31" x="188.476562"/>
    </g>
   </g>
   <g id="text_24">
    <g id="patch_27">
     <path d="M 34.240625 39.233607 
C 35.585536 39.233607 36.875544 38.699268 37.82654 37.748272 
C 38.777536 36.797276 39.311875 35.507268 39.311875 34.162357 
C 39.311875 32.817446 38.777536 31.527438 37.82654 30.576442 
C 36.875544 29.625446 35.585536 29.091107 34.240625 29.091107 
C 32.895714 29.091107 31.605706 29.625446 30.65471 30.576442 
C 29.703714 31.527438 29.169375 32.817446 29.169375 34.162357 
C 29.169375 35.507268 29.703714 36.797276 30.65471 37.748272 
C 31.605706 38.699268 32.895714 39.233607 34.240625 39.233607 
z
" style="fill: #ffffff"/>
    </g>
    <!-- 0 -->
    <g style="fill: #ff0000" transform="translate(31.695625 36.369857)scale(0.08 -0.08)">
     <use xlink:href="#DejaVuSans-30"/>
    </g>
   </g>
   <g id="text_25">
    <g id="patch_28">
     <path d="M 80.566901 39.233607 
C 81.911813 39.233607 83.201821 38.699268 84.152817 37.748272 
C 85.103813 36.797276 85.638151 35.507268 85.638151 34.162357 
C 85.638151 32.817446 85.103813 31.527438 84.152817 30.576442 
C 83.201821 29.625446 81.911813 29.091107 80.566901 29.091107 
C 79.22199 29.091107 77.931982 29.625446 76.980986 30.576442 
C 76.02999 31.527438 75.495651 32.817446 75.495651 34.162357 
C 75.495651 35.507268 76.02999 36.797276 76.980986 37.748272 
C 77.931982 38.699268 79.22199 39.233607 80.566901 39.233607 
z
" style="fill: #ffffff"/>
    </g>
    <!-- 1 -->
    <g style="fill: #ff0000" transform="translate(78.021901 36.369857)scale(0.08 -0.08)">
     <use xlink:href="#DejaVuSans-31"/>
    </g>
   </g>
   <g id="text_26">
    <g id="patch_29">
     <path d="M 80.566901 16.070469 
C 81.911813 16.070469 83.201821 15.53613 84.152817 14.585134 
C 85.103813 13.634138 85.638151 12.34413 85.638151 10.999219 
C 85.638151 9.654308 85.103813 8.364299 84.152817 7.413303 
C 83.201821 6.462308 81.911813 5.927969 80.566901 5.927969 
C 79.22199 5.927969 77.931982 6.462308 76.980986 7.413303 
C 76.02999 8.364299 75.495651 9.654308 75.495651 10.999219 
C 75.495651 12.34413 76.02999 13.634138 76.980986 14.585134 
C 77.931982 15.53613 79.22199 16.070469 80.566901 16.070469 
z
" style="fill: #ffffff"/>
    </g>
    <!-- 2 -->
    <g style="fill: #ff0000" transform="translate(78.021901 13.206719)scale(0.08 -0.08)">
     <use xlink:href="#DejaVuSans-32"/>
    </g>
   </g>
   <g id="text_27">
    <g id="patch_30">
     <path d="M 34.240625 16.070469 
C 35.585536 16.070469 36.875544 15.53613 37.82654 14.585134 
C 38.777536 13.634138 39.311875 12.34413 39.311875 10.999219 
C 39.311875 9.654308 38.777536 8.364299 37.82654 7.413303 
C 36.875544 6.462308 35.585536 5.927969 34.240625 5.927969 
C 32.895714 5.927969 31.605706 6.462308 30.65471 7.413303 
C 29.703714 8.364299 29.169375 9.654308 29.169375 10.999219 
C 29.169375 12.34413 29.703714 13.634138 30.65471 14.585134 
C 31.605706 15.53613 32.895714 16.070469 34.240625 16.070469 
z
" style="fill: #ffffff"/>
    </g>
    <!-- 3 -->
    <g style="fill: #ff0000" transform="translate(31.695625 13.206719)scale(0.08 -0.08)">
     <use xlink:href="#DejaVuSans-33"/>
    </g>
   </g>
   <g id="text_28">
    <g id="patch_31">
     <path d="M 126.893178 39.233607 
C 128.238089 39.233607 129.528097 38.699268 130.479093 37.748272 
C 131.430089 36.797276 131.964428 35.507268 131.964428 34.162357 
C 131.964428 32.817446 131.430089 31.527438 130.479093 30.576442 
C 129.528097 29.625446 128.238089 29.091107 126.893178 29.091107 
C 125.548267 29.091107 124.258259 29.625446 123.307263 30.576442 
C 122.356267 31.527438 121.821928 32.817446 121.821928 34.162357 
C 121.821928 35.507268 122.356267 36.797276 123.307263 37.748272 
C 124.258259 38.699268 125.548267 39.233607 126.893178 39.233607 
z
" style="fill: #ffffff"/>
    </g>
    <!-- 4 -->
    <g style="fill: #ff0000" transform="translate(124.348178 36.369857)scale(0.08 -0.08)">
     <use xlink:href="#DejaVuSans-34"/>
    </g>
   </g>
   <g id="text_29">
    <g id="patch_32">
     <path d="M 126.893178 16.070469 
C 128.238089 16.070469 129.528097 15.53613 130.479093 14.585134 
C 131.430089 13.634138 131.964428 12.34413 131.964428 10.999219 
C 131.964428 9.654308 131.430089 8.364299 130.479093 7.413303 
C 129.528097 6.462308 128.238089 5.927969 126.893178 5.927969 
C 125.548267 5.927969 124.258259 6.462308 123.307263 7.413303 
C 122.356267 8.364299 121.821928 9.654308 121.821928 10.999219 
C 121.821928 12.34413 122.356267 13.634138 123.307263 14.585134 
C 124.258259 15.53613 125.548267 16.070469 126.893178 16.070469 
z
" style="fill: #ffffff"/>
    </g>
    <!-- 5 -->
    <g style="fill: #ff0000" transform="translate(124.348178 13.206719)scale(0.08 -0.08)">
     <use xlink:href="#DejaVuSans-35"/>
    </g>
   </g>
   <g id="text_30">
    <g id="patch_33">
     <path d="M 173.219454 39.233607 
C 174.564366 39.233607 175.854374 38.699268 176.80537 37.748272 
C 177.756365 36.797276 178.290704 35.507268 178.290704 34.162357 
C 178.290704 32.817446 177.756365 31.527438 176.80537 30.576442 
C 175.854374 29.625446 174.564366 29.091107 173.219454 29.091107 
C 171.874543 29.091107 170.584535 29.625446 169.633539 30.576442 
C 168.682543 31.527438 168.148204 32.817446 168.148204 34.162357 
C 168.148204 35.507268 168.682543 36.797276 169.633539 37.748272 
C 170.584535 38.699268 171.874543 39.233607 173.219454 39.233607 
z
" style="fill: #ffffff"/>
    </g>
    <!-- 6 -->
    <g style="fill: #ff0000" transform="translate(170.674454 36.369857)scale(0.08 -0.08)">
     <use xlink:href="#DejaVuSans-36"/>
    </g>
   </g>
   <g id="text_31">
    <g id="patch_34">
     <path d="M 173.219454 16.070469 
C 174.564366 16.070469 175.854374 15.53613 176.80537 14.585134 
C 177.756365 13.634138 178.290704 12.34413 178.290704 10.999219 
C 178.290704 9.654308 177.756365 8.364299 176.80537 7.413303 
C 175.854374 6.462308 174.564366 5.927969 173.219454 5.927969 
C 171.874543 5.927969 170.584535 6.462308 169.633539 7.413303 
C 168.682543 8.364299 168.148204 9.654308 168.148204 10.999219 
C 168.148204 12.34413 168.682543 13.634138 169.633539 14.585134 
C 170.584535 15.53613 171.874543 16.070469 173.219454 16.070469 
z
" style="fill: #ffffff"/>
    </g>
    <!-- 7 -->
    <g style="fill: #ff0000" transform="translate(170.674454 13.206719)scale(0.08 -0.08)">
     <use xlink:href="#DejaVuSans-37"/>
    </g>
   </g>
   <g id="text_32">
    <g id="patch_35">
     <path d="M 219.545731 39.233607 
C 220.890642 39.233607 222.18065 38.699268 223.131646 37.748272 
C 224.082642 36.797276 224.616981 35.507268 224.616981 34.162357 
C 224.616981 32.817446 224.082642 31.527438 223.131646 30.576442 
C 222.18065 29.625446 220.890642 29.091107 219.545731 29.091107 
C 218.20082 29.091107 216.910811 29.625446 215.959816 30.576442 
C 215.00882 31.527438 214.474481 32.817446 214.474481 34.162357 
C 214.474481 35.507268 215.00882 36.797276 215.959816 37.748272 
C 216.910811 38.699268 218.20082 39.233607 219.545731 39.233607 
z
" style="fill: #ffffff"/>
    </g>
    <!-- 8 -->
    <g style="fill: #ff0000" transform="translate(217.000731 36.369857)scale(0.08 -0.08)">
     <use xlink:href="#DejaVuSans-38"/>
    </g>
   </g>
   <g id="text_33">
    <g id="patch_36">
     <path d="M 219.545731 16.070469 
C 220.890642 16.070469 222.18065 15.53613 223.131646 14.585134 
C 224.082642 13.634138 224.616981 12.34413 224.616981 10.999219 
C 224.616981 9.654308 224.082642 8.364299 223.131646 7.413303 
C 222.18065 6.462308 220.890642 5.927969 219.545731 5.927969 
C 218.20082 5.927969 216.910811 6.462308 215.959816 7.413303 
C 215.00882 8.364299 214.474481 9.654308 214.474481 10.999219 
C 214.474481 12.34413 215.00882 13.634138 215.959816 14.585134 
C 216.910811 15.53613 218.20082 16.070469 219.545731 16.070469 
z
" style="fill: #ffffff"/>
    </g>
    <!-- 9 -->
    <g style="fill: #ff0000" transform="translate(217.000731 13.206719)scale(0.08 -0.08)">
     <use xlink:href="#DejaVuSans-39"/>
    </g>
   </g>
   <g id="text_34">
    <g id="patch_37">
     <path d="M 265.872007 40.452357 
C 267.540135 40.452357 269.140165 39.789603 270.319709 38.610059 
C 271.499253 37.430514 272.162007 35.830484 272.162007 34.162357 
C 272.162007 32.494229 271.499253 30.8942 270.319709 29.714655 
C 269.140165 28.535111 267.540135 27.872357 265.872007 27.872357 
C 264.20388 27.872357 262.60385 28.535111 261.424306 29.714655 
C 260.244761 30.8942 259.582007 32.494229 259.582007 34.162357 
C 259.582007 35.830484 260.244761 37.430514 261.424306 38.610059 
C 262.60385 39.789603 264.20388 40.452357 265.872007 40.452357 
z
" style="fill: #ffffff"/>
    </g>
    <!-- 10 -->
    <g style="fill: #ff0000" transform="translate(260.782007 36.369857)scale(0.08 -0.08)">
     <use xlink:href="#DejaVuSans-31"/>
     <use xlink:href="#DejaVuSans-30" x="63.623047"/>
    </g>
   </g>
   <g id="text_35">
    <g id="patch_38">
     <path d="M 265.872007 17.289219 
C 267.540135 17.289219 269.140165 16.626465 270.319709 15.44692 
C 271.499253 14.267376 272.162007 12.667346 272.162007 10.999219 
C 272.162007 9.331091 271.499253 7.731061 270.319709 6.551517 
C 269.140165 5.371973 267.540135 4.709219 265.872007 4.709219 
C 264.20388 4.709219 262.60385 5.371973 261.424306 6.551517 
C 260.244761 7.731061 259.582007 9.331091 259.582007 10.999219 
C 259.582007 12.667346 260.244761 14.267376 261.424306 15.44692 
C 262.60385 16.626465 264.20388 17.289219 265.872007 17.289219 
z
" style="fill: #ffffff"/>
    </g>
    <!-- 11 -->
    <g style="fill: #ff0000" transform="translate(260.782007 13.206719)scale(0.08 -0.08)">
     <use xlink:href="#DejaVuSans-31"/>
     <use xlink:href="#DejaVuSans-31" x="63.623047"/>
    </g>
   </g>
   <g id="text_36">
    <g id="patch_39">
     <path d="M 312.198284 40.452357 
C 313.866411 40.452357 315.466441 39.789603 316.645985 38.610059 
C 317.82553 37.430514 318.488284 35.830484 318.488284 34.162357 
C 318.488284 32.494229 317.82553 30.8942 316.645985 29.714655 
C 315.466441 28.535111 313.866411 27.872357 312.198284 27.872357 
C 310.530156 27.872357 308.930126 28.535111 307.750582 29.714655 
C 306.571038 30.8942 305.908284 32.494229 305.908284 34.162357 
C 305.908284 35.830484 306.571038 37.430514 307.750582 38.610059 
C 308.930126 39.789603 310.530156 40.452357 312.198284 40.452357 
z
" style="fill: #ffffff"/>
    </g>
    <!-- 12 -->
    <g style="fill: #ff0000" transform="translate(307.108284 36.369857)scale(0.08 -0.08)">
     <use xlink:href="#DejaVuSans-31"/>
     <use xlink:href="#DejaVuSans-32" x="63.623047"/>
    </g>
   </g>
   <g id="text_37">
    <g id="patch_40">
     <path d="M 312.198284 17.289219 
C 313.866411 17.289219 315.466441 16.626465 316.645985 15.44692 
C 317.82553 14.267376 318.488284 12.667346 318.488284 10.999219 
C 318.488284 9.331091 317.82553 7.731061 316.645985 6.551517 
C 315.466441 5.371973 313.866411 4.709219 312.198284 4.709219 
C 310.530156 4.709219 308.930126 5.371973 307.750582 6.551517 
C 306.571038 7.731061 305.908284 9.331091 305.908284 10.999219 
C 305.908284 12.667346 306.571038 14.267376 307.750582 15.44692 
C 308.930126 16.626465 310.530156 17.289219 312.198284 17.289219 
z
" style="fill: #ffffff"/>
    </g>
    <!-- 13 -->
    <g style="fill: #ff0000" transform="translate(307.108284 13.206719)scale(0.08 -0.08)">
     <use xlink:href="#DejaVuSans-31"/>
     <use xlink:href="#DejaVuSans-33" x="63.623047"/>
    </g>
   </g>
   <g id="text_38">
    <g id="patch_41">
     <path d="M 358.52456 40.452357 
C 360.192688 40.452357 361.792718 39.789603 362.972262 38.610059 
C 364.151806 37.430514 364.81456 35.830484 364.81456 34.162357 
C 364.81456 32.494229 364.151806 30.8942 362.972262 29.714655 
C 361.792718 28.535111 360.192688 27.872357 358.52456 27.872357 
C 356.856433 27.872357 355.256403 28.535111 354.076859 29.714655 
C 352.897314 30.8942 352.23456 32.494229 352.23456 34.162357 
C 352.23456 35.830484 352.897314 37.430514 354.076859 38.610059 
C 355.256403 39.789603 356.856433 40.452357 358.52456 40.452357 
z
" style="fill: #ffffff"/>
    </g>
    <!-- 14 -->
    <g style="fill: #ff0000" transform="translate(353.43456 36.369857)scale(0.08 -0.08)">
     <use xlink:href="#DejaVuSans-31"/>
     <use xlink:href="#DejaVuSans-34" x="63.623047"/>
    </g>
   </g>
   <g id="text_39">
    <g id="patch_42">
     <path d="M 358.52456 17.289219 
C 360.192688 17.289219 361.792718 16.626465 362.972262 15.44692 
C 364.151806 14.267376 364.81456 12.667346 364.81456 10.999219 
C 364.81456 9.331091 364.151806 7.731061 362.972262 6.551517 
C 361.792718 5.371973 360.192688 4.709219 358.52456 4.709219 
C 356.856433 4.709219 355.256403 5.371973 354.076859 6.551517 
C 352.897314 7.731061 352.23456 9.331091 352.23456 10.999219 
C 352.23456 12.667346 352.897314 14.267376 354.076859 15.44692 
C 355.256403 16.626465 356.856433 17.289219 358.52456 17.289219 
z
" style="fill: #ffffff"/>
    </g>
    <!-- 15 -->
    <g style="fill: #ff0000" transform="translate(353.43456 13.206719)scale(0.08 -0.08)">
     <use xlink:href="#DejaVuSans-31"/>
     <use xlink:href="#DejaVuSans-35" x="63.623047"/>
    </g>
   </g>
   <g id="text_40">
    <g id="patch_43">
     <path d="M 404.850837 40.452357 
C 406.518964 40.452357 408.118994 39.789603 409.298538 38.610059 
C 410.478083 37.430514 411.140837 35.830484 411.140837 34.162357 
C 411.140837 32.494229 410.478083 30.8942 409.298538 29.714655 
C 408.118994 28.535111 406.518964 27.872357 404.850837 27.872357 
C 403.182709 27.872357 401.582679 28.535111 400.403135 29.714655 
C 399.223591 30.8942 398.560837 32.494229 398.560837 34.162357 
C 398.560837 35.830484 399.223591 37.430514 400.403135 38.610059 
C 401.582679 39.789603 403.182709 40.452357 404.850837 40.452357 
z
" style="fill: #ffffff"/>
    </g>
    <!-- 16 -->
    <g style="fill: #ff0000" transform="translate(399.760837 36.369857)scale(0.08 -0.08)">
     <use xlink:href="#DejaVuSans-31"/>
     <use xlink:href="#DejaVuSans-36" x="63.623047"/>
    </g>
   </g>
   <g id="text_41">
    <g id="patch_44">
     <path d="M 404.850837 17.289219 
C 406.518964 17.289219 408.118994 16.626465 409.298538 15.44692 
C 410.478083 14.267376 411.140837 12.667346 411.140837 10.999219 
C 411.140837 9.331091 410.478083 7.731061 409.298538 6.551517 
C 408.118994 5.371973 406.518964 4.709219 404.850837 4.709219 
C 403.182709 4.709219 401.582679 5.371973 400.403135 6.551517 
C 399.223591 7.731061 398.560837 9.331091 398.560837 10.999219 
C 398.560837 12.667346 399.223591 14.267376 400.403135 15.44692 
C 401.582679 16.626465 403.182709 17.289219 404.850837 17.289219 
z
" style="fill: #ffffff"/>
    </g>
    <!-- 17 -->
    <g style="fill: #ff0000" transform="translate(399.760837 13.206719)scale(0.08 -0.08)">
     <use xlink:href="#DejaVuSans-31"/>
     <use xlink:href="#DejaVuSans-37" x="63.623047"/>
    </g>
   </g>
   <g id="text_42">
    <g id="patch_45">
     <path d="M 451.177113 40.452357 
C 452.845241 40.452357 454.445271 39.789603 455.624815 38.610059 
C 456.804359 37.430514 457.467113 35.830484 457.467113 34.162357 
C 457.467113 32.494229 456.804359 30.8942 455.624815 29.714655 
C 454.445271 28.535111 452.845241 27.872357 451.177113 27.872357 
C 449.508986 27.872357 447.908956 28.535111 446.729412 29.714655 
C 445.549867 30.8942 444.887113 32.494229 444.887113 34.162357 
C 444.887113 35.830484 445.549867 37.430514 446.729412 38.610059 
C 447.908956 39.789603 449.508986 40.452357 451.177113 40.452357 
z
" style="fill: #ffffff"/>
    </g>
    <!-- 18 -->
    <g style="fill: #ff0000" transform="translate(446.087113 36.369857)scale(0.08 -0.08)">
     <use xlink:href="#DejaVuSans-31"/>
     <use xlink:href="#DejaVuSans-38" x="63.623047"/>
    </g>
   </g>
   <g id="text_43">
    <g id="patch_46">
     <path d="M 451.177113 17.289219 
C 452.845241 17.289219 454.445271 16.626465 455.624815 15.44692 
C 456.804359 14.267376 457.467113 12.667346 457.467113 10.999219 
C 457.467113 9.331091 456.804359 7.731061 455.624815 6.551517 
C 454.445271 5.371973 452.845241 4.709219 451.177113 4.709219 
C 449.508986 4.709219 447.908956 5.371973 446.729412 6.551517 
C 445.549867 7.731061 444.887113 9.331091 444.887113 10.999219 
C 444.887113 12.667346 445.549867 14.267376 446.729412 15.44692 
C 447.908956 16.626465 449.508986 17.289219 451.177113 17.289219 
z
" style="fill: #ffffff"/>
    </g>
    <!-- 19 -->
    <g style="fill: #ff0000" transform="translate(446.087113 13.206719)scale(0.08 -0.08)">
     <use xlink:href="#DejaVuSans-31"/>
     <use xlink:href="#DejaVuSans-39" x="63.623047"/>
    </g>
   </g>
   <g id="text_44">
    <g id="patch_47">
     <path d="M 497.50339 40.452357 
C 499.171517 40.452357 500.771547 39.789603 501.951091 38.610059 
C 503.130636 37.430514 503.79339 35.830484 503.79339 34.162357 
C 503.79339 32.494229 503.130636 30.8942 501.951091 29.714655 
C 500.771547 28.535111 499.171517 27.872357 497.50339 27.872357 
C 495.835262 27.872357 494.235232 28.535111 493.055688 29.714655 
C 491.876144 30.8942 491.21339 32.494229 491.21339 34.162357 
C 491.21339 35.830484 491.876144 37.430514 493.055688 38.610059 
C 494.235232 39.789603 495.835262 40.452357 497.50339 40.452357 
z
" style="fill: #ffffff"/>
    </g>
    <!-- 20 -->
    <g style="fill: #ff0000" transform="translate(492.41339 36.369857)scale(0.08 -0.08)">
     <use xlink:href="#DejaVuSans-32"/>
     <use xlink:href="#DejaVuSans-30" x="63.623047"/>
    </g>
   </g>
   <g id="text_45">
    <g id="patch_48">
     <path d="M 497.50339 17.289219 
C 499.171517 17.289219 500.771547 16.626465 501.951091 15.44692 
C 503.130636 14.267376 503.79339 12.667346 503.79339 10.999219 
C 503.79339 9.331091 503.130636 7.731061 501.951091 6.551517 
C 500.771547 5.371973 499.171517 4.709219 497.50339 4.709219 
C 495.835262 4.709219 494.235232 5.371973 493.055688 6.551517 
C 491.876144 7.731061 491.21339 9.331091 491.21339 10.999219 
C 491.21339 12.667346 491.876144 14.267376 493.055688 15.44692 
C 494.235232 16.626465 495.835262 17.289219 497.50339 17.289219 
z
" style="fill: #ffffff"/>
    </g>
    <!-- 21 -->
    <g style="fill: #ff0000" transform="translate(492.41339 13.206719)scale(0.08 -0.08)">
     <use xlink:href="#DejaVuSans-32"/>
     <use xlink:href="#DejaVuSans-31" x="63.623047"/>
    </g>
   </g>
  </g>
 </g>
 <defs>
  <clipPath id="p522d904fb3">
   <rect x="34.240625" y="10.999219" width="463.262765" height="23.163138"/>
  </clipPath>
 </defs>
</svg>
