# header
# ndim npoint ncell nmarked_edge nmarked_face
2 333 288 28 0

# points
# id marker x y {z}
0 0 0.0 0.0
1 0 0.0 8.0
2 0 1.0 0.0
3 0 2.0 0.0
4 0 3.0 0.0
5 0 4.0 0.0
6 0 5.0 0.0
7 0 6.0 0.0
8 0 7.0 0.0
9 0 8.0 0.0
10 0 9.0 0.0
11 0 10.0 0.0
12 0 11.0 0.0
13 0 12.0 0.0
14 0 13.0 0.0
15 0 14.0 0.0
16 0 15.0 0.0
17 0 16.0 0.0
18 0 17.0 0.0
19 0 18.0 0.0
20 0 19.0 0.0
21 0 20.0 0.0
22 0 21.0 0.0
23 0 22.0 0.0
24 0 23.0 0.0
25 0 24.0 0.0
26 0 25.0 0.0
27 0 26.0 0.0
28 0 27.0 0.0
29 0 28.0 0.0
30 0 29.0 0.0
31 0 30.0 0.0
32 0 31.0 0.0
33 0 32.0 0.0
34 0 33.0 0.0
35 0 34.0 0.0
36 0 35.0 0.0
37 0 36.0 0.0
38 0 36.0 8.0
39 0 35.0 8.0
40 0 34.0 8.0
41 0 33.0 8.0
42 0 32.0 8.0
43 0 31.0 8.0
44 0 30.0 8.0
45 0 29.0 8.0
46 0 28.0 8.0
47 0 27.0 8.0
48 0 26.0 8.0
49 0 25.0 8.0
50 0 24.0 8.0
51 0 23.0 8.0
52 0 22.0 8.0
53 0 21.0 8.0
54 0 20.0 8.0
55 0 19.0 8.0
56 0 18.0 8.0
57 0 17.0 8.0
58 0 16.0 8.0
59 0 15.0 8.0
60 0 14.0 8.0
61 0 13.0 8.0
62 0 12.0 8.0
63 0 11.0 8.0
64 0 10.0 8.0
65 0 9.0 8.0
66 0 8.0 8.0
67 0 7.0 8.0
68 0 6.0 8.0
69 0 5.0 8.0
70 0 4.0 8.0
71 0 3.0 8.0
72 0 2.0 8.0
73 0 1.0 8.0
74 0 0.0 7.0
75 0 0.0 6.0
76 0 0.0 5.0
77 0 0.0 4.0
78 0 0.0 3.0
79 0 0.0 2.0
80 0 0.0 1.0
81 0 1.0 1.0
82 0 1.0 2.0
83 0 1.0 3.0
84 0 1.0 4.0
85 0 1.0 5.0
86 0 1.0 6.0
87 0 1.0 7.0
88 0 2.0 1.0
89 0 2.0 2.0
90 0 2.0 3.0
91 0 2.0 4.0
92 0 2.0 5.0
93 0 2.0 6.0
94 0 2.0 7.0
95 0 3.0 1.0
96 0 3.0 2.0
97 0 3.0 3.0
98 0 3.0 4.0
99 0 3.0 5.0
100 0 3.0 6.0
101 0 3.0 7.0
102 0 4.0 1.0
103 0 4.0 2.0
104 0 4.0 3.0
105 0 4.0 4.0
106 0 4.0 5.0
107 0 4.0 6.0
108 0 4.0 7.0
109 0 5.0 1.0
110 0 5.0 2.0
111 0 5.0 3.0
112 0 5.0 4.0
113 0 5.0 5.0
114 0 5.0 6.0
115 0 5.0 7.0
116 0 6.0 1.0
117 0 6.0 2.0
118 0 6.0 3.0
119 0 6.0 4.0
120 0 6.0 5.0
121 0 6.0 6.0
122 0 6.0 7.0
123 0 7.0 1.0
124 0 7.0 2.0
125 0 7.0 3.0
126 0 7.0 4.0
127 0 7.0 5.0
128 0 7.0 6.0
129 0 7.0 7.0
130 0 8.0 1.0
131 0 8.0 2.0
132 0 8.0 3.0
133 0 8.0 4.0
134 0 8.0 5.0
135 0 8.0 6.0
136 0 8.0 7.0
137 0 9.0 1.0
138 0 9.0 2.0
139 0 9.0 3.0
140 0 9.0 4.0
141 0 9.0 5.0
142 0 9.0 6.0
143 0 9.0 7.0
144 0 10.0 1.0
145 0 10.0 2.0
146 0 10.0 3.0
147 0 10.0 4.0
148 0 10.0 5.0
149 0 10.0 6.0
150 0 10.0 7.0
151 0 11.0 1.0
152 0 11.0 2.0
153 0 11.0 3.0
154 0 11.0 4.0
155 0 11.0 5.0
156 0 11.0 6.0
157 0 11.0 7.0
158 0 12.0 1.0
159 0 12.0 2.0
160 0 12.0 3.0
161 0 12.0 4.0
162 0 12.0 5.0
163 0 12.0 6.0
164 0 12.0 7.0
165 0 13.0 1.0
166 0 13.0 2.0
167 0 13.0 3.0
168 0 13.0 4.0
169 0 13.0 5.0
170 0 13.0 6.0
171 0 13.0 7.0
172 0 14.0 1.0
173 0 14.0 2.0
174 0 14.0 3.0
175 0 14.0 4.0
176 0 14.0 5.0
177 0 14.0 6.0
178 0 14.0 7.0
179 0 15.0 1.0
180 0 15.0 2.0
181 0 15.0 3.0
182 0 15.0 4.0
183 0 15.0 5.0
184 0 15.0 6.0
185 0 15.0 7.0
186 0 16.0 1.0
187 0 16.0 2.0
188 0 16.0 3.0
189 0 16.0 4.0
190 0 16.0 5.0
191 0 16.0 6.0
192 0 16.0 7.0
193 0 17.0 1.0
194 0 17.0 2.0
195 0 17.0 3.0
196 0 17.0 4.0
197 0 17.0 5.0
198 0 17.0 6.0
199 0 17.0 7.0
200 0 18.0 1.0
201 0 18.0 2.0
202 0 18.0 3.0
203 0 18.0 4.0
204 0 18.0 5.0
205 0 18.0 6.0
206 0 18.0 7.0
207 0 19.0 1.0
208 0 19.0 2.0
209 0 19.0 3.0
210 0 19.0 4.0
211 0 19.0 5.0
212 0 19.0 6.0
213 0 19.0 7.0
214 0 20.0 1.0
215 0 20.0 2.0
216 0 20.0 3.0
217 0 20.0 4.0
218 0 20.0 5.0
219 0 20.0 6.0
220 0 20.0 7.0
221 0 21.0 1.0
222 0 21.0 2.0
223 0 21.0 3.0
224 0 21.0 4.0
225 0 21.0 5.0
226 0 21.0 6.0
227 0 21.0 7.0
228 0 22.0 1.0
229 0 22.0 2.0
230 0 22.0 3.0
231 0 22.0 4.0
232 0 22.0 5.0
233 0 22.0 6.0
234 0 22.0 7.0
235 0 23.0 1.0
236 0 23.0 2.0
237 0 23.0 3.0
238 0 23.0 4.0
239 0 23.0 5.0
240 0 23.0 6.0
241 0 23.0 7.0
242 0 24.0 1.0
243 0 24.0 2.0
244 0 24.0 3.0
245 0 24.0 4.0
246 0 24.0 5.0
247 0 24.0 6.0
248 0 24.0 7.0
249 0 25.0 1.0
250 0 25.0 2.0
251 0 25.0 3.0
252 0 25.0 4.0
253 0 25.0 5.0
254 0 25.0 6.0
255 0 25.0 7.0
256 0 26.0 1.0
257 0 26.0 2.0
258 0 26.0 3.0
259 0 26.0 4.0
260 0 26.0 5.0
261 0 26.0 6.0
262 0 26.0 7.0
263 0 27.0 1.0
264 0 27.0 2.0
265 0 27.0 3.0
266 0 27.0 4.0
267 0 27.0 5.0
268 0 27.0 6.0
269 0 27.0 7.0
270 0 28.0 1.0
271 0 28.0 2.0
272 0 28.0 3.0
273 0 28.0 4.0
274 0 28.0 5.0
275 0 28.0 6.0
276 0 28.0 7.0
277 0 29.0 1.0
278 0 29.0 2.0
279 0 29.0 3.0
280 0 29.0 4.0
281 0 29.0 5.0
282 0 29.0 6.0
283 0 29.0 7.0
284 0 30.0 1.0
285 0 30.0 2.0
286 0 30.0 3.0
287 0 30.0 4.0
288 0 30.0 5.0
289 0 30.0 6.0
290 0 30.0 7.0
291 0 31.0 1.0
292 0 31.0 2.0
293 0 31.0 3.0
294 0 31.0 4.0
295 0 31.0 5.0
296 0 31.0 6.0
297 0 31.0 7.0
298 0 32.0 1.0
299 0 32.0 2.0
300 0 32.0 3.0
301 0 32.0 4.0
302 0 32.0 5.0
303 0 32.0 6.0
304 0 32.0 7.0
305 0 33.0 1.0
306 0 33.0 2.0
307 0 33.0 3.0
308 0 33.0 4.0
309 0 33.0 5.0
310 0 33.0 6.0
311 0 33.0 7.0
312 0 34.0 1.0
313 0 34.0 2.0
314 0 34.0 3.0
315 0 34.0 4.0
316 0 34.0 5.0
317 0 34.0 6.0
318 0 34.0 7.0
319 0 35.0 1.0
320 0 35.0 2.0
321 0 35.0 3.0
322 0 35.0 4.0
323 0 35.0 5.0
324 0 35.0 6.0
325 0 35.0 7.0
326 0 36.0 1.0
327 0 36.0 2.0
328 0 36.0 3.0
329 0 36.0 4.0
330 0 36.0 5.0
331 0 36.0 6.0
332 0 36.0 7.0

# cells
# id attribute kind points
0 1 qua4 74 87 73 1
1 1 qua4 87 94 72 73
2 1 qua4 94 101 71 72
3 1 qua4 101 108 70 71
4 1 qua4 108 115 69 70
5 1 qua4 115 122 68 69
6 1 qua4 122 129 67 68
7 1 qua4 129 136 66 67
8 1 qua4 136 143 65 66
9 1 qua4 143 150 64 65
10 1 qua4 150 157 63 64
11 1 qua4 157 164 62 63
12 1 qua4 164 171 61 62
13 1 qua4 171 178 60 61
14 1 qua4 178 185 59 60
15 1 qua4 185 192 58 59
16 1 qua4 192 199 57 58
17 1 qua4 199 206 56 57
18 1 qua4 206 213 55 56
19 1 qua4 213 220 54 55
20 1 qua4 220 227 53 54
21 1 qua4 227 234 52 53
22 1 qua4 234 241 51 52
23 1 qua4 241 248 50 51
24 1 qua4 248 255 49 50
25 1 qua4 255 262 48 49
26 1 qua4 262 269 47 48
27 1 qua4 269 276 46 47
28 1 qua4 276 283 45 46
29 1 qua4 283 290 44 45
30 1 qua4 290 297 43 44
31 1 qua4 297 304 42 43
32 1 qua4 304 311 41 42
33 1 qua4 311 318 40 41
34 1 qua4 318 325 39 40
35 1 qua4 325 332 38 39
36 1 qua4 36 37 326 319
37 1 qua4 319 326 327 320
38 1 qua4 320 327 328 321
39 1 qua4 321 328 329 322
40 1 qua4 322 329 330 323
41 1 qua4 323 330 331 324
42 1 qua4 324 331 332 325
43 1 qua4 35 36 319 312
44 1 qua4 312 319 320 313
45 1 qua4 313 320 321 314
46 1 qua4 314 321 322 315
47 1 qua4 315 322 323 316
48 1 qua4 316 323 324 317
49 1 qua4 317 324 325 318
50 1 qua4 34 35 312 305
51 1 qua4 305 312 313 306
52 1 qua4 306 313 314 307
53 1 qua4 307 314 315 308
54 1 qua4 308 315 316 309
55 1 qua4 309 316 317 310
56 1 qua4 310 317 318 311
57 1 qua4 33 34 305 298
58 1 qua4 298 305 306 299
59 1 qua4 299 306 307 300
60 1 qua4 300 307 308 301
61 1 qua4 301 308 309 302
62 1 qua4 302 309 310 303
63 1 qua4 303 310 311 304
64 1 qua4 32 33 298 291
65 1 qua4 291 298 299 292
66 1 qua4 292 299 300 293
67 1 qua4 293 300 301 294
68 1 qua4 294 301 302 295
69 1 qua4 295 302 303 296
70 1 qua4 296 303 304 297
71 1 qua4 31 32 291 284
72 1 qua4 284 291 292 285
73 1 qua4 285 292 293 286
74 1 qua4 286 293 294 287
75 1 qua4 287 294 295 288
76 1 qua4 288 295 296 289
77 1 qua4 289 296 297 290
78 1 qua4 30 31 284 277
79 1 qua4 277 284 285 278
80 1 qua4 278 285 286 279
81 1 qua4 279 286 287 280
82 1 qua4 280 287 288 281
83 1 qua4 281 288 289 282
84 1 qua4 282 289 290 283
85 1 qua4 29 30 277 270
86 1 qua4 270 277 278 271
87 1 qua4 271 278 279 272
88 1 qua4 272 279 280 273
89 1 qua4 273 280 281 274
90 1 qua4 274 281 282 275
91 1 qua4 275 282 283 276
92 1 qua4 28 29 270 263
93 1 qua4 263 270 271 264
94 1 qua4 264 271 272 265
95 1 qua4 265 272 273 266
96 1 qua4 266 273 274 267
97 1 qua4 267 274 275 268
98 1 qua4 268 275 276 269
99 1 qua4 27 28 263 256
100 1 qua4 256 263 264 257
101 1 qua4 257 264 265 258
102 1 qua4 258 265 266 259
103 1 qua4 259 266 267 260
104 1 qua4 260 267 268 261
105 1 qua4 261 268 269 262
106 1 qua4 26 27 256 249
107 1 qua4 249 256 257 250
108 1 qua4 250 257 258 251
109 1 qua4 251 258 259 252
110 1 qua4 252 259 260 253
111 1 qua4 253 260 261 254
112 1 qua4 254 261 262 255
113 1 qua4 25 26 249 242
114 1 qua4 242 249 250 243
115 1 qua4 243 250 251 244
116 1 qua4 244 251 252 245
117 1 qua4 245 252 253 246
118 1 qua4 246 253 254 247
119 1 qua4 247 254 255 248
120 1 qua4 24 25 242 235
121 1 qua4 235 242 243 236
122 1 qua4 236 243 244 237
123 1 qua4 237 244 245 238
124 1 qua4 238 245 246 239
125 1 qua4 239 246 247 240
126 1 qua4 240 247 248 241
127 1 qua4 23 24 235 228
128 1 qua4 228 235 236 229
129 1 qua4 229 236 237 230
130 1 qua4 230 237 238 231
131 1 qua4 231 238 239 232
132 1 qua4 232 239 240 233
133 1 qua4 233 240 241 234
134 1 qua4 22 23 228 221
135 1 qua4 221 228 229 222
136 1 qua4 222 229 230 223
137 1 qua4 223 230 231 224
138 1 qua4 224 231 232 225
139 1 qua4 225 232 233 226
140 1 qua4 226 233 234 227
141 1 qua4 21 22 221 214
142 1 qua4 214 221 222 215
143 1 qua4 215 222 223 216
144 1 qua4 216 223 224 217
145 1 qua4 217 224 225 218
146 1 qua4 218 225 226 219
147 1 qua4 219 226 227 220
148 1 qua4 20 21 214 207
149 1 qua4 207 214 215 208
150 1 qua4 208 215 216 209
151 1 qua4 209 216 217 210
152 1 qua4 210 217 218 211
153 1 qua4 211 218 219 212
154 1 qua4 212 219 220 213
155 1 qua4 19 20 207 200
156 1 qua4 200 207 208 201
157 1 qua4 201 208 209 202
158 1 qua4 202 209 210 203
159 1 qua4 203 210 211 204
160 1 qua4 204 211 212 205
161 1 qua4 205 212 213 206
162 1 qua4 18 19 200 193
163 1 qua4 193 200 201 194
164 1 qua4 194 201 202 195
165 1 qua4 195 202 203 196
166 1 qua4 196 203 204 197
167 1 qua4 197 204 205 198
168 1 qua4 198 205 206 199
169 1 qua4 17 18 193 186
170 1 qua4 186 193 194 187
171 1 qua4 187 194 195 188
172 1 qua4 188 195 196 189
173 1 qua4 189 196 197 190
174 1 qua4 190 197 198 191
175 1 qua4 191 198 199 192
176 1 qua4 16 17 186 179
177 1 qua4 179 186 187 180
178 1 qua4 180 187 188 181
179 1 qua4 181 188 189 182
180 1 qua4 182 189 190 183
181 1 qua4 183 190 191 184
182 1 qua4 184 191 192 185
183 1 qua4 15 16 179 172
184 1 qua4 172 179 180 173
185 1 qua4 173 180 181 174
186 1 qua4 174 181 182 175
187 1 qua4 175 182 183 176
188 1 qua4 176 183 184 177
189 1 qua4 177 184 185 178
190 1 qua4 14 15 172 165
191 1 qua4 165 172 173 166
192 1 qua4 166 173 174 167
193 1 qua4 167 174 175 168
194 1 qua4 168 175 176 169
195 1 qua4 169 176 177 170
196 1 qua4 170 177 178 171
197 1 qua4 13 14 165 158
198 1 qua4 158 165 166 159
199 1 qua4 159 166 167 160
200 1 qua4 160 167 168 161
201 1 qua4 161 168 169 162
202 1 qua4 162 169 170 163
203 1 qua4 163 170 171 164
204 1 qua4 12 13 158 151
205 1 qua4 151 158 159 152
206 1 qua4 152 159 160 153
207 1 qua4 153 160 161 154
208 1 qua4 154 161 162 155
209 1 qua4 155 162 163 156
210 1 qua4 156 163 164 157
211 1 qua4 11 12 151 144
212 1 qua4 144 151 152 145
213 1 qua4 145 152 153 146
214 1 qua4 146 153 154 147
215 1 qua4 147 154 155 148
216 1 qua4 148 155 156 149
217 1 qua4 149 156 157 150
218 1 qua4 10 11 144 137
219 1 qua4 137 144 145 138
220 1 qua4 138 145 146 139
221 1 qua4 139 146 147 140
222 1 qua4 140 147 148 141
223 1 qua4 141 148 149 142
224 1 qua4 142 149 150 143
225 1 qua4 9 10 137 130
226 1 qua4 130 137 138 131
227 1 qua4 131 138 139 132
228 1 qua4 132 139 140 133
229 1 qua4 133 140 141 134
230 1 qua4 134 141 142 135
231 1 qua4 135 142 143 136
232 1 qua4 8 9 130 123
233 1 qua4 123 130 131 124
234 1 qua4 124 131 132 125
235 1 qua4 125 132 133 126
236 1 qua4 126 133 134 127
237 1 qua4 127 134 135 128
238 1 qua4 128 135 136 129
239 1 qua4 7 8 123 116
240 1 qua4 116 123 124 117
241 1 qua4 117 124 125 118
242 1 qua4 118 125 126 119
243 1 qua4 119 126 127 120
244 1 qua4 120 127 128 121
245 1 qua4 121 128 129 122
246 1 qua4 6 7 116 109
247 1 qua4 109 116 117 110
248 1 qua4 110 117 118 111
249 1 qua4 111 118 119 112
250 1 qua4 112 119 120 113
251 1 qua4 113 120 121 114
252 1 qua4 114 121 122 115
253 1 qua4 5 6 109 102
254 1 qua4 102 109 110 103
255 1 qua4 103 110 111 104
256 1 qua4 104 111 112 105
257 1 qua4 105 112 113 106
258 1 qua4 106 113 114 107
259 1 qua4 107 114 115 108
260 1 qua4 4 5 102 95
261 1 qua4 95 102 103 96
262 1 qua4 96 103 104 97
263 1 qua4 97 104 105 98
264 1 qua4 98 105 106 99
265 1 qua4 99 106 107 100
266 1 qua4 100 107 108 101
267 1 qua4 3 4 95 88
268 1 qua4 88 95 96 89
269 1 qua4 89 96 97 90
270 1 qua4 90 97 98 91
271 1 qua4 91 98 99 92
272 1 qua4 92 99 100 93
273 1 qua4 93 100 101 94
274 1 qua4 2 3 88 81
275 1 qua4 81 88 89 82
276 1 qua4 82 89 90 83
277 1 qua4 83 90 91 84
278 1 qua4 84 91 92 85
279 1 qua4 85 92 93 86
280 1 qua4 86 93 94 87
281 1 qua4 0 2 81 80
282 1 qua4 80 81 82 79
283 1 qua4 79 82 83 78
284 1 qua4 78 83 84 77
285 1 qua4 77 84 85 76
286 1 qua4 76 85 86 75
287 1 qua4 75 86 87 74

# marked edges
# marker p1 p2 p3 p4
12 1 73
12 60 61
12 61 62
12 62 63
12 63 64
12 64 65
12 65 66
12 66 67
12 67 68
12 68 69
12 69 70
12 70 71
12 71 72
12 72 73
8 38 39
8 39 40
8 40 41
8 41 42
8 42 43
8 43 44
8 44 45
8 45 46
8 46 47
8 47 48
8 48 49
8 49 50
8 50 51
8 51 52
